<?xml version="1.0" encoding="utf-8"?>
<!--
  - This file is part of StyleBI.
  - Copyright (C) 2024  InetSoft Technology
  -
  - This program is free software: you can redistribute it and/or modify
  - it under the terms of the GNU Affero General Public License as published by
  - the Free Software Foundation, either version 3 of the License, or
  - (at your option) any later version.
  -
  - This program is distributed in the hope that it will be useful,
  - but WITHOUT ANY WARRANTY; without even the implied warranty of
  - MERCHANTABILITY or FITNESS FOR A PARTICULAR PURPOSE.  See the
  - GNU Affero General Public License for more details.
  -
  - You should have received a copy of the GNU Affero General Public License
  - along with this program.  If not, see <https://www.gnu.org/licenses/>.
  -->

<!-- Generator: Adobe Illustrator 15.1.0, SVG Export Plug-In . SVG Version: 6.00 Build 0)  -->
<!DOCTYPE svg PUBLIC "-//W3C//DTD SVG 1.1//EN" "http://www.w3.org/Graphics/SVG/1.1/DTD/svg11.dtd">
<svg version="1.1"
	 id="svg2816" xmlns:dc="http://purl.org/dc/elements/1.1/" xmlns:cc="http://creativecommons.org/ns#" xmlns:rdf="http://www.w3.org/1999/02/22-rdf-syntax-ns#" xmlns:svg="http://www.w3.org/2000/svg"
	 xmlns="http://www.w3.org/2000/svg" xmlns:xlink="http://www.w3.org/1999/xlink" x="0px" y="0px" width="44px" height="30px"
	 viewBox="112.592 56.201 44 30" enable-background="new 112.592 56.201 44 30" xml:space="preserve">
<title  id="title3537">Apache Cassandra</title>
<g id="g2994">
</g>
<g>
	<g id="g2830">
		<g id="g2836" transform="translate(210.8784,690.4834)">
			<path id="path2838" fill="#BBE6FB" d="M-64.339-622.752c0.295,3.425-5.097,6.685-12.039,7.281
				c-6.943,0.595-12.81-1.698-13.104-5.124c-0.294-3.426,5.096-6.686,12.039-7.281C-70.499-628.471-64.632-626.177-64.339-622.752"
				/>
		</g>
	</g>
	<g id="g2842">
		<g id="g2850">
		</g>
		<g id="g2848">
			<g id="g2856">
				<defs>
					<rect id="SVGID_1_" x="125.217" y="63.008" width="16.389" height="11.542"/>
				</defs>
				<clipPath id="SVGID_2_">
					<use xlink:href="#SVGID_1_"  overflow="visible"/>
				</clipPath>
				<g id="g2858" opacity="0.35" clip-path="url(#SVGID_2_)">
					<g id="g2860" transform="translate(141.3843,715.9233)">
						<path id="path2862" fill="#FFFFFF" d="M-7.744-652.914c-2.648-0.043-5.748,1.008-8.054,1.993
							c-0.239,0.691-0.369,1.427-0.369,2.19c0,4.063,3.669,7.357,8.194,7.357c4.526,0,8.195-3.295,8.195-7.357
							c0-1.286-0.367-2.495-1.015-3.546C-2.638-652.564-5.174-652.873-7.744-652.914"/>
					</g>
				</g>
			</g>
		</g>
	</g>
	<g id="g2884" transform="translate(119.8818,697.4946)">
		<path id="path2886" fill="#373535" d="M9.767-631.065c0.18-0.398,0.452-0.593,0.716-0.927c-0.03-0.08-0.094-0.338-0.094-0.428
			c0-0.4,0.325-0.725,0.725-0.725c0.095,0,0.185,0.02,0.268,0.052c1.2-0.915,2.78-1.314,4.369-0.958
			c0.145,0.033,0.286,0.072,0.425,0.115c-1.568-0.217-3.337,0.338-4.54,1.31c0.037,0.086,0.139,0.334,0.139,0.434
			c0,0.4-0.259,0.498-0.66,0.498c-0.09,0-0.178-0.017-0.258-0.048c-0.271,0.365-0.604,1.061-0.768,1.495
			c0.666,0.595,1.266,0.811,2.05,1.104c-0.001-0.037,0.027-0.072,0.027-0.109c0-1.208,1.063-2.189,2.27-2.189
			c1.082,0,1.978,0.788,2.153,1.819c0.539-0.344,1.062-0.606,1.459-1.116c-0.093-0.113-0.192-0.433-0.192-0.592
			c0-0.363,0.294-0.658,0.658-0.658c0.051,0,0.1,0.007,0.148,0.019c0.202-0.415,0.354-0.855,0.452-1.309
			c-1.889-1.397-5.542-1.206-5.542-1.206s-2.906-0.152-4.874,0.807C8.83-632.729,9.208-631.827,9.767-631.065"/>
	</g>
	<g id="g2888" transform="translate(168.4907,700.4282)">
		<path id="path2890" fill="#373535" d="M-29.82-634.543c0.133,0.121,0.207,0.226,0.264,0.329c0.178,0.318-0.178,0.608-0.54,0.608
			c-0.038,0-0.073-0.005-0.108-0.011c-0.41,0.64-1.127,1.459-1.764,1.873c0.977,0.16,1.897,0.551,2.631,1.155
			c0.533-0.956,0.942-2.337,0.942-3.509c0-0.892-0.394-1.547-0.989-2.027C-29.415-635.647-29.669-634.978-29.82-634.543"/>
	</g>
	<g id="g2892" transform="translate(125.7842,667.8032)">
		<path id="path2894" fill="#373535" d="M4.959-595.862c0.326-0.899,1.126-1.595,1.884-2.208c-0.111-0.152-0.277-0.527-0.347-0.705
			c-0.923-0.281-1.74-0.808-2.374-1.503c-0.005,0.021-0.01,0.04-0.015,0.06c-0.12,0.535-0.142,1.07-0.083,1.594
			c0.443,0.082,0.777,0.469,0.777,0.936c0,0.276-0.242,0.677-0.43,0.851C4.576-596.395,4.716-596.182,4.959-595.862"/>
	</g>
	<g id="g2896" transform="translate(125.4756,663.7393)">
		<path id="path2898" fill="#373535" d="M5.211-591.044c-0.388-0.386-0.656-1.155-0.908-1.639c-0.047,0.007-0.096,0.012-0.145,0.012
			c-0.526,0-1.078-0.442-0.954-0.953c0.069-0.283,0.264-0.468,0.583-0.623c-0.073-0.585-0.092-1.428,0.043-2.037
			c0.039-0.175,0.121-0.256,0.177-0.422c-0.581-0.85-0.956-1.965-0.956-3.072c0-0.041,0.001-0.081,0.002-0.12
			c-0.982,0.492-1.718,1.268-1.718,2.488c0,2.7,1.556,5.35,3.87,6.387C5.208-591.029,5.209-591.036,5.211-591.044"/>
	</g>
	<g id="g2900" transform="translate(156.1313,683.8511)">
		<path id="path2902" fill="#373535" d="M-19.755-614.888c-0.299,0.85-1.106,1.461-2.06,1.461c-0.51,0-0.978-0.176-1.349-0.468
			c-0.766,0.596-1.462,1.645-1.814,2.554c0.158,0.171,0.269,0.312,0.447,0.463c0.536,0.139,1.273,0,1.854,0
			c2.333,0,4.401-1.039,5.585-2.859C-17.879-614.283-18.809-614.802-19.755-614.888"/>
	</g>
	<path id="path2914" fill="#1287B1" d="M129.588,66.745c0.18-0.398,0.406-0.767,0.669-1.101c-0.029-0.079-0.047-0.164-0.047-0.254
		c0-0.4,0.325-0.725,0.725-0.725c0.095,0,0.185,0.019,0.268,0.052c1.201-0.914,2.78-1.313,4.368-0.958
		c0.146,0.033,0.287,0.072,0.427,0.116c-1.569-0.218-3.19,0.263-4.394,1.234c0.037,0.087,0.056,0.182,0.056,0.282
		c0,0.4-0.324,0.725-0.725,0.725c-0.091,0-0.177-0.017-0.258-0.048c-0.271,0.365-0.494,0.768-0.657,1.203
		c0.571,0.616,1.272,1.103,2.056,1.396c-0.002-0.038-0.005-0.075-0.005-0.112c0-1.207,0.978-2.186,2.186-2.186
		c1.081,0,1.978,0.786,2.152,1.819c0.539-0.344,1.02-0.785,1.417-1.294c-0.093-0.113-0.15-0.256-0.15-0.414
		c0-0.364,0.296-0.658,0.658-0.658c0.052,0,0.102,0.008,0.149,0.019c0.202-0.415,0.354-0.855,0.451-1.309
		c-1.889-1.397-5.54-1.207-5.54-1.207s-2.907-0.151-4.874,0.808C128.652,65.08,129.03,65.983,129.588,66.745"/>
	<g id="g2916" transform="translate(169.0396,699.8481)">
		<path id="path2918" fill="#1287B1" d="M-30.266-633.855c0.134,0.121,0.219,0.293,0.219,0.487c0,0.363-0.296,0.658-0.658,0.658
			c-0.037,0-0.072-0.005-0.108-0.011c-0.409,0.64-0.95,1.185-1.589,1.598c0.942,0.147,1.827,0.546,2.562,1.15
			c0.532-0.956,0.838-2.057,0.838-3.229c0-0.894-0.394-1.547-0.989-2.027C-30.024-634.752-30.117-634.291-30.266-633.855"/>
	</g>
	<g id="g2920" transform="translate(126.3252,666.6401)">
		<path id="path2922" fill="#1287B1" d="M4.519-594.483c0.326-0.899,0.891-1.706,1.648-2.317c-0.111-0.153-0.202-0.318-0.271-0.496
			c-0.924-0.281-1.741-0.807-2.375-1.503c-0.004,0.021-0.011,0.041-0.015,0.061c-0.12,0.534-0.142,1.07-0.083,1.593
			c0.442,0.083,0.777,0.47,0.777,0.936c0,0.276-0.118,0.525-0.306,0.7C4.065-595.148,4.275-594.804,4.519-594.483"/>
	</g>
	<path id="path2926" fill="#1287B1" d="M130.684,72.685c-0.388-0.386-0.714-0.829-0.965-1.312c-0.047,0.007-0.096,0.012-0.145,0.012
		c-0.526,0-0.954-0.426-0.954-0.953c0-0.377,0.22-0.702,0.538-0.856c-0.072-0.586-0.048-1.194,0.089-1.803
		c0.039-0.174,0.086-0.344,0.142-0.511c-0.581-0.85-0.921-1.877-0.921-2.983c0-0.041,0.002-0.081,0.003-0.121
		c-0.982,0.493-1.718,1.268-1.718,2.489c0,2.701,1.613,5.023,3.927,6.061C130.681,72.699,130.682,72.693,130.684,72.685"/>
	<g id="g2928" transform="translate(155.8091,682.1509)">
		<path id="path2930" fill="#1287B1" d="M-19.49-612.873c-0.3,0.851-1.109,1.461-2.062,1.461c-0.51,0-0.977-0.176-1.35-0.468
			c-0.766,0.597-1.344,1.41-1.697,2.318c0.158,0.172,0.327,0.332,0.506,0.482c0.535,0.141,1.098,0.215,1.678,0.215
			c2.334,0,4.385-1.204,5.57-3.025C-17.633-612.434-18.546-612.786-19.49-612.873"/>
	</g>
	<g id="g2934">
		<g id="g2942">
		</g>
		<g id="g2940">
			<g id="g2948">
				<defs>
					<rect id="SVGID_3_" x="129.893" y="64.409" width="8.521" height="8.513"/>
				</defs>
				<clipPath id="SVGID_4_">
					<use xlink:href="#SVGID_3_"  overflow="visible"/>
				</clipPath>
				<g id="g2950" clip-path="url(#SVGID_4_)">
					<g id="g2952" transform="translate(156.2222,685.187)">
						<path id="path2954" fill="#FFFFFF" d="M-19.827-616.472l2.02-0.482l-2.028-0.103l1.65-1.261l-1.873,0.671l1.273-1.763
							l-1.757,1.168l0.613-2.063l-1.206,1.701l-0.028-2.15l-0.793,1.915l-0.662-1.938l0.036,2.282l-1.144-2.046l0.619,2.173
							l-1.855-1.35l1.454,1.827l-2.304-0.848l1.818,1.345l-2.331,0.072l2.383,0.615l-2.386,0.516l2.355,0.171l-1.986,1.272
							l2.045-0.742l-1.42,1.798l1.793-1.447l-0.646,2.412l1.384-1.963l-0.194,2.317l0.786-2.101l0.669,2.208l0.162-2.215
							l0.993,1.891l-0.587-2.163l1.817,1.409l-1.174-1.796l1.995,0.777l-1.524-1.499l2.044,0.161L-19.827-616.472z"/>
					</g>
				</g>
			</g>
		</g>
	</g>
	<g id="g2956">
		<g id="g2958">
			<g id="g2966">
			</g>
			<g id="g2964">
				<g id="g2972">
					<defs>
						<rect id="SVGID_5_" x="114.895" y="61.104" width="39.427" height="11.476"/>
					</defs>
					<clipPath id="SVGID_6_">
						<use xlink:href="#SVGID_5_"  overflow="visible"/>
					</clipPath>
					<g id="g2974" opacity="0.35" clip-path="url(#SVGID_6_)">
						<g id="g2976" transform="translate(40.4033,664.3701)">
							<path id="path2978" fill="#373535" d="M74.492-591.791c6.263-6.264,11.265-8.197,15.804-9.08
								c0.601-0.117,0.714-1.429,0.714-1.429s0.084,0.967,0.504,1.093c0.42,0.126,0.967-1.513,0.967-1.513s-0.504,1.472,0,1.555
								c0.505,0.084,1.429-1.429,1.429-1.429s-0.378,1.303-0.125,1.387c0.251,0.084,1.512-1.892,1.512-1.892
								s-0.755,1.303-0.041,1.429c0.715,0.126,1.758-0.889,1.758-0.889s-0.819,0.928-0.454,1.057
								c1.554,0.546,2.813-1.475,2.813-1.475s-0.292,0.886-1.049,1.854c1.64,0.42,2.857-2.049,2.857-2.049l-1.218,2.469
								c0.63,0.336,3.152-2.564,3.152-2.564s-1.303,2.27-2.06,2.732c0.42,0.336,1.934-1.009,1.934-1.009s-1.219,1.513-0.757,1.597
								c0.672,0.546,3.152-2.816,3.152-2.816s-0.967,1.976-2.396,3.53c1.193,0.598,4.161-3.236,4.161-3.236
								s-0.084,1.219-2.228,3.152c1.597-0.21,3.656-3.237,3.656-3.237s-0.756,2.271-2.563,3.867
								c1.567-0.163,4.077-4.035,4.077-4.035s-0.967,2.69-2.942,4.246c2.186,0.483,5.339-2.774,5.339-2.774
								s-1.241,2.311-2.858,3.257c1.808,0.693,4.287-2.165,4.287-2.165s-2.479,3.825-6.432,3.657
								c-1.296-0.055-5.218-3.933-13.619-3.615C82.772-599.694,80.419-594.986,74.492-591.791"/>
						</g>
					</g>
				</g>
			</g>
			<g id="g2980" transform="translate(41.7861,666.9326)">
				<path id="path2982" fill="#373535" d="M73.366-594.829c6.263-6.264,11.265-8.197,15.804-9.079
					c0.601-0.117,0.714-1.43,0.714-1.43s0.084,0.967,0.504,1.093c0.42,0.126,0.967-1.513,0.967-1.513s-0.505,1.471,0,1.556
					c0.505,0.083,1.429-1.429,1.429-1.429s-0.377,1.303-0.125,1.387c0.251,0.084,1.513-1.891,1.513-1.891s-0.757,1.302-0.043,1.429
					c0.716,0.126,1.758-0.889,1.758-0.889s-0.82,0.929-0.455,1.057c1.556,0.547,2.813-1.475,2.813-1.475s-0.291,0.887-1.047,1.854
					c1.639,0.42,2.856-2.049,2.856-2.049l-1.218,2.47c0.631,0.335,3.152-2.564,3.152-2.564s-1.302,2.27-2.06,2.732
					c0.421,0.337,1.934-1.009,1.934-1.009s-1.218,1.514-0.756,1.598c0.672,0.546,3.151-2.816,3.151-2.816s-0.967,1.976-2.396,3.531
					c1.195,0.597,4.163-3.237,4.163-3.237s-0.085,1.219-2.229,3.153c1.598-0.21,3.658-3.237,3.658-3.237s-0.758,2.27-2.565,3.867
					c1.569-0.163,4.077-4.035,4.077-4.035s-0.967,2.69-2.94,4.246c2.185,0.483,5.338-2.774,5.338-2.774s-1.24,2.312-2.859,3.258
					c1.808,0.694,4.288-2.165,4.288-2.165s-2.48,3.825-6.432,3.656c-1.296-0.055-5.217-3.933-13.619-3.615
					C81.646-602.732,79.293-598.024,73.366-594.829"/>
			</g>
		</g>
	</g>
	<g id="g2992">
		<g id="g3000">
			<defs>
				<rect id="SVGID_7_" x="114.731" y="68.073" width="37.009" height="13.702"/>
			</defs>
			<clipPath id="SVGID_8_">
				<use xlink:href="#SVGID_7_"  overflow="visible"/>
			</clipPath>
			<g id="g3002" opacity="0.35" clip-path="url(#SVGID_8_)">
				<g id="g3004" transform="translate(39.5195,660.6802)">
					<path id="path3006" fill="#373535" d="M75.212-587.416c3.31,1.661,6.336-0.253,10.151,0.823
						c2.9,0.817,6.431,1.824,11.224,1.132c4.791-0.694,8.889-2.774,10.844-6.495c0.609-1.66,3.089,0.378,3.089,0.378
						s-1.807-0.756-1.764-0.399c0.042,0.357,2.71,1.597,2.71,1.597s-2.417-0.757-2.27-0.189c0.146,0.567,3.025,2.837,3.025,2.837
						s-3.257-2.479-3.53-2.144c-0.273,0.337,1.388,1.704,1.388,1.704s-2.753-1.704-3.72-1.201c-0.695,0.361,2.858,2.692,2.858,2.692
						s-2.313-1.766-2.858-1.304c-0.547,0.464,2.605,4.245,2.605,4.245s-3.572-3.867-3.93-3.677
						c-0.357,0.189,0.987,2.039,0.987,2.039s-1.766-1.934-2.249-1.598s2.522,5.359,2.522,5.359s-3.258-5.149-4.604-4.288
						c2.113,4.635,1.324,5.296,1.324,5.296s-0.27-4.728-2.9-4.603c-1.324,0.063,0.631,3.531,0.631,3.531s-1.799-3.167-2.997-3.104
						c2.209,4.179,1.421,5.878,1.421,5.878s0.364-3.568-2.629-5.555c1.135,1.01-0.713,5.555-0.713,5.555s1.626-6.698-1.198-5.421
						c-0.446,0.2-0.031,3.342-0.031,3.342s-0.568-3.595-1.418-3.405c-0.497,0.109-3.152,4.98-3.152,4.98s2.175-5.265,1.513-5.044
						c-0.482,0.162-1.388,2.333-1.388,2.333s0.441-2.144,0-2.27c-0.441-0.126-2.9,2.27-2.9,2.27s1.829-2.144,1.513-2.586
						c-0.478-0.668-1.038-0.699-1.702-0.44c-0.967,0.377-2.27,2.144-2.27,2.144s1.299-1.789,1.072-2.458
						c-0.364-1.077-4.098,2.08-4.098,2.08s2.208-2.08,1.703-2.522c-0.504-0.44-3.243-0.305-4.098-0.308
						C76.851-586.219,75.977-586.811,75.212-587.416"/>
				</g>
			</g>
		</g>
	</g>
	<g id="g3008" transform="translate(38.8408,662.7183)">
		<path id="path3010" fill="#373535" d="M75.764-589.832c3.31,1.659,6.336-0.253,10.151,0.822c2.9,0.816,6.431,1.825,11.223,1.132
			c4.792-0.694,8.891-2.774,10.846-6.494c0.608-1.661,3.088,0.378,3.088,0.378s-1.808-0.757-1.765-0.4
			c0.042,0.357,2.711,1.598,2.711,1.598s-2.417-0.756-2.271-0.189c0.148,0.567,3.027,2.836,3.027,2.836s-3.259-2.479-3.531-2.143
			c-0.272,0.336,1.388,1.702,1.388,1.702s-2.753-1.702-3.72-1.2c-0.696,0.361,2.857,2.693,2.857,2.693s-2.312-1.766-2.857-1.303
			c-0.548,0.462,2.605,4.244,2.605,4.244s-3.572-3.867-3.93-3.677c-0.357,0.188,0.988,2.037,0.988,2.037s-1.767-1.934-2.25-1.597
			c-0.483,0.336,2.521,5.36,2.521,5.36s-3.257-5.15-4.603-4.288c2.113,4.634,1.324,5.297,1.324,5.297s-0.27-4.728-2.9-4.604
			c-1.324,0.063,0.63,3.53,0.63,3.53s-1.798-3.167-2.996-3.104c2.209,4.179,1.421,5.878,1.421,5.878s0.365-3.568-2.63-5.555
			c1.136,1.009-0.711,5.555-0.711,5.555s1.625-6.7-1.199-5.423c-0.446,0.202-0.031,3.343-0.031,3.343s-0.568-3.595-1.419-3.405
			c-0.496,0.11-3.152,4.981-3.152,4.981s2.175-5.265,1.513-5.044c-0.482,0.161-1.387,2.333-1.387,2.333s0.441-2.144,0-2.271
			c-0.441-0.125-2.9,2.271-2.9,2.271s1.828-2.144,1.513-2.586c-0.478-0.668-1.039-0.699-1.702-0.44
			c-0.967,0.376-2.271,2.144-2.271,2.144s1.299-1.79,1.072-2.459c-0.365-1.077-4.098,2.08-4.098,2.08s2.207-2.08,1.702-2.521
			c-0.504-0.442-3.243-0.305-4.098-0.308C77.404-588.635,76.53-589.227,75.764-589.832"/>
	</g>
</g>
</svg>
