<?xml version="1.0" encoding="utf-8"?>
<!--
  - This file is part of StyleBI.
  - Copyright (C) 2024  InetSoft Technology
  -
  - This program is free software: you can redistribute it and/or modify
  - it under the terms of the GNU Affero General Public License as published by
  - the Free Software Foundation, either version 3 of the License, or
  - (at your option) any later version.
  -
  - This program is distributed in the hope that it will be useful,
  - but WITHOUT ANY WARRANTY; without even the implied warranty of
  - MERCHANTABILITY or FITNESS FOR A PARTICULAR PURPOSE.  See the
  - GNU Affero General Public License for more details.
  -
  - You should have received a copy of the GNU Affero General Public License
  - along with this program.  If not, see <https://www.gnu.org/licenses/>.
  -->

<!-- Generator: Adobe Illustrator 15.0.0, SVG Export Plug-In . SVG Version: 6.00 Build 0)  -->
<!DOCTYPE svg PUBLIC "-//W3C//DTD SVG 1.1//EN" "http://www.w3.org/Graphics/SVG/1.1/DTD/svg11.dtd">
<svg version="1.1" id="图层_1" xmlns="http://www.w3.org/2000/svg" xmlns:xlink="http://www.w3.org/1999/xlink" x="0px" y="0px"
	 width="200px" height="130px" viewBox="0 0 200 130" enable-background="new 0 0 200 130" xml:space="preserve">
<g>
	<g>
		<path fill="#FFFFFF" d="M2.14,118.051C1.052,112.115,0.5,106.045,0.5,100C0.5,45.136,45.136,0.5,100,0.5s99.5,44.636,99.5,99.5
			c0,6.034-0.552,12.104-1.64,18.05l-98.737,6.549L2.14,118.051z"/>
		<path fill="#D1D1D1" d="M100,1c54.589,0,99,44.411,99,99c0,5.875-0.525,11.784-1.563,17.577l-98.314,6.521l-96.562-6.52
			C1.525,111.794,1,105.885,1,100C1,45.411,45.411,1,100,1 M100,0C44.771,0,0,44.773,0,100c0,6.33,0.594,12.52,1.719,18.523
			l97.404,6.576l99.158-6.576C199.404,112.52,200,106.33,200,100C200,44.773,155.229,0,100,0L100,0z"/>
	</g>
	<circle fill="#EF5B5B" cx="100" cy="100" r="17.5"/>
	<path fill="#DFE2E5" d="M60.404,100c0-21.867,17.727-39.594,39.596-39.594c21.867,0,39.594,17.727,39.594,39.594h35.5
		c0-41.473-33.621-75.094-75.094-75.094c-41.475,0-75.094,33.621-75.094,75.094H60.404z"/>
	<path fill="#009CD3" d="M198.669,105.193h-77.91c-2.314,9.373-10.717,16.33-20.759,16.33c-10.043,0-18.447-6.957-20.761-16.33
		H1.331c-0.736,0-1.331,0.586-1.331,1.309v22.189C0,129.414,0.595,130,1.331,130h197.338c0.734,0,1.331-0.586,1.331-1.309v-22.189
		C200,105.779,199.403,105.193,198.669,105.193z"/>
	<polygon fill="#EF5B5B" points="105,96.527 95,96.527 100,38.697 	"/>
	<rect x="99" y="21.906" fill="#42BCF4" width="2" height="10"/>
	<g>
		<text transform="matrix(1 0 0 1 9.584 99.2754)" fill="#383838" font-family="'ArialMT'" font-size="9.4499">40</text>
		<text transform="matrix(1 0 0 1 20.6104 59.3857)" fill="#383838" font-family="'ArialMT'" font-size="9.4499">60</text>
		<text transform="matrix(1 0 0 1 52.8965 27.4951)" fill="#383838" font-family="'ArialMT'" font-size="9.4499">80</text>
		<text transform="matrix(1 0 0 1 90.0293 15.5986)" fill="#383838" font-family="'ArialMT'" font-size="9.4499">100</text>
		<text transform="matrix(1 0 0 1 134.5244 27.4951)" fill="#383838" font-family="'ArialMT'" font-size="9.4499">120</text>
		<text transform="matrix(1 0 0 1 164.8428 59.3857)" fill="#383838" font-family="'ArialMT'" font-size="9.4499">140</text>
		<text transform="matrix(1 0 0 1 174.6494 99.2754)" fill="#383838" font-family="'ArialMT'" font-size="9.4499">160</text>
	</g>
	<path opacity="0.5" fill="#70797D" d="M49.451,38.877l2.02,2.415l0.246-0.205l-2.01-2.423L49.451,38.877z M67.48,27.555
		l1.303,2.865l0.289-0.131l-1.283-2.873L67.48,27.555z M62.695,29.922l1.49,2.771l0.283-0.15l-1.479-2.779L62.695,29.922z
		 M53.66,35.598l1.85,2.545l0.26-0.186l-1.836-2.558L53.66,35.598z M58.082,32.606l1.674,2.666l0.273-0.173l-1.666-2.668
		L58.082,32.606z M82.641,22.475l0.689,3.071l0.314-0.07l-0.68-3.073L82.641,22.475z M93.18,20.846l0.26,3.137l0.326-0.027
		l-0.26-3.137L93.18,20.846z M98.531,23.712h0.324v-6.021h-0.324V23.712z M87.887,21.48l0.469,3.113l0.324-0.049l-0.471-3.113
		L87.887,21.48z M77.479,23.822l0.9,3.016l0.305-0.091l-0.883-3.021L77.479,23.822z M45.475,42.432l2.176,2.273l0.23-0.219
		l-2.164-2.287L45.475,42.432z M72.422,25.516l1.098,2.949l0.305-0.113l-1.09-2.952L72.422,25.516z M21.754,89.045l3.119,0.413
		l0.043-0.316l-3.117-0.43L21.754,89.045z M22.633,83.784l3.084,0.624l0.064-0.312l-3.082-0.642L22.633,83.784z M17.016,99.85h7.168
		v-0.331h-7.168V99.85z M21.23,94.352l3.141,0.203l0.021-0.318l-3.141-0.22L21.23,94.352z M25.453,73.502l2.971,1.037l0.105-0.301
		l-2.965-1.053L25.453,73.502z M29.635,63.708l2.799,1.437l0.148-0.287l-2.799-1.439L29.635,63.708z M38.281,50.295l2.459,1.965
		l0.203-0.25l-2.453-1.974L38.281,50.295z M27.375,68.537l2.895,1.234l0.127-0.293l-2.891-1.245L27.375,68.537z M35.1,54.57
		l2.584,1.795l0.186-0.264l-2.58-1.803L35.1,54.57z M32.211,59.048l2.699,1.618l0.166-0.275l-2.695-1.625L32.211,59.048z
		 M41.744,46.244l2.326,2.121l0.213-0.234l-2.313-2.134L41.744,46.244z M23.867,78.595l3.035,0.833l0.086-0.309l-3.031-0.844
		L23.867,78.595z M171.432,65.723l-2.846,1.342l0.139,0.295l2.848-1.34L171.432,65.723z M173.557,70.623l-2.932,1.146l0.119,0.304
		l2.932-1.144L173.557,70.623z M168.98,60.977l-2.746,1.535l0.154,0.279l2.754-1.523L168.98,60.977z M160.635,53.938l0.191,0.252
		l2.523-1.877l-0.201-0.271L160.635,53.938z M166.217,56.411l-2.639,1.716l0.178,0.273l2.641-1.712L166.217,56.411z M175.344,75.664
		L172.34,76.6l0.098,0.313l3.004-0.936L175.344,75.664z M175.816,99.519v0.331h7.166v-0.331H175.816z M176.779,80.801l-3.061,0.732
		l0.076,0.316l3.063-0.729L176.779,80.801z M178.973,96.221l-0.012-0.335L175.814,96l0.012,0.318L178.973,96.221z M157.416,49.949
		l0.207,0.24l2.393-2.044l-0.219-0.254L157.416,49.949z M178.59,91.301l-3.131,0.324l0.031,0.316l3.135-0.308L178.59,91.301z
		 M177.861,86.018l-3.102,0.534l0.053,0.315l3.105-0.52L177.861,86.018z M150.219,42.678l0.234,0.207l2.094-2.35l-0.254-0.225
		L150.219,42.678z M118.854,26.051l0.307,0.08l0.795-3.046l-0.324-0.083L118.854,26.051z M153.939,46.191l0.223,0.227l2.246-2.204
		l-0.236-0.24L153.939,46.191z M108.783,24.198l0.322,0.038l0.371-3.127l-0.326-0.037L108.783,24.198z M113.848,24.954l0.316,0.06
		l0.584-3.094l-0.324-0.061L113.848,24.954z M128.574,29.252l0.295,0.119l1.197-2.91l-0.311-0.127L128.574,29.252z M123.768,27.486
		l0.303,0.1l0.996-2.985l-0.318-0.104L123.768,27.486z M103.682,23.785l0.32,0.018l0.162-3.145l-0.33-0.017L103.682,23.785z
		 M146.266,39.415l0.252,0.194l1.932-2.484l-0.264-0.204L146.266,39.415z M137.76,33.732l0.275,0.159l1.582-2.722l-0.291-0.167
		L137.76,33.732z M142.105,36.43l0.266,0.178l1.762-2.609l-0.279-0.186L142.105,36.43z M133.242,31.336l0.289,0.141l1.387-2.824
		l-0.297-0.145L133.242,31.336z"/>
</g>
</svg>
