<?xml version="1.0" encoding="UTF-8" standalone="no"?>
<!--
  - This file is part of StyleBI.
  - Copyright (C) 2024  InetSoft Technology
  -
  - This program is free software: you can redistribute it and/or modify
  - it under the terms of the GNU Affero General Public License as published by
  - the Free Software Foundation, either version 3 of the License, or
  - (at your option) any later version.
  -
  - This program is distributed in the hope that it will be useful,
  - but WITHOUT ANY WARRANTY; without even the implied warranty of
  - MERCHANTABILITY or FITNESS FOR A PARTICULAR PURPOSE.  See the
  - GNU Affero General Public License for more details.
  -
  - You should have received a copy of the GNU Affero General Public License
  - along with this program.  If not, see <https://www.gnu.org/licenses/>.
  -->

<svg
  xmlns:dc="http://purl.org/dc/elements/1.1/"
  xmlns:cc="http://creativecommons.org/ns#"
  xmlns:rdf="http://www.w3.org/1999/02/22-rdf-syntax-ns#"
  xmlns:svg="http://www.w3.org/2000/svg"
  xmlns="http://www.w3.org/2000/svg"
  xml:space="preserve"
  enable-background="new 0 0 200 120"
  viewBox="0 0 200 120"
  height="120px"
  width="200px"
  y="0px"
  x="0px"
  id="图层_1"
  version="1.1"><metadata
   id="metadata4668"><rdf:RDF><cc:Work
       rdf:about=""><dc:format>image/svg+xml</dc:format><dc:type
  rdf:resource="http://purl.org/dc/dcmitype/StillImage"/><dc:title></dc:title></cc:Work></rdf:RDF></metadata>
  <path
    style="fill:#48b2f9;fill-opacity:1;stroke:none"
    d="m 99.996094,0 c -0.170537,0 -0.339429,0.00500935 -0.509766,0.00585938 0,0 0,12.16796862 0,12.16796862 0.170864,-9.73e-4 0.340626,-0.0059 0.511719,-0.0059 0.169653,0 0.338383,0.0049 0.507813,0.0059 0,0 0,-12.16796862 0,-12.16796862 C 100.33564,0.00501063 100.16651,0 99.996094,0 c 0,0 0,0 0,0 m -9.976563,0.4921875 c -0.338148,0.0333869 -0.674565,0.0726386 -1.011719,0.109375 0,0 1.271485,12.1015625 1.271485,12.1015625 0.336845,-0.03695 0.673743,-0.07428 1.011719,-0.107422 0,0 -1.271485,-12.1035155 -1.271485,-12.1035155 m 19.957029,0 c 0,0 -1.27148,12.1035155 -1.27148,12.1035155 0.33873,0.0332 0.67607,0.07039 1.01367,0.107422 0,0 1.27148,-12.1015625 1.27148,-12.1015625 -0.33781,-0.0368195 -0.67486,-0.0759178 -1.01367,-0.109375 0,0 0,0 0,0 m -30.343748,1.578125 c -0.333477,0.068758 -0.663834,0.1447375 -0.996093,0.2167969 0,0 2.529297,11.9023436 2.529297,11.9023436 0.331951,-0.07224 0.662758,-0.146352 0.996093,-0.214844 0,0 -2.529297,-11.9042965 -2.529297,-11.9042965 m 40.726568,0 c 0,0 -2.53126,11.9023435 -2.53126,11.9023435 0.33337,0.06846 0.66412,0.142631 0.9961,0.214844 0,0 2.5293,-11.9023438 2.5293,-11.9023438 -0.33127,-0.071824 -0.66167,-0.1463008 -0.99414,-0.2148437 0,0 0,0 0,0 M 69.482422,4.7304688 c -0.323593,0.1032075 -0.646593,0.2080599 -0.96875,0.3144531 0,0 3.761719,11.5742191 3.761719,11.5742191 0.321791,-0.106523 0.645328,-0.209597 0.96875,-0.3125 0,0 -3.761719,-11.5761722 -3.761719,-11.5761722 m 61.033198,0.00195 c 0,0 -3.75976,11.5722662 -3.75976,11.5722662 0.325,0.103398 0.6493,0.209353 0.97266,0.316406 0,0 3.75976,-11.572266 3.75976,-11.572266 -0.32352,-0.1068719 -0.64769,-0.212747 -0.97266,-0.3164062 0,0 0,0 0,0 m 9.81641,3.7128906 c 0,0 -4.94922,11.1171876 -4.94922,11.1171876 0.31246,0.137075 0.62695,0.269574 0.9375,0.410156 0,0 4.94727,-11.1171842 4.94727,-11.1171842 -0.31002,-0.1400902 -0.62386,-0.2731352 -0.93555,-0.4101563 0,0 0,-3.1e-6 0,-3.1e-6 m -80.710936,0.019534 c -0.310829,0.1368213 -0.624427,0.2683288 -0.933594,0.4082031 0,0 4.949219,11.1191415 4.949219,11.1191415 0.309393,-0.140264 0.622305,-0.273376 0.933593,-0.410157 0,0 -4.949218,-11.1171876 -4.949218,-11.1171876 m -9.355469,4.7109376 c -0.294609,0.168481 -0.58618,0.3423 -0.878906,0.513672 0,0 6.083984,10.539063 6.083984,10.539063 0.292824,-0.171711 0.58589,-0.343305 0.880859,-0.511719 0,0 -6.085937,-10.541016 -6.085937,-10.541016 m 99.462895,0 c 0,0 -6.08399,10.53711 -6.08399,10.53711 0.29533,0.16859 0.58768,0.341778 0.88086,0.513671 0,0 6.08203,-10.537109 6.08203,-10.537109 -0.2929,-0.171465 -0.58412,-0.345101 -0.8789,-0.513672 0,0 0,0 0,0 M 41.435547,18.861328 c -0.276056,0.198795 -0.550275,0.400041 -0.824219,0.601563 0,0 7.152344,9.84375 7.152344,9.84375 0.273593,-0.201561 0.548225,-0.401148 0.824219,-0.59961 0,0 -7.152344,-9.845703 -7.152344,-9.845703 m 117.125003,0 c 0,0 -7.15039,9.84375 -7.15039,9.84375 0.27631,0.198678 0.55031,0.399779 0.82422,0.601563 0,0 7.15234,-9.84375 7.15234,-9.84375 -0.27437,-0.20184 -0.54968,-0.402459 -0.82617,-0.601563 0,0 0,0 0,0 m 8.17383,6.5625 c 0,0 -8.13868,9.039063 -8.13868,9.039063 0.25424,0.22633 0.51014,0.450471 0.76172,0.679687 0,0 8.13867,-9.041016 8.13867,-9.041016 -0.25142,-0.228763 -0.50797,-0.451501 -0.76171,-0.677734 0,0 0,0 0,0 m -133.490239,0.01563 c -0.253686,0.226288 -0.510357,0.448917 -0.761719,0.677735 0,0 8.142578,9.04101 8.142578,9.04101 0.250841,-0.228661 0.506287,-0.451943 0.759766,-0.677734 0,0 -8.140625,-9.041011 -8.140625,-9.041011 m 140.966799,7.375 c 0,0 -9.04102,8.138672 -9.04102,8.138672 0.2293,0.251509 0.45328,0.507558 0.67969,0.761719 0,0 9.03906,-8.140625 9.03906,-8.140625 -0.22597,-0.253328 -0.44924,-0.508756 -0.67773,-0.759766 0,0 0,0 0,0 m -148.42969,0.0059 c -0.229092,0.251709 -0.453132,0.507681 -0.679688,0.761719 0,0 9.042969,8.142578 9.042969,8.142578 0.226379,-0.254198 0.450423,-0.510171 0.679688,-0.761718 0,0 -9.042969,-8.142579 -9.042969,-8.142579 m 155.08008,8.119141 c 0,0 -9.8418,7.150391 -9.8418,7.150391 0.2017,0.273738 0.40297,0.548077 0.60156,0.824218 0,0 9.8418,-7.15039 9.8418,-7.15039 -0.19869,-0.275872 -0.40015,-0.550457 -0.60156,-0.824219 0,0 0,0 0,0 m -161.726564,0.002 c -0.201525,0.273944 -0.402765,0.548163 -0.601563,0.824219 0,0 9.84375,7.152344 9.84375,7.152344 0.198585,-0.276152 0.399876,-0.55047 0.601563,-0.824219 0,0 -9.84375,-7.152344 -9.84375,-7.152344 m 167.498044,8.769532 c 0,0 -10.53515,6.083984 -10.53515,6.083984 0.1712,0.291899 0.34379,0.582921 0.51172,0.876953 0,0 10.5371,-6.082031 10.5371,-6.082031 -0.16861,-0.294774 -0.34216,-0.586018 -0.51367,-0.878906 0,0 0,0 0,0 m -173.273435,0.0059 c -0.172114,0.293987 -0.346428,0.586927 -0.515625,0.882812 0,0 10.541016,6.085938 10.541016,6.085938 0.169195,-0.296364 0.341149,-0.590568 0.513672,-0.884766 0,0 -10.539063,-6.083984 -10.539063,-6.083984 m 178.093745,9.300781 c 0,0 -11.11523,4.947266 -11.11523,4.947266 0.14003,0.30885 0.2736,0.620902 0.41016,0.93164 0,0 11.11328,-4.947265 11.11328,-4.947265 -0.13661,-0.310306 -0.26855,-0.622991 -0.40821,-0.931641 0,0 0,0 0,0 M 8.5253906,59.054688 c -0.1403501,0.31055 -0.2728857,0.625274 -0.4101562,0.9375 0,0 11.1191406,4.949218 11.1191406,4.949218 0.137166,-0.31258 0.271434,-0.626828 0.412109,-0.9375 0,0 -11.1210934,-4.949218 -11.1210934,-4.949218 m -3.8046875,9.777343 c -0.1070883,0.324093 -0.212542,0.649063 -0.3164062,0.97461 0,0 11.5722651,3.759765 11.5722651,3.759765 0.10374,-0.325947 0.210944,-0.650318 0.31836,-0.974609 0,0 -11.5742189,-3.759766 -11.5742189,-3.759766 m 190.5605469,0.01172 c 0,0 -11.57031,3.759766 -11.57031,3.759766 0.10665,0.322167 0.21142,0.644948 0.31445,0.96875 0,0 11.57031,-3.759767 11.57031,-3.759767 -0.10323,-0.323601 -0.20803,-0.646585 -0.31445,-0.968749 0,0 0,0 0,0 m 2.75977,10.121094 c 0,0 -11.9004,2.529297 -11.9004,2.529297 0.072,0.330645 0.1466,0.660168 0.21485,0.992187 0,0 11.90234,-2.53125 11.90234,-2.53125 -0.0684,-0.331552 -0.14511,-0.659887 -0.21679,-0.990234 0,0 0,0 0,0 m -196.0859419,0.002 c -0.072051,0.332208 -0.1480454,0.662667 -0.2167969,0.996094 0,0 11.9042968,2.53125 11.9042968,2.53125 0.06863,-0.334038 0.144396,-0.665399 0.216797,-0.998047 0,0 -11.9042969,-2.529297 -11.9042969,-2.529297 M 0.27148438,89.337891 c -0.0368905,0.338458 -0.0758598,0.676163 -0.109375,1.015625 0,0 12.10156262,1.271484 12.10156262,1.271484 0.03327,-0.339348 0.07032,-0.677417 0.107422,-1.015625 0,0 -12.09960962,-1.271484 -12.09960962,-1.271484 m 199.45703562,0 c 0,0 -12.10157,1.271484 -12.10157,1.271484 0.0369,0.336354 0.0763,0.672284 0.10938,1.009766 0,0 12.09961,-1.271485 12.09961,-1.271485 -0.0333,-0.337273 -0.0707,-0.673482 -0.10742,-1.009765 0,0 0,0 0,0 M -0.32421875,99.818359 c -8.5525e-4,0.170865 -0.005859,0.340651 -0.005859,0.511721 0,0.17003 0.006258,0.33818 0.007813,0.50781 0,0 12.16601475,0 12.16601475,0 -0.0014,-0.16968 -0.0078,-0.33778 -0.0078,-0.50781 0,-0.1711 0.0049,-0.340855 0.0059,-0.511721 0,0 -12.16606875,0 -12.16606875,0 m 188.48241875,0 c 9.8e-4,0.170866 0.006,0.340621 0.006,0.511721 0,0.17004 -0.008,0.33812 -0.01,0.50781 0,0 12.16797,0 12.16797,0 0.002,-0.16897 0.008,-0.33655 0.008,-0.50586 -2e-5,-0.17172 -0.005,-0.342149 -0.006,-0.513671 0,0 -12.16597,0 -12.16597,0"
    id="path4567"/>
  <path
    style="fill:#fb8d00;fill-opacity:1;stroke:none"
    d="m 99.996094,0 c -0.510312,0 -1.016886,0.01193771 -1.525391,0.01953125 0,0 0,13.57617175 0,13.57617175 0.508131,-0.0088 1.015167,-0.01953 1.525391,-0.01953 0.511106,0 1.020296,0.01073 1.529296,0.01953 0,0 0,-13.57617175 0,-13.57617175 C 101.01594,0.01191033 100.50735,0 99.996094,0 c 0,0 0,0 0,0 M 148.8418,12.679688 c 0,0 -6.78907,11.759765 -6.78907,11.759765 0.8905,0.494525 1.77167,1.002737 2.64258,1.527344 0,0 6.78907,-11.759766 6.78907,-11.759766 -0.8722,-0.52257 -1.75346,-1.030784 -2.64258,-1.527343 0,0 0,0 0,0 m -97.691409,0.002 c -0.888717,0.496382 -1.770779,1.004975 -2.642579,1.527343 0,0 6.789063,11.757813 6.789063,11.757813 0.870635,-0.524456 1.752374,-1.030997 2.642578,-1.525391 0,0 -6.789062,-11.759765 -6.789062,-11.759765 m 134.966799,36.15625 c 0,0 -11.75781,6.789062 -11.75781,6.789062 0.52489,0.871156 1.03255,1.753778 1.52734,2.644531 0,0 11.75781,-6.789062 11.75781,-6.789062 -0.4967,-0.88927 -1.00463,-1.772201 -1.52734,-2.644531 0,0 0,0 0,0 M 13.875,48.84375 c -0.522613,0.872328 -1.030747,1.755267 -1.527344,2.644531 0,0 11.75586,6.789063 11.75586,6.789063 0.494879,-0.891037 1.002345,-1.773101 1.527343,-2.644532 0,0 -11.755859,-6.789062 -11.755859,-6.789062 M -0.3125,98.802734 c -0.007601,0.508778 -0.0175781,1.016759 -0.0175781,1.527346 0,0.51059 0.0164024,1.01706 0.0253906,1.52539 0,0 13.5664065,0 13.5664065,0 -0.0092,-0.50627 -0.02539,-1.01091 -0.02539,-1.51953 0,-0.512823 0.01067,-1.022499 0.01953,-1.533206 0,0 -13.568359,0 -13.568359,0 m 187.04883,0 c 0.009,0.510713 0.0195,1.020377 0.0195,1.533206 0,0.50862 -0.0162,1.01326 -0.0254,1.51953 0,0 13.57226,0 13.57226,0 0.009,-0.50621 0.0274,-1.01107 0.0274,-1.51953 -4e-5,-0.512605 -0.0118,-1.022426 -0.0195,-1.533206 0,0 -13.57426,0 -13.57426,0"
    id="path4639"/>
</svg>