<?xml version="1.0" encoding="utf-8"?>
<!--
  - This file is part of StyleBI.
  -
  - Copyright (c) 2024, InetSoft Technology Corp, All Rights Reserved.
  -
  - The software and information contained herein are copyrighted and
  - proprietary to InetSoft Technology Corp. This software is furnished
  - pursuant to a written license agreement and may be used, copied,
  - transmitted, and stored only in accordance with the terms of such
  - license and with the inclusion of the above copyright notice. Please
  - refer to the file "COPYRIGHT" for further copyright and licensing
  - information. This software and information or any other copies
  - thereof may not be provided or otherwise made available to any other
  - person.
  -->

<!-- Generator: Adobe Illustrator 15.0.0, SVG Export Plug-In . SVG Version: 6.00 Build 0)  -->
<!DOCTYPE svg PUBLIC "-//W3C//DTD SVG 1.1//EN" "http://www.w3.org/Graphics/SVG/1.1/DTD/svg11.dtd">
<svg version="1.1" id="图层_1" xmlns="http://www.w3.org/2000/svg" xmlns:xlink="http://www.w3.org/1999/xlink" x="0px" y="0px"
	 width="200px" height="120px" viewBox="0 0 200 120" enable-background="new 0 0 200 120" xml:space="preserve">
<path fill="#42BCF4" d="M197.984,120c1.093-5.373,1.762-10.904,1.955-16.566C201.816,48.266,158.646,1.976,103.404,0.06
	C48.229-1.837,1.977,41.341,0.061,96.51c-0.277,8.057,0.411,15.922,1.949,23.49H197.984z"/>
<path fill="#FFFFFF" d="M195.093,115.521c0.646-3.99,1.05-8.066,1.191-12.213c1.808-53.149-39.782-97.748-93.005-99.593
	C50.123,1.888,5.563,43.487,3.716,96.637c-0.222,6.441,0.198,12.756,1.193,18.885H195.093L195.093,115.521z"/>
<g>
	<path fill="#AFAFAF" d="M41.666,67.8l-4.042-2.327c-0.08,0.131-0.155,0.271-0.233,0.403l4.044,2.334
		C41.509,68.064,41.589,67.938,41.666,67.8z"/>
	<path fill="#AFAFAF" d="M39.461,71.939l-4.192-2.045c-0.069,0.146-0.138,0.283-0.203,0.428l4.19,2.044
		C39.328,72.225,39.395,72.091,39.461,71.939z"/>
	<path fill="#AFAFAF" d="M38.472,74.066l-4.266-1.896c-0.063,0.146-0.125,0.287-0.192,0.424l4.267,1.902
		C38.342,74.354,38.407,74.21,38.472,74.066z"/>
	<path fill="#AFAFAF" d="M58.924,48.093l-2.875-3.674c-0.123,0.098-0.244,0.194-0.369,0.292l2.875,3.675
		C58.681,48.289,58.801,48.191,58.924,48.093z"/>
	<path fill="#AFAFAF" d="M40.529,69.854l-4.122-2.188c-0.076,0.135-0.151,0.273-0.223,0.411l4.12,2.192
		C40.378,70.127,40.453,69.988,40.529,69.854z"/>
	<path fill="#AFAFAF" d="M34.662,85.146l-4.527-1.125c-0.039,0.148-0.079,0.301-0.116,0.453l4.528,1.129
		C34.584,85.447,34.624,85.3,34.662,85.146z"/>
	<path fill="#AFAFAF" d="M35.271,82.881l-4.487-1.29c-0.042,0.155-0.088,0.308-0.127,0.457l4.485,1.286
		C35.184,83.182,35.225,83.027,35.271,82.881z"/>
	<path fill="#AFAFAF" d="M36.715,78.419l-4.386-1.594c-0.053,0.144-0.106,0.293-0.161,0.438l4.389,1.596
		C36.606,78.71,36.662,78.563,36.715,78.419z"/>
	<path fill="#AFAFAF" d="M34.138,87.434l-4.567-0.972c-0.034,0.158-0.063,0.313-0.094,0.464l4.566,0.969
		C34.073,87.74,34.104,87.585,34.138,87.434z"/>
	<path fill="#AFAFAF" d="M35.95,80.637l-4.442-1.441c-0.045,0.146-0.093,0.301-0.141,0.447l4.44,1.438
		C35.856,80.934,35.9,80.784,35.95,80.637z"/>
	<path fill="#AFAFAF" d="M50.289,56.037l-3.469-3.123c-0.105,0.116-0.209,0.232-0.316,0.35l3.471,3.121
		C50.078,56.268,50.183,56.152,50.289,56.037z"/>
	<path fill="#AFAFAF" d="M53.578,52.678l-3.241-3.351c-0.113,0.107-0.229,0.214-0.34,0.323l3.241,3.357
		C53.352,52.899,53.464,52.79,53.578,52.678z"/>
	<path fill="#AFAFAF" d="M51.903,54.327l-3.358-3.234c-0.108,0.109-0.221,0.223-0.328,0.336l3.358,3.235
		C51.686,54.55,51.792,54.438,51.903,54.327z"/>
	<path fill="#AFAFAF" d="M33.693,89.736L29.1,88.932c-0.026,0.153-0.057,0.307-0.083,0.465l4.595,0.811
		C33.637,90.048,33.664,89.896,33.693,89.736z"/>
	<path fill="#AFAFAF" d="M55.307,51.093l-3.124-3.47c-0.117,0.103-0.231,0.208-0.347,0.315l3.122,3.465
		C55.071,51.3,55.188,51.192,55.307,51.093z"/>
	<path fill="#AFAFAF" d="M57.091,49.568l-2.998-3.579c-0.124,0.102-0.242,0.199-0.361,0.3l3,3.571
		C56.851,49.76,56.973,49.665,57.091,49.568z"/>
	<path fill="#AFAFAF" d="M47.237,59.614l-3.679-2.87c-0.096,0.119-0.192,0.244-0.288,0.367l3.678,2.871
		C47.042,59.86,47.141,59.737,47.237,59.614z"/>
	<path fill="#AFAFAF" d="M45.809,61.48l-3.778-2.743c-0.092,0.127-0.188,0.252-0.281,0.377l3.778,2.741
		C45.619,61.732,45.714,61.607,45.809,61.48z"/>
	<path fill="#AFAFAF" d="M44.442,63.396l-3.869-2.605c-0.092,0.131-0.175,0.264-0.265,0.389l3.871,2.609
		C44.268,63.656,44.354,63.525,44.442,63.396z"/>
	<path fill="#AFAFAF" d="M48.732,57.799l-3.574-3c-0.102,0.12-0.205,0.239-0.307,0.359l3.577,3
		C48.528,58.036,48.631,57.917,48.732,57.799z"/>
	<path fill="#AFAFAF" d="M42.875,65.792l-3.96-2.474c-0.082,0.132-0.167,0.269-0.247,0.396l3.957,2.478
		C42.706,66.057,42.791,65.921,42.875,65.792z"/>
	<path fill="#AFAFAF" d="M37.552,76.225l-4.327-1.746c-0.061,0.147-0.113,0.293-0.174,0.44l4.328,1.746
		C37.439,76.518,37.493,76.371,37.552,76.225z"/>
	<path fill="#AFAFAF" d="M33.324,92.061l-4.617-0.647c-0.023,0.151-0.046,0.31-0.063,0.466l4.621,0.646
		C33.286,92.365,33.305,92.214,33.324,92.061z"/>
	<path fill="#AFAFAF" d="M32.713,99.107c0-0.014,0-0.023,0.002-0.035l-4.665-0.159c0,0.01-0.002,0.021-0.002,0.037
		c-0.004,0.141-0.004,0.286-0.01,0.432l4.665,0.161C32.706,99.396,32.707,99.255,32.713,99.107z"/>
	<path fill="#AFAFAF" d="M32.679,101.423h-4.67c0,0.156,0.003,0.313,0.003,0.476l4.667-0.002
		C32.679,101.736,32.675,101.577,32.679,101.423z"/>
	<path fill="#AFAFAF" d="M32.84,96.729l-4.651-0.324c-0.013,0.156-0.026,0.314-0.036,0.472l4.657,0.321
		C32.816,97.038,32.831,96.883,32.84,96.729z"/>
	<path fill="#AFAFAF" d="M33.043,94.389l-4.641-0.486c-0.016,0.156-0.03,0.313-0.045,0.473l4.638,0.482
		C33.014,94.702,33.027,94.547,33.043,94.389z"/>
	<path fill="#AFAFAF" d="M154.419,61.827l3.772-2.746c-0.094-0.125-0.188-0.248-0.278-0.375l-3.774,2.737
		C154.23,61.572,154.329,61.7,154.419,61.827z"/>
	<path fill="#AFAFAF" d="M160.695,72.331l4.195-2.047c-0.07-0.14-0.14-0.283-0.207-0.421l-4.189,2.048
		C160.563,72.048,160.632,72.193,160.695,72.331z"/>
	<path fill="#AFAFAF" d="M159.417,69.796l4.115-2.188c-0.071-0.143-0.146-0.275-0.222-0.416l-4.121,2.188
		C159.268,69.521,159.342,69.648,159.417,69.796z"/>
	<path fill="#AFAFAF" d="M162.582,76.626l4.322-1.747c-0.059-0.145-0.115-0.293-0.172-0.436l-4.326,1.746
		C162.467,76.331,162.521,76.484,162.582,76.626z"/>
	<path fill="#AFAFAF" d="M161.684,74.467l4.258-1.902c-0.061-0.144-0.125-0.287-0.189-0.428l-4.26,1.895
		C161.55,74.182,161.615,74.316,161.684,74.467z"/>
	<path fill="#AFAFAF" d="M163.411,78.82l4.386-1.596c-0.056-0.149-0.109-0.295-0.165-0.443l-4.384,1.597
		C163.302,78.529,163.355,78.675,163.411,78.82z"/>
	<path fill="#AFAFAF" d="M158.27,67.736l4.041-2.322c-0.08-0.145-0.158-0.282-0.232-0.415l-4.042,2.33
		C158.115,67.469,158.189,67.605,158.27,67.736z"/>
	<path fill="#AFAFAF" d="M152.997,59.952l3.676-2.872c-0.098-0.125-0.188-0.249-0.29-0.373l-3.674,2.874
		C152.802,59.704,152.9,59.827,152.997,59.952z"/>
	<path fill="#AFAFAF" d="M151.52,58.124l3.567-2.999c-0.099-0.123-0.196-0.238-0.303-0.357l-3.569,3
		C151.314,57.88,151.418,58.003,151.52,58.124z"/>
	<path fill="#AFAFAF" d="M149.977,56.351l3.463-3.119c-0.105-0.117-0.213-0.232-0.314-0.348l-3.468,3.125
		C149.76,56.127,149.872,56.236,149.977,56.351z"/>
	<path fill="#AFAFAF" d="M155.768,63.754l3.866-2.609c-0.088-0.129-0.176-0.266-0.265-0.39l-3.865,2.611
		C155.594,63.491,155.686,63.625,155.768,63.754z"/>
	<path fill="#AFAFAF" d="M157.057,65.725l3.959-2.476c-0.086-0.136-0.172-0.267-0.257-0.396l-3.952,2.472
		C156.887,65.461,156.975,65.587,157.057,65.725z"/>
	<path fill="#AFAFAF" d="M167.173,97.148l4.65-0.323c-0.007-0.152-0.019-0.312-0.027-0.466l-4.653,0.326
		C167.15,96.844,167.163,96.997,167.173,97.148z"/>
	<path fill="#AFAFAF" d="M166.716,92.482l4.614-0.649c-0.02-0.155-0.037-0.313-0.061-0.468l-4.617,0.646
		C166.674,92.171,166.688,92.327,166.716,92.482z"/>
	<path fill="#AFAFAF" d="M164.156,81.044l4.438-1.438c-0.048-0.151-0.096-0.301-0.142-0.449l-4.438,1.441
		C164.064,80.74,164.109,80.896,164.156,81.044z"/>
	<path fill="#AFAFAF" d="M167.273,99.501l4.66-0.166c0-0.151-0.006-0.313-0.012-0.47l-4.664,0.164
		C167.27,99.189,167.271,99.346,167.273,99.501z"/>
	<path fill="#AFAFAF" d="M167.307,101.848h4.659c0.002-0.156,0-0.313,0-0.47l-4.665,0.002
		C167.301,101.534,167.307,101.689,167.307,101.848z"/>
	<path fill="#AFAFAF" d="M166.98,94.814l4.64-0.494c-0.017-0.152-0.027-0.309-0.046-0.463l-4.641,0.488
		C166.95,94.501,166.968,94.659,166.98,94.814z"/>
	<path fill="#AFAFAF" d="M166.368,90.161l4.595-0.813c-0.027-0.156-0.056-0.309-0.086-0.461l-4.593,0.809
		C166.313,89.852,166.34,90.007,166.368,90.161z"/>
	<path fill="#AFAFAF" d="M165.425,85.563l4.523-1.129c-0.038-0.149-0.072-0.304-0.109-0.459l-4.526,1.131
		C165.352,85.26,165.385,85.411,165.425,85.563z"/>
	<path fill="#AFAFAF" d="M164.829,83.293l4.483-1.288c-0.043-0.147-0.088-0.3-0.131-0.452l-4.482,1.287
		C164.743,82.99,164.789,83.143,164.829,83.293z"/>
	<path fill="#AFAFAF" d="M165.936,87.855l4.561-0.974c-0.03-0.151-0.061-0.31-0.096-0.462l-4.563,0.973
		C165.87,87.546,165.896,87.7,165.936,87.855z"/>
	<path fill="#AFAFAF" d="M133.62,43.114l2.329-4.042c-0.135-0.079-0.271-0.157-0.405-0.234l-2.332,4.041
		C133.348,42.96,133.482,43.039,133.62,43.114z"/>
	<path fill="#AFAFAF" d="M75.187,38.843l-1.749-4.327c-0.147,0.058-0.292,0.115-0.438,0.174l1.749,4.326
		C74.895,38.958,75.041,38.902,75.187,38.843z"/>
	<path fill="#AFAFAF" d="M148.368,54.637l3.354-3.243c-0.109-0.112-0.222-0.228-0.328-0.34l-3.354,3.244
		C148.152,54.41,148.262,54.524,148.368,54.637z"/>
	<path fill="#AFAFAF" d="M126.939,34.672c-0.145-0.058-0.293-0.112-0.438-0.169l-1.748,4.327c0.146,0.057,0.292,0.113,0.438,0.171
		L126.939,34.672z"/>
	<path fill="#AFAFAF" d="M79.604,37.267L78.16,32.83c-0.151,0.047-0.3,0.089-0.447,0.14l1.441,4.437
		C79.301,37.359,79.455,37.315,79.604,37.267z"/>
	<path fill="#AFAFAF" d="M70.892,40.725l-2.049-4.194c-0.141,0.066-0.281,0.136-0.423,0.205l2.046,4.193
		C70.607,40.861,70.748,40.792,70.892,40.725z"/>
	<path fill="#AFAFAF" d="M77.379,38.012l-1.595-4.384c-0.151,0.052-0.296,0.108-0.443,0.164l1.597,4.384
		C77.084,38.122,77.231,38.064,77.379,38.012z"/>
	<path fill="#AFAFAF" d="M62.739,45.362l-2.61-3.87c-0.131,0.089-0.258,0.178-0.386,0.264l2.609,3.869
		C62.481,45.537,62.608,45.447,62.739,45.362z"/>
	<path fill="#AFAFAF" d="M68.791,41.775l-2.192-4.12c-0.138,0.07-0.276,0.146-0.414,0.22l2.188,4.119
		C68.514,41.919,68.655,41.849,68.791,41.775z"/>
	<path fill="#AFAFAF" d="M64.716,44.095l-2.475-3.955c-0.132,0.083-0.267,0.16-0.402,0.243l2.479,3.958
		C64.447,44.258,64.582,44.178,64.716,44.095z"/>
	<path fill="#AFAFAF" d="M66.732,42.901l-2.333-4.042c-0.137,0.078-0.272,0.157-0.41,0.237l2.336,4.039
		C66.463,43.058,66.6,42.978,66.732,42.901z"/>
	<path fill="#AFAFAF" d="M73.018,39.744l-1.899-4.264c-0.143,0.063-0.284,0.126-0.427,0.191l1.898,4.262
		C72.732,39.871,72.873,39.806,73.018,39.744z"/>
	<path fill="#AFAFAF" d="M143.216,49.836l2.999-3.576c-0.117-0.101-0.24-0.198-0.363-0.3l-2.998,3.577
		C142.973,49.633,143.1,49.735,143.216,49.836z"/>
	<path fill="#AFAFAF" d="M139.52,46.944l2.742-3.777c-0.129-0.091-0.259-0.181-0.383-0.271l-2.744,3.775
		C139.266,46.763,139.396,46.852,139.52,46.944z"/>
	<path fill="#AFAFAF" d="M141.391,48.361l2.873-3.676c-0.121-0.098-0.244-0.197-0.369-0.292l-2.869,3.676
		C141.146,48.165,141.268,48.266,141.391,48.361z"/>
	<path fill="#AFAFAF" d="M144.988,51.379l3.121-3.47c-0.117-0.106-0.23-0.211-0.351-0.315l-3.122,3.466
		C144.76,51.164,144.873,51.27,144.988,51.379z"/>
	<path fill="#AFAFAF" d="M146.706,52.975l3.239-3.354c-0.111-0.113-0.228-0.218-0.342-0.326l-3.237,3.356
		C146.479,52.761,146.593,52.868,146.706,52.975z"/>
	<path fill="#AFAFAF" d="M135.628,44.319l2.476-3.957c-0.136-0.083-0.271-0.164-0.399-0.245l-2.472,3.958
		C135.361,44.155,135.498,44.235,135.628,44.319z"/>
	<path fill="#AFAFAF" d="M137.598,45.6l2.605-3.868c-0.128-0.087-0.262-0.175-0.391-0.264l-2.608,3.87
		C137.336,45.424,137.464,45.513,137.598,45.6z"/>
	<path fill="#AFAFAF" d="M60.812,46.696l-2.743-3.772c-0.13,0.091-0.257,0.178-0.384,0.272l2.744,3.774
		C60.556,46.877,60.681,46.787,60.812,46.696z"/>
	<path fill="#AFAFAF" d="M131.566,41.976l2.188-4.12c-0.136-0.075-0.271-0.15-0.407-0.223l-2.193,4.122
		C131.293,41.828,131.432,41.903,131.566,41.976z"/>
	<path fill="#AFAFAF" d="M129.479,40.91l2.045-4.195c-0.144-0.066-0.282-0.134-0.426-0.204l-2.05,4.197
		C129.193,40.775,129.337,40.841,129.479,40.91z"/>
	<path fill="#AFAFAF" d="M129.251,35.656c-0.146-0.064-0.286-0.129-0.435-0.195l-1.894,4.266c0.144,0.062,0.283,0.13,0.429,0.191
		L129.251,35.656z"/>
	<path fill="#AFAFAF" d="M119.825,32.23c-0.151-0.042-0.302-0.083-0.453-0.126l-1.282,4.489c0.151,0.041,0.303,0.082,0.451,0.126
		L119.825,32.23z"/>
	<path fill="#AFAFAF" d="M117.398,31.585c-0.15-0.039-0.301-0.08-0.455-0.117l-1.129,4.528c0.16,0.036,0.309,0.078,0.455,0.116
		L117.398,31.585z"/>
	<path fill="#AFAFAF" d="M122.229,32.96c-0.146-0.048-0.302-0.095-0.446-0.142l-1.444,4.439c0.154,0.046,0.303,0.092,0.449,0.142
		L122.229,32.96z"/>
	<path fill="#AFAFAF" d="M124.596,33.779c-0.142-0.053-0.291-0.108-0.438-0.16l-1.599,4.385c0.148,0.053,0.297,0.106,0.44,0.159
		L124.596,33.779z"/>
	<path fill="#AFAFAF" d="M80.111,32.239l1.288,4.487c0.148-0.044,0.3-0.089,0.449-0.133l-1.284-4.483
		C80.411,32.152,80.263,32.197,80.111,32.239z"/>
	<path fill="#AFAFAF" d="M84.982,31.023l0.97,4.566c0.154-0.034,0.305-0.066,0.459-0.098l-0.974-4.562
		C85.288,30.96,85.135,30.992,84.982,31.023z"/>
	<path fill="#AFAFAF" d="M114.952,31.021c-0.151-0.033-0.306-0.062-0.453-0.093l-0.974,4.564c0.152,0.031,0.305,0.06,0.463,0.093
		L114.952,31.021z"/>
	<path fill="#AFAFAF" d="M82.534,31.586l1.131,4.527c0.153-0.038,0.302-0.074,0.457-0.111l-1.131-4.528
		C82.836,31.511,82.688,31.548,82.534,31.586z"/>
	<path fill="#AFAFAF" d="M107.521,29.853c-0.156-0.017-0.32-0.03-0.473-0.047l-0.482,4.64c0.151,0.017,0.312,0.03,0.465,0.048
		L107.521,29.853z"/>
	<path fill="#AFAFAF" d="M102.445,29.498l-0.17,4.663c0.02,0,0.027,0,0.037,0c0.146,0.005,0.295,0.015,0.438,0.02l0.161-4.661
		c-0.146-0.007-0.298-0.016-0.438-0.021C102.464,29.498,102.454,29.498,102.445,29.498z"/>
	<path fill="#AFAFAF" d="M105.016,29.636c-0.15-0.01-0.31-0.025-0.468-0.034l-0.323,4.654c0.156,0.01,0.315,0.023,0.471,0.035
		L105.016,29.636z"/>
	<path fill="#AFAFAF" d="M112.49,30.546c-0.152-0.028-0.313-0.056-0.465-0.081l-0.811,4.596c0.157,0.025,0.309,0.053,0.465,0.081
		L112.49,30.546z"/>
	<path fill="#AFAFAF" d="M110.012,30.153c-0.152-0.02-0.311-0.041-0.466-0.063l-0.647,4.623c0.156,0.02,0.313,0.042,0.468,0.062
		L110.012,30.153z"/>
	<path fill="#AFAFAF" d="M92.414,29.853l0.489,4.639c0.157-0.016,0.313-0.032,0.469-0.05l-0.491-4.639
		C92.727,29.818,92.569,29.836,92.414,29.853z"/>
	<path fill="#AFAFAF" d="M87.443,30.544l0.813,4.598c0.151-0.028,0.307-0.058,0.461-0.084l-0.813-4.597
		C87.751,30.487,87.599,30.519,87.443,30.544z"/>
	<path fill="#AFAFAF" d="M89.924,30.153l0.648,4.622c0.155-0.022,0.312-0.042,0.465-0.061l-0.649-4.622
		C90.235,30.113,90.076,30.131,89.924,30.153z"/>
	<path fill="#AFAFAF" d="M99.936,29.46l0.004,4.664c0.152,0,0.311-0.001,0.47-0.001l-0.004-4.664
		C100.248,29.458,100.09,29.46,99.936,29.46z"/>
	<path fill="#AFAFAF" d="M97.429,29.503l0.161,4.662c0.155-0.006,0.313-0.007,0.468-0.012l-0.165-4.663
		C97.738,29.493,97.582,29.496,97.429,29.503z"/>
	<path fill="#AFAFAF" d="M94.915,29.631l0.328,4.655c0.155-0.012,0.313-0.02,0.467-0.031L95.384,29.6
		C95.228,29.611,95.074,29.619,94.915,29.631z"/>
	<path fill="#AFAFAF" d="M57.091,49.568L46.807,37.311c-0.119,0.101-0.245,0.199-0.36,0.302l10.285,12.248
		C56.851,49.76,56.973,49.665,57.091,49.568z"/>
	<path fill="#AFAFAF" d="M77.379,38.012L71.901,22.98c-0.147,0.052-0.294,0.109-0.442,0.161l5.479,15.035
		C77.084,38.122,77.231,38.064,77.379,38.012z"/>
	<path fill="#AFAFAF" d="M41.666,67.8l-13.859-7.992c-0.075,0.135-0.153,0.271-0.231,0.404l13.858,7.998
		C41.509,68.064,41.589,67.938,41.666,67.8z"/>
	<path fill="#AFAFAF" d="M166.368,90.161l15.75-2.784c-0.022-0.152-0.058-0.309-0.083-0.462l-15.751,2.78
		C166.313,89.852,166.34,90.007,166.368,90.161z"/>
	<path fill="#AFAFAF" d="M33.693,89.736l-15.756-2.771c-0.03,0.154-0.059,0.311-0.082,0.463l15.755,2.775
		C33.637,90.048,33.664,89.896,33.693,89.736z"/>
	<path fill="#AFAFAF" d="M171.884,59.33l-13.851,7.999c0.082,0.137,0.156,0.274,0.232,0.405l13.852-7.999
		C172.042,59.603,171.962,59.468,171.884,59.33z"/>
	<path fill="#AFAFAF" d="M153.132,37.278l-10.276,12.258c0.117,0.097,0.244,0.198,0.36,0.299l10.278-12.258
		C153.374,37.476,153.253,37.378,153.132,37.278z"/>
	<path fill="#AFAFAF" d="M128.027,22.966l-5.469,15.038c0.148,0.053,0.297,0.106,0.44,0.159l5.468-15.037
		C128.322,23.074,128.18,23.019,128.027,22.966z"/>
	<path fill="#AFAFAF" d="M99.932,18.129l0.008,15.998c0.152-0.003,0.311-0.004,0.47-0.004l-0.01-15.996
		C100.246,18.126,100.086,18.129,99.932,18.129z"/>
	<path fill="#AFAFAF" d="M86.865,27.264l1.392,7.879c0.151-0.028,0.307-0.058,0.461-0.084l-1.392-7.878
		C87.173,27.205,87.017,27.236,86.865,27.264z"/>
	<path fill="#AFAFAF" d="M48.732,57.799l-6.129-5.14c-0.102,0.121-0.205,0.24-0.307,0.356l6.133,5.142
		C48.528,58.036,48.631,57.917,48.732,57.799z"/>
	<path fill="#AFAFAF" d="M66.732,42.901l-4-6.927c-0.135,0.078-0.271,0.158-0.406,0.235l4,6.925
		C66.463,43.058,66.6,42.978,66.732,42.901z"/>
	<path fill="#AFAFAF" d="M167.307,101.848l7.99-0.002c0.004-0.154,0-0.314-0.002-0.47l-7.988,0.004
		C167.301,101.534,167.309,101.689,167.307,101.848z"/>
	<path fill="#AFAFAF" d="M36.715,78.421l-7.52-2.735c-0.053,0.146-0.105,0.295-0.159,0.439l7.521,2.734
		C36.608,78.71,36.662,78.563,36.715,78.421z"/>
	<path fill="#AFAFAF" d="M32.679,101.423l-7.999,0.002c0,0.156,0,0.313,0.002,0.474l7.997-0.002
		C32.679,101.736,32.679,101.577,32.679,101.423z"/>
	<path fill="#AFAFAF" d="M170.766,75.645l-7.518,2.733c0.054,0.149,0.107,0.297,0.163,0.442l7.514-2.737
		C170.873,75.938,170.816,75.79,170.766,75.645z"/>
	<path fill="#AFAFAF" d="M157.34,52.619l-6.125,5.149c0.104,0.111,0.203,0.234,0.305,0.354l6.123-5.139
		C157.542,52.861,157.443,52.74,157.34,52.619z"/>
	<path fill="#AFAFAF" d="M111.218,35.062c0.157,0.025,0.313,0.055,0.464,0.081l1.389-7.879c-0.153-0.027-0.312-0.054-0.465-0.081
		L111.218,35.062z"/>
	<path fill="#AFAFAF" d="M133.212,42.879c0.136,0.081,0.271,0.159,0.408,0.234l3.996-6.929c-0.138-0.078-0.271-0.156-0.408-0.233
		L133.212,42.879z"/>
</g>
<path fill="#055B75" d="M15.556,94.463c-1.996,0-3.431,1.799-3.431,5.109c0.028,3.25,1.347,5.05,3.266,5.05
	c2.161,0,3.417-1.845,3.417-5.187C18.808,96.309,17.612,94.463,15.556,94.463z M15.465,103.596c-1.209,0-1.993-1.451-1.993-4.009
	c0-2.674,0.847-4.097,1.993-4.097c1.393,0,1.994,1.589,1.994,4.007C17.459,102.007,16.81,103.596,15.465,103.596z M15.395,79.93
	l0.771-0.728c2.072-1.996,3.389-3.464,3.389-5.276c0-1.404-0.894-2.857-3.012-2.857c-1.119,0-2.102,0.441-2.765,1l0.421,0.938
	c0.455-0.377,1.195-0.831,2.088-0.831c1.467,0,1.937,0.923,1.937,1.921c0,1.479-1.149,2.754-3.66,5.143l-1.044,1.013v0.815h6.274
	V79.96h-4.399V79.93L15.395,79.93z M24.569,71.066c-1.996,0-3.43,1.802-3.43,5.111c0.029,3.252,1.346,5.049,3.264,5.049
	c2.162,0,3.416-1.846,3.416-5.188C27.82,72.913,26.627,71.066,24.569,71.066z M24.48,80.2c-1.209,0-1.994-1.451-1.994-4.007
	c0-2.676,0.845-4.098,1.994-4.098c1.39,0,1.996,1.586,1.996,4.008C26.477,78.611,25.826,80.2,24.48,80.2z M39.27,42.094
	c-1.996,0-3.433,1.8-3.433,5.111c0.028,3.25,1.345,5.049,3.266,5.049c2.161,0,3.417-1.844,3.417-5.186
	C42.52,43.939,41.324,42.094,39.27,42.094z M39.177,51.227c-1.211,0-1.996-1.453-1.996-4.007c0-2.674,0.847-4.098,1.996-4.098
	c1.393,0,1.996,1.588,1.996,4.006C41.173,49.639,40.521,51.227,39.177,51.227z M33.586,42.261h-1.438l-4.384,6.273v0.863h4.566v2.69
	h1.257v-2.69h1.374v-1.028h-1.374L33.586,42.261L33.586,42.261z M32.329,45.087v3.282H29.11v-0.03l2.404-3.342
	c0.271-0.451,0.513-0.876,0.814-1.45h0.046C32.343,44.06,32.329,44.573,32.329,45.087z"/>
<path fill="#055B75" d="M61.525,21.938c-1.998,0-3.435,1.8-3.435,5.111c0.031,3.25,1.349,5.049,3.265,5.049
	c2.163,0,3.42-1.843,3.42-5.186C64.775,23.783,63.581,21.938,61.525,21.938z M61.432,31.07c-1.207,0-1.992-1.453-1.992-4.006
	c0-2.677,0.847-4.098,1.992-4.098c1.39,0,1.999,1.588,1.999,4.007C63.431,29.482,62.777,31.07,61.432,31.07z M54.087,25.446
	c-1.09,0-1.921,0.513-2.39,1.148h-0.03c0.229-1.632,1.316-3.144,3.418-3.478c0.377-0.061,0.724-0.09,0.996-0.075v-1.088
	c-0.241,0-0.574,0.015-0.966,0.076c-1.241,0.15-2.329,0.649-3.146,1.451c-0.983,0.968-1.661,2.495-1.661,4.43
	c0,2.555,1.375,4.187,3.459,4.187c2.058,0,3.282-1.662,3.282-3.476C57.049,26.715,55.824,25.446,54.087,25.446z M53.798,31.07
	c-1.403,0-2.163-1.209-2.175-2.828c0-0.241,0.06-0.423,0.133-0.575c0.366-0.725,1.12-1.209,1.924-1.209
	c1.225,0,2.023,0.847,2.023,2.253C55.703,30.118,54.933,31.07,53.798,31.07z M82.302,16.203v-0.046
	c1.211-0.56,1.633-1.465,1.633-2.297c0-1.24-0.967-2.42-2.869-2.42c-1.74,0-3.057,1.06-3.057,2.616c0,0.846,0.47,1.694,1.572,2.208
	l0.017,0.046c-1.212,0.513-1.951,1.406-1.951,2.646c0,1.436,1.238,2.645,3.295,2.645c1.877,0,3.342-1.134,3.342-2.856
	C84.284,17.563,83.528,16.685,82.302,16.203z M79.28,13.966c0-0.848,0.603-1.573,1.709-1.573c1.195,0,1.664,0.816,1.664,1.602
	c0,0.892-0.65,1.498-1.499,1.784C80.02,15.478,79.265,14.948,79.28,13.966z M80.972,20.633c-1.255,0-2.011-0.877-1.965-1.861
	c0-0.936,0.622-1.708,1.768-2.04c1.334,0.377,2.164,0.967,2.164,2.146C82.938,19.892,82.165,20.633,80.972,20.633z M88.817,11.44
	c-1.995,0-3.43,1.799-3.43,5.11c0.029,3.25,1.344,5.05,3.265,5.05c2.164,0,3.416-1.844,3.416-5.186
	C92.068,13.285,90.875,11.44,88.817,11.44z M88.729,20.572c-1.209,0-1.996-1.452-1.996-4.007c0-2.676,0.845-4.096,1.996-4.096
	c1.39,0,1.997,1.586,1.997,4.006C90.725,18.985,90.076,20.572,88.729,20.572z"/>
<path fill="#055B75" d="M106.822,12.824l0.189,0.759l1.281-0.692h0.021v6.443h0.965v-7.372h-0.853L106.822,12.824z M113.373,18.484
	l0.581-0.545c1.553-1.498,2.539-2.598,2.539-3.958c0-1.055-0.669-2.142-2.255-2.142c-0.844,0-1.579,0.328-2.076,0.747l0.314,0.703
	c0.344-0.282,0.896-0.624,1.564-0.624c1.102,0,1.452,0.69,1.452,1.441c0,1.11-0.864,2.063-2.743,3.855l-0.781,0.761v0.612h4.702
	v-0.829h-3.301L113.373,18.484L113.373,18.484z M120.257,11.838c-1.498,0-2.571,1.348-2.571,3.832
	c0.021,2.439,1.008,3.788,2.445,3.788c1.623,0,2.563-1.383,2.563-3.89C122.693,13.22,121.802,11.838,120.257,11.838z
	 M120.188,18.687c-0.905,0-1.496-1.087-1.496-3.006c0-2.006,0.637-3.072,1.496-3.072c1.043,0,1.498,1.19,1.498,3.006
	C121.688,17.497,121.198,18.687,120.188,18.687z M153.012,24.015c-1.496,0-2.574,1.349-2.574,3.833
	c0.022,2.438,1.012,3.788,2.451,3.788c1.621,0,2.563-1.385,2.563-3.89C155.45,25.398,154.555,24.015,153.012,24.015z
	 M152.941,30.864c-0.907,0-1.496-1.087-1.496-3.004c0-2.008,0.635-3.074,1.496-3.074c1.045,0,1.498,1.19,1.498,3.005
	C154.439,29.675,153.953,30.864,152.941,30.864z M148.748,24.141h-1.075l-3.291,4.706v0.646h3.427v2.018h0.939v-2.018h1.031v-0.77
	h-1.031V24.141z M147.809,26.26v2.463h-2.418v-0.024l1.808-2.505c0.202-0.341,0.384-0.658,0.61-1.09h0.032
	C147.818,25.49,147.809,25.874,147.809,26.26z M139.576,25.001l0.191,0.761l1.279-0.691h0.021v6.44h0.965v-7.37h-0.852
	L139.576,25.001z M174.43,45.011c-1.498,0-2.572,1.349-2.572,3.833c0.021,2.438,1.009,3.79,2.447,3.79
	c1.618,0,2.563-1.386,2.563-3.891C176.863,46.395,175.969,45.011,174.43,45.011z M174.357,51.86c-0.905,0-1.494-1.088-1.494-3.004
	c0-2.009,0.635-3.074,1.494-3.074c1.047,0,1.498,1.19,1.498,3.004C175.855,50.671,175.368,51.86,174.357,51.86z M160.991,45.997
	l0.19,0.761l1.282-0.691h0.021v6.441h0.965v-7.371h-0.852L160.991,45.997z M168.85,47.642c-0.814,0-1.438,0.387-1.793,0.863h-0.021
	c0.172-1.226,0.986-2.361,2.563-2.609c0.284-0.046,0.543-0.067,0.748-0.056v-0.818c-0.182,0-0.433,0.012-0.727,0.057
	c-0.932,0.113-1.748,0.487-2.359,1.089c-0.736,0.726-1.248,1.871-1.248,3.324c0,1.916,1.032,3.142,2.598,3.142
	c1.548,0,2.466-1.249,2.466-2.612C171.073,48.595,170.154,47.642,168.85,47.642z M168.632,51.86c-1.054,0-1.618-0.908-1.632-2.12
	c0-0.183,0.045-0.319,0.104-0.432c0.271-0.545,0.838-0.907,1.438-0.907c0.92,0,1.521,0.634,1.521,1.691
	C170.063,51.147,169.482,51.86,168.632,51.86z"/>
<path fill="#055B75" d="M187.441,71.466c-1.493,0-2.571,1.349-2.571,3.833c0.021,2.438,1.01,3.788,2.448,3.788
	c1.623,0,2.563-1.383,2.563-3.892C189.882,72.85,188.986,71.466,187.441,71.466z M187.375,78.314c-0.907,0-1.495-1.088-1.495-3.006
	c0-2.01,0.636-3.074,1.495-3.074c1.044,0,1.498,1.19,1.498,3.007C188.873,77.125,188.387,78.314,187.375,78.314z M183.941,71.589
	h-4.648v0.83h3.604v0.021l-3.197,6.521h1.031l3.211-6.715V71.589z M174.007,72.452l0.196,0.761l1.277-0.691h0.024v6.44h0.962v-7.373
	h-0.851L174.007,72.452z M178.207,98.168l0.191,0.76l1.281-0.691h0.024v6.441h0.962v-7.369h-0.852L178.207,98.168z M191.646,97.184
	c-1.498,0-2.576,1.351-2.576,3.832c0.021,2.438,1.012,3.787,2.449,3.787c1.625,0,2.563-1.384,2.563-3.89
	C194.083,98.564,193.188,97.184,191.646,97.184z M191.576,104.029c-0.907,0-1.495-1.088-1.495-3.004c0-2.01,0.632-3.071,1.495-3.071
	c1.044,0,1.498,1.188,1.498,3.004C193.074,102.839,192.587,104.029,191.576,104.029z M186.759,100.753v-0.032
	c0.907-0.421,1.226-1.103,1.226-1.726c0-0.931-0.729-1.813-2.153-1.813c-1.306,0-2.288,0.793-2.288,1.959
	c0,0.637,0.35,1.271,1.178,1.656l0.012,0.035c-0.906,0.385-1.465,1.055-1.465,1.984c0,1.078,0.935,1.981,2.475,1.981
	c1.404,0,2.508-0.854,2.508-2.146C188.244,101.773,187.676,101.115,186.759,100.753z M184.488,99.075
	c0-0.638,0.451-1.181,1.281-1.181c0.896,0,1.248,0.611,1.248,1.201c0,0.672-0.488,1.122-1.123,1.338
	C185.045,100.208,184.479,99.813,184.488,99.075z M185.759,104.075c-0.938,0-1.507-0.656-1.473-1.396
	c0-0.703,0.465-1.279,1.325-1.529c0.998,0.283,1.621,0.726,1.621,1.608C187.232,103.521,186.654,104.075,185.759,104.075z"/>
<g>
	<path fill="#8DD0FC" d="M50.875,102C51.148,75.143,73.074,53.371,100,53.371c26.923,0,48.847,21.771,49.123,48.629h4.315
		C153.165,72.763,129.3,49.057,100,49.057c-29.305,0-53.165,23.706-53.439,52.943H50.875z"/>
	<path fill="#F48E8E" d="M149.124,102h4.315c-0.229-24.402-16.896-44.941-39.438-51.069l-1.115,4.167
		C133.589,60.731,148.894,79.588,149.124,102z"/>
</g>
<polygon fill="#42BCF4" points="98.756,94.719 102.993,109.563 164.293,83.945 "/>
<path fill="#055B75" d="M89.711,101.64c0.197-5.68,4.959-10.125,10.64-9.93c5.687,0.197,10.131,4.963,9.938,10.643
	c-0.195,5.686-4.963,10.133-10.648,9.938C93.96,112.093,89.516,107.325,89.711,101.64z"/>
<path fill="#FFFFFF" d="M93.16,101.759c0.131-3.773,3.296-6.73,7.074-6.6c3.778,0.129,6.733,3.301,6.604,7.072
	c-0.13,3.779-3.298,6.738-7.078,6.604C95.984,108.708,93.028,105.54,93.16,101.759z"/>
</svg>
