<?xml version="1.0" encoding="utf-8"?>
<!--
  - This file is part of StyleBI.
  - Copyright (C) 2024  InetSoft Technology
  -
  - This program is free software: you can redistribute it and/or modify
  - it under the terms of the GNU Affero General Public License as published by
  - the Free Software Foundation, either version 3 of the License, or
  - (at your option) any later version.
  -
  - This program is distributed in the hope that it will be useful,
  - but WITHOUT ANY WARRANTY; without even the implied warranty of
  - MERCHANTABILITY or FITNESS FOR A PARTICULAR PURPOSE.  See the
  - GNU Affero General Public License for more details.
  -
  - You should have received a copy of the GNU Affero General Public License
  - along with this program.  If not, see <https://www.gnu.org/licenses/>.
  -->

<!-- Generator: Adobe Illustrator 15.0.0, SVG Export Plug-In . SVG Version: 6.00 Build 0)  -->
<!DOCTYPE svg PUBLIC "-//W3C//DTD SVG 1.1//EN" "http://www.w3.org/Graphics/SVG/1.1/DTD/svg11.dtd">
<svg version="1.1" id="图层_1" xmlns="http://www.w3.org/2000/svg" xmlns:xlink="http://www.w3.org/1999/xlink" x="0px" y="0px"
	 width="200px" height="120px" viewBox="0 0 200 120" enable-background="new 0 0 200 120" xml:space="preserve">
<g>
	<path fill="#42BCF4" d="M197.984,120c1.093-5.373,1.762-10.904,1.955-16.566C201.816,48.266,158.646,1.976,103.404,0.06
		C48.229-1.837,1.977,41.341,0.061,96.51c-0.277,8.057,0.411,15.922,1.949,23.49H197.984z"/>
	<path fill="#FFFFFF" d="M195.094,115.521c0.646-3.99,1.05-8.066,1.191-12.213c1.808-53.149-39.782-97.748-93.005-99.593
		C50.124,1.888,5.563,43.487,3.716,96.637c-0.222,6.441,0.198,12.756,1.193,18.885H195.094L195.094,115.521z"/>
	<path fill="#8DD0FC" d="M50.876,102C51.149,75.143,73.075,53.371,100,53.371c26.923,0,48.847,21.771,49.123,48.629h4.315
		C153.166,72.763,129.301,49.057,100,49.057c-29.305,0-53.165,23.706-53.439,52.943H50.876z"/>
</g>
</svg>
