<?xml version="1.0" encoding="UTF-8" standalone="no"?>
<!--
  - This file is part of StyleBI.
  -
  - Copyright (c) 2024, InetSoft Technology Corp, All Rights Reserved.
  -
  - The software and information contained herein are copyrighted and
  - proprietary to InetSoft Technology Corp. This software is furnished
  - pursuant to a written license agreement and may be used, copied,
  - transmitted, and stored only in accordance with the terms of such
  - license and with the inclusion of the above copyright notice. Please
  - refer to the file "COPYRIGHT" for further copyright and licensing
  - information. This software and information or any other copies
  - thereof may not be provided or otherwise made available to any other
  - person.
  -->

<svg
  xmlns:dc="http://purl.org/dc/elements/1.1/"
  xmlns:cc="http://creativecommons.org/ns#"
  xmlns:rdf="http://www.w3.org/1999/02/22-rdf-syntax-ns#"
  xmlns:svg="http://www.w3.org/2000/svg"
  xmlns="http://www.w3.org/2000/svg"
  xml:space="preserve"
  enable-background="new 0 0 200 120"
  viewBox="0 0 200 120"
  height="120px"
  width="200px"
  y="0px"
  x="0px"
  id="图层_1"
  version="1.1"><metadata
   id="metadata123"><rdf:RDF><cc:Work
       rdf:about=""><dc:format>image/svg+xml</dc:format><dc:type
  rdf:resource="http://purl.org/dc/dcmitype/StillImage"/><dc:title></dc:title></cc:Work></rdf:RDF></metadata>
  <g
    id="g16">
	<text
    style="font-size:8.14210033px;font-family:ArialMT;fill:#383838"
    id="text2"
    font-size="8.1421"
    transform="translate(20.7939,102.9492)">40</text>


    <text
      style="font-size:8.14210033px;font-family:ArialMT;fill:#383838"
      id="text4"
      font-size="8.1421"
      transform="translate(30.2939,64.2729)">60</text>


    <text
      style="font-size:8.14210033px;font-family:ArialMT;fill:#383838"
      id="text6"
      font-size="8.1421"
      transform="translate(58.1113,36.7944)">80</text>


    <text
      style="font-size:8.14210033px;font-family:ArialMT;fill:#383838"
      id="text8"
      font-size="8.1421"
      transform="translate(92.3691,26.5444)">100</text>


    <text
      style="font-size:8.14210033px;font-family:ArialMT;fill:#383838"
      id="text10"
      font-size="8.1421"
      transform="translate(130.707,36.7944)">120</text>


    <text
      style="font-size:8.14210033px;font-family:ArialMT;fill:#383838"
      id="text12"
      font-size="8.1421"
      transform="translate(156.8291,64.2729)">140</text>


    <text
      style="font-size:8.14210033px;font-family:ArialMT;fill:#383838"
      id="text14"
      font-size="8.1421"
      transform="translate(165.2783,102.9492)">160</text>



</g>
  <path
    style="fill:#48b2f9;stroke:none"
    d="m 99.996094,0 c -0.170537,0 -0.339429,0.00500935 -0.509766,0.00585938 0,0 0,12.16796862 0,12.16796862 0.170864,-9.73e-4 0.340626,-0.0059 0.511719,-0.0059 0.169653,0 0.338383,0.0049 0.507813,0.0059 0,0 0,-12.16796862 0,-12.16796862 C 100.33564,0.00501063 100.16651,0 99.996094,0 c 0,0 0,0 0,0 m -9.97461,0.4921875 c -0.338794,0.0334441 -0.675876,0.0725687 -1.013672,0.109375 0,0 1.271485,12.1015625 1.271485,12.1015625 0.337487,-0.03702 0.67505,-0.07423 1.013672,-0.107422 0,0 -1.271485,-12.1035155 -1.271485,-12.1035155 m 19.957036,0 c 0,0 -1.27344,12.1035155 -1.27344,12.1035155 0.33873,0.0332 0.67607,0.07039 1.01367,0.107422 0,0 1.27148,-12.1015625 1.27148,-12.1015625 -0.33716,-0.0367495 -0.67355,-0.075975 -1.01171,-0.109375 0,0 0,0 0,0 m -30.341801,1.578125 c -0.333347,0.068718 -0.663964,0.1428273 -0.996094,0.2148437 0,0 2.53125,11.9042968 2.53125,11.9042968 0.331473,-0.07212 0.661288,-0.148422 0.994141,-0.216797 0,0 -2.529297,-11.9023435 -2.529297,-11.9023435 m 40.724611,0 c 0,0 -2.53125,11.9023435 -2.53125,11.9023435 0.33412,0.06862 0.66531,0.144404 0.99804,0.216797 0,0 2.5293,-11.9023436 2.5293,-11.9023436 -0.33202,-0.072002 -0.66286,-0.1480913 -0.99609,-0.2167969 0,0 0,0 0,0 m 10.15039,2.6601563 c 0,0 -3.75977,11.5742192 -3.75977,11.5742192 0.32482,0.103324 0.64949,0.207478 0.97266,0.314453 0,0 3.75977,-11.572266 3.75977,-11.572266 -0.32353,-0.1068584 -0.64769,-0.2127606 -0.97266,-0.3164062 0,0 0,0 0,0 m -61.033204,0.00195 c -0.323587,0.1032242 -0.646599,0.2080495 -0.96875,0.3144562 0,0 3.759765,11.574219 3.759765,11.574219 0.322559,-0.106802 0.646506,-0.211288 0.970703,-0.314453 0,0 -3.761718,-11.5742222 -3.761718,-11.5742222 m 70.851564,3.7109375 c 0,0 -4.94922,11.1171877 -4.94922,11.1171877 0.31112,0.136476 0.62436,0.26825 0.93359,0.408203 0,0 4.94922,-11.1152314 4.94922,-11.1152314 -0.30948,-0.1398317 -0.62245,-0.2733828 -0.93359,-0.4101562 0,0 0,-3.1e-6 0,-3.1e-6 M 59.619141,8.4648438 C 59.307527,8.6020172 58.993537,8.7347582 58.683594,8.875 c 0,0 4.949218,11.119141 4.949218,11.119141 0.31017,-0.140634 0.623473,-0.274976 0.935547,-0.41211 0,0 -4.949218,-11.1171872 -4.949218,-11.1171872 m -9.351563,4.7109372 c -0.295105,0.168758 -0.587643,0.342013 -0.880859,0.513672 0,0 6.083984,10.539063 6.083984,10.539063 0.293098,-0.171871 0.585612,-0.345104 0.880859,-0.513672 0,0 -6.083984,-10.539063 -6.083984,-10.539063 m 99.462892,0.002 c 0,0 -6.08399,10.53711 -6.08399,10.53711 0.29504,0.168437 0.58797,0.339984 0.88086,0.511718 0,0 6.08204,-10.535156 6.08204,-10.535156 -0.2929,-0.171477 -0.58413,-0.34509 -0.87891,-0.513672 0,0 0,0 0,0 M 41.435547,18.861328 c -0.276056,0.198795 -0.550275,0.400041 -0.824219,0.601563 0,0 7.152344,9.84375 7.152344,9.84375 0.273593,-0.201561 0.548225,-0.401148 0.824219,-0.59961 0,0 -7.152344,-9.845703 -7.152344,-9.845703 m 117.125003,0 c 0,0 -7.15039,9.84375 -7.15039,9.84375 0.27631,0.198678 0.55031,0.399779 0.82422,0.601563 0,0 7.15234,-9.84375 7.15234,-9.84375 -0.27437,-0.20184 -0.54968,-0.402459 -0.82617,-0.601563 0,0 0,0 0,0 m 8.17383,6.560547 c 0,0 -8.13868,9.041016 -8.13868,9.041016 0.25355,0.225718 0.50886,0.449145 0.75977,0.677734 0,0 8.13867,-9.041016 8.13867,-9.041016 -0.25107,-0.228428 -0.50638,-0.451829 -0.75976,-0.677734 0,0 0,0 0,0 m -133.486333,0.01367 c -0.25301,0.22566 -0.509067,0.447605 -0.759766,0.675781 0,0 8.142578,9.042969 8.142578,9.042969 0.250506,-0.228319 0.504678,-0.452277 0.757813,-0.677735 0,0 -8.140625,-9.041015 -8.140625,-9.041015 m -7.462891,7.378906 c -0.229431,0.252047 -0.452799,0.509289 -0.679687,0.763672 0,0 9.041015,8.142578 9.041015,8.142578 0.22668,-0.254512 0.452068,-0.509865 0.681641,-0.761719 0,0 -9.042969,-8.144531 -9.042969,-8.144531 m 148.427734,0.002 c 0,0 -9.03906,8.140625 -9.03906,8.140625 0.22866,0.250844 0.45194,0.506286 0.67773,0.759766 0,0 9.03906,-8.138672 9.03906,-8.138672 -0.22628,-0.2537 -0.44892,-0.510343 -0.67773,-0.761719 0,0 0,0 0,0 M 19.134766,40.939453 c -0.201841,0.274364 -0.402458,0.549689 -0.601563,0.826172 0,0 9.84375,7.152344 9.84375,7.152344 0.198892,-0.276579 0.399559,-0.552004 0.601563,-0.826172 0,0 -9.84375,-7.152344 -9.84375,-7.152344 m 161.726564,0 c 0,0 -9.8418,7.150391 -9.8418,7.150391 0.2017,0.273738 0.40297,0.548077 0.60156,0.824218 0,0 9.8418,-7.15039 9.8418,-7.15039 -0.19869,-0.275872 -0.40015,-0.550457 -0.60156,-0.824219 0,0 0,0 0,0 M 13.359375,49.714844 c -0.171955,0.293703 -0.344628,0.587214 -0.513672,0.882812 0,0 10.541016,6.085938 10.541016,6.085938 0.168929,-0.295877 0.341426,-0.589095 0.513672,-0.882813 0,0 -10.541016,-6.085937 -10.541016,-6.085937 m 173.275395,0 c 0,0 -10.53516,6.082031 -10.53516,6.082031 0.17119,0.291899 0.3438,0.582921 0.51172,0.876953 0,0 10.53515,-6.083984 10.53515,-6.083984 -0.16789,-0.293512 -0.34095,-0.583358 -0.51171,-0.875 0,0 0,0 0,0 m 4.8164,9.296875 c 0,0 -11.11523,4.949219 -11.11523,4.949219 0.14004,0.308845 0.27358,0.620906 0.41015,0.93164 0,0 11.11329,-4.947266 11.11329,-4.947266 -0.13687,-0.310844 -0.26829,-0.624411 -0.40821,-0.933593 0,0 0,0 0,0 M 8.5234375,59.058594 c -0.1400916,0.310014 -0.2731335,0.623863 -0.4101563,0.935547 0,0 11.1191408,4.951171 11.1191408,4.951171 0.137149,-0.312584 0.27145,-0.626824 0.412109,-0.9375 0,0 -11.1210935,-4.949218 -11.1210935,-4.949218 M 4.71875,68.835938 c -0.1070748,0.324099 -0.2125556,0.649057 -0.3164062,0.974609 0,0 11.5742182,3.759765 11.5742182,3.759765 0.103666,-0.325761 0.20907,-0.650502 0.316407,-0.974609 0,0 -11.574219,-3.759765 -11.574219,-3.759765 m 190.5625,0.0039 c 0,0 -11.57227,3.759765 -11.57227,3.759765 0.10668,0.32216 0.21141,0.644955 0.31446,0.96875 0,0 11.57226,-3.759765 11.57226,-3.759765 -0.10325,-0.323596 -0.20802,-0.64659 -0.31445,-0.96875 0,0 0,0 0,0 M 1.9550781,78.96875 c -0.072315,0.333455 -0.1478066,0.665319 -0.2167969,1 0,0 11.9023438,2.529297 11.9023438,2.529297 0.06878,-0.334804 0.146191,-0.666593 0.21875,-1 0,0 -11.9042969,-2.529297 -11.9042969,-2.529297 m 196.0878919,0 c 0,0 -11.90235,2.529297 -11.90235,2.529297 0.072,0.330786 0.14854,0.660027 0.2168,0.992187 0,0 11.90039,-2.53125 11.90039,-2.53125 -0.0684,-0.33142 -0.1432,-0.660017 -0.21484,-0.990234 0,0 0,0 0,0 M 0.27148438,89.335938 c -0.0368271,0.337816 -0.0759104,0.674856 -0.109375,1.013671 0,0 12.10156262,1.271485 12.10156262,1.271485 0.03322,-0.338774 0.07233,-0.676034 0.109375,-1.013672 0,0 -12.10156262,-1.271484 -12.10156262,-1.271484 m 199.45703562,0.0039 c 0,0 -12.09961,1.271484 -12.09961,1.271484 0.037,0.336924 0.0743,0.673663 0.10742,1.011719 0,0 12.10156,-1.271485 12.10156,-1.271485 -0.0334,-0.337977 -0.0726,-0.674735 -0.10937,-1.011718 0,0 0,0 0,0 M -0.32421875,99.818359 c -8.5525e-4,0.170865 -0.005859,0.340651 -0.005859,0.511721 0,0.17003 0.006258,0.33818 0.007813,0.50781 0,0 12.16601475,0 12.16601475,0 -0.0014,-0.16968 -0.0078,-0.33778 -0.0078,-0.50781 0,-0.1711 0.0049,-0.340855 0.0059,-0.511721 0,0 -12.16606875,0 -12.16606875,0 m 188.48241875,0 c 9.8e-4,0.170866 0.006,0.340621 0.006,0.511721 0,0.17004 -0.008,0.33812 -0.01,0.50781 0,0 12.16797,0 12.16797,0 0.002,-0.16897 0.008,-0.33655 0.008,-0.50586 -2e-5,-0.17172 -0.005,-0.342149 -0.006,-0.513671 0,0 -12.16597,0 -12.16597,0"
    id="path18"/>
  <path
    id="path88"
    d="m 99.996094,0 c -0.510312,0 -1.016886,0.01193771 -1.525391,0.01953125 0,0 0,13.57617175 0,13.57617175 0.508131,-0.0088 1.015167,-0.01953 1.525391,-0.01953 0.511106,0 1.020296,0.01073 1.529296,0.01953 0,0 0,-13.57617175 0,-13.57617175 C 101.01594,0.01191033 100.50735,0 99.996094,0 c 0,0 0,0 0,0 m -48.84375,12.681641 c -0.888732,0.49637 -1.770763,1.004985 -2.642578,1.527343 0,0 6.789062,11.757813 6.789062,11.757813 0.870924,-0.524607 1.752073,-1.032819 2.642578,-1.527344 0,0 -6.789062,-11.757812 -6.789062,-11.757812 m 97.693356,0 c 0,0 -6.78906,11.759765 -6.78906,11.759765 0.89018,0.494407 1.77197,1.000923 2.64258,1.525391 0,0 6.78711,-11.757813 6.78711,-11.757813 -0.8717,-0.522304 -1.75202,-1.03102 -2.64063,-1.527343 0,0 0,0 0,0 m 37.27149,36.158203 c 0,0 -11.75781,6.789062 -11.75781,6.789062 0.52458,0.870688 1.03282,1.752316 1.52734,2.642578 0,0 11.75781,-6.789062 11.75781,-6.789062 -0.49641,-0.88878 -1.00494,-1.770719 -1.52734,-2.642578 0,0 0,0 0,0 M 13.875,48.84375 c -0.522613,0.872328 -1.030747,1.755267 -1.527344,2.644531 0,0 11.75586,6.78711 11.75586,6.78711 0.494893,-0.89102 1.002332,-1.773118 1.527343,-2.644532 0,0 -11.755859,-6.787109 -11.755859,-6.787109 M -0.3125,98.802734 c -0.007601,0.508778 -0.0175781,1.016759 -0.0175781,1.527346 0,0.51059 0.0164024,1.01706 0.0253906,1.52539 0,0 13.5664065,0 13.5664065,0 -0.0092,-0.50627 -0.02539,-1.01091 -0.02539,-1.51953 0,-0.512823 0.01067,-1.022499 0.01953,-1.533206 0,0 -13.568359,0 -13.568359,0 m 187.04883,0 c 0.009,0.510713 0.0195,1.020377 0.0195,1.533206 0,0.50862 -0.0162,1.01326 -0.0254,1.51953 0,0 13.57226,0 13.57226,0 0.009,-0.5062 0.0254,-1.01108 0.0254,-1.51953 -2e-5,-0.512602 -0.01,-1.02243 -0.0176,-1.533206 0,0 -13.57416,0 -13.57416,0"
    style="fill:#fb8d00;stroke:none"/>
  <path
    id="path110"
    d="M109.829,100.329h90.497  c-0.003-36.956-19.984-69.237-49.729-86.646l-45.646,78.163C107.865,93.552,109.829,96.708,109.829,100.329z"
    enable-background="new    "
    fill="#FB8D00"
    opacity="0.35"/>
  <polygon
    id="polygon112"
    points="99.998,109.329 99.998,91.329 166.832,100.329 "
    fill="#FB8D00"/>
  <circle
    id="circle114"
    r="14.314"
    cy="100.329"
    cx="99.997"
    stroke-miterlimit="10"
    stroke="#48B2F9"
    fill="#FFFFFF"/>
  <circle
    id="circle116"
    r="10.644"
    cy="100.329"
    cx="99.997"
    fill="#48B2F9"/>
</svg>