<?xml version="1.0" encoding="utf-8"?>
<!--
  - This file is part of StyleBI.
  - Copyright (C) 2024  InetSoft Technology
  -
  - This program is free software: you can redistribute it and/or modify
  - it under the terms of the GNU Affero General Public License as published by
  - the Free Software Foundation, either version 3 of the License, or
  - (at your option) any later version.
  -
  - This program is distributed in the hope that it will be useful,
  - but WITHOUT ANY WARRANTY; without even the implied warranty of
  - MERCHANTABILITY or FITNESS FOR A PARTICULAR PURPOSE.  See the
  - GNU Affero General Public License for more details.
  -
  - You should have received a copy of the GNU Affero General Public License
  - along with this program.  If not, see <https://www.gnu.org/licenses/>.
  -->

<!-- Generator: Adobe Illustrator 15.1.0, SVG Export Plug-In . SVG Version: 6.00 Build 0)  -->
<!DOCTYPE svg PUBLIC "-//W3C//DTD SVG 1.1//EN" "http://www.w3.org/Graphics/SVG/1.1/DTD/svg11.dtd">
<svg version="1.1" id="Layer_1" xmlns="http://www.w3.org/2000/svg" xmlns:xlink="http://www.w3.org/1999/xlink" x="0px" y="0px"
	 width="30px" height="30px" viewBox="291 381 30 30" enable-background="new 291 381 30 30" xml:space="preserve">
<g>
	<path fill="#25C16F" d="M306,407.934c-6.588,0-11.934-5.346-11.934-11.934s5.346-11.934,11.934-11.934h8.95
		c1.646,0,2.983,1.336,2.983,2.983V396C317.934,402.588,312.588,407.934,306,407.934z"/>
	<path fill="#FFFFFF" d="M306,389.365c-3.055,0-5.49,2.434-5.49,5.489v3.652c0,1.003,0.812,1.838,1.838,1.838h1.527v-4.272h-2.124
		v-1.218c0-2.363,1.909-4.272,4.272-4.272c2.363,0,4.272,1.909,4.272,4.272v1.218h-2.124v4.272h1.433v0.096
		c0,0.906-0.74,1.646-1.647,1.646h-1.646c-0.144,0-0.263,0.119-0.263,0.263s0.12,0.263,0.263,0.263h1.599
		c1.218,0,2.196-0.979,2.196-2.196v-0.119c0.787-0.215,1.359-0.931,1.359-1.766v-3.676C311.489,391.799,309.031,389.365,306,389.365
		L306,389.365z"/>
</g>
</svg>
