<?xml version="1.0" encoding="utf-8"?>
<!--
  - This file is part of StyleBI.
  -
  - Copyright (c) 2024, InetSoft Technology Corp, All Rights Reserved.
  -
  - The software and information contained herein are copyrighted and
  - proprietary to InetSoft Technology Corp. This software is furnished
  - pursuant to a written license agreement and may be used, copied,
  - transmitted, and stored only in accordance with the terms of such
  - license and with the inclusion of the above copyright notice. Please
  - refer to the file "COPYRIGHT" for further copyright and licensing
  - information. This software and information or any other copies
  - thereof may not be provided or otherwise made available to any other
  - person.
  -->

<!-- Generator: Adobe Illustrator 11.0, SVG Export Plug-In . SVG Version: 6.0.0 Build 78)  -->
<!DOCTYPE svg PUBLIC "-//W3C//DTD SVG 1.0//EN"    "http://www.w3.org/TR/2001/REC-SVG-20010904/DTD/svg10.dtd" [
	<!ENTITY ns_flows "http://ns.adobe.com/Flows/1.0/">
	<!ENTITY ns_svg "http://www.w3.org/2000/svg">
	<!ENTITY ns_xlink "http://www.w3.org/1999/xlink">
]>
<svg  xmlns="&ns_svg;" xmlns:xlink="&ns_xlink;" xmlns:a="http://ns.adobe.com/AdobeSVGViewerExtensions/3.0/"
	 width="85.41" height="171" viewBox="0 0 85.41 171" overflow="visible" enable-background="new 0 0 85.41 171"
	 xml:space="preserve">
		<g id="Layer_3">
		</g>
		<g id="图层_1_副本_3">
			<linearGradient id="XMLID_13_" gradientUnits="userSpaceOnUse" x1="15.8086" y1="149.0449" x2="69.2085" y2="149.0449">
				<stop  offset="0.0056" style="stop-color:#0D3A68"/>
				<stop  offset="0.6742" style="stop-color:#7CCF90"/>
				<stop  offset="0.9427" style="stop-color:#558E8C"/>
				<stop  offset="1" style="stop-color:#4C808B"/>
				<a:midPointStop  offset="0.0056" style="stop-color:#0D3A68"/>
				<a:midPointStop  offset="0.5" style="stop-color:#0D3A68"/>
				<a:midPointStop  offset="0.6742" style="stop-color:#7CCF90"/>
				<a:midPointStop  offset="0.5145" style="stop-color:#7CCF90"/>
				<a:midPointStop  offset="1" style="stop-color:#4C808B"/>
			</linearGradient>
			<path fill="url(#XMLID_13_)" d="M15.809,144.676h0.024c-0.01,0.1-0.024,0.198-0.024,0.3c0,4.661,11.954,8.438,26.7,8.438
				c14.745,0,26.7-3.777,26.7-8.438c0-0.102-0.014-0.2-0.024-0.3h0.024"/>
			<linearGradient id="XMLID_14_" gradientUnits="userSpaceOnUse" x1="3" y1="159.9199" x2="82.0181" y2="159.9199">
				<stop  offset="0.0225" style="stop-color:#454545"/>
				<stop  offset="0.4045" style="stop-color:#919191"/>
				<stop  offset="0.5935" style="stop-color:#8E8E8E"/>
				<stop  offset="0.7358" style="stop-color:#858585"/>
				<stop  offset="0.8628" style="stop-color:#757575"/>
				<stop  offset="0.9801" style="stop-color:#5E5E5E"/>
				<stop  offset="1" style="stop-color:#595959"/>
				<a:midPointStop  offset="0.0225" style="stop-color:#454545"/>
				<a:midPointStop  offset="0.5" style="stop-color:#454545"/>
				<a:midPointStop  offset="0.4045" style="stop-color:#919191"/>
				<a:midPointStop  offset="0.7619" style="stop-color:#919191"/>
				<a:midPointStop  offset="1" style="stop-color:#595959"/>
			</linearGradient>
			<path fill="url(#XMLID_14_)" d="M82.018,151.84c-2.581,8.854-19.755,13.403-39.151,13.403c-19.395,0-38.977-5.352-39.867-13.403
				l0,0v3.114h0.048C4.03,162.216,21.32,168,42.508,168c21.189,0,38.478-5.784,39.461-13.046h0.049V151.84L82.018,151.84z"/>
			<linearGradient id="XMLID_15_" gradientUnits="userSpaceOnUse" x1="3" y1="151.5146" x2="82.0181" y2="151.5146">
				<stop  offset="0.0056" style="stop-color:#171717"/>
				<stop  offset="0.1517" style="stop-color:#212121"/>
				<stop  offset="0.6461" style="stop-color:#D6D6D6"/>
				<stop  offset="0.7155" style="stop-color:#D3D3D3"/>
				<stop  offset="0.7678" style="stop-color:#CACACA"/>
				<stop  offset="0.8145" style="stop-color:#B9B9B9"/>
				<stop  offset="0.8579" style="stop-color:#A3A3A3"/>
				<stop  offset="0.899" style="stop-color:#858585"/>
				<stop  offset="0.9385" style="stop-color:#616161"/>
				<stop  offset="0.9758" style="stop-color:#363636"/>
				<stop  offset="1" style="stop-color:#171717"/>
				<a:midPointStop  offset="0.0056" style="stop-color:#171717"/>
				<a:midPointStop  offset="0.5" style="stop-color:#171717"/>
				<a:midPointStop  offset="0.1517" style="stop-color:#212121"/>
				<a:midPointStop  offset="0.5" style="stop-color:#212121"/>
				<a:midPointStop  offset="0.6461" style="stop-color:#D6D6D6"/>
				<a:midPointStop  offset="0.7619" style="stop-color:#D6D6D6"/>
				<a:midPointStop  offset="1" style="stop-color:#171717"/>
			</linearGradient>
			<ellipse opacity="0.5" fill="url(#XMLID_15_)" cx="42.509" cy="151.516" rx="39.509" ry="13.697"/> 
			<linearGradient id="XMLID_16_" gradientUnits="userSpaceOnUse" x1="42.9009" y1="165.1406" x2="42.9009" y2="137.7451">
				<stop  offset="0.1124" style="stop-color:#D6D6D6"/>
				<stop  offset="0.205" style="stop-color:#D0D0D0"/>
				<stop  offset="0.3288" style="stop-color:#BFBFBF"/>
				<stop  offset="0.4702" style="stop-color:#A3A3A3"/>
				<stop  offset="0.6246" style="stop-color:#7D7D7D"/>
				<stop  offset="0.7897" style="stop-color:#4B4B4B"/>
				<stop  offset="0.9612" style="stop-color:#0F0F0F"/>
				<stop  offset="1" style="stop-color:#000000"/>
				<a:midPointStop  offset="0.1124" style="stop-color:#D6D6D6"/>
				<a:midPointStop  offset="0.6456" style="stop-color:#D6D6D6"/>
				<a:midPointStop  offset="1" style="stop-color:#000000"/>
			</linearGradient>
			
				<ellipse opacity="0.3" fill="url(#XMLID_16_)"  a:adobe-blending-mode="multiply" cx="42.901" cy="151.442" rx="39.509" ry="13.698"/> 
			<linearGradient id="XMLID_17_" gradientUnits="userSpaceOnUse" x1="42.9009" y1="161.3271" x2="42.9009" y2="146.0313">
				<stop  offset="0.1124" style="stop-color:#D6D6D6"/>
				<stop  offset="0.2537" style="stop-color:#D0D0D0"/>
				<stop  offset="0.4424" style="stop-color:#BFBFBF"/>
				<stop  offset="0.6579" style="stop-color:#A3A3A3"/>
				<stop  offset="0.8914" style="stop-color:#7D7D7D"/>
				<stop  offset="1" style="stop-color:#696969"/>
				<a:midPointStop  offset="0.1124" style="stop-color:#D6D6D6"/>
				<a:midPointStop  offset="0.6456" style="stop-color:#D6D6D6"/>
				<a:midPointStop  offset="1" style="stop-color:#696969"/>
			</linearGradient>
			<path opacity="0.3" fill="url(#XMLID_17_)"  a:adobe-blending-mode="softLight" d="M76.37,146.031
				c0.575,0.802,0.891,1.634,0.891,2.491c0,6.086-15.383,11.02-34.36,11.02c-18.975,0-34.358-4.934-34.358-11.02
				c0-0.857,0.315-1.689,0.892-2.491c-1.367,1.214-2.116,2.52-2.116,3.884c0,6.304,15.931,11.412,35.583,11.412
				c19.654,0,35.585-5.108,35.585-11.412C78.485,148.551,77.736,147.245,76.37,146.031z"/>
			<linearGradient id="XMLID_18_" gradientUnits="userSpaceOnUse" x1="13.9512" y1="81.9004" x2="71.0659" y2="81.9004">
				<stop  offset="0.0056" style="stop-color:#303030"/>
				<stop  offset="0.1713" style="stop-color:#898989"/>
				<stop  offset="0.3371" style="stop-color:#E6E6E6"/>
				<stop  offset="1" style="stop-color:#000000"/>
				<a:midPointStop  offset="0.0056" style="stop-color:#303030"/>
				<a:midPointStop  offset="0.5106" style="stop-color:#303030"/>
				<a:midPointStop  offset="0.3371" style="stop-color:#E6E6E6"/>
				<a:midPointStop  offset="0.5" style="stop-color:#E6E6E6"/>
				<a:midPointStop  offset="1" style="stop-color:#000000"/>
			</linearGradient>
			<path opacity="0.3" fill="url(#XMLID_18_)" d="M13.951,8.473v55.256v26.066v56.187h0.025c-0.012,0.106-0.025,0.213-0.025,0.319
				c0,4.985,12.785,9.027,28.557,9.027c15.773,0,28.558-4.042,28.558-9.027c0-0.106-0.013-0.213-0.025-0.319h0.025V89.795V63.729
				V8.473H13.951z"/>
			<linearGradient id="XMLID_19_" gradientUnits="userSpaceOnUse" x1="16.127" y1="81.1782" x2="68.8901" y2="81.1782">
				<stop  offset="0.0056" style="stop-color:#A3A3A3"/>
				<stop  offset="0.7135" style="stop-color:#F5F5F5"/>
				<stop  offset="1" style="stop-color:#828282"/>
				<a:midPointStop  offset="0.0056" style="stop-color:#A3A3A3"/>
				<a:midPointStop  offset="0.5106" style="stop-color:#A3A3A3"/>
				<a:midPointStop  offset="0.7135" style="stop-color:#F5F5F5"/>
				<a:midPointStop  offset="0.5" style="stop-color:#F5F5F5"/>
				<a:midPointStop  offset="1" style="stop-color:#828282"/>
			</linearGradient>
			<path opacity="0.2" fill="url(#XMLID_19_)" stroke="#777777" stroke-width="0.3449" d="M16.127,8.473v54.712v25.81v55.634h0.023
				c-0.011,0.105-0.023,0.21-0.023,0.316c0,4.937,11.811,8.938,26.381,8.938c14.571,0,26.382-4.002,26.382-8.938
				c0-0.106-0.012-0.211-0.023-0.316h0.023V88.995v-25.81V8.473H16.127z"/>
			<g opacity="0.3"  a:adobe-knockout="true">
				<path  a:adobe-knockout="false" d="M13.951,8.512v55.257v26.067v56.185h0.025c-0.012,0.108-0.025,0.213-0.025,0.321
					c0,4.985,12.785,9.025,28.557,9.025c15.773,0,28.558-4.04,28.558-9.025c0-0.108-0.013-0.213-0.025-0.321h0.025V89.836V63.769
					V8.512H13.951z"/>
				<path opacity="0.995" fill="#010101"  a:adobe-knockout="false" d="M42.508,155.333c15.749,0,28.513-4.039,28.513-9.023
					c0-0.108-0.013-0.213-0.025-0.321h0.025V89.816V63.756V8.512H13.996v55.244v26.061v56.172h0.025
					c-0.012,0.108-0.025,0.213-0.025,0.321C13.996,151.294,26.761,155.333,42.508,155.333z"/>
				<path opacity="0.9901" fill="#030303"  a:adobe-knockout="false" d="M42.508,155.299c15.725,0,28.469-4.038,28.469-9.021
					c0-0.108-0.013-0.213-0.025-0.32h0.025V89.798V63.743V8.511H14.04v55.231v26.055v56.159h0.025
					c-0.012,0.107-0.025,0.212-0.025,0.32C14.04,151.261,26.785,155.299,42.508,155.299z"/>
				<path opacity="0.9851" fill="#040404"  a:adobe-knockout="false" d="M42.508,155.265c15.7,0,28.425-4.037,28.425-9.019
					c0-0.108-0.013-0.213-0.025-0.321h0.025V89.778V63.729V8.511H14.084v55.218v26.049v56.146h0.025
					c-0.012,0.108-0.025,0.213-0.025,0.321C14.084,151.228,26.81,155.265,42.508,155.265z"/>
				<path opacity="0.9801" fill="#050505"  a:adobe-knockout="false" d="M42.508,155.23c15.676,0,28.38-4.036,28.38-9.017
					c0-0.108-0.012-0.213-0.025-0.321h0.025V89.759V63.717V8.511h-56.76v55.206v26.042v56.134h0.025
					c-0.012,0.108-0.025,0.213-0.025,0.321C14.128,151.194,26.834,155.23,42.508,155.23z"/>
				<path opacity="0.9751" fill="#060606"  a:adobe-knockout="false" d="M42.508,155.197c15.651,0,28.336-4.036,28.336-9.016
					c0-0.108-0.013-0.213-0.025-0.321h0.025V89.739V63.704V8.51H14.172v55.193v26.036v56.121h0.025
					c-0.012,0.108-0.025,0.213-0.025,0.321C14.172,151.161,26.858,155.197,42.508,155.197z"/>
				<path opacity="0.9702" fill="#080808"  a:adobe-knockout="false" d="M42.508,155.163c15.627,0,28.292-4.035,28.292-9.014
					c0-0.108-0.013-0.213-0.025-0.32H70.8V89.721V63.69V8.51H14.217V63.69v26.03v56.108h0.025c-0.011,0.107-0.025,0.212-0.025,0.32
					C14.217,151.128,26.883,155.163,42.508,155.163z"/>
				<path opacity="0.9652" fill="#090909"  a:adobe-knockout="false" d="M42.508,155.129c15.603,0,28.248-4.034,28.248-9.012
					c0-0.107-0.012-0.212-0.025-0.32h0.025V89.701V63.677V8.509H14.261v55.168v26.024v56.096h0.025
					c-0.012,0.108-0.025,0.213-0.025,0.32C14.261,151.095,26.907,155.129,42.508,155.129z"/>
				<path opacity="0.9602" fill="#0A0A0A"  a:adobe-knockout="false" d="M42.508,155.095c15.578,0,28.204-4.033,28.204-9.009
					c0-0.108-0.013-0.213-0.025-0.321h0.025V89.682V63.664V8.509H14.305v55.155v26.018v56.083h0.025
					c-0.012,0.108-0.025,0.213-0.025,0.321C14.305,151.062,26.932,155.095,42.508,155.095z"/>
				<path opacity="0.9552" fill="#0B0B0B"  a:adobe-knockout="false" d="M42.508,155.061c15.553,0,28.159-4.032,28.159-9.007
					c0-0.108-0.012-0.213-0.025-0.321h0.025V89.663V63.651V8.509H14.35v55.142v26.012v56.069h0.025
					c-0.012,0.108-0.025,0.213-0.025,0.321C14.35,151.028,26.957,155.061,42.508,155.061z"/>
				<path opacity="0.9502" fill="#0D0D0D"  a:adobe-knockout="false" d="M42.508,155.026c15.529,0,28.115-4.031,28.115-9.005
					c0-0.108-0.012-0.213-0.025-0.32h0.025V89.644V63.638V8.508H14.394v55.129v26.006v56.058h0.025
					c-0.012,0.107-0.025,0.212-0.025,0.32C14.394,150.995,26.981,155.026,42.508,155.026z"/>
				<path opacity="0.9453" fill="#0E0E0E"  a:adobe-knockout="false" d="M42.508,154.992c15.504,0,28.071-4.03,28.071-9.003
					c0-0.108-0.013-0.212-0.025-0.32h0.025V89.624v-26V8.508H14.438v55.117v26v56.045h0.025c-0.011,0.108-0.025,0.212-0.025,0.32
					C14.438,150.962,27.005,154.992,42.508,154.992z"/>
				<path opacity="0.9403" fill="#0F0F0F"  a:adobe-knockout="false" d="M42.508,154.958c15.48,0,28.026-4.029,28.026-9.001
					c0-0.107-0.012-0.212-0.025-0.32h0.025V89.605V63.612V8.507H14.482v55.104v25.994v56.031h0.025
					c-0.012,0.108-0.025,0.213-0.025,0.32C14.482,150.929,27.03,154.958,42.508,154.958z"/>
				<path opacity="0.9353" fill="#101010"  a:adobe-knockout="false" d="M42.508,154.924c15.456,0,27.982-4.028,27.982-8.998
					c0-0.108-0.012-0.213-0.024-0.321h0.024V89.586V63.599V8.507H14.526v55.092v25.987v56.019h0.025
					c-0.011,0.108-0.025,0.213-0.025,0.321C14.526,150.896,27.054,154.924,42.508,154.924z"/>
				<path opacity="0.9303" fill="#121212"  a:adobe-knockout="false" d="M42.508,154.89c15.431,0,27.938-4.027,27.938-8.996
					c0-0.108-0.012-0.213-0.025-0.32h0.025V89.566V63.585V8.507H14.571v55.079v25.981v56.007h0.025
					c-0.012,0.107-0.025,0.212-0.025,0.32C14.571,150.862,27.079,154.89,42.508,154.89z"/>
				<path opacity="0.9254" fill="#131313"  a:adobe-knockout="false" d="M42.508,154.855c15.407,0,27.894-4.026,27.894-8.994
					c0-0.108-0.012-0.212-0.025-0.32h0.025V89.547V63.572V8.506H14.615v55.066v25.975v55.994h0.024
					c-0.011,0.108-0.024,0.212-0.024,0.32C14.615,150.829,27.103,154.855,42.508,154.855z"/>
				<path opacity="0.9204" fill="#141414"  a:adobe-knockout="false" d="M42.508,154.822c15.382,0,27.85-4.026,27.85-8.993
					c0-0.107-0.013-0.212-0.025-0.32h0.025v-55.98V63.559V8.506H14.659v55.053v25.969v55.98h0.025
					c-0.011,0.108-0.025,0.213-0.025,0.32C14.659,150.796,27.127,154.822,42.508,154.822z"/>
				<path opacity="0.9154" fill="#161616"  a:adobe-knockout="false" d="M42.508,154.788c15.358,0,27.805-4.024,27.805-8.991
					c0-0.107-0.012-0.212-0.025-0.319h0.025V89.509V63.546V8.505h-55.61v55.041v25.963v55.969h0.025
					c-0.012,0.107-0.025,0.212-0.025,0.319C14.704,150.764,27.152,154.788,42.508,154.788z"/>
				<path opacity="0.9104" fill="#171717"  a:adobe-knockout="false" d="M42.508,154.754c15.333,0,27.761-4.023,27.761-8.989
					c0-0.107-0.012-0.212-0.024-0.319h0.024V89.489V63.533V8.505H14.748v55.028v25.957v55.956h0.024
					c-0.011,0.107-0.024,0.212-0.024,0.319C14.748,150.73,27.176,154.754,42.508,154.754z"/>
				<path opacity="0.9055" fill="#181818"  a:adobe-knockout="false" d="M42.508,154.72c15.309,0,27.717-4.022,27.717-8.986
					c0-0.108-0.013-0.213-0.025-0.32h0.025V89.471V63.52V8.504H14.792V63.52v25.951v55.942h0.025
					c-0.012,0.107-0.025,0.212-0.025,0.32C14.792,150.697,27.201,154.72,42.508,154.72z"/>
				<path opacity="0.9005" fill="#191919"  a:adobe-knockout="false" d="M42.508,154.686c15.285,0,27.672-4.021,27.672-8.984
					c0-0.108-0.012-0.212-0.025-0.32h0.025v-55.93V63.507V8.504H14.836v55.002v25.944v55.93h0.024
					c-0.011,0.108-0.024,0.212-0.024,0.32C14.836,150.664,27.225,154.686,42.508,154.686z"/>
				<path opacity="0.8955" fill="#1B1B1B"  a:adobe-knockout="false" d="M42.508,154.651c15.26,0,27.628-4.021,27.628-8.982
					c0-0.107-0.012-0.212-0.024-0.319h0.024V89.432V63.494V8.504H14.88v54.99v25.938v55.918h0.025
					c-0.011,0.107-0.025,0.212-0.025,0.319C14.88,150.631,27.25,154.651,42.508,154.651z"/>
				<path opacity="0.8905" fill="#1C1C1C"  a:adobe-knockout="false" d="M42.508,154.617c15.235,0,27.584-4.02,27.584-8.98
					c0-0.107-0.012-0.212-0.025-0.319h0.025V89.413V63.48V8.503H14.925V63.48v25.933v55.904h0.024
					c-0.011,0.107-0.024,0.212-0.024,0.319C14.925,150.598,27.274,154.617,42.508,154.617z"/>
				<path opacity="0.8856" fill="#1D1D1D"  a:adobe-knockout="false" d="M42.508,154.583c15.211,0,27.54-4.019,27.54-8.979
					c0-0.107-0.012-0.212-0.024-0.319h0.024V89.394V63.467V8.503H14.969v54.964v25.926v55.892h0.024
					c-0.011,0.107-0.024,0.212-0.024,0.319C14.969,150.564,27.299,154.583,42.508,154.583z"/>
				<path opacity="0.8806" fill="#1E1E1E"  a:adobe-knockout="false" d="M42.508,154.549c15.187,0,27.495-4.018,27.495-8.976
					c0-0.108-0.012-0.212-0.024-0.32h0.024V89.374v-25.92V8.502h-54.99v54.952v25.92v55.879h0.025
					c-0.012,0.108-0.025,0.212-0.025,0.32C15.013,150.531,27.323,154.549,42.508,154.549z"/>
				<path opacity="0.8756" fill="#202020"  a:adobe-knockout="false" d="M42.508,154.515c15.162,0,27.451-4.017,27.451-8.974
					c0-0.107-0.012-0.212-0.024-0.319h0.024V89.354V63.441V8.502H15.058v54.938v25.914v55.867h0.024
					c-0.011,0.107-0.024,0.212-0.024,0.319C15.058,150.498,27.348,154.515,42.508,154.515z"/>
				<path opacity="0.8706" fill="#212121"  a:adobe-knockout="false" d="M42.508,154.481c15.138,0,27.407-4.017,27.407-8.973
					c0-0.107-0.012-0.212-0.024-0.319h0.024V89.336V63.428V8.502H15.102v54.926v25.908v55.854h0.024
					c-0.011,0.107-0.024,0.212-0.024,0.319C15.102,150.465,27.372,154.481,42.508,154.481z"/>
				<path opacity="0.8657" fill="#222222"  a:adobe-knockout="false" d="M42.508,154.447c15.113,0,27.362-4.016,27.362-8.971
					c0-0.107-0.012-0.212-0.024-0.319h0.024V89.316V63.415V8.501H15.146v54.913v25.902v55.841h0.024
					c-0.011,0.107-0.024,0.212-0.024,0.319C15.146,150.432,27.396,154.447,42.508,154.447z"/>
				<path opacity="0.8607" fill="#242424"  a:adobe-knockout="false" d="M42.508,154.413c15.089,0,27.318-4.015,27.318-8.969
					c0-0.107-0.012-0.211-0.024-0.318h0.024V89.297V63.402V8.501H15.19v54.901v25.895v55.829h0.024
					c-0.011,0.107-0.024,0.211-0.024,0.318C15.19,150.398,27.421,154.413,42.508,154.413z"/>
				<path opacity="0.8557" fill="#252525"  a:adobe-knockout="false" d="M42.508,154.379c15.064,0,27.274-4.014,27.274-8.966
					c0-0.108-0.012-0.212-0.024-0.319h0.024V89.278v-25.89V8.5H15.235v54.888v25.89v55.815h0.024
					c-0.011,0.107-0.024,0.211-0.024,0.319C15.235,150.365,27.445,154.379,42.508,154.379z"/>
				<path opacity="0.8507" fill="#262626"  a:adobe-knockout="false" d="M42.508,154.345c15.04,0,27.229-4.013,27.229-8.964
					c0-0.107-0.012-0.212-0.024-0.319h0.024V89.259V63.375V8.5H15.279v54.875v25.883v55.803h0.024
					c-0.011,0.107-0.024,0.212-0.024,0.319C15.279,150.332,27.47,154.345,42.508,154.345z"/>
				<path opacity="0.8458" fill="#272727"  a:adobe-knockout="false" d="M42.508,154.311c15.016,0,27.186-4.012,27.186-8.962
					c0-0.107-0.012-0.212-0.024-0.319h0.024v-55.79V63.362V8.5H15.323v54.862v25.877v55.79h0.024
					c-0.011,0.107-0.024,0.212-0.024,0.319C15.323,150.299,27.494,154.311,42.508,154.311z"/>
				<path opacity="0.8408" fill="#292929"  a:adobe-knockout="false" d="M42.508,154.276c14.991,0,27.141-4.011,27.141-8.96
					c0-0.107-0.012-0.212-0.024-0.318h0.024V89.221V63.349V8.5H15.368v54.85v25.872v55.777h0.024
					c-0.011,0.106-0.024,0.211-0.024,0.318C15.368,150.266,27.519,154.276,42.508,154.276z"/>
				<path opacity="0.8358" fill="#2A2A2A"  a:adobe-knockout="false" d="M42.508,154.242c14.967,0,27.097-4.01,27.097-8.958
					c0-0.107-0.012-0.211-0.024-0.318h0.024V89.201V63.336V8.499H15.412v54.837v25.865v55.765h0.024
					c-0.011,0.107-0.024,0.211-0.024,0.318C15.412,150.232,27.543,154.242,42.508,154.242z"/>
				<path opacity="0.8308" fill="#2B2B2B"  a:adobe-knockout="false" d="M42.508,154.208c14.942,0,27.053-4.009,27.053-8.955
					c0-0.107-0.012-0.212-0.024-0.319h0.024V89.182V63.323V8.499H15.456v54.824v25.859v55.752h0.024
					c-0.011,0.107-0.024,0.212-0.024,0.319C15.456,150.199,27.567,154.208,42.508,154.208z"/>
				<path opacity="0.8259" fill="#2C2C2C"  a:adobe-knockout="false" d="M42.508,154.174c14.918,0,27.008-4.008,27.008-8.953
					c0-0.107-0.012-0.212-0.024-0.319h0.024V89.162V63.31V8.498H15.5V63.31v25.852v55.739h0.024
					c-0.011,0.107-0.024,0.212-0.024,0.319C15.5,150.166,27.592,154.174,42.508,154.174z"/>
				<path opacity="0.8209" fill="#2E2E2E"  a:adobe-knockout="false" d="M42.508,154.141c14.894,0,26.964-4.008,26.964-8.952
					c0-0.107-0.012-0.212-0.024-0.318h0.024V89.144V63.297V8.498H15.544v54.799v25.847v55.727h0.024
					c-0.011,0.106-0.024,0.211-0.024,0.318C15.544,150.133,27.616,154.141,42.508,154.141z"/>
				<path opacity="0.8159" fill="#2F2F2F"  a:adobe-knockout="false" d="M42.508,154.106c14.869,0,26.92-4.007,26.92-8.95
					c0-0.107-0.012-0.211-0.024-0.318h0.024V89.124v-25.84V8.498H15.589v54.786v25.84v55.714h0.024
					c-0.011,0.107-0.024,0.211-0.024,0.318C15.589,150.1,27.641,154.106,42.508,154.106z"/>
				<path opacity="0.8109" fill="#303030"  a:adobe-knockout="false" d="M42.508,154.072c14.844,0,26.875-4.006,26.875-8.948
					c0-0.106-0.012-0.211-0.024-0.318h0.024V89.104V63.271V8.497H15.633v54.773v25.834v55.701h0.024
					c-0.011,0.107-0.024,0.212-0.024,0.318C15.633,150.066,27.666,154.072,42.508,154.072z"/>
				<path opacity="0.806" fill="#313131"  a:adobe-knockout="false" d="M42.508,154.038c14.82,0,26.831-4.005,26.831-8.945
					c0-0.107-0.012-0.212-0.023-0.319h0.023V89.086V63.257V8.497H15.677v54.761v25.829v55.688h0.024
					c-0.011,0.107-0.024,0.212-0.024,0.319C15.677,150.033,27.69,154.038,42.508,154.038z"/>
				<path opacity="0.801" fill="#333333"  a:adobe-knockout="false" d="M42.508,154.004c14.795,0,26.787-4.004,26.787-8.943
					c0-0.107-0.012-0.212-0.024-0.318h0.024V89.066V63.244V8.496H15.722v54.748v25.822v55.676h0.024
					c-0.011,0.106-0.024,0.211-0.024,0.318C15.722,150,27.714,154.004,42.508,154.004z"/>
				<path opacity="0.796" fill="#343434"  a:adobe-knockout="false" d="M42.508,153.97c14.771,0,26.743-4.003,26.743-8.941
					c0-0.107-0.012-0.211-0.024-0.318h0.024V89.047V63.231V8.496H15.766v54.735v25.816v55.663h0.024
					c-0.011,0.107-0.024,0.211-0.024,0.318C15.766,149.967,27.739,153.97,42.508,153.97z"/>
				<path opacity="0.791" fill="#353535"  a:adobe-knockout="false" d="M42.508,153.936c14.747,0,26.698-4.002,26.698-8.939
					c0-0.107-0.011-0.211-0.023-0.318h0.023V89.028V63.218V8.496H15.81v54.722v25.811v55.649h0.024
					c-0.011,0.107-0.024,0.211-0.024,0.318C15.81,149.934,27.763,153.936,42.508,153.936z"/>
				<path opacity="0.7861" fill="#373737"  a:adobe-knockout="false" d="M42.508,153.901c14.722,0,26.654-4.001,26.654-8.938
					c0-0.106-0.012-0.211-0.024-0.317h0.024V89.009V63.205V8.495H15.854v54.71v25.804v55.638h0.023
					c-0.011,0.106-0.023,0.211-0.023,0.317C15.854,149.9,27.788,153.901,42.508,153.901z"/>
				<path opacity="0.7811" fill="#383838"  a:adobe-knockout="false" d="M42.508,153.867c14.698,0,26.61-4,26.61-8.935
					c0-0.107-0.012-0.212-0.023-0.318h0.023V88.989V63.192V8.495h-53.22v54.697v25.797v55.625h0.024
					c-0.011,0.106-0.024,0.211-0.024,0.318C15.898,149.867,27.812,153.867,42.508,153.867z"/>
				<path opacity="0.7761" fill="#393939"  a:adobe-knockout="false" d="M42.508,153.833c14.673,0,26.565-3.999,26.565-8.933
					c0-0.107-0.011-0.211-0.023-0.318h0.023V88.97V63.179V8.494H15.943v54.685V88.97v55.612h0.024
					c-0.011,0.107-0.024,0.211-0.024,0.318C15.943,149.834,27.836,153.833,42.508,153.833z"/>
				<path opacity="0.7711" fill="#3A3A3A"  a:adobe-knockout="false" d="M42.508,153.8c14.649,0,26.521-3.999,26.521-8.932
					c0-0.107-0.012-0.211-0.024-0.318h0.024V88.951V63.166V8.494H15.987v54.672v25.786v55.599h0.023
					c-0.011,0.107-0.023,0.211-0.023,0.318C15.987,149.801,27.861,153.8,42.508,153.8z"/>
				<path opacity="0.7662" fill="#3C3C3C"  a:adobe-knockout="false" d="M42.508,153.766c14.625,0,26.477-3.998,26.477-8.93
					c0-0.106-0.012-0.211-0.023-0.317h0.023V88.932V63.152V8.494H16.031v54.659v25.779v55.587h0.024
					c-0.011,0.106-0.024,0.211-0.024,0.317C16.031,149.768,27.885,153.766,42.508,153.766z"/>
				<path opacity="0.7612" fill="#3D3D3D"  a:adobe-knockout="false" d="M42.508,153.731c14.6,0,26.433-3.997,26.433-8.928
					c0-0.106-0.011-0.211-0.023-0.317h0.023V88.912V63.139V8.493H16.076v54.646v25.773v55.574h0.023
					c-0.011,0.106-0.023,0.211-0.023,0.317C16.076,149.734,27.91,153.731,42.508,153.731z"/>
				<path opacity="0.7562" fill="#3E3E3E"  a:adobe-knockout="false" d="M42.508,153.697c14.576,0,26.389-3.996,26.389-8.925
					c0-0.107-0.012-0.212-0.023-0.318h0.023V88.894V63.126V8.493H16.12v54.633v25.768v55.561h0.024
					c-0.011,0.106-0.024,0.211-0.024,0.318C16.12,149.701,27.934,153.697,42.508,153.697z"/>
				<path opacity="0.7512" fill="#3F3F3F"  a:adobe-knockout="false" d="M42.508,153.663c14.551,0,26.344-3.995,26.344-8.923
					c0-0.107-0.011-0.211-0.023-0.318h0.023V88.874V63.113V8.492H16.164v54.621v25.761v55.548h0.023
					c-0.011,0.107-0.023,0.211-0.023,0.318C16.164,149.668,27.958,153.663,42.508,153.663z"/>
				<path opacity="0.7463" fill="#414141"  a:adobe-knockout="false" d="M42.508,153.629c14.526,0,26.3-3.993,26.3-8.921
					c0-0.107-0.012-0.211-0.023-0.317h0.023V88.854V63.1V8.492h-52.6V63.1v25.754v55.536h0.023c-0.011,0.106-0.023,0.21-0.023,0.317
					C16.208,149.636,27.983,153.629,42.508,153.629z"/>
				<path opacity="0.7413" fill="#424242"  a:adobe-knockout="false" d="M42.508,153.595c14.502,0,26.256-3.992,26.256-8.919
					c0-0.106-0.012-0.211-0.023-0.317h0.023V88.836V63.087V8.492H16.252v54.595v25.749v55.522h0.023
					c-0.011,0.106-0.023,0.211-0.023,0.317C16.252,149.603,28.008,153.595,42.508,153.595z"/>
				<path opacity="0.7363" fill="#434343"  a:adobe-knockout="false" d="M42.508,153.561c14.478,0,26.211-3.991,26.211-8.917
					c0-0.106-0.011-0.211-0.023-0.317h0.023v-55.51V63.074V8.491H16.297v54.583v25.743v55.51h0.023
					c-0.011,0.106-0.023,0.211-0.023,0.317C16.297,149.569,28.032,153.561,42.508,153.561z"/>
				<path opacity="0.7313" fill="#454545"  a:adobe-knockout="false" d="M42.508,153.526c14.453,0,26.167-3.99,26.167-8.915
					c0-0.106-0.012-0.21-0.023-0.316h0.023V88.797V63.061V8.491H16.341v54.57v25.736v55.498h0.023
					c-0.011,0.106-0.023,0.21-0.023,0.316C16.341,149.536,28.057,153.526,42.508,153.526z"/>
				<path opacity="0.7264" fill="#464646"  a:adobe-knockout="false" d="M42.508,153.492c14.429,0,26.123-3.989,26.123-8.912
					c0-0.107-0.011-0.211-0.023-0.317h0.023V88.777v-25.73V8.49H16.385v54.557v25.73v55.485h0.023
					c-0.011,0.106-0.023,0.21-0.023,0.317C16.385,149.503,28.081,153.492,42.508,153.492z"/>
				<path opacity="0.7214" fill="#474747"  a:adobe-knockout="false" d="M42.508,153.459c14.404,0,26.079-3.989,26.079-8.911
					c0-0.106-0.011-0.211-0.023-0.317h0.023V88.759V63.034V8.49H16.43v54.544v25.725v55.472h0.023
					c-0.011,0.106-0.023,0.211-0.023,0.317C16.43,149.47,28.105,153.459,42.508,153.459z"/>
				<path opacity="0.7164" fill="#484848"  a:adobe-knockout="false" d="M42.508,153.425c14.38,0,26.035-3.988,26.035-8.909
					c0-0.106-0.012-0.211-0.023-0.317h0.023V88.739V63.021V8.489H16.474v54.532v25.718v55.459h0.023
					c-0.011,0.106-0.023,0.211-0.023,0.317C16.474,149.437,28.13,153.425,42.508,153.425z"/>
				<path opacity="0.7114" fill="#4A4A4A"  a:adobe-knockout="false" d="M42.508,153.391c14.355,0,25.99-3.987,25.99-8.907
					c0-0.106-0.011-0.21-0.023-0.316h0.023V88.72V63.008V8.489h-51.98v54.519V88.72v55.447h0.023
					c-0.011,0.106-0.023,0.21-0.023,0.316C16.518,149.403,28.154,153.391,42.508,153.391z"/>
				<path opacity="0.7065" fill="#4B4B4B"  a:adobe-knockout="false" d="M42.508,153.356c14.331,0,25.946-3.986,25.946-8.905
					c0-0.106-0.011-0.21-0.023-0.316h0.023V88.701V62.995V8.489H16.563v54.506v25.706v55.434h0.023
					c-0.011,0.106-0.023,0.21-0.023,0.316C16.563,149.37,28.179,153.356,42.508,153.356z"/>
				<path opacity="0.7015" fill="#4C4C4C"  a:adobe-knockout="false" d="M42.508,153.322c14.307,0,25.902-3.985,25.902-8.902
					c0-0.107-0.011-0.211-0.023-0.317h0.023V88.682v-25.7V8.488H16.606v54.494v25.7v55.421h0.023
					c-0.011,0.106-0.023,0.21-0.023,0.317C16.606,149.337,28.203,153.322,42.508,153.322z"/>
				<path opacity="0.6965" fill="#4D4D4D"  a:adobe-knockout="false" d="M42.508,153.288c14.282,0,25.857-3.984,25.857-8.9
					c0-0.106-0.011-0.211-0.023-0.317h0.023V88.662V62.969V8.488H16.651v54.481v25.693v55.408h0.023
					c-0.011,0.106-0.023,0.211-0.023,0.317C16.651,149.304,28.228,153.288,42.508,153.288z"/>
				<path opacity="0.6915" fill="#4F4F4F"  a:adobe-knockout="false" d="M42.508,153.254c14.258,0,25.813-3.983,25.813-8.898
					c0-0.106-0.011-0.21-0.023-0.316h0.023V88.644V62.956V8.487H16.695v54.468v25.688v55.396h0.023
					c-0.011,0.106-0.023,0.21-0.023,0.316C16.695,149.271,28.252,153.254,42.508,153.254z"/>
				<path opacity="0.6866" fill="#505050"  a:adobe-knockout="false" d="M42.508,153.22c14.233,0,25.769-3.982,25.769-8.896
					c0-0.106-0.011-0.21-0.023-0.316h0.023V88.624V62.942V8.487H16.739v54.455v25.682v55.383h0.023
					c-0.011,0.106-0.023,0.21-0.023,0.316C16.739,149.237,28.276,153.22,42.508,153.22z"/>
				<path opacity="0.6816" fill="#515151"  a:adobe-knockout="false" d="M42.508,153.186c14.209,0,25.725-3.981,25.725-8.895
					c0-0.106-0.011-0.21-0.023-0.316h0.023v-55.37V62.929V8.487H16.784v54.442v25.675v55.37h0.023
					c-0.01,0.106-0.023,0.21-0.023,0.316C16.784,149.204,28.301,153.186,42.508,153.186z"/>
				<path opacity="0.6766" fill="#525252"  a:adobe-knockout="false" d="M42.508,153.151c14.184,0,25.68-3.98,25.68-8.892
					c0-0.106-0.011-0.211-0.022-0.317h0.022V88.585V62.916V8.486h-51.36v54.43v25.669v55.357h0.023
					c-0.011,0.106-0.023,0.211-0.023,0.317C16.828,149.171,28.326,153.151,42.508,153.151z"/>
				<path opacity="0.6716" fill="#545454"  a:adobe-knockout="false" d="M42.508,153.118c14.16,0,25.636-3.98,25.636-8.891
					c0-0.106-0.011-0.211-0.023-0.316h0.023V88.566V62.903V8.486H16.872v54.417v25.663v55.345h0.023
					c-0.01,0.105-0.023,0.21-0.023,0.316C16.872,149.138,28.35,153.118,42.508,153.118z"/>
				<path opacity="0.6667" fill="#555555"  a:adobe-knockout="false" d="M42.508,153.084c14.135,0,25.592-3.979,25.592-8.889
					c0-0.106-0.011-0.21-0.023-0.316H68.1V88.547V62.89V8.485H16.917V62.89v25.657v55.332h0.023
					c-0.011,0.106-0.023,0.21-0.023,0.316C16.917,149.104,28.375,153.084,42.508,153.084z"/>
				<path opacity="0.6617" fill="#565656"  a:adobe-knockout="false" d="M42.508,153.05c14.111,0,25.547-3.979,25.547-8.887
					c0-0.106-0.011-0.21-0.022-0.316h0.022V88.527v-25.65V8.485H16.961v54.392v25.65v55.319h0.023
					c-0.011,0.106-0.023,0.21-0.023,0.316C16.961,149.071,28.399,153.05,42.508,153.05z"/>
				<path opacity="0.6567" fill="#585858"  a:adobe-knockout="false" d="M42.508,153.016c14.086,0,25.503-3.978,25.503-8.885
					c0-0.106-0.011-0.21-0.023-0.315h0.023V88.509V62.864V8.485H17.005v54.379v25.645v55.307h0.023
					c-0.01,0.105-0.023,0.209-0.023,0.315C17.005,149.038,28.423,153.016,42.508,153.016z"/>
				<path opacity="0.6517" fill="#595959"  a:adobe-knockout="false" d="M42.508,152.981c14.062,0,25.459-3.977,25.459-8.882
					c0-0.106-0.011-0.211-0.022-0.316h0.022V88.489V62.851V8.484H17.049v54.366v25.639v55.294h0.023
					c-0.011,0.105-0.023,0.21-0.023,0.316C17.049,149.005,28.448,152.981,42.508,152.981z"/>
				<path opacity="0.6468" fill="#5A5A5A"  a:adobe-knockout="false" d="M42.508,152.947c14.038,0,25.415-3.976,25.415-8.88
					c0-0.106-0.011-0.21-0.022-0.316h0.022V88.47V62.837V8.484H17.094v54.354V88.47v55.281h0.022
					c-0.01,0.106-0.022,0.21-0.022,0.316C17.094,148.972,28.472,152.947,42.508,152.947z"/>
				<path opacity="0.6418" fill="#5B5B5B"  a:adobe-knockout="false" d="M42.508,152.913c14.013,0,25.371-3.975,25.371-8.878
					c0-0.106-0.011-0.21-0.023-0.316h0.023V88.45V62.824V8.483H17.138v54.341V88.45v55.269h0.023
					c-0.011,0.106-0.023,0.21-0.023,0.316C17.138,148.938,28.497,152.913,42.508,152.913z"/>
				<path opacity="0.6368" fill="#5D5D5D"  a:adobe-knockout="false" d="M42.508,152.879c13.989,0,25.326-3.974,25.326-8.876
					c0-0.106-0.011-0.21-0.022-0.315h0.022V88.432V62.811V8.483H17.182v54.328v25.621v55.256h0.022
					c-0.01,0.105-0.022,0.209-0.022,0.315C17.182,148.905,28.521,152.879,42.508,152.879z"/>
				<path opacity="0.6318" fill="#5E5E5E"  a:adobe-knockout="false" d="M42.508,152.845c13.964,0,25.282-3.973,25.282-8.874
					c0-0.105-0.011-0.21-0.022-0.315h0.022V88.412V62.798V8.483H17.226v54.315v25.614v55.243h0.023
					c-0.01,0.105-0.023,0.21-0.023,0.315C17.226,148.872,28.545,152.845,42.508,152.845z"/>
				<path opacity="0.6269" fill="#5F5F5F"  a:adobe-knockout="false" d="M42.508,152.811c13.94,0,25.238-3.972,25.238-8.871
					c0-0.106-0.011-0.21-0.022-0.316h0.022v-55.23V62.785V8.482H17.271v54.303v25.607v55.23h0.023
					c-0.011,0.106-0.023,0.21-0.023,0.316C17.271,148.839,28.57,152.811,42.508,152.811z"/>
				<path opacity="0.6219" fill="#606060"  a:adobe-knockout="false" d="M42.508,152.777c13.916,0,25.193-3.972,25.193-8.87
					c0-0.106-0.011-0.21-0.022-0.316h0.022V88.374V62.772V8.482H17.315v54.29v25.602v55.217h0.022
					c-0.01,0.106-0.022,0.21-0.022,0.316C17.315,148.806,28.594,152.777,42.508,152.777z"/>
				<path opacity="0.6169" fill="#626262"  a:adobe-knockout="false" d="M42.508,152.743c13.891,0,25.149-3.971,25.149-8.868
					c0-0.106-0.011-0.21-0.022-0.315h0.022V88.354V62.759V8.481H17.359v54.277v25.596v55.205h0.023
					c-0.011,0.105-0.023,0.209-0.023,0.315C17.359,148.772,28.619,152.743,42.508,152.743z"/>
				<path opacity="0.6119" fill="#636363"  a:adobe-knockout="false" d="M42.508,152.709c13.867,0,25.105-3.97,25.105-8.866
					c0-0.106-0.011-0.21-0.022-0.315h0.022V88.335V62.746V8.481h-50.21v54.265v25.589v55.192h0.022
					c-0.01,0.105-0.022,0.209-0.022,0.315C17.403,148.739,28.643,152.709,42.508,152.709z"/>
				<path opacity="0.607" fill="#646464"  a:adobe-knockout="false" d="M42.508,152.675c13.842,0,25.061-3.969,25.061-8.864
					c0-0.105-0.011-0.21-0.022-0.315h0.022V88.316V62.732V8.481H17.448v54.251v25.584v55.179h0.022
					c-0.01,0.105-0.022,0.21-0.022,0.315C17.448,148.706,28.667,152.675,42.508,152.675z"/>
				<path opacity="0.602" fill="#656565"  a:adobe-knockout="false" d="M42.508,152.641c13.817,0,25.016-3.968,25.016-8.861
					c0-0.106-0.011-0.21-0.022-0.315h0.022V88.297V62.719V8.48H17.492v54.239v25.578v55.167h0.022
					c-0.01,0.105-0.022,0.209-0.022,0.315C17.492,148.673,28.692,152.641,42.508,152.641z"/>
				<path opacity="0.597" fill="#676767"  a:adobe-knockout="false" d="M42.508,152.606c13.793,0,24.972-3.967,24.972-8.859
					c0-0.106-0.011-0.21-0.022-0.315h0.022V88.277V62.706V8.48H17.536v54.226v25.571v55.154h0.022
					c-0.01,0.105-0.022,0.209-0.022,0.315C17.536,148.64,28.717,152.606,42.508,152.606z"/>
				<path opacity="0.592" fill="#686868"  a:adobe-knockout="false" d="M42.508,152.572c13.769,0,24.928-3.966,24.928-8.857
					c0-0.106-0.011-0.21-0.022-0.315h0.022V88.258V62.693V8.479H17.581v54.214v25.564v55.142h0.022
					c-0.01,0.105-0.022,0.209-0.022,0.315C17.581,148.606,28.741,152.572,42.508,152.572z"/>
				<path opacity="0.5871" fill="#696969"  a:adobe-knockout="false" d="M42.508,152.538c13.744,0,24.884-3.965,24.884-8.855
					c0-0.105-0.011-0.21-0.022-0.315h0.022V88.239V62.68V8.479H17.625V62.68v25.559v55.128h0.022
					c-0.01,0.105-0.022,0.21-0.022,0.315C17.625,148.573,28.766,152.538,42.508,152.538z"/>
				<path opacity="0.5821" fill="#6B6B6B"  a:adobe-knockout="false" d="M42.508,152.504c13.72,0,24.839-3.963,24.839-8.854
					c0-0.105-0.011-0.209-0.022-0.314h0.022V88.22V62.667V8.479H17.669v54.188V88.22v55.116h0.022
					c-0.01,0.105-0.022,0.209-0.022,0.314C17.669,148.541,28.79,152.504,42.508,152.504z"/>
				<path opacity="0.5771" fill="#6C6C6C"  a:adobe-knockout="false" d="M42.508,152.47c13.695,0,24.795-3.962,24.795-8.851
					c0-0.106-0.011-0.21-0.022-0.315h0.022V88.2V62.654V8.479h-49.59v54.175V88.2v55.104h0.022c-0.01,0.105-0.022,0.209-0.022,0.315
					C17.713,148.508,28.814,152.47,42.508,152.47z"/>
				<path opacity="0.5721" fill="#6D6D6D"  a:adobe-knockout="false" d="M42.508,152.437c13.671,0,24.751-3.962,24.751-8.85
					c0-0.106-0.011-0.21-0.022-0.315h0.022v-55.09V62.641V8.478H17.757v54.163v25.541v55.09h0.022
					c-0.01,0.105-0.022,0.209-0.022,0.315C17.757,148.475,28.839,152.437,42.508,152.437z"/>
				<path opacity="0.5672" fill="#6E6E6E"  a:adobe-knockout="false" d="M42.508,152.402c13.646,0,24.707-3.961,24.707-8.848
					c0-0.106-0.011-0.21-0.022-0.315h0.022V88.162V62.627V8.478H17.802v54.15v25.535v55.077h0.022
					c-0.01,0.105-0.022,0.209-0.022,0.315C17.802,148.441,28.863,152.402,42.508,152.402z"/>
				<path opacity="0.5622" fill="#707070"  a:adobe-knockout="false" d="M42.508,152.368c13.622,0,24.662-3.96,24.662-8.846
					c0-0.105-0.01-0.209-0.022-0.314h0.022V88.143V62.614V8.477H17.846v54.137v25.528v55.065h0.022
					c-0.01,0.105-0.022,0.209-0.022,0.314C17.846,148.408,28.888,152.368,42.508,152.368z"/>
				<path opacity="0.5572" fill="#717171"  a:adobe-knockout="false" d="M42.508,152.334c13.598,0,24.618-3.959,24.618-8.844
					c0-0.105-0.011-0.209-0.022-0.314h0.022V88.124V62.602V8.477H17.89v54.125v25.522v55.052h0.022
					c-0.01,0.105-0.022,0.209-0.022,0.314C17.89,148.375,28.912,152.334,42.508,152.334z"/>
				<path opacity="0.5522" fill="#727272"  a:adobe-knockout="false" d="M42.508,152.3c13.573,0,24.574-3.958,24.574-8.842
					c0-0.105-0.011-0.209-0.022-0.314h0.022V88.104V62.588V8.477H17.935v54.112v25.516v55.039h0.022
					c-0.01,0.105-0.022,0.209-0.022,0.314C17.935,148.342,28.937,152.3,42.508,152.3z"/>
				<path opacity="0.5473" fill="#737373"  a:adobe-knockout="false" d="M42.508,152.266c13.549,0,24.529-3.957,24.529-8.839
					c0-0.106-0.01-0.21-0.021-0.315h0.021V88.085v-25.51V8.476H17.979v54.099v25.51v55.026h0.022
					c-0.01,0.105-0.022,0.209-0.022,0.315C17.979,148.309,28.961,152.266,42.508,152.266z"/>
				<path opacity="0.5423" fill="#757575"  a:adobe-knockout="false" d="M42.508,152.231c13.524,0,24.485-3.956,24.485-8.837
					c0-0.105-0.011-0.209-0.022-0.314h0.022V88.065V62.562V8.476H18.023v54.086v25.503v55.015h0.022
					c-0.01,0.105-0.022,0.209-0.022,0.314C18.023,148.275,28.985,152.231,42.508,152.231z"/>
				<path opacity="0.5373" fill="#767676"  a:adobe-knockout="false" d="M42.508,152.197c13.5,0,24.441-3.955,24.441-8.835
					c0-0.105-0.01-0.209-0.022-0.314h0.022V88.047V62.549V8.475H18.067v54.074v25.498v55.001h0.022
					c-0.01,0.105-0.022,0.209-0.022,0.314C18.067,148.242,29.01,152.197,42.508,152.197z"/>
				<path opacity="0.5323" fill="#777777"  a:adobe-knockout="false" d="M42.508,152.163c13.475,0,24.396-3.954,24.396-8.833
					c0-0.105-0.01-0.209-0.021-0.314h0.021V88.027V62.536V8.475H18.111v54.061v25.492v54.988h0.022
					c-0.01,0.105-0.022,0.209-0.022,0.314C18.111,148.209,29.035,152.163,42.508,152.163z"/>
				<path opacity="0.5274" fill="#797979"  a:adobe-knockout="false" d="M42.508,152.129c13.451,0,24.353-3.953,24.353-8.831
					c0-0.105-0.011-0.209-0.022-0.313h0.022V88.008V62.522V8.474H18.156v54.048v25.485v54.977h0.022
					c-0.01,0.104-0.022,0.208-0.022,0.313C18.156,148.176,29.059,152.129,42.508,152.129z"/>
				<path opacity="0.5224" fill="#7A7A7A"  a:adobe-knockout="false" d="M42.508,152.096c13.426,0,24.308-3.953,24.308-8.829
					c0-0.105-0.01-0.21-0.021-0.314h0.021V87.989v-25.48V8.474H18.2v54.035v25.48v54.963h0.021c-0.01,0.104-0.021,0.209-0.021,0.314
					C18.2,148.143,29.083,152.096,42.508,152.096z"/>
				<path opacity="0.5174" fill="#7B7B7B"  a:adobe-knockout="false" d="M42.508,152.062c13.402,0,24.264-3.952,24.264-8.827
					c0-0.105-0.01-0.209-0.021-0.314h0.021V87.97V62.497V8.474H18.244v54.023V87.97v54.95h0.022
					c-0.01,0.105-0.022,0.209-0.022,0.314C18.244,148.109,29.108,152.062,42.508,152.062z"/>
				<path opacity="0.5124" fill="#7C7C7C"  a:adobe-knockout="false" d="M42.508,152.027c13.377,0,24.22-3.951,24.22-8.825
					c0-0.105-0.01-0.209-0.022-0.314h0.022V87.95V62.483V8.473H18.289v54.01V87.95v54.938h0.022
					c-0.01,0.105-0.022,0.209-0.022,0.314C18.289,148.076,29.132,152.027,42.508,152.027z"/>
				<path opacity="0.5075" fill="#7E7E7E"  a:adobe-knockout="false" d="M42.508,151.993c13.353,0,24.175-3.95,24.175-8.823
					c0-0.105-0.01-0.209-0.021-0.313h0.021V87.932V62.47V8.473H18.333V62.47v25.461v54.925h0.021
					c-0.01,0.104-0.021,0.208-0.021,0.313C18.333,148.043,29.157,151.993,42.508,151.993z"/>
				<path opacity="0.5025" fill="#7F7F7F"  a:adobe-knockout="false" d="M42.508,151.959c13.329,0,24.131-3.949,24.131-8.821
					c0-0.105-0.01-0.209-0.021-0.313h0.021V87.912V62.457V8.472H18.377v53.985v25.455v54.912h0.022
					c-0.01,0.104-0.022,0.208-0.022,0.313C18.377,148.01,29.181,151.959,42.508,151.959z"/>
				<path opacity="0.4975" fill="#808080"  a:adobe-knockout="false" d="M42.508,151.925c13.304,0,24.087-3.948,24.087-8.818
					c0-0.105-0.01-0.209-0.021-0.314h0.021V87.893V62.444V8.472H18.421v53.972v25.449v54.899h0.021
					c-0.01,0.105-0.021,0.209-0.021,0.314C18.421,147.977,29.206,151.925,42.508,151.925z"/>
				<path opacity="0.4925" fill="#818181"  a:adobe-knockout="false" d="M42.508,151.891c13.28,0,24.042-3.947,24.042-8.816
					c0-0.105-0.01-0.209-0.021-0.314h0.021V87.873V62.431V8.472H18.465v53.959v25.442v54.887h0.022
					c-0.01,0.105-0.022,0.209-0.022,0.314C18.465,147.943,29.23,151.891,42.508,151.891z"/>
				<path opacity="0.4876" fill="#838383"  a:adobe-knockout="false" d="M42.508,151.856c13.255,0,23.998-3.946,23.998-8.814
					c0-0.105-0.01-0.209-0.021-0.313h0.021V87.854V62.417V8.471H18.51v53.946v25.437v54.874h0.021
					c-0.01,0.104-0.021,0.208-0.021,0.313C18.51,147.91,29.254,151.856,42.508,151.856z"/>
				<path opacity="0.4826" fill="#848484"  a:adobe-knockout="false" d="M42.508,151.822c13.231,0,23.954-3.945,23.954-8.813
					c0-0.105-0.01-0.209-0.021-0.313h0.021V87.835V62.404V8.471H18.554v53.934v25.431v54.861h0.021
					c-0.01,0.104-0.021,0.208-0.021,0.313C18.554,147.877,29.279,151.822,42.508,151.822z"/>
				<path opacity="0.4776" fill="#858585"  a:adobe-knockout="false" d="M42.508,151.788c13.207,0,23.91-3.944,23.91-8.811
					c0-0.104-0.01-0.208-0.021-0.313h0.021V87.815V62.392V8.47h-47.82v53.921v25.424v54.849h0.022
					c-0.01,0.105-0.022,0.209-0.022,0.313C18.598,147.844,29.303,151.788,42.508,151.788z"/>
				<path opacity="0.4726" fill="#868686"  a:adobe-knockout="false" d="M42.508,151.755c13.182,0,23.865-3.944,23.865-8.809
					c0-0.105-0.01-0.209-0.021-0.314h0.021V87.797V62.378V8.47H18.643v53.908v25.418v54.835h0.021
					c-0.01,0.105-0.021,0.209-0.021,0.314C18.643,147.811,29.328,151.755,42.508,151.755z"/>
				<path opacity="0.4677" fill="#888888"  a:adobe-knockout="false" d="M42.508,151.721c13.158,0,23.821-3.943,23.821-8.807
					c0-0.105-0.01-0.209-0.021-0.313h0.021V87.777V62.365V8.47H18.687v53.896v25.412v54.823h0.021
					c-0.01,0.104-0.021,0.208-0.021,0.313C18.687,147.777,29.352,151.721,42.508,151.721z"/>
				<path opacity="0.4627" fill="#898989"  a:adobe-knockout="false" d="M42.508,151.687c13.133,0,23.777-3.942,23.777-8.805
					c0-0.105-0.01-0.209-0.021-0.313h0.021V87.758V62.352V8.469H18.731v53.883v25.406v54.811h0.021
					c-0.01,0.104-0.021,0.208-0.021,0.313C18.731,147.744,29.377,151.687,42.508,151.687z"/>
				<path opacity="0.4577" fill="#8A8A8A"  a:adobe-knockout="false" d="M42.508,151.652c13.108,0,23.732-3.941,23.732-8.803
					c0-0.105-0.01-0.209-0.021-0.313h0.021V87.739v-25.4V8.469H18.775v53.87v25.4v54.797h0.021c-0.01,0.104-0.021,0.208-0.021,0.313
					C18.775,147.711,29.401,151.652,42.508,151.652z"/>
				<path opacity="0.4527" fill="#8C8C8C"  a:adobe-knockout="false" d="M42.508,151.618c13.084,0,23.688-3.94,23.688-8.801
					c0-0.104-0.01-0.208-0.021-0.313h0.021V87.72V62.326V8.468H18.82v53.857V87.72v54.785h0.021
					c-0.01,0.104-0.021,0.208-0.021,0.313C18.82,147.678,29.426,151.618,42.508,151.618z"/>
				<path opacity="0.4478" fill="#8D8D8D"  a:adobe-knockout="false" d="M42.508,151.584c13.06,0,23.644-3.939,23.644-8.798
					c0-0.105-0.01-0.209-0.021-0.313h0.021V87.7V62.313V8.468H18.864v53.845V87.7v54.772h0.021c-0.01,0.104-0.021,0.208-0.021,0.313
					C18.864,147.645,29.45,151.584,42.508,151.584z"/>
				<path opacity="0.4428" fill="#8E8E8E"  a:adobe-knockout="false" d="M42.508,151.55c13.035,0,23.6-3.938,23.6-8.796
					c0-0.105-0.01-0.209-0.021-0.313h0.021v-54.76V62.299V8.468h-47.2v53.832v25.381v54.76h0.021
					c-0.01,0.104-0.021,0.208-0.021,0.313C18.908,147.611,29.475,151.55,42.508,151.55z"/>
				<path opacity="0.4378" fill="#8F8F8F"  a:adobe-knockout="false" d="M42.508,151.516c13.011,0,23.556-3.938,23.556-8.794
					c0-0.105-0.01-0.209-0.021-0.313h0.021V87.662V62.287V8.467H18.952v53.819v25.375v54.746h0.021
					c-0.01,0.104-0.021,0.208-0.021,0.313C18.952,147.578,29.499,151.516,42.508,151.516z"/>
				<path opacity="0.4328" fill="#919191"  a:adobe-knockout="false" d="M42.508,151.481c12.986,0,23.511-3.937,23.511-8.792
					c0-0.104-0.01-0.208-0.021-0.313h0.021V87.643V62.273V8.467H18.997v53.807v25.369v54.734h0.021
					c-0.01,0.104-0.021,0.208-0.021,0.313C18.997,147.545,29.523,151.481,42.508,151.481z"/>
				<path opacity="0.4279" fill="#929292"  a:adobe-knockout="false" d="M42.508,151.447c12.962,0,23.467-3.936,23.467-8.79
					c0-0.104-0.01-0.208-0.021-0.313h0.021V87.623V62.26V8.466H19.041V62.26v25.363v54.722h0.021
					c-0.01,0.104-0.021,0.208-0.021,0.313C19.041,147.512,29.548,151.447,42.508,151.447z"/>
				<path opacity="0.4229" fill="#939393"  a:adobe-knockout="false" d="M42.508,151.414c12.938,0,23.423-3.936,23.423-8.788
					c0-0.105-0.01-0.209-0.021-0.313h0.021V87.604V62.247V8.466H19.085v53.781v25.357v54.708h0.021
					c-0.01,0.104-0.021,0.208-0.021,0.313C19.085,147.479,29.572,151.414,42.508,151.414z"/>
				<path opacity="0.4179" fill="#949494"  a:adobe-knockout="false" d="M42.508,151.38c12.913,0,23.378-3.934,23.378-8.786
					c0-0.105-0.01-0.209-0.021-0.313h0.021V87.585V62.234V8.466H19.129v53.768v25.351v54.695h0.021
					c-0.01,0.104-0.021,0.208-0.021,0.313C19.129,147.446,29.597,151.38,42.508,151.38z"/>
				<path opacity="0.4129" fill="#969696"  a:adobe-knockout="false" d="M42.508,151.346c12.889,0,23.334-3.933,23.334-8.784
					c0-0.105-0.01-0.208-0.021-0.313h0.021V87.565V62.221V8.465H19.174v53.755v25.345v54.684h0.021
					c-0.01,0.104-0.021,0.207-0.021,0.313C19.174,147.413,29.621,151.346,42.508,151.346z"/>
				<path opacity="0.408" fill="#979797"  a:adobe-knockout="false" d="M42.508,151.312c12.864,0,23.29-3.932,23.29-8.782
					c0-0.104-0.01-0.208-0.021-0.313h0.021v-54.67V62.208V8.465H19.218v53.743v25.339v54.67h0.021
					c-0.009,0.104-0.021,0.208-0.021,0.313C19.218,147.38,29.646,151.312,42.508,151.312z"/>
				<path opacity="0.403" fill="#989898"  a:adobe-knockout="false" d="M42.508,151.277c12.84,0,23.246-3.931,23.246-8.78
					c0-0.104-0.01-0.208-0.021-0.313h0.021V87.527V62.195V8.464H19.262v53.73v25.333v54.657h0.021
					c-0.01,0.104-0.021,0.208-0.021,0.313C19.262,147.347,29.67,151.277,42.508,151.277z"/>
				<path opacity="0.398" fill="#9A9A9A"  a:adobe-knockout="false" d="M42.508,151.243c12.815,0,23.202-3.93,23.202-8.778
					c0-0.104-0.01-0.208-0.021-0.312h0.021V87.508V62.182V8.464H19.307v53.718v25.326v54.646h0.021
					c-0.01,0.104-0.021,0.207-0.021,0.312C19.307,147.313,29.694,151.243,42.508,151.243z"/>
				<path opacity="0.393" fill="#9B9B9B"  a:adobe-knockout="false" d="M42.508,151.209c12.791,0,23.157-3.929,23.157-8.775
					c0-0.105-0.01-0.208-0.021-0.313h0.021V87.488v-25.32V8.463H19.351v53.705v25.32v54.633h0.021
					c-0.01,0.104-0.021,0.207-0.021,0.313C19.351,147.28,29.719,151.209,42.508,151.209z"/>
				<path opacity="0.3881" fill="#9C9C9C"  a:adobe-knockout="false" d="M42.508,151.175c12.766,0,23.113-3.928,23.113-8.773
					c0-0.104-0.01-0.208-0.021-0.313h0.021V87.47V62.155V8.463H19.395v53.692V87.47v54.619h0.021
					c-0.01,0.104-0.021,0.208-0.021,0.313C19.395,147.247,29.744,151.175,42.508,151.175z"/>
				<path opacity="0.3831" fill="#9D9D9D"  a:adobe-knockout="false" d="M42.508,151.141c12.742,0,23.069-3.927,23.069-8.771
					c0-0.104-0.01-0.208-0.021-0.313h0.021V87.45V62.142V8.463H19.439v53.679V87.45v54.606h0.021
					c-0.009,0.104-0.021,0.208-0.021,0.313C19.439,147.214,29.768,151.141,42.508,151.141z"/>
				<path opacity="0.3781" fill="#9F9F9F"  a:adobe-knockout="false" d="M42.508,151.106c12.717,0,23.024-3.926,23.024-8.77
					c0-0.104-0.01-0.208-0.021-0.312h0.021V87.431V62.129V8.462H19.483v53.667v25.302v54.595h0.021
					c-0.01,0.104-0.021,0.207-0.021,0.312C19.483,147.181,29.792,151.106,42.508,151.106z"/>
				<path opacity="0.3731" fill="#A0A0A0"  a:adobe-knockout="false" d="M42.508,151.073c12.693,0,22.98-3.926,22.98-8.769
					c0-0.104-0.009-0.208-0.021-0.312h0.021V87.412V62.116V8.462h-45.96v53.654v25.296v54.581h0.021
					c-0.009,0.104-0.021,0.207-0.021,0.312C19.528,147.147,29.817,151.073,42.508,151.073z"/>
				<path opacity="0.3682" fill="#A1A1A1"  a:adobe-knockout="false" d="M42.508,151.039c12.668,0,22.936-3.925,22.936-8.766
					c0-0.105-0.01-0.208-0.021-0.313h0.021V87.393v-25.29V8.461H19.572v53.641v25.29v54.568h0.021
					c-0.01,0.104-0.021,0.207-0.021,0.313C19.572,147.114,29.841,151.039,42.508,151.039z"/>
				<path opacity="0.3632" fill="#A2A2A2"  a:adobe-knockout="false" d="M42.508,151.005c12.644,0,22.892-3.924,22.892-8.764
					c0-0.104-0.01-0.208-0.021-0.313H65.4V87.373V62.09V8.461H19.616V62.09v25.283v54.556h0.021
					c-0.01,0.104-0.021,0.208-0.021,0.313C19.616,147.081,29.866,151.005,42.508,151.005z"/>
				<path opacity="0.3582" fill="#A4A4A4"  a:adobe-knockout="false" d="M42.508,150.971c12.62,0,22.847-3.923,22.847-8.762
					c0-0.104-0.009-0.208-0.02-0.312h0.02V87.354V62.077V8.461H19.661v53.616v25.278v54.543h0.021
					c-0.009,0.104-0.021,0.207-0.021,0.312C19.661,147.048,29.89,150.971,42.508,150.971z"/>
				<path opacity="0.3532" fill="#A5A5A5"  a:adobe-knockout="false" d="M42.508,150.937c12.595,0,22.803-3.922,22.803-8.76
					c0-0.104-0.01-0.208-0.021-0.312h0.021v-54.53V62.063V8.46H19.705v53.603v25.271v54.53h0.021
					c-0.01,0.104-0.021,0.207-0.021,0.312C19.705,147.015,29.915,150.937,42.508,150.937z"/>
				<path opacity="0.3483" fill="#A6A6A6"  a:adobe-knockout="false" d="M42.508,150.902c12.571,0,22.759-3.921,22.759-8.758
					c0-0.104-0.009-0.207-0.021-0.312h0.021V87.315V62.05V8.46H19.749v53.59v25.265v54.518h0.021
					c-0.009,0.104-0.021,0.207-0.021,0.312C19.749,146.981,29.939,150.902,42.508,150.902z"/>
				<path opacity="0.3433" fill="#A7A7A7"  a:adobe-knockout="false" d="M42.508,150.868c12.546,0,22.714-3.92,22.714-8.755
					c0-0.104-0.009-0.208-0.02-0.313h0.02V87.296V62.037V8.459H19.793v53.578v25.259v54.505h0.021
					c-0.01,0.104-0.021,0.208-0.021,0.313C19.793,146.948,29.963,150.868,42.508,150.868z"/>
				<path opacity="0.3383" fill="#A9A9A9"  a:adobe-knockout="false" d="M42.508,150.834c12.522,0,22.67-3.919,22.67-8.753
					c0-0.104-0.01-0.208-0.021-0.312h0.021V87.277V62.024V8.459H19.837v53.565v25.253v54.492h0.021
					c-0.009,0.104-0.021,0.207-0.021,0.312C19.837,146.915,29.988,150.834,42.508,150.834z"/>
				<path opacity="0.3333" fill="#AAAAAA"  a:adobe-knockout="false" d="M42.508,150.8c12.498,0,22.626-3.918,22.626-8.751
					c0-0.104-0.009-0.208-0.02-0.312h0.02V87.258V62.011V8.459H19.882v53.552v25.247v54.479h0.021
					c-0.009,0.104-0.021,0.207-0.021,0.312C19.882,146.882,30.012,150.8,42.508,150.8z"/>
				<path opacity="0.3284" fill="#ABABAB"  a:adobe-knockout="false" d="M42.508,150.766c12.473,0,22.582-3.917,22.582-8.749
					c0-0.104-0.009-0.207-0.02-0.312h0.02V87.238V61.998V8.458H19.926v53.539v25.241v54.467h0.021
					c-0.01,0.104-0.021,0.207-0.021,0.312C19.926,146.849,30.037,150.766,42.508,150.766z"/>
				<path opacity="0.3234" fill="#ADADAD"  a:adobe-knockout="false" d="M42.508,150.732c12.449,0,22.538-3.917,22.538-8.748
					c0-0.104-0.01-0.207-0.02-0.311h0.02V87.22V61.985V8.458H19.97v53.527V87.22v54.454h0.021c-0.009,0.104-0.021,0.206-0.021,0.311
					C19.97,146.815,30.061,150.732,42.508,150.732z"/>
				<path opacity="0.3184" fill="#AEAEAE"  a:adobe-knockout="false" d="M42.508,150.698c12.424,0,22.493-3.916,22.493-8.745
					c0-0.104-0.009-0.208-0.02-0.312h0.02V87.2V61.972V8.458H20.015v53.514V87.2v54.441h0.021c-0.01,0.104-0.021,0.207-0.021,0.312
					C20.015,146.782,30.086,150.698,42.508,150.698z"/>
				<path opacity="0.3134" fill="#AFAFAF"  a:adobe-knockout="false" d="M42.508,150.664c12.399,0,22.449-3.915,22.449-8.743
					c0-0.104-0.009-0.208-0.02-0.312h0.02V87.181V61.958V8.457H20.059v53.501v25.222v54.429h0.02
					c-0.009,0.104-0.02,0.207-0.02,0.312C20.059,146.749,30.11,150.664,42.508,150.664z"/>
				<path opacity="0.3085" fill="#B0B0B0"  a:adobe-knockout="false" d="M42.508,150.63c12.375,0,22.405-3.914,22.405-8.741
					c0-0.104-0.009-0.207-0.02-0.312h0.02V87.161V61.945V8.457h-44.81v53.488v25.216v54.416h0.021
					c-0.009,0.104-0.021,0.207-0.021,0.312C20.103,146.716,30.135,150.63,42.508,150.63z"/>
				<path opacity="0.3035" fill="#B2B2B2"  a:adobe-knockout="false" d="M42.508,150.596c12.351,0,22.36-3.913,22.36-8.739
					c0-0.104-0.009-0.207-0.02-0.311h0.02V87.143v-25.21V8.457H20.147v53.476v25.21v54.403h0.02c-0.009,0.104-0.02,0.206-0.02,0.311
					C20.147,146.683,30.159,150.596,42.508,150.596z"/>
				<path opacity="0.2985" fill="#B3B3B3"  a:adobe-knockout="false" d="M42.508,150.562c12.326,0,22.316-3.912,22.316-8.737
					c0-0.104-0.009-0.207-0.02-0.311h0.02V87.123V61.919V8.456H20.191v53.463v25.204v54.391h0.021
					c-0.009,0.104-0.021,0.207-0.021,0.311C20.191,146.649,30.184,150.562,42.508,150.562z"/>
				<path opacity="0.2935" fill="#B4B4B4"  a:adobe-knockout="false" d="M42.508,150.527c12.302,0,22.272-3.911,22.272-8.734
					c0-0.104-0.009-0.208-0.02-0.312h0.02V87.104V61.906V8.456H20.236v53.45v25.198v54.378h0.021
					c-0.01,0.104-0.021,0.207-0.021,0.312C20.236,146.616,30.208,150.527,42.508,150.527z"/>
				<path opacity="0.2886" fill="#B5B5B5"  a:adobe-knockout="false" d="M42.508,150.493c12.277,0,22.228-3.91,22.228-8.732
					c0-0.104-0.009-0.208-0.02-0.312h0.02V87.085V61.893V8.455H20.28v53.438v25.192v54.364h0.02c-0.009,0.104-0.02,0.207-0.02,0.312
					C20.28,146.583,30.232,150.493,42.508,150.493z"/>
				<path opacity="0.2836" fill="#B7B7B7"  a:adobe-knockout="false" d="M42.508,150.459c12.253,0,22.183-3.909,22.183-8.73
					c0-0.104-0.009-0.207-0.02-0.311h0.02V87.065V61.88V8.455H20.324V61.88v25.186v54.353h0.021
					c-0.009,0.104-0.021,0.206-0.021,0.311C20.324,146.55,30.257,150.459,42.508,150.459z"/>
				<path opacity="0.2786" fill="#B8B8B8"  a:adobe-knockout="false" d="M42.508,150.425c12.229,0,22.139-3.908,22.139-8.729
					c0-0.104-0.009-0.207-0.02-0.311h0.02v-54.34V61.867V8.455H20.369v53.412v25.179v54.34h0.02c-0.009,0.104-0.02,0.206-0.02,0.311
					C20.369,146.517,30.281,150.425,42.508,150.425z"/>
				<path opacity="0.2736" fill="#B9B9B9"  a:adobe-knockout="false" d="M42.508,150.392c12.204,0,22.095-3.908,22.095-8.728
					c0-0.104-0.009-0.207-0.02-0.311h0.02V87.027V61.854V8.454h-44.19v53.399v25.174v54.326h0.02
					c-0.009,0.104-0.02,0.207-0.02,0.311C20.413,146.483,30.306,150.392,42.508,150.392z"/>
				<path opacity="0.2687" fill="#BABABA"  a:adobe-knockout="false" d="M42.508,150.357c12.18,0,22.05-3.907,22.05-8.725
					c0-0.104-0.009-0.208-0.02-0.312h0.02V87.008V61.84V8.454H20.457V61.84v25.167v54.313h0.02c-0.009,0.104-0.02,0.207-0.02,0.312
					C20.457,146.45,30.33,150.357,42.508,150.357z"/>
				<path opacity="0.2637" fill="#BCBCBC"  a:adobe-knockout="false" d="M42.508,150.323c12.155,0,22.006-3.906,22.006-8.723
					c0-0.104-0.009-0.207-0.02-0.311h0.02V86.988V61.827V8.453H20.501v53.374v25.161v54.302h0.02
					c-0.009,0.104-0.02,0.206-0.02,0.311C20.501,146.417,30.354,150.323,42.508,150.323z"/>
				<path opacity="0.2587" fill="#BDBDBD"  a:adobe-knockout="false" d="M42.508,150.289c12.131,0,21.962-3.905,21.962-8.721
					c0-0.104-0.009-0.207-0.02-0.311h0.02V86.969V61.814V8.453H20.546v53.361v25.155v54.289h0.02
					c-0.009,0.104-0.02,0.206-0.02,0.311C20.546,146.384,30.379,150.289,42.508,150.289z"/>
				<path opacity="0.2537" fill="#BEBEBE"  a:adobe-knockout="false" d="M42.508,150.255c12.106,0,21.918-3.904,21.918-8.719
					c0-0.104-0.009-0.207-0.02-0.311h0.02V86.95V61.801V8.453H20.59v53.348V86.95v54.275h0.02c-0.009,0.104-0.02,0.207-0.02,0.311
					C20.59,146.351,30.403,150.255,42.508,150.255z"/>
				<path opacity="0.2488" fill="#C0C0C0"  a:adobe-knockout="false" d="M42.508,150.221c12.082,0,21.874-3.902,21.874-8.717
					c0-0.104-0.009-0.207-0.02-0.31h0.02V86.931V61.788V8.452H20.634v53.336v25.143v54.264h0.02c-0.009,0.103-0.02,0.206-0.02,0.31
					C20.634,146.318,30.428,150.221,42.508,150.221z"/>
				<path opacity="0.2438" fill="#C1C1C1"  a:adobe-knockout="false" d="M42.508,150.187c12.057,0,21.829-3.901,21.829-8.715
					c0-0.104-0.009-0.206-0.02-0.31h0.02V86.911V61.775V8.452H20.679v53.323v25.136v54.251h0.02c-0.009,0.104-0.02,0.206-0.02,0.31
					C20.679,146.285,30.453,150.187,42.508,150.187z"/>
				<path opacity="0.2388" fill="#C2C2C2"  a:adobe-knockout="false" d="M42.508,150.152c12.033,0,21.785-3.9,21.785-8.712
					c0-0.104-0.009-0.207-0.02-0.311h0.02V86.893V61.762V8.451H20.723v53.311v25.131v54.237h0.02
					c-0.009,0.104-0.02,0.206-0.02,0.311C20.723,146.252,30.477,150.152,42.508,150.152z"/>
				<path opacity="0.2338" fill="#C3C3C3"  a:adobe-knockout="false" d="M42.508,150.118c12.008,0,21.741-3.899,21.741-8.71
					c0-0.104-0.009-0.207-0.02-0.311h0.02V86.873V61.749V8.451H20.767v53.298v25.125v54.225h0.02
					c-0.009,0.104-0.02,0.206-0.02,0.311C20.767,146.219,30.501,150.118,42.508,150.118z"/>
				<path opacity="0.2289" fill="#C5C5C5"  a:adobe-knockout="false" d="M42.508,150.084c11.984,0,21.696-3.898,21.696-8.708
					c0-0.104-0.009-0.207-0.019-0.31h0.019V86.854V61.735V8.451H20.811v53.285v25.118v54.213h0.02
					c-0.009,0.103-0.02,0.206-0.02,0.31C20.811,146.186,30.526,150.084,42.508,150.084z"/>
				<path opacity="0.2239" fill="#C6C6C6"  a:adobe-knockout="false" d="M42.508,150.051c11.959,0,21.652-3.898,21.652-8.707
					c0-0.104-0.009-0.207-0.02-0.31h0.02V86.835V61.722V8.45H20.855v53.272v25.113v54.199h0.02c-0.009,0.103-0.02,0.206-0.02,0.31
					C20.855,146.152,30.55,150.051,42.508,150.051z"/>
				<path opacity="0.2189" fill="#C7C7C7"  a:adobe-knockout="false" d="M42.508,150.017c11.935,0,21.608-3.897,21.608-8.705
					c0-0.104-0.009-0.206-0.02-0.31h0.02V86.815V61.709V8.45H20.9v53.259v25.106v54.187h0.02c-0.009,0.104-0.02,0.206-0.02,0.31
					C20.9,146.119,30.575,150.017,42.508,150.017z"/>
				<path opacity="0.2139" fill="#C8C8C8"  a:adobe-knockout="false" d="M42.508,149.982c11.911,0,21.563-3.896,21.563-8.702
					c0-0.104-0.009-0.207-0.019-0.311h0.019V86.796v-25.1V8.449H20.944v53.247v25.1v54.174h0.02c-0.009,0.104-0.02,0.206-0.02,0.311
					C20.944,146.086,30.599,149.982,42.508,149.982z"/>
				<path opacity="0.209" fill="#CACACA"  a:adobe-knockout="false" d="M42.508,149.948c11.886,0,21.52-3.896,21.52-8.7
					c0-0.104-0.009-0.207-0.02-0.31h0.02V86.776V61.683V8.449h-43.04v53.234v25.093v54.162h0.02c-0.009,0.103-0.02,0.206-0.02,0.31
					C20.988,146.053,30.624,149.948,42.508,149.948z"/>
				<path opacity="0.204" fill="#CBCBCB"  a:adobe-knockout="false" d="M42.508,149.914c11.862,0,21.475-3.895,21.475-8.698
					c0-0.104-0.009-0.207-0.019-0.31h0.019V86.758V61.67V8.448H21.033V61.67v25.088v54.148h0.02c-0.009,0.103-0.02,0.206-0.02,0.31
					C21.033,146.02,30.648,149.914,42.508,149.914z"/>
				<path opacity="0.199" fill="#CCCCCC"  a:adobe-knockout="false" d="M42.508,149.88c11.837,0,21.431-3.894,21.431-8.696
					c0-0.104-0.009-0.206-0.019-0.31h0.019V86.738V61.657V8.448H21.077v53.208v25.082v54.136h0.02
					c-0.009,0.104-0.02,0.206-0.02,0.31C21.077,145.986,30.672,149.88,42.508,149.88z"/>
				<path opacity="0.194" fill="#CECECE"  a:adobe-knockout="false" d="M42.508,149.846c11.813,0,21.387-3.893,21.387-8.694
					c0-0.104-0.009-0.206-0.019-0.309h0.019V86.719V61.644V8.448H21.121v53.196v25.075v54.124h0.02
					c-0.009,0.103-0.02,0.205-0.02,0.309C21.121,145.953,30.697,149.846,42.508,149.846z"/>
				<path opacity="0.1891" fill="#CFCFCF"  a:adobe-knockout="false" d="M42.508,149.812c11.789,0,21.342-3.892,21.342-8.691
					c0-0.104-0.009-0.207-0.019-0.31h0.019V86.7V61.63V8.447H21.166V61.63V86.7v54.11h0.019c-0.009,0.103-0.019,0.205-0.019,0.31
					C21.166,145.92,30.721,149.812,42.508,149.812z"/>
				<path opacity="0.1841" fill="#D0D0D0"  a:adobe-knockout="false" d="M42.508,149.777c11.764,0,21.298-3.891,21.298-8.689
					c0-0.104-0.009-0.207-0.019-0.31h0.019V86.681V61.617V8.447H21.209v53.17v25.063v54.098h0.02c-0.009,0.103-0.02,0.206-0.02,0.31
					C21.209,145.887,30.746,149.777,42.508,149.777z"/>
				<path opacity="0.1791" fill="#D1D1D1"  a:adobe-knockout="false" d="M42.508,149.743c11.74,0,21.254-3.89,21.254-8.688
					c0-0.104-0.009-0.206-0.019-0.31h0.019V86.661V61.604V8.446H21.254v53.158v25.057v54.085h0.02
					c-0.009,0.104-0.02,0.206-0.02,0.31C21.254,145.854,30.77,149.743,42.508,149.743z"/>
				<path opacity="0.1741" fill="#D3D3D3"  a:adobe-knockout="false" d="M42.508,149.71c11.715,0,21.209-3.89,21.209-8.687
					c0-0.104-0.009-0.206-0.019-0.309h0.019V86.643V61.591V8.446H21.298v53.145v25.052v54.072h0.019
					c-0.009,0.103-0.019,0.205-0.019,0.309C21.298,145.82,30.795,149.71,42.508,149.71z"/>
				<path opacity="0.1692" fill="#D4D4D4"  a:adobe-knockout="false" d="M42.508,149.676c11.69,0,21.165-3.889,21.165-8.685
					c0-0.104-0.008-0.206-0.019-0.309h0.019v-54.06V61.578V8.446H21.342v53.132v25.045v54.06h0.02
					c-0.009,0.103-0.02,0.205-0.02,0.309C21.342,145.787,30.819,149.676,42.508,149.676z"/>
				<path opacity="0.1642" fill="#D5D5D5"  a:adobe-knockout="false" d="M42.508,149.642c11.666,0,21.121-3.888,21.121-8.682
					c0-0.104-0.009-0.207-0.019-0.31h0.019V86.604V61.565V8.445H21.387v53.12v25.039v54.047h0.019
					c-0.009,0.103-0.019,0.206-0.019,0.31C21.387,145.754,30.844,149.642,42.508,149.642z"/>
				<path opacity="0.1592" fill="#D6D6D6"  a:adobe-knockout="false" d="M42.508,149.607c11.642,0,21.077-3.887,21.077-8.68
					c0-0.104-0.009-0.206-0.019-0.31h0.019V86.584V61.552V8.445H21.431v53.107v25.032v54.034h0.02
					c-0.009,0.104-0.02,0.206-0.02,0.31C21.431,145.721,30.868,149.607,42.508,149.607z"/>
				<path opacity="0.1542" fill="#D8D8D8"  a:adobe-knockout="false" d="M42.508,149.573c11.617,0,21.032-3.886,21.032-8.678
					c0-0.104-0.008-0.206-0.019-0.309h0.019V86.565V61.539V8.444H21.475v53.094v25.027v54.021h0.019
					c-0.009,0.103-0.019,0.205-0.019,0.309C21.475,145.688,30.893,149.573,42.508,149.573z"/>
				<path opacity="0.1493" fill="#D9D9D9"  a:adobe-knockout="false" d="M42.508,149.539c11.593,0,20.988-3.885,20.988-8.676
					c0-0.104-0.009-0.206-0.019-0.309h0.019V86.546V61.525V8.444H21.52v53.082v25.021v54.009h0.019
					c-0.009,0.103-0.019,0.205-0.019,0.309C21.52,145.654,30.917,149.539,42.508,149.539z"/>
				<path opacity="0.1443" fill="#DADADA"  a:adobe-knockout="false" d="M42.508,149.505c11.568,0,20.944-3.884,20.944-8.674
					c0-0.103-0.008-0.206-0.019-0.309h0.019V86.526V61.512V8.444H21.563v53.068v25.014v53.996h0.02
					c-0.009,0.103-0.02,0.206-0.02,0.309C21.563,145.621,30.941,149.505,42.508,149.505z"/>
				<path opacity="0.1393" fill="#DBDBDB"  a:adobe-knockout="false" d="M42.508,149.471c11.544,0,20.899-3.883,20.899-8.671
					c0-0.104-0.008-0.207-0.019-0.31h0.019V86.508V61.499V8.443h-41.8v53.056v25.009v53.982h0.019
					c-0.009,0.103-0.019,0.206-0.019,0.31C21.608,145.588,30.966,149.471,42.508,149.471z"/>
				<path opacity="0.1343" fill="#DDDDDD"  a:adobe-knockout="false" d="M42.508,149.437c11.52,0,20.855-3.882,20.855-8.669
					c0-0.104-0.009-0.206-0.019-0.309h0.019V86.488V61.486V8.443H21.652v53.043v25.002v53.971h0.019
					c-0.009,0.103-0.019,0.205-0.019,0.309C21.652,145.555,30.99,149.437,42.508,149.437z"/>
				<path opacity="0.1294" fill="#DEDEDE"  a:adobe-knockout="false" d="M42.508,149.402c11.495,0,20.811-3.881,20.811-8.667
					c0-0.104-0.008-0.206-0.019-0.309h0.019V86.469V61.473V8.442H21.696v53.031v24.996v53.958h0.019
					c-0.009,0.103-0.019,0.205-0.019,0.309C21.696,145.521,31.015,149.402,42.508,149.402z"/>
				<path opacity="0.1244" fill="#DFDFDF"  a:adobe-knockout="false" d="M42.508,149.369c11.471,0,20.767-3.881,20.767-8.666
					c0-0.104-0.008-0.206-0.019-0.309h0.019V86.45V61.46V8.442H21.741V61.46v24.99v53.944h0.019
					c-0.009,0.103-0.019,0.205-0.019,0.309C21.741,145.488,31.039,149.369,42.508,149.369z"/>
				<path opacity="0.1194" fill="#E1E1E1"  a:adobe-knockout="false" d="M42.508,149.335c11.446,0,20.723-3.88,20.723-8.664
					c0-0.103-0.008-0.206-0.019-0.308h0.019V86.431V61.447V8.442H21.785v53.005v24.984v53.933h0.019
					c-0.008,0.102-0.019,0.205-0.019,0.308C21.785,145.455,31.063,149.335,42.508,149.335z"/>
				<path opacity="0.1144" fill="#E2E2E2"  a:adobe-knockout="false" d="M42.508,149.301c11.422,0,20.678-3.879,20.678-8.661
					c0-0.104-0.008-0.206-0.019-0.309h0.019v-53.92V61.434V8.441H21.829v52.992v24.978v53.92h0.019
					c-0.009,0.103-0.019,0.205-0.019,0.309C21.829,145.422,31.088,149.301,42.508,149.301z"/>
				<path opacity="0.1095" fill="#E3E3E3"  a:adobe-knockout="false" d="M42.508,149.267c11.397,0,20.634-3.878,20.634-8.659
					c0-0.104-0.008-0.206-0.018-0.309h0.018V86.392V61.42V8.441H21.874V61.42v24.971v53.907h0.019
					c-0.009,0.103-0.019,0.205-0.019,0.309C21.874,145.389,31.112,149.267,42.508,149.267z"/>
				<path opacity="0.1045" fill="#E4E4E4"  a:adobe-knockout="false" d="M42.508,149.232c11.373,0,20.59-3.877,20.59-8.657
					c0-0.104-0.008-0.206-0.019-0.309h0.019V86.373V61.407V8.44h-41.18v52.967v24.966v53.894h0.019
					c-0.009,0.103-0.019,0.205-0.019,0.309C21.918,145.355,31.137,149.232,42.508,149.232z"/>
				<path opacity="0.0995" fill="#E6E6E6"  a:adobe-knockout="false" d="M42.508,149.198c11.348,0,20.545-3.876,20.545-8.655
					c0-0.103-0.008-0.206-0.018-0.308h0.018V86.354V61.394V8.44H21.962v52.954v24.959v53.882h0.019
					c-0.009,0.102-0.019,0.205-0.019,0.308C21.962,145.322,31.162,149.198,42.508,149.198z"/>
				<path opacity="0.0945" fill="#E7E7E7"  a:adobe-knockout="false" d="M42.508,149.164c11.324,0,20.501-3.875,20.501-8.653
					c0-0.103-0.008-0.205-0.018-0.308h0.018V86.334V61.381V8.44H22.006v52.941v24.953v53.869h0.019
					c-0.008,0.103-0.019,0.205-0.019,0.308C22.006,145.289,31.186,149.164,42.508,149.164z"/>
				<path opacity="0.0896" fill="#E8E8E8"  a:adobe-knockout="false" d="M42.508,149.13c11.299,0,20.457-3.874,20.457-8.65
					c0-0.104-0.008-0.206-0.019-0.309h0.019V86.315V61.368V8.439H22.05v52.929v24.947v53.855h0.019
					c-0.009,0.103-0.019,0.205-0.019,0.309C22.05,145.256,31.21,149.13,42.508,149.13z"/>
				<path opacity="0.0846" fill="#E9E9E9"  a:adobe-knockout="false" d="M42.508,149.096c11.275,0,20.413-3.873,20.413-8.648
					c0-0.104-0.008-0.206-0.018-0.309h0.018V86.296V61.355V8.439H22.095v52.916v24.941v53.843h0.019
					c-0.008,0.103-0.019,0.205-0.019,0.309C22.095,145.223,31.235,149.096,42.508,149.096z"/>
				<path opacity="0.0796" fill="#EBEBEB"  a:adobe-knockout="false" d="M42.508,149.062c11.25,0,20.369-3.871,20.369-8.646
					c0-0.104-0.008-0.206-0.019-0.308h0.019V86.276V61.342V8.438H22.139v52.903v24.935v53.831h0.019
					c-0.009,0.102-0.019,0.204-0.019,0.308C22.139,145.19,31.259,149.062,42.508,149.062z"/>
				<path opacity="0.0746" fill="#ECECEC"  a:adobe-knockout="false" d="M42.508,149.028c11.226,0,20.324-3.871,20.324-8.646
					c0-0.103-0.008-0.206-0.018-0.308h0.018V86.258V61.329V8.438H22.183v52.891v24.929v53.817h0.019
					c-0.008,0.102-0.019,0.205-0.019,0.308C22.183,145.157,31.284,149.028,42.508,149.028z"/>
				<path opacity="0.0697" fill="#EDEDED"  a:adobe-knockout="false" d="M42.508,148.994c11.202,0,20.28-3.87,20.28-8.644
					c0-0.103-0.008-0.205-0.018-0.308h0.018V86.238V61.315V8.438H22.228v52.878v24.923v53.805h0.019
					c-0.008,0.103-0.019,0.205-0.019,0.308C22.228,145.124,31.308,148.994,42.508,148.994z"/>
				<path opacity="0.0647" fill="#EFEFEF"  a:adobe-knockout="false" d="M42.508,148.96c11.177,0,20.236-3.869,20.236-8.642
					c0-0.103-0.008-0.205-0.018-0.307h0.018V86.219V61.302V8.438H22.272v52.865v24.917v53.793h0.019
					c-0.009,0.102-0.019,0.204-0.019,0.307C22.272,145.091,31.333,148.96,42.508,148.96z"/>
				<path opacity="0.0597" fill="#F0F0F0"  a:adobe-knockout="false" d="M42.508,148.926c11.153,0,20.191-3.868,20.191-8.639
					c0-0.104-0.008-0.206-0.018-0.308H62.7v-53.78v-24.91V8.437H22.316v52.852v24.91v53.78h0.019
					c-0.008,0.102-0.019,0.204-0.019,0.308C22.316,145.058,31.357,148.926,42.508,148.926z"/>
				<path opacity="0.0547" fill="#F1F1F1"  a:adobe-knockout="false" d="M42.508,148.892c11.128,0,20.147-3.867,20.147-8.637
					c0-0.103-0.008-0.206-0.018-0.308h0.018V86.181V61.276V8.437H22.36v52.84v24.904v53.767h0.019
					c-0.009,0.102-0.019,0.205-0.019,0.308C22.36,145.024,31.381,148.892,42.508,148.892z"/>
				<path opacity="0.0498" fill="#F2F2F2"  a:adobe-knockout="false" d="M42.508,148.857c11.104,0,20.103-3.866,20.103-8.635
					c0-0.103-0.008-0.205-0.018-0.308h0.018V86.161V61.263V8.436H22.405v52.827v24.898v53.754h0.018
					c-0.008,0.103-0.018,0.205-0.018,0.308C22.405,144.991,31.406,148.857,42.508,148.857z"/>
				<path opacity="0.0448" fill="#F4F4F4"  a:adobe-knockout="false" d="M42.508,148.823c11.08,0,20.059-3.865,20.059-8.633
					c0-0.103-0.008-0.205-0.018-0.307h0.018V86.142V61.25V8.436H22.449V61.25v24.892v53.742h0.019
					c-0.008,0.102-0.019,0.204-0.019,0.307C22.449,144.958,31.43,148.823,42.508,148.823z"/>
				<path opacity="0.0398" fill="#F5F5F5"  a:adobe-knockout="false" d="M42.508,148.789c11.055,0,20.014-3.864,20.014-8.631
					c0-0.103-0.008-0.205-0.018-0.307h0.018V86.123V61.237V8.436H22.493v52.801v24.886v53.729h0.018
					c-0.008,0.102-0.018,0.204-0.018,0.307C22.493,144.925,31.455,148.789,42.508,148.789z"/>
				<path opacity="0.0348" fill="#F6F6F6"  a:adobe-knockout="false" d="M42.508,148.755c11.03,0,19.97-3.863,19.97-8.628
					c0-0.104-0.008-0.206-0.018-0.308h0.018V86.104v-24.88V8.435H22.538v52.789v24.88v53.716h0.018
					c-0.008,0.102-0.018,0.204-0.018,0.308C22.538,144.892,31.479,148.755,42.508,148.755z"/>
				<path opacity="0.0299" fill="#F7F7F7"  a:adobe-knockout="false" d="M42.508,148.721c11.006,0,19.926-3.862,19.926-8.626
					c0-0.103-0.008-0.205-0.018-0.308h0.018V86.084V61.21V8.435H22.582V61.21v24.874v53.703H22.6
					c-0.009,0.103-0.019,0.205-0.019,0.308C22.582,144.858,31.504,148.721,42.508,148.721z"/>
				<path opacity="0.0249" fill="#F9F9F9"  a:adobe-knockout="false" d="M42.508,148.688c10.981,0,19.881-3.862,19.881-8.625
					c0-0.103-0.008-0.205-0.018-0.307h0.018v-53.69V61.197V8.434H22.626v52.763v24.868v53.69h0.018
					c-0.008,0.102-0.018,0.204-0.018,0.307C22.626,144.825,31.528,148.688,42.508,148.688z"/>
				<path opacity="0.0199" fill="#FAFAFA"  a:adobe-knockout="false" d="M42.508,148.653c10.957,0,19.837-3.861,19.837-8.623
					c0-0.103-0.008-0.205-0.018-0.307h0.018V86.046V61.184V8.434H22.67v52.75v24.862v53.678h0.019
					c-0.008,0.102-0.019,0.204-0.019,0.307C22.67,144.792,31.553,148.653,42.508,148.653z"/>
				<path opacity="0.0149" fill="#FBFBFB"  a:adobe-knockout="false" d="M42.508,148.619c10.933,0,19.793-3.86,19.793-8.621
					c0-0.103-0.008-0.205-0.018-0.307h0.018V86.026V61.171V8.433H22.714v52.738v24.855v53.665h0.018
					c-0.008,0.102-0.018,0.204-0.018,0.307C22.714,144.759,31.577,148.619,42.508,148.619z"/>
				<path opacity="0.01" fill="#FCFCFC"  a:adobe-knockout="false" d="M42.508,148.585c10.908,0,19.749-3.859,19.749-8.618
					c0-0.103-0.008-0.205-0.018-0.308h0.018V86.007V61.158V8.433H22.759v52.725v24.849v53.652h0.018
					c-0.008,0.103-0.018,0.205-0.018,0.308C22.759,144.726,31.602,148.585,42.508,148.585z"/>
				<path opacity="0.005" fill="#FEFEFE"  a:adobe-knockout="false" d="M42.508,148.551c10.884,0,19.705-3.858,19.705-8.616
					c0-0.103-0.008-0.205-0.018-0.307h0.018v-53.64V61.145V8.433h-39.41v52.712v24.843v53.64h0.018
					c-0.008,0.102-0.018,0.204-0.018,0.307C22.803,144.692,31.626,148.551,42.508,148.551z"/>
				<path opacity="0" fill="#FFFFFF"  a:adobe-knockout="false" d="M22.847,8.432v52.7v24.837v53.627h0.018
					c-0.008,0.102-0.018,0.204-0.018,0.307c0,4.757,8.803,8.614,19.661,8.614c10.859,0,19.66-3.857,19.66-8.614
					c0-0.103-0.008-0.205-0.018-0.307h0.018V85.969V61.132v-52.7H22.847z"/>
			</g>
			<linearGradient id="XMLID_20_" gradientUnits="userSpaceOnUse" x1="40.4629" y1="13.646" x2="42.731" y2="7.5975">
				<stop  offset="0.0056" style="stop-color:#F1F1F1"/>
				<stop  offset="1" style="stop-color:#CFCFCF"/>
				<a:midPointStop  offset="0.0056" style="stop-color:#F1F1F1"/>
				<a:midPointStop  offset="0.5" style="stop-color:#F1F1F1"/>
				<a:midPointStop  offset="1" style="stop-color:#CFCFCF"/>
			</linearGradient>
			<ellipse fill="url(#XMLID_20_)" cx="42.509" cy="8.19" rx="28.557" ry="5.19"/> 
			<linearGradient id="XMLID_21_" gradientUnits="userSpaceOnUse" x1="14.9785" y1="7.6973" x2="70.0386" y2="7.6973">
				<stop  offset="0.1573" style="stop-color:#E8E8E8"/>
				<stop  offset="0.6461" style="stop-color:#B9B9B9"/>
				<stop  offset="0.7462" style="stop-color:#BCBCBC"/>
				<stop  offset="0.8214" style="stop-color:#C5C5C5"/>
				<stop  offset="0.882" style="stop-color:#D4D4D4"/>
				<stop  offset="0.9448" style="stop-color:#D2D2D2"/>
				<stop  offset="0.9674" style="stop-color:#CBCBCB"/>
				<stop  offset="0.9835" style="stop-color:#BFBFBF"/>
				<stop  offset="0.9964" style="stop-color:#AEAEAE"/>
				<stop  offset="1" style="stop-color:#A8A8A8"/>
				<a:midPointStop  offset="0.1573" style="stop-color:#E8E8E8"/>
				<a:midPointStop  offset="0.5" style="stop-color:#E8E8E8"/>
				<a:midPointStop  offset="0.6461" style="stop-color:#B9B9B9"/>
				<a:midPointStop  offset="0.7619" style="stop-color:#B9B9B9"/>
				<a:midPointStop  offset="0.882" style="stop-color:#D4D4D4"/>
				<a:midPointStop  offset="0.87" style="stop-color:#D4D4D4"/>
				<a:midPointStop  offset="1" style="stop-color:#A8A8A8"/>
			</linearGradient>
			<ellipse fill="url(#XMLID_21_)" cx="42.509" cy="7.698" rx="27.53" ry="4.082"/> 
			<linearGradient id="XMLID_22_" gradientUnits="userSpaceOnUse" x1="15.041" y1="7.6865" x2="70.1001" y2="7.6865">
				<stop  offset="0.0056" style="stop-color:#888888"/>
				<stop  offset="0.2528" style="stop-color:#FFFFFF"/>
				<stop  offset="0.3961" style="stop-color:#FCFCFC"/>
				<stop  offset="0.5024" style="stop-color:#F3F3F3"/>
				<stop  offset="0.5969" style="stop-color:#E2E2E2"/>
				<stop  offset="0.6844" style="stop-color:#CCCCCC"/>
				<stop  offset="0.7672" style="stop-color:#AEAEAE"/>
				<stop  offset="0.8465" style="stop-color:#8A8A8A"/>
				<stop  offset="0.9214" style="stop-color:#616161"/>
				<stop  offset="0.9831" style="stop-color:#383838"/>
				<a:midPointStop  offset="0.0056" style="stop-color:#888888"/>
				<a:midPointStop  offset="0.5" style="stop-color:#888888"/>
				<a:midPointStop  offset="0.2528" style="stop-color:#FFFFFF"/>
				<a:midPointStop  offset="0.7644" style="stop-color:#FFFFFF"/>
				<a:midPointStop  offset="0.9831" style="stop-color:#383838"/>
			</linearGradient>
			
				<ellipse opacity="0.5" fill="url(#XMLID_22_)"  a:adobe-blending-mode="multiply" cx="42.571" cy="7.687" rx="27.53" ry="4.082"/> 
			<linearGradient id="XMLID_23_" gradientUnits="userSpaceOnUse" x1="15.7788" y1="146.8804" x2="68.6968" y2="146.8804">
				<stop  offset="0.0056" style="stop-color:#CFCFCF"/>
				<stop  offset="0.7135" style="stop-color:#F5F5F5"/>
				<stop  offset="1" style="stop-color:#666666"/>
				<a:midPointStop  offset="0.0056" style="stop-color:#CFCFCF"/>
				<a:midPointStop  offset="0.5106" style="stop-color:#CFCFCF"/>
				<a:midPointStop  offset="0.7135" style="stop-color:#F5F5F5"/>
				<a:midPointStop  offset="0.5" style="stop-color:#F5F5F5"/>
				<a:midPointStop  offset="1" style="stop-color:#666666"/>
			</linearGradient>
			<ellipse opacity="0.1" fill="url(#XMLID_23_)" cx="42.238" cy="146.881" rx="26.459" ry="7.146"/> 
			<linearGradient id="XMLID_24_" gradientUnits="userSpaceOnUse" x1="0" y1="85.5" x2="85.4097" y2="85.5">
				<stop  offset="0.0056" style="stop-color:#0D3A68"/>
				<stop  offset="0.6742" style="stop-color:#7CCF90"/>
				<stop  offset="0.9427" style="stop-color:#558E8C"/>
				<stop  offset="1" style="stop-color:#4C808B"/>
				<a:midPointStop  offset="0.0056" style="stop-color:#0D3A68"/>
				<a:midPointStop  offset="0.5" style="stop-color:#0D3A68"/>
				<a:midPointStop  offset="0.6742" style="stop-color:#7CCF90"/>
				<a:midPointStop  offset="0.5145" style="stop-color:#7CCF90"/>
				<a:midPointStop  offset="1" style="stop-color:#4C808B"/>
			</linearGradient>
			<rect opacity="0" fill="url(#XMLID_24_)" width="85.41" height="171"/> 
		</g>
		<g id="Layer_1">
		</g>
	</svg>
