<?xml version="1.0" encoding="utf-8"?>
<!--
  - This file is part of StyleBI.
  - Copyright (C) 2024  InetSoft Technology
  -
  - This program is free software: you can redistribute it and/or modify
  - it under the terms of the GNU Affero General Public License as published by
  - the Free Software Foundation, either version 3 of the License, or
  - (at your option) any later version.
  -
  - This program is distributed in the hope that it will be useful,
  - but WITHOUT ANY WARRANTY; without even the implied warranty of
  - MERCHANTABILITY or FITNESS FOR A PARTICULAR PURPOSE.  See the
  - GNU Affero General Public License for more details.
  -
  - You should have received a copy of the GNU Affero General Public License
  - along with this program.  If not, see <https://www.gnu.org/licenses/>.
  -->

<!-- Generator: Adobe Illustrator 11.0, SVG Export Plug-In . SVG Version: 6.0.0 Build 78)  -->
<!DOCTYPE svg PUBLIC "-//W3C//DTD SVG 1.0//EN"    "http://www.w3.org/TR/2001/REC-SVG-20010904/DTD/svg10.dtd" [
	<!ENTITY ns_flows "http://ns.adobe.com/Flows/1.0/">
	<!ENTITY ns_svg "http://www.w3.org/2000/svg">
	<!ENTITY ns_xlink "http://www.w3.org/1999/xlink">
]>
<svg  xmlns="&ns_svg;" xmlns:xlink="&ns_xlink;" xmlns:a="http://ns.adobe.com/AdobeSVGViewerExtensions/3.0/"
	 width="41.568" height="170" viewBox="0 0 41.568 170" overflow="visible" enable-background="new 0 0 41.568 170"
	 xml:space="preserve">
		<g id="Layer_1">
		</g>
		<g id="Layer_3">
			
				<linearGradient id="XMLID_4_" gradientUnits="userSpaceOnUse" x1="-543.6938" y1="423.6807" x2="-508.1489" y2="423.6807" gradientTransform="matrix(1 0 0 -1 546.6938 509.8711)">
				<stop  offset="0" style="stop-color:#9CE296"/>
				<stop  offset="0.2247" style="stop-color:#CDEDCA"/>
				<stop  offset="1" style="stop-color:#6285A5"/>
				<a:midPointStop  offset="0" style="stop-color:#9CE296"/>
				<a:midPointStop  offset="0.5" style="stop-color:#9CE296"/>
				<a:midPointStop  offset="0.2247" style="stop-color:#CDEDCA"/>
				<a:midPointStop  offset="0.5" style="stop-color:#CDEDCA"/>
				<a:midPointStop  offset="1" style="stop-color:#6285A5"/>
			</linearGradient>
			<path opacity="0.5" fill="url(#XMLID_4_)" stroke="#3A3A3A" stroke-width="0.0731" enable-background="new    " d="M38.545,5.382
				l-0.4,0.42l-1.987,0.72L33.895,6.59l-1.957,0.466H12.557L4.951,6.202L3,5.737c0.776,0.686,0.688,1.318,0.688,1.318v141.679h0.005
				c-0.001,0.048-0.004,0.097-0.004,0.146c0,10.007,7.637,18.119,17.055,18.119s17.054-8.112,17.054-18.119
				c0-0.05-0.003-0.099-0.004-0.146h0.004V7.19c0.084-0.701,0.594-1.58,0.594-1.58L38.545,5.382z"/>
			<g opacity="0.7"  a:adobe-blending-mode="multiply">
				<path  a:adobe-blending-mode="normal" d="M38.568,5.414l-0.425,0.388l-1.987,0.72L33.894,6.59l-1.956,0.466H12.557L4.951,6.202
					L3,5.737c0.776,0.686,0.688,1.318,0.688,1.318v141.679h0.005c-0.001,0.048-0.004,0.097-0.004,0.146
					c0,10.007,7.637,18.119,17.055,18.119s17.054-8.112,17.054-18.119c0-0.05-0.003-0.099-0.004-0.146h0.004V7.19
					c0.084-0.701,0.676-1.678,0.676-1.678L38.568,5.414z"/>
				<path fill="#010101"  a:adobe-blending-mode="normal" d="M20.742,166.971c9.408,0,17.038-8.111,17.038-18.115
					c0-0.051-0.004-0.1-0.005-0.146h0.005V7.191c0.084-0.701,0.676-1.677,0.676-1.677l0.097-0.099l-0.425,0.388l-1.986,0.72
					l-2.26,0.068l-1.954,0.466H12.563L4.966,6.203l-1.95-0.464c0.776,0.686,0.688,1.317,0.688,1.317v141.652h0.004
					c-0.001,0.048-0.004,0.097-0.004,0.146C3.704,158.859,11.333,166.971,20.742,166.971z"/>
				<path fill="#030303"  a:adobe-blending-mode="normal" d="M20.742,166.939c9.4,0,17.021-8.108,17.021-18.111
					c0-0.051-0.003-0.1-0.004-0.146h0.004V7.191c0.084-0.7,0.675-1.675,0.675-1.675l0.098-0.1l-0.425,0.387l-1.984,0.72L33.87,6.59
					l-1.952,0.467H12.572L4.979,6.204L3.031,5.741c0.775,0.686,0.688,1.315,0.688,1.315v141.625h0.005
					c-0.001,0.047-0.004,0.096-0.004,0.146C3.72,158.831,11.341,166.939,20.742,166.939z"/>
				<path fill="#040404"  a:adobe-blending-mode="normal" d="M20.742,166.91c9.392,0,17.007-8.107,17.007-18.109
					c0-0.05-0.003-0.099-0.004-0.146h0.004V7.192c0.084-0.701,0.675-1.675,0.675-1.675l0.097-0.099l-0.424,0.386l-1.982,0.719
					l-2.257,0.069l-1.949,0.466H12.579L4.995,6.204L3.046,5.743c0.776,0.685,0.688,1.315,0.688,1.315v141.597h0.006
					c-0.001,0.048-0.005,0.097-0.005,0.146C3.734,158.803,11.35,166.91,20.742,166.91z"/>
				<path fill="#050505"  a:adobe-blending-mode="normal" d="M20.742,166.88c9.383,0,16.99-8.106,16.99-18.104
					c0-0.051-0.003-0.1-0.004-0.146h0.004V7.193c0.083-0.701,0.676-1.674,0.676-1.674l0.097-0.1l-0.424,0.386L36.1,6.524
					l-2.253,0.068l-1.949,0.466H12.586L5.009,6.205l-1.947-0.46C3.836,6.43,3.75,7.058,3.75,7.058v141.57h0.005
					c-0.001,0.048-0.004,0.097-0.004,0.146C3.751,158.773,11.357,166.88,20.742,166.88z"/>
				<path fill="#060606"  a:adobe-blending-mode="normal" d="M20.742,166.85c9.375,0,16.976-8.104,16.976-18.102
					c0-0.05-0.003-0.1-0.004-0.146h0.004V7.193c0.083-0.7,0.675-1.672,0.675-1.672l0.097-0.1l-0.425,0.385l-1.979,0.719
					l-2.251,0.068l-1.947,0.465H12.594L5.022,6.206L3.078,5.747c0.773,0.685,0.688,1.312,0.688,1.312v141.542H3.77
					c0,0.049-0.003,0.098-0.003,0.146C3.767,158.745,11.367,166.85,20.742,166.85z"/>
				<path fill="#080808"  a:adobe-blending-mode="normal" d="M20.742,166.818c9.365,0,16.96-8.103,16.96-18.098
					c0-0.05-0.003-0.099-0.004-0.146h0.004V7.194c0.083-0.7,0.675-1.671,0.675-1.671l0.096-0.101l-0.424,0.384l-1.977,0.72
					l-2.25,0.067l-1.945,0.466H12.602L5.038,6.207L3.093,5.749C3.866,6.434,3.781,7.06,3.781,7.06v141.516h0.004
					c-0.001,0.048-0.003,0.097-0.003,0.146C3.782,158.717,11.376,166.818,20.742,166.818z"/>
				<path fill="#090909"  a:adobe-blending-mode="normal" d="M20.742,166.79c9.356,0,16.943-8.103,16.943-18.095
					c0-0.051-0.003-0.1-0.004-0.146h0.004V7.194c0.083-0.7,0.674-1.669,0.674-1.669l0.097-0.101l-0.423,0.384l-1.976,0.718
					L33.81,6.594L31.867,7.06H12.608L5.052,6.208L3.107,5.751c0.772,0.685,0.688,1.31,0.688,1.31v141.488H3.8
					c-0.001,0.049-0.004,0.098-0.004,0.146C3.797,158.688,11.384,166.79,20.742,166.79z"/>
				<path fill="#0A0A0A"  a:adobe-blending-mode="normal" d="M20.742,166.76c9.349,0,16.929-8.1,16.929-18.092
					c0-0.05-0.003-0.098-0.004-0.146h0.004V7.195c0.083-0.7,0.674-1.668,0.674-1.668l0.095-0.102l-0.423,0.383l-1.974,0.719
					l-2.245,0.069l-1.942,0.465H12.616L5.065,6.209L3.124,5.753c0.771,0.685,0.688,1.308,0.688,1.308v141.462h0.005
					c-0.001,0.048-0.004,0.096-0.004,0.146C3.813,158.66,11.393,166.76,20.742,166.76z"/>
				<path fill="#0B0B0B"  a:adobe-blending-mode="normal" d="M20.742,166.729c9.34,0,16.913-8.098,16.913-18.088
					c0-0.05-0.004-0.099-0.005-0.146h0.005V7.196c0.083-0.7,0.674-1.668,0.674-1.668l0.095-0.101l-0.423,0.382l-1.973,0.719
					l-2.242,0.068l-1.94,0.465H12.624L5.081,6.209L3.14,5.755c0.771,0.683,0.688,1.306,0.688,1.306v141.434h0.005
					c-0.001,0.048-0.004,0.097-0.004,0.146C3.829,158.632,11.401,166.729,20.742,166.729z"/>
				<path fill="#0D0D0D"  a:adobe-blending-mode="normal" d="M20.742,166.699c9.332,0,16.896-8.098,16.896-18.084
					c0-0.051-0.003-0.1-0.004-0.146h0.004V7.196c0.083-0.699,0.674-1.666,0.674-1.666l0.096-0.102L37.984,5.81l-1.97,0.719
					l-2.241,0.067l-1.938,0.466H12.631L5.096,6.21L3.156,5.757c0.77,0.684,0.688,1.306,0.688,1.306v141.406h0.004
					c-0.001,0.049-0.004,0.098-0.004,0.146C3.844,158.604,11.41,166.699,20.742,166.699z"/>
				<path fill="#0E0E0E"  a:adobe-blending-mode="normal" d="M20.742,166.67c9.322,0,16.882-8.096,16.882-18.081
					c0-0.05-0.003-0.099-0.004-0.146h0.004V7.197c0.083-0.7,0.674-1.665,0.674-1.665l0.094-0.102l-0.423,0.381l-1.968,0.718
					l-2.239,0.069l-1.937,0.465H12.639L5.109,6.211L3.17,5.759c0.77,0.684,0.688,1.304,0.688,1.304v141.38h0.006
					c-0.002,0.048-0.005,0.097-0.005,0.146C3.859,158.574,11.419,166.67,20.742,166.67z"/>
				<path fill="#0F0F0F"  a:adobe-blending-mode="normal" d="M20.742,166.641c9.313,0,16.865-8.095,16.865-18.078
					c0-0.049-0.003-0.099-0.004-0.146h0.004V7.198c0.083-0.7,0.674-1.664,0.674-1.664l0.094-0.103l-0.423,0.381L35.985,6.53
					l-2.236,0.068l-1.936,0.465H12.646L5.124,6.212L3.186,5.76c0.77,0.685,0.688,1.304,0.688,1.304v141.353h0.005
					c-0.001,0.048-0.004,0.097-0.004,0.146C3.875,158.546,11.427,166.641,20.742,166.641z"/>
				<path fill="#101010"  a:adobe-blending-mode="normal" d="M20.742,166.609c9.306,0,16.851-8.092,16.851-18.074
					c0-0.049-0.003-0.098-0.004-0.146h0.004V7.198c0.083-0.699,0.673-1.662,0.673-1.662l0.094-0.103l-0.422,0.38l-1.965,0.718
					L33.738,6.6l-1.934,0.464H12.653L5.139,6.213L3.202,5.762C3.97,6.447,3.89,7.064,3.89,7.064v141.327h0.005
					c-0.001,0.047-0.004,0.096-0.004,0.146C3.891,158.518,11.436,166.609,20.742,166.609z"/>
				<path fill="#121212"  a:adobe-blending-mode="normal" d="M20.742,166.579c9.298,0,16.835-8.09,16.835-18.07
					c0-0.05-0.003-0.099-0.004-0.146h0.004V7.199C37.66,6.5,38.25,5.537,38.25,5.537l0.093-0.103l-0.422,0.38l-1.963,0.718
					l-2.232,0.067l-1.931,0.465H12.661L5.152,6.213L3.217,5.764c0.767,0.684,0.688,1.301,0.688,1.301v141.299H3.91
					c-0.001,0.047-0.004,0.096-0.004,0.146C3.907,158.489,11.444,166.579,20.742,166.579z"/>
				<path fill="#131313"  a:adobe-blending-mode="normal" d="M20.742,166.55c9.289,0,16.819-8.089,16.819-18.067
					c0-0.049-0.003-0.099-0.004-0.146h0.004V7.199c0.083-0.699,0.673-1.66,0.673-1.66l0.094-0.103l-0.422,0.379l-1.962,0.717
					L33.715,6.6l-1.929,0.465H12.669L5.167,6.214L3.231,5.766c0.768,0.684,0.689,1.3,0.689,1.3v141.271h0.005
					c-0.001,0.048-0.004,0.097-0.004,0.146C3.922,158.461,11.453,166.55,20.742,166.55z"/>
				<path fill="#141414"  a:adobe-blending-mode="normal" d="M20.742,166.52c9.279,0,16.804-8.088,16.804-18.063
					c0-0.05-0.003-0.1-0.004-0.146h0.004V7.2c0.083-0.699,0.673-1.659,0.673-1.659l0.093-0.104L37.89,5.815l-1.959,0.718
					l-2.229,0.068l-1.928,0.464H12.676l-7.494-0.85L3.248,5.768c0.766,0.684,0.688,1.298,0.688,1.298v141.245H3.94
					c0,0.047-0.003,0.097-0.003,0.146C3.938,158.432,11.462,166.52,20.742,166.52z"/>
				<path fill="#161616"  a:adobe-blending-mode="normal" d="M20.742,166.489c9.271,0,16.789-8.087,16.789-18.06
					c0-0.051-0.004-0.1-0.005-0.146h0.005V7.201c0.083-0.699,0.672-1.658,0.672-1.658l0.093-0.104l-0.422,0.377l-1.957,0.718
					l-2.228,0.068l-1.926,0.464h-19.08l-7.488-0.85L3.264,5.77c0.765,0.684,0.689,1.297,0.689,1.297v141.217h0.004
					c-0.001,0.048-0.003,0.097-0.003,0.146C3.954,158.402,11.47,166.489,20.742,166.489z"/>
				<path fill="#171717"  a:adobe-blending-mode="normal" d="M20.742,166.459c9.263,0,16.772-8.084,16.772-18.057
					c0-0.049-0.003-0.098-0.004-0.146h0.004V7.201c0.083-0.698,0.672-1.656,0.672-1.656l0.092-0.104l-0.421,0.376l-1.956,0.718
					l-2.224,0.068l-1.924,0.465H12.69L5.211,6.217L3.278,5.771c0.766,0.684,0.689,1.296,0.689,1.296v141.189h0.004
					c-0.001,0.049-0.003,0.098-0.003,0.146C3.969,158.375,11.479,166.459,20.742,166.459z"/>
				<path fill="#181818"  a:adobe-blending-mode="normal" d="M20.742,166.43c9.254,0,16.757-8.082,16.757-18.054
					c0-0.05-0.003-0.099-0.004-0.146h0.004V7.202c0.083-0.699,0.672-1.655,0.672-1.655l0.092-0.104l-0.421,0.375l-1.954,0.717
					l-2.223,0.068l-1.922,0.464H12.699L5.225,6.218L3.294,5.773c0.764,0.684,0.688,1.294,0.688,1.294V148.23h0.006
					c-0.002,0.047-0.005,0.096-0.005,0.146C3.983,158.348,11.488,166.43,20.742,166.43z"/>
				<path fill="#191919"  a:adobe-blending-mode="normal" d="M20.742,166.398c9.246,0,16.741-8.08,16.741-18.049
					c0-0.051-0.003-0.1-0.004-0.146h0.004v-141c0.083-0.699,0.673-1.655,0.673-1.655l0.092-0.104L37.827,5.82l-1.952,0.717
					l-2.222,0.068l-1.92,0.464H12.706L5.24,6.218L3.31,5.776c0.764,0.682,0.689,1.292,0.689,1.292v141.136h0.004
					c-0.001,0.047-0.004,0.096-0.004,0.146C4,158.318,11.496,166.398,20.742,166.398z"/>
				<path fill="#1B1B1B"  a:adobe-blending-mode="normal" d="M20.742,166.369c9.236,0,16.726-8.079,16.726-18.046
					c0-0.05-0.003-0.099-0.004-0.146h0.004V7.203C37.551,6.505,38.14,5.55,38.14,5.55l0.091-0.104L37.81,5.821l-1.95,0.717
					l-2.218,0.068L31.724,7.07h-19.01l-7.46-0.851L3.326,5.777C4.088,6.46,4.015,7.069,4.015,7.069v141.107h0.004
					c-0.001,0.049-0.004,0.098-0.004,0.146C4.016,158.29,11.505,166.369,20.742,166.369z"/>
				<path fill="#1C1C1C"  a:adobe-blending-mode="normal" d="M20.742,166.339c9.229,0,16.71-8.077,16.71-18.042
					c0-0.05-0.003-0.099-0.004-0.146h0.004V7.204c0.083-0.698,0.671-1.652,0.671-1.652l0.091-0.104l-0.421,0.375l-1.947,0.716
					L33.63,6.605l-1.917,0.464H12.721l-7.453-0.85l-1.927-0.44c0.762,0.683,0.689,1.29,0.689,1.29V148.15h0.005
					c-0.001,0.048-0.004,0.097-0.004,0.146C4.031,158.262,11.513,166.339,20.742,166.339z"/>
				<path fill="#1D1D1D"  a:adobe-blending-mode="normal" d="M20.742,166.309c9.22,0,16.694-8.076,16.694-18.039
					c0-0.049-0.003-0.098-0.004-0.146h0.004V7.204c0.083-0.697,0.671-1.65,0.671-1.65l0.092-0.105l-0.422,0.373l-1.945,0.716
					l-2.214,0.068L31.703,7.07H12.728L5.283,6.22L3.356,5.781C4.118,6.464,4.046,7.07,4.046,7.07v141.054h0.005
					c-0.001,0.048-0.004,0.097-0.004,0.146C4.047,158.232,11.521,166.309,20.742,166.309z"/>
				<path fill="#1E1E1E"  a:adobe-blending-mode="normal" d="M20.742,166.279c9.211,0,16.679-8.075,16.679-18.036
					c0-0.05-0.003-0.099-0.004-0.146h0.004V7.205c0.083-0.698,0.671-1.649,0.671-1.649l0.09-0.105l-0.42,0.373L35.816,6.54
					l-2.212,0.068l-1.913,0.464H12.735l-7.438-0.85L3.372,5.783c0.76,0.683,0.688,1.288,0.688,1.288v141.026h0.005
					c-0.001,0.049-0.004,0.096-0.004,0.146C4.062,158.204,11.531,166.279,20.742,166.279z"/>
				<path fill="#202020"  a:adobe-blending-mode="normal" d="M20.742,166.249c9.202,0,16.664-8.073,16.664-18.032
					c0-0.05-0.004-0.098-0.004-0.146h0.005V7.206c0.082-0.698,0.67-1.649,0.67-1.649l0.09-0.105l-0.42,0.373l-1.943,0.716
					l-2.21,0.068l-1.911,0.463H12.744L5.312,6.223L3.388,5.785c0.76,0.683,0.689,1.286,0.689,1.286v141h0.005
					c-0.001,0.048-0.004,0.096-0.004,0.146C4.078,158.176,11.539,166.249,20.742,166.249z"/>
				<path fill="#212121"  a:adobe-blending-mode="normal" d="M20.742,166.219c9.193,0,16.647-8.07,16.647-18.027
					c0-0.051-0.003-0.1-0.003-0.146h0.004V7.206c0.082-0.697,0.67-1.647,0.67-1.647l0.09-0.105l-0.42,0.371l-1.94,0.717
					l-2.209,0.066l-1.909,0.464H12.751l-7.425-0.85L3.402,5.787c0.76,0.682,0.689,1.285,0.689,1.285v140.973h0.004
					c0,0.047-0.003,0.096-0.003,0.146C4.094,158.146,11.548,166.219,20.742,166.219z"/>
				<path fill="#222222"  a:adobe-blending-mode="normal" d="M20.742,166.188c9.186,0,16.632-8.068,16.632-18.023
					c0-0.05-0.003-0.1-0.003-0.146h0.004V7.207c0.082-0.697,0.67-1.646,0.67-1.646l0.089-0.106l-0.42,0.371l-1.939,0.716
					L33.568,6.61l-1.907,0.464H12.758l-7.417-0.85L3.419,5.789c0.758,0.682,0.688,1.284,0.688,1.284v140.944h0.004
					c0,0.049-0.003,0.098-0.003,0.146C4.108,158.119,11.557,166.188,20.742,166.188z"/>
				<path fill="#242424"  a:adobe-blending-mode="normal" d="M20.742,166.159c9.177,0,16.616-8.069,16.616-18.022
					c0-0.049-0.003-0.098-0.003-0.146h0.004V7.208c0.082-0.698,0.671-1.646,0.671-1.646l0.089-0.106l-0.42,0.37l-1.938,0.716
					L33.558,6.61l-1.906,0.463H12.766L5.354,6.225L3.434,5.791c0.758,0.682,0.69,1.282,0.69,1.282v140.918h0.004
					c-0.001,0.048-0.003,0.097-0.003,0.146C4.125,158.09,11.564,166.159,20.742,166.159z"/>
				<path fill="#252525"  a:adobe-blending-mode="normal" d="M20.742,166.129c9.168,0,16.601-8.066,16.601-18.02
					c0-0.049-0.003-0.098-0.003-0.146h0.004V7.208c0.082-0.697,0.67-1.644,0.67-1.644l0.089-0.107l-0.419,0.37l-1.936,0.716
					l-2.202,0.068l-1.904,0.463H12.772L5.37,6.226L3.45,5.793C4.207,6.475,4.14,7.074,4.14,7.074v140.891h0.004
					c-0.001,0.049-0.003,0.098-0.003,0.146C4.141,158.061,11.574,166.129,20.742,166.129z"/>
				<path fill="#262626"  a:adobe-blending-mode="normal" d="M20.742,166.1c9.159,0,16.585-8.065,16.585-18.016
					c0-0.05-0.003-0.098-0.003-0.146h0.004V7.209c0.082-0.697,0.669-1.644,0.669-1.644l0.089-0.106l-0.42,0.369l-1.935,0.716
					l-2.199,0.067L31.63,7.075H12.78L5.384,6.227L3.465,5.795c0.756,0.682,0.69,1.28,0.69,1.28v140.862h0.004
					c-0.001,0.049-0.003,0.097-0.003,0.146C4.156,158.033,11.582,166.1,20.742,166.1z"/>
				<path fill="#272727"  a:adobe-blending-mode="normal" d="M20.742,166.068c9.15,0,16.569-8.063,16.569-18.012
					c0-0.05-0.003-0.099-0.003-0.146h0.004V7.209c0.082-0.696,0.669-1.642,0.669-1.642l0.088-0.107L37.65,5.829l-1.932,0.715
					l-2.198,0.068l-1.899,0.463H12.788L5.397,6.227L3.48,5.797c0.755,0.681,0.69,1.278,0.69,1.278v140.837h0.004
					c-0.001,0.047-0.003,0.096-0.003,0.146C4.172,158.005,11.591,166.068,20.742,166.068z"/>
				<path fill="#292929"  a:adobe-blending-mode="normal" d="M20.742,166.039c9.143,0,16.554-8.063,16.554-18.008
					c0-0.051-0.003-0.1-0.003-0.146h0.004V7.21c0.082-0.697,0.669-1.641,0.669-1.641l0.088-0.107L37.635,5.83l-1.93,0.715
					l-2.196,0.068L31.61,7.076H12.796L5.413,6.228L3.496,5.799C4.251,6.48,4.186,7.076,4.186,7.076v140.811h0.004
					c-0.001,0.047-0.004,0.096-0.004,0.146C4.187,157.977,11.6,166.039,20.742,166.039z"/>
				<path fill="#2A2A2A"  a:adobe-blending-mode="normal" d="M20.742,166.009c9.134,0,16.539-8.061,16.539-18.005
					c0-0.049-0.004-0.098-0.004-0.146h0.005V7.211c0.081-0.697,0.669-1.64,0.669-1.64l0.088-0.108L37.62,5.831l-1.929,0.715
					l-2.192,0.068l-1.897,0.463H12.803L5.427,6.228L3.512,5.801c0.754,0.681,0.69,1.276,0.69,1.276v140.78h0.004
					c-0.001,0.049-0.004,0.098-0.004,0.146C4.203,157.948,11.607,166.009,20.742,166.009z"/>
				<path fill="#2B2B2B"  a:adobe-blending-mode="normal" d="M20.742,165.979c9.125,0,16.522-8.061,16.522-18.002
					c0-0.049-0.003-0.098-0.003-0.146h0.004V7.211c0.081-0.696,0.669-1.638,0.669-1.638l0.088-0.108l-0.419,0.367l-1.926,0.715
					l-2.191,0.067l-1.895,0.463H12.811L5.441,6.229L3.526,5.802c0.754,0.682,0.69,1.275,0.69,1.275v140.755h0.004
					c0,0.048-0.003,0.098-0.003,0.146C4.218,157.919,11.617,165.979,20.742,165.979z"/>
				<path fill="#2C2C2C"  a:adobe-blending-mode="normal" d="M20.742,165.948c9.115,0,16.507-8.058,16.507-17.997
					c0-0.051-0.003-0.098-0.003-0.146h0.004V7.212c0.081-0.696,0.668-1.637,0.668-1.637l0.088-0.109l-0.419,0.367l-1.925,0.714
					l-2.189,0.068L31.58,7.078H12.817L5.456,6.23L3.543,5.804c0.752,0.681,0.689,1.274,0.689,1.274v140.729h0.006
					c-0.002,0.047-0.005,0.096-0.005,0.146C4.233,157.891,11.625,165.948,20.742,165.948z"/>
				<path fill="#2E2E2E"  a:adobe-blending-mode="normal" d="M20.742,165.919c9.107,0,16.491-8.058,16.491-17.994
					c0-0.05-0.003-0.098-0.003-0.146h0.004V7.213c0.081-0.697,0.668-1.637,0.668-1.637l0.088-0.108l-0.419,0.365l-1.924,0.715
					l-2.187,0.068l-1.893,0.462H12.826L5.471,6.231L3.558,5.806C4.31,6.487,4.249,7.078,4.249,7.078v140.701h0.004
					c0,0.048-0.003,0.096-0.003,0.146C4.249,157.861,11.634,165.919,20.742,165.919z"/>
				<path fill="#2F2F2F"  a:adobe-blending-mode="normal" d="M20.742,165.889c9.099,0,16.476-8.055,16.476-17.99
					c0-0.049-0.003-0.099-0.003-0.146h0.004V7.213c0.08-0.696,0.668-1.635,0.668-1.635l0.087-0.109l-0.419,0.365l-1.92,0.715
					l-2.186,0.068l-1.891,0.462H12.833L5.484,6.231l-1.91-0.423c0.751,0.681,0.689,1.271,0.689,1.271v140.674h0.004
					c0,0.047-0.003,0.097-0.003,0.146C4.265,157.834,11.643,165.889,20.742,165.889z"/>
				<path fill="#303030"  a:adobe-blending-mode="normal" d="M20.741,165.857c9.091,0,16.461-8.053,16.461-17.986
					c0-0.049-0.003-0.098-0.003-0.145h0.004V7.214c0.081-0.696,0.668-1.634,0.668-1.634l0.087-0.109L37.54,5.835L35.621,6.55
					l-2.185,0.067L31.549,7.08H12.841L5.499,6.232l-1.91-0.423C4.339,6.49,4.278,7.08,4.278,7.08v140.646h0.005
					c0,0.047-0.003,0.096-0.003,0.145C4.281,157.807,11.65,165.857,20.741,165.857z"/>
				<path fill="#313131"  a:adobe-blending-mode="normal" d="M20.741,165.828c9.083,0,16.444-8.051,16.444-17.982
					c0-0.05-0.003-0.099-0.003-0.146h0.004V7.214c0.081-0.695,0.668-1.632,0.668-1.632l0.086-0.11l-0.418,0.364L35.605,6.55
					l-2.181,0.068L31.539,7.08H12.848L5.514,6.233L3.604,5.811c0.75,0.681,0.69,1.269,0.69,1.269v140.619h0.004
					c0,0.048-0.003,0.097-0.003,0.146C4.296,157.777,11.66,165.828,20.741,165.828z"/>
				<path fill="#333333"  a:adobe-blending-mode="normal" d="M20.741,165.799c9.073,0,16.43-8.051,16.43-17.98
					c0-0.049-0.003-0.098-0.003-0.146h0.004V7.215c0.081-0.696,0.667-1.631,0.667-1.631l0.086-0.11l-0.418,0.363l-1.916,0.714
					l-2.179,0.068l-1.885,0.462H12.854L5.527,6.234L3.62,5.813c0.749,0.681,0.69,1.268,0.69,1.268v140.592h0.004
					c-0.001,0.048-0.003,0.097-0.003,0.146C4.312,157.748,11.668,165.799,20.741,165.799z"/>
				<path fill="#343434"  a:adobe-blending-mode="normal" d="M20.741,165.77c9.064,0,16.414-8.049,16.414-17.978
					c0-0.05-0.004-0.099-0.004-0.146h0.005V7.216c0.08-0.696,0.667-1.631,0.667-1.631l0.086-0.11l-0.418,0.363l-1.913,0.714
					L33.4,6.62l-1.883,0.462H12.863l-7.32-0.847l-1.907-0.42c0.749,0.681,0.691,1.267,0.691,1.267v140.564h0.004
					c-0.001,0.047-0.003,0.096-0.003,0.146C4.328,157.721,11.677,165.77,20.741,165.77z"/>
				<path fill="#353535"  a:adobe-blending-mode="normal" d="M20.741,165.738c9.057,0,16.397-8.047,16.397-17.973
					c0-0.051-0.003-0.1-0.003-0.146h0.004V7.216c0.081-0.695,0.667-1.629,0.667-1.629l0.085-0.11l-0.418,0.362l-1.912,0.714
					L33.387,6.62l-1.879,0.462H12.871L5.557,6.235L3.65,5.817c0.748,0.68,0.691,1.265,0.691,1.265V147.62h0.004
					c-0.001,0.047-0.003,0.096-0.003,0.146C4.343,157.691,11.686,165.738,20.741,165.738z"/>
				<path fill="#373737"  a:adobe-blending-mode="normal" d="M20.741,165.708c9.048,0,16.383-8.045,16.383-17.97
					c0-0.049-0.003-0.098-0.003-0.146h0.004V7.217c0.081-0.695,0.667-1.628,0.667-1.628l0.085-0.111L37.46,5.84l-1.91,0.714
					l-2.173,0.067l-1.879,0.462h-18.62L5.572,6.236L3.667,5.819c0.747,0.68,0.69,1.264,0.69,1.264v140.511h0.004
					c-0.001,0.047-0.003,0.096-0.003,0.146C4.358,157.663,11.693,165.708,20.741,165.708z"/>
				<path fill="#383838"  a:adobe-blending-mode="normal" d="M20.741,165.68c9.039,0,16.366-8.045,16.366-17.968
					c0-0.049-0.003-0.098-0.003-0.146h0.004V7.218c0.081-0.696,0.667-1.627,0.667-1.627L37.86,5.48l-0.417,0.361l-1.907,0.713
					l-2.171,0.068l-1.877,0.462H12.885L5.586,6.237L3.682,5.821c0.747,0.68,0.691,1.263,0.691,1.263v140.482h0.005
					c-0.001,0.048-0.004,0.097-0.004,0.146C4.374,157.635,11.703,165.68,20.741,165.68z"/>
				<path fill="#393939"  a:adobe-blending-mode="normal" d="M20.741,165.648c9.03,0,16.352-8.043,16.352-17.963
					c0-0.051-0.003-0.099-0.003-0.146h0.004V7.218c0.081-0.695,0.667-1.625,0.667-1.625l0.084-0.111l-0.417,0.36l-1.906,0.713
					l-2.168,0.068l-1.875,0.461H12.893L5.601,6.238L3.698,5.823c0.745,0.68,0.69,1.261,0.69,1.261V147.54h0.004
					c-0.001,0.048-0.004,0.097-0.004,0.146C4.39,157.605,11.711,165.648,20.741,165.648z"/>
				<path fill="#3A3A3A"  a:adobe-blending-mode="normal" d="M20.741,165.618c9.021,0,16.336-8.041,16.336-17.959
					c0-0.05-0.003-0.099-0.003-0.146h0.004V7.219c0.081-0.695,0.667-1.624,0.667-1.624l0.084-0.112l-0.417,0.359l-1.905,0.714
					L33.34,6.623l-1.874,0.462H12.899L5.615,6.239L3.713,5.825c0.745,0.68,0.69,1.26,0.69,1.26v140.429h0.005
					c0,0.049-0.003,0.096-0.003,0.146C4.405,157.577,11.72,165.618,20.741,165.618z"/>
				<path fill="#3C3C3C"  a:adobe-blending-mode="normal" d="M20.741,165.588c9.013,0,16.319-8.039,16.319-17.955
					c0-0.05-0.003-0.098-0.003-0.146h0.004V7.219c0.08-0.694,0.667-1.623,0.667-1.623l0.084-0.111l-0.417,0.358l-1.902,0.714
					l-2.165,0.067l-1.872,0.462H12.908L5.629,6.24l-1.9-0.413C4.473,6.507,4.42,7.086,4.42,7.086v140.4h0.004
					c0,0.049-0.003,0.097-0.003,0.146C4.421,157.549,11.728,165.588,20.741,165.588z"/>
				<path fill="#3D3D3D"  a:adobe-blending-mode="normal" d="M20.741,165.559c9.005,0,16.305-8.037,16.305-17.953
					c0-0.049-0.003-0.098-0.003-0.145h0.004V7.22c0.08-0.694,0.666-1.622,0.666-1.622l0.084-0.112L37.38,5.844l-1.9,0.713
					l-2.163,0.068l-1.869,0.461H12.916L5.644,6.24L3.745,5.829c0.743,0.679,0.69,1.257,0.69,1.257v140.375h0.004
					c0,0.047-0.003,0.096-0.003,0.145C4.436,157.52,11.736,165.559,20.741,165.559z"/>
				<path fill="#3E3E3E"  a:adobe-blending-mode="normal" d="M20.741,165.527c8.995,0,16.289-8.035,16.289-17.948
					c0-0.049-0.004-0.099-0.004-0.146h0.005V7.221C37.11,6.526,37.697,5.6,37.697,5.6l0.083-0.112l-0.417,0.357l-1.898,0.713
					l-2.161,0.068l-1.868,0.461H12.923L5.658,6.241L3.76,5.831C4.503,6.51,4.452,7.087,4.452,7.087v140.349h0.004
					c0,0.047-0.003,0.096-0.003,0.145C4.452,157.492,11.746,165.527,20.741,165.527z"/>
				<path fill="#3F3F3F"  a:adobe-blending-mode="normal" d="M20.741,165.498c8.986,0,16.273-8.034,16.273-17.945
					c0-0.049-0.003-0.098-0.004-0.145h0.004V7.221c0.08-0.694,0.666-1.619,0.666-1.619l0.083-0.113l-0.416,0.357l-1.896,0.713
					l-2.159,0.067l-1.866,0.462H12.93L5.673,6.242L3.774,5.833c0.742,0.679,0.692,1.255,0.692,1.255v140.32h0.004
					c0,0.047-0.003,0.096-0.003,0.145C4.468,157.464,11.754,165.498,20.741,165.498z"/>
				<path fill="#414141"  a:adobe-blending-mode="normal" d="M20.741,165.468c8.979,0,16.258-8.032,16.258-17.94
					c0-0.051-0.003-0.098-0.004-0.146h0.004V7.222c0.08-0.694,0.666-1.618,0.666-1.618l0.083-0.113l-0.416,0.356L35.436,6.56
					l-2.157,0.067l-1.862,0.461H12.937l-7.25-0.845L3.791,5.835c0.741,0.679,0.69,1.253,0.69,1.253v140.293h0.004
					c-0.001,0.049-0.003,0.096-0.003,0.146C4.482,157.436,11.763,165.468,20.741,165.468z"/>
				<path fill="#424242"  a:adobe-blending-mode="normal" d="M20.741,165.438c8.97,0,16.242-8.031,16.242-17.938
					c0-0.05-0.003-0.099-0.004-0.146h0.004V7.223c0.08-0.694,0.666-1.618,0.666-1.618l0.083-0.113l-0.417,0.356L35.422,6.56
					l-2.154,0.068l-1.862,0.461H12.944L5.702,6.244L3.807,5.837c0.74,0.679,0.691,1.252,0.691,1.252v140.267h0.004
					c-0.001,0.047-0.003,0.096-0.003,0.146C4.499,157.406,11.771,165.438,20.741,165.438z"/>
				<path fill="#434343"  a:adobe-blending-mode="normal" d="M20.741,165.408c8.961,0,16.227-8.03,16.227-17.936
					c0-0.05-0.003-0.098-0.004-0.146h0.004V7.223c0.08-0.694,0.665-1.616,0.665-1.616l0.083-0.113L37.3,5.849l-1.892,0.712
					l-2.152,0.068L31.395,7.09H12.953L5.716,6.245L3.822,5.839C4.562,6.518,4.514,7.09,4.514,7.09v140.238h0.004
					c-0.001,0.048-0.003,0.096-0.003,0.145C4.515,157.378,11.78,165.408,20.741,165.408z"/>
				<path fill="#454545"  a:adobe-blending-mode="normal" d="M20.741,165.378c8.952,0,16.211-8.028,16.211-17.932
					c0-0.05-0.003-0.099-0.004-0.146h0.004V7.224c0.08-0.694,0.665-1.615,0.665-1.615l0.082-0.114L37.283,5.85l-1.891,0.712
					l-2.149,0.067L31.384,7.09H12.96l-7.23-0.845L3.837,5.841C4.576,6.519,4.528,7.09,4.528,7.09v140.213h0.005
					c-0.001,0.047-0.003,0.096-0.003,0.145C4.53,157.35,11.789,165.378,20.741,165.378z"/>
				<path fill="#464646"  a:adobe-blending-mode="normal" d="M20.741,165.348c8.943,0,16.195-8.025,16.195-17.928
					c0-0.049-0.003-0.098-0.004-0.145h0.004V7.224c0.08-0.693,0.665-1.613,0.665-1.613l0.082-0.114l-0.416,0.354L35.38,6.563
					L33.231,6.63l-1.856,0.461H12.968L5.745,6.246L3.853,5.843c0.738,0.678,0.692,1.248,0.692,1.248v140.185h0.004
					c-0.001,0.048-0.003,0.097-0.003,0.146C4.546,157.321,11.797,165.348,20.741,165.348z"/>
				<path fill="#474747"  a:adobe-blending-mode="normal" d="M20.741,165.316c8.936,0,16.18-8.023,16.18-17.924
					c0-0.05-0.003-0.098-0.004-0.145h0.004V7.225c0.08-0.693,0.665-1.612,0.665-1.612l0.082-0.115l-0.416,0.354l-1.886,0.712
					L33.22,6.632l-1.854,0.46H12.975L5.759,6.247l-1.89-0.403c0.736,0.679,0.691,1.247,0.691,1.247v140.158h0.004
					c0,0.047-0.003,0.095-0.003,0.146C4.561,157.293,11.806,165.316,20.741,165.316z"/>
				<path fill="#484848"  a:adobe-blending-mode="normal" d="M20.741,165.288c8.927,0,16.165-8.022,16.165-17.921
					c0-0.051-0.004-0.098-0.005-0.146h0.005V7.226c0.079-0.694,0.665-1.611,0.665-1.611l0.08-0.115l-0.415,0.353l-1.885,0.712
					l-2.144,0.068l-1.854,0.46H12.981L5.772,6.248l-1.89-0.402C4.62,6.525,4.575,7.092,4.575,7.092v140.131h0.004
					c0,0.047-0.003,0.096-0.003,0.146C4.577,157.266,11.813,165.288,20.741,165.288z"/>
				<path fill="#4A4A4A"  a:adobe-blending-mode="normal" d="M20.741,165.258c8.918,0,16.148-8.021,16.148-17.918
					c0-0.049-0.003-0.097-0.004-0.145h0.004V7.226c0.08-0.693,0.664-1.61,0.664-1.61l0.081-0.115L37.22,5.854l-1.883,0.712
					l-2.143,0.067l-1.852,0.461H12.99L5.788,6.249l-1.89-0.401c0.736,0.679,0.692,1.245,0.692,1.245v140.104h0.004
					c0,0.048-0.003,0.096-0.003,0.145C4.592,157.234,11.823,165.258,20.741,165.258z"/>
				<path fill="#4B4B4B"  a:adobe-blending-mode="normal" d="M20.741,165.229c8.909,0,16.133-8.021,16.133-17.914
					c0-0.049-0.003-0.099-0.004-0.146h0.004V7.227c0.08-0.693,0.664-1.609,0.664-1.609l0.081-0.115l-0.415,0.352l-1.88,0.712
					l-2.141,0.067l-1.85,0.46H12.998L5.803,6.249L3.915,5.85c0.734,0.678,0.691,1.243,0.691,1.243v140.076H4.61
					c0,0.047-0.003,0.097-0.003,0.146C4.607,157.207,11.832,165.229,20.741,165.229z"/>
				<path fill="#4C4C4C"  a:adobe-blending-mode="normal" d="M20.741,165.197c8.9,0,16.117-8.02,16.117-17.91
					c0-0.049-0.003-0.098-0.004-0.145h0.004V7.228c0.08-0.693,0.664-1.608,0.664-1.608l0.08-0.116l-0.415,0.35l-1.879,0.711
					l-2.138,0.068l-1.848,0.46H13.005L5.816,6.25L3.931,5.852C4.666,6.53,4.623,7.094,4.623,7.094v140.048h0.004
					c0,0.047-0.003,0.097-0.003,0.146C4.624,157.18,11.84,165.197,20.741,165.197z"/>
				<path fill="#4D4D4D"  a:adobe-blending-mode="normal" d="M20.741,165.168c8.893,0,16.102-8.018,16.102-17.906
					c0-0.051-0.003-0.099-0.004-0.146h0.004V7.228c0.08-0.693,0.664-1.606,0.664-1.606l0.08-0.116l-0.415,0.351l-1.877,0.711
					l-2.136,0.068l-1.848,0.46h-18.3l-7.18-0.845L3.945,5.853C4.68,6.531,4.639,7.094,4.639,7.094v140.021h0.004
					c0,0.047-0.003,0.095-0.003,0.145C4.639,157.15,11.849,165.168,20.741,165.168z"/>
				<path fill="#4F4F4F"  a:adobe-blending-mode="normal" d="M20.741,165.139c8.884,0,16.086-8.017,16.086-17.904
					c0-0.049-0.003-0.098-0.004-0.145h0.004V7.228c0.079-0.693,0.664-1.605,0.664-1.605l0.08-0.117l-0.414,0.351l-1.875,0.711
					l-2.135,0.067l-1.845,0.46H13.02L5.846,6.252L3.961,5.855c0.732,0.678,0.692,1.239,0.692,1.239v139.995h0.005
					c-0.001,0.048-0.003,0.095-0.003,0.146C4.655,157.122,11.856,165.139,20.741,165.139z"/>
				<path fill="#505050"  a:adobe-blending-mode="normal" d="M20.741,165.107c8.876,0,16.07-8.014,16.07-17.9
					c0-0.049-0.003-0.098-0.004-0.145h0.004V7.228c0.079-0.692,0.664-1.604,0.664-1.604l0.079-0.116l-0.414,0.35l-1.874,0.71
					l-2.132,0.067l-1.843,0.46H13.026L5.859,6.253L3.977,5.857C4.709,6.535,4.67,7.095,4.67,7.095v139.967h0.004
					c-0.001,0.047-0.003,0.096-0.003,0.145C4.67,157.094,11.866,165.107,20.741,165.107z"/>
				<path fill="#515151"  a:adobe-blending-mode="normal" d="M20.741,165.077c8.866,0,16.056-8.013,16.056-17.896
					c0-0.05-0.003-0.098-0.004-0.146h0.004V7.229c0.079-0.692,0.663-1.604,0.663-1.604l0.079-0.117l-0.414,0.35l-1.872,0.71
					l-2.129,0.068l-1.841,0.46H13.035l-7.16-0.843L3.993,5.859c0.731,0.678,0.692,1.237,0.692,1.237v139.939h0.004
					c-0.001,0.048-0.003,0.096-0.003,0.145C4.686,157.064,11.874,165.077,20.741,165.077z"/>
				<path fill="#525252"  a:adobe-blending-mode="normal" d="M20.741,165.048c8.857,0,16.04-8.012,16.04-17.894
					c0-0.049-0.004-0.098-0.005-0.146h0.005V7.23c0.078-0.693,0.662-1.603,0.662-1.603l0.079-0.117l-0.414,0.349l-1.869,0.71
					L33.11,6.638l-1.839,0.459H13.042L5.889,6.254L4.008,5.861c0.731,0.677,0.693,1.236,0.693,1.236V147.01h0.004
					c-0.001,0.047-0.003,0.096-0.003,0.146C4.702,157.036,11.883,165.048,20.741,165.048z"/>
				<path fill="#545454"  a:adobe-blending-mode="normal" d="M20.741,165.018c8.85,0,16.023-8.01,16.023-17.89
					c0-0.049-0.003-0.098-0.004-0.146h0.004V7.23c0.079-0.692,0.663-1.601,0.663-1.601l0.079-0.118l-0.414,0.348L35.225,6.57
					l-2.126,0.068l-1.837,0.46H13.05L5.902,6.255l-1.88-0.392C4.754,6.54,4.716,7.098,4.716,7.098v139.886H4.72
					c0,0.047-0.003,0.096-0.003,0.145C4.717,157.008,11.892,165.018,20.741,165.018z"/>
				<path fill="#555555"  a:adobe-blending-mode="normal" d="M20.741,164.986c8.841,0,16.009-8.008,16.009-17.885
					c0-0.051-0.003-0.099-0.004-0.146h0.004V7.231c0.079-0.692,0.663-1.6,0.663-1.6l0.078-0.118L37.077,5.86l-1.866,0.711
					l-2.123,0.067l-1.836,0.46H13.057L5.918,6.256L4.039,5.865c0.729,0.677,0.692,1.233,0.692,1.233v139.858h0.004
					c0,0.047-0.003,0.095-0.003,0.146C4.732,156.979,11.899,164.986,20.741,164.986z"/>
				<path fill="#565656"  a:adobe-blending-mode="normal" d="M20.741,164.957c8.833,0,15.992-8.006,15.992-17.883
					c0-0.049-0.003-0.098-0.004-0.145h0.004V7.232c0.079-0.692,0.663-1.6,0.663-1.6l0.078-0.117l-0.413,0.346l-1.864,0.71
					l-2.121,0.068l-1.834,0.459H13.064L5.933,6.257l-1.878-0.39c0.729,0.677,0.693,1.232,0.693,1.232v139.833h0.004
					c0,0.047-0.003,0.094-0.003,0.144C4.749,156.951,11.909,164.957,20.741,164.957z"/>
				<path fill="#585858"  a:adobe-blending-mode="normal" d="M20.741,164.928c8.823,0,15.978-8.005,15.978-17.88
					c0-0.049-0.003-0.097-0.004-0.146h0.004V7.232c0.079-0.691,0.662-1.598,0.662-1.598l0.078-0.118l-0.413,0.346l-1.862,0.71
					l-2.12,0.067l-1.832,0.46H13.072L5.947,6.258L4.069,5.869c0.729,0.677,0.693,1.23,0.693,1.23v139.803h0.004
					c0,0.049-0.003,0.097-0.003,0.146C4.764,156.923,11.917,164.928,20.741,164.928z"/>
				<path fill="#595959"  a:adobe-blending-mode="normal" d="M20.741,164.896c8.814,0,15.962-8.002,15.962-17.875
					c0-0.049-0.003-0.099-0.004-0.146h0.004V7.233c0.079-0.692,0.662-1.597,0.662-1.597l0.076-0.118l-0.413,0.345l-1.859,0.71
					L33.052,6.64L31.221,7.1H13.08L5.961,6.258L4.085,5.871C4.813,6.547,4.777,7.1,4.777,7.1v139.776h0.005
					c0,0.047-0.004,0.097-0.004,0.146C4.778,156.895,11.926,164.896,20.741,164.896z"/>
				<path fill="#5A5A5A"  a:adobe-blending-mode="normal" d="M20.741,164.867c8.807,0,15.945-8.002,15.945-17.872
					c0-0.049-0.003-0.099-0.004-0.146h0.004V7.234c0.079-0.692,0.662-1.596,0.662-1.596l0.077-0.119l-0.413,0.345l-1.859,0.71
					l-2.114,0.067L31.21,7.1H13.087L5.976,6.259L4.101,5.873c0.728,0.676,0.693,1.228,0.693,1.228v139.75h0.004
					c0,0.047-0.003,0.096-0.003,0.145C4.795,156.865,11.935,164.867,20.741,164.867z"/>
				<path fill="#5B5B5B"  a:adobe-blending-mode="normal" d="M20.741,164.837c8.798,0,15.931-8,15.931-17.868
					c0-0.05-0.003-0.098-0.004-0.145h0.004V7.234c0.079-0.691,0.662-1.594,0.662-1.594l0.077-0.119l-0.413,0.344l-1.857,0.709
					l-2.113,0.068l-1.826,0.459H13.095L5.99,6.26L4.117,5.875C4.843,6.551,4.81,7.102,4.81,7.102v139.723h0.004
					c0,0.047-0.003,0.095-0.003,0.146C4.811,156.837,11.942,164.837,20.741,164.837z"/>
				<path fill="#5D5D5D"  a:adobe-blending-mode="normal" d="M20.741,164.807c8.79,0,15.915-7.998,15.915-17.865
					c0-0.049-0.004-0.096-0.005-0.144h0.005V7.235c0.078-0.691,0.661-1.593,0.661-1.593l0.076-0.12l-0.412,0.344l-1.854,0.709
					l-2.111,0.067l-1.825,0.46H13.102L6.004,6.261L4.132,5.877c0.726,0.676,0.694,1.226,0.694,1.226v139.695H4.83
					c-0.001,0.048-0.003,0.095-0.003,0.144C4.826,156.809,11.952,164.807,20.741,164.807z"/>
				<path fill="#5E5E5E"  a:adobe-blending-mode="normal" d="M20.741,164.777c8.78,0,15.898-7.997,15.898-17.862
					c0-0.049-0.003-0.097-0.004-0.146h0.004V7.235c0.079-0.691,0.661-1.592,0.661-1.592l0.076-0.119l-0.412,0.343L35.11,6.576
					l-2.108,0.067l-1.823,0.459h-18.07l-7.09-0.841L4.146,5.879c0.726,0.676,0.694,1.224,0.694,1.224v139.668h0.004
					c-0.001,0.047-0.003,0.096-0.003,0.145C4.842,156.78,11.96,164.777,20.741,164.777z"/>
				<path fill="#5F5F5F"  a:adobe-blending-mode="normal" d="M20.741,164.747c8.771,0,15.884-7.995,15.884-17.858
					c0-0.049-0.003-0.097-0.003-0.145h0.004V7.236c0.078-0.691,0.661-1.591,0.661-1.591l0.076-0.12l-0.414,0.343l-1.852,0.709
					l-2.106,0.067L31.17,7.103H13.117l-7.084-0.84l-1.87-0.382c0.724,0.676,0.693,1.223,0.693,1.223v139.641H4.86
					c-0.001,0.048-0.003,0.096-0.003,0.146C4.856,156.752,11.969,164.747,20.741,164.747z"/>
				<path fill="#606060"  a:adobe-blending-mode="normal" d="M20.741,164.717c8.764,0,15.867-7.992,15.867-17.854
					c0-0.049-0.003-0.098-0.003-0.146h0.004V7.237c0.078-0.691,0.661-1.59,0.661-1.59l0.075-0.12l-0.412,0.341l-1.85,0.709
					l-2.104,0.068L31.16,7.104H13.124L6.048,6.263l-1.869-0.38c0.723,0.675,0.694,1.221,0.694,1.221v139.614h0.003
					c0,0.048-0.003,0.097-0.003,0.146C4.873,156.725,11.978,164.717,20.741,164.717z"/>
				<path fill="#626262"  a:adobe-blending-mode="normal" d="M20.741,164.686c8.755,0,15.853-7.992,15.853-17.851
					c0-0.05-0.003-0.098-0.003-0.146h0.004V7.237c0.078-0.69,0.66-1.588,0.66-1.588l0.075-0.121l-0.412,0.341l-1.85,0.709
					l-2.103,0.067l-1.818,0.459H13.132l-7.07-0.84L4.193,5.885c0.724,0.675,0.694,1.22,0.694,1.22v139.586h0.003
					c0,0.048-0.003,0.096-0.003,0.146C4.889,156.693,11.985,164.686,20.741,164.686z"/>
				<path fill="#636363"  a:adobe-blending-mode="normal" d="M20.741,164.657c8.747,0,15.837-7.991,15.837-17.849
					c0-0.05-0.003-0.098-0.003-0.145h0.003V7.238c0.078-0.691,0.66-1.587,0.66-1.587l0.074-0.121L36.9,5.87l-1.846,0.709
					l-2.101,0.067l-1.816,0.459H13.14l-7.063-0.84L4.209,5.887c0.722,0.675,0.693,1.219,0.693,1.219v139.56h0.004
					c0,0.047-0.004,0.096-0.004,0.145C4.903,156.666,11.995,164.657,20.741,164.657z"/>
				<path fill="#646464"  a:adobe-blending-mode="normal" d="M20.741,164.627c8.737,0,15.82-7.988,15.82-17.845
					c0-0.05-0.003-0.097-0.003-0.144h0.004V7.239c0.078-0.691,0.66-1.587,0.66-1.587l0.075-0.121l-0.411,0.34L35.042,6.58
					l-2.099,0.067l-1.815,0.458H13.146l-7.056-0.84L4.225,5.888c0.721,0.676,0.694,1.218,0.694,1.218v139.533h0.004
					c0,0.047-0.003,0.096-0.003,0.145C4.92,156.639,12.003,164.627,20.741,164.627z"/>
				<path fill="#656565"  a:adobe-blending-mode="normal" d="M20.741,164.598c8.729,0,15.806-7.988,15.806-17.842
					c0-0.049-0.003-0.097-0.003-0.145h0.004V7.239c0.078-0.69,0.66-1.585,0.66-1.585l0.074-0.121l-0.411,0.339L35.028,6.58
					l-2.098,0.068l-1.813,0.458H13.153l-7.049-0.84L4.241,5.89c0.721,0.676,0.693,1.217,0.693,1.217v139.505h0.003
					c0,0.048-0.003,0.096-0.003,0.145C4.936,156.609,12.012,164.598,20.741,164.598z"/>
				<path fill="#676767"  a:adobe-blending-mode="normal" d="M20.741,164.566c8.721,0,15.79-7.985,15.79-17.838
					c0-0.049-0.004-0.098-0.004-0.145h0.005V7.24c0.077-0.69,0.659-1.584,0.659-1.584l0.074-0.122l-0.411,0.339l-1.84,0.708
					l-2.097,0.067l-1.811,0.459H13.162L6.12,6.267L4.256,5.892C4.976,6.567,4.95,7.108,4.95,7.108v139.478h0.004
					c0,0.047-0.003,0.096-0.003,0.145C4.951,156.581,12.021,164.566,20.741,164.566z"/>
				<path fill="#686868"  a:adobe-blending-mode="normal" d="M20.741,164.537c8.712,0,15.773-7.984,15.773-17.834
					c0-0.049-0.003-0.098-0.003-0.145h0.004V7.24c0.078-0.69,0.659-1.582,0.659-1.582l0.074-0.122l-0.411,0.338l-1.839,0.708
					l-2.092,0.067l-1.81,0.458H13.169L6.134,6.268L4.271,5.894c0.721,0.674,0.695,1.213,0.695,1.213v139.452H4.97
					c0,0.047-0.003,0.096-0.003,0.145C4.966,156.553,12.028,164.537,20.741,164.537z"/>
				<path fill="#696969"  a:adobe-blending-mode="normal" d="M20.741,164.507c8.702,0,15.759-7.983,15.759-17.831
					c0-0.049-0.003-0.097-0.003-0.144h0.004V7.241c0.077-0.69,0.659-1.581,0.659-1.581l0.072-0.123l-0.41,0.338l-1.838,0.708
					l-2.09,0.067l-1.808,0.458h-17.91l-7.028-0.84L4.287,5.895C5.006,6.57,4.98,7.108,4.98,7.108v139.424h0.004
					c0,0.047-0.003,0.095-0.003,0.144C4.981,156.523,12.038,164.507,20.741,164.507z"/>
				<path fill="#6B6B6B"  a:adobe-blending-mode="normal" d="M20.741,164.477c8.694,0,15.742-7.98,15.742-17.826
					c0-0.049-0.003-0.098-0.003-0.145h0.004V7.242c0.077-0.69,0.659-1.58,0.659-1.58l0.073-0.123l-0.41,0.337l-1.835,0.708
					l-2.088,0.067l-1.805,0.458H13.184l-7.021-0.84l-1.86-0.372c0.718,0.675,0.694,1.212,0.694,1.212v139.396h0.004
					C5,146.552,4.998,146.6,4.998,146.648C4.998,156.495,12.046,164.477,20.741,164.477z"/>
				<path fill="#6C6C6C"  a:adobe-blending-mode="normal" d="M20.741,164.446c8.686,0,15.728-7.979,15.728-17.823
					c0-0.049-0.003-0.098-0.003-0.145h0.004V7.242c0.077-0.689,0.659-1.579,0.659-1.579l0.073-0.123l-0.41,0.337l-1.833,0.707
					l-2.086,0.067l-1.804,0.458H13.191L6.178,6.27l-1.86-0.371c0.718,0.675,0.694,1.21,0.694,1.21v139.37h0.004
					c-0.001,0.047-0.003,0.096-0.003,0.145C5.013,156.467,12.055,164.446,20.741,164.446z"/>
				<path fill="#6D6D6D"  a:adobe-blending-mode="normal" d="M20.741,164.417c8.677,0,15.712-7.979,15.712-17.819
					c0-0.05-0.003-0.098-0.003-0.146h0.004V7.243c0.077-0.69,0.659-1.578,0.659-1.578l0.071-0.123l-0.41,0.335l-1.832,0.708
					l-2.085,0.067L31.056,7.11H13.199L6.191,6.271l-1.857-0.37C5.05,6.576,5.027,7.11,5.027,7.11v139.342h0.004
					c0,0.048-0.004,0.096-0.004,0.146C5.028,156.438,12.063,164.417,20.741,164.417z"/>
				<path fill="#6E6E6E"  a:adobe-blending-mode="normal" d="M20.741,164.387c8.669,0,15.695-7.977,15.695-17.815
					c0-0.05-0.003-0.099-0.003-0.146h0.004V7.244c0.077-0.69,0.658-1.577,0.658-1.577l0.072-0.124l-0.41,0.335l-1.83,0.708
					l-2.082,0.067l-1.8,0.458h-17.84l-7-0.84L4.349,5.903c0.716,0.674,0.695,1.208,0.695,1.208v139.314h0.003
					c0,0.048-0.003,0.097-0.003,0.146C5.044,156.41,12.072,164.387,20.741,164.387z"/>
				<path fill="#707070"  a:adobe-blending-mode="normal" d="M20.74,164.355c8.66,0,15.681-7.975,15.681-17.813
					c0-0.049-0.003-0.097-0.003-0.145h0.004V7.244c0.077-0.689,0.658-1.575,0.658-1.575l0.071-0.124l-0.409,0.334l-1.828,0.708
					l-2.08,0.067l-1.798,0.457H13.214L6.221,6.272L4.365,5.905C5.08,6.579,5.06,7.111,5.06,7.111v139.288h0.003
					c0,0.048-0.003,0.096-0.003,0.145C5.06,156.382,12.081,164.355,20.74,164.355z"/>
				<path fill="#717171"  a:adobe-blending-mode="normal" d="M20.74,164.326c8.651,0,15.666-7.975,15.666-17.811
					c0-0.049-0.004-0.097-0.004-0.144h0.005V7.245c0.076-0.689,0.657-1.574,0.657-1.574l0.072-0.125l-0.41,0.334L34.9,6.587
					l-2.077,0.067l-1.797,0.458H13.222L6.234,6.273L4.38,5.907c0.714,0.674,0.695,1.205,0.695,1.205v139.261h0.003
					c0,0.047-0.003,0.095-0.003,0.145C5.076,156.354,12.089,164.326,20.74,164.326z"/>
				<path fill="#727272"  a:adobe-blending-mode="normal" d="M20.74,164.297c8.644,0,15.649-7.973,15.649-17.807
					c0-0.049-0.003-0.098-0.003-0.145h0.004V7.245c0.077-0.688,0.658-1.573,0.658-1.573l0.071-0.124l-0.409,0.333l-1.825,0.707
					L32.81,6.655l-1.794,0.458H13.229L6.25,6.274L4.395,5.909C5.108,6.583,5.09,7.113,5.09,7.113v139.232h0.003
					c0,0.047-0.003,0.096-0.003,0.145C5.091,156.324,12.098,164.297,20.74,164.297z"/>
				<path fill="#737373"  a:adobe-blending-mode="normal" d="M20.74,164.268c8.635,0,15.634-7.972,15.634-17.804
					c0-0.049-0.003-0.097-0.003-0.144h0.004V7.246c0.077-0.689,0.658-1.572,0.658-1.572l0.07-0.124l-0.409,0.332l-1.821,0.707
					l-2.075,0.067l-1.792,0.457h-17.77L6.264,6.275L4.411,5.911c0.713,0.674,0.694,1.202,0.694,1.202V146.32h0.003
					c0,0.047-0.003,0.095-0.003,0.144C5.106,156.296,12.106,164.268,20.74,164.268z"/>
				<path fill="#757575"  a:adobe-blending-mode="normal" d="M20.74,164.236c8.626,0,15.618-7.969,15.618-17.799
					c0-0.049-0.003-0.098-0.003-0.146h0.004V7.247c0.077-0.689,0.657-1.571,0.657-1.571l0.071-0.125l-0.41,0.332l-1.82,0.707
					l-2.071,0.067l-1.791,0.457H13.244L6.278,6.276L4.427,5.913c0.712,0.674,0.695,1.201,0.695,1.201v139.179h0.003
					c0,0.048-0.003,0.096-0.003,0.145C5.123,156.268,12.115,164.236,20.74,164.236z"/>
				<path fill="#767676"  a:adobe-blending-mode="normal" d="M20.74,164.206c8.617,0,15.603-7.967,15.603-17.795
					c0-0.05-0.003-0.099-0.003-0.146h0.004V7.247c0.076-0.688,0.657-1.569,0.657-1.569l0.07-0.125l-0.409,0.331L34.843,6.59
					l-2.07,0.067l-1.789,0.458H13.251L6.293,6.276L4.441,5.915c0.711,0.673,0.695,1.2,0.695,1.2v139.15H5.14
					c0,0.047-0.003,0.096-0.003,0.146C5.138,156.239,12.124,164.206,20.74,164.206z"/>
				<path fill="#777777"  a:adobe-blending-mode="normal" d="M20.74,164.176c8.608,0,15.587-7.965,15.587-17.792
					c0-0.049-0.003-0.097-0.003-0.144h0.004V7.248c0.077-0.688,0.656-1.568,0.656-1.568l0.07-0.126l-0.409,0.331l-1.816,0.706
					l-2.067,0.067l-1.787,0.457H13.259L6.308,6.277l-1.85-0.36c0.71,0.673,0.694,1.198,0.694,1.198V146.24h0.005
					c0,0.047-0.004,0.095-0.004,0.144C5.153,156.211,12.133,164.176,20.74,164.176z"/>
				<path fill="#797979"  a:adobe-blending-mode="normal" d="M20.74,164.146c8.6,0,15.571-7.965,15.571-17.789
					c0-0.049-0.003-0.098-0.003-0.145h0.004V7.249C36.39,6.56,36.97,5.682,36.97,5.682l0.07-0.126l-0.408,0.33l-1.815,0.706
					l-2.064,0.067l-1.786,0.457H13.267L6.322,6.278l-1.85-0.359c0.71,0.673,0.695,1.197,0.695,1.197v139.098h0.004
					c-0.001,0.048-0.003,0.095-0.003,0.144C5.169,156.182,12.141,164.146,20.74,164.146z"/>
				<path fill="#7A7A7A"  a:adobe-blending-mode="normal" d="M20.74,164.116c8.592,0,15.556-7.964,15.556-17.785
					c0-0.049-0.003-0.097-0.003-0.144h0.004V7.249c0.077-0.688,0.657-1.566,0.657-1.566l0.068-0.126l-0.407,0.329l-1.813,0.707
					L32.738,6.66l-1.784,0.457H13.273L6.336,6.279L4.489,5.921c0.709,0.673,0.694,1.196,0.694,1.196v139.07h0.003
					c0,0.047-0.003,0.095-0.003,0.144C5.185,156.152,12.149,164.116,20.74,164.116z"/>
				<path fill="#7B7B7B"  a:adobe-blending-mode="normal" d="M20.74,164.086c8.583,0,15.541-7.961,15.541-17.781
					c0-0.049-0.004-0.097-0.004-0.144h0.005V7.25c0.075-0.688,0.655-1.565,0.655-1.565l0.069-0.126l-0.408,0.328l-1.812,0.706
					L32.725,6.66l-1.782,0.457H13.281L6.351,6.28L4.504,5.923c0.708,0.673,0.695,1.194,0.695,1.194v139.044h0.003
					c0,0.047-0.003,0.095-0.003,0.144C5.2,156.125,12.158,164.086,20.74,164.086z"/>
				<path fill="#7C7C7C"  a:adobe-blending-mode="normal" d="M20.74,164.057c8.573,0,15.524-7.959,15.524-17.777
					c0-0.051-0.003-0.098-0.003-0.146h0.004V7.25c0.076-0.688,0.656-1.563,0.656-1.563l0.069-0.127l-0.408,0.328l-1.811,0.706
					l-2.059,0.067l-1.78,0.457H13.289L6.365,6.28L4.52,5.925c0.708,0.672,0.695,1.193,0.695,1.193v139.016h0.003
					c0,0.048-0.003,0.095-0.003,0.146C5.216,156.098,12.167,164.057,20.74,164.057z"/>
				<path fill="#7E7E7E"  a:adobe-blending-mode="normal" d="M20.74,164.025c8.565,0,15.509-7.957,15.509-17.774
					c0-0.049-0.003-0.097-0.003-0.144h0.004V7.251c0.076-0.688,0.656-1.563,0.656-1.563l0.067-0.127l-0.408,0.327l-1.808,0.706
					l-2.057,0.067l-1.778,0.457H13.296L6.38,6.281L4.535,5.927C5.243,6.599,5.23,7.119,5.23,7.119v138.988h0.003
					c0,0.047-0.003,0.095-0.003,0.144C5.23,156.068,12.176,164.025,20.74,164.025z"/>
				<path fill="#7F7F7F"  a:adobe-blending-mode="normal" d="M20.74,163.996c8.557,0,15.493-7.956,15.493-17.771
					c0-0.049-0.003-0.097-0.003-0.144h0.004V7.252c0.076-0.688,0.656-1.562,0.656-1.562l0.069-0.128l-0.408,0.327l-1.806,0.706
					L32.69,6.662l-1.775,0.456H13.304l-6.91-0.837L4.551,5.929c0.707,0.672,0.696,1.19,0.696,1.19v138.962H5.25
					c0,0.047-0.003,0.095-0.003,0.144C5.247,156.04,12.184,163.996,20.74,163.996z"/>
				<path fill="#808080"  a:adobe-blending-mode="normal" d="M20.74,163.966c8.548,0,15.478-7.954,15.478-17.768
					c0-0.05-0.003-0.097-0.003-0.144h0.004V7.252c0.076-0.688,0.656-1.561,0.656-1.561l0.067-0.127L36.535,5.89L34.73,6.595
					l-2.053,0.068L30.902,7.12H13.311L6.409,6.283L4.565,5.93c0.706,0.673,0.696,1.19,0.696,1.19v138.935h0.003
					c0,0.047-0.003,0.096-0.003,0.145C5.263,156.012,12.192,163.966,20.74,163.966z"/>
				<path fill="#818181"  a:adobe-blending-mode="normal" d="M20.74,163.936c8.54,0,15.462-7.953,15.462-17.764
					c0-0.049-0.003-0.097-0.003-0.145h0.004V7.253c0.075-0.688,0.654-1.56,0.654-1.56l0.068-0.128l-0.408,0.326l-1.802,0.705
					l-2.051,0.067l-1.773,0.456H13.318L6.423,6.284L4.582,5.932C5.287,6.604,5.277,7.12,5.277,7.12v138.907h0.004
					c0,0.048-0.004,0.096-0.004,0.145C5.277,155.982,12.201,163.936,20.74,163.936z"/>
				<path fill="#838383"  a:adobe-blending-mode="normal" d="M20.74,163.906c8.53,0,15.446-7.952,15.446-17.762
					c0-0.049-0.003-0.097-0.003-0.144h0.004V7.254c0.076-0.688,0.655-1.559,0.655-1.559l0.068-0.128l-0.408,0.325l-1.8,0.705
					l-2.05,0.067L30.883,7.12H13.326l-6.89-0.835l-1.84-0.352c0.705,0.673,0.696,1.188,0.696,1.188v138.881h0.003
					c0,0.047-0.003,0.096-0.003,0.145C5.294,155.954,12.21,163.906,20.74,163.906z"/>
				<path fill="#848484"  a:adobe-blending-mode="normal" d="M20.74,163.876c8.521,0,15.431-7.95,15.431-17.758
					c0-0.05-0.003-0.097-0.003-0.144h0.004V7.254c0.076-0.688,0.655-1.557,0.655-1.557l0.066-0.129l-0.407,0.325l-1.799,0.706
					l-2.047,0.067l-1.77,0.456H13.334L6.452,6.285l-1.839-0.35c0.703,0.672,0.695,1.187,0.695,1.187v138.853h0.003
					c0,0.047-0.003,0.096-0.003,0.145C5.31,155.926,12.219,163.876,20.74,163.876z"/>
				<path fill="#858585"  a:adobe-blending-mode="normal" d="M20.74,163.846c8.514,0,15.416-7.947,15.416-17.754
					c0-0.049-0.004-0.097-0.004-0.144h0.005V7.255c0.075-0.688,0.654-1.556,0.654-1.556l0.066-0.129l-0.407,0.324l-1.797,0.704
					l-2.045,0.067L30.86,7.121h-17.52L6.466,6.286L4.628,5.937c0.703,0.672,0.696,1.185,0.696,1.185v138.826h0.004
					c0,0.047-0.003,0.095-0.003,0.144C5.325,155.896,12.227,163.846,20.74,163.846z"/>
				<path fill="#868686"  a:adobe-blending-mode="normal" d="M20.74,163.814c8.505,0,15.399-7.945,15.399-17.75
					c0-0.049-0.003-0.097-0.003-0.144h0.004V7.255C36.217,6.568,36.796,5.7,36.796,5.7l0.067-0.129l-0.407,0.323l-1.795,0.705
					l-2.043,0.067l-1.767,0.456H13.349L6.48,6.287L4.644,5.939C5.346,6.611,5.34,7.123,5.34,7.123v138.799h0.003
					c0,0.047-0.002,0.096-0.002,0.145C5.341,155.869,12.235,163.814,20.74,163.814z"/>
				<path fill="#888888"  a:adobe-blending-mode="normal" d="M20.74,163.786c8.496,0,15.384-7.946,15.384-17.747
					c0-0.049-0.003-0.098-0.003-0.145h0.004V7.256c0.076-0.688,0.653-1.554,0.653-1.554l0.067-0.129l-0.407,0.322L34.646,6.6
					l-2.041,0.068L30.84,7.124H13.355l-6.86-0.836L4.659,5.941C5.36,6.613,5.355,7.124,5.355,7.124v138.771h0.003
					c0,0.047-0.003,0.096-0.003,0.145C5.355,155.84,12.244,163.786,20.74,163.786z"/>
				<path fill="#898989"  a:adobe-blending-mode="normal" d="M20.74,163.756c8.487,0,15.368-7.943,15.368-17.742
					c0-0.05-0.003-0.098-0.003-0.145h0.004V7.257c0.076-0.688,0.654-1.553,0.654-1.553l0.066-0.13l-0.407,0.322l-1.792,0.705
					l-2.039,0.067l-1.763,0.455H13.364L6.51,6.289L4.675,5.943c0.701,0.672,0.696,1.181,0.696,1.181v138.745h0.003
					c0,0.047-0.003,0.095-0.003,0.145C5.372,155.811,12.253,163.756,20.74,163.756z"/>
				<path fill="#8A8A8A"  a:adobe-blending-mode="normal" d="M20.74,163.727c8.479,0,15.353-7.942,15.353-17.74
					c0-0.049-0.003-0.098-0.003-0.144h0.004V7.257c0.076-0.687,0.654-1.551,0.654-1.551l0.065-0.13l-0.405,0.321l-1.79,0.704
					l-2.037,0.067l-1.762,0.456H13.371L6.523,6.289L4.689,5.945c0.7,0.671,0.696,1.18,0.696,1.18v138.718h0.003
					c0,0.046-0.003,0.095-0.003,0.144C5.387,155.783,12.262,163.727,20.74,163.727z"/>
				<path fill="#8C8C8C"  a:adobe-blending-mode="normal" d="M20.74,163.695c8.471,0,15.337-7.94,15.337-17.736
					c0-0.049-0.003-0.097-0.003-0.145h0.004V7.258c0.075-0.687,0.653-1.55,0.653-1.55l0.066-0.131l-0.406,0.321l-1.788,0.704
					l-2.034,0.067l-1.759,0.456H13.378l-6.84-0.836L4.706,5.947c0.699,0.671,0.695,1.179,0.695,1.179v138.688h0.004
					c0,0.048-0.004,0.096-0.004,0.145C5.402,155.755,12.27,163.695,20.74,163.695z"/>
				<path fill="#8D8D8D"  a:adobe-blending-mode="normal" d="M20.74,163.666c8.462,0,15.321-7.939,15.321-17.732
					c0-0.05-0.003-0.098-0.003-0.145h0.004V7.259c0.076-0.688,0.654-1.549,0.654-1.549l0.065-0.131l-0.406,0.32L34.59,6.603
					L32.557,6.67L30.8,7.125H13.386L6.553,6.291L4.721,5.949C5.42,6.62,5.418,7.126,5.418,7.126v138.663h0.003
					c0,0.047-0.003,0.095-0.003,0.145C5.418,155.727,12.278,163.666,20.74,163.666z"/>
				<path fill="#8E8E8E"  a:adobe-blending-mode="normal" d="M20.74,163.637c8.453,0,15.306-7.938,15.306-17.729
					c0-0.05-0.003-0.097-0.003-0.144h0.004V7.259c0.075-0.687,0.654-1.548,0.654-1.548l0.064-0.13L36.359,5.9l-1.783,0.704
					l-2.031,0.067L30.79,7.126H13.394L6.566,6.292l-1.83-0.341c0.698,0.671,0.697,1.176,0.697,1.176v138.637h0.003
					c0,0.047-0.003,0.094-0.003,0.144C5.434,155.698,12.288,163.637,20.74,163.637z"/>
				<path fill="#8F8F8F"  a:adobe-blending-mode="normal" d="M20.74,163.605c8.444,0,15.291-7.938,15.291-17.727
					c0-0.049-0.004-0.097-0.004-0.145h0.005V7.26c0.074-0.687,0.652-1.547,0.652-1.547l0.065-0.131l-0.406,0.319l-1.782,0.703
					l-2.027,0.067l-1.756,0.457H13.4L6.582,6.293l-1.829-0.34C5.45,6.624,5.449,7.128,5.449,7.128v138.608h0.003
					c0,0.047-0.003,0.095-0.003,0.144C5.45,155.669,12.296,163.605,20.74,163.605z"/>
				<path fill="#919191"  a:adobe-blending-mode="normal" d="M20.74,163.575c8.437,0,15.274-7.935,15.274-17.724
					c0-0.049-0.003-0.096-0.003-0.143h0.004V7.26c0.075-0.686,0.653-1.545,0.653-1.545l0.063-0.131l-0.404,0.318l-1.78,0.703
					l-2.026,0.067l-1.753,0.456H13.409L6.596,6.294L4.768,5.955c0.696,0.671,0.697,1.173,0.697,1.173V145.71h0.003
					c0,0.047-0.003,0.095-0.003,0.144C5.465,155.641,12.305,163.575,20.74,163.575z"/>
				<path fill="#929292"  a:adobe-blending-mode="normal" d="M20.74,163.545c8.428,0,15.26-7.934,15.26-17.719
					c0-0.049-0.003-0.098-0.003-0.143h0.004V7.261c0.075-0.686,0.652-1.544,0.652-1.544l0.064-0.132l-0.405,0.318l-1.778,0.703
					L32.51,6.673l-1.75,0.455H13.416L6.609,6.294L4.784,5.957C5.479,6.627,5.48,7.129,5.48,7.129v138.555h0.003
					c0,0.047-0.003,0.094-0.003,0.144C5.48,155.611,12.313,163.545,20.74,163.545z"/>
				<path fill="#939393"  a:adobe-blending-mode="normal" d="M20.74,163.516c8.419,0,15.243-7.932,15.243-17.716
					c0-0.049-0.003-0.097-0.003-0.144h0.004V7.262c0.075-0.687,0.653-1.543,0.653-1.543l0.064-0.132l-0.405,0.316L34.52,6.607
					l-2.021,0.067l-1.749,0.455H13.423L6.625,6.295L4.799,5.959C5.494,6.629,5.496,7.13,5.496,7.13v138.526h0.003
					c0,0.047-0.002,0.095-0.002,0.144C5.497,155.584,12.322,163.516,20.74,163.516z"/>
				<path fill="#949494"  a:adobe-blending-mode="normal" d="M20.74,163.484c8.41,0,15.229-7.93,15.229-17.711
					c0-0.049-0.003-0.098-0.003-0.145h0.004V7.262c0.075-0.686,0.653-1.542,0.653-1.542l0.063-0.132l-0.404,0.316l-1.775,0.703
					l-2.021,0.067L30.738,7.13H13.431L6.64,6.296L4.813,5.961C5.508,6.631,5.511,7.13,5.511,7.13v138.5h0.003
					c0,0.047-0.002,0.095-0.002,0.144C5.512,155.557,12.331,163.484,20.74,163.484z"/>
				<path fill="#969696"  a:adobe-blending-mode="normal" d="M20.74,163.455c8.401,0,15.213-7.928,15.213-17.708
					c0-0.049-0.003-0.097-0.003-0.144h0.004V7.263c0.074-0.686,0.651-1.541,0.651-1.541l0.063-0.132l-0.405,0.315l-1.772,0.703
					l-2.019,0.067l-1.745,0.456h-17.29L6.653,6.297L4.83,5.963c0.692,0.67,0.696,1.168,0.696,1.168v138.473H5.53
					c0,0.047-0.003,0.096-0.003,0.145C5.527,155.527,12.339,163.455,20.74,163.455z"/>
				<path fill="#979797"  a:adobe-blending-mode="normal" d="M20.74,163.425c8.394,0,15.196-7.927,15.196-17.704
					c0-0.049-0.003-0.097-0.003-0.144h0.004V7.264c0.075-0.686,0.652-1.54,0.652-1.54l0.063-0.133l-0.404,0.315l-1.771,0.703
					l-2.016,0.067l-1.743,0.456H13.445L6.668,6.298L4.846,5.965c0.693,0.67,0.697,1.167,0.697,1.167v138.445h0.003
					c0,0.047-0.002,0.095-0.002,0.144C5.543,155.498,12.348,163.425,20.74,163.425z"/>
				<path fill="#989898"  a:adobe-blending-mode="normal" d="M20.74,163.395c8.385,0,15.182-7.926,15.182-17.701
					c0-0.049-0.003-0.096-0.003-0.144h0.004V7.264c0.075-0.686,0.652-1.538,0.652-1.538l0.063-0.133l-0.404,0.314l-1.77,0.703
					l-2.015,0.068l-1.741,0.454H13.453L6.683,6.299L4.86,5.967c0.692,0.67,0.698,1.165,0.698,1.165v138.419h0.003
					c0,0.047-0.003,0.094-0.003,0.143C5.559,155.471,12.355,163.395,20.74,163.395z"/>
				<path fill="#9A9A9A"  a:adobe-blending-mode="normal" d="M20.74,163.365c8.376,0,15.166-7.924,15.166-17.698
					c0-0.049-0.004-0.097-0.004-0.144h0.005V7.265c0.073-0.686,0.65-1.537,0.65-1.537l0.063-0.134l-0.405,0.314l-1.768,0.703
					l-2.013,0.067l-1.738,0.455H13.461L6.697,6.299l-1.821-0.33c0.691,0.669,0.698,1.164,0.698,1.164v138.393h0.003
					c0,0.046-0.003,0.094-0.003,0.143C5.574,155.441,12.365,163.365,20.74,163.365z"/>
				<path fill="#9B9B9B"  a:adobe-blending-mode="normal" d="M20.74,163.335c8.367,0,15.149-7.922,15.149-17.694
					c0-0.049-0.003-0.097-0.003-0.144h0.004V7.265c0.075-0.685,0.652-1.535,0.652-1.535l0.062-0.134l-0.403,0.313l-1.767,0.702
					l-2.01,0.067l-1.737,0.455h-17.22L6.711,6.3L4.892,5.971C5.583,6.64,5.589,7.134,5.589,7.134v138.363h0.003
					c0,0.047-0.003,0.095-0.003,0.144C5.59,155.413,12.374,163.335,20.74,163.335z"/>
				<path fill="#9C9C9C"  a:adobe-blending-mode="normal" d="M20.74,163.305c8.358,0,15.135-7.92,15.135-17.689
					c0-0.049-0.003-0.098-0.003-0.145h0.004V7.266c0.075-0.685,0.65-1.535,0.65-1.535l0.063-0.134L36.185,5.91l-1.764,0.702
					l-2.008,0.067l-1.736,0.454H13.476L6.726,6.3L4.908,5.972c0.689,0.67,0.696,1.162,0.696,1.162v138.337h0.003
					c0,0.047-0.003,0.096-0.003,0.145C5.604,155.385,12.382,163.305,20.74,163.305z"/>
				<path fill="#9D9D9D"  a:adobe-blending-mode="normal" d="M20.74,163.275c8.351,0,15.118-7.92,15.118-17.688
					c0-0.048-0.003-0.096-0.003-0.144h0.004V7.267c0.075-0.686,0.651-1.534,0.651-1.534l0.063-0.134l-0.405,0.312l-1.762,0.702
					L32.399,6.68l-1.733,0.454H13.482L6.74,6.302L4.923,5.974c0.688,0.67,0.698,1.161,0.698,1.161v138.311h0.003
					c0,0.047-0.003,0.095-0.003,0.143C5.621,155.355,12.391,163.275,20.74,163.275z"/>
				<path fill="#9F9F9F"  a:adobe-blending-mode="normal" d="M20.74,163.245c8.342,0,15.104-7.918,15.104-17.685
					c0-0.049-0.003-0.097-0.003-0.144h0.004V7.267c0.075-0.685,0.651-1.532,0.651-1.532L36.557,5.6l-0.404,0.313l-1.76,0.702
					l-2.005,0.066l-1.731,0.454H13.491L6.755,6.303L4.938,5.976c0.689,0.67,0.698,1.159,0.698,1.159v138.283h0.003
					c0,0.047-0.003,0.094-0.003,0.143C5.637,155.327,12.398,163.245,20.74,163.245z"/>
				<path fill="#A0A0A0"  a:adobe-blending-mode="normal" d="M20.74,163.215c8.333,0,15.088-7.916,15.088-17.681
					c0-0.05-0.003-0.097-0.003-0.144h0.004V7.268c0.073-0.685,0.649-1.531,0.649-1.531l0.062-0.135l-0.403,0.311l-1.759,0.701
					l-2.001,0.067l-1.73,0.454H13.498L6.77,6.303L4.954,5.978c0.688,0.669,0.697,1.158,0.697,1.158v138.256h0.004
					c0,0.045-0.003,0.094-0.003,0.143C5.651,155.299,12.408,163.215,20.74,163.215z"/>
				<path fill="#A1A1A1"  a:adobe-blending-mode="normal" d="M20.74,163.186c8.324,0,15.071-7.914,15.071-17.678
					c0-0.049-0.003-0.097-0.003-0.143h0.004V7.269c0.074-0.685,0.65-1.53,0.65-1.53l0.061-0.136l-0.402,0.311l-1.757,0.702l-2,0.067
					l-1.729,0.454h-17.13L6.784,6.304L4.97,5.979c0.688,0.669,0.697,1.158,0.697,1.158v138.229H5.67
					c0,0.046-0.002,0.094-0.002,0.143C5.668,155.27,12.416,163.186,20.74,163.186z"/>
				<path fill="#A2A2A2"  a:adobe-blending-mode="normal" d="M20.74,163.155c8.315,0,15.057-7.913,15.057-17.675
					c0-0.049-0.003-0.097-0.003-0.144h0.004V7.269c0.074-0.685,0.65-1.529,0.65-1.529l0.061-0.135l-0.403,0.31l-1.755,0.702
					l-1.998,0.067l-1.727,0.453H13.513L6.798,6.305L4.984,5.981C5.672,6.65,5.683,7.136,5.683,7.136v138.202h0.003
					c0,0.047-0.002,0.096-0.002,0.145C5.684,155.242,12.425,163.155,20.74,163.155z"/>
				<path fill="#A4A4A4"  a:adobe-blending-mode="normal" d="M20.74,163.125c8.307,0,15.041-7.911,15.041-17.671
					c0-0.048-0.004-0.097-0.004-0.144h0.005V7.27c0.073-0.685,0.649-1.528,0.649-1.528l0.061-0.136l-0.403,0.31l-1.753,0.702
					l-1.995,0.066l-1.726,0.454H13.52L6.812,6.306L5,5.983c0.686,0.669,0.699,1.155,0.699,1.155v138.174h0.003
					c0,0.047-0.002,0.095-0.002,0.143C5.699,155.214,12.434,163.125,20.74,163.125z"/>
				<path fill="#A5A5A5"  a:adobe-blending-mode="normal" d="M20.74,163.096c8.299,0,15.024-7.91,15.024-17.668
					c0-0.049-0.003-0.096-0.003-0.143h0.004V7.27c0.074-0.684,0.65-1.526,0.65-1.526l0.06-0.136l-0.402,0.309l-1.751,0.701
					l-1.994,0.067l-1.724,0.454H13.527l-6.7-0.832L5.016,5.985c0.686,0.669,0.698,1.153,0.698,1.153v138.146h0.003
					c0,0.047-0.002,0.094-0.002,0.144C5.715,155.186,12.441,163.096,20.74,163.096z"/>
				<path fill="#A6A6A6"  a:adobe-blending-mode="normal" d="M20.74,163.064c8.29,0,15.01-7.908,15.01-17.664
					c0-0.049-0.003-0.096-0.003-0.143h0.004V7.27c0.074-0.684,0.648-1.525,0.648-1.525l0.061-0.137l-0.402,0.309l-1.75,0.701
					l-1.991,0.067l-1.721,0.453h-17.06l-6.695-0.83l-1.81-0.32c0.684,0.669,0.697,1.151,0.697,1.151v138.12h0.003
					c0,0.048-0.002,0.095-0.002,0.144C5.729,155.156,12.451,163.064,20.74,163.064z"/>
				<path fill="#A7A7A7"  a:adobe-blending-mode="normal" d="M20.74,163.035c8.28,0,14.993-7.907,14.993-17.66
					c0-0.049-0.003-0.098-0.003-0.143h0.004V7.271c0.074-0.685,0.649-1.524,0.649-1.524l0.059-0.137l-0.401,0.308l-1.748,0.701
					l-1.989,0.067l-1.72,0.453H13.543L6.855,6.308L5.047,5.989c0.684,0.668,0.699,1.15,0.699,1.15v138.093h0.003
					c0,0.045-0.003,0.094-0.003,0.143C5.746,155.128,12.459,163.035,20.74,163.035z"/>
				<path fill="#A9A9A9"  a:adobe-blending-mode="normal" d="M20.74,163.005c8.272,0,14.979-7.905,14.979-17.655
					c0-0.05-0.003-0.098-0.003-0.144h0.004V7.271c0.073-0.684,0.649-1.522,0.649-1.522l0.059-0.138l-0.402,0.308L34.28,6.62
					l-1.987,0.066L30.575,7.14H13.55L6.87,6.308L5.062,5.991C5.745,6.659,5.761,7.14,5.761,7.14v138.065h0.003
					c0,0.046-0.003,0.094-0.003,0.143C5.761,155.1,12.468,163.005,20.74,163.005z"/>
				<path fill="#AAAAAA"  a:adobe-blending-mode="normal" d="M20.74,162.975c8.264,0,14.963-7.902,14.963-17.652
					c0-0.049-0.003-0.096-0.003-0.143h0.004V7.272c0.072-0.684,0.648-1.522,0.648-1.522l0.06-0.137L36.01,5.92l-1.744,0.7
					l-1.984,0.067L30.564,7.14H13.558L6.885,6.31L5.078,5.993C5.76,6.661,5.776,7.14,5.776,7.14v138.038H5.78
					c0,0.047-0.004,0.096-0.004,0.144C5.776,155.071,12.477,162.975,20.74,162.975z"/>
				<path fill="#ABABAB"  a:adobe-blending-mode="normal" d="M20.74,162.943c8.255,0,14.946-7.9,14.946-17.648
					c0-0.049-0.003-0.096-0.003-0.143h0.004V7.273c0.073-0.684,0.649-1.521,0.649-1.521l0.058-0.137l-0.401,0.306l-1.742,0.7
					l-1.983,0.067l-1.714,0.453H13.564l-6.666-0.83L5.094,5.995c0.682,0.668,0.699,1.146,0.699,1.146v138.011h0.003
					c0,0.047-0.003,0.094-0.003,0.143C5.792,155.043,12.484,162.943,20.74,162.943z"/>
				<path fill="#ADADAD"  a:adobe-blending-mode="normal" d="M20.74,162.914c8.246,0,14.932-7.898,14.932-17.646
					c0-0.049-0.003-0.096-0.003-0.143h0.004V7.273c0.073-0.683,0.648-1.52,0.648-1.52l0.058-0.138L35.977,5.92l-1.74,0.701
					l-1.98,0.067l-1.712,0.454H13.573L6.914,6.311L5.108,5.997C5.79,6.665,5.808,7.143,5.808,7.143v137.983H5.81
					c0,0.047-0.002,0.095-0.002,0.144C5.808,155.016,12.494,162.914,20.74,162.914z"/>
				<path fill="#AEAEAE"  a:adobe-blending-mode="normal" d="M20.74,162.885c8.237,0,14.916-7.897,14.916-17.643
					c0-0.049-0.004-0.098-0.004-0.143h0.005V7.274c0.072-0.684,0.647-1.519,0.647-1.519l0.059-0.138l-0.401,0.304l-1.739,0.701
					l-1.979,0.066l-1.71,0.453H13.581l-6.653-0.83L5.124,5.999c0.68,0.667,0.699,1.144,0.699,1.144V145.1h0.003
					c0,0.047-0.002,0.094-0.002,0.144C5.824,154.986,12.502,162.885,20.74,162.885z"/>
				<path fill="#AFAFAF"  a:adobe-blending-mode="normal" d="M20.74,162.854c8.229,0,14.899-7.896,14.899-17.639
					c0-0.049-0.003-0.097-0.003-0.143h0.004V7.275c0.073-0.684,0.648-1.518,0.648-1.518l0.058-0.139l-0.4,0.304l-1.737,0.7
					l-1.978,0.067l-1.709,0.453H13.588l-6.646-0.83L5.14,6.001c0.68,0.667,0.699,1.143,0.699,1.143v137.93h0.003
					c0,0.046-0.002,0.094-0.002,0.143C5.839,154.957,12.511,162.854,20.74,162.854z"/>
				<path fill="#B0B0B0"  a:adobe-blending-mode="normal" d="M20.739,162.824c8.222,0,14.885-7.896,14.885-17.637
					c0-0.047-0.003-0.096-0.003-0.143h0.004V7.275c0.073-0.683,0.647-1.517,0.647-1.517L36.33,5.62l-0.401,0.303l-1.735,0.7
					L32.219,6.69l-1.707,0.453H13.595l-6.638-0.83l-1.801-0.31C5.835,6.67,5.854,7.145,5.854,7.145v137.901h0.003
					c0,0.047-0.002,0.095-0.002,0.144C5.854,154.93,12.52,162.824,20.739,162.824z"/>
				<path fill="#B2B2B2"  a:adobe-blending-mode="normal" d="M20.739,162.794c8.213,0,14.869-7.894,14.869-17.632
					c0-0.048-0.003-0.096-0.003-0.143h0.004V7.276c0.073-0.683,0.648-1.516,0.648-1.516l0.057-0.139l-0.4,0.303l-1.733,0.7
					L32.208,6.69l-1.705,0.453h-16.9l-6.631-0.83l-1.8-0.31c0.678,0.667,0.699,1.14,0.699,1.14v137.875h0.003
					c0,0.047-0.002,0.096-0.002,0.144C5.871,154.9,12.527,162.794,20.739,162.794z"/>
				<path fill="#B3B3B3"  a:adobe-blending-mode="normal" d="M20.739,162.766c8.203,0,14.854-7.894,14.854-17.629
					c0-0.05-0.003-0.097-0.003-0.144h0.004V7.276c0.073-0.683,0.647-1.514,0.647-1.514l0.057-0.139l-0.401,0.302l-1.73,0.7
					l-1.97,0.066l-1.704,0.453H13.609l-6.625-0.83L5.186,6.007c0.678,0.667,0.699,1.139,0.699,1.139v137.848h0.003
					c0,0.047-0.002,0.094-0.002,0.143C5.886,154.872,12.537,162.766,20.739,162.766z"/>
				<path fill="#B4B4B4"  a:adobe-blending-mode="normal" d="M20.739,162.734c8.195,0,14.838-7.892,14.838-17.625
					c0-0.049-0.003-0.096-0.003-0.144h0.004V7.277c0.072-0.683,0.646-1.513,0.646-1.513l0.057-0.14l-0.4,0.302l-1.73,0.699
					l-1.968,0.067L30.48,7.145H13.618L7,6.315L5.202,6.009C5.879,6.676,5.9,7.147,5.9,7.147v137.82h0.003
					c0,0.047-0.002,0.094-0.002,0.143C5.901,154.844,12.545,162.734,20.739,162.734z"/>
				<path fill="#B5B5B5"  a:adobe-blending-mode="normal" d="M20.739,162.704c8.187,0,14.822-7.89,14.822-17.621
					c0-0.049-0.003-0.097-0.003-0.144h0.004V7.278c0.073-0.683,0.647-1.512,0.647-1.512l0.056-0.14l-0.399,0.301l-1.729,0.7
					l-1.967,0.067l-1.7,0.452H13.625l-6.61-0.83L5.218,6.011c0.676,0.666,0.699,1.136,0.699,1.136v137.794H5.92
					c0,0.046-0.002,0.094-0.002,0.143C5.917,154.814,12.554,162.704,20.739,162.704z"/>
				<path fill="#B7B7B7"  a:adobe-blending-mode="normal" d="M20.739,162.674c8.178,0,14.807-7.888,14.807-17.617
					c0-0.049-0.003-0.097-0.003-0.143h0.004V7.278c0.073-0.682,0.646-1.511,0.646-1.511l0.057-0.14l-0.4,0.301l-1.726,0.7
					L32.16,6.694l-1.698,0.453H13.633l-6.604-0.83L5.232,6.013c0.676,0.666,0.7,1.134,0.7,1.134v137.767h0.003
					c0,0.046-0.002,0.094-0.002,0.143C5.933,154.786,12.562,162.674,20.739,162.674z"/>
				<path fill="#B8B8B8"  a:adobe-blending-mode="normal" d="M20.739,162.645c8.17,0,14.792-7.887,14.792-17.614
					c0-0.048-0.004-0.097-0.004-0.144h0.005V7.279c0.072-0.683,0.646-1.51,0.646-1.51l0.055-0.14l-0.399,0.3l-1.725,0.699
					l-1.962,0.066l-1.696,0.454H13.64l-6.597-0.83L5.249,6.015c0.675,0.666,0.7,1.134,0.7,1.134v137.738h0.003
					c0,0.047-0.003,0.096-0.003,0.144C5.948,154.758,12.57,162.645,20.739,162.645z"/>
				<path fill="#B9B9B9"  a:adobe-blending-mode="normal" d="M20.739,162.614c8.16,0,14.775-7.886,14.775-17.611
					c0-0.049-0.003-0.096-0.003-0.144h0.004V7.28c0.073-0.683,0.646-1.509,0.646-1.509l0.055-0.141l-0.4,0.299l-1.722,0.699
					l-1.96,0.067L30.44,7.148H13.646L7.058,6.319L5.264,6.016c0.674,0.667,0.7,1.133,0.7,1.133v137.712h0.002
					c0,0.047-0.002,0.094-0.002,0.143C5.964,154.729,12.58,162.614,20.739,162.614z"/>
				<path fill="#BABABA"  a:adobe-blending-mode="normal" d="M20.739,162.584c8.151,0,14.76-7.883,14.76-17.607
					c0-0.049-0.003-0.096-0.003-0.143H35.5V7.28c0.073-0.682,0.646-1.507,0.646-1.507l0.056-0.141l-0.4,0.298l-1.72,0.699
					l-1.958,0.067L30.43,7.148H13.655L7.072,6.32L5.28,6.018C5.953,6.685,5.979,7.15,5.979,7.15v137.685h0.002
					c0,0.047-0.002,0.095-0.002,0.144C5.979,154.701,12.588,162.584,20.739,162.584z"/>
				<path fill="#BCBCBC"  a:adobe-blending-mode="normal" d="M20.739,162.555c8.144,0,14.744-7.882,14.744-17.604
					c0-0.05-0.003-0.097-0.003-0.144h0.004V7.281c0.072-0.682,0.646-1.506,0.646-1.506l0.054-0.142l-0.398,0.298l-1.72,0.699
					L32.11,6.696l-1.69,0.452H13.663L7.087,6.32l-1.792-0.3c0.672,0.666,0.7,1.13,0.7,1.13v137.659h0.003
					c0,0.045-0.002,0.094-0.002,0.143C5.995,154.673,12.597,162.555,20.739,162.555z"/>
				<path fill="#BDBDBD"  a:adobe-blending-mode="normal" d="M20.739,162.523c8.135,0,14.729-7.879,14.729-17.602
					c0-0.048-0.003-0.096-0.003-0.142h0.004V7.281c0.072-0.682,0.646-1.504,0.646-1.504l0.054-0.142L35.77,5.932l-1.717,0.699
					l-1.954,0.067L30.41,7.15H13.67L7.101,6.321l-1.791-0.3c0.672,0.666,0.7,1.129,0.7,1.129v137.631h0.002
					c0,0.046-0.002,0.094-0.002,0.142C6.011,154.645,12.604,162.523,20.739,162.523z"/>
				<path fill="#BEBEBE"  a:adobe-blending-mode="normal" d="M20.739,162.494c8.126,0,14.713-7.879,14.713-17.598
					c0-0.049-0.003-0.097-0.003-0.143h0.004V7.282C35.525,6.601,36.1,5.778,36.1,5.778l0.054-0.142l-0.398,0.297L34.04,6.631
					l-1.952,0.067L30.399,7.15H13.678L7.116,6.322l-1.79-0.299c0.671,0.666,0.699,1.128,0.699,1.128v137.604h0.002
					c0,0.046-0.002,0.095-0.002,0.142C6.025,154.615,12.614,162.494,20.739,162.494z"/>
				<path fill="#C0C0C0"  a:adobe-blending-mode="normal" d="M20.739,162.464c8.117,0,14.697-7.877,14.697-17.594
					c0-0.049-0.003-0.097-0.003-0.144h0.004V7.283c0.072-0.682,0.646-1.503,0.646-1.503l0.054-0.142l-0.399,0.297l-1.714,0.698
					L32.075,6.7l-1.687,0.451H13.685L7.13,6.323L5.342,6.025c0.67,0.666,0.7,1.126,0.7,1.126v137.578h0.003
					c0,0.047-0.002,0.094-0.002,0.143C6.042,154.587,12.623,162.464,20.739,162.464z"/>
				<path fill="#C1C1C1"  a:adobe-blending-mode="normal" d="M20.739,162.434c8.108,0,14.683-7.875,14.683-17.59
					c0-0.049-0.003-0.096-0.003-0.143h0.004V7.283c0.072-0.681,0.646-1.501,0.646-1.501l0.054-0.143l-0.399,0.296l-1.711,0.698
					l-1.948,0.066L30.38,7.151H13.691L7.145,6.324L5.356,6.027c0.669,0.666,0.7,1.125,0.7,1.125v137.549H6.06
					c0,0.047-0.002,0.094-0.002,0.143C6.058,154.559,12.631,162.434,20.739,162.434z"/>
				<path fill="#C2C2C2"  a:adobe-blending-mode="normal" d="M20.739,162.404c8.101,0,14.667-7.874,14.667-17.588
					c0-0.049-0.004-0.096-0.004-0.143h0.005V7.284c0.071-0.682,0.646-1.5,0.646-1.5l0.053-0.143l-0.397,0.295l-1.71,0.698
					L32.052,6.7L30.37,7.152H13.7L7.159,6.325L5.373,6.029c0.669,0.666,0.7,1.124,0.7,1.124v137.521h0.003
					c0,0.047-0.002,0.094-0.002,0.143C6.073,154.53,12.64,162.404,20.739,162.404z"/>
				<path fill="#C3C3C3"  a:adobe-blending-mode="normal" d="M20.739,162.374c8.092,0,14.65-7.872,14.65-17.584
					c0-0.048-0.003-0.097-0.003-0.142h0.004V7.285c0.072-0.682,0.646-1.499,0.646-1.499l0.053-0.144L35.69,5.937l-1.708,0.697
					l-1.943,0.067l-1.681,0.451H13.707L7.173,6.325L5.388,6.031c0.668,0.665,0.7,1.122,0.7,1.122v137.496h0.003
					c0,0.045-0.002,0.094-0.002,0.142C6.089,154.502,12.647,162.374,20.739,162.374z"/>
				<path fill="#C5C5C5"  a:adobe-blending-mode="normal" d="M20.739,162.344c8.083,0,14.636-7.869,14.636-17.58
					c0-0.048-0.003-0.096-0.003-0.142h0.004V7.285c0.072-0.681,0.645-1.498,0.645-1.498l0.053-0.143l-0.399,0.294l-1.706,0.697
					l-1.942,0.067l-1.678,0.451H13.715L7.188,6.326L5.403,6.033c0.667,0.665,0.7,1.121,0.7,1.121v137.468h0.003
					c0,0.046-0.002,0.094-0.002,0.142C6.104,154.475,12.657,162.344,20.739,162.344z"/>
				<path fill="#C6C6C6"  a:adobe-blending-mode="normal" d="M20.739,162.313c8.074,0,14.619-7.869,14.619-17.575
					c0-0.048-0.003-0.097-0.003-0.142h0.004V7.286c0.072-0.681,0.646-1.497,0.646-1.497l0.052-0.144l-0.397,0.293l-1.704,0.698
					l-1.94,0.066l-1.677,0.453H13.722l-6.52-0.828L5.419,6.035c0.667,0.665,0.7,1.12,0.7,1.12v137.44h0.002
					c0,0.045-0.002,0.094-0.002,0.142C6.12,154.443,12.666,162.313,20.739,162.313z"/>
				<path fill="#C7C7C7"  a:adobe-blending-mode="normal" d="M20.739,162.283c8.065,0,14.604-7.867,14.604-17.572
					c0-0.049-0.003-0.096-0.003-0.143h0.004V7.286c0.072-0.68,0.646-1.495,0.646-1.495l0.052-0.144l-0.398,0.292l-1.703,0.699
					l-1.938,0.066l-1.674,0.451H13.729L7.217,6.328L5.435,6.037c0.666,0.665,0.7,1.118,0.7,1.118v137.413h0.003
					c0,0.047-0.002,0.094-0.002,0.143C6.135,154.416,12.674,162.283,20.739,162.283z"/>
				<path fill="#C8C8C8"  a:adobe-blending-mode="normal" d="M20.739,162.254c8.058,0,14.589-7.865,14.589-17.568
					c0-0.049-0.003-0.097-0.003-0.144h0.004V7.287c0.071-0.681,0.645-1.494,0.645-1.494l0.051-0.144L35.627,5.94l-1.7,0.697
					l-1.936,0.067l-1.674,0.452H13.736L7.23,6.329l-1.78-0.29c0.666,0.665,0.7,1.117,0.7,1.117v137.386h0.002
					c0,0.047-0.002,0.094-0.002,0.144C6.15,154.389,12.683,162.254,20.739,162.254z"/>
				<path fill="#CACACA"  a:adobe-blending-mode="normal" d="M20.739,162.225c8.049,0,14.572-7.865,14.572-17.566
					c0-0.049-0.003-0.096-0.003-0.143h0.004V7.288c0.072-0.681,0.645-1.493,0.645-1.493l0.051-0.145L35.61,5.941l-1.698,0.697
					l-1.935,0.068l-1.67,0.451H13.745L7.246,6.33l-1.78-0.289c0.665,0.665,0.701,1.116,0.701,1.116v137.358h0.002
					c0,0.047-0.002,0.094-0.002,0.142C6.166,154.359,12.69,162.225,20.739,162.225z"/>
				<path fill="#CBCBCB"  a:adobe-blending-mode="normal" d="M20.739,162.193c8.041,0,14.558-7.862,14.558-17.563
					c0-0.048-0.003-0.096-0.003-0.142h0.004V7.288c0.072-0.68,0.644-1.491,0.644-1.491l0.052-0.145l-0.397,0.29L33.897,6.64
					l-1.931,0.066l-1.669,0.451H13.752L7.26,6.33L5.48,6.043c0.664,0.664,0.701,1.114,0.701,1.114v137.332h0.002
					c0,0.046-0.002,0.094-0.002,0.142C6.182,154.331,12.7,162.193,20.739,162.193z"/>
				<path fill="#CCCCCC"  a:adobe-blending-mode="normal" d="M20.739,162.163c8.031,0,14.542-7.86,14.542-17.56
					c0-0.047-0.004-0.096-0.004-0.142h0.005V7.289c0.071-0.68,0.644-1.491,0.644-1.491l0.05-0.145l-0.396,0.29L33.884,6.64
					l-1.929,0.066l-1.668,0.452H13.76L7.273,6.331L5.497,6.045C6.16,6.709,6.198,7.158,6.198,7.158v137.305H6.2
					c0,0.046-0.002,0.094-0.002,0.143C6.198,154.303,12.709,162.163,20.739,162.163z"/>
				<path fill="#CECECE"  a:adobe-blending-mode="normal" d="M20.739,162.134c8.022,0,14.525-7.86,14.525-17.556
					c0-0.049-0.003-0.096-0.003-0.143h0.004V7.29C35.337,6.609,35.91,5.8,35.91,5.8l0.05-0.145l-0.397,0.289L33.87,6.641
					l-1.929,0.067l-1.666,0.451h-16.51L7.289,6.332L5.512,6.047c0.663,0.664,0.701,1.112,0.701,1.112v137.276h0.002
					c0,0.047-0.002,0.094-0.002,0.143C6.213,154.273,12.717,162.134,20.739,162.134z"/>
				<path fill="#CFCFCF"  a:adobe-blending-mode="normal" d="M20.739,162.104c8.015,0,14.511-7.858,14.511-17.553
					c0-0.049-0.003-0.096-0.003-0.143h0.004V7.29c0.071-0.68,0.644-1.488,0.644-1.488l0.05-0.146l-0.396,0.289l-1.691,0.696
					l-1.925,0.067l-1.664,0.45H13.773L7.303,6.333L5.527,6.049c0.662,0.664,0.701,1.11,0.701,1.11v137.25H6.23
					c0,0.047-0.002,0.094-0.002,0.143C6.229,154.245,12.726,162.104,20.739,162.104z"/>
				<path fill="#D0D0D0"  a:adobe-blending-mode="normal" d="M20.739,162.073c8.006,0,14.495-7.856,14.495-17.55
					c0-0.047-0.003-0.094-0.003-0.142h0.004V7.291c0.071-0.68,0.644-1.487,0.644-1.487l0.05-0.146l-0.396,0.288l-1.689,0.696
					l-1.926,0.067L30.256,7.16H13.782L7.317,6.334L5.543,6.051C6.204,6.715,6.244,7.16,6.244,7.16v137.223h0.002
					c0,0.047-0.002,0.094-0.002,0.143C6.245,154.217,12.733,162.073,20.739,162.073z"/>
				<path fill="#D1D1D1"  a:adobe-blending-mode="normal" d="M20.739,162.043c7.997,0,14.479-7.854,14.479-17.545
					c0-0.048-0.003-0.096-0.003-0.143h0.004V7.291c0.071-0.679,0.644-1.485,0.644-1.485l0.049-0.146l-0.396,0.288l-1.688,0.696
					L31.907,6.71l-1.66,0.451H13.79L7.332,6.334L5.559,6.053C6.219,6.716,6.26,7.161,6.26,7.161v137.194h0.002
					c0,0.047-0.002,0.095-0.002,0.143C6.26,154.188,12.743,162.043,20.739,162.043z"/>
				<path fill="#D3D3D3"  a:adobe-blending-mode="normal" d="M20.739,162.014c7.988,0,14.464-7.854,14.464-17.541
					c0-0.049-0.003-0.097-0.003-0.143h0.004V7.292c0.07-0.68,0.643-1.485,0.643-1.485l0.049-0.146L35.5,5.947l-1.687,0.697
					L31.895,6.71l-1.659,0.45H13.797l-6.45-0.826l-1.771-0.28c0.659,0.663,0.7,1.106,0.7,1.106v137.169h0.002
					c0,0.046-0.002,0.094-0.002,0.142C6.275,154.16,12.752,162.014,20.739,162.014z"/>
				<path fill="#D4D4D4"  a:adobe-blending-mode="normal" d="M20.739,161.982c7.979,0,14.448-7.852,14.448-17.537
					c0-0.049-0.003-0.096-0.003-0.143h0.004V7.293c0.071-0.68,0.644-1.484,0.644-1.484l0.049-0.146l-0.398,0.285l-1.684,0.696
					l-1.917,0.067l-1.657,0.45h-16.42L7.36,6.336L5.59,6.057C6.249,6.72,6.291,7.162,6.291,7.162v137.143h0.002
					c0,0.045-0.002,0.092-0.002,0.142C6.291,154.132,12.76,161.982,20.739,161.982z"/>
				<path fill="#D5D5D5"  a:adobe-blending-mode="normal" d="M20.739,161.953c7.972,0,14.433-7.852,14.433-17.534
					c0-0.049-0.003-0.096-0.003-0.142h0.004V7.293c0.071-0.679,0.643-1.482,0.643-1.482l0.05-0.146L35.469,5.95l-1.682,0.696
					l-1.915,0.066l-1.655,0.45H13.812L7.375,6.337L5.604,6.058c0.658,0.664,0.701,1.104,0.701,1.104v137.115h0.002
					c0,0.046-0.002,0.093-0.002,0.142C6.307,154.104,12.769,161.953,20.739,161.953z"/>
				<path fill="#D6D6D6"  a:adobe-blending-mode="normal" d="M20.739,161.923c7.963,0,14.417-7.849,14.417-17.53
					c0-0.049-0.004-0.096-0.004-0.143h0.005V7.294c0.07-0.679,0.642-1.481,0.642-1.481l0.049-0.147l-0.396,0.285l-1.681,0.696
					l-1.914,0.066l-1.652,0.45H13.818L7.39,6.338L5.621,6.06c0.656,0.664,0.701,1.103,0.701,1.103V144.25h0.002
					c0,0.047-0.002,0.094-0.002,0.143C6.323,154.074,12.776,161.923,20.739,161.923z"/>
				<path fill="#D8D8D8"  a:adobe-blending-mode="normal" d="M20.739,161.895c7.954,0,14.401-7.849,14.401-17.528
					c0-0.048-0.003-0.095-0.003-0.142h0.004V7.295c0.071-0.68,0.643-1.48,0.643-1.48l0.048-0.147l-0.396,0.284l-1.679,0.696
					l-1.911,0.066l-1.651,0.45H13.827L7.403,6.339L5.636,6.061c0.657,0.665,0.702,1.103,0.702,1.103v137.061H6.34
					c0,0.047-0.002,0.094-0.002,0.142C6.338,154.046,12.786,161.895,20.739,161.895z"/>
				<path fill="#D9D9D9"  a:adobe-blending-mode="normal" d="M20.739,161.863c7.945,0,14.386-7.846,14.386-17.524
					c0-0.048-0.003-0.096-0.003-0.142h0.004V7.295c0.071-0.679,0.642-1.479,0.642-1.479l0.048-0.148L35.42,5.952l-1.677,0.695
					l-1.909,0.067l-1.649,0.449h-16.35L7.418,6.339L5.651,6.063c0.656,0.664,0.701,1.101,0.701,1.101v137.033h0.002
					c0,0.046-0.002,0.094-0.002,0.142C6.353,154.018,12.795,161.863,20.739,161.863z"/>
				<path fill="#DADADA"  a:adobe-blending-mode="normal" d="M20.739,161.833c7.937,0,14.37-7.844,14.37-17.521
					c0-0.049-0.003-0.097-0.003-0.143h0.004V7.296c0.071-0.679,0.643-1.479,0.643-1.479l0.048-0.147l-0.396,0.283l-1.678,0.695
					l-1.905,0.066l-1.648,0.45H13.842L7.433,6.34L5.667,6.065c0.655,0.663,0.702,1.1,0.702,1.1v137.006h0.002
					c0,0.046-0.002,0.093-0.002,0.142C6.369,153.989,12.803,161.833,20.739,161.833z"/>
				<path fill="#DBDBDB"  a:adobe-blending-mode="normal" d="M20.739,161.803c7.929,0,14.354-7.842,14.354-17.517
					c0-0.049-0.003-0.097-0.003-0.142h0.004V7.296c0.071-0.678,0.642-1.477,0.642-1.477l0.048-0.148l-0.396,0.283l-1.673,0.695
					l-1.904,0.066l-1.646,0.45H13.85L7.448,6.341L5.683,6.067C6.337,6.73,6.385,7.166,6.385,7.166v136.979h0.002
					c0,0.047-0.002,0.094-0.002,0.143C6.385,153.961,12.812,161.803,20.739,161.803z"/>
				<path fill="#DDDDDD"  a:adobe-blending-mode="normal" d="M20.739,161.773c7.92,0,14.339-7.842,14.339-17.516
					c0-0.048-0.003-0.095-0.003-0.141h0.004V7.297c0.07-0.679,0.641-1.476,0.641-1.476l0.047-0.148l-0.396,0.282L33.7,6.65
					l-1.902,0.067l-1.645,0.449H13.856L7.462,6.342L5.698,6.069c0.653,0.663,0.701,1.097,0.701,1.097v136.952h0.002
					c0,0.046-0.002,0.093-0.002,0.141C6.399,153.932,12.819,161.773,20.739,161.773z"/>
				<path fill="#DEDEDE"  a:adobe-blending-mode="normal" d="M20.739,161.743c7.91,0,14.323-7.841,14.323-17.511
					c0-0.049-0.003-0.096-0.003-0.143h0.004V7.298c0.071-0.679,0.642-1.475,0.642-1.475l0.047-0.149l-0.396,0.282L33.688,6.65
					l-1.899,0.067l-1.644,0.449h-16.28L7.477,6.343L5.714,6.071c0.653,0.663,0.702,1.096,0.702,1.096v136.924h0.002
					c0,0.048-0.002,0.095-0.002,0.142C6.416,153.902,12.829,161.743,20.739,161.743z"/>
				<path fill="#DFDFDF"  a:adobe-blending-mode="normal" d="M20.739,161.713c7.902,0,14.308-7.838,14.308-17.507
					c0-0.048-0.003-0.097-0.003-0.142h0.004V7.298c0.07-0.678,0.641-1.473,0.641-1.473l0.046-0.149l-0.395,0.28l-1.667,0.695
					l-1.899,0.067l-1.641,0.45H13.872L7.491,6.343l-1.762-0.27c0.652,0.662,0.702,1.095,0.702,1.095v136.896h0.002
					c0,0.045-0.002,0.094-0.002,0.142C6.432,153.875,12.838,161.713,20.739,161.713z"/>
				<path fill="#E1E1E1"  a:adobe-blending-mode="normal" d="M20.739,161.684c7.894,0,14.292-7.836,14.292-17.504
					c0-0.048-0.004-0.096-0.004-0.142h0.005V7.299c0.069-0.678,0.64-1.473,0.64-1.473l0.046-0.149l-0.395,0.28l-1.665,0.695
					l-1.896,0.066l-1.639,0.45H13.879L7.505,6.344l-1.76-0.269c0.651,0.662,0.702,1.093,0.702,1.093v136.87h0.002
					c0,0.046-0.002,0.094-0.002,0.142C6.447,153.848,12.846,161.684,20.739,161.684z"/>
				<path fill="#E2E2E2"  a:adobe-blending-mode="normal" d="M20.739,161.652c7.885,0,14.276-7.834,14.276-17.5
					c0-0.049-0.003-0.096-0.003-0.141h0.004V7.3c0.07-0.679,0.641-1.472,0.641-1.472l0.046-0.149l-0.396,0.279l-1.664,0.695
					L31.75,6.719l-1.637,0.449H13.887L7.52,6.345L5.76,6.077c0.651,0.662,0.703,1.092,0.703,1.092v136.843h0.002
					c0,0.047-0.002,0.094-0.002,0.143C6.463,153.818,12.854,161.652,20.739,161.652z"/>
				<path fill="#E3E3E3"  a:adobe-blending-mode="normal" d="M20.739,161.623c7.877,0,14.261-7.833,14.261-17.497
					c0-0.048-0.003-0.095-0.003-0.142h0.004V7.3c0.07-0.678,0.64-1.47,0.64-1.47l0.045-0.149l-0.395,0.278l-1.662,0.694
					l-1.891,0.068L30.103,7.17H13.894L7.534,6.346L5.775,6.079C6.426,6.741,6.478,7.17,6.478,7.17v136.814h0.002
					c0,0.047-0.002,0.094-0.002,0.142C6.478,153.79,12.864,161.623,20.739,161.623z"/>
				<path fill="#E4E4E4"  a:adobe-blending-mode="normal" d="M20.739,161.593c7.867,0,14.245-7.831,14.245-17.493
					c0-0.048-0.003-0.095-0.003-0.141h0.004V7.301c0.07-0.678,0.641-1.469,0.641-1.469l0.045-0.15L35.275,5.96l-1.659,0.694
					L31.726,6.72l-1.633,0.449h-16.19L7.548,6.347L5.791,6.081C6.44,6.743,6.493,7.17,6.493,7.17v136.789h0.002
					c0,0.046-0.002,0.093-0.002,0.141C6.494,153.762,12.872,161.593,20.739,161.593z"/>
				<path fill="#E6E6E6"  a:adobe-blending-mode="normal" d="M20.739,161.563c7.858,0,14.229-7.83,14.229-17.489
					c0-0.048-0.003-0.095-0.003-0.142h0.004V7.301c0.07-0.677,0.64-1.467,0.64-1.467l0.046-0.15l-0.395,0.277l-1.659,0.694
					l-1.888,0.066L30.082,7.17H13.909L7.563,6.348L5.807,6.083c0.649,0.662,0.702,1.088,0.702,1.088v136.761h0.002
					c0,0.047-0.002,0.094-0.002,0.143C6.51,153.732,12.881,161.563,20.739,161.563z"/>
				<path fill="#E7E7E7"  a:adobe-blending-mode="normal" d="M20.739,161.532c7.851,0,14.214-7.828,14.214-17.485
					c0-0.048-0.003-0.096-0.003-0.142h0.004V7.302c0.069-0.677,0.639-1.467,0.639-1.467l0.045-0.15l-0.394,0.277l-1.657,0.694
					l-1.886,0.066l-1.63,0.449H13.916L7.578,6.348L5.823,6.085c0.647,0.661,0.701,1.087,0.701,1.087v136.733h0.002
					c0,0.046-0.002,0.094-0.002,0.142C6.524,153.704,12.889,161.532,20.739,161.532z"/>
				<path fill="#E8E8E8"  a:adobe-blending-mode="normal" d="M20.739,161.503c7.842,0,14.198-7.827,14.198-17.481
					c0-0.049-0.003-0.097-0.003-0.143h0.004V7.303c0.069-0.678,0.64-1.466,0.64-1.466l0.044-0.15l-0.395,0.276l-1.654,0.693
					l-1.885,0.067l-1.628,0.448H13.924L7.592,6.349L5.838,6.087c0.646,0.661,0.703,1.085,0.703,1.085v136.707h0.002
					c0,0.046-0.002,0.094-0.002,0.143C6.541,153.676,12.897,161.503,20.739,161.503z"/>
				<path fill="#E9E9E9"  a:adobe-blending-mode="normal" d="M20.739,161.473c7.833,0,14.183-7.824,14.183-17.479
					c0-0.048-0.003-0.096-0.003-0.141h0.004V7.303c0.069-0.677,0.639-1.464,0.639-1.464l0.044-0.151l-0.394,0.276l-1.653,0.693
					l-1.881,0.067l-1.626,0.449h-16.12L7.605,6.35L5.853,6.089C6.5,6.75,6.556,7.173,6.556,7.173v136.681h0.002
					c0,0.045-0.002,0.093-0.002,0.141C6.556,153.646,12.907,161.473,20.739,161.473z"/>
				<path fill="#EBEBEB"  a:adobe-blending-mode="normal" d="M20.739,161.441c7.824,0,14.167-7.822,14.167-17.476
					c0-0.048-0.004-0.095-0.004-0.141h0.005V7.304c0.068-0.677,0.639-1.463,0.639-1.463L35.59,5.69l-0.394,0.275l-1.651,0.693
					l-1.879,0.066l-1.625,0.449H13.938L7.621,6.351L5.87,6.091c0.646,0.661,0.703,1.083,0.703,1.083v136.652h0.002
					c0,0.046-0.002,0.093-0.002,0.141C6.572,153.619,12.915,161.441,20.739,161.441z"/>
				<path fill="#ECECEC"  a:adobe-blending-mode="normal" d="M20.739,161.412c7.815,0,14.151-7.822,14.151-17.473
					c0-0.047-0.003-0.094-0.003-0.141h0.004V7.305c0.069-0.677,0.64-1.462,0.64-1.462l0.043-0.152l-0.394,0.274l-1.648,0.694
					l-1.879,0.066l-1.622,0.448H13.945L7.635,6.352l-1.75-0.259C6.53,6.754,6.588,7.174,6.588,7.174V143.8H6.59
					c0,0.046-0.002,0.093-0.002,0.142C6.587,153.59,12.924,161.412,20.739,161.412z"/>
				<path fill="#EDEDED"  a:adobe-blending-mode="normal" d="M20.739,161.383c7.808,0,14.136-7.82,14.136-17.469
					c0-0.048-0.003-0.096-0.003-0.143h0.004V7.305c0.068-0.677,0.638-1.46,0.638-1.46l0.043-0.152l-0.393,0.273l-1.647,0.693
					l-1.876,0.067L30.02,7.174H13.954L7.648,6.353l-1.75-0.258c0.646,0.661,0.703,1.08,0.703,1.08v136.599h0.002
					c0,0.047-0.002,0.094-0.002,0.142C6.603,153.561,12.932,161.383,20.739,161.383z"/>
				<path fill="#EFEFEF"  a:adobe-blending-mode="normal" d="M20.739,161.354c7.799,0,14.12-7.819,14.12-17.465
					c0-0.05-0.003-0.097-0.003-0.143h0.004V7.306c0.069-0.677,0.639-1.46,0.639-1.46l0.043-0.152l-0.395,0.273L33.502,6.66
					l-1.874,0.066l-1.619,0.449H13.961L7.664,6.353L5.916,6.097c0.644,0.66,0.703,1.079,0.703,1.079v136.57h0.002
					c0,0.046-0.002,0.093-0.002,0.143C6.619,153.533,12.94,161.354,20.739,161.354z"/>
				<path fill="#F0F0F0"  a:adobe-blending-mode="normal" d="M20.738,161.322c7.79,0,14.104-7.817,14.104-17.463
					c0-0.047-0.003-0.094-0.003-0.141h0.004V7.306c0.069-0.676,0.638-1.458,0.638-1.458l0.042-0.152l-0.391,0.271l-1.644,0.693
					l-1.872,0.067L30,7.176H13.969L7.678,6.353L5.931,6.099c0.644,0.66,0.703,1.077,0.703,1.077v136.545h0.002
					c0,0.045-0.002,0.092-0.002,0.141C6.634,153.505,12.95,161.322,20.738,161.322z"/>
				<path fill="#F1F1F1"  a:adobe-blending-mode="normal" d="M20.738,161.292c7.781,0,14.09-7.815,14.09-17.458
					c0-0.048-0.003-0.095-0.003-0.141h0.004V7.307c0.068-0.676,0.638-1.457,0.638-1.457l0.042-0.153l-0.393,0.272l-1.643,0.693
					l-1.87,0.066l-1.614,0.448H13.977L7.692,6.354L5.947,6.1C6.59,6.761,6.649,7.177,6.649,7.177v136.517h0.002
					c0,0.047-0.002,0.094-0.002,0.142C6.649,153.477,12.958,161.292,20.738,161.292z"/>
				<path fill="#F2F2F2"  a:adobe-blending-mode="normal" d="M20.738,161.264c7.773,0,14.073-7.814,14.073-17.455
					c0-0.049-0.003-0.096-0.003-0.142h0.004V7.308c0.069-0.677,0.639-1.456,0.639-1.456l0.042-0.153L35.1,5.97l-1.64,0.692
					l-1.867,0.067l-1.614,0.447H13.983L7.707,6.355L5.962,6.102c0.642,0.661,0.704,1.075,0.704,1.075v136.49h0.002
					c0,0.046-0.002,0.093-0.002,0.142C6.666,153.448,12.967,161.264,20.738,161.264z"/>
				<path fill="#F4F4F4"  a:adobe-blending-mode="normal" d="M20.738,161.232c7.765,0,14.059-7.813,14.059-17.451
					c0-0.049-0.003-0.096-0.003-0.141h0.004V7.308c0.069-0.676,0.637-1.454,0.637-1.454L35.477,5.7l-0.392,0.271l-1.639,0.692
					l-1.865,0.066l-1.612,0.449H13.991L7.721,6.357L5.978,6.103c0.642,0.662,0.703,1.075,0.703,1.075v136.462h0.002
					c0,0.047-0.002,0.094-0.002,0.142C6.681,153.419,12.975,161.232,20.738,161.232z"/>
				<path fill="#F5F5F5"  a:adobe-blending-mode="normal" d="M20.738,161.202c7.756,0,14.043-7.812,14.043-17.447
					c0-0.048-0.004-0.096-0.004-0.142h0.005V7.309c0.068-0.676,0.637-1.454,0.637-1.454l0.042-0.153l-0.393,0.271l-1.637,0.692
					l-1.863,0.066l-1.609,0.448h-15.96L7.735,6.356L5.993,6.105c0.641,0.66,0.704,1.073,0.704,1.073v136.435h0.002
					c0,0.046-0.002,0.094-0.002,0.142C6.697,153.391,12.983,161.202,20.738,161.202z"/>
				<path fill="#F6F6F6"  a:adobe-blending-mode="normal" d="M20.738,161.172c7.747,0,14.026-7.811,14.026-17.443
					c0-0.049-0.003-0.096-0.003-0.142h0.004V7.31c0.069-0.676,0.637-1.453,0.637-1.453l0.041-0.154l-0.392,0.271l-1.634,0.691
					l-1.861,0.066l-1.607,0.447H14.006L7.75,6.357l-1.742-0.25c0.64,0.66,0.703,1.071,0.703,1.071v136.408h0.002
					c0,0.046-0.002,0.094-0.002,0.141C6.712,153.361,12.993,161.172,20.738,161.172z"/>
				<path fill="#F7F7F7"  a:adobe-blending-mode="normal" d="M20.738,161.143c7.738,0,14.012-7.809,14.012-17.44
					c0-0.048-0.003-0.095-0.003-0.142h0.004V7.31c0.068-0.676,0.637-1.452,0.637-1.452l0.041-0.154l-0.392,0.27l-1.634,0.691
					l-1.858,0.067L29.938,7.18H14.014L7.765,6.358L6.023,6.109c0.64,0.66,0.704,1.07,0.704,1.07v136.381h0.002
					c0,0.045-0.002,0.093-0.002,0.141C6.728,153.334,13.001,161.143,20.738,161.143z"/>
				<path fill="#F9F9F9"  a:adobe-blending-mode="normal" d="M20.738,161.111c7.729,0,13.995-7.807,13.995-17.438
					c0-0.048-0.003-0.095-0.003-0.141h0.004V7.311c0.069-0.676,0.638-1.45,0.638-1.45l0.041-0.155l-0.393,0.269L33.39,6.667
					l-1.856,0.066l-1.605,0.448H14.021L7.778,6.359L6.039,6.111c0.639,0.66,0.704,1.07,0.704,1.07v136.354h0.002
					c0,0.046-0.002,0.093-0.002,0.141C6.743,153.307,13.01,161.111,20.738,161.111z"/>
				<path fill="#FAFAFA"  a:adobe-blending-mode="normal" d="M20.738,161.082c7.722,0,13.979-7.805,13.979-17.434
					c0-0.049-0.003-0.096-0.003-0.142h0.004V7.311c0.069-0.675,0.637-1.448,0.637-1.448l0.04-0.155l-0.391,0.268l-1.629,0.692
					l-1.855,0.066l-1.603,0.447h-15.89l-6.234-0.82L6.055,6.113C6.692,6.773,6.759,7.18,6.759,7.18v136.328h0.002
					c0,0.047-0.002,0.094-0.002,0.141C6.759,153.277,13.019,161.082,20.738,161.082z"/>
				<path fill="#FBFBFB"  a:adobe-blending-mode="normal" d="M20.738,161.053c7.713,0,13.965-7.805,13.965-17.431
					c0-0.048-0.003-0.095-0.003-0.142h0.004V7.311c0.067-0.675,0.636-1.447,0.636-1.447l0.04-0.156l-0.391,0.268l-1.628,0.692
					l-1.853,0.066l-1.601,0.448H14.036L7.808,6.361L6.07,6.115c0.638,0.66,0.704,1.066,0.704,1.066V143.48h0.002
					c0,0.047-0.002,0.094-0.002,0.142C6.773,153.248,13.026,161.053,20.738,161.053z"/>
				<path fill="#FCFCFC"  a:adobe-blending-mode="normal" d="M20.738,161.021c7.704,0,13.948-7.803,13.948-17.428
					c0-0.048-0.003-0.095-0.003-0.141h0.004V7.312c0.068-0.676,0.637-1.447,0.637-1.447l0.04-0.155l-0.392,0.267l-1.625,0.691
					l-1.851,0.067l-1.6,0.447H14.043l-6.22-0.821L6.086,6.117C6.722,6.776,6.79,7.182,6.79,7.182v136.271h0.002
					c0,0.046-0.002,0.093-0.002,0.141C6.79,153.221,13.036,161.021,20.738,161.021z"/>
				<path fill="#FEFEFE"  a:adobe-blending-mode="normal" d="M20.738,160.992c7.695,0,13.934-7.801,13.934-17.424
					c0-0.049-0.003-0.096-0.003-0.142h0.004V7.312c0.068-0.675,0.636-1.445,0.636-1.445l0.04-0.156l-0.392,0.267l-1.624,0.691
					l-1.85,0.066l-1.598,0.447H14.051l-6.214-0.82L6.102,6.119c0.635,0.659,0.704,1.064,0.704,1.064v136.245h0.002
					c0,0.047-0.002,0.094-0.002,0.141C6.806,153.191,13.044,160.992,20.738,160.992z"/>
				<path fill="#FFFFFF"  a:adobe-blending-mode="normal" d="M35.332,5.713L34.94,5.978l-1.622,0.691l-1.847,0.066l-1.596,0.447
					H14.059l-6.207-0.82L6.117,6.121C6.752,6.78,6.82,7.184,6.82,7.184v136.218h0.003c0,0.046-0.003,0.093-0.003,0.141
					c0,9.621,6.231,17.42,13.918,17.42c7.688,0,13.918-7.799,13.918-17.42c0-0.048-0.004-0.095-0.004-0.141h0.005V7.313
					c0.067-0.675,0.636-1.444,0.636-1.444L35.332,5.713z"/>
			</g>
			
				<linearGradient id="XMLID_5_" gradientUnits="userSpaceOnUse" x1="-525.8813" y1="506.8711" x2="-525.8813" y2="501.8291" gradientTransform="matrix(1 0 0 -1 546.6938 509.8711)">
				<stop  offset="0.1573" style="stop-color:#9FD7B8"/>
				<stop  offset="0.6461" style="stop-color:#90B6C2"/>
				<stop  offset="0.8055" style="stop-color:#8FB6C5"/>
				<stop  offset="0.9253" style="stop-color:#8DB6CF"/>
				<stop  offset="1" style="stop-color:#8BB6D9"/>
				<a:midPointStop  offset="0.1573" style="stop-color:#9FD7B8"/>
				<a:midPointStop  offset="0.5" style="stop-color:#9FD7B8"/>
				<a:midPointStop  offset="0.6461" style="stop-color:#90B6C2"/>
				<a:midPointStop  offset="0.5" style="stop-color:#90B6C2"/>
				<a:midPointStop  offset="0.8055" style="stop-color:#8FB6C5"/>
				<a:midPointStop  offset="0.5" style="stop-color:#8FB6C5"/>
				<a:midPointStop  offset="0.9253" style="stop-color:#8DB6CF"/>
				<a:midPointStop  offset="0.5" style="stop-color:#8DB6CF"/>
				<a:midPointStop  offset="1" style="stop-color:#8BB6D9"/>
			</linearGradient>
			<ellipse fill="url(#XMLID_5_)" stroke="#FFFFFF" stroke-width="1.0788" cx="20.813" cy="5.521" rx="17.332" ry="2.521"/> 
			<g>
				
					<linearGradient id="XMLID_6_" gradientUnits="userSpaceOnUse" x1="-546.7026" y1="275.5898" x2="-505.1343" y2="275.5898" gradientTransform="matrix(1 0 0 -1 380.4292 360.5898)">
					<stop  offset="0" style="stop-color:#C5C5C5"/>
					<stop  offset="1" style="stop-color:#3B3B3B"/>
					<a:midPointStop  offset="0" style="stop-color:#C5C5C5"/>
					<a:midPointStop  offset="0.5" style="stop-color:#C5C5C5"/>
					<a:midPointStop  offset="1" style="stop-color:#3B3B3B"/>
				</linearGradient>
				<rect opacity="0" fill="url(#XMLID_6_)" width="41.568" height="170"/> 
			</g>
		</g>
	</svg>
