<?xml version="1.0" encoding="utf-8"?>
<!--
  - This file is part of StyleBI.
  -
  - Copyright (c) 2024, InetSoft Technology Corp, All Rights Reserved.
  -
  - The software and information contained herein are copyrighted and
  - proprietary to InetSoft Technology Corp. This software is furnished
  - pursuant to a written license agreement and may be used, copied,
  - transmitted, and stored only in accordance with the terms of such
  - license and with the inclusion of the above copyright notice. Please
  - refer to the file "COPYRIGHT" for further copyright and licensing
  - information. This software and information or any other copies
  - thereof may not be provided or otherwise made available to any other
  - person.
  -->

<!-- Generator: Adobe Illustrator 15.1.0, SVG Export Plug-In . SVG Version: 6.00 Build 0)  -->
<!DOCTYPE svg PUBLIC "-//W3C//DTD SVG 1.1//EN" "http://www.w3.org/Graphics/SVG/1.1/DTD/svg11.dtd">
<svg version="1.1" id="Outlines_-_Full_Color" xmlns="http://www.w3.org/2000/svg" xmlns:xlink="http://www.w3.org/1999/xlink"
	 x="0px" y="0px" width="30px" height="30px" viewBox="291 381 30 30" enable-background="new 291 381 30 30" xml:space="preserve">
<title>sprocket-web-color_sprocket-black-web</title>
<g id="Sprocket">
	<g>
		<g>
			<g>
				<path fill="#FF7A59" d="M312.798,392.331v-3.042c0.821-0.384,1.349-1.208,1.353-2.114v-0.071
					c-0.004-1.293-1.051-2.34-2.344-2.344h-0.07c-1.293,0.003-2.34,1.051-2.344,2.344v0.071c0.004,0.907,0.531,1.73,1.353,2.114
					v3.048c-1.157,0.177-2.247,0.657-3.161,1.391l-8.366-6.516c0.38-1.424-0.465-2.887-1.89-3.268
					c-1.424-0.38-2.887,0.465-3.267,1.89c-0.381,1.424,0.465,2.887,1.89,3.267c0.681,0.182,1.406,0.087,2.018-0.264l8.225,6.403
					c-1.516,2.288-1.475,5.271,0.104,7.516l-2.504,2.504c-0.201-0.064-0.41-0.098-0.621-0.102c-1.2,0-2.173,0.973-2.173,2.173
					s0.973,2.173,2.173,2.173c1.2,0,2.173-0.973,2.173-2.173l0,0c-0.003-0.212-0.038-0.42-0.102-0.622l2.476-2.475
					c2.931,2.237,7.122,1.677,9.359-1.254c2.239-2.93,1.677-7.121-1.253-9.359c-0.887-0.678-1.93-1.123-3.033-1.292
					 M311.768,402.354c-1.892-0.005-3.423-1.542-3.418-3.434c0.004-1.893,1.542-3.423,3.434-3.419
					c1.891,0.004,3.42,1.538,3.418,3.427c0,1.894-1.534,3.427-3.426,3.427"/>
			</g>
		</g>
	</g>
</g>
</svg>
