<?xml version="1.0" encoding="utf-8"?>
<!--
  - This file is part of StyleBI.
  -
  - Copyright (c) 2024, InetSoft Technology Corp, All Rights Reserved.
  -
  - The software and information contained herein are copyrighted and
  - proprietary to InetSoft Technology Corp. This software is furnished
  - pursuant to a written license agreement and may be used, copied,
  - transmitted, and stored only in accordance with the terms of such
  - license and with the inclusion of the above copyright notice. Please
  - refer to the file "COPYRIGHT" for further copyright and licensing
  - information. This software and information or any other copies
  - thereof may not be provided or otherwise made available to any other
  - person.
  -->

<!-- Generator: Adobe Illustrator 15.1.0, SVG Export Plug-In . SVG Version: 6.00 Build 0)  -->
<!DOCTYPE svg PUBLIC "-//W3C//DTD SVG 1.1//EN" "http://www.w3.org/Graphics/SVG/1.1/DTD/svg11.dtd">
<svg version="1.1" id="Layer_1" xmlns="http://www.w3.org/2000/svg" xmlns:xlink="http://www.w3.org/1999/xlink" x="0px" y="0px"
	 width="34px" height="30px" viewBox="13.92 11.86 34 30" enable-background="new 13.92 11.86 34 30" xml:space="preserve">
<g>
	<polygon fill="#0079D6" points="17.006,26.936 23.9,14.849 37.81,14.773 44.834,26.783 37.944,38.871 24.031,38.947 	"/>
	<g>
		<path fill="#FFFFFF" d="M26.083,19.935c-1.116,0-2.025,0.913-2.025,2.025v10.387c0,1.11,0.909,2.024,2.025,2.024h9.675
			c1.111,0,2.024-0.914,2.024-2.024V22.59l-2.642-2.66h-9.058V19.935z"/>
	</g>
	<g>
		<path fill="#0079D6" d="M34.537,20.911h-8.099c-0.743,0-1.35,0.607-1.35,1.35v9.823c0,0.743,0.607,1.35,1.35,1.35h8.964
			c0.742,0,1.35-0.606,1.35-1.35v-8.739h-2.215V20.911z"/>
	</g>
	<g>
		<path fill="#FFFFFF" d="M30.542,26.167c0,0.063-0.004,0.112-0.009,0.157c-0.009,0.045-0.018,0.077-0.027,0.104
			c-0.013,0.027-0.027,0.045-0.041,0.054c-0.013,0.014-0.031,0.019-0.054,0.019h-2.354c-0.019,0-0.036-0.004-0.049-0.019
			c-0.014-0.009-0.027-0.026-0.041-0.054c-0.014-0.027-0.022-0.059-0.027-0.104c-0.005-0.045-0.009-0.094-0.009-0.157
			c0-0.063,0.004-0.117,0.009-0.157c0.004-0.041,0.013-0.077,0.027-0.104s0.027-0.045,0.041-0.059
			c0.013-0.013,0.031-0.018,0.054-0.018h0.796v-2.777l-0.684,0.378c-0.049,0.023-0.09,0.041-0.122,0.045
			c-0.032,0.004-0.059,0-0.076-0.018c-0.019-0.019-0.032-0.05-0.036-0.099c-0.009-0.045-0.009-0.113-0.009-0.193
			c0-0.055,0-0.095,0.004-0.131c0-0.036,0.009-0.063,0.018-0.085s0.023-0.045,0.036-0.058c0.018-0.014,0.036-0.032,0.063-0.05
			l0.917-0.594c0.009-0.009,0.023-0.018,0.041-0.022c0.019-0.004,0.036-0.009,0.063-0.014c0.027-0.004,0.063-0.004,0.104-0.004
			c0.045,0,0.099,0,0.166,0c0.086,0,0.149,0,0.203,0.004c0.05,0.005,0.09,0.01,0.118,0.019c0.027,0.009,0.044,0.018,0.053,0.032
			c0.009,0.013,0.014,0.026,0.014,0.049v3.524h0.693c0.018,0,0.036,0.004,0.054,0.018c0.018,0.014,0.032,0.031,0.045,0.059
			c0.014,0.027,0.022,0.063,0.027,0.104C30.538,26.05,30.542,26.104,30.542,26.167z"/>
		<path fill="#FFFFFF" d="M34.088,24.349c0,0.343-0.026,0.648-0.081,0.923c-0.054,0.274-0.145,0.509-0.27,0.702
			c-0.126,0.193-0.288,0.342-0.486,0.445c-0.198,0.103-0.441,0.153-0.729,0.153c-0.293,0-0.535-0.05-0.726-0.149
			c-0.188-0.099-0.341-0.243-0.454-0.432s-0.189-0.418-0.234-0.688c-0.045-0.27-0.067-0.581-0.067-0.923
			c0-0.337,0.027-0.643,0.085-0.922c0.054-0.275,0.144-0.509,0.27-0.702c0.122-0.193,0.284-0.342,0.486-0.446
			c0.198-0.104,0.441-0.157,0.725-0.157c0.293,0,0.536,0.049,0.729,0.148c0.193,0.099,0.347,0.243,0.453,0.432
			c0.113,0.189,0.19,0.419,0.235,0.689C34.065,23.701,34.088,24.006,34.088,24.349z M33.216,24.394c0-0.203-0.006-0.383-0.019-0.536
			c-0.01-0.153-0.027-0.287-0.05-0.404c-0.022-0.112-0.054-0.212-0.085-0.292c-0.037-0.081-0.077-0.144-0.122-0.189
			c-0.05-0.05-0.103-0.081-0.166-0.1c-0.063-0.018-0.131-0.031-0.203-0.031c-0.131,0-0.238,0.031-0.319,0.095
			c-0.086,0.063-0.152,0.157-0.202,0.283c-0.05,0.126-0.086,0.284-0.104,0.468c-0.019,0.189-0.031,0.405-0.031,0.652
			c0,0.301,0.013,0.554,0.035,0.751c0.022,0.198,0.063,0.356,0.112,0.473c0.055,0.117,0.118,0.198,0.198,0.247
			c0.081,0.045,0.18,0.072,0.292,0.072c0.086,0,0.163-0.013,0.226-0.04c0.068-0.026,0.122-0.068,0.172-0.122
			c0.049-0.054,0.09-0.125,0.121-0.207c0.032-0.086,0.059-0.18,0.081-0.288c0.022-0.108,0.035-0.234,0.04-0.374
			C33.21,24.713,33.216,24.56,33.216,24.394z"/>
	</g>
	<g>
		<path fill="#FFFFFF" d="M30.668,29.973c0,0.343-0.027,0.648-0.081,0.923c-0.054,0.274-0.144,0.51-0.271,0.703
			c-0.126,0.193-0.283,0.341-0.486,0.444c-0.198,0.104-0.441,0.153-0.729,0.153c-0.293,0-0.536-0.05-0.725-0.147
			c-0.189-0.101-0.343-0.245-0.455-0.433c-0.112-0.19-0.189-0.419-0.234-0.689c-0.045-0.269-0.067-0.58-0.067-0.923
			c0-0.337,0.027-0.644,0.085-0.921c0.059-0.276,0.144-0.51,0.271-0.703c0.125-0.193,0.288-0.341,0.486-0.444
			c0.198-0.104,0.441-0.158,0.729-0.158c0.293,0,0.536,0.049,0.729,0.149c0.193,0.098,0.347,0.242,0.455,0.431
			c0.112,0.189,0.189,0.42,0.234,0.688C30.646,29.326,30.668,29.632,30.668,29.973z M29.791,30.019c0-0.202-0.004-0.384-0.018-0.536
			c-0.009-0.153-0.027-0.287-0.05-0.404c-0.022-0.113-0.049-0.211-0.085-0.292s-0.077-0.145-0.122-0.19
			c-0.045-0.044-0.104-0.08-0.167-0.098c-0.063-0.018-0.13-0.032-0.202-0.032c-0.13,0-0.238,0.032-0.319,0.095
			c-0.085,0.062-0.153,0.157-0.203,0.283c-0.049,0.127-0.085,0.283-0.104,0.468c-0.018,0.189-0.032,0.406-0.032,0.652
			c0,0.302,0.014,0.554,0.036,0.752c0.023,0.199,0.063,0.355,0.112,0.473c0.05,0.116,0.118,0.197,0.198,0.246
			c0.082,0.046,0.18,0.072,0.293,0.072c0.085,0,0.162-0.012,0.225-0.04c0.067-0.026,0.126-0.067,0.171-0.121
			c0.049-0.053,0.09-0.125,0.122-0.206c0.032-0.086,0.059-0.181,0.081-0.294c0.023-0.112,0.036-0.233,0.045-0.372
			C29.791,30.338,29.791,30.186,29.791,30.019z"/>
		<path fill="#FFFFFF" d="M33.963,31.792c0,0.063-0.006,0.112-0.01,0.156c-0.009,0.046-0.019,0.077-0.027,0.104
			c-0.013,0.028-0.026,0.046-0.04,0.055c-0.014,0.014-0.032,0.018-0.054,0.018h-2.354c-0.019,0-0.036-0.004-0.051-0.018
			c-0.012-0.009-0.026-0.026-0.04-0.055c-0.013-0.026-0.022-0.058-0.026-0.104c-0.004-0.044-0.009-0.093-0.009-0.156
			s0.005-0.118,0.009-0.158c0.004-0.041,0.014-0.076,0.026-0.104c0.014-0.026,0.028-0.044,0.04-0.059
			c0.019-0.014,0.032-0.018,0.055-0.018h0.796v-2.777l-0.684,0.378c-0.049,0.023-0.09,0.041-0.125,0.046
			c-0.032,0.004-0.06,0-0.077-0.018c-0.018-0.02-0.031-0.051-0.036-0.101c-0.005-0.044-0.009-0.112-0.009-0.193
			c0-0.054,0-0.095,0.004-0.13c0-0.037,0.009-0.063,0.018-0.086s0.022-0.044,0.036-0.058c0.013-0.015,0.037-0.032,0.064-0.05
			l0.918-0.594c0.009-0.009,0.022-0.018,0.04-0.023c0.018-0.003,0.035-0.009,0.063-0.014c0.027-0.004,0.063-0.004,0.104-0.004
			c0.044,0,0.099,0,0.166,0c0.086,0,0.152,0,0.202,0.004c0.054,0.005,0.09,0.011,0.117,0.02c0.026,0.009,0.045,0.018,0.054,0.031
			c0.01,0.013,0.014,0.026,0.014,0.05v3.522h0.693c0.019,0,0.036,0.005,0.054,0.018c0.014,0.014,0.031,0.031,0.04,0.06
			c0.014,0.026,0.022,0.063,0.028,0.104C33.963,31.674,33.963,31.729,33.963,31.792z"/>
	</g>
</g>
</svg>
