<?xml version="1.0" encoding="utf-8"?>
<!-- Generator: Adobe Illustrator 15.1.0, SVG Export Plug-In . SVG Version: 6.00 Build 0)  -->
<!DOCTYPE svg PUBLIC "-//W3C//DTD SVG 1.1//EN" "http://www.w3.org/Graphics/SVG/1.1/DTD/svg11.dtd">
<svg version="1.1" id="Layer_1" xmlns="http://www.w3.org/2000/svg" xmlns:xlink="http://www.w3.org/1999/xlink" x="0px" y="0px"
	 width="24px" height="24px" viewBox="1 1 24 24" enable-background="new 1 1 24 24" xml:space="preserve">
<circle id="XMLID_2_" cx="16.8" cy="7.4" r="3.6"/>
<path d="M15.899,17.3v-2.7H17.7v2.7l-0.9,0.892H24V16.4c0,0-1.542-3.197-6.3-3.563V13.7h-1.801v-0.863
	C11.142,13.203,9.6,16.4,9.6,16.4v1.791l7.2,0.009L15.899,17.3z"/>
<path d="M8.601,7.187l0,2.4c0,0-0.712,0.464-1.6,0.472c-0.888-0.008-1.6-0.472-1.6-0.472v-2.4C5.288,7.219,3,9.259,3,10.387
	c0,0.536,0.184,0.84,0.52,1.272c0.53,0.603,1.152,0.936,1.577,1.167c0.008,0,0.008,0,0.016,0.009
	c0.575,0.304,1.087,0.576,1.088,0.752c0,2.234-0.579,6.374-0.751,7.626C5.42,21.332,5.4,21.457,5.4,21.587
	c0,0.88,0.721,1.6,1.601,1.601c0.879,0,1.6-0.721,1.6-1.6c0-0.13-0.018-0.254-0.048-0.374C8.38,19.959,7.8,15.782,7.8,13.587
	c0-0.168,0.528-0.44,1.104-0.761c0.024-0.008,1.109-0.552,1.616-1.215c0.316-0.415,0.48-0.712,0.48-1.225
	C11.001,9.259,8.712,7.219,8.601,7.187z"/>
</svg>
