<?xml version="1.0" encoding="utf-8"?><!DOCTYPE svg PUBLIC "-//W3C//DTD SVG 1.1//EN" "http://www.w3.org/Graphics/SVG/1.1/DTD/svg11.dtd"><svg version="1.1" xmlns="http://www.w3.org/2000/svg" xmlns:xlink="http://www.w3.org/1999/xlink" x="0px" y="0px" width="24px" height="24px" viewBox="0 0 24 24" xml:space="preserve"><polygon points="17.861,1.635 16.555,4.487 13.709,5.782 16.555,7.089 17.861,9.93 19.156,7.089 22.004,5.782 19.156,4.487"/><polygon points="7.294,1 5.638,4.643 1.996,6.299 5.638,7.956 7.294,11.598 8.951,7.956 12.594,6.299 8.951,4.643"/><polygon points="13.656,8.354 13.063,9.643 11.775,10.235 13.063,10.823 13.656,12.117 14.244,10.823 15.537,10.235 14.244,9.643"/><path fill-rule="evenodd" clip-rule="evenodd" d="M12.64,20.776c0.469-0.225,0.941-0.393,1.416-0.505s0.962-0.168,1.464-0.168c0.385,0,0.76,0.032,1.128,0.096c0.368,0.064,0.738,0.16,1.112,0.288v-6.336c-0.352-0.149-0.718-0.261-1.097-0.336c-0.378-0.074-0.759-0.112-1.144-0.112c-0.502,0-0.998,0.064-1.488,0.192s-0.955,0.32-1.392,0.576V20.776z M11.999,22.663c-0.512-0.405-1.066-0.719-1.663-0.943c-0.598-0.225-1.216-0.336-1.856-0.336c-0.447,0-0.888,0.059-1.32,0.176c-0.432,0.117-0.845,0.283-1.239,0.496c-0.224,0.117-0.44,0.111-0.648-0.017c-0.208-0.127-0.312-0.313-0.312-0.56v-7.712c0-0.117,0.029-0.229,0.088-0.336s0.146-0.187,0.264-0.24c0.491-0.255,1.003-0.447,1.536-0.575c0.533-0.129,1.077-0.192,1.632-0.192c0.619,0,1.225,0.079,1.816,0.239s1.16,0.4,1.703,0.721c0.545-0.32,1.112-0.561,1.705-0.721c0.591-0.16,1.196-0.239,1.815-0.239c0.555,0,1.099,0.063,1.632,0.192c0.534,0.128,1.046,0.32,1.536,0.575c0.117,0.054,0.205,0.134,0.264,0.24s0.089,0.219,0.089,0.336v7.712c0,0.246-0.104,0.433-0.313,0.56c-0.208,0.128-0.424,0.134-0.647,0.017c-0.395-0.213-0.809-0.379-1.24-0.496s-0.873-0.176-1.32-0.176c-0.64,0-1.259,0.111-1.856,0.336C13.066,21.944,12.512,22.258,11.999,22.663z M13.279,16.7v-1.089c0.352-0.148,0.712-0.261,1.08-0.336c0.368-0.074,0.755-0.112,1.16-0.112c0.277,0,0.549,0.021,0.815,0.064c0.268,0.043,0.528,0.096,0.784,0.16v1.023c-0.256-0.096-0.515-0.167-0.775-0.216c-0.262-0.048-0.536-0.071-0.824-0.071c-0.405,0-0.795,0.051-1.168,0.151C13.979,16.377,13.621,16.519,13.279,16.7z M13.279,19.021v-1.088c0.352-0.149,0.712-0.262,1.08-0.336s0.755-0.112,1.16-0.112c0.277,0,0.549,0.021,0.815,0.064c0.268,0.042,0.528,0.096,0.784,0.16v1.023c-0.256-0.097-0.515-0.168-0.775-0.216c-0.262-0.049-0.536-0.072-0.824-0.072c-0.405,0-0.795,0.048-1.168,0.145C13.979,18.685,13.621,18.828,13.279,19.021z M8.479,20.104c0.502,0,0.989,0.056,1.464,0.168c0.476,0.112,0.947,0.28,1.416,0.505v-6.305c-0.437-0.256-0.901-0.448-1.392-0.576s-0.986-0.192-1.488-0.192c-0.384,0-0.766,0.038-1.144,0.112c-0.379,0.075-0.744,0.187-1.097,0.336v6.336c0.374-0.128,0.744-0.224,1.112-0.288C7.72,20.136,8.096,20.104,8.479,20.104z"/></svg>
