<?xml version="1.0" standalone="no"?><!DOCTYPE svg PUBLIC "-//W3C//DTD SVG 1.1//EN" "http://www.w3.org/Graphics/SVG/1.1/DTD/svg11.dtd"><svg t="1755845514836" class="icon" viewBox="0 0 1024 1024" version="1.1" xmlns="http://www.w3.org/2000/svg" p-id="1587" xmlns:xlink="http://www.w3.org/1999/xlink" width="200" height="200"><path d="M695.872 455.36a35.2 35.2 0 0 1 35.264 35.2v410.368a35.2 35.2 0 0 1-70.528 0V490.624a35.2 35.2 0 0 1 35.264-35.264zM336.64 301.12c21.44 0 40.64 13.504 47.872 33.728l196.8 550.592a37.952 37.952 0 0 1-71.488 25.6l-69.504-194.56H232.768l-69.44 194.56a37.952 37.952 0 1 1-71.488-25.6l196.864-550.592a50.816 50.816 0 0 1 47.872-33.728z m0 125.184l-77.504 216.768H414.08L336.576 426.24z m460.608-250.56l3.584 0.512c3.456 1.088 6.208 3.84 7.36 7.232l29.248 89.6 91.392 32.64a11.392 11.392 0 0 1-0.64 21.632l-89.6 25.344-27.648 88.192a11.328 11.328 0 0 1-21.568 0.128l-29.248-89.6-88.704-28.288a11.392 11.392 0 0 1-0.192-21.568l87.68-29.696 27.776-88.192a11.328 11.328 0 0 1 14.144-7.424l-3.584-0.512zM597.12 96l2.496 0.384a7.936 7.936 0 0 1 4.992 5.248l16.64 53.568 54.848 18.688a7.936 7.936 0 0 1-0.256 15.168l-54.592 16.384-17.856 53.76a7.872 7.872 0 0 1-15.04-0.064l-16.64-53.632-53.12-16.128a7.936 7.936 0 0 1-0.32-15.104l53.568-18.944 17.792-53.888a7.872 7.872 0 0 1 9.984-5.056l-2.56-0.384z" p-id="1588"></path></svg>