<?xml version="1.0" encoding="utf-8"?>
<!-- Generator: Adobe Illustrator 15.1.0, SVG Export Plug-In . SVG Version: 6.00 Build 0)  -->
<!DOCTYPE svg PUBLIC "-//W3C//DTD SVG 1.1//EN" "http://www.w3.org/Graphics/SVG/1.1/DTD/svg11.dtd">
<svg version="1.1" id="Layer_1" xmlns="http://www.w3.org/2000/svg" xmlns:xlink="http://www.w3.org/1999/xlink" x="0px" y="0px"
	 width="24px" height="24px" viewBox="0 0 24 24" enable-background="new 0 0 24 24" xml:space="preserve">
<circle cx="19" cy="4" r="2"/>
<path d="M14,18c0,1.657-1.342,3-2.998,3C9.343,21,8,19.657,8,18s1.343-3,3.002-3C12.658,15,14,16.343,14,18z"/>
<path d="M19.809,14.412c0.06-1.995,3.517-7.787-1.705-10.275l0,0C12.563,1.453,10.4,7.58,8.819,8.798
	C7.48,9.831,3.58,9.637,3.116,12.003c1.876-0.685,5.469-0.527,9.983,1.929c0.064,0.035-0.067-0.031,0,0
	c4.635,2.219,6.355,5.146,6.899,7.068C21.646,19.236,19.756,16.104,19.809,14.412z"/>
<path d="M13.285,13.714c-2.91-1.669-5.771-2.59-7.656-2.59c-1.002,0-2.201,0.33-2.512,0.876c-0.667,1.875,1.541,4.441,6,7
	c2.91,1.669,6.688,3,8.572,3c1.002,0,1.998-0.454,2.311-1C20.895,19.426,17.744,16.273,13.285,13.714z M17.979,20.303
	c-0.377,0.653-3.543-0.47-7.074-2.508c-3.115-1.799-5.469-3.707-5.72-4.58c-0.009-0.016-0.024-0.037-0.032-0.053
	c0.007-0.001,0.016-0.001,0.023-0.002c-0.017-0.092-0.016-0.174,0.02-0.237c0.377-0.653,3.544,0.47,7.074,2.509
	C15.8,17.469,18.355,19.65,17.979,20.303z"/>
</svg>
