<svg xmlns="http://www.w3.org/2000/svg" viewBox="0 0 24 24"><g transform="translate(0, 24) scale(0.025)"><path d="M324-111.5Q251-143 197-197t-85.5-127Q80-397 80-480q0-114 59.5-210.5T301-838q1 19 4 38.5t10 45.5q-72 44-113.5 116.5T160-480q0 134 93 227t227 93q134 0 227-93t93-227q0-85-41.5-158T644-755q7-26 10-45.5t5-37.5q102 51 161.5 147T880-480q0 83-31.5 156T763-197q-54 54-127 85.5T480-80q-83 0-156-31.5ZM310-310q-70-70-70-170 0-58 25.5-109t72.5-85q5 15 11 34.5t16 48.5q-22 23-33.5 51T320-480q0 66 47 113t113 47q66 0 113-47t47-113q0-32-11.5-60T595-591q8-24 14.5-44.5T621-674q47 34 73 85t26 109q0 100-70 170t-170 70q-100 0-170-70Zm130-310q-37-112-48.5-157.5T380-860q0-42 29-71t71-29q42 0 71 29t29 71q0 37-11.5 82.5T520-620h-80Zm-16.5 196.5Q400-447 400-480t23.5-56.5Q447-560 480-560t56.5 23.5Q560-513 560-480t-23.5 56.5Q513-400 480-400t-56.5-23.5Z"/></g></svg>