<?xml version="1.0" encoding="utf-8"?>
<!-- Generator: Adobe Illustrator 15.1.0, SVG Export Plug-In . SVG Version: 6.00 Build 0)  -->
<!DOCTYPE svg PUBLIC "-//W3C//DTD SVG 1.1//EN" "http://www.w3.org/Graphics/SVG/1.1/DTD/svg11.dtd">
<svg version="1.1" id="Layer_1" xmlns="http://www.w3.org/2000/svg" xmlns:xlink="http://www.w3.org/1999/xlink" x="0px" y="0px"
	 width="24px" height="24px" viewBox="-0.5 -0.5 24 24" enable-background="new -0.5 -0.5 24 24" xml:space="preserve">
<path d="M21.3,8.1l-2.2-3.6c-0.399-0.6-1-1-1.699-1H14l2.1,2h1.5l1.7,3h-0.8h-14H3.7l1.7-3h1.5l2.1-2H5.6c-0.7,0-1.3,0.4-1.7,1
	L1.7,8.1C1.6,8.3,1.5,8.7,1.5,9v10.5c0,1.1,0.9,2,2,2h16c1.1,0,2-0.9,2-2v-4V9C21.5,8.7,21.4,8.3,21.3,8.1z M14.5,12.5
	c-0.2,0-5.8,0-6,0c-0.6,0-1-0.4-1-1c0-0.6,0.4-1,1-1c0.2,0,5.8,0,6,0c0.6,0,1,0.4,1,1C15.5,12.1,15.1,12.5,14.5,12.5z"/>
<path d="M16,7.5l-3.9-3.7c-0.399-0.4-0.899-0.4-1.3,0L7,7.5H16z"/>
</svg>
