<?xml version="1.0" encoding="utf-8"?>
<!-- Generator: Adobe Illustrator 15.1.0, SVG Export Plug-In . SVG Version: 6.00 Build 0)  -->
<!DOCTYPE svg PUBLIC "-//W3C//DTD SVG 1.1//EN" "http://www.w3.org/Graphics/SVG/1.1/DTD/svg11.dtd">
<svg version="1.1" id="Layer_1" xmlns="http://www.w3.org/2000/svg" xmlns:xlink="http://www.w3.org/1999/xlink" x="0px" y="0px"
	 width="24px" height="24px" viewBox="0.5 0.5 24 24" enable-background="new 0.5 0.5 24 24" xml:space="preserve">
<path d="M16.355,8c-0.111,0.162-0.244,0.332-0.416,0.521c-0.561,0.63-1.472,1.43-2.297,2.18h0.713v4.5h-1.072h-0.067
	c0.011,0.082,0.022,0.167,0.022,0.251c0,0.6-0.284,1.143-0.738,1.549h4v-9L16.355,8L16.355,8z"/>
<rect x="11.5" y="19" width="5" height="5"/>
<rect x="19" y="15" width="5" height="9"/>
<rect x="19" y="8" width="5" height="5"/>
<path d="M8.5,13.7c-0.233,0-0.45-0.116-0.58-0.31l-4.2-6.229c-0.216-0.32-0.131-0.756,0.189-0.972
	c0.32-0.216,0.755-0.131,0.972,0.189l3.617,5.365l3.62-5.431c0.215-0.322,0.647-0.409,0.971-0.194
	c0.323,0.214,0.409,0.649,0.194,0.971l-4.2,6.3C8.953,13.583,8.735,13.7,8.502,13.7C8.502,13.7,8.501,13.7,8.5,13.7z"/>
<path d="M9.9,16.5H7.1c-0.77,0-1.4-0.629-1.4-1.4V13c0-0.77,0.63-1.4,1.4-1.4h2.8c0.77,0,1.399,0.631,1.399,1.4v2.1
	C11.3,15.871,10.67,16.5,9.9,16.5z"/>
<path d="M5.7,7.4H2.9C2.13,7.4,1.5,6.77,1.5,6V3.9c0-0.77,0.63-1.4,1.4-1.4h2.8c0.77,0,1.4,0.63,1.4,1.4V6
	C7.1,6.77,6.47,7.4,5.7,7.4z"/>
<path d="M14.1,7.4h-2.8C10.53,7.4,9.9,6.77,9.9,6V3.9c0-0.77,0.63-1.4,1.399-1.4h2.8c0.771,0,1.4,0.63,1.4,1.4V6
	C15.5,6.77,14.87,7.4,14.1,7.4z"/>
</svg>
