<?xml version="1.0" encoding="UTF-8" standalone="no"?>
<svg version="1.1" width="24" height="24" viewBox="0 0 24 24" id="svg1" xmlns="http://www.w3.org/2000/svg">
  <path id="path1" d="M 15.5 2 C 13.000003 2 11 4.0000025 11 6.5 C 11 8.9999975 13.000003 11 15.5 11 C 16.399999 11 17.200391 10.700781 17.900391 10.300781 L 21 13.400391 L 22.400391 12 L 19.300781 8.9003906 C 19.700781 8.2003913 20 7.3999991 20 6.5 C 20 4.0000025 17.999997 2 15.5 2 z M 4 4 A 2 2 0 0 0 2 6 L 2 20 A 2 2 0 0 0 4 22 L 18 22 A 2 2 0 0 0 20 20 L 20 15 L 17.599609 12.599609 C 16.99961 12.899609 16.299999 13 15.5 13 C 11.900004 13 9 10.099996 9 6.5 C 9 5.6000009 9.2000003 4.7999992 9.5 4 L 4 4 z M 15.5 4 C 16.899999 4 18 5.1000014 18 6.5 C 18 7.8999986 16.899999 9 15.5 9 C 14.100001 9 13 7.8999986 13 6.5 C 13 5.1000014 14.100001 4 15.5 4 z M 10.308594 13.28125 L 11.40625 14.580078 L 6.7363281 20.107422 L 4.0117188 16.882812 L 5.109375 15.583984 L 6.7363281 17.5 L 10.308594 13.28125 z " />
</svg>
