<?xml version="1.0" encoding="UTF-8" standalone="no"?>
<svg
   xmlns:dc="http://purl.org/dc/elements/1.1/"
   xmlns:cc="http://creativecommons.org/ns#"
   xmlns:rdf="http://www.w3.org/1999/02/22-rdf-syntax-ns#"
   xmlns:svg="http://www.w3.org/2000/svg"
   xmlns="http://www.w3.org/2000/svg"
   xmlns:sodipodi="http://sodipodi.sourceforge.net/DTD/sodipodi-0.dtd"
   xmlns:inkscape="http://www.inkscape.org/namespaces/inkscape"
   version="1.1"
   width="24"
   height="24"
   viewBox="0 0 24 24"
   id="svg4766"
   sodipodi:docname="auto-complete-click.svg"
   inkscape:version="0.92.3 (2405546, 2018-03-11)">
  <metadata
     id="metadata4772">
    <rdf:RDF>
      <cc:Work
         rdf:about="">
        <dc:format>image/svg+xml</dc:format>
        <dc:type
           rdf:resource="http://purl.org/dc/dcmitype/StillImage" />
        <dc:title></dc:title>
      </cc:Work>
    </rdf:RDF>
  </metadata>
  <defs
     id="defs4770" />
  <sodipodi:namedview
     pagecolor="#ffffff"
     bordercolor="#666666"
     borderopacity="1"
     objecttolerance="10"
     gridtolerance="10"
     guidetolerance="10"
     inkscape:pageopacity="0"
     inkscape:pageshadow="2"
     inkscape:window-width="1651"
     inkscape:window-height="906"
     id="namedview4768"
     showgrid="false"
     inkscape:zoom="1"
     inkscape:cx="12"
     inkscape:cy="12"
     inkscape:window-x="3975"
     inkscape:window-y="46"
     inkscape:window-maximized="0"
     inkscape:current-layer="svg4766" />
  <path
     d="m 6.040977,14.088196 a 1.4767979,1.4767979 0 0 0 -1.4767979,1.476799 v 5.907191 H 6.040977 V 18.51859 h 1.4767977 v 2.953596 H 8.9945726 V 15.564995 A 1.4767979,1.4767979 0 0 0 7.5177747,14.088196 H 6.040977 m 0,1.476799 h 1.4767977 v 1.476797 H 6.040977 Z"
     id="path4764"
     inkscape:connector-curvature="0"
     style="stroke-width:0.73839891" />
  <path
     id="path4784"
     d="m 12.291536,11.982361 h 8.332881 a 1.1904116,1.1904116 0 0 1 1.190412,1.190411 v 8.332882 a 1.1904116,1.1904116 0 0 1 -1.190412,1.190412 h -8.332881 a 1.1904116,1.1904116 0 0 1 -1.190412,-1.190412 v -8.332882 a 1.1904116,1.1904116 0 0 1 1.190412,-1.190411 m 5.952057,4.464044 v -0.892809 a 1.1904116,1.1904116 0 0 0 -1.190412,-1.190412 h -2.380822 v 5.952058 h 2.380822 a 1.1904116,1.1904116 0 0 0 1.190412,-1.190412 v -0.892808 c 0,-0.476166 -0.416643,-0.89281 -0.892808,-0.89281 0.476165,0 0.892808,-0.416644 0.892808,-0.892807 m -1.190412,2.678425 h -1.19041 v -1.190412 h 1.19041 v 1.190412 m 0,-2.380822 h -1.19041 v -1.190412 h 1.19041 z"
     inkscape:connector-curvature="0"
     style="stroke-width:0.59520572" />
  <path
     id="path4860"
     d="M 4.2142246,2.5736887 2.6328958,3.4592317 3.5184392,1.8779032 2.6328958,0.29657957 4.2142246,1.1821224 5.7955501,0.29657957 4.9100067,1.8779032 5.7955501,3.4592317 4.2142246,2.5736887 M 11.80459,8.7724894 13.385919,7.8869481 12.500375,9.4682733 13.385919,11.049602 11.80459,10.16406 10.223266,11.049602 11.108809,9.4682733 10.223266,7.8869481 11.80459,8.7724894 M 13.385919,0.29657957 12.500375,1.8779032 13.385919,3.4592317 11.80459,2.5736887 10.223266,3.4592317 11.108809,1.8779032 10.223266,0.29657957 11.80459,1.1821224 13.385919,0.29657957 M 7.9082027,7.1152586 9.4515779,5.5718859 8.1106131,4.230918 6.5672394,5.7742954 7.9082027,7.1152586 M 8.5597101,3.6426662 10.039832,5.1227871 c 0.246684,0.2340314 0.246684,0.6451823 0,0.8918703 L 2.6581987,13.396287 c -0.2466868,0.246687 -0.6578335,0.246687 -0.8918695,0 L 0.28620696,11.916168 c -0.24668665,-0.234032 -0.24668665,-0.64518 0,-0.891868 L 7.6678422,3.6426662 c 0.2466851,-0.2466851 0.6578301,-0.2466851 0.8918679,0 z"
     inkscape:connector-curvature="0"
     style="stroke-width:0.63253081" />
  <path
     id="path4927"
     d="m 20.197403,10.999638 c -0.269661,0.129437 -0.593254,0.01618 -0.717297,-0.253481 l -1.17572,-2.5563802 -1.353694,1.0894279 c -0.09168,0.075505 -0.204942,0.1186506 -0.334379,0.1186506 A 0.53932078,0.53932078 0 0 1 16.076992,8.8585345 V 0.76872261 a 0.53932078,0.53932078 0 0 1 0.539321,-0.53932079 c 0.129437,0 0.253481,0.0485388 0.345164,0.12404378 l 0.0054,-0.005393 6.196802,5.1990525 c 0.231909,0.1941558 0.258875,0.5339278 0.07011,0.7604426 -0.0809,0.097078 -0.194155,0.1617962 -0.307412,0.183369 l -1.704254,0.334379 1.186506,2.5509872 c 0.140223,0.2696604 0.01078,0.5878599 -0.258874,0.7119021 z"
     inkscape:connector-curvature="0"
     style="stroke-width:0.53932077" />
</svg>
