<?xml version="1.0" encoding="UTF-8" standalone="no"?>
<svg
   xmlns:dc="http://purl.org/dc/elements/1.1/"
   xmlns:cc="http://creativecommons.org/ns#"
   xmlns:rdf="http://www.w3.org/1999/02/22-rdf-syntax-ns#"
   xmlns:svg="http://www.w3.org/2000/svg"
   xmlns="http://www.w3.org/2000/svg"
   xmlns:sodipodi="http://sodipodi.sourceforge.net/DTD/sodipodi-0.dtd"
   xmlns:inkscape="http://www.inkscape.org/namespaces/inkscape"
   version="1.1"
   width="24"
   height="24"
   viewBox="0 0 24 24"
   id="svg5633"
   sodipodi:docname="auto-join.svg"
   inkscape:version="0.92.3 (2405546, 2018-03-11)">
  <metadata
     id="metadata5639">
    <rdf:RDF>
      <cc:Work
         rdf:about="">
        <dc:format>image/svg+xml</dc:format>
        <dc:type
           rdf:resource="http://purl.org/dc/dcmitype/StillImage" />
        <dc:title></dc:title>
      </cc:Work>
    </rdf:RDF>
  </metadata>
  <defs
     id="defs5637" />
  <sodipodi:namedview
     pagecolor="#ffffff"
     bordercolor="#666666"
     borderopacity="1"
     objecttolerance="10"
     gridtolerance="10"
     guidetolerance="10"
     inkscape:pageopacity="0"
     inkscape:pageshadow="2"
     inkscape:window-width="1920"
     inkscape:window-height="1017"
     id="namedview5635"
     showgrid="false"
     inkscape:zoom="1"
     inkscape:cx="12"
     inkscape:cy="12"
     inkscape:window-x="3832"
     inkscape:window-y="-8"
     inkscape:window-maximized="1"
     inkscape:current-layer="svg5633" />
  <path
     d="m 13.260254,12.063943 a 5.6599057,5.6599057 0 0 0 -5.6599068,5.659904 5.6599057,5.6599057 0 0 0 5.6599068,5.659906 c 0.8409,0 1.665629,-0.194053 2.425673,-0.549819 0.760045,0.355766 1.584774,0.549819 2.425674,0.549819 a 5.6599057,5.6599057 0 0 0 5.659906,-5.659906 5.6599057,5.6599057 0 0 0 -5.659906,-5.659904 c -0.8409,0 -1.665629,0.194054 -2.425674,0.549818 -0.760044,-0.355764 -1.584773,-0.549818 -2.425673,-0.549818 m 0,1.617115 c 0.274909,0 0.541734,0.02426 0.808558,0.08086 -1.034954,1.059211 -1.617117,2.482274 -1.617117,3.961935 0,1.47966 0.582163,2.902723 1.617117,3.953848 -0.266824,0.05659 -0.533649,0.08894 -0.808558,0.08894 A 4.0427898,4.0427898 0 0 1 9.2174632,17.723847 4.0427898,4.0427898 0 0 1 13.260254,13.681058 m 4.851347,0 a 4.0427898,4.0427898 0 0 1 4.042791,4.042789 4.0427898,4.0427898 0 0 1 -4.042791,4.042791 c -0.274909,0 -0.541734,-0.02426 -0.808558,-0.08086 1.034954,-1.05921 1.617116,-2.482273 1.617116,-3.961934 0,-1.47966 -0.582162,-2.902722 -1.617116,-3.953849 0.266824,-0.05659 0.533649,-0.08894 0.808558,-0.08894 m -2.425674,0.808557 c 1.018783,0.76813 1.617116,1.964797 1.617116,3.234233 0,1.269436 -0.598333,2.466101 -1.617116,3.234231 -1.018782,-0.76813 -1.617115,-1.964795 -1.617115,-3.234231 0,-1.269436 0.598333,-2.466103 1.617115,-3.234233 z"
     id="path5631"
     inkscape:connector-curvature="0"
     style="stroke-width:0.80855793" />
  <path
     id="path6249"
     d="M 4.3639046,2.4573709 2.7215972,3.3770635 3.6412893,1.7347553 2.7215972,0.09244717 4.3639046,1.0121397 6.0062136,0.09244717 5.08652,1.7347553 6.0062136,3.3770635 4.3639046,2.4573709 m 7.8830804,6.4378482 1.642311,-0.9196925 -0.919694,1.6423081 0.919694,1.6423083 -1.642311,-0.919693 -1.642308,0.919693 0.919694,-1.6423083 -0.919694,-1.6423081 1.642308,0.9196925 M 13.889296,0.09244717 12.969602,1.7347553 13.889296,3.3770635 12.246985,2.4573709 10.604677,3.3770635 11.524371,1.7347553 10.604677,0.09244717 12.246985,1.0121397 13.889296,0.09244717 M 8.2003384,7.1740801 9.8032303,5.5711872 8.4105536,4.1785099 6.8076602,5.7814026 8.2003384,7.1740801 M 8.8769688,3.5675712 10.414169,5.1047716 c 0.256201,0.2430616 0.256201,0.6700617 0,0.9262618 L 2.7478743,13.697329 c -0.2562,0.2562 -0.6831998,0.2562 -0.9262611,0 L 0.28441095,12.160128 c -0.2562001,-0.243061 -0.2562001,-0.670063 0,-0.926261 L 7.9507075,3.5675712 c 0.2562002,-0.2562001 0.6831998,-0.2562001 0.9262613,0 z"
     inkscape:connector-curvature="0"
     style="stroke-width:0.65692329" />
</svg>
