<?xml version="1.0" encoding="utf-8"?>
<!-- Generator: Adobe Illustrator 15.1.0, SVG Export Plug-In . SVG Version: 6.00 Build 0)  -->
<!DOCTYPE svg PUBLIC "-//W3C//DTD SVG 1.1//EN" "http://www.w3.org/Graphics/SVG/1.1/DTD/svg11.dtd">
<svg version="1.1" id="Layer_1" xmlns="http://www.w3.org/2000/svg" xmlns:xlink="http://www.w3.org/1999/xlink" x="0px" y="0px"
	 width="24px" height="24px" viewBox="-2 -2 24 24" enable-background="new -2 -2 24 24" xml:space="preserve">
<path d="M15.854,3.146C14.228,1.514,11.982,0.5,9.5,0.5c-4.963,0-9,4.038-9,9h2c0-3.86,3.141-7,7-7c1.931,0,3.666,0.799,4.931,2.069
	L11.5,7.5h7v-7L15.854,3.146z"/>
<path d="M16.5,9.5c0,3.859-3.141,7-7,7c-1.931,0-3.666-0.799-4.932-2.068L7.5,11.5h-7v7l2.646-2.646
	C4.773,17.486,7.018,18.5,9.5,18.5c4.963,0,9-4.037,9-9H16.5z"/>
<polyline points="8.5,5.6 8.5,10.709 13.21,13.5 14,12.22 10,9.85 10,5.6 "/>
</svg>
