<?xml version="1.0" encoding="utf-8"?>
<!-- Generator: Adobe Illustrator 15.1.0, SVG Export Plug-In . SVG Version: 6.00 Build 0)  -->
<!DOCTYPE svg PUBLIC "-//W3C//DTD SVG 1.1//EN" "http://www.w3.org/Graphics/SVG/1.1/DTD/svg11.dtd">
<svg version="1.1" id="Layer_1" xmlns="http://www.w3.org/2000/svg" xmlns:xlink="http://www.w3.org/1999/xlink" x="0px" y="0px"
	 width="24px" height="24px" viewBox="0 0 24 24" enable-background="new 0 0 24 24" xml:space="preserve">
<polyline points="12.5,12.5 17.5,12.5 17.5,14.5 14.5,14.5 14.5,17.5 12.5,17.5 12.5,12.5 "/>
<polyline points="5.5,12.5 10.5,12.5 10.5,17.5 8.5,17.5 8.5,14.5 5.5,14.5 5.5,12.5 "/>
<polyline points="8.5,5.5 10.5,5.5 10.5,10.5 5.5,10.5 5.5,8.5 8.5,8.5 8.5,5.5 "/>
<polygon points="17.5,8.5 17.5,10.5 12.5,10.5 12.5,5.5 14.5,5.5 14.5,8.5 "/>
<path d="M4.5,21.5c1.667,0,3-1.334,3-3s-1.333-3-3-3s-3,1.334-3,3S2.833,21.5,4.5,21.5z"/>
<polygon points="18.5,15.5 15.5,21.5 21.5,21.5 "/>
<rect x="1.5" y="1.5" width="6" height="6"/>
<path d="M15.5,1.5v6h6v-6H15.5z M19.5,5.5h-2v-2h2V5.5z"/>
</svg>
