<?xml version="1.0" encoding="utf-8"?>
<!-- Generator: Adobe Illustrator 15.1.0, SVG Export Plug-In . SVG Version: 6.00 Build 0)  -->
<!DOCTYPE svg PUBLIC "-//W3C//DTD SVG 1.1//EN" "http://www.w3.org/Graphics/SVG/1.1/DTD/svg11.dtd">
<svg version="1.1" id="Layer_1" xmlns="http://www.w3.org/2000/svg" xmlns:xlink="http://www.w3.org/1999/xlink" x="0px" y="0px"
	 width="24px" height="24px" viewBox="0 0 24 24" enable-background="new 0 0 24 24" xml:space="preserve">
<g>
	<path fill="none" d="M4.895,9.43v7.272H6.5v-5.868C6.5,10.097,7.14,9.5,7.929,9.5h7.141c0.785,0,1.43,0.593,1.43,1.334v5.868h1.605
		V9.43L11.5,4.036L4.895,9.43z"/>
	<path d="M11.5,1.5L0.59,10.409h2.102V18.5H6.5v3l5-2l5,2v-3h3.807v-8.091h2.104L11.5,1.5z M18.105,16.702H16.5v-5.868
		c0-0.741-0.645-1.334-1.43-1.334H7.929C7.14,9.5,6.5,10.097,6.5,10.834v5.868H4.895V9.43L11.5,4.036l6.605,5.394V16.702z"/>
</g>
</svg>
