<?xml version="1.0" encoding="utf-8"?>
<!-- Generator: Adobe Illustrator 15.1.0, SVG Export Plug-In . SVG Version: 6.00 Build 0)  -->
<!DOCTYPE svg PUBLIC "-//W3C//DTD SVG 1.1//EN" "http://www.w3.org/Graphics/SVG/1.1/DTD/svg11.dtd">
<svg version="1.1" id="Layer_1" xmlns="http://www.w3.org/2000/svg" xmlns:xlink="http://www.w3.org/1999/xlink" x="0px" y="0px"
	 width="24px" height="24px" viewBox="-0.5 -0.5 24 24" enable-background="new -0.5 -0.5 24 24" xml:space="preserve">
<polyline points="6.644,15.25 6.644,12.62 1.5,12.62 1.5,9.38 6.644,9.38 6.644,6.75 10.5,11 6.644,15.25 "/>
<g>
	<polygon fill="none" points="19.494,8.305 15.822,11.626 15.5,11.304 14.127,9.931 13.785,10.272 13.066,10.991 15.03,12.954 
		15.5,13.424 15.771,13.695 20.5,9.417 	"/>
	<path d="M13.785,18.166L9.5,15.744l-4.286,2.422V14.5H3.5v7l6-3.334l6,3.334v-5.601c-0.623-0.127-1.199-0.375-1.715-0.709V18.166z"
		/>
	<path d="M15.5,3.723c0-1.234-0.771-2.223-1.715-2.223H5.214C4.268,1.5,3.5,2.495,3.5,3.723V7.5h1.714V3.723h8.571V6.81
		c0.516-0.334,1.092-0.583,1.715-0.709V3.723z"/>
	<path d="M16.5,6c-0.343,0-0.677,0.035-1,0.101c-0.623,0.126-1.199,0.375-1.715,0.709C12.412,7.701,11.5,9.241,11.5,11
		s0.912,3.299,2.285,4.19c0.516,0.334,1.092,0.582,1.715,0.709c0.323,0.065,0.657,0.101,1,0.101c2.762,0,5-2.238,5-5
		C21.5,8.239,19.262,6,16.5,6z M15.771,13.695L15.5,13.424l-0.47-0.47l-1.964-1.963l0.719-0.719l0.342-0.342l1.373,1.373
		l0.322,0.322l3.672-3.321L20.5,9.417L15.771,13.695z"/>
</g>
</svg>
