<?xml version="1.0" encoding="iso-8859-1"?>
<!-- Generator: Adobe Illustrator 20.0.0, SVG Export Plug-In . SVG Version: 6.00 Build 0)  -->
<svg xmlns="http://www.w3.org/2000/svg" xmlns:xlink="http://www.w3.org/1999/xlink" version="1.1" x="0px" y="0px" viewBox="0 0 24 24" style="enable-background:new 0 0 24 24;" xml:space="preserve" width="24px" height="24px">
<path d="M20.09,4.786C19.084,4.268,17.818,4,16.444,4s-2.639,0.268-3.646,0.786C12.491,4.944,12.267,5.204,12,5.429  c-0.267-0.224-0.491-0.485-0.799-0.643C10.195,4.268,8.929,4,7.556,4S4.916,4.268,3.91,4.786C2.903,5.303,2,6.177,2,7.429v11.429V20  h1.111H10c0,0.552,0.895,1,2,1s2-0.448,2-1h6.889H22v-1.143V7.429C22,6.177,21.097,5.303,20.09,4.786z M7.515,17.132  c-1.406,0-2.654,0.329-3.515,0.852V7.218C4,7.213,4.095,6.897,4.732,6.56C5.37,6.223,6.386,5.979,7.515,5.979  S9.66,6.223,10.297,6.56c0.637,0.337,0.732,0.653,0.732,0.658v10.766C10.169,17.461,8.921,17.132,7.515,17.132z M20.008,18.047  c-0.86-0.526-2.107-0.856-3.512-0.856s-2.652,0.331-3.512,0.856V7.225c0-0.006,0.095-0.323,0.732-0.662  c0.637-0.339,1.652-0.584,2.78-0.584s2.143,0.245,2.78,0.584c0.637,0.339,0.732,0.656,0.732,0.662V18.047z"/>
</svg>
