<?xml version="1.0" encoding="utf-8"?>
<!-- Generator: Adobe Illustrator 15.1.0, SVG Export Plug-In . SVG Version: 6.00 Build 0)  -->
<!DOCTYPE svg PUBLIC "-//W3C//DTD SVG 1.1//EN" "http://www.w3.org/Graphics/SVG/1.1/DTD/svg11.dtd">
<svg version="1.1" id="Layer_1" xmlns="http://www.w3.org/2000/svg" xmlns:xlink="http://www.w3.org/1999/xlink" x="0px" y="0px"
	 width="24px" height="24px" viewBox="-0.5 -0.5 24 24" enable-background="new -0.5 -0.5 24 24" xml:space="preserve">
<g>
	<path d="M4.163,15.5v-3.31L1.608,7.417h2.099l0.815,1.943c0.252,0.588,0.432,1.02,0.624,1.547H5.17
		c0.18-0.504,0.372-0.972,0.612-1.547l0.815-1.943h2.051L5.985,12.13v3.37H4.163z"/>
</g>
<g>
	<path d="M14.512,15.5V7.417h2.135l1.68,2.962c0.479,0.852,0.947,1.859,1.319,2.771h0.024c-0.108-1.067-0.145-2.159-0.145-3.382
		V7.417h1.68V15.5h-1.92l-1.727-3.118c-0.479-0.864-1.02-1.907-1.403-2.854h-0.048c0.061,1.079,0.084,2.219,0.084,3.538V15.5H14.512
		z"/>
</g>
<rect x="10.5" y="4.5" width="2" height="14"/>
</svg>
