<?xml version="1.0" encoding="utf-8"?>
<!-- Generator: Adobe Illustrator 15.1.0, SVG Export Plug-In . SVG Version: 6.00 Build 0)  -->
<!DOCTYPE svg PUBLIC "-//W3C//DTD SVG 1.1//EN" "http://www.w3.org/Graphics/SVG/1.1/DTD/svg11.dtd">
<svg version="1.1" id="Layer_1" xmlns="http://www.w3.org/2000/svg" xmlns:xlink="http://www.w3.org/1999/xlink" x="0px" y="0px"
	 width="24px" height="24px" viewBox="0 0 24 24" enable-background="new 0 0 24 24" xml:space="preserve">
<path d="M20.209,3.631l-1.34-1.34c-0.37-0.39-1.021-0.39-1.41,0l-8.96,8.96l2.75,2.75l8.96-8.959
	C20.599,4.651,20.599,4.001,20.209,3.631 M6.499,13.001c-1.657,0-3,1.344-3,3c0,1.311-1.16,2-2,2c0.92,1.22,2.5,2,4,2
	c2.209,0,4-1.791,4-4C9.499,14.345,8.156,13.001,6.499,13.001z"/>
<polygon points="20.09,13 17.5,15.59 14.91,13 13.5,14.41 16.09,17 13.5,19.59 14.91,21 17.5,18.41 20.09,21 21.5,19.59 18.91,17 
	21.5,14.41 "/>
</svg>
