<?xml version="1.0" encoding="utf-8"?>
<!-- Generator: Adobe Illustrator 15.1.0, SVG Export Plug-In . SVG Version: 6.00 Build 0)  -->
<!DOCTYPE svg PUBLIC "-//W3C//DTD SVG 1.1//EN" "http://www.w3.org/Graphics/SVG/1.1/DTD/svg11.dtd">
<svg version="1.1" id="Layer_1" xmlns="http://www.w3.org/2000/svg" xmlns:xlink="http://www.w3.org/1999/xlink" x="0px" y="0px"
	 width="24px" height="24px" viewBox="0 0 24 24" enable-background="new 0 0 24 24" xml:space="preserve">
<path stroke="#000000" stroke-width="0.7552" stroke-miterlimit="10" d="M11.237,5.75C10.468,5.669,9.789,6.328,9.72,7.233
	L9.544,9.587h1.974v1.629h-2.1l-0.307,4.131C8.979,17.14,7.62,18.469,6.08,18.305c-0.917-0.09-1.687-0.685-2.142-1.523l1.05-1.222
	c0.168,0.603,0.63,1.067,1.211,1.123c0.77,0.083,1.449-0.577,1.52-1.48l0.301-3.985h-2.1V9.587h2.219l0.189-2.501
	c0.133-1.792,1.492-3.121,3.031-2.958c0.918,0.09,1.688,0.684,2.143,1.523l-1.051,1.223C12.281,6.271,11.818,5.807,11.237,5.75z"/>
<polyline points="20.221,12.803 17.65,16.14 20.221,19.476 19.431,20.5 16.86,17.164 14.289,20.5 13.5,19.476 16.07,16.14 
	13.5,12.803 14.289,11.779 16.86,15.115 19.431,11.779 20.221,12.803 "/>
</svg>
