<?xml version="1.0" encoding="utf-8"?>
<!-- Generator: Adobe Illustrator 15.1.0, SVG Export Plug-In . SVG Version: 6.00 Build 0)  -->
<!DOCTYPE svg PUBLIC "-//W3C//DTD SVG 1.1//EN" "http://www.w3.org/Graphics/SVG/1.1/DTD/svg11.dtd">
<svg version="1.1" id="Layer_1" xmlns="http://www.w3.org/2000/svg" xmlns:xlink="http://www.w3.org/1999/xlink" x="0px" y="0px"
	 width="24px" height="24px" viewBox="0 0 24 24" enable-background="new 0 0 24 24" xml:space="preserve">
<path stroke="#000000" stroke-width="0.7552" stroke-miterlimit="10" d="M11.238,5.75C10.469,5.669,9.79,6.328,9.72,7.233
	L9.545,9.587h1.974v1.629h-2.1l-0.307,4.13C8.979,17.14,7.62,18.468,6.08,18.305c-0.917-0.09-1.687-0.685-2.142-1.522l1.05-1.223
	c0.168,0.603,0.63,1.067,1.211,1.123c0.77,0.083,1.449-0.577,1.52-1.48l0.301-3.985h-2.1V9.587h2.219l0.189-2.501
	c0.133-1.792,1.492-3.121,3.032-2.958c0.917,0.09,1.687,0.684,2.142,1.523l-1.05,1.223C12.282,6.271,11.819,5.807,11.238,5.75z"/>
<path d="M14,11.5h6.5V14H20l-0.5-1.5h-2.971l1.796,2.564L16.27,18h3.23l0.5-1h0.5v2.5H14l2.8-4L14,11.5z"/>
</svg>
