<?xml version="1.0" encoding="utf-8"?>
<!-- Generator: Adobe Illustrator 15.1.0, SVG Export Plug-In . SVG Version: 6.00 Build 0)  -->
<!DOCTYPE svg PUBLIC "-//W3C//DTD SVG 1.1//EN" "http://www.w3.org/Graphics/SVG/1.1/DTD/svg11.dtd">
<svg version="1.1" id="Layer_1" xmlns="http://www.w3.org/2000/svg" xmlns:xlink="http://www.w3.org/1999/xlink" x="0px" y="0px"
	 width="24px" height="24px" viewBox="0.5 0.5 24 24" enable-background="new 0.5 0.5 24 24" xml:space="preserve">
<path d="M19.5,3.5h-1v-2h-2v2h-8v-2h-2v2h-1c-1.11,0-2,0.89-2,2v14c0,1.1,0.89,2,2,2h14c1.104,0,2-0.896,2-2v-14
	C21.5,4.396,20.604,3.5,19.5,3.5z M19.5,19.5h-14v-12h14V19.5z"/>
<polygon points="12.5,13.05 8,16.15 8.9,17.5 12.5,15.05 16.1,17.5 17,16.15 "/>
<polygon points="12.5,9.5 8,12.6 8.9,13.95 12.5,11.5 16.1,13.95 17,12.6 "/>
</svg>
