<?xml version="1.0" encoding="utf-8"?>
<!-- Generator: Adobe Illustrator 15.1.0, SVG Export Plug-In . SVG Version: 6.00 Build 0)  -->
<!DOCTYPE svg PUBLIC "-//W3C//DTD SVG 1.1//EN" "http://www.w3.org/Graphics/SVG/1.1/DTD/svg11.dtd">
<svg version="1.1" id="Layer_1" xmlns="http://www.w3.org/2000/svg" xmlns:xlink="http://www.w3.org/1999/xlink" x="0px" y="0px"
	 width="24px" height="24px" viewBox="0.5 0.5 24 24" enable-background="new 0.5 0.5 24 24" xml:space="preserve">
<rect x="4.277" y="8.45" fill="none" width="12.445" height="9.349"/>
<path d="M18.445,5.5C18.478,5.629,18.5,5.761,18.5,5.899V5.5H18.445z"/>
<path d="M20.723,7.2H20.5v4.25h0.223v9.349H8.277V20.5H6.5v0.299c0,0.94,0.796,1.701,1.777,1.701h12.445
	c0.981,0,1.777-0.761,1.777-1.701V8.899C22.5,7.961,21.704,7.2,20.723,7.2z"/>
<g>
	<rect x="4.277" y="8.45" fill="none" width="12.445" height="9.349"/>
	<path d="M16.723,4.2h-0.889V2.5h-1.779v1.7h-7.11V2.5H5.167v1.7h-0.89C3.292,4.2,2.5,4.965,2.5,5.899v11.899
		c0,0.94,0.796,1.701,1.777,1.701h12.445c0.981,0,1.777-0.761,1.777-1.701V5.899C18.5,4.961,17.704,4.2,16.723,4.2z M16.723,17.799
		H4.277V8.45h12.445V17.799z"/>
</g>
<rect x="6.5" y="10.5" width="3" height="3"/>
</svg>
