<?xml version="1.0" encoding="utf-8"?>
<!-- Generator: Adobe Illustrator 15.1.0, SVG Export Plug-In . SVG Version: 6.00 Build 0)  -->
<!DOCTYPE svg PUBLIC "-//W3C//DTD SVG 1.1//EN" "http://www.w3.org/Graphics/SVG/1.1/DTD/svg11.dtd">
<svg version="1.1" id="Layer_1" xmlns="http://www.w3.org/2000/svg" xmlns:xlink="http://www.w3.org/1999/xlink" x="0px" y="0px"
	 width="24px" height="24px" viewBox="0 0 24 24" enable-background="new 0 0 24 24" xml:space="preserve">
<polygon points="16,19 12,19 10,19 6,19 4.917,19 4,19 4,3 2,3 2,21 22,21 22,19 18,19 "/>
<polyline points="10,6 12,6 12,8 10,8 10,6 "/>
<rect x="8" y="5" width="2" height="12"/>
<polyline points="6,13 8,13 8,15 6,15 6,13 "/>
<rect x="16" y="7.5" width="2" height="9"/>
<polyline points="18,9 20,9 20,11 18,11 18,9 "/>
<polyline points="14,12 16,12 16,14 14,14 14,12 "/>
</svg>
