<?xml version="1.0" encoding="utf-8"?>
<!-- Generator: Adobe Illustrator 15.1.0, SVG Export Plug-In . SVG Version: 6.00 Build 0)  -->
<!DOCTYPE svg PUBLIC "-//W3C//DTD SVG 1.1//EN" "http://www.w3.org/Graphics/SVG/1.1/DTD/svg11.dtd">
<svg version="1.1" id="Layer_1" xmlns="http://www.w3.org/2000/svg" xmlns:xlink="http://www.w3.org/1999/xlink" x="0px" y="0px"
	 width="24px" height="24px" viewBox="0 0 24 24" enable-background="new 0 0 24 24" xml:space="preserve">
<path d="M18,2c-2.2,0-4,1.8-4,4s4,7,4,7s4-4.8,4-7S20.2,2,18,2z M18,7.5c-0.8,0-1.5-0.7-1.5-1.5s0.7-1.5,1.5-1.5s1.5,0.7,1.5,1.5
	S18.8,7.5,18,7.5z"/>
<path d="M19.2,14L18,15.3L16.8,14c-0.399-0.5-1.1-1.4-1.8-2.4v8.2l-5.1-2.6L9,16.8l0,0V4.2l0.1-0.1l3.4,1.1c0.1-0.7,0.3-1.3,0.6-1.9
	L9,2L2,5.3v16.2c0,0.1,0,0.2,0.1,0.2c0,0,0,0,0,0.1L2.2,21.9c0,0,0,0,0.1,0c0,0,0.1,0,0.2,0.1c0,0,0,0,0.1,0l0,0
	c0.1,0,0.2,0,0.2-0.1L9,19l6,3l7-3.3V10C21,11.7,19.7,13.3,19.2,14z"/>
</svg>
