<?xml version="1.0" encoding="utf-8"?>
<!-- Generator: Adobe Illustrator 15.1.0, SVG Export Plug-In . SVG Version: 6.00 Build 0)  -->
<!DOCTYPE svg PUBLIC "-//W3C//DTD SVG 1.1//EN" "http://www.w3.org/Graphics/SVG/1.1/DTD/svg11.dtd">
<svg version="1.1" id="Layer_1" xmlns="http://www.w3.org/2000/svg" xmlns:xlink="http://www.w3.org/1999/xlink" x="0px" y="0px"
	 width="24px" height="24px" viewBox="0 0 24 24" enable-background="new 0 0 24 24" xml:space="preserve">
<g>
	<path d="M21.45,10.232c0-2.891-3.899-5.155-8.877-5.155c-4.875,0-8.713,2.171-8.871,4.976H3.695v3.191l-0.75,0.183
		c-0.077,0.005-0.153,0.032-0.22,0.082c-0.116,0.084-0.176,0.217-0.175,0.351v5.154c0,0.153,0.082,0.296,0.215,0.372
		c0.109,0.063,2.7,1.537,4.724,1.537l0,0c0,0,0,0,0,0c0.038,0,0.075-0.007,0.111-0.017c0.009-0.003,0.017-0.006,0.026-0.008
		c0.035-0.012,0.068-0.026,0.099-0.047c0.001-0.001,0.002-0.001,0.003-0.001c0.023-0.017,0.045-0.034,0.066-0.055
		c0.006-0.007,0.011-0.014,0.017-0.021c0.006-0.007,0.012-0.015,0.018-0.022c0.023-0.031,0.044-0.064,0.059-0.1c0,0,0,0,0-0.001
		l3.365-8.4c0.015-0.037,0.022-0.074,0.026-0.112c0.063-0.127,0.063-0.279-0.011-0.407c-0.095-0.164-0.287-0.247-0.472-0.202
		l-6.243,1.505v-1.251l7.492-1.047l-0.796,4.457h-0.004v0.024l-0.021,0.115l0.021,0.001l0.021,4.966l0.404,0.022
		c0.288,0.016,0.579,0.023,0.863,0.023c4.979,0,8.878-2.264,8.878-5.154v-4.446h-0.005C21.435,10.578,21.45,10.406,21.45,10.232z
		 M3.409,18.759v-3.896c0.714,0.545,1.921,1.157,3.628,1.006l0.021,4.171C5.648,19.887,3.992,19.066,3.409,18.759z M9.593,12.706
		l-2.107,2.232c-1.82,0.341-3.035-0.331-3.661-0.842L9.593,12.706z M12.243,14.522L13.1,9.725l-8.443,1.179
		c-0.067-0.223-0.102-0.448-0.102-0.672c0-2.329,3.672-4.296,8.019-4.296c4.346,0,8.018,1.967,8.018,4.296
		C20.591,12.619,16.74,14.625,12.243,14.522z"/>
</g>
</svg>
