<?xml version="1.0" encoding="utf-8"?>
<!-- Generator: Adobe Illustrator 15.1.0, SVG Export Plug-In . SVG Version: 6.00 Build 0)  -->
<!DOCTYPE svg PUBLIC "-//W3C//DTD SVG 1.1//EN" "http://www.w3.org/Graphics/SVG/1.1/DTD/svg11.dtd">
<svg version="1.1" id="Layer_1" xmlns="http://www.w3.org/2000/svg" xmlns:xlink="http://www.w3.org/1999/xlink" x="0px" y="0px"
	 width="24px" height="24px" viewBox="0 0 24 24" enable-background="new 0 0 24 24" xml:space="preserve">
<polyline points="2,2 4,2 4,20 22,20 22,22 2,22 2,2 "/>
<polyline points="8.5,8.5 14.5,8.5 14.5,10.5 8.5,10.5 8.5,8.5 "/>
<polyline points="6.5,4.5 10.5,4.5 10.5,6.5 6.5,6.5 6.5,4.5 "/>
<polyline points="12.5,8.5 12.5,5.5 14.5,5.5 14.5,8.5 12.5,8.5 "/>
<polyline points="12.5,3.5 18.5,3.5 18.5,5.5 12.5,5.5 12.5,3.5 "/>
<polyline points="16.5,8.5 16.5,5.5 18.5,5.5 18.5,8.5 16.5,8.5 "/>
<polyline points="16.5,8.625 20.5,8.625 20.5,10.5 16.5,10.5 16.5,8.625 "/>
<polyline points="8.5,8.5 8.5,6.5 10.5,6.5 10.5,8.5 8.5,8.5 "/>
<polyline points="9.5,12.5 15.5,12.5 15.5,14.5 9.5,14.5 9.5,12.5 "/>
<polyline points="6.5,15.5 9.5,15.5 9.5,17.5 6.5,17.5 6.5,15.5 "/>
<polyline points="13.5,17.5 13.5,13.5 15.5,13.5 15.5,17.5 13.5,17.5 "/>
<polyline points="18.5,15.5 18.5,11.5 20.5,11.5 20.5,15.5 18.5,15.5 "/>
<polyline points="15.5,15.625 20.5,15.625 20.5,17.5 15.5,17.5 15.5,15.625 "/>
<polyline points="9.5,17.5 9.5,14.5 11.5,14.5 11.5,17.5 9.5,17.5 "/>
</svg>
