<?xml version="1.0" encoding="utf-8"?>
<!-- Generator: Adobe Illustrator 15.1.0, SVG Export Plug-In . SVG Version: 6.00 Build 0)  -->
<!DOCTYPE svg PUBLIC "-//W3C//DTD SVG 1.1//EN" "http://www.w3.org/Graphics/SVG/1.1/DTD/svg11.dtd">
<svg version="1.1" id="Layer_1" xmlns="http://www.w3.org/2000/svg" xmlns:xlink="http://www.w3.org/1999/xlink" x="0px" y="0px"
	 width="24px" height="24px" viewBox="0 0 24 24" enable-background="new 0 0 24 24" xml:space="preserve">
<circle cx="4" cy="12" r="2"/>
<circle cx="9" cy="10" r="2"/>
<circle cx="14" cy="5" r="2"/>
<circle cx="20" cy="3" r="2"/>
<rect x="2" y="16" width="4" height="6"/>
<rect x="17" y="15" width="4" height="7"/>
<rect x="12" y="12" width="4" height="10"/>
<rect x="7" y="17" width="4" height="5"/>
<rect x="3.844" y="10.254" transform="matrix(0.9275 -0.3737 0.3737 0.9275 -3.6221 3.244)" width="5.421" height="1.416"/>
<rect x="8.242" y="6.691" transform="matrix(0.7011 -0.7131 0.7131 0.7011 -1.7516 10.6192)" width="7.098" height="1.417"/>
<rect x="14.042" y="3.313" transform="matrix(0.9575 -0.2885 0.2885 0.9575 -0.4323 5.1097)" width="6.156" height="1.416"/>
</svg>
