<?xml version="1.0" encoding="utf-8"?>
<!-- Generator: Adobe Illustrator 15.1.0, SVG Export Plug-In . SVG Version: 6.00 Build 0)  -->
<!DOCTYPE svg PUBLIC "-//W3C//DTD SVG 1.1//EN" "http://www.w3.org/Graphics/SVG/1.1/DTD/svg11.dtd">
<svg version="1.1" id="Capa_1" xmlns="http://www.w3.org/2000/svg" xmlns:xlink="http://www.w3.org/1999/xlink" x="0px" y="0px"
	 width="24px" height="24px" viewBox="293.372 293.372 24 24" enable-background="new 293.372 293.372 24 24" xml:space="preserve">
<g>
	<g>
		<path d="M315.372,305.338c0-5.496-4.487-9.967-10-9.967c-5.514,0-10,4.471-10,9.967c0,4.816,3.447,8.847,8.011,9.768
			c0.634,0.172,1.301,0.266,1.989,0.266c0.688,0,1.354-0.094,1.987-0.266C311.925,314.185,315.372,310.155,315.372,305.338z
			 M297.938,309.289c-0.632-1.18-0.992-2.522-0.992-3.95c0-4.631,3.78-8.398,8.426-8.398c4.646,0,8.427,3.767,8.427,8.398
			c0,1.428-0.36,2.771-0.993,3.95c0.095-0.477,0.145-0.968,0.145-1.471c0-4.165-3.398-7.553-7.578-7.553
			c-4.179,0-7.579,3.388-7.579,7.553C297.793,308.321,297.843,308.811,297.938,309.289z M305.372,313.72
			c-1.544,0-2.799-1.252-2.799-2.791c0-1.538,1.255-2.789,2.799-2.789s2.8,1.251,2.8,2.789
			C308.172,312.468,306.916,313.72,305.372,313.72z M309.591,312.072c0.1-0.363,0.154-0.747,0.154-1.143
			c0-2.403-1.962-4.357-4.373-4.357c-2.412,0-4.373,1.954-4.373,4.357c0,0.396,0.054,0.779,0.154,1.143
			c-1.102-1.085-1.786-2.592-1.786-4.254c0-3.299,2.694-5.985,6.005-5.985c3.313,0,6.005,2.686,6.005,5.985
			C311.377,309.48,310.692,310.986,309.591,312.072z"/>
	</g>
</g>
</svg>
