<?xml version="1.0" encoding="utf-8"?>
<!-- Generator: Adobe Illustrator 15.1.0, SVG Export Plug-In . SVG Version: 6.00 Build 0)  -->
<!DOCTYPE svg PUBLIC "-//W3C//DTD SVG 1.1//EN" "http://www.w3.org/Graphics/SVG/1.1/DTD/svg11.dtd">
<svg version="1.1" id="Layer_1" xmlns="http://www.w3.org/2000/svg" xmlns:xlink="http://www.w3.org/1999/xlink" x="0px" y="0px"
	 width="24px" height="24px" viewBox="0 0 24 24" enable-background="new 0 0 24 24" xml:space="preserve">
<path d="M20.166,6.5h-5.332c-0.802,0-1.334,0.685-1.334,1.713v8.571c0,1.029,0.532,1.716,1.334,1.716h5.332
	c0.801,0,1.334-0.687,1.334-1.716V8.213C21.5,7.185,20.967,6.5,20.166,6.5z M19.214,16.5h-3.428v-8h3.428V16.5z"/>
<rect x="16.5" y="17.5" width="2" height="3"/>
<rect x="16.5" y="4.5" width="2" height="3"/>
<rect x="14" y="2.5" width="7" height="2"/>
<rect x="14.5" y="10.5" width="5" height="2"/>
<rect x="14" y="19.5" width="7" height="2"/>
<path d="M9.167,7.5H3.833C3.032,7.5,2.5,8.071,2.5,8.928v7.141c0,0.859,0.532,1.431,1.333,1.431h5.333
	c0.8,0,1.333-0.571,1.333-1.431V8.928C10.5,8.071,9.966,7.5,9.167,7.5z M8.214,15.834H4.786V9.167h3.429V15.834z"/>
<rect x="5.5" y="16.5" width="2" height="3"/>
<rect x="4.5" y="11.5" width="5" height="2"/>
<rect x="3" y="18.5" width="7" height="2"/>
<circle cx="6.5" cy="4" r="1.5"/>
</svg>
