<?xml version="1.0" encoding="utf-8"?>
<!-- Generator: Adobe Illustrator 15.1.0, SVG Export Plug-In . SVG Version: 6.00 Build 0)  -->
<!DOCTYPE svg PUBLIC "-//W3C//DTD SVG 1.1//EN" "http://www.w3.org/Graphics/SVG/1.1/DTD/svg11.dtd">
<svg version="1.1" id="Layer_1" xmlns="http://www.w3.org/2000/svg" xmlns:xlink="http://www.w3.org/1999/xlink" x="0px" y="0px"
	 width="24px" height="24px" viewBox="0 0 24 24" enable-background="new 0 0 24 24" xml:space="preserve">
<path id="XMLID_112_" d="M15.963,5l3.45,6.458L15.563,18H8.183l-3.574-6.5L8.183,5H16 M17.122,3H7l-4.673,8.5L7,20h9.708l4.979-8.5
	L17.122,3L17.122,3z"/>
<rect x="0.898" y="11.188" transform="matrix(0.5382 0.8428 -0.8428 0.5382 15.3676 -4.6716)" width="22.098" height="1"/>
<rect x="11.5" y="0.686" transform="matrix(0.8398 0.5429 -0.5429 0.8398 8.2906 -4.6359)" width="1" height="22.086"/>
<rect x="2" y="11" width="20" height="1"/>
<g>
	<polygon id="XMLID_1_" points="9,15.5 7.042,11.5 9,7.5 15,7.5 17,11.5 15,15.5 	"/>
	<path d="M15.309,16H8.688l-2.203-4.5L8.688,7h6.621l2.25,4.5L15.309,16z M9.312,15h5.379l1.75-3.5L14.691,8H9.312l-1.713,3.5
		L9.312,15z"/>
</g>
</svg>
