<?xml version="1.0" encoding="utf-8"?>
<!-- Generator: Adobe Illustrator 15.1.0, SVG Export Plug-In . SVG Version: 6.00 Build 0)  -->
<!DOCTYPE svg PUBLIC "-//W3C//DTD SVG 1.1//EN" "http://www.w3.org/Graphics/SVG/1.1/DTD/svg11.dtd">
<svg version="1.1" id="Layer_1" xmlns="http://www.w3.org/2000/svg" xmlns:xlink="http://www.w3.org/1999/xlink" x="0px" y="0px"
	 width="24px" height="24px" viewBox="0 0 24 24" enable-background="new 0 0 24 24" xml:space="preserve">
<polygon points="18,17 18,19 16.917,19 16,19 12,19 11.417,19 10,19 10,17 6,17 6,19 4,19 4,3 2,3 2,21 22,21 22,17 "/>
<polyline points="16,12.958 12,12.958 12,4.625 16,4.625 16,12.958 "/>
<polyline points="18,4.625 22,4.625 22,17.375 18,17.375 18,4.625 "/>
<rect x="6" y="13" width="4" height="4"/>
</svg>
