<?xml version="1.0" encoding="utf-8"?>
<!-- Generator: Adobe Illustrator 15.1.0, SVG Export Plug-In . SVG Version: 6.00 Build 0)  -->
<!DOCTYPE svg PUBLIC "-//W3C//DTD SVG 1.1//EN" "http://www.w3.org/Graphics/SVG/1.1/DTD/svg11.dtd">
<svg version="1.1" id="Layer_1" xmlns="http://www.w3.org/2000/svg" xmlns:xlink="http://www.w3.org/1999/xlink" x="0px" y="0px"
	 width="24px" height="24px" viewBox="0 0 24 24" enable-background="new 0 0 24 24" xml:space="preserve">
<g>
	<path fill="#FFFFFF" d="M13.596,6.754c1.844-0.181,3.784,0.819,4.1,2.25c0.182,0.824-0.082,1.686-0.449,2.1
		c-0.542,0.609-1.915,0.942-2.65,1.35c-1.113,0.616-2.105,1.545-2.65,2.75c-0.561,1.244-0.701,3.382-1.75,4.05
		c-0.857,0.547-2.316,0.313-2.95-0.25c-2.517-2.232-0.641-7.011,0.9-9.05C9.438,8.244,11.176,6.991,13.596,6.754z M7.345,17.004
		c0.249,0.773,1.204,0.855,1.85,0.352c0.71-0.556,1.668-2.621,0.7-3.5c-0.209-0.19-0.435-0.217-0.7-0.2
		C8.051,13.727,6.88,15.563,7.345,17.004z"/>
	<path d="M9.195,13.654c0.265-0.018,0.49,0.01,0.7,0.199c0.969,0.881,0.011,2.945-0.7,3.5c-0.646,0.506-1.601,0.424-1.85-0.351
		C6.88,15.563,8.051,13.727,9.195,13.654z"/>
	<path d="M15.193,14.704c-0.286,0.246-0.553,0.513-0.799,0.8c-0.563,0.705-1.541,2.824-1.551,2.65
		c-0.508,0.793-0.838,1.76-1.55,2.35c-0.965,0.801-3.142,1.008-4.35,0.352c-1.593-0.866-2.318-2.9-2.3-5
		c0.024-2.84,1.679-5.776,3.45-7.65c1.904-2.014,4.54-3.457,7.65-3.45c1.564,0.003,2.837,0.599,3.648,1.25
		c0.737,0.591,1.807,1.563,1.95,3C21.643,11.951,15.718,14.395,15.193,14.704z M8.145,9.954c-1.541,2.039-3.417,6.815-0.9,9.05
		c0.634,0.563,2.093,0.797,2.95,0.25c1.049-0.668,1.189-2.806,1.75-4.05c0.544-1.205,1.538-2.134,2.651-2.75
		c0.734-0.407,2.107-0.741,2.649-1.35c0.368-0.415,0.631-1.276,0.448-2.1c-0.313-1.431-2.256-2.431-4.1-2.25
		C11.176,6.991,9.438,8.244,8.145,9.954z"/>
</g>
</svg>
