<?xml version="1.0" encoding="utf-8"?>
<!-- Generator: Adobe Illustrator 15.1.0, SVG Export Plug-In . SVG Version: 6.00 Build 0)  -->
<!DOCTYPE svg PUBLIC "-//W3C//DTD SVG 1.1//EN" "http://www.w3.org/Graphics/SVG/1.1/DTD/svg11.dtd">
<svg version="1.1" id="Layer_1" xmlns="http://www.w3.org/2000/svg" xmlns:xlink="http://www.w3.org/1999/xlink" x="0px" y="0px"
	 width="24px" height="24px" viewBox="0 0 24 24" enable-background="new 0 0 24 24" xml:space="preserve">
<g>
	<path d="M6,13v3H4v-3H6 M7,11H3c-0.6,0-1,0.4-1,1v5c0,0.6,0.4,1,1,1h4c0.6,0,1-0.4,1-1v-5C8,11.4,7.6,11,7,11L7,11z"/>
</g>
<rect x="4" y="17" width="2" height="3"/>
<rect x="4" y="9" width="2" height="2"/>
<g>
	<path d="M11,4h4c0.6,0,1,0.4,1,1v5c0,0.6-0.4,1-1,1h-4c-0.6,0-1-0.4-1-1V5C10,4.4,10.4,4,11,4z"/>
</g>
<rect x="12" y="10" width="2" height="3"/>
<rect x="12" y="2" width="2" height="2"/>
<g>
	<path d="M17,13h4c0.6,0,1,0.4,1,1v5c0,0.6-0.4,1-1,1h-4c-0.6,0-1-0.4-1-1v-5C16,13.4,16.4,13,17,13z"/>
</g>
<rect x="18" y="18" width="2" height="4"/>
<rect x="18" y="11" width="2" height="2"/>
</svg>
