<?xml version="1.0" encoding="utf-8"?>
<!-- Generator: Adobe Illustrator 15.1.0, SVG Export Plug-In . SVG Version: 6.00 Build 0)  -->
<!DOCTYPE svg PUBLIC "-//W3C//DTD SVG 1.1//EN" "http://www.w3.org/Graphics/SVG/1.1/DTD/svg11.dtd">
<svg version="1.1" id="Layer_1" xmlns="http://www.w3.org/2000/svg" xmlns:xlink="http://www.w3.org/1999/xlink" x="0px" y="0px"
	 width="24px" height="24px" viewBox="0 0 24 24" enable-background="new 0 0 24 24" xml:space="preserve">
<g>
	<path d="M12,3c-4.966,0-9,4.034-9,9c0,4.967,4.034,9,9,9c4.967,0,9-4.033,9-9C21,7.034,16.967,3,12,3z"/>
	<path fill="#FFFFFF" d="M12,19.2c-3.968,0-7.2-3.232-7.2-7.2S8.032,4.8,12,4.8c3.969,0,7.2,3.232,7.2,7.2S15.969,19.2,12,19.2z"/>
	<path fill="none" d="M1.2,1.2h21.6v21.6H1.2V1.2z"/>
	<path d="M19.818,7.95c-1.244,0-2.25,1.004-2.25,2.25c0,1.245,1.006,2.25,2.25,2.25c1.245,0,2.25-1.005,2.25-2.25
		C22.068,8.955,21.063,7.95,19.818,7.95z"/>
	<path d="M12,1.706c-1.245,0-2.25,1.005-2.25,2.25c0,1.246,1.005,2.25,2.25,2.25c1.244,0,2.25-1.004,2.25-2.25
		C14.25,2.711,13.244,1.706,12,1.706z"/>
	<path d="M4.519,7.444c-1.244,0-2.25,1.004-2.25,2.25s1.006,2.25,2.25,2.25c1.245,0,2.25-1.004,2.25-2.25S5.763,7.444,4.519,7.444z"
		/>
	<path d="M5.813,15.15c-1.245,0-2.25,1.003-2.25,2.25c0,1.246,1.005,2.25,2.25,2.25s2.25-1.004,2.25-2.25
		C8.063,16.153,7.057,15.15,5.813,15.15z"/>
	<path d="M18.019,15.938c-0.995,0-1.8,0.804-1.8,1.8c0,0.997,0.805,1.8,1.8,1.8c0.996,0,1.8-0.803,1.8-1.8
		C19.818,16.741,19.015,15.938,18.019,15.938z"/>
	<path fill="none" stroke="#000000" stroke-miterlimit="10" d="M12,4.8c0,3.171,3.221,5.738,7.2,5.738"/>
	<path fill="none" stroke="#000000" stroke-miterlimit="10" d="M18.638,11.156"/>
	<path fill="none" stroke="#000000" stroke-miterlimit="10" d="M4.8,9.694"/>
	<path fill="none" stroke="#000000" stroke-miterlimit="10" d="M6.129,8.707c0,5.721,11.833,1.463,14.4,1.463"/>
	<path fill="none" stroke="#000000" stroke-miterlimit="10" d="M19.2,11.156"/>
	<path fill="none" stroke="#000000" stroke-miterlimit="10" d="M5.813,17.006"/>
	<path fill="none" stroke="#000000" stroke-miterlimit="10" d="M5.85,9.693c0,2.555,2.249,4.806,5.674,6.138
		c2.068,0.805,4.566,1.275,7.256,1.275"/>
	<path fill="none" stroke="#000000" stroke-miterlimit="10" d="M5.813,16.645c2.114,2.092,7.93-0.362,13.004-5.489"/>
</g>
</svg>
