<?xml version="1.0" encoding="utf-8"?>
<!-- Generator: Adobe Illustrator 15.1.0, SVG Export Plug-In . SVG Version: 6.00 Build 0)  -->
<!DOCTYPE svg PUBLIC "-//W3C//DTD SVG 1.1//EN" "http://www.w3.org/Graphics/SVG/1.1/DTD/svg11.dtd">
<svg version="1.1" id="Layer_1" xmlns="http://www.w3.org/2000/svg" xmlns:xlink="http://www.w3.org/1999/xlink" x="0px" y="0px"
	 width="24px" height="24px" viewBox="0 0 24 24" enable-background="new 0 0 24 24" xml:space="preserve">
<path d="M15,15.747V19.8l-5.1-2.6L9,16.8V4.2l0.1-0.1l3.4,1.1c0.1-0.7,0.3-1.3,0.6-1.9L9,2L2,5.3v16.2c0,0.1,0,0.2,0.1,0.2
	c0,0,0,0,0,0.1L2.2,21.9c0,0,0,0,0.1,0c0,0,0.1,0,0.2,0.1c0,0,0,0,0.1,0s0.2,0,0.2-0.1L9,19l6,3l7-3.3V10c-1,1.7-2.3,3.3-2.8,4
	L18,15.3l-0.967-1.047c-0.203,0.382-0.404,0.766-0.724,1.032C16.005,15.538,15.514,15.697,15,15.747z"/>
<path fill-rule="evenodd" clip-rule="evenodd" d="M17.838,4.952c0.223,0.083,0.398,0.19,0.493,0.435
	c0.443,1.133-1.165,2.593-1.969,2.815c-0.731,0.204-1.481-0.224-1.378-0.995C15.18,5.765,16.871,4.588,17.838,4.952z"/>
<path fill-rule="evenodd" clip-rule="evenodd" d="M18.835,9.261c-0.186,0.159-0.358,0.332-0.517,0.518
	c-0.365,0.456-0.998,1.83-1.005,1.718c-0.33,0.513-0.544,1.14-1.004,1.522c-0.626,0.52-2.037,0.652-2.82,0.227
	c-1.031-0.561-1.501-1.879-1.489-3.24c0.016-1.839,1.087-3.743,2.235-4.957c1.233-1.305,2.942-2.24,4.958-2.235
	c1.013,0.002,1.837,0.388,2.364,0.81c0.478,0.383,1.169,1.012,1.264,1.944C23.014,7.477,19.175,9.061,18.835,9.261z M14.269,6.183
	c-0.999,1.321-2.215,4.417-0.584,5.865c0.411,0.364,1.356,0.517,1.911,0.162c0.68-0.434,0.771-1.818,1.135-2.625
	c0.353-0.781,0.996-1.382,1.716-1.782c0.478-0.264,1.367-0.48,1.718-0.875c0.239-0.269,0.409-0.827,0.292-1.361
	c-0.205-0.928-1.462-1.575-2.657-1.458C16.231,4.263,15.105,5.074,14.269,6.183z"/>
</svg>
