<?xml version="1.0" encoding="utf-8"?>
<!-- Generator: Adobe Illustrator 15.1.0, SVG Export Plug-In . SVG Version: 6.00 Build 0)  -->
<!DOCTYPE svg PUBLIC "-//W3C//DTD SVG 1.1//EN" "http://www.w3.org/Graphics/SVG/1.1/DTD/svg11.dtd">
<svg version="1.1" id="Layer_1" xmlns="http://www.w3.org/2000/svg" xmlns:xlink="http://www.w3.org/1999/xlink" x="0px" y="0px"
	 width="24px" height="24px" viewBox="0 0 24 24" enable-background="new 0 0 24 24" xml:space="preserve">
<path d="M16.494,12.945l1.125-1.125c-1.682-1.053-3.635-1.603-5.625-1.575c-4.95,0-9,3.223-9,7.2c0,1.908,1.485,3.483,3.384,3.6
	h0.216c1.988,0,3.6-1.611,3.6-3.6s-1.612-3.6-3.6-3.6H6.378c1.512-1.431,3.538-2.206,5.616-2.16
	C13.587,11.667,15.145,12.108,16.494,12.945z M6.594,15.646c0.994,0,1.8,0.806,1.8,1.8c0,0.998-0.828,1.8-1.8,1.8
	c-0.936,0-1.71-0.702-1.8-1.62c0-0.117,0-0.242,0-0.36C4.884,16.339,5.667,15.646,6.594,15.646z"/>
<path d="M17.61,11.445h-0.216c-1.988,0-3.601,1.612-3.601,3.6s1.612,3.6,3.601,3.6h0.216c-1.512,1.432-3.536,2.206-5.616,2.161
	c-1.593,0.018-3.15-0.424-4.5-1.261l-1.116,1.116c1.683,1.053,3.627,1.584,5.616,1.584c4.95,0,9-3.223,9-7.2
	C20.994,13.137,19.509,11.562,17.61,11.445z M19.194,15.226c-0.09,0.927-0.874,1.619-1.8,1.619c-0.995,0-1.8-0.806-1.8-1.8
	c0-0.999,0.827-1.8,1.8-1.8c0.935,0,1.71,0.702,1.8,1.62C19.194,14.982,19.194,15.107,19.194,15.226z"/>
<path d="M14.49,7.261c0.904,1.31,1.41,2.847,1.471,4.435L17.52,12c-0.064-1.983-0.701-3.909-1.834-5.544
	C12.92,2.351,7.986,0.791,4.687,3.013C3.104,4.08,2.627,6.189,3.591,7.831L3.712,8.01c1.11,1.649,3.348,2.085,4.997,0.975
	c1.649-1.11,2.085-3.348,0.975-4.997l-0.12-0.181C11.594,4.263,13.367,5.512,14.49,7.261z M8.191,4.994
	c0.555,0.824,0.336,1.945-0.489,2.499C6.876,8.049,5.748,7.81,5.205,7.004C4.682,6.227,4.832,5.194,5.542,4.607
	C5.641,4.54,5.744,4.471,5.841,4.406C6.66,3.964,7.673,4.225,8.191,4.994z"/>
</svg>
