<?xml version="1.0" encoding="utf-8"?>
<!-- Generator: Adobe Illustrator 15.1.0, SVG Export Plug-In . SVG Version: 6.00 Build 0)  -->
<!DOCTYPE svg PUBLIC "-//W3C//DTD SVG 1.1//EN" "http://www.w3.org/Graphics/SVG/1.1/DTD/svg11.dtd">
<svg version="1.1" id="Layer_1" xmlns="http://www.w3.org/2000/svg" xmlns:xlink="http://www.w3.org/1999/xlink" x="0px" y="0px"
	 width="24px" height="24px" viewBox="17.5 7.5 24 24" enable-background="new 17.5 7.5 24 24" xml:space="preserve">
<path d="M34.692,17.354c1.554,0,2.808,0.927,2.808,2.074c0,1.146-1.255,2.072-2.808,2.072s-2.809-0.926-2.809-2.072
	C31.884,18.281,33.14,17.354,34.692,17.354"/>
<path d="M31.271,22.5c0.979,0,1.771,0.581,1.771,1.296s-0.793,1.296-1.771,1.296c-0.977,0-1.771-0.581-1.771-1.296
	S30.293,22.5,31.271,22.5"/>
<path d="M25.744,16.079c2.229,0,4.036,1.393,4.036,3.111l0,0c0,1.717-1.808,3.11-4.036,3.11c-2.229,0-4.036-1.392-4.036-3.11l0,0
	C21.708,17.472,23.516,16.079,25.744,16.079z"/>
<path fill="none" stroke="#000000" stroke-width="0.5902" d="M29.701,11.5c5.368,0,9.719,3.582,9.719,8l0,0c0,4.417-4.354,8-9.719,8
	c-5.37,0-9.721-3.578-9.721-8l0,0C19.98,15.082,24.334,11.5,29.701,11.5z"/>
<path d="M31.083,14.5c0.782,0,1.417,0.388,1.417,0.864c0,0.477-0.635,0.865-1.417,0.865s-1.417-0.388-1.417-0.865
	C29.667,14.888,30.301,14.5,31.083,14.5"/>
</svg>
