<?xml version="1.0" encoding="utf-8"?>
<!-- Generator: Adobe Illustrator 15.1.0, SVG Export Plug-In . SVG Version: 6.00 Build 0)  -->
<!DOCTYPE svg PUBLIC "-//W3C//DTD SVG 1.1//EN" "http://www.w3.org/Graphics/SVG/1.1/DTD/svg11.dtd">
<svg version="1.1" id="Layer_1" xmlns="http://www.w3.org/2000/svg" xmlns:xlink="http://www.w3.org/1999/xlink" x="0px" y="0px"
	 width="24px" height="24px" viewBox="0 0 24 24" enable-background="new 0 0 24 24" xml:space="preserve">
<circle cx="20" cy="10" r="2"/>
<circle cx="16" cy="15" r="2"/>
<circle cx="11" cy="11" r="2"/>
<circle cx="4" cy="13" r="2"/>
<path d="M16,15.8c-0.181,0-0.357-0.062-0.5-0.175l-4.677-3.742L4.22,13.77c-0.423,0.117-0.868-0.125-0.989-0.55
	c-0.122-0.425,0.125-0.868,0.549-0.989l7-2c0.247-0.073,0.516-0.019,0.719,0.145l4.368,3.494l3.402-4.361
	c0.272-0.348,0.772-0.411,1.123-0.139c0.349,0.272,0.41,0.774,0.139,1.123l-3.9,5c-0.132,0.169-0.325,0.277-0.538,0.303
	C16.063,15.798,16.031,15.8,16,15.8z"/>
</svg>
