<?xml version="1.0" encoding="utf-8"?>
<!-- Generator: Adobe Illustrator 15.1.0, SVG Export Plug-In . SVG Version: 6.00 Build 0)  -->
<!DOCTYPE svg PUBLIC "-//W3C//DTD SVG 1.1//EN" "http://www.w3.org/Graphics/SVG/1.1/DTD/svg11.dtd">
<svg version="1.1" id="Layer_1" xmlns="http://www.w3.org/2000/svg" xmlns:xlink="http://www.w3.org/1999/xlink" x="0px" y="0px"
	 width="24px" height="24px" viewBox="-0.5 -0.5 24 24" enable-background="new -0.5 -0.5 24 24" xml:space="preserve">
<path d="M15.5,10.3c-0.182,0-0.357-0.062-0.5-0.175l-4.677-3.742L3.72,8.27C3.297,8.387,2.852,8.145,2.731,7.72
	C2.609,7.295,2.856,6.852,3.28,6.731l7-2c0.247-0.073,0.516-0.019,0.719,0.145l4.368,3.494l3.402-4.361
	c0.271-0.348,0.771-0.411,1.123-0.139c0.349,0.272,0.409,0.774,0.139,1.123l-3.9,5c-0.132,0.169-0.324,0.276-0.538,0.303
	C15.563,10.298,15.531,10.3,15.5,10.3z"/>
<path d="M18.999,13.5c1.384,0,2.501,1.072,2.501,2.4c0,1.327-1.117,2.399-2.501,2.399c-1.382,0-2.499-1.072-2.499-2.399
	C16.5,14.572,17.617,13.5,18.999,13.5"/>
<path d="M12.5,17.5c1.105,0,2,0.895,2,2s-0.895,2-2,2s-2-0.895-2-2S11.395,17.5,12.5,17.5"/>
<path d="M7,10.5c1.934,0,3.5,1.566,3.5,3.501l0,0c0,1.932-1.568,3.499-3.5,3.499c-1.933,0-3.5-1.566-3.5-3.499l0,0
	C3.5,12.068,5.067,10.5,7,10.5z"/>
</svg>
