<?xml version="1.0" encoding="utf-8"?>
<!-- Generator: Adobe Illustrator 15.1.0, SVG Export Plug-In . SVG Version: 6.00 Build 0)  -->
<!DOCTYPE svg PUBLIC "-//W3C//DTD SVG 1.1//EN" "http://www.w3.org/Graphics/SVG/1.1/DTD/svg11.dtd">
<svg version="1.1" id="Layer_1" xmlns="http://www.w3.org/2000/svg" xmlns:xlink="http://www.w3.org/1999/xlink" x="0px" y="0px"
	 width="24px" height="24px" viewBox="0 0 24 24" enable-background="new 0 0 24 24" xml:space="preserve">
<polyline points="2,2 4,2 4,20 22,20 22,22 2,22 2,2 "/>
<g>
	<polyline points="8.5,15.5 14.5,15.5 14.5,17.375 8.5,17.375 8.5,15.5 	"/>
	<polyline points="6.5,8.5 10.5,8.5 10.5,10.375 6.5,10.375 6.5,8.5 	"/>
	<polyline points="8.5,15.5 8.5,8.5 10.375,8.5 10.375,15.5 8.5,15.5 	"/>
	<polyline points="12.5,15.501 12.5,7.5 14.375,7.5 14.375,15.501 12.5,15.501 	"/>
	<polyline points="12.5,5.5 17.5,5.5 17.5,7.375 12.5,7.375 12.5,5.5 	"/>
	<polyline points="16.625,12.5 16.625,5.5 18.5,5.5 18.5,12.5 16.625,12.5 	"/>
	<polyline points="16.5,12.5 20.5,12.5 20.5,14.375 16.5,14.375 16.5,12.5 	"/>
</g>
</svg>
