<?xml version="1.0" encoding="utf-8"?>
<!-- Generator: Adobe Illustrator 15.1.0, SVG Export Plug-In . SVG Version: 6.00 Build 0)  -->
<!DOCTYPE svg PUBLIC "-//W3C//DTD SVG 1.1//EN" "http://www.w3.org/Graphics/SVG/1.1/DTD/svg11.dtd">
<svg version="1.1" id="Layer_1" xmlns="http://www.w3.org/2000/svg" xmlns:xlink="http://www.w3.org/1999/xlink" x="0px" y="0px"
	 width="24px" height="24px" viewBox="0.5 0.5 24 24" enable-background="new 0.5 0.5 24 24" xml:space="preserve">
<path d="M12.99,3.52c0-0.007-0.002-0.013-0.002-0.02c0-0.01,0-0.02-0.006-0.032c0-0.015-0.002-0.032-0.004-0.046c0,0,0,0,0-0.001
	c-0.065-0.238-0.36-0.42-0.712-0.42H6.458c-0.221,0-0.416,0.069-0.552,0.183L3.215,5.106c-0.003,0-0.003,0.001-0.003,0.001
	C3.195,5.119,3.18,5.131,3.165,5.144C3.156,5.149,3.151,5.157,3.143,5.162C3.137,5.169,3.128,5.177,3.122,5.184
	c-0.005,0.005-0.014,0.015-0.02,0.023c-0.004,0.006-0.013,0.015-0.018,0.02c-0.005,0.009-0.01,0.016-0.016,0.024
	c-0.005,0.007-0.01,0.015-0.014,0.023c-0.005,0.007-0.009,0.014-0.01,0.023C3.039,5.305,3.035,5.313,3.03,5.323
	C3.028,5.331,3.025,5.337,3.023,5.346C3.02,5.354,3.015,5.363,3.014,5.371c-0.004,0.01-0.005,0.02-0.009,0.03
	c0,0.005,0,0.013-0.004,0.021C3,5.438,3,5.455,3,5.472v17.006C3,22.77,3.322,23,3.726,23h5.806c0.021,0,0.047,0,0.07-0.002
	c0.012,0,0.022-0.005,0.035-0.005c0.012-0.002,0.026-0.002,0.04-0.002c0.011-0.005,0.022-0.009,0.035-0.011
	c0.014,0,0.024-0.002,0.034-0.004c0.013,0,0.023-0.004,0.036-0.009c0.013-0.005,0.024-0.007,0.032-0.009
	c0.01-0.001,0.021-0.006,0.031-0.012c0.011-0.006,0.021-0.008,0.033-0.01c0.01-0.008,0.02-0.01,0.031-0.017
	c0.012-0.002,0.022-0.005,0.031-0.015c0.011-0.006,0.021-0.008,0.033-0.016c0.009-0.007,0.018-0.01,0.026-0.015
	c0.014-0.012,0.03-0.019,0.043-0.028c0.005-0.005,0.006-0.005,0.01-0.007l2.734-1.95C12.932,20.787,13,20.656,13,20.523
	c0,0,0,0,0-0.004v-17H12.99z M7.5,21h-3V7h3V21z M6,5l1.639-1H10L8.361,5H6z M9.291,21L9.25,6.642L11.709,5l0.041,14.358L9.291,21z"
	/>
<path d="M22.992,5.89c0-0.005-0.002-0.01-0.002-0.015c0-0.007,0-0.015-0.004-0.024c-0.002-0.011-0.002-0.023-0.004-0.035
	c0,0,0,0,0-0.001C22.93,5.636,22.693,5.5,22.412,5.5h-4.646c-0.177,0-0.332,0.052-0.439,0.137L15.172,7.08
	c-0.003,0-0.003,0.001-0.003,0.001c-0.013,0.008-0.024,0.017-0.037,0.027c-0.007,0.004-0.012,0.01-0.019,0.013
	c-0.004,0.006-0.01,0.012-0.016,0.017c-0.005,0.004-0.013,0.011-0.018,0.018c-0.003,0.005-0.01,0.011-0.014,0.015
	c-0.004,0.006-0.008,0.012-0.014,0.018c-0.005,0.006-0.006,0.011-0.009,0.017c-0.005,0.006-0.008,0.01-0.008,0.018
	c-0.005,0.005-0.009,0.011-0.013,0.019c-0.002,0.006-0.004,0.011-0.006,0.017c-0.002,0.006-0.006,0.013-0.008,0.019
	c-0.003,0.007-0.003,0.015-0.006,0.022c0,0.003-0.001,0.01-0.004,0.016c0,0.012,0,0.024,0,0.037v12.755
	c0,0.218,0.258,0.392,0.581,0.392h4.646c0.018,0,0.037,0,0.056-0.002c0.01,0,0.018-0.003,0.028-0.003
	c0.01-0.002,0.021-0.002,0.031-0.002c0.008-0.003,0.018-0.008,0.027-0.008c0.012,0,0.02-0.002,0.027-0.002
	c0.01,0,0.019-0.004,0.027-0.008c0.012-0.004,0.02-0.004,0.026-0.007c0.008-0.001,0.017-0.004,0.024-0.009
	c0.008-0.004,0.018-0.005,0.025-0.006c0.008-0.006,0.016-0.008,0.023-0.014c0.011-0.002,0.02-0.004,0.025-0.01
	c0.01-0.006,0.018-0.007,0.026-0.013c0.008-0.005,0.014-0.007,0.021-0.011c0.012-0.01,0.024-0.014,0.035-0.022
	c0.004-0.002,0.006-0.002,0.01-0.004l2.187-1.463c0.114-0.077,0.171-0.176,0.171-0.274c0,0,0,0,0-0.004V5.89H22.992z M18.6,18.932
	H16.2V8.568H18.6V18.932z M17.4,7l1.311-0.75H20.6L19.289,7H17.4z M22,18.035l-2,1.07V8.551l2-1.071V18.035z"/>
<rect x="4" y="15.75" width="5" height="1.5"/>
<rect x="7.917" y="14.958" transform="matrix(0.8484 -0.5293 0.5293 0.8484 -6.7357 7.8959)" width="5.001" height="1.5"/>
<rect x="15.5" y="8.375" width="4" height="4.875"/>
<rect x="18.418" y="8.516" transform="matrix(0.8778 -0.479 0.479 0.8778 -2.6291 11.0021)" width="3.669" height="4.278"/>
<rect x="20.875" y="7.125" width="1.5" height="3.083"/>
</svg>
