<?xml version="1.0" encoding="utf-8"?>
<!-- Generator: Adobe Illustrator 15.1.0, SVG Export Plug-In . SVG Version: 6.00 Build 0)  -->
<!DOCTYPE svg PUBLIC "-//W3C//DTD SVG 1.1//EN" "http://www.w3.org/Graphics/SVG/1.1/DTD/svg11.dtd">
<svg version="1.1" id="Layer_1" xmlns="http://www.w3.org/2000/svg" xmlns:xlink="http://www.w3.org/1999/xlink" x="0px" y="0px"
	 width="24px" height="24px" viewBox="0 0 24 24" enable-background="new 0 0 24 24" xml:space="preserve">
<path d="M8.312,18.942c-1.153-0.563-2.15-1.421-2.883-2.479l1.645-1.139c0.538,0.777,1.27,1.406,2.117,1.82L8.312,18.942z"/>
<path fill="none" stroke="#000000" stroke-width="2" d="M8.751,18.044"/>
<path d="M11.6,19.701c-0.425,0-0.853-0.036-1.271-0.108l0.339-1.971c0.306,0.053,0.62,0.079,0.932,0.079c3.033,0,5.5-2.468,5.5-5.5
	c0-0.331-0.029-0.661-0.087-0.983l1.969-0.353c0.078,0.438,0.118,0.887,0.118,1.335C19.1,16.337,15.735,19.701,11.6,19.701z"/>
<path d="M16.558,9.815c-0.58-1.207-1.581-2.16-2.817-2.684L14.52,5.29c1.685,0.713,3.049,2.012,3.841,3.658L16.558,9.815z"/>
<path fill="none" stroke="#000000" stroke-width="2" d="M14.13,6.211"/>
<path fill="none" stroke="#000000" stroke-width="2" d="M12.756,5.803"/>
<path d="M4.499,14.62C4.234,13.842,4.1,13.027,4.1,12.2c0-4.136,3.364-7.5,7.5-7.5c0.214,0,0.426,0.009,0.635,0.026L12.069,6.72
	C11.915,6.707,11.758,6.7,11.6,6.7c-3.033,0-5.5,2.467-5.5,5.5c0,0.607,0.099,1.206,0.292,1.777L4.499,14.62z"/>
<path d="M9.87,15.299c-0.51-0.285-0.945-0.695-1.259-1.186l1.685-1.078c0.137,0.214,0.327,0.393,0.551,0.518L9.87,15.299z"/>
<path fill="none" stroke="#000000" stroke-width="2" d="M10.358,14.426"/>
<path d="M11.667,15.689c-0.063,0-0.127-0.002-0.191-0.005c-0.114-0.006-0.233-0.018-0.351-0.036l0.303-1.977
	c0.048,0.007,0.097,0.013,0.146,0.015c0.86,0.059,1.588-0.611,1.633-1.463c0.004-0.058,0.004-0.111,0.002-0.163l1.998-0.07
	c0.004,0.114,0.004,0.229-0.003,0.344c-0.05,0.941-0.465,1.812-1.169,2.445C13.379,15.37,12.544,15.689,11.667,15.689z"/>
<path d="M12.945,11.437c-0.164-0.291-0.423-0.524-0.73-0.657l0.796-1.835c0.703,0.306,1.299,0.841,1.676,1.509L12.945,11.437z"/>
<path fill="none" stroke="#000000" stroke-width="2" d="M12.613,9.862"/>
<path d="M8.17,13.109c-0.079-0.295-0.118-0.6-0.118-0.908c0-1.957,1.592-3.548,3.548-3.548v2c-0.854,0-1.548,0.695-1.548,1.548
	c0,0.134,0.017,0.267,0.051,0.393L8.17,13.109z"/>
<path d="M6.917,22.169c-1.738-0.818-3.239-2.084-4.343-3.662l1.64-1.146c0.903,1.293,2.132,2.329,3.555,2.998L6.917,22.169z"/>
<path d="M19.567,7.991c-0.925-1.746-2.421-3.16-4.211-3.982l0.834-1.817c2.188,1.004,4.015,2.731,5.145,4.863L19.567,7.991z"/>
</svg>
