<?xml version="1.0" encoding="utf-8"?>
<!-- Generator: Adobe Illustrator 15.1.0, SVG Export Plug-In . SVG Version: 6.00 Build 0)  -->
<!DOCTYPE svg PUBLIC "-//W3C//DTD SVG 1.1//EN" "http://www.w3.org/Graphics/SVG/1.1/DTD/svg11.dtd">
<svg version="1.1" id="Layer_1" xmlns="http://www.w3.org/2000/svg" xmlns:xlink="http://www.w3.org/1999/xlink" x="0px" y="0px"
	 width="24px" height="24px" viewBox="0 0 24 24" enable-background="new 0 0 24 24" xml:space="preserve">
<path d="M4,9.8c-0.293,0-0.576-0.162-0.716-0.442C3.087,8.962,3.247,8.482,3.642,8.285l6-3c0.226-0.113,0.49-0.113,0.716,0
	l5.421,2.71L19.375,3.5c0.276-0.343,0.78-0.401,1.125-0.125c0.345,0.276,0.4,0.779,0.125,1.125l-4,5
	c-0.236,0.294-0.648,0.383-0.982,0.215L10,6.895L4.358,9.715C4.243,9.773,4.121,9.8,4,9.8z"/>
<circle cx="4" cy="9" r="2"/>
<circle cx="10" cy="6" r="2"/>
<circle cx="16" cy="9" r="2"/>
<circle cx="20" cy="4" r="2"/>
<circle cx="20" cy="15" r="2"/>
<circle cx="16" cy="20" r="2"/>
<circle cx="11" cy="16" r="2"/>
<circle cx="4" cy="18" r="2"/>
<path d="M16,20.8c-0.181,0-0.357-0.062-0.5-0.175l-4.677-3.742L4.22,18.77c-0.423,0.117-0.868-0.125-0.989-0.55
	c-0.122-0.425,0.125-0.867,0.549-0.989l7-2c0.247-0.071,0.516-0.018,0.719,0.145l4.368,3.494l3.402-4.361
	c0.272-0.349,0.772-0.412,1.123-0.139c0.349,0.271,0.41,0.774,0.139,1.123l-3.9,5c-0.132,0.169-0.325,0.277-0.538,0.303
	C16.063,20.798,16.031,20.8,16,20.8z"/>
</svg>
