<?xml version="1.0" encoding="utf-8"?>
<!-- Generator: Adobe Illustrator 15.1.0, SVG Export Plug-In . SVG Version: 6.00 Build 0)  -->
<!DOCTYPE svg PUBLIC "-//W3C//DTD SVG 1.1//EN" "http://www.w3.org/Graphics/SVG/1.1/DTD/svg11.dtd">
<svg version="1.1" id="Layer_1" xmlns="http://www.w3.org/2000/svg" xmlns:xlink="http://www.w3.org/1999/xlink" x="0px" y="0px"
	 width="24px" height="24px" viewBox="0 0 24 24" enable-background="new 0 0 24 24" xml:space="preserve">
<polygon points="7,12 12,16 17,12 17,9 12,13 7,9 "/>
<path d="M22,12c0,5.514-4.486,10-10,10C6.486,22,2,17.514,2,12S6.486,2,12,2C17.514,2,22,6.486,22,12z M20,12c0-4.411-3.589-8-8-8
	s-8,3.589-8,8s3.589,8,8,8S20,16.411,20,12z"/>
</svg>
