<?xml version="1.0" encoding="utf-8"?>
<!-- Generator: Adobe Illustrator 15.1.0, SVG Export Plug-In . SVG Version: 6.00 Build 0)  -->
<!DOCTYPE svg PUBLIC "-//W3C//DTD SVG 1.1//EN" "http://www.w3.org/Graphics/SVG/1.1/DTD/svg11.dtd">
<svg version="1.1" id="Layer_1" xmlns="http://www.w3.org/2000/svg" xmlns:xlink="http://www.w3.org/1999/xlink" x="0px" y="0px"
	 width="24px" height="24px" viewBox="-0.5 -0.5 24 24" enable-background="new -0.5 -0.5 24 24" xml:space="preserve">
<polygon points="6.5,14.571 11.5,18 16.5,14.571 16.5,12 11.5,15.429 6.5,12 "/>
<path d="M21.5,11.5c0,5.514-4.486,10-10,10c-5.514,0-10-4.486-10-10c0-5.514,4.486-10,10-10C17.014,1.5,21.5,5.986,21.5,11.5z
	 M19.5,11.5c0-4.411-3.589-8-8-8s-8,3.589-8,8s3.589,8,8,8S19.5,15.911,19.5,11.5z"/>
<polygon points="6.5,11 11.5,7.571 16.5,11 16.5,8.429 11.5,5 6.5,8.429 "/>
</svg>
