<?xml version="1.0" encoding="utf-8"?>
<!-- Generator: Adobe Illustrator 15.1.0, SVG Export Plug-In . SVG Version: 6.00 Build 0)  -->
<!DOCTYPE svg PUBLIC "-//W3C//DTD SVG 1.1//EN" "http://www.w3.org/Graphics/SVG/1.1/DTD/svg11.dtd">
<svg version="1.1" id="Layer_1" xmlns="http://www.w3.org/2000/svg" xmlns:xlink="http://www.w3.org/1999/xlink" x="0px" y="0px"
	 width="24px" height="24px" viewBox="0 0 24 24" enable-background="new 0 0 24 24" xml:space="preserve">
<path d="M11.036,22.014c-0.798,0-1.559-0.322-2.143-0.906l-5.1-5.101c-1.182-1.182-1.182-3.032,0-4.214l7.218-6.996l7.097,7.096
	c1.181,1.182,1.181,3.033,0.001,4.215l-5.102,5.1C12.487,21.727,11.788,22.014,11.036,22.014z M10.989,7.604l-5.793,5.614
	c-0.396,0.397-0.396,0.967,0.011,1.375l5.1,5.101c0.377,0.376,0.971,0.415,1.285,0.1l5.101-5.1c0.407-0.408,0.407-0.979-0.001-1.387
	L10.989,7.604z"/>
<path d="M22,20c0,1.1-0.9,2-2,2s-2-0.9-2-2s2-4,2-4S22,18.9,22,20z"/>
<path d="M4,14c0,0.5,0.2,1,0.5,1.4l5.1,5.1c0.8,0.8,2,0.8,2.8,0l5.1-5.1C17.8,15,18,14.5,18,14H4z"/>
<rect x="5.864" y="5.65" transform="matrix(0.7071 0.7071 -0.7071 0.7071 8.0557 -6.1486)" width="11.172" height="2"/>
</svg>
