<?xml version="1.0" encoding="utf-8"?>
<!-- Generator: Adobe Illustrator 15.1.0, SVG Export Plug-In . SVG Version: 6.00 Build 0)  -->
<!DOCTYPE svg PUBLIC "-//W3C//DTD SVG 1.1//EN" "http://www.w3.org/Graphics/SVG/1.1/DTD/svg11.dtd">
<svg version="1.1" id="Layer_1" xmlns="http://www.w3.org/2000/svg" xmlns:xlink="http://www.w3.org/1999/xlink" x="0px" y="0px"
	 width="24px" height="24px" viewBox="-0.5 -0.5 24 24" enable-background="new -0.5 -0.5 24 24" xml:space="preserve">
<path d="M17.275,2.501c-0.225,0-0.467,0.101-0.646,0.281l-1.52,1.519l3.603,3.6l1.521-1.519c0.359-0.36,0.359-0.996,0-1.266
	l-2.336-2.334C17.715,2.602,17.501,2.501,17.275,2.501z M14.208,5.285L2.5,16.9v3.6h3.603L17.727,8.8L14.208,5.285z"/>
<polygon points="17.148,10.91 15.734,12.324 16.486,13.076 14.715,14.848 16.129,16.262 17.9,14.49 18.563,15.148 14.968,18.684 
	12.129,15.848 10.715,17.262 14.956,21.5 21.402,15.16 "/>
<polygon points="8.129,8.262 9.922,6.469 10.715,7.262 12.129,5.848 7.914,1.641 1.5,8.055 5.715,12.262 7.129,10.848 4.328,8.055 
	7.914,4.469 8.508,5.055 6.715,6.848 "/>
</svg>
