<?xml version="1.0" encoding="iso-8859-1"?>
<!-- Generator: Adobe Illustrator 20.0.0, SVG Export Plug-In . SVG Version: 6.00 Build 0)  -->
<svg xmlns="http://www.w3.org/2000/svg" xmlns:xlink="http://www.w3.org/1999/xlink" version="1.1" x="0px" y="0px" viewBox="0 0 24 24" style="enable-background:new 0 0 24 24;" xml:space="preserve" width="24px" height="24px">
<rect x="4" y="18" width="16" height="2"/>
<path d="M14,5c0-1.105-0.895-2-2-2s-2,0.895-2,2c0,0.738,0.405,1.376,1,1.723V18h2V6.723C13.595,6.376,14,5.738,14,5z"/>
<path d="M9,12L6.429,6h2.755C9.072,5.686,9,5.353,9,5s0.072-0.686,0.184-1H3v2h2.571L3,12H2c0,2.209,1.791,4,4,4s4-1.791,4-4H9z   M4.4,12L6,8l1.6,4H4.4z"/>
<path d="M21,12l-2.571-6H21V4h-6.184C14.928,4.314,15,4.647,15,5s-0.072,0.686-0.184,1h2.755L15,12h-1c0,2.209,1.791,4,4,4  s4-1.791,4-4H21z M16.4,12L18,8l1.6,4H16.4z"/>
</svg>
