<?xml version="1.0" encoding="utf-8"?>
<!-- Generator: Adobe Illustrator 15.1.0, SVG Export Plug-In . SVG Version: 6.00 Build 0)  -->
<!DOCTYPE svg PUBLIC "-//W3C//DTD SVG 1.1//EN" "http://www.w3.org/Graphics/SVG/1.1/DTD/svg11.dtd">
<svg version="1.1" id="Layer_1" xmlns="http://www.w3.org/2000/svg" xmlns:xlink="http://www.w3.org/1999/xlink" x="0px" y="0px"
	 width="24px" height="24px" viewBox="0.5 0.5 24 24" enable-background="new 0.5 0.5 24 24" xml:space="preserve">
<path d="M8.277,7.5h12.444c0.981,0,1.778,0.783,1.778,1.75v10.498c0,0.968-0.797,1.752-1.778,1.752H8.277
	c-0.98,0-1.777-0.784-1.777-1.752V9.25C6.5,8.283,7.297,7.5,8.277,7.5 M8.277,11v3.5h5.334V11H8.277 M15.389,11v3.5h5.333V11H15.389
	 M8.277,16.249v3.499h5.334v-3.499H8.277 M15.389,16.249v3.499h5.333v-3.499H15.389z"/>
<path d="M4.5,15.5v-10h12v2h2V5.25c0-0.967-0.797-1.75-1.778-1.75H4.277C3.297,3.5,2.5,4.283,2.5,5.25v10.498
	c0,0.968,0.797,1.752,1.777,1.752H5.5v-2H4.5z"/>
<rect x="5.5" y="15.5" width="0.889" height="2"/>
<rect x="16.5" y="7.5" width="2" height="0.875"/>
</svg>
