<?xml version="1.0" encoding="utf-8"?>
<!-- Generator: Adobe Illustrator 15.1.0, SVG Export Plug-In . SVG Version: 6.00 Build 0)  -->
<!DOCTYPE svg PUBLIC "-//W3C//DTD SVG 1.1//EN" "http://www.w3.org/Graphics/SVG/1.1/DTD/svg11.dtd">
<svg version="1.1" id="Layer_1" xmlns="http://www.w3.org/2000/svg" xmlns:xlink="http://www.w3.org/1999/xlink" x="0px" y="0px"
	 width="24px" height="24px" viewBox="0 0 24 24" enable-background="new 0 0 24 24" xml:space="preserve">
<path d="M5,15c0,3.866,3.134,7,7,7s7-3.134,7-7c0-1.04-0.24-2.06-0.68-3C18.76,11.061,19,10.04,19,9c0-3.866-3.134-7-7-7
	S5,5.134,5,9c0,1.04,0.24,2.061,0.68,3C5.24,12.94,5,13.96,5,15 M7,15c0-0.34,0.03-0.67,0.1-1c1.31,1.28,3.07,2,4.9,2
	s3.59-0.72,4.891-2C16.96,14.33,17,14.66,17,15c0,2.762-2.238,5-5,5C9.239,20,7,17.762,7,15 M7,9c0-2.762,2.239-5,5-5
	c2.762,0,5,2.238,5,5c0,0.34-0.03,0.67-0.1,1C15.59,8.721,13.83,8,12,8s-3.59,0.721-4.89,2C7.04,9.67,7,9.34,7,9 M8,12
	c0.95-1.26,2.43-2,4-2c1.57,0,3.05,0.74,4,2c-0.95,1.26-2.43,2-4,2C10.43,14,8.95,13.26,8,12z"/>
</svg>
