<?xml version="1.0" encoding="utf-8"?>
<!-- Generator: Adobe Illustrator 15.1.0, SVG Export Plug-In . SVG Version: 6.00 Build 0)  -->
<!DOCTYPE svg PUBLIC "-//W3C//DTD SVG 1.1//EN" "http://www.w3.org/Graphics/SVG/1.1/DTD/svg11.dtd">
<svg version="1.1" id="Layer_1" xmlns="http://www.w3.org/2000/svg" xmlns:xlink="http://www.w3.org/1999/xlink" x="0px" y="0px"
	 width="24px" height="24px" viewBox="0.5 0.5 24 24" enable-background="new 0.5 0.5 24 24" xml:space="preserve">
<path d="M2.5,2.5v1.53h0.07l4.597,4.521v5.356l4.667,4.593V8.56l4.604-4.53H16.5V2.5H2.5z M10.348,7.856h-0.07v6.947l-1.555-1.529
	V7.856H8.66L4.771,4.03h9.465L10.348,7.856z"/>
<polygon points="23,10 19.938,10 18.499,12.181 17.061,10 14,10 16.969,14.5 14,19 17.061,19 18.499,16.82 19.938,19 23,19 
	20.029,14.5 "/>
<rect x="14.5" y="20.5" width="8" height="2"/>
</svg>
