<?xml version="1.0" encoding="utf-8"?>
<!-- Generator: Adobe Illustrator 15.1.0, SVG Export Plug-In . SVG Version: 6.00 Build 0)  -->
<!DOCTYPE svg PUBLIC "-//W3C//DTD SVG 1.1//EN" "http://www.w3.org/Graphics/SVG/1.1/DTD/svg11.dtd">
<svg version="1.1" id="Layer_1" xmlns="http://www.w3.org/2000/svg" xmlns:xlink="http://www.w3.org/1999/xlink" x="0px" y="0px"
	 width="24px" height="24px" viewBox="0 0 24 24" enable-background="new 0 0 24 24" xml:space="preserve">
<path d="M2.5,2.5v1.53h0.07l4.597,4.521v5.356l4.667,4.593V8.56l4.604-4.53H16.5V2.5H2.5z M10.348,7.856h-0.07v6.947l-1.555-1.529
	V7.856H8.66L4.771,4.03h9.465L10.348,7.856z"/>
<path d="M11.834,11h9.333c0.736,0,1.333,0.56,1.333,1.25v7.5c0,0.69-0.597,1.25-1.333,1.25h-9.333c-0.737,0-1.334-0.56-1.334-1.25
	v-7.5C10.5,11.56,11.097,11,11.834,11 M11.834,13.499V16h4v-2.501H11.834 M17.167,13.499V16h4v-2.501H17.167 M11.834,17.249v2.501h4
	v-2.501H11.834 M17.167,17.249v2.501h4v-2.501H17.167z"/>
</svg>
