<?xml version="1.0" encoding="utf-8"?>
<!-- Generator: Adobe Illustrator 15.1.0, SVG Export Plug-In . SVG Version: 6.00 Build 0)  -->
<!DOCTYPE svg PUBLIC "-//W3C//DTD SVG 1.1//EN" "http://www.w3.org/Graphics/SVG/1.1/DTD/svg11.dtd">
<svg version="1.1" id="Layer_1" xmlns="http://www.w3.org/2000/svg" xmlns:xlink="http://www.w3.org/1999/xlink" x="0px" y="0px"
	 width="24px" height="24px" viewBox="-0.5 -0.5 24 24" enable-background="new -0.5 -0.5 24 24" xml:space="preserve">
<path d="M16.5,1.5h-4.2c-0.4-1.2-1.5-2-2.8-2s-2.4,0.8-2.8,2H2.5c-1.1,0-2,0.9-2,2v13c0,1.1,0.9,2,2,2h14c1.1,0,2-0.9,2-2v-13
	C18.5,2.4,17.6,1.5,16.5,1.5z M9.5,1.5c0.6,0,1,0.4,1,1s-0.4,1-1,1s-1-0.4-1-1S8.9,1.5,9.5,1.5z M16.5,16.5h-14v-13h2v2h10v-2h2
	V16.5z"/>
<path d="M8.5,12.5h2v2h-2V12.5z M12.5,22.5h2v-2h-2V22.5z M12.5,10.5h2v-2h-2V10.5z M20.5,8.5v2h2C22.5,9.4,21.6,8.5,20.5,8.5z
	 M16.5,22.5h2v-2h-2V22.5z M8.5,18.5h2v-2h-2V18.5z M20.5,14.5h2v-2h-2V14.5z M10.5,22.5v-2h-2C8.5,21.6,9.4,22.5,10.5,22.5z
	 M16.5,10.5h2v-2h-2V10.5z M20.5,22.5c1.1,0,2-0.9,2-2h-2V22.5z M8.5,10.5h2v-2C9.4,8.5,8.5,9.4,8.5,10.5z M20.5,18.5h2v-2h-2V18.5z
	"/>
</svg>
