<?xml version="1.0" encoding="utf-8"?><!DOCTYPE svg PUBLIC "-//W3C//DTD SVG 1.1//EN" "http://www.w3.org/Graphics/SVG/1.1/DTD/svg11.dtd"><svg version="1.1" xmlns="http://www.w3.org/2000/svg" xmlns:xlink="http://www.w3.org/1999/xlink" x="0px" y="0px" width="24px" height="24px" viewBox="0 0 24 24" xml:space="preserve"><path d="M5.3,21.012c-0.496,0-0.919-0.178-1.271-0.529S3.5,19.704,3.5,19.212v-12.6c0-0.498,0.178-0.919,0.529-1.271C4.381,4.985,4.804,4.813,5.3,4.813h8.034l-1.8,1.8H5.3v12.6H17.9v-6.258l1.8-1.8v8.058c0,0.492-0.179,0.919-0.53,1.271s-0.773,0.529-1.27,0.529H5.3z M8.9,15.611v-3.825l8.259-8.259c0.179-0.178,0.38-0.313,0.604-0.404c0.226-0.088,0.45-0.135,0.676-0.135c0.238,0,0.469,0.047,0.688,0.135c0.216,0.09,0.413,0.226,0.596,0.404l1.261,1.285c0.164,0.177,0.289,0.379,0.38,0.595c0.089,0.214,0.136,0.44,0.136,0.665c0,0.226-0.042,0.445-0.122,0.661c-0.084,0.221-0.216,0.417-0.394,0.596l-8.259,8.282H8.9z M10.7,13.812h1.261l5.217-5.222L16.55,7.962l-0.651-0.633L10.7,12.527V13.812z"/></svg>
