<?xml version="1.0" encoding="utf-8"?>
<!-- Generator: Adobe Illustrator 15.1.0, SVG Export Plug-In . SVG Version: 6.00 Build 0)  -->
<!DOCTYPE svg PUBLIC "-//W3C//DTD SVG 1.1//EN" "http://www.w3.org/Graphics/SVG/1.1/DTD/svg11.dtd">
<svg version="1.1" id="Layer_1" xmlns="http://www.w3.org/2000/svg" xmlns:xlink="http://www.w3.org/1999/xlink" x="0px" y="0px"
	 width="24px" height="24px" viewBox="0 0 24 24" enable-background="new 0 0 24 24" xml:space="preserve">
<path d="M3.5,12.001c0-2.791,1.64-5.201,4-6.321V3.5c-3.5,1.26-6,4.59-6,8.501s2.5,7.241,6,8.5V18.32
	C5.14,17.201,3.5,14.791,3.5,12.001"/>
<path d="M15.479,20.578c-4.418,0-8.014-3.838-8.014-8.556s3.595-8.557,8.014-8.557c4.419,0,8.015,3.839,8.015,8.557
	S19.897,20.578,15.479,20.578z M15.479,5.535c-3.277,0-5.943,2.91-5.943,6.487c0,3.577,2.666,6.486,5.943,6.486
	s5.944-2.909,5.944-6.486C21.423,8.445,18.756,5.535,15.479,5.535z"/>
<rect x="14.717" y="7.915" transform="matrix(-0.7071 0.7071 -0.7071 -0.7071 34.8587 9.5786)" width="1.458" height="8.187"/>
<rect x="14.792" y="8.022" transform="matrix(-0.7069 -0.7073 0.7073 -0.7069 18.0054 31.4625)" width="1.457" height="7.958"/>
</svg>
