<?xml version="1.0" encoding="utf-8"?>
<!-- Generator: Adobe Illustrator 15.1.0, SVG Export Plug-In . SVG Version: 6.00 Build 0)  -->
<!DOCTYPE svg PUBLIC "-//W3C//DTD SVG 1.1//EN" "http://www.w3.org/Graphics/SVG/1.1/DTD/svg11.dtd">
<svg version="1.1" id="Layer_1" xmlns="http://www.w3.org/2000/svg" xmlns:xlink="http://www.w3.org/1999/xlink" x="0px" y="0px"
	 width="24px" height="24px" viewBox="0 0 24 24" enable-background="new 0 0 24 24" xml:space="preserve">
<g>
	<path fill="none" d="M13.5,4.5h-4v4h4V4.5z M10.5,7.5v-2h2v2H10.5z"/>
	<rect x="15.5" y="10.5" fill="none" width="4" height="4"/>
	<rect x="9.5" y="16.5" fill="none" width="4" height="4"/>
	<rect x="9.5" y="10.5" fill="none" width="4" height="4"/>
	<path fill="none" d="M7.5,14.5v-4h-4v4H7.5z M6.5,11.5v2h-2v-2H6.5z"/>
	<rect x="15.5" y="16.5" fill="none" width="4" height="4"/>
	<path fill="none" d="M15.5,8.5h4v-4h-4V8.5z M18.5,5.5v2h-2v-2H18.5z"/>
	<path fill="none" d="M7.5,16.5h-4v4h4V16.5z M4.5,19.5v-2h2v2H4.5z"/>
	<path d="M7.5,2.5v1v1v4h-4h-1h-1v14h20v-20H7.5z M19.5,8.5h-4v-4h4V8.5z M9.5,14.5v-4h4v4H9.5z M13.5,16.5v4h-4v-4H13.5z
		 M15.5,10.5h4v4h-4V10.5z M9.5,4.5h4v4h-4V4.5z M7.5,10.5v4h-4v-4H7.5z M3.5,16.5h4v4h-4V16.5z M15.5,20.5v-4h4v4H15.5z"/>
	<rect x="10.5" y="5.5" width="2" height="2"/>
	<rect x="16.5" y="5.5" width="2" height="2"/>
	<rect x="4.5" y="11.5" width="2" height="2"/>
	<rect x="4.5" y="17.5" width="2" height="2"/>
</g>
</svg>
