<?xml version="1.0" encoding="UTF-8" standalone="no"?>
<!-- Generator: Adobe Illustrator 15.1.0, SVG Export Plug-In . SVG Version: 6.00 Build 0)  -->

<svg
   xmlns:dc="http://purl.org/dc/elements/1.1/"
   xmlns:cc="http://creativecommons.org/ns#"
   xmlns:rdf="http://www.w3.org/1999/02/22-rdf-syntax-ns#"
   xmlns:svg="http://www.w3.org/2000/svg"
   xmlns="http://www.w3.org/2000/svg"
   xmlns:sodipodi="http://sodipodi.sourceforge.net/DTD/sodipodi-0.dtd"
   xmlns:inkscape="http://www.inkscape.org/namespaces/inkscape"
   version="1.1"
   id="Layer_1"
   x="0px"
   y="0px"
   width="24px"
   height="24px"
   viewBox="0 0 24 24"
   enable-background="new 0 0 24 24"
   xml:space="preserve"
   sodipodi:docname="crosstab-row-header.svg"
   inkscape:version="0.92.3 (2405546, 2018-03-11)"><metadata
   id="metadata1012"><rdf:RDF><cc:Work
       rdf:about=""><dc:format>image/svg+xml</dc:format><dc:type
         rdf:resource="http://purl.org/dc/dcmitype/StillImage" /><dc:title></dc:title></cc:Work></rdf:RDF></metadata><defs
   id="defs1010" /><sodipodi:namedview
   pagecolor="#ffffff"
   bordercolor="#666666"
   borderopacity="1"
   objecttolerance="10"
   gridtolerance="10"
   guidetolerance="10"
   inkscape:pageopacity="0"
   inkscape:pageshadow="2"
   inkscape:window-width="1920"
   inkscape:window-height="1017"
   id="namedview1008"
   showgrid="false"
   inkscape:zoom="9.8333333"
   inkscape:cx="12"
   inkscape:cy="12"
   inkscape:window-x="3832"
   inkscape:window-y="-8"
   inkscape:window-maximized="1"
   inkscape:current-layer="g1005" />
<g
   id="g1005">
	<path
   d="m 13.5,4.5 h -4 v 4 h 4 z m -3,3 v -2 h 2 v 2 z"
   id="path979"
   inkscape:connector-curvature="0"
   style="fill:none" />
	<rect
   x="15.5"
   y="10.5"
   width="4"
   height="4"
   id="rect981"
   style="fill:none" />
	<rect
   x="9.5"
   y="16.5"
   width="4"
   height="4"
   id="rect983"
   style="fill:none" />
	<rect
   x="9.5"
   y="10.5"
   width="4"
   height="4"
   id="rect985"
   style="fill:none" />
	<path
   d="m 7.5,14.5 v -4 h -4 v 4 z m -1,-3 v 2 h -2 v -2 z"
   id="path987"
   inkscape:connector-curvature="0"
   style="fill:none" />
	<rect
   x="15.5"
   y="16.5"
   width="4"
   height="4"
   id="rect989"
   style="fill:none" />
	<path
   d="m 15.5,8.5 h 4 v -4 h -4 z m 3,-3 v 2 h -2 v -2 z"
   id="path991"
   inkscape:connector-curvature="0"
   style="fill:none" />
	<path
   d="m 7.5,16.5 h -4 v 4 h 4 z m -3,3 v -2 h 2 v 2 z"
   id="path993"
   inkscape:connector-curvature="0"
   style="fill:none" />
	<path
   d="m 7.5,2.5 v 1 1 4 h -4 -1 -1 v 14 h 20 v -20 z m 12,6 h -4 v -4 h 4 z m -10,6 v -4 h 4 v 4 z m 4,2 v 4 h -4 v -4 z m 2,-6 h 4 v 4 h -4 z m -6,-6 h 4 v 4 h -4 z m -2,6 v 4 h -4 v -4 z m -4,6 h 4 v 4 h -4 z m 12,4 v -4 h 4 v 4 z"
   id="path995"
   inkscape:connector-curvature="0" />
	
	
	<rect
   x="4.5"
   y="11.5"
   width="2"
   height="2"
   id="rect1001" />
	<rect
   x="4.5"
   y="17.5"
   width="2"
   height="2"
   id="rect1003" />
</g>
</svg>