<?xml version="1.0" encoding="utf-8"?>
<!-- Generator: Adobe Illustrator 15.1.0, SVG Export Plug-In . SVG Version: 6.00 Build 0)  -->
<!DOCTYPE svg PUBLIC "-//W3C//DTD SVG 1.1//EN" "http://www.w3.org/Graphics/SVG/1.1/DTD/svg11.dtd">
<svg version="1.1" id="Layer_1" xmlns="http://www.w3.org/2000/svg" xmlns:xlink="http://www.w3.org/1999/xlink" x="0px" y="0px"
	 width="24px" height="24px" viewBox="-0.5 -0.5 24 24" enable-background="new -0.5 -0.5 24 24" xml:space="preserve">
<g>
	<path d="M9.5,1.5v3c0,0-0.89,0.58-2,0.59c-1.11-0.01-2-0.59-2-0.59v-3c-0.14,0.04-3,2.59-3,4c0,0.67,0.23,1.05,0.65,1.59
		c0.662,0.754,1.44,1.17,1.97,1.46c0.01,0,0.01,0,0.02,0.01C5.264,8.625,5.384,8.689,5.5,8.752V19.5c0,1.1,0.9,2,2,2s2-0.9,2-2V8.76
		c0.123-0.068,0.25-0.138,0.38-0.21c0.03-0.01,1.386-0.691,2.02-1.52c0.396-0.518,0.6-0.89,0.6-1.53C12.5,4.09,9.64,1.54,9.5,1.5z"
		/>
	<path stroke="#F7931E" stroke-width="0" stroke-linecap="round" stroke-linejoin="round" d="M22.33,8.65
		c-0.092,0.079-0.196,0.157-0.307,0.234"/>
	<path d="M19.5,12.5h-1v-7l1-1l-1-3h-2l-1,3l1,1v7h-1c-0.55,0-1,0.45-1,1s0.45,1,1,1v1v1v3c0,1.1,0.9,2,2,2s2-0.9,2-2v-3v-1v-1
		c0.55,0,1-0.45,1-1S20.05,12.5,19.5,12.5z"/>
</g>
</svg>
