<?xml version="1.0" encoding="utf-8"?>
<!-- Generator: Adobe Illustrator 15.1.0, SVG Export Plug-In . SVG Version: 6.00 Build 0)  -->
<!DOCTYPE svg PUBLIC "-//W3C//DTD SVG 1.1//EN" "http://www.w3.org/Graphics/SVG/1.1/DTD/svg11.dtd">
<svg version="1.1" id="Layer_1" xmlns="http://www.w3.org/2000/svg" xmlns:xlink="http://www.w3.org/1999/xlink" x="0px" y="0px"
	 width="24px" height="24px" viewBox="0 0 24 24" enable-background="new 0 0 24 24" xml:space="preserve">
<g>
	<path fill="none" d="M8,6.5C8,5.7,7.3,5,6.5,5S5,5.7,5,6.5S5.7,8,6.5,8S8,7.3,8,6.5z"/>
	<path fill="none" d="M6.5,16C5.7,16,5,16.7,5,17.5S5.7,19,6.5,19S8,18.3,8,17.5S7.3,16,6.5,16z"/>
	<path fill="none" d="M12.5,13c0.3,0,0.5-0.2,0.5-0.5S12.8,12,12.5,12S12,12.2,12,12.5S12.2,13,12.5,13z"/>
	<path d="M10,6.5C10,4.6,8.4,3,6.5,3S3,4.6,3,6.5S4.6,10,6.5,10c0.439,0,0.86-0.094,1.251-0.249L10.5,12.5l-2.089,2.089
		C7.857,14.22,7.2,14,6.5,14C4.6,14,3,15.6,3,17.5S4.6,21,6.5,21s3.5-1.6,3.5-3.5c0-0.154-0.027-0.303-0.047-0.453L12.5,14.5L18,20
		h4L9.751,7.751C9.906,7.36,10,6.939,10,6.5z M6.5,19C5.7,19,5,18.3,5,17.5S5.7,16,6.5,16S8,16.7,8,17.5S7.3,19,6.5,19z M5,6.5
		C5,5.7,5.7,5,6.5,5S8,5.7,8,6.5S7.3,8,6.5,8S5,7.3,5,6.5z M12.5,12c0.3,0,0.5,0.2,0.5,0.5S12.8,13,12.5,13S12,12.8,12,12.5
		S12.2,12,12.5,12z"/>
	<polygon points="22,5 18,5 13.5,9.5 15.5,11.5 	"/>
</g>
</svg>
