<?xml version="1.0" encoding="utf-8"?>
<!-- Generator: Adobe Illustrator 15.1.0, SVG Export Plug-In . SVG Version: 6.00 Build 0)  -->
<!DOCTYPE svg PUBLIC "-//W3C//DTD SVG 1.1//EN" "http://www.w3.org/Graphics/SVG/1.1/DTD/svg11.dtd">
<svg version="1.1" id="Layer_1" xmlns="http://www.w3.org/2000/svg" xmlns:xlink="http://www.w3.org/1999/xlink" x="0px" y="0px"
	 width="24px" height="24px" viewBox="0 0 24 24" enable-background="new 0 0 24 24" xml:space="preserve">
<path d="M3.4,2.667h2.1c0.773,0,1.4,0.597,1.4,1.333v10.666C6.9,15.403,6.273,16,5.5,16H3.4C2.627,16,2,15.403,2,14.666V4
	C2,3.264,2.627,2.667,3.4,2.667 M14.6,11.333c0.773,0,1.4,0.597,1.4,1.333v1.999C16,15.403,15.373,16,14.6,16H8.301v-4.667H14.6
	 M10.4,4C13.492,4,16,6.387,16,9.333L15.959,10h-1.414L14.6,9.333c0-2.209-1.879-4-4.2-4v2L7.6,4.667L10.4,2V4z"/>
<path d="M20.669,11.5h-2.478v2.749h2.478V17h-2.478v1.375h2.478v2.751h-4.001v-2.555h-1.333v2.555h-4v-2.555H10v2.555
	c0,0.758,0.597,1.374,1.334,1.374h9.333c0.736,0,1.333-0.616,1.333-1.374v-8.25C22.001,12.116,21.404,11.5,20.669,11.5z"/>
</svg>
