<?xml version="1.0" encoding="utf-8"?>
<!-- Generator: Adobe Illustrator 15.1.0, SVG Export Plug-In . SVG Version: 6.00 Build 0)  -->
<!DOCTYPE svg PUBLIC "-//W3C//DTD SVG 1.1//EN" "http://www.w3.org/Graphics/SVG/1.1/DTD/svg11.dtd">
<svg version="1.1" id="Layer_1" xmlns="http://www.w3.org/2000/svg" xmlns:xlink="http://www.w3.org/1999/xlink" x="0px" y="0px"
	 width="24px" height="24px" viewBox="-0.5 -0.5 24 24" enable-background="new -0.5 -0.5 24 24" xml:space="preserve">
<polyline points="4.499,19.5 2.499,19.5 2.499,21.5 4.499,21.5 "/>
<polyline points="20.5,1.5 2.5,1.5 2.5,3.5 20.5,3.5 "/>
<polyline points="20.5,5.5 2.5,5.5 2.5,7.5 20.5,7.5 "/>
<polyline points="20.5,9.5 2.5,9.5 2.5,11.5 20.5,11.5 "/>
<polyline points="8.5,19.5 6.5,19.5 6.5,21.5 8.5,21.5 "/>
<polyline points="12.499,19.5 10.499,19.5 10.499,21.5 12.499,21.5 "/>
<polyline points="16.5,19.5 14.5,19.5 14.5,21.5 16.5,21.5 "/>
<polyline points="20.5,19.5 18.5,19.5 18.5,21.5 20.5,21.5 "/>
<polyline points="12.499,13.5 10.499,13.5 10.499,15.5 12.499,15.5 "/>
<polyline points="4.5,13.5 2.5,13.5 2.5,15.5 4.5,15.5 "/>
<polyline points="8.5,13.5 6.5,13.5 6.5,15.5 8.5,15.5 "/>
<polyline points="16.5,13.5 14.5,13.5 14.5,15.5 16.5,15.5 "/>
<polyline points="20.5,13.5 18.5,13.5 18.5,15.5 20.5,15.5 "/>
</svg>
