<?xml version="1.0" encoding="utf-8"?>
<!-- Generator: Adobe Illustrator 15.1.0, SVG Export Plug-In . SVG Version: 6.00 Build 0)  -->
<!DOCTYPE svg PUBLIC "-//W3C//DTD SVG 1.1//EN" "http://www.w3.org/Graphics/SVG/1.1/DTD/svg11.dtd">
<svg version="1.1" id="Layer_1" xmlns="http://www.w3.org/2000/svg" xmlns:xlink="http://www.w3.org/1999/xlink" x="0px" y="0px"
	 width="24px" height="24px" viewBox="0 0 24 24" enable-background="new 0 0 24 24" xml:space="preserve">
<path d="M21.665,13.25h-2.53v2.375h2.53V18h-4v-0.287c-0.23,0.462-0.711,0.782-1.276,0.782H11v3.068
	c0,0.655,0.597,1.187,1.333,1.187h9.333c0.737,0,1.335-0.531,1.335-1.187v-7.126C23,13.781,22.402,13.25,21.665,13.25z
	 M16.333,21.562h-4v-2.374h4V21.562z M21.665,21.562h-4v-2.374h4V21.562z"/>
<path d="M14.87,16.25c0.766,0,1.38-0.614,1.38-1.38V7.274c0-0.767-0.614-1.381-1.38-1.381c-2.535,0-5.062,0-7.596,0
	c-0.767,0-1.381,0.615-1.381,1.381c0,2.534,0,5.061,0,7.596c0,0.766,0.615,1.38,1.381,1.38H14.87 M14.87,14.87H7.274V7.274h7.596
	V14.87 M4.512,12.108v-1.381H3.131V3.131h7.596v1.381h1.381V3.131c0-0.766-0.616-1.381-1.381-1.381H3.131
	c-0.766,0-1.381,0.615-1.381,1.381v7.596c0,0.766,0.615,1.381,1.381,1.381H4.512z"/>
</svg>
