<?xml version="1.0" encoding="utf-8"?>
<!-- Generator: Adobe Illustrator 15.1.0, SVG Export Plug-In . SVG Version: 6.00 Build 0)  -->
<!DOCTYPE svg PUBLIC "-//W3C//DTD SVG 1.1//EN" "http://www.w3.org/Graphics/SVG/1.1/DTD/svg11.dtd">
<svg version="1.1" id="Layer_1" xmlns="http://www.w3.org/2000/svg" xmlns:xlink="http://www.w3.org/1999/xlink" x="0px" y="0px"
	 width="24px" height="24px" viewBox="0 0 24 24" enable-background="new 0 0 24 24" xml:space="preserve">
<path d="M9,2.5C5.409,2.5,2.5,3.619,2.5,5C2.5,6.38,5.409,7.5,9,7.5s6.5-1.119,6.5-2.5C15.5,3.619,12.591,2.5,9,2.5"/>
<path d="M9,11.5c3.591,0,6.5-1.278,6.5-2.857V6.5c0,1.578-2.909,2.857-6.5,2.857S2.5,8.078,2.5,6.5v2.143
	C2.5,10.222,5.409,11.5,9,11.5z"/>
<path d="M20.669,10.5h-4.383v2.079c0,0.762-0.352,1.472-0.952,2.08V16h-2.156c-0.929,0.356-2.012,0.577-3.178,0.618v3.509
	c0,0.76,0.597,1.373,1.334,1.373h9.333c0.736,0,1.333-0.613,1.333-1.373v-8.251C22.001,11.116,21.404,10.5,20.669,10.5z
	 M15.334,20.127h-4v-2.751h4V20.127z M20.669,20.127h-4.001v-2.751h4.001V20.127z M20.669,16h-4.001v-2.749h4.001V16z"/>
<path d="M9,15c3.591,0,6.5-1.277,6.5-2.856V10c0,1.579-2.909,2.857-6.5,2.857S2.5,11.579,2.5,10v2.144C2.5,13.723,5.409,15,9,15z"/>
</svg>
