<?xml version="1.0" encoding="utf-8"?>
<!-- Generator: Adobe Illustrator 15.1.0, SVG Export Plug-In . SVG Version: 6.00 Build 0)  -->
<!DOCTYPE svg PUBLIC "-//W3C//DTD SVG 1.1//EN" "http://www.w3.org/Graphics/SVG/1.1/DTD/svg11.dtd">
<svg version="1.1" id="Layer_1" xmlns="http://www.w3.org/2000/svg" xmlns:xlink="http://www.w3.org/1999/xlink" x="0px" y="0px"
	 width="24px" height="24px" viewBox="0.5 0.5 24 24" enable-background="new 0.5 0.5 24 24" xml:space="preserve">
<path d="M20.5,6.5h-8l-2-2h-6c-1.11,0-2,0.89-2,2v12c0,1.104,0.896,2,2,2h16c1.104,0,2-0.896,2-2v-10C22.5,7.39,21.6,6.5,20.5,6.5z
	 M16,15.91c0,0.947-1.79,1.715-4,1.715s-4-0.768-4-1.715v-1.285c0,0.947,1.79,1.715,4,1.715s4-0.768,4-1.715V15.91z M16,13.41
	c0,0.947-1.79,1.715-4,1.715s-4-0.768-4-1.715v-1.285c0,0.947,1.79,1.715,4,1.715s4-0.768,4-1.715V13.41z M12,12.375
	c-2.21,0-4-0.783-4-1.75s1.79-1.75,4-1.75s4,0.783,4,1.75S14.21,12.375,12,12.375z"/>
</svg>
