<?xml version="1.0" encoding="utf-8"?>
<!-- Generator: Adobe Illustrator 15.1.0, SVG Export Plug-In . SVG Version: 6.00 Build 0)  -->
<!DOCTYPE svg PUBLIC "-//W3C//DTD SVG 1.1//EN" "http://www.w3.org/Graphics/SVG/1.1/DTD/svg11.dtd">
<svg version="1.1" id="Layer_1" xmlns="http://www.w3.org/2000/svg" xmlns:xlink="http://www.w3.org/1999/xlink" x="0px" y="0px"
	 width="24px" height="24px" viewBox="0 0 24 24" enable-background="new 0 0 24 24" xml:space="preserve">
<path d="M20.668,11.5H19.43c0.058,0.385,0.095,0.777,0.095,1.178c0,0.538-0.053,1.063-0.152,1.572h1.296v2.751h-2.402
	c-0.321,0.503-0.7,0.961-1.122,1.374h3.524v2.75h-4.001v-2.318c-0.411,0.341-0.857,0.635-1.333,0.881v1.438h-4v-0.62
	c-0.458-0.035-0.902-0.112-1.334-0.228v0.848c0,0.759,0.597,1.375,1.334,1.375h9.334c0.735,0,1.332-0.616,1.332-1.375v-8.25
	C22,12.116,21.403,11.5,20.668,11.5z"/>
<path d="M9.2,14.8h1.6v-1.6H9.2V14.8 M10,2c-4.418,0-8,3.582-8,8c0,4.419,3.582,8,8,8c4.419,0,8-3.581,8-8C18,5.582,14.419,2,10,2
	 M10,16.4c-3.528,0-6.4-2.873-6.4-6.4c0-3.528,2.872-6.4,6.4-6.4c3.527,0,6.4,2.872,6.4,6.4C16.4,13.527,13.527,16.4,10,16.4
	 M10,5.2c-1.767,0-3.2,1.433-3.2,3.2h1.6c0-0.883,0.716-1.6,1.6-1.6s1.6,0.717,1.6,1.6c0,1.6-2.399,1.4-2.399,4h1.6
	c0-1.801,2.4-2,2.4-4C13.2,6.633,11.768,5.2,10,5.2z"/>
</svg>
