<?xml version="1.0" encoding="utf-8"?>
<!-- Generator: Adobe Illustrator 15.1.0, SVG Export Plug-In . SVG Version: 6.00 Build 0)  -->
<!DOCTYPE svg PUBLIC "-//W3C//DTD SVG 1.1//EN" "http://www.w3.org/Graphics/SVG/1.1/DTD/svg11.dtd">
<svg version="1.1" id="Layer_1" xmlns="http://www.w3.org/2000/svg" xmlns:xlink="http://www.w3.org/1999/xlink" x="0px" y="0px"
	 width="24px" height="24px" viewBox="0 0 24 24" enable-background="new 0 0 24 24" xml:space="preserve">
<path d="M12,2.5C7.58,2.5,4,4.067,4,6s3.58,3.5,8,3.5s8-1.567,8-3.5S16.42,2.5,12,2.5"/>
<path d="M4,9v2.571C4,13.466,7.58,15,12,15s8-1.534,8-3.429V9c0,1.894-3.58,3.429-8,3.429S4,10.894,4,9"/>
<path d="M4,14v2.571C4,18.466,7.58,20,12,20s8-1.534,8-3.429V14c0,1.895-3.58,3.429-8,3.429S4,15.895,4,14z"/>
</svg>
