<?xml version="1.0" encoding="utf-8"?>
<!-- Generator: Adobe Illustrator 15.1.0, SVG Export Plug-In . SVG Version: 6.00 Build 0)  -->
<!DOCTYPE svg PUBLIC "-//W3C//DTD SVG 1.1//EN" "http://www.w3.org/Graphics/SVG/1.1/DTD/svg11.dtd">
<svg version="1.1" id="Layer_1" xmlns="http://www.w3.org/2000/svg" xmlns:xlink="http://www.w3.org/1999/xlink" x="0px" y="0px"
	 width="24px" height="24px" viewBox="0 0 24 24" enable-background="new 0 0 24 24" xml:space="preserve">
<path d="M10.5,17.5c-4.42,0-8-1.79-8-4v3c0,2.21,3.58,4,8,4c0.503,0,0.995-0.025,1.472-0.07c-0.708-0.813-1.196-1.82-1.382-2.932
	C10.56,17.498,10.53,17.5,10.5,17.5z"/>
<path d="M18.5,8.5c0,0.757-0.428,1.462-1.158,2.066c0.4,0.056,0.787,0.151,1.158,0.283V8.5z"/>
<ellipse cx="10.5" cy="6.5" rx="8" ry="4"/>
<path d="M10.5,12.5c-4.42,0-8-1.79-8-4v3c0,2.21,3.58,4,8,4c0.03,0,0.06-0.002,0.09-0.002c0.199-1.18,0.74-2.24,1.52-3.079
	C11.59,12.472,11.052,12.5,10.5,12.5z"/>
<path d="M16.5,11.5c-2.762,0-5,2.238-5,5s2.238,5,5,5s5-2.238,5-5S19.262,11.5,16.5,11.5z M18.537,19.5L15.5,16.896v-3.821h2V14.5
	v1.477l0,0l2.339,2.006L18.537,19.5z"/>
<polygon points="15.5,16.925 15.533,16.925 15.5,16.896 "/>
</svg>
