<?xml version="1.0" encoding="utf-8"?>
<!-- Generator: Adobe Illustrator 15.1.0, SVG Export Plug-In . SVG Version: 6.00 Build 0)  -->
<!DOCTYPE svg PUBLIC "-//W3C//DTD SVG 1.1//EN" "http://www.w3.org/Graphics/SVG/1.1/DTD/svg11.dtd">
<svg version="1.1" id="Layer_1" xmlns="http://www.w3.org/2000/svg" xmlns:xlink="http://www.w3.org/1999/xlink" x="0px" y="0px"
	 width="24px" height="24px" viewBox="-0.5 -0.5 24 24" enable-background="new -0.5 -0.5 24 24" xml:space="preserve">
<path d="M12.99,11.081c-0.158-0.636-0.721-1.001-1.26-0.82l-9.493,3.184c-0.539,0.182-0.853,0.842-0.697,1.475
	c0.127,0.523,0.536,0.865,0.977,0.865c0.095,0,0.187-0.014,0.281-0.045l9.494-3.184C12.832,12.375,13.145,11.714,12.99,11.081z"/>
<path d="M11.732,6.545L2.238,9.729c-0.54,0.181-0.853,0.841-0.697,1.474c0.126,0.525,0.535,0.867,0.976,0.867
	c0.094,0,0.186-0.016,0.28-0.047l9.494-3.183c0.542-0.182,0.854-0.843,0.7-1.476C12.834,6.73,12.269,6.366,11.732,6.545z"/>
<path d="M1.541,7.419c0.126,0.523,0.535,0.866,0.976,0.866c0.094,0,0.186-0.016,0.28-0.046l9.494-3.183
	c0.542-0.181,0.854-0.843,0.7-1.476c-0.158-0.635-0.721-1-1.26-0.819L2.237,5.943C1.698,6.124,1.385,6.785,1.541,7.419z"/>
<circle cx="11.307" cy="15.499" r="1.194"/>
<circle cx="2.694" cy="3.5" r="1.193"/>
<path d="M4.506,4.453l5.71-1.906H4.268C4.486,2.879,4.623,3.289,4.623,3.74C4.623,3.992,4.581,4.23,4.506,4.453z"/>
<path d="M9.26,14.545l-5.711,1.908H9.5c-0.22-0.334-0.358-0.742-0.358-1.195C9.142,15.008,9.186,14.768,9.26,14.545z"/>
<path d="M20.01,8.5h-5.043c0.01,0.123,0.02,0.245,0.02,0.369c0,0.767-0.18,1.52-0.506,2.213c0.326,0.693,0.506,1.445,0.506,2.213
	c0,1.094-0.346,2.105-0.932,2.939v2.59H9.588v-0.377c-0.519-0.021-1.019-0.111-1.489-0.271v0.646c0,0.814,0.667,1.478,1.489,1.478
	H20.01c0.822,0,1.49-0.662,1.49-1.478V9.974C21.5,9.16,20.832,8.5,20.01,8.5z M20.01,18.824h-4.467v-2.949h4.467V18.824z
	 M20.01,14.4h-4.467v-2.951h4.467V14.4z"/>
</svg>
