<?xml version="1.0" encoding="utf-8"?>
<!-- Generator: Adobe Illustrator 15.1.0, SVG Export Plug-In . SVG Version: 6.00 Build 0)  -->
<!DOCTYPE svg PUBLIC "-//W3C//DTD SVG 1.1//EN" "http://www.w3.org/Graphics/SVG/1.1/DTD/svg11.dtd">
<svg version="1.1" id="Layer_1" xmlns="http://www.w3.org/2000/svg" xmlns:xlink="http://www.w3.org/1999/xlink" x="0px" y="0px"
	 width="24px" height="24px" viewBox="0 0 24 24" enable-background="new 0 0 24 24" xml:space="preserve">
<path d="M12,2.625c-4.862,0-8.8,1.724-8.8,3.85s3.938,3.85,8.8,3.85c4.862,0,8.8-1.724,8.8-3.85S16.862,2.625,12,2.625"/>
<path d="M3.2,9.775v2.828c0,2.085,3.938,3.772,8.8,3.772c4.862,0,8.8-1.688,8.8-3.772V9.775c0,2.083-3.938,3.773-8.8,3.773
	C7.138,13.548,3.2,11.858,3.2,9.775"/>
<path d="M3.2,15.275v2.827c0,2.085,3.938,3.772,8.8,3.772c4.862,0,8.8-1.688,8.8-3.772v-2.827c0,2.084-3.938,3.772-8.8,3.772
	C7.138,19.048,3.2,17.359,3.2,15.275z"/>
</svg>
