<?xml version="1.0" encoding="utf-8"?>
<!-- Generator: Adobe Illustrator 15.1.0, SVG Export Plug-In . SVG Version: 6.00 Build 0)  -->
<!DOCTYPE svg PUBLIC "-//W3C//DTD SVG 1.1//EN" "http://www.w3.org/Graphics/SVG/1.1/DTD/svg11.dtd">
<svg version="1.1" id="Layer_1" xmlns="http://www.w3.org/2000/svg" xmlns:xlink="http://www.w3.org/1999/xlink" x="0px" y="0px"
	 width="24px" height="24px" viewBox="0.458 0.458 24 24" enable-background="new 0.458 0.458 24 24" xml:space="preserve">
<path d="M21.01,9.699h-5.043c0.01,0.123,0.02,0.245,0.02,0.369c0,0.767-0.18,1.52-0.506,2.213c0.326,0.693,0.506,1.445,0.506,2.213
	c0,1.094-0.346,2.105-0.932,2.939v2.59h-4.467v-0.377c-0.519-0.02-1.019-0.111-1.489-0.27v0.646c0,0.814,0.667,1.477,1.489,1.477
	H21.01c0.822,0,1.49-0.662,1.49-1.477v-8.849C22.5,10.359,21.832,9.699,21.01,9.699z M21.01,20.023h-4.467v-2.949h4.467V20.023z
	 M21.01,15.6h-4.467v-2.951h4.467V15.6z"/>
<path d="M2.5,12.9c0,3.092,2.507,5.6,5.6,5.6s5.6-2.508,5.6-5.6c0-0.832-0.191-1.649-0.543-2.4C13.509,9.749,13.7,8.932,13.7,8.1
	c0-3.093-2.507-5.6-5.6-5.6S2.5,5.007,2.5,8.1c0,0.832,0.192,1.648,0.544,2.4C2.692,11.251,2.5,12.069,2.5,12.9 M4.1,12.9
	c0-0.273,0.024-0.537,0.08-0.8c1.048,1.023,2.456,1.599,3.92,1.599s2.872-0.576,3.912-1.599c0.056,0.264,0.088,0.527,0.088,0.8
	c0,2.209-1.791,4-4,4S4.1,15.109,4.1,12.9 M4.1,8.1c0-2.21,1.791-4,4-4s4,1.79,4,4c0,0.271-0.023,0.536-0.08,0.8
	C10.972,7.877,9.564,7.3,8.1,7.3S5.228,7.877,4.188,8.9C4.132,8.636,4.1,8.372,4.1,8.1 M4.9,10.5c0.76-1.008,1.944-1.6,3.2-1.6
	s2.439,0.592,3.2,1.6c-0.761,1.008-1.944,1.6-3.2,1.6S5.66,11.508,4.9,10.5z"/>
</svg>
