<?xml version="1.0" encoding="utf-8"?>
<!-- Generator: Adobe Illustrator 15.1.0, SVG Export Plug-In . SVG Version: 6.00 Build 0)  -->
<!DOCTYPE svg PUBLIC "-//W3C//DTD SVG 1.1//EN" "http://www.w3.org/Graphics/SVG/1.1/DTD/svg11.dtd">
<svg version="1.1" id="Layer_1" xmlns="http://www.w3.org/2000/svg" xmlns:xlink="http://www.w3.org/1999/xlink" x="0px" y="0px"
	 width="24px" height="24px" viewBox="0 0 24 24" enable-background="new 0 0 24 24" xml:space="preserve">
<rect x="17" y="2" width="2" height="4"/>
<path d="M8,14c-3.309,0-6-2.691-6-6s2.691-6,6-6s6,2.691,6,6S11.309,14,8,14z M8,4C5.794,4,4,5.794,4,8s1.794,4,4,4s4-1.794,4-4
	S10.206,4,8,4z"/>
<rect x="13" y="13" width="5" height="5"/>
<polygon points="8.893,10.307 7,8.414 7,5 9,5 9,7.586 10.307,8.893 "/>
<path d="M20,4h-6.3C14.5,5.1,15,6.5,15,8c0,0.3,0,0.7-0.1,1H20v11H6v-5.3c-0.7-0.2-1.4-0.5-2-1V20c0,1.1,0.9,2,2,2h14
	c1.1,0,2-0.9,2-2V6C22,4.9,21.1,4,20,4z"/>
</svg>
