<?xml version="1.0" encoding="utf-8"?>
<!-- Generator: Adobe Illustrator 15.1.0, SVG Export Plug-In . SVG Version: 6.00 Build 0)  -->
<!DOCTYPE svg PUBLIC "-//W3C//DTD SVG 1.1//EN" "http://www.w3.org/Graphics/SVG/1.1/DTD/svg11.dtd">
<svg version="1.1" id="Layer_1" xmlns="http://www.w3.org/2000/svg" xmlns:xlink="http://www.w3.org/1999/xlink" x="0px" y="0px"
	 width="24px" height="24px" viewBox="-0.5 -0.5 24 24" enable-background="new -0.5 -0.5 24 24" xml:space="preserve">
<path d="M18.5,2.5h-1v-2h-2v2h-8v-2h-2v2h-1c-1.11,0-2,0.9-2,2v14c0,1.1,0.9,2,2,2h14c1.1,0,2-0.9,2-2v-14
	C20.5,3.4,19.6,2.5,18.5,2.5z M18.5,18.5h-14v-11h14V18.5z"/>
<polygon points="13.5,16.5 17.5,12.5 13.5,8.5 13.5,11.5 9.5,11.5 9.5,11.499 9.5,8.5 5.5,12.5 9.5,16.5 9.5,13.5 13.5,13.5 
	13.5,13.501 "/>
</svg>
