<?xml version="1.0" encoding="utf-8"?>
<!-- Generator: Adobe Illustrator 15.1.0, SVG Export Plug-In . SVG Version: 6.00 Build 0)  -->
<!DOCTYPE svg PUBLIC "-//W3C//DTD SVG 1.1//EN" "http://www.w3.org/Graphics/SVG/1.1/DTD/svg11.dtd">
<svg version="1.1" id="Layer_1" xmlns="http://www.w3.org/2000/svg" xmlns:xlink="http://www.w3.org/1999/xlink" x="0px" y="0px"
	 width="24px" height="24px" viewBox="0.5 0.5 24 24" enable-background="new 0.5 0.5 24 24" xml:space="preserve">
<g>
	<polygon fill="none" points="7.2,16.605 7.2,18.289 7.2,19.132 7.2,20.815 10.6,20.815 10.6,19.132 10.6,18.289 10.6,16.605 
		10.6,14.079 7.2,14.079 	"/>
	<polygon fill="none" points="12.3,16.605 12.3,18.289 12.3,19.132 12.3,20.815 15.7,20.815 15.7,19.132 15.7,18.289 15.7,16.605 
		15.7,14.079 12.3,14.079 	"/>
	<polygon fill="none" points="12.3,11.553 12.3,12.395 15.7,12.395 15.7,11.553 15.7,9.869 12.3,9.869 	"/>
	<polygon fill="none" points="7.2,11.553 7.2,12.395 10.6,12.395 10.6,11.553 10.6,9.869 7.2,9.869 	"/>
	<polygon fill="none" points="17.4,11.553 17.4,12.395 20.8,12.395 20.8,11.553 20.8,9.869 17.4,9.869 	"/>
	<polygon fill="none" points="17.4,16.605 17.4,18.289 17.4,19.132 17.4,20.815 20.8,20.815 20.8,19.132 20.8,18.289 20.8,16.605 
		20.8,14.079 17.4,14.079 	"/>
	<path d="M20.8,6.5H7.2c-0.935,0-1.7,0.758-1.7,1.684v12.631c0,0.927,0.766,1.685,1.7,1.685h13.6c0.935,0,1.7-0.758,1.7-1.685V8.184
		C22.5,7.258,21.734,6.5,20.8,6.5z M10.6,16.605v1.684v0.843v1.684H7.2v-1.684v-0.843v-1.684v-2.526H10.6V16.605z M10.6,11.553
		v0.842H7.2v-0.842V9.869H10.6V11.553z M15.7,16.605v1.684v0.843v1.684h-3.4v-1.684v-0.843v-1.684v-2.526h3.4V16.605z M15.7,11.553
		v0.842h-3.4v-0.842V9.869h3.4V11.553z M20.8,16.605v1.684v0.843v1.684H17.4v-1.684v-0.843v-1.684v-2.526H20.8V16.605z M20.8,11.553
		v0.842H17.4v-0.842V9.869H20.8V11.553z"/>
</g>
<path d="M19.5,4.184c0-0.926-0.766-1.684-1.7-1.684H4.2c-0.935,0-1.7,0.758-1.7,1.684v12.631c0,0.859,0.66,1.564,1.5,1.664V4.25h14
	v2.208h1.5V4.184z"/>
<path d="M18,18.479c0.033-0.004,0.064-0.015,0.097-0.021H18V18.479z"/>
</svg>
