<?xml version="1.0" encoding="utf-8"?>
<!-- Generator: Adobe Illustrator 15.1.0, SVG Export Plug-In . SVG Version: 6.00 Build 0)  -->
<!DOCTYPE svg PUBLIC "-//W3C//DTD SVG 1.1//EN" "http://www.w3.org/Graphics/SVG/1.1/DTD/svg11.dtd">
<svg version="1.1" id="Layer_1" xmlns="http://www.w3.org/2000/svg" xmlns:xlink="http://www.w3.org/1999/xlink" x="0px" y="0px"
	 width="24px" height="24px" viewBox="-0.5 -0.5 24 24" enable-background="new -0.5 -0.5 24 24" xml:space="preserve">
<g>
	<polygon fill="none" points="4.3,13.868 4.3,15.763 4.3,16.711 4.3,18.605 7.9,18.605 7.9,16.711 7.9,15.763 7.9,13.868 
		7.9,11.026 4.3,11.026 	"/>
	<polygon fill="none" points="9.7,13.868 9.7,15.763 9.7,16.711 9.7,18.605 13.301,18.605 13.301,16.711 13.301,15.763 
		13.301,13.868 13.301,11.026 9.7,11.026 	"/>
	<polygon fill="none" points="9.7,8.184 9.7,9.131 13.301,9.131 13.301,8.184 13.301,6.29 9.7,6.29 	"/>
	<polygon fill="none" points="4.3,8.184 4.3,9.131 7.9,9.131 7.9,8.184 7.9,6.29 4.3,6.29 	"/>
	<polygon fill="none" points="15.1,8.184 15.1,9.131 18.699,9.131 18.699,8.184 18.699,6.29 15.1,6.29 	"/>
	<polygon fill="none" points="15.1,13.868 15.1,15.763 15.1,16.711 15.1,18.605 18.699,18.605 18.699,16.711 18.699,15.763 
		18.699,13.868 18.699,11.026 15.1,11.026 	"/>
	<path d="M18.699,2.5H4.3c-0.99,0-1.8,0.853-1.8,1.895v14.211c0,1.042,0.81,1.895,1.8,1.895h14.399c0.99,0,1.801-0.853,1.801-1.895
		V4.395C20.5,3.353,19.689,2.5,18.699,2.5z M7.9,13.868v1.895v0.948v1.895H4.3v-1.895v-0.948v-1.895v-2.842H7.9V13.868z M7.9,8.184
		v0.947H4.3V8.184V6.29H7.9V8.184z M13.301,13.868v1.895v0.948v1.895H9.7v-1.895v-0.948v-1.895v-2.842h3.601V13.868z M13.301,8.184
		v0.947H9.7V8.184V6.29h3.601V8.184z M18.699,13.868v1.895v0.948v1.895h-3.6v-1.895v-0.948v-1.895v-2.842h3.6V13.868z M18.699,8.184
		v0.947h-3.6V8.184V6.29h3.6V8.184z"/>
</g>
</svg>
