<?xml version="1.0" encoding="UTF-8" standalone="no"?>
<svg
   xmlns:dc="http://purl.org/dc/elements/1.1/"
   xmlns:cc="http://creativecommons.org/ns#"
   xmlns:rdf="http://www.w3.org/1999/02/22-rdf-syntax-ns#"
   xmlns:svg="http://www.w3.org/2000/svg"
   xmlns="http://www.w3.org/2000/svg"
   xmlns:sodipodi="http://sodipodi.sourceforge.net/DTD/sodipodi-0.dtd"
   xmlns:inkscape="http://www.inkscape.org/namespaces/inkscape"
   version="1.1"
   width="24"
   height="24"
   viewBox="0 0 24 24"
   id="svg6322"
   sodipodi:docname="delete-relation.svg"
   inkscape:version="0.92.3 (2405546, 2018-03-11)">
  <metadata
     id="metadata6328">
    <rdf:RDF>
      <cc:Work
         rdf:about="">
        <dc:format>image/svg+xml</dc:format>
        <dc:type
           rdf:resource="http://purl.org/dc/dcmitype/StillImage" />
        <dc:title></dc:title>
      </cc:Work>
    </rdf:RDF>
  </metadata>
  <defs
     id="defs6326" />
  <sodipodi:namedview
     pagecolor="#ffffff"
     bordercolor="#666666"
     borderopacity="1"
     objecttolerance="10"
     gridtolerance="10"
     guidetolerance="10"
     inkscape:pageopacity="0"
     inkscape:pageshadow="2"
     inkscape:window-width="1920"
     inkscape:window-height="1017"
     id="namedview6324"
     showgrid="false"
     inkscape:zoom="1"
     inkscape:cx="12"
     inkscape:cy="12"
     inkscape:window-x="3832"
     inkscape:window-y="-8"
     inkscape:window-maximized="1"
     inkscape:current-layer="svg6322" />
  <path
     d="m 16.867924,6.0849056 v 4.2219354 l -6.815803,6.8158 H 5.8301887 v 5.518869 h 5.5188683 v -4.212737 l 6.825,-6.824998 h 4.212736 V 6.0849056 m -3.679246,1.8396227 h 1.839625 V 9.7641517 H 18.707547 M 7.6698118,18.962266 h 1.8396204 v 1.839621 H 7.6698118"
     id="path6320"
     inkscape:connector-curvature="0"
     style="stroke-width:0.91981131" />
  <path
     id="path6396"
     d="m 8.1509432,12.958491 c -2.525349,0 -4.5811323,-2.055783 -4.5811323,-4.5811325 0,-2.5253491 2.0557833,-4.5811321 4.5811323,-4.5811321 2.5253488,0 4.5811318,2.055783 4.5811318,4.5811321 0,2.5253495 -2.055783,4.5811325 -4.5811318,4.5811325 m 0,-10.3075476 c -3.1667077,0 -5.7264152,2.5597076 -5.7264152,5.7264151 0,3.1667085 2.5597075,5.7264155 5.7264152,5.7264155 3.1661348,0 5.7264148,-2.559707 5.7264148,-5.7264155 0,-3.1667075 -2.56028,-5.7264151 -5.7264148,-5.7264151 M 9.6340847,6.0867925 8.1509432,7.569934 6.6678017,6.0867925 5.8603772,6.894217 7.3435187,8.3773585 5.8603772,9.8605002 6.6678017,10.667925 8.1509432,9.1847832 9.6340847,10.667925 10.44151,9.8605002 8.9583677,8.3773585 10.44151,6.894217 Z"
     inkscape:connector-curvature="0"
     style="stroke-width:0.57264155" />
</svg>
