<?xml version="1.0" encoding="utf-8"?>
<!-- Generator: Adobe Illustrator 15.1.0, SVG Export Plug-In . SVG Version: 6.00 Build 0)  -->
<!DOCTYPE svg PUBLIC "-//W3C//DTD SVG 1.1//EN" "http://www.w3.org/Graphics/SVG/1.1/DTD/svg11.dtd">
<svg version="1.1" id="Layer_1" xmlns="http://www.w3.org/2000/svg" xmlns:xlink="http://www.w3.org/1999/xlink" x="0px" y="0px"
	 width="24px" height="24px" viewBox="0.5 0.5 24 24" enable-background="new 0.5 0.5 24 24" xml:space="preserve">
<path d="M13.5,13v9h9v-9H13.5z M20.004,20.057h-4.079v-1.244l0.7-0.646c0.959-0.892,1.418-1.385,1.422-1.783
	c0-0.177-0.045-0.258-0.313-0.258c-0.209,0-0.422,0.088-0.674,0.276l-0.518,0.392L15.9,15.24l0.291-0.234
	c0.457-0.369,1.082-0.58,1.717-0.58c1.177,0,1.999,0.772,1.999,1.879c0,0.805-0.447,1.454-1.009,2.036h1.104L20.004,20.057
	L20.004,20.057L20.004,20.057z"/>
<path d="M18,2c-2.5,0-4.5,2-4.5,4.5s2,4.5,4.5,4.5s4.5-2,4.5-4.5S20.5,2,18,2z M19.109,9.055h-1.832V5.586l-0.693,0.35l-0.377-1.662
	l1.572-0.771h1.33V9.055z"/>
<polygon points="8.286,17.5 11.5,17.5 7,21 2.5,17.5 5.714,17.5 5.714,7.5 2.5,7.5 7,4 11.5,7.5 8.286,7.5 "/>
</svg>
