<?xml version="1.0" encoding="UTF-8" standalone="no"?>
<!-- Generator: Adobe Illustrator 15.1.0, SVG Export Plug-In . SVG Version: 6.00 Build 0)  -->

<svg
   xmlns:dc="http://purl.org/dc/elements/1.1/"
   xmlns:cc="http://creativecommons.org/ns#"
   xmlns:rdf="http://www.w3.org/1999/02/22-rdf-syntax-ns#"
   xmlns:svg="http://www.w3.org/2000/svg"
   xmlns="http://www.w3.org/2000/svg"
   xmlns:sodipodi="http://sodipodi.sourceforge.net/DTD/sodipodi-0.dtd"
   xmlns:inkscape="http://www.inkscape.org/namespaces/inkscape"
   version="1.1"
   id="Layer_1"
   x="0px"
   y="0px"
   width="24px"
   height="24px"
   viewBox="1.5 0.5 24 24"
   enable-background="new 1.5 0.5 24 24"
   xml:space="preserve"
   sodipodi:docname="distribute-middle.svg"
   inkscape:version="0.92.3 (2405546, 2018-03-11)"><metadata
   id="metadata1095"><rdf:RDF><cc:Work
       rdf:about=""><dc:format>image/svg+xml</dc:format><dc:type
         rdf:resource="http://purl.org/dc/dcmitype/StillImage" /><dc:title></dc:title></cc:Work></rdf:RDF></metadata><defs
   id="defs1093" /><sodipodi:namedview
   pagecolor="#ffffff"
   bordercolor="#666666"
   borderopacity="1"
   objecttolerance="10"
   gridtolerance="10"
   guidetolerance="10"
   inkscape:pageopacity="0"
   inkscape:pageshadow="2"
   inkscape:window-width="1468"
   inkscape:window-height="917"
   id="namedview1091"
   showgrid="false"
   inkscape:zoom="31.166667"
   inkscape:cx="12"
   inkscape:cy="12"
   inkscape:window-x="2134"
   inkscape:window-y="247"
   inkscape:window-maximized="0"
   inkscape:current-layer="Layer_1" />

<g
   id="g1867"
   transform="rotate(90,13.35089,12.428897)"><path
     sodipodi:nodetypes="cccccccccccccccccccc"
     style="stroke-width:0.64135373"
     inkscape:connector-curvature="0"
     d="m 15.558273,6.0090808 -4.160352,0.00622 0.0027,1.779658 -2.7771103,-2.3687331 2.7700193,-2.3770236 0.0027,1.77966 4.160352,-0.00622 -0.0027,-1.77966 2.777112,2.3687351 -2.770021,2.3770216 -0.0027,-1.779658 m 4.845684,-5.3462306 0.01418,9.4915148 v 0 l -0.01418,-9.4915148 v 0 m -13.8678323,0.020722 0.01418,9.4915158 v 0 z"
     id="path1671" /><rect
     transform="matrix(0.00139862,0.99999902,-0.99999873,0.00159634,0,0)"
     style="stroke-width:0.94723052"
     x="1.1375474"
     y="-8.1853714"
     width="23.069061"
     height="0.89331722"
     id="rect1753" /><g
     transform="matrix(4.6852389e-4,0.31355897,-0.31355897,4.6852389e-4,9.6520575,11.528921)"
     id="g1088-1-3"><polygon
       style="fill:none"
       id="polygon1084-4-9"
       points="21.276,4.723 5.724,4.723 5.724,20.276 21.276,20.276 21.276,11.388 " /><path
       style="stroke-width:1.60880911"
       inkscape:connector-curvature="0"
       id="path1086-8-6"
       d="m 35.676183,4.6229132 v 0 l -0.0016,-10.7227136 c 0,-1.9772255 -1.600765,-3.5779907 -3.576383,-3.5779907 H 24.951861 7.0779915 v 0 c -0.028959,0 -0.056308,0.00804 -0.085266,0.00804 -1.668335,0.040216 -3.0358229,1.2001715 -3.3929784,2.7639331 C 3.5386115,-6.6467955 3.5,-6.3781244 3.5,-6.0998004 V 8.1976871 H 3.50161 V 18.922009 C 3.50161,20.899235 5.1023751,22.5 7.0779927,22.5 H 14.224321 32.09819 c 1.737514,0 3.172572,-1.219477 3.503986,-2.852418 0.04826,-0.234886 0.074,-0.476208 0.074,-0.723964 z M 7.0779915,18.922009 V -6.0998004 H 32.098191 V 4.6229132 18.922009 Z" /></g><rect
     transform="rotate(89.914388)"
     style="stroke-width:0.91643018"
     x="1.1196934"
     y="-19.585131"
     width="21.593218"
     height="0.8933171"
     id="rect1753-4" /><g
     transform="matrix(4.6852389e-4,0.31355897,-0.31355897,4.6852389e-4,21.051887,7.494869)"
     id="g1088-1-3-9"><polygon
       style="fill:none"
       id="polygon1084-4-9-7"
       points="5.724,20.276 21.276,20.276 21.276,11.388 21.276,4.723 5.724,4.723 " /><path
       style="stroke-width:1.60880911"
       inkscape:connector-curvature="0"
       id="path1086-8-6-8"
       d="m 35.676183,4.6229132 v 0 l -0.0016,-10.7227136 c 0,-1.9772255 -1.600765,-3.5779907 -3.576383,-3.5779907 H 24.951861 7.0779915 v 0 c -0.028959,0 -0.056308,0.00804 -0.085266,0.00804 -1.668335,0.040216 -3.0358229,1.2001715 -3.3929784,2.7639331 C 3.5386115,-6.6467955 3.5,-6.3781244 3.5,-6.0998004 V 8.1976871 H 3.50161 V 18.922009 C 3.50161,20.899235 5.1023751,22.5 7.0779927,22.5 H 14.224321 32.09819 c 1.737514,0 3.172572,-1.219477 3.503986,-2.852418 0.04826,-0.234886 0.074,-0.476208 0.074,-0.723964 z M 7.0779915,18.922009 V -6.0998004 H 32.098191 V 4.6229132 18.922009 Z" /></g></g></svg>