<?xml version="1.0" encoding="utf-8"?>
<!-- Generator: Adobe Illustrator 15.1.0, SVG Export Plug-In . SVG Version: 6.00 Build 0)  -->
<!DOCTYPE svg PUBLIC "-//W3C//DTD SVG 1.1//EN" "http://www.w3.org/Graphics/SVG/1.1/DTD/svg11.dtd">
<svg version="1.1" id="Layer_1" xmlns="http://www.w3.org/2000/svg" xmlns:xlink="http://www.w3.org/1999/xlink" x="0px" y="0px"
	 width="24px" height="24px" viewBox="-0.5 -0.5 24 24" enable-background="new -0.5 -0.5 24 24" xml:space="preserve">
<rect x="9.5" y="13.5" width="4" height="4"/>
<rect x="9.5" y="-0.5" width="4" height="3"/>
<rect x="9.5" y="20.5" width="4" height="3"/>
<rect x="9.5" y="6.5" width="4" height="3"/>
<path d="M17.5,11.5c0,1.654-2.691,3-6,3c-3.307,0-6-1.346-6-3s2.693-3,6-3C14.809,8.5,17.5,9.846,17.5,11.5z M9.5,11.5
	c0,0.551,0.898,1,2,1c1.104,0,2-0.449,2-1c0-0.552-0.896-1-2-1C10.398,10.5,9.5,10.948,9.5,11.5z"/>
<path d="M17.5,18.5c0,1.653-2.691,3-6,3c-3.308,0-6-1.347-6-3s2.692-3,6-3C14.809,15.5,17.5,16.847,17.5,18.5z M9.5,18.5
	c0,0.551,0.898,1,2,1c1.104,0,2.001-0.449,2.001-1s-0.897-1-2.001-1C10.398,17.5,9.5,17.949,9.5,18.5z"/>
<path d="M17.5,4.5c0,1.654-2.691,3-6,3c-3.307,0-6-1.346-6-3s2.693-3,6-3C14.809,1.5,17.5,2.846,17.5,4.5z M9.5,4.5
	c0,0.552,0.898,1,2,1c1.104,0,2-0.448,2-1s-0.896-1-2-1C10.398,3.5,9.5,3.948,9.5,4.5z"/>
</svg>
