<?xml version="1.0" encoding="utf-8"?>
<!-- Generator: Adobe Illustrator 15.1.0, SVG Export Plug-In . SVG Version: 6.00 Build 0)  -->
<!DOCTYPE svg PUBLIC "-//W3C//DTD SVG 1.1//EN" "http://www.w3.org/Graphics/SVG/1.1/DTD/svg11.dtd">
<svg version="1.1" id="Layer_1" xmlns="http://www.w3.org/2000/svg" xmlns:xlink="http://www.w3.org/1999/xlink" x="0px" y="0px"
	 width="24px" height="24px" viewBox="-0.5 -0.5 24 24" enable-background="new -0.5 -0.5 24 24" xml:space="preserve">
<rect x="5.5" y="9.5" width="4" height="4"/>
<rect x="20.5" y="9.5" width="3" height="4"/>
<rect x="-0.5" y="9.5" width="3" height="4"/>
<rect x="13.5" y="9.5" width="3" height="4"/>
<path d="M11.5,17.5c-1.654,0-3-2.691-3-6c0-3.307,1.346-6,3-6c1.654,0,3,2.693,3,6C14.5,14.809,13.154,17.5,11.5,17.5z M11.5,9.5
	c-0.551,0-1,0.898-1,2c0,1.104,0.449,2,1,2c0.552,0,1-0.896,1-2C12.5,10.398,12.052,9.5,11.5,9.5z"/>
<path d="M4.5,17.5c-1.653,0-3-2.691-3-6c0-3.308,1.347-6,3-6s3,2.692,3,6C7.5,14.809,6.153,17.5,4.5,17.5z M4.5,9.5
	c-0.551,0-1,0.898-1,2c0,1.104,0.449,2.001,1,2.001s1-0.897,1-2.001C5.5,10.398,5.051,9.5,4.5,9.5z"/>
<path d="M18.5,17.5c-1.654,0-3-2.691-3-6c0-3.307,1.346-6,3-6s3,2.693,3,6C21.5,14.809,20.154,17.5,18.5,17.5z M18.5,9.5
	c-0.552,0-1,0.898-1,2c0,1.104,0.448,2,1,2s1-0.896,1-2C19.5,10.398,19.052,9.5,18.5,9.5z"/>
</svg>
