<?xml version="1.0" encoding="utf-8"?>
<!-- Generator: Adobe Illustrator 15.1.0, SVG Export Plug-In . SVG Version: 6.00 Build 0)  -->
<!DOCTYPE svg PUBLIC "-//W3C//DTD SVG 1.1//EN" "http://www.w3.org/Graphics/SVG/1.1/DTD/svg11.dtd">
<svg version="1.1" id="Layer_1" xmlns="http://www.w3.org/2000/svg" xmlns:xlink="http://www.w3.org/1999/xlink" x="0px" y="0px"
	 width="24px" height="24px" viewBox="-0.5 -0.5 24 24" enable-background="new -0.5 -0.5 24 24" xml:space="preserve">
<path d="M2.5,2.98v-1.38h7.699v1.381c0,0.938-0.76,1.699-1.699,1.699L4.199,4.68C3.261,4.681,2.5,3.919,2.5,2.98z"/>
<polygon points="4.842,11.563 4.842,13.104 7.921,11.563 7.921,10.024 "/>
<polygon points="7.922,13.023 4.842,14.564 4.842,16.105 7.922,14.564 "/>
<polygon points="7.922,16.165 4.842,17.705 4.842,18.09 6.35,20.464 7.922,18.09 "/>
<polygon points="4.842,9.979 7.921,8.438 7.928,4.649 4.85,4.649 "/>
<polyline points="13.44,2.564 16.5,5.654 19.56,2.564 20.5,3.516 16.5,7.564 12.5,3.516 13.44,2.564 "/>
<polyline points="13.44,7.564 16.5,10.654 19.56,7.564 20.5,8.516 16.5,12.564 12.5,8.516 13.44,7.564 "/>
<polyline points="13.44,12.564 16.5,15.654 19.56,12.564 20.5,13.516 16.5,17.564 12.5,13.516 13.44,12.564 "/>
</svg>
