<?xml version="1.0" encoding="utf-8"?>
<!-- Generator: Adobe Illustrator 15.1.0, SVG Export Plug-In . SVG Version: 6.00 Build 0)  -->
<!DOCTYPE svg PUBLIC "-//W3C//DTD SVG 1.1//EN" "http://www.w3.org/Graphics/SVG/1.1/DTD/svg11.dtd">
<svg version="1.1" id="Layer_1" xmlns="http://www.w3.org/2000/svg" xmlns:xlink="http://www.w3.org/1999/xlink" x="0px" y="0px"
	 width="24px" height="24px" viewBox="-0.5 -0.5 24 24" enable-background="new -0.5 -0.5 24 24" xml:space="preserve">
<path d="M4.199,17.385L8.5,17.384c0.939,0,1.699,0.762,1.699,1.699v1.381H2.5v-1.38C2.5,18.146,3.261,17.384,4.199,17.385z"/>
<polygon points="7.921,12.04 7.921,10.501 4.842,8.96 4.842,10.502 "/>
<polygon points="7.922,7.5 4.842,5.959 4.842,7.5 7.922,9.041 "/>
<polygon points="7.922,3.975 6.35,1.601 4.842,3.975 4.842,4.359 7.922,5.899 "/>
<polygon points="4.85,17.415 7.928,17.415 7.921,13.626 4.842,12.085 "/>
<polyline points="13.44,19.5 12.5,18.549 16.5,14.5 20.5,18.549 19.56,19.5 16.5,16.41 13.44,19.5 "/>
<polyline points="13.44,14.5 12.5,13.549 16.5,9.5 20.5,13.549 19.56,14.5 16.5,11.41 13.44,14.5 "/>
<polyline points="13.44,9.5 12.5,8.549 16.5,4.5 20.5,8.549 19.56,9.5 16.5,6.41 13.44,9.5 "/>
</svg>
