<?xml version="1.0" encoding="utf-8"?>
<!-- Generator: Adobe Illustrator 15.1.0, SVG Export Plug-In . SVG Version: 6.00 Build 0)  -->
<!DOCTYPE svg PUBLIC "-//W3C//DTD SVG 1.1//EN" "http://www.w3.org/Graphics/SVG/1.1/DTD/svg11.dtd">
<svg version="1.1" id="Layer_1" xmlns="http://www.w3.org/2000/svg" xmlns:xlink="http://www.w3.org/1999/xlink" x="0px" y="0px"
	 width="24px" height="24px" viewBox="0 0 24 24" enable-background="new 0 0 24 24" xml:space="preserve">
<g>
	<g>
		<path d="M1.98,3.948v-1.38H9.68v1.381c0,0.938-0.76,1.699-1.699,1.699H3.68C2.742,5.649,1.98,4.887,1.98,3.948z"/>
		<polygon points="4.322,12.531 4.322,14.071 7.401,12.531 7.401,10.992 		"/>
		<polygon points="7.402,13.991 4.322,15.532 4.322,17.073 7.402,15.532 		"/>
		<polygon points="7.402,17.133 4.322,18.673 4.322,19.058 5.831,21.432 7.402,19.058 		"/>
		<polygon points="4.322,10.947 7.401,9.406 7.409,5.617 4.331,5.617 		"/>
	</g>
	<path d="M10.68,5.52v1.24h0.056l3.724,3.661v4.339l3.78,3.721v-8.052L21.97,6.76h0.05V5.52H10.68z M17.036,9.858h-0.058v5.626
		l-1.258-1.238V9.858h-0.052L12.52,6.76h7.666L17.036,9.858z"/>
</g>
</svg>
