<?xml version="1.0" encoding="utf-8"?>
<!-- Generator: Adobe Illustrator 15.1.0, SVG Export Plug-In . SVG Version: 6.00 Build 0)  -->
<!DOCTYPE svg PUBLIC "-//W3C//DTD SVG 1.1//EN" "http://www.w3.org/Graphics/SVG/1.1/DTD/svg11.dtd">
<svg version="1.1" id="Layer_1" xmlns="http://www.w3.org/2000/svg" xmlns:xlink="http://www.w3.org/1999/xlink" x="0px" y="0px"
	 width="24px" height="24px" viewBox="0 0 24 24" enable-background="new 0 0 24 24" xml:space="preserve">
<g>
	<g>
		<path d="M3.864,18.353l4.301-0.001c0.939,0,1.699,0.763,1.699,1.699v1.381H2.165v-1.38C2.165,19.114,2.926,18.352,3.864,18.353z"
			/>
		<polygon points="7.586,13.008 7.586,11.469 4.507,9.928 4.507,11.47 		"/>
		<polygon points="7.587,8.468 4.507,6.927 4.507,8.468 7.587,10.009 		"/>
		<polygon points="7.587,4.942 6.015,2.568 4.507,4.942 4.507,5.326 7.587,6.866 		"/>
		<polygon points="4.515,18.383 7.593,18.383 7.586,14.594 4.507,13.053 		"/>
	</g>
	<path d="M10.495,5.52v1.24h0.056l3.724,3.661v4.339l3.78,3.721v-8.052l3.729-3.669h0.05V5.52H10.495z M16.852,9.858h-0.058v5.626
		l-1.258-1.238V9.858h-0.052L12.335,6.76h7.666L16.852,9.858z"/>
</g>
</svg>
