<?xml version="1.0" encoding="utf-8"?>
<!-- Generator: Adobe Illustrator 15.1.0, SVG Export Plug-In . SVG Version: 6.00 Build 0)  -->
<!DOCTYPE svg PUBLIC "-//W3C//DTD SVG 1.1//EN" "http://www.w3.org/Graphics/SVG/1.1/DTD/svg11.dtd">
<svg version="1.1" id="Layer_1" xmlns="http://www.w3.org/2000/svg" xmlns:xlink="http://www.w3.org/1999/xlink" x="0px" y="0px"
	 width="24px" height="24px" viewBox="0 0 24 24" enable-background="new 0 0 24 24" xml:space="preserve">
<polygon points="15.657,15.16 8.345,16.701 8.345,18.242 15.657,16.701 "/>
<polygon points="15.657,18.301 8.345,19.842 8.345,20.227 11.926,22.6 15.657,20.227 "/>
<polygon points="1.228,1.401 1.228,3.13 1.322,3.13 8.407,8.247 8.407,14.348 10.805,13.646 10.805,7.452 10.695,7.452 4.712,3.13 
	19.277,3.13 13.295,7.452 13.195,7.452 13.195,12.943 15.593,12.24 15.593,8.235 22.665,3.13 22.773,3.13 22.773,1.401 "/>
<polygon points="8.345,13.779 8.345,15.32 15.658,13.779 15.658,12.24 "/>
<rect x="3.75" y="2.01" width="16.167" height="1.063"/>
</svg>
