<?xml version="1.0" encoding="utf-8"?>
<!-- Generator: Adobe Illustrator 15.1.0, SVG Export Plug-In . SVG Version: 6.00 Build 0)  -->
<!DOCTYPE svg PUBLIC "-//W3C//DTD SVG 1.1//EN" "http://www.w3.org/Graphics/SVG/1.1/DTD/svg11.dtd">
<svg version="1.1" id="Layer_1" xmlns="http://www.w3.org/2000/svg" xmlns:xlink="http://www.w3.org/1999/xlink" x="0px" y="0px"
	 width="24px" height="24px" viewBox="0 0 24 24" enable-background="new 0 0 24 24" xml:space="preserve">
<path d="M20,13H4c-1.103,0-2-0.897-2-2V3c0-1.103,0.897-2,2-2h16c1.103,0,2,0.897,2,2v8C22,12.103,21.103,13,20,13z M20,11v1V11
	L20,11L20,11z M4,3v8h15.997L20,3H4z"/>
<path d="M10.093,11.091H4V2.909h6.093c0.958,0,1.741,0.9,1.741,2v4.182C11.833,10.191,11.05,11.091,10.093,11.091z"/>
<polygon id="XMLID_3_" points="19,4.5 16,9.5 13,4.5 "/>
<rect x="2" y="20" width="20" height="2"/>
<rect x="2" y="16" width="20" height="2"/>
</svg>
