<?xml version="1.0" encoding="utf-8"?>
<!-- Generator: Adobe Illustrator 15.1.0, SVG Export Plug-In . SVG Version: 6.00 Build 0)  -->
<!DOCTYPE svg PUBLIC "-//W3C//DTD SVG 1.1//EN" "http://www.w3.org/Graphics/SVG/1.1/DTD/svg11.dtd">
<svg version="1.1" id="Layer_1" xmlns="http://www.w3.org/2000/svg" xmlns:xlink="http://www.w3.org/1999/xlink" x="0px" y="0px"
	 width="24px" height="24px" viewBox="-0.5 -0.5 24 24" enable-background="new -0.5 -0.5 24 24" xml:space="preserve">
<g>
	<polygon fill="none" points="7,17.125 7,19 8.875,19 14.405,13.466 12.53,11.591 	"/>
	<path fill="none" d="M14.684,10.146c-0.185-0.195-0.509-0.195-0.704,0l-0.92,0.915l1.874,1.874l0.92-0.914
		c0.195-0.196,0.195-0.521,0-0.706L14.684,10.146z"/>
	<polygon fill="none" points="12.5,8.5 18,8.5 12.5,3 	"/>
	<path d="M13.5,1.5h-8c-1.1,0-2,0.9-2,2v16c0,1.1,0.9,2,2,2h12c1.1,0,2-0.9,2-2v-12L13.5,1.5z M8.875,19H7v-1.875l5.53-5.534
		l1.875,1.875L8.875,19z M15.854,12.021l-0.92,0.914l-1.874-1.874l0.92-0.915c0.195-0.195,0.52-0.195,0.704,0l1.17,1.169
		C16.049,11.501,16.049,11.826,15.854,12.021z M12.5,8.5V3L18,8.5H12.5z"/>
</g>
<text transform="matrix(1 0 0 1 7.5 15.5)" font-family="'MyriadPro-Regular'" font-size="12"> </text>
</svg>
