<?xml version="1.0" encoding="utf-8"?>
<!-- Generator: Adobe Illustrator 15.1.0, SVG Export Plug-In . SVG Version: 6.00 Build 0)  -->
<!DOCTYPE svg PUBLIC "-//W3C//DTD SVG 1.1//EN" "http://www.w3.org/Graphics/SVG/1.1/DTD/svg11.dtd">
<svg version="1.1" id="Layer_1" xmlns="http://www.w3.org/2000/svg" xmlns:xlink="http://www.w3.org/1999/xlink" x="0px" y="0px"
	 width="24px" height="24px" viewBox="0 0 24 24" enable-background="new 0 0 24 24" xml:space="preserve">
<path d="M21,11V4c0-1.104-0.895-2-2-2H5C3.896,2,3,2.896,3,4v12c0,1.104,0.896,2,2,2h7v-7H21z M13,6h6v4h-6V6z M11,16H5v-4h6V16z
	 M11,10H5V6h6V10z"/>
<polyline points="18,12.5 16.596,15.938 13.5,17.501 16.596,19.063 18,22.5 19.407,19.063 22.5,17.501 19.407,15.938 "/>
</svg>
