<?xml version="1.0" encoding="utf-8"?>
<!-- Generator: Adobe Illustrator 15.1.0, SVG Export Plug-In . SVG Version: 6.00 Build 0)  -->
<!DOCTYPE svg PUBLIC "-//W3C//DTD SVG 1.1//EN" "http://www.w3.org/Graphics/SVG/1.1/DTD/svg11.dtd">
<svg version="1.1" id="Layer_1" xmlns="http://www.w3.org/2000/svg" xmlns:xlink="http://www.w3.org/1999/xlink" x="0px" y="0px"
	 width="24px" height="24px" viewBox="-0.5 -0.5 24 24" enable-background="new -0.5 -0.5 24 24" xml:space="preserve">
<circle cx="9.5" cy="5.5" r="4"/>
<path d="M11.284,11.632c-0.553-0.08-1.14-0.132-1.784-0.132c-6.1,0-8,4-8,4v2h8.816C10.113,16.869,10,16.198,10,15.5
	C10,14.049,10.481,12.714,11.284,11.632z"/>
<path d="M17.002,17.425c-1.094,0-1.979-0.862-1.979-1.925s0.885-1.924,1.979-1.924c1.093,0,1.978,0.861,1.978,1.924
	S18.095,17.425,17.002,17.425 M21.202,16.033c0.022-0.176,0.04-0.352,0.04-0.533s-0.018-0.363-0.04-0.55l1.193-0.896
	c0.107-0.085,0.136-0.231,0.068-0.353l-1.131-1.904c-0.069-0.121-0.222-0.17-0.345-0.121l-1.408,0.55
	c-0.294-0.214-0.601-0.402-0.955-0.539l-0.21-1.458C18.393,10.099,18.273,10,18.133,10H15.87c-0.14,0-0.26,0.099-0.282,0.23
	l-0.209,1.458c-0.355,0.137-0.663,0.325-0.957,0.539l-1.407-0.55c-0.124-0.049-0.276,0-0.345,0.121l-1.131,1.904
	c-0.073,0.121-0.039,0.268,0.068,0.353L12.8,14.95c-0.022,0.187-0.04,0.368-0.04,0.55s0.018,0.357,0.04,0.533l-1.192,0.913
	c-0.107,0.084-0.142,0.23-0.068,0.353l1.131,1.903c0.068,0.121,0.221,0.165,0.345,0.121l1.407-0.557
	c0.294,0.221,0.602,0.407,0.957,0.544l0.209,1.458C15.61,20.901,15.73,21,15.87,21h2.263c0.141,0,0.26-0.099,0.282-0.231l0.21-1.458
	c0.354-0.142,0.661-0.323,0.955-0.544l1.408,0.557c0.123,0.044,0.275,0,0.345-0.121l1.131-1.903
	c0.067-0.122,0.039-0.269-0.068-0.353L21.202,16.033z"/>
</svg>
