<?xml version="1.0" encoding="utf-8"?>
<!-- Generator: Adobe Illustrator 15.1.0, SVG Export Plug-In . SVG Version: 6.00 Build 0)  -->
<!DOCTYPE svg PUBLIC "-//W3C//DTD SVG 1.1//EN" "http://www.w3.org/Graphics/SVG/1.1/DTD/svg11.dtd">
<svg version="1.1" id="Layer_1" xmlns="http://www.w3.org/2000/svg" xmlns:xlink="http://www.w3.org/1999/xlink" x="0px" y="0px"
	 width="48px" height="48px" viewBox="0 0 48 48" enable-background="new 0 0 48 48" xml:space="preserve">
<path d="M31,32.414L15.586,17L26.293,6.293C27.159,5.427,28.298,4.95,29.5,4.95s2.341,0.477,3.207,1.343l9,9
	c0.866,0.866,1.344,2.005,1.344,3.207s-0.478,2.341-1.344,3.207L31,32.414z M18.414,17L31,29.586l9.293-9.293
	c0.488-0.488,0.758-1.125,0.758-1.793s-0.27-1.305-0.758-1.793l-9-9c-0.977-0.977-2.609-0.977-3.586,0L18.414,17z"/>
<path d="M18.5,43.051c-1.202,0-2.341-0.478-3.207-1.344l-9-9c-1.798-1.799-1.798-4.615,0-6.414L17,15.586L32.414,31L21.707,41.707
	C20.841,42.573,19.702,43.051,18.5,43.051z M17,18.414l-9.293,9.293c-1.005,1.006-1.005,2.58,0,3.586l9,9
	c0.977,0.977,2.609,0.977,3.586,0L29.586,31L17,18.414z"/>
<path d="M27,7L17,17l14,14l10-10c1.4-1.4,1.4-3.6,0-5l-9-9C30.6,5.6,28.4,5.6,27,7z"/>
</svg>
