<svg xmlns="http://www.w3.org/2000/svg" viewBox="0 0 24 24"><g transform="translate(0, 24) scale(0.025)"><path d="m720-430 80 80v190q0 33-23.5 56.5T720-80H160q-33 0-56.5-23.5T80-160v-560q0-33 23.5-56.5T160-800h220q-8 18-12 38.5t-6 41.5H160v560h560v-270Zm52-174 128 128-56 56-128-128q-21 12-45 20t-51 8q-75 0-127.5-52.5T440-700q0-75 52.5-127.5T620-880q75 0 127.5 52.5T800-700q0 27-8 51t-20 45Zm-81-25q29-29 29-71t-29-71q-29-29-71-29t-71 29q-29 29-29 71t29 71q29 29 71 29t71-29ZM160-430v270-560 280-12 22Z"/></g></svg>