<?xml version="1.0" encoding="utf-8"?>
<!-- Generator: Adobe Illustrator 15.1.0, SVG Export Plug-In . SVG Version: 6.00 Build 0)  -->
<!DOCTYPE svg PUBLIC "-//W3C//DTD SVG 1.1//EN" "http://www.w3.org/Graphics/SVG/1.1/DTD/svg11.dtd">
<svg version="1.1" id="Layer_1" xmlns="http://www.w3.org/2000/svg" xmlns:xlink="http://www.w3.org/1999/xlink" x="0px" y="0px"
	 width="24px" height="24px" viewBox="0 0 24 24" enable-background="new 0 0 24 24" xml:space="preserve">
<g id="Layer_1_1_">
	<path d="M5.5,4.057V2.528h12v1.528h1.2c0.288,0,0.558,0.07,0.8,0.185V2.528C19.5,1.686,18.604,1,17.5,1h-12
		c-1.103,0-2,0.686-2,1.528V4.24c0.242-0.114,0.511-0.184,0.8-0.184L5.5,4.057L5.5,4.057z"/>
	<path d="M17.5,21h-12c-1.103,0-2-0.897-2-2v-3h2v3h12v-4h2v4C19.5,20.103,18.603,21,17.5,21z"/>
	<path d="M20.301,4H2.7C1.484,4,0.5,5.192,0.5,6.667v6.667c0,1.473,0.984,2.667,2.2,2.667h17.601c1.213,0,2.199-1.194,2.199-2.667
		V6.667C22.5,5.192,21.514,4,20.301,4z M21.4,12.777c0,1.228-0.887,2.223-1.979,2.223H3.58c-1.095,0-1.98-0.995-1.98-2.223V7.223
		C1.6,5.994,2.485,5,3.58,5h15.841C20.514,5,21.4,5.994,21.4,7.223V12.777z"/>
	<g>
		<path d="M3.559,6.966C4.006,6.89,4.633,6.833,5.517,6.833c0.894,0,1.53,0.171,1.958,0.513C7.894,7.67,8.16,8.202,8.16,8.83
			s-0.2,1.169-0.589,1.521c-0.495,0.457-1.227,0.675-2.082,0.675c-0.19,0-0.361-0.009-0.494-0.038v2.3H3.559V6.966z M4.994,9.875
			C5.118,9.904,5.26,9.914,5.479,9.914c0.77,0,1.245-0.39,1.245-1.037c0-0.589-0.409-0.941-1.141-0.941
			c-0.285,0-0.485,0.019-0.589,0.047V9.875z"/>
		<path d="M9.078,6.976c0.532-0.085,1.226-0.143,1.949-0.143c1.227,0,2.024,0.228,2.633,0.684c0.666,0.495,1.084,1.284,1.084,2.415
			c0,1.226-0.447,2.072-1.055,2.595c-0.676,0.561-1.712,0.826-2.967,0.826c-0.751,0-1.293-0.047-1.645-0.095L9.078,6.976
			L9.078,6.976z M10.523,12.195c0.124,0.029,0.333,0.029,0.504,0.029c1.321,0.009,2.186-0.713,2.186-2.244
			c0-1.331-0.779-2.034-2.034-2.034c-0.314,0-0.533,0.028-0.656,0.057V12.195z"/>
		<path d="M15.699,6.881h3.908v1.188h-2.463v1.464h2.301v1.179h-2.301v2.576h-1.445V6.881z"/>
	</g>
</g>
<g id="Layer_2">
</g>
</svg>
