<?xml version="1.0" encoding="utf-8"?>
<!-- Generator: Adobe Illustrator 15.1.0, SVG Export Plug-In . SVG Version: 6.00 Build 0)  -->
<!DOCTYPE svg PUBLIC "-//W3C//DTD SVG 1.1//EN" "http://www.w3.org/Graphics/SVG/1.1/DTD/svg11.dtd">
<svg version="1.1" id="Layer_1" xmlns="http://www.w3.org/2000/svg" xmlns:xlink="http://www.w3.org/1999/xlink" x="0px" y="0px"
	 width="24px" height="24px" viewBox="0 0 24 24" enable-background="new 0 0 24 24" xml:space="preserve">
<path d="M5.5,4.057V2.528h12v1.528h1.2c0.288,0,0.558,0.07,0.8,0.185V2.528C19.5,1.686,18.604,1,17.5,1h-12
	c-1.103,0-2,0.686-2,1.528V4.24c0.242-0.114,0.511-0.184,0.8-0.184L5.5,4.057L5.5,4.057z"/>
<path d="M17.5,21h-12c-1.103,0-2-0.896-2-2v-3h2v3h12v-4h2v4C19.5,20.104,18.604,21,17.5,21z"/>
<path d="M20.301,4H2.7C1.484,4,0.5,5.192,0.5,6.667v6.667c0,1.473,0.984,2.667,2.2,2.667h17.601c1.213,0,2.199-1.194,2.199-2.667
	V6.667C22.5,5.192,21.514,4,20.301,4z M21.4,12.777c0,1.228-0.887,2.223-1.979,2.223H3.58c-1.095,0-1.98-0.995-1.98-2.223V7.223
	C1.6,5.994,2.485,5,3.58,5h15.841C20.514,5,21.4,5.994,21.4,7.223V12.777z"/>
<g id="Layer_2">
</g>
<g>
	<path d="M4.175,11.795c0.381,0.2,0.989,0.399,1.606,0.399c0.666,0,1.018-0.276,1.018-0.694c0-0.399-0.305-0.627-1.074-0.894
		c-1.064-0.38-1.769-0.97-1.769-1.901c0-1.093,0.922-1.92,2.425-1.92c0.731,0,1.254,0.143,1.635,0.323l-0.323,1.16
		C7.446,8.145,6.98,7.964,6.362,7.964c-0.627,0-0.932,0.294-0.932,0.618c0,0.409,0.352,0.589,1.188,0.903
		c1.131,0.418,1.654,1.008,1.654,1.911c0,1.074-0.818,1.987-2.576,1.987c-0.732,0-1.455-0.199-1.816-0.399L4.175,11.795z"/>
	<path d="M14.742,14.391c-0.912-0.267-1.672-0.552-2.538-0.903c-0.143-0.058-0.295-0.085-0.438-0.095
		c-1.454-0.096-2.804-1.16-2.804-3.261c0-1.93,1.217-3.365,3.137-3.365c1.949,0,3.023,1.483,3.023,3.242
		c0,1.455-0.676,2.481-1.512,2.861v0.038c0.484,0.143,1.037,0.267,1.541,0.361L14.742,14.391z M13.592,10.065
		c0-1.179-0.551-2.148-1.54-2.148c-0.988,0-1.559,0.97-1.559,2.177c0,1.217,0.58,2.148,1.559,2.148
		C13.031,12.242,13.592,11.32,13.592,10.065z"/>
	<path d="M16.078,6.88h1.445v5.19h2.549v1.216h-3.994V6.88z"/>
</g>
</svg>
