<?xml version="1.0" encoding="utf-8"?>
<!-- Generator: Adobe Illustrator 15.1.0, SVG Export Plug-In . SVG Version: 6.00 Build 0)  -->
<!DOCTYPE svg PUBLIC "-//W3C//DTD SVG 1.1//EN" "http://www.w3.org/Graphics/SVG/1.1/DTD/svg11.dtd">
<svg version="1.1" id="Layer_1" xmlns="http://www.w3.org/2000/svg" xmlns:xlink="http://www.w3.org/1999/xlink" x="0px" y="0px"
	 width="24px" height="24px" viewBox="0 0 24 24" enable-background="new 0 0 24 24" xml:space="preserve">
<g id="Layer_1_1_">
	<path d="M5,3.557V2.028h12v1.528h1.2c0.288,0,0.558,0.07,0.8,0.185V2.028C19,1.186,18.104,0.5,17,0.5H5c-1.103,0-2,0.686-2,1.528
		V3.74c0.242-0.114,0.511-0.184,0.8-0.184L5,3.557L5,3.557z"/>
	<path d="M17,20.5H5c-1.103,0-2-0.897-2-2v-3h2v3h12v-4h2v4C19,19.603,18.103,20.5,17,20.5z"/>
	<path d="M19.801,3.5H2.2C0.984,3.5,0,4.692,0,6.167v6.667c0,1.473,0.984,2.667,2.2,2.667h17.601c1.213,0,2.199-1.194,2.199-2.667
		V6.167C22,4.692,21.014,3.5,19.801,3.5z M20.9,12.277c0,1.228-0.887,2.223-1.979,2.223H3.08c-1.095,0-1.98-0.995-1.98-2.223V6.723
		C1.1,5.494,1.985,4.5,3.08,4.5h15.841c1.093,0,1.979,0.994,1.979,2.223V12.277z"/>
	<g enable-background="new    ">
		<path d="M3.814,11.229c0.36,0.188,0.937,0.378,1.521,0.378c0.63,0,0.963-0.262,0.963-0.657c0-0.378-0.288-0.595-1.018-0.847
			c-1.008-0.359-1.674-0.918-1.674-1.8c0-1.036,0.873-1.819,2.296-1.819c0.693,0,1.188,0.136,1.548,0.307L7.146,7.888
			C6.912,7.771,6.47,7.601,5.885,7.601c-0.594,0-0.882,0.278-0.882,0.585c0,0.387,0.333,0.558,1.125,0.854
			C7.2,9.437,7.695,9.995,7.695,10.85c0,1.018-0.774,1.882-2.44,1.882c-0.693,0-1.377-0.188-1.719-0.378L3.814,11.229z"/>
		<path d="M10.061,12.643L8.116,6.574H9.62l0.738,2.565c0.207,0.729,0.396,1.413,0.54,2.17h0.027
			c0.153-0.729,0.342-1.45,0.549-2.143l0.774-2.593h1.458l-2.044,6.067h-1.601V12.643z"/>
		<path d="M19.35,12.362c-0.423,0.145-1.225,0.343-2.024,0.343c-1.107,0-1.908-0.279-2.468-0.811
			c-0.549-0.531-0.854-1.323-0.854-2.215c0.011-2.017,1.478-3.169,3.468-3.169c0.782,0,1.385,0.153,1.684,0.288l-0.289,1.107
			c-0.333-0.153-0.738-0.261-1.404-0.261c-1.143,0-2.018,0.639-2.018,1.962c0,1.261,0.793,1.99,1.918,1.99
			c0.307,0,0.559-0.036,0.666-0.081v-1.278H17.09v-1.07h2.26V12.362z"/>
	</g>
</g>
<g id="Layer_2">
</g>
</svg>
