<?xml version="1.0" encoding="utf-8"?>
<!-- Generator: Adobe Illustrator 15.1.0, SVG Export Plug-In . SVG Version: 6.00 Build 0)  -->
<!DOCTYPE svg PUBLIC "-//W3C//DTD SVG 1.1//EN" "http://www.w3.org/Graphics/SVG/1.1/DTD/svg11.dtd">
<svg version="1.1" id="Layer_1" xmlns="http://www.w3.org/2000/svg" xmlns:xlink="http://www.w3.org/1999/xlink" x="0px" y="0px"
	 width="24px" height="24px" viewBox="0 0 24 24" enable-background="new 0 0 24 24" xml:space="preserve">
<g id="Layer_1_1_">
	<path d="M5,3.557V2.028h12v1.528h1.2c0.288,0,0.558,0.07,0.8,0.185V2.028C19,1.186,18.104,0.5,17,0.5H5c-1.103,0-2,0.686-2,1.528
		V3.74c0.242-0.114,0.511-0.184,0.8-0.184L5,3.557L5,3.557z"/>
	<path d="M17,20.5H5c-1.103,0-2-0.897-2-2v-3h2v3h12v-4h2v4C19,19.603,18.103,20.5,17,20.5z"/>
	<path d="M19.801,3.5H2.2C0.984,3.5,0,4.692,0,6.167v6.667c0,1.473,0.984,2.667,2.2,2.667h17.601c1.213,0,2.199-1.194,2.199-2.667
		V6.167C22,4.692,21.014,3.5,19.801,3.5z M20.9,12.277c0,1.228-0.887,2.223-1.979,2.223H3.08c-1.095,0-1.98-0.995-1.98-2.223V6.723
		C1.1,5.494,1.985,4.5,3.08,4.5h15.841c1.093,0,1.979,0.994,1.979,2.223V12.277z"/>
	<g enable-background="new    ">
		<path d="M8.072,12.479c-0.243,0.117-0.819,0.261-1.548,0.261c-2.098,0-3.178-1.314-3.178-3.043c0-2.07,1.477-3.214,3.313-3.214
			c0.711,0,1.251,0.136,1.495,0.271l-0.288,1.08c-0.27-0.117-0.657-0.225-1.152-0.225c-1.081,0-1.927,0.657-1.927,2.007
			c0,1.216,0.72,1.981,1.936,1.981c0.423,0,0.874-0.081,1.152-0.198L8.072,12.479z"/>
		<path d="M9.025,11.229c0.36,0.188,0.937,0.378,1.521,0.378c0.63,0,0.963-0.262,0.963-0.657c0-0.378-0.288-0.595-1.018-0.847
			c-1.008-0.359-1.674-0.918-1.674-1.8c0-1.036,0.873-1.819,2.296-1.819c0.693,0,1.188,0.136,1.548,0.307l-0.306,1.098
			c-0.234-0.116-0.675-0.287-1.26-0.287c-0.594,0-0.882,0.278-0.882,0.585c0,0.387,0.333,0.558,1.125,0.854
			c1.072,0.396,1.566,0.955,1.566,1.81c0,1.018-0.773,1.881-2.439,1.881c-0.693,0-1.377-0.188-1.72-0.377L9.025,11.229z"/>
		<path d="M15.271,12.643l-1.945-6.067h1.504l0.738,2.565c0.207,0.729,0.396,1.413,0.539,2.17h0.026
			c0.154-0.729,0.343-1.45,0.55-2.143l0.774-2.593h1.459l-2.045,6.066h-1.601V12.643z"/>
	</g>
</g>
<g id="Layer_2">
</g>
</svg>
