<?xml version="1.0" encoding="utf-8"?>
<!-- Generator: Adobe Illustrator 15.1.0, SVG Export Plug-In . SVG Version: 6.00 Build 0)  -->
<!DOCTYPE svg PUBLIC "-//W3C//DTD SVG 1.1//EN" "http://www.w3.org/Graphics/SVG/1.1/DTD/svg11.dtd">
<svg version="1.1" id="Layer_1" xmlns="http://www.w3.org/2000/svg" xmlns:xlink="http://www.w3.org/1999/xlink" x="0px" y="0px"
	 width="24px" height="24px" viewBox="0 0 24 24" enable-background="new 0 0 24 24" xml:space="preserve">
<g id="Layer_1_1_">
	<path d="M5.5,4.057V2.528h12v1.528h1.2c0.288,0,0.558,0.07,0.8,0.185V2.528C19.5,1.686,18.604,1,17.5,1h-12
		c-1.103,0-2,0.686-2,1.528V4.24c0.242-0.114,0.511-0.184,0.8-0.184L5.5,4.057L5.5,4.057z"/>
	<path d="M17.5,21h-12c-1.103,0-2-0.897-2-2v-3h2v3h12v-4h2v4C19.5,20.103,18.603,21,17.5,21z"/>
	<path d="M20.301,4H2.7C1.484,4,0.5,5.192,0.5,6.667v6.667c0,1.473,0.984,2.667,2.2,2.667h17.601c1.213,0,2.199-1.194,2.199-2.667
		V6.667C22.5,5.192,21.514,4,20.301,4z M21.4,12.777c0,1.228-0.887,2.223-1.979,2.223H3.58c-1.095,0-1.98-0.995-1.98-2.223V7.223
		C1.6,5.994,2.485,5,3.58,5h15.841C20.514,5,21.4,5.994,21.4,7.223V12.777z"/>
	<g>
		<path d="M6.454,12.848l-0.488-0.975c-0.2-0.375-0.328-0.655-0.48-0.967H5.47c-0.112,0.312-0.248,0.592-0.424,0.967l-0.44,0.975
			H3.215l1.559-2.726L3.271,7.459H4.67l0.472,0.983c0.16,0.328,0.28,0.592,0.408,0.896h0.016c0.128-0.344,0.232-0.583,0.368-0.896
			L6.39,7.459h1.391L6.262,10.09l1.599,2.758H6.454z"/>
		<path d="M12.717,12.6c-0.375,0.129-1.087,0.306-1.799,0.306c-0.983,0-1.695-0.248-2.19-0.72c-0.488-0.472-0.76-1.175-0.76-1.967
			c0.008-1.791,1.312-2.814,3.078-2.814c0.696,0,1.231,0.136,1.496,0.256l-0.256,0.983c-0.296-0.136-0.655-0.232-1.247-0.232
			c-1.016,0-1.791,0.567-1.791,1.743c0,1.119,0.704,1.767,1.703,1.767c0.271,0,0.496-0.032,0.592-0.072v-1.135H10.71V9.762h2.007
			V12.6z"/>
		<path d="M18.229,10.785c-0.022-0.647-0.049-1.431-0.049-2.215h-0.016c-0.176,0.688-0.4,1.456-0.607,2.087L16.9,12.76h-0.951
			l-0.576-2.079c-0.176-0.64-0.352-1.407-0.486-2.111h-0.016c-0.025,0.728-0.057,1.559-0.09,2.231l-0.104,2.047H13.55l0.345-5.39
			h1.623l0.526,1.799c0.177,0.624,0.336,1.295,0.457,1.927h0.031c0.145-0.624,0.327-1.335,0.512-1.935l0.567-1.791h1.599l0.289,5.39
			h-1.185L18.229,10.785z"/>
	</g>
</g>
<g id="Layer_2">
</g>
</svg>
