<?xml version="1.0" encoding="utf-8"?>
<!-- Generator: Adobe Illustrator 15.1.0, SVG Export Plug-In . SVG Version: 6.00 Build 0)  -->
<!DOCTYPE svg PUBLIC "-//W3C//DTD SVG 1.1//EN" "http://www.w3.org/Graphics/SVG/1.1/DTD/svg11.dtd">
<svg version="1.1" id="Layer_1" xmlns="http://www.w3.org/2000/svg" xmlns:xlink="http://www.w3.org/1999/xlink" x="0px" y="0px"
	 width="24px" height="24px" viewBox="0 0 24 24" enable-background="new 0 0 24 24" xml:space="preserve">
<g id="Layer_1_1_">
	<path d="M5.5,4.057V2.528h12v1.528h1.2c0.288,0,0.558,0.07,0.8,0.185V2.528C19.5,1.686,18.604,1,17.5,1h-12
		c-1.103,0-2,0.686-2,1.528V4.24c0.242-0.114,0.511-0.184,0.8-0.184L5.5,4.057L5.5,4.057z"/>
	<path d="M17.5,21h-12c-1.103,0-2-0.897-2-2v-3h2v3h12v-4h2v4C19.5,20.103,18.603,21,17.5,21z"/>
	<path d="M20.301,4H2.7C1.484,4,0.5,5.192,0.5,6.667v6.667c0,1.473,0.984,2.667,2.2,2.667h17.601c1.213,0,2.199-1.194,2.199-2.667
		V6.667C22.5,5.192,21.514,4,20.301,4z M21.4,12.777c0,1.228-0.887,2.223-1.979,2.223H3.58c-1.095,0-1.98-0.995-1.98-2.223V7.223
		C1.6,5.994,2.485,5,3.58,5h15.841C20.514,5,21.4,5.994,21.4,7.223V12.777z"/>
	<g>
		<path d="M4.202,6.932v2.431h1.233V6.932h1.179V13H5.435v-2.539H4.202V13h-1.18V6.932H4.202z"/>
		<path d="M8.314,8.021H7.243V6.932h3.332v1.089H9.494V13h-1.18V8.021z"/>
		<path d="M14.902,10.875c-0.035-0.576-0.071-1.359-0.063-2.008h-0.018c-0.108,0.648-0.271,1.396-0.389,1.864L13.904,12.9h-0.829
			l-0.505-2.133c-0.116-0.486-0.278-1.243-0.377-1.9h-0.018c-0.019,0.657-0.063,1.422-0.091,2.026L11.978,13h-1.009l0.433-6.068
			h1.25l0.486,2.197c0.162,0.765,0.315,1.44,0.424,2.125h0.026c0.091-0.675,0.226-1.359,0.378-2.125l0.486-2.197h1.242L16.064,13
			H15.01L14.902,10.875z"/>
		<path d="M16.928,6.932h1.18V12h1.549v1h-2.729V6.932z"/>
	</g>
</g>
<g id="Layer_2">
</g>
</svg>
