<?xml version="1.0" encoding="utf-8"?>
<!-- Generator: Adobe Illustrator 15.1.0, SVG Export Plug-In . SVG Version: 6.00 Build 0)  -->
<!DOCTYPE svg PUBLIC "-//W3C//DTD SVG 1.1//EN" "http://www.w3.org/Graphics/SVG/1.1/DTD/svg11.dtd">
<svg version="1.1" id="Layer_1" xmlns="http://www.w3.org/2000/svg" xmlns:xlink="http://www.w3.org/1999/xlink" x="0px" y="0px"
	 width="24px" height="24px" viewBox="0.5 0.5 24 24" enable-background="new 0.5 0.5 24 24" xml:space="preserve">
<path d="M6.5,5.557V4.028h12v1.528h1.2c0.288,0,0.558,0.07,0.8,0.185V4.028c0-0.842-0.896-1.528-2-1.528h-12
	c-1.103,0-2,0.686-2,1.528V5.74c0.242-0.114,0.511-0.184,0.8-0.184L6.5,5.557L6.5,5.557z"/>
<path d="M18.5,22.5h-12c-1.103,0-2-0.896-2-2v-3h2v3h12v-4h2v4C20.5,21.604,19.604,22.5,18.5,22.5z"/>
<path d="M21.301,5.5H3.7c-1.216,0-2.2,1.192-2.2,2.667v6.667c0,1.473,0.984,2.667,2.2,2.667h17.601c1.213,0,2.199-1.194,2.199-2.667
	V8.167C23.5,6.692,22.514,5.5,21.301,5.5z M22.4,14.277c0,1.228-0.887,2.223-1.979,2.223H4.58c-1.095,0-1.98-0.995-1.98-2.223V8.723
	C2.6,7.494,3.485,6.5,4.58,6.5h15.841c1.093,0,1.979,0.994,1.979,2.223V14.277z"/>
<g id="Layer_2">
</g>
<g>
	<path d="M8.06,14.643l-0.549-1.099c-0.226-0.423-0.369-0.738-0.54-1.089H6.953c-0.126,0.351-0.279,0.667-0.477,1.089l-0.495,1.099
		H4.415l1.755-3.07L4.477,8.574h1.575l0.531,1.107c0.181,0.369,0.315,0.666,0.459,1.008h0.019c0.144-0.387,0.261-0.657,0.414-1.008
		l0.513-1.107h1.566l-1.71,2.962l1.801,3.106H8.06z"/>
	<path d="M15.512,12.319c-0.027-0.729-0.053-1.611-0.053-2.494h-0.02c-0.197,0.774-0.449,1.639-0.684,2.35l-0.738,2.368h-1.07
		l-0.649-2.341c-0.198-0.72-0.396-1.584-0.549-2.376h-0.019c-0.026,0.819-0.063,1.755-0.099,2.512l-0.117,2.305h-1.27l0.388-6.068
		h1.827l0.594,2.026c0.197,0.702,0.379,1.458,0.514,2.169h0.035c0.162-0.702,0.369-1.503,0.576-2.179l0.639-2.017h1.801l0.324,6.068
		h-1.332L15.512,12.319z"/>
	<path d="M18.004,8.574h1.369v4.916h2.412v1.152h-3.781V8.574z"/>
</g>
</svg>
