<?xml version="1.0" encoding="utf-8"?>
<!-- Generator: Adobe Illustrator 15.1.0, SVG Export Plug-In . SVG Version: 6.00 Build 0)  -->
<!DOCTYPE svg PUBLIC "-//W3C//DTD SVG 1.1//EN" "http://www.w3.org/Graphics/SVG/1.1/DTD/svg11.dtd">
<svg version="1.1" id="Layer_1" xmlns="http://www.w3.org/2000/svg" xmlns:xlink="http://www.w3.org/1999/xlink" x="0px" y="0px"
	 width="24px" height="24px" viewBox="0 0 24 24" enable-background="new 0 0 24 24" xml:space="preserve">
<g id="Layer_1_1_">
	<path d="M5.5,4.057V2.528h12v1.528h1.2c0.288,0,0.558,0.07,0.8,0.185V2.528C19.5,1.686,18.604,1,17.5,1h-12
		c-1.103,0-2,0.686-2,1.528V4.24c0.242-0.114,0.511-0.184,0.8-0.184L5.5,4.057L5.5,4.057z"/>
	<path d="M17.5,21h-12c-1.103,0-2-0.897-2-2v-3h2v3h12v-4h2v4C19.5,20.103,18.603,21,17.5,21z"/>
	<path d="M20.301,4H2.7C1.484,4,0.5,5.192,0.5,6.667v6.667c0,1.473,0.984,2.667,2.2,2.667h17.601c1.213,0,2.199-1.194,2.199-2.667
		V6.667C22.5,5.192,21.514,4,20.301,4z M21.4,12.777c0,1.228-0.887,2.223-1.979,2.223H3.58c-1.095,0-1.98-0.995-1.98-2.223V7.223
		C1.6,5.994,2.485,5,3.58,5h15.841C20.514,5,21.4,5.994,21.4,7.223V12.777z"/>
	<g>
		<path d="M4.804,7.978H2.985V6.699h5.177v1.279H6.324v5.458h-1.52V7.978z"/>
		<path d="M12.703,13.436l-0.61-1.22c-0.25-0.47-0.41-0.82-0.6-1.209h-0.021c-0.14,0.39-0.31,0.74-0.529,1.209l-0.55,1.22H8.655
			l1.949-3.409L8.725,6.699h1.749l0.59,1.229c0.199,0.41,0.35,0.739,0.51,1.119h0.02c0.16-0.43,0.29-0.729,0.46-1.119l0.57-1.229
			h1.737l-1.897,3.288l1.998,3.449H12.703z"/>
		<path d="M16.654,7.978h-1.818V6.699h5.176v1.279h-1.838v5.458h-1.52V7.978z"/>
	</g>
</g>
<g id="Layer_2">
</g>
</svg>
