<?xml version="1.0" encoding="utf-8"?>
<!-- Generator: Adobe Illustrator 15.1.0, SVG Export Plug-In . SVG Version: 6.00 Build 0)  -->
<!DOCTYPE svg PUBLIC "-//W3C//DTD SVG 1.1//EN" "http://www.w3.org/Graphics/SVG/1.1/DTD/svg11.dtd">
<svg version="1.1" id="Layer_1" xmlns="http://www.w3.org/2000/svg" xmlns:xlink="http://www.w3.org/1999/xlink" x="0px" y="0px"
	 width="24px" height="24px" viewBox="0 0 24 24" enable-background="new 0 0 24 24" xml:space="preserve">
<g id="Layer_1_1_">
	<path d="M5.5,4.057V2.528h12v1.528h1.2c0.288,0,0.558,0.07,0.8,0.185V2.528C19.5,1.686,18.604,1,17.5,1h-12
		c-1.103,0-2,0.686-2,1.528V4.24c0.242-0.114,0.511-0.184,0.8-0.184L5.5,4.057L5.5,4.057z"/>
	<path d="M17.5,21h-12c-1.103,0-2-0.897-2-2v-3h2v3h12v-4h2v4C19.5,20.103,18.603,21,17.5,21z"/>
	<path d="M20.301,4H2.7C1.484,4,0.5,5.192,0.5,6.667v6.667c0,1.473,0.984,2.667,2.2,2.667h17.601c1.213,0,2.199-1.194,2.199-2.667
		V6.667C22.5,5.192,21.514,4,20.301,4z M21.4,12.777c0,1.228-0.887,2.223-1.979,2.223H3.58c-1.095,0-1.98-0.995-1.98-2.223V7.223
		C1.6,5.994,2.485,5,3.58,5h15.841C20.514,5,21.4,5.994,21.4,7.223V12.777z"/>
	<g>
		<path d="M7.388,13.436l-0.609-1.22c-0.25-0.47-0.41-0.82-0.6-1.209h-0.02c-0.14,0.39-0.31,0.74-0.53,1.209l-0.55,1.22H3.34
			l1.949-3.409L3.41,6.699h1.749l0.589,1.229c0.2,0.41,0.35,0.739,0.51,1.119h0.02c0.16-0.43,0.29-0.729,0.46-1.119l0.57-1.229
			h1.739L7.148,9.987l1.999,3.449H7.388z"/>
		<path d="M9.979,6.699h1.519v5.457h2.679v1.279H9.979V6.699z"/>
		<path d="M15.131,11.866c0.398,0.21,1.039,0.42,1.688,0.42c0.701,0,1.07-0.29,1.07-0.729c0-0.42-0.32-0.66-1.129-0.939
			c-1.119-0.4-1.859-1.02-1.859-1.999c0-1.149,0.97-2.019,2.55-2.019c0.771,0,1.317,0.15,1.719,0.34l-0.34,1.219
			c-0.261-0.13-0.75-0.319-1.397-0.319c-0.66,0-0.98,0.31-0.98,0.649c0,0.43,0.369,0.62,1.25,0.949
			c1.189,0.44,1.738,1.06,1.738,2.009c0,1.13-0.859,2.089-2.709,2.089c-0.771,0-1.529-0.21-1.908-0.42L15.131,11.866z"/>
	</g>
</g>
<g id="Layer_2">
</g>
</svg>
