<?xml version="1.0" encoding="UTF-8" standalone="no"?>
<svg
   xmlns:dc="http://purl.org/dc/elements/1.1/"
   xmlns:cc="http://creativecommons.org/ns#"
   xmlns:rdf="http://www.w3.org/1999/02/22-rdf-syntax-ns#"
   xmlns:svg="http://www.w3.org/2000/svg"
   xmlns="http://www.w3.org/2000/svg"
   xmlns:sodipodi="http://sodipodi.sourceforge.net/DTD/sodipodi-0.dtd"
   xmlns:inkscape="http://www.inkscape.org/namespaces/inkscape"
   version="1.1"
   width="24"
   height="24"
   viewBox="0 0 24 24"
   id="svg4280"
   sodipodi:docname="format-conditional-page-break.svg"
   inkscape:version="0.92.3 (2405546, 2018-03-11)">
  <metadata
     id="metadata4286">
    <rdf:RDF>
      <cc:Work
         rdf:about="">
        <dc:format>image/svg+xml</dc:format>
        <dc:type
           rdf:resource="http://purl.org/dc/dcmitype/StillImage" />
        <dc:title></dc:title>
      </cc:Work>
    </rdf:RDF>
  </metadata>
  <defs
     id="defs4284" />
  <sodipodi:namedview
     pagecolor="#ffffff"
     bordercolor="#666666"
     borderopacity="1"
     objecttolerance="10"
     gridtolerance="10"
     guidetolerance="10"
     inkscape:pageopacity="0"
     inkscape:pageshadow="2"
     inkscape:window-width="1306"
     inkscape:window-height="875"
     id="namedview4282"
     showgrid="false"
     inkscape:zoom="1"
     inkscape:cx="12"
     inkscape:cy="12"
     inkscape:window-x="1788"
     inkscape:window-y="274"
     inkscape:window-maximized="0"
     inkscape:current-layer="g4304" />
  <path
     d="M18,20H6V18H4V20A2,2 0 0,0 6,22H18A2,2 0 0,0 20,20V18H18V20M14,2H6A2,2 0 0,0 4,4V12H6V4H14V8H18V12H20V8L14,2M11,16H8V14H11V16M16,16H13V14H16V16M3,14H6V16H3V14M21,16H18V14H21V16Z"
     id="path4278" />
  <g
     id="g4304"
     transform="matrix(0.5224386,0,0,0.48925877,5.7586481,2.1945447)">
    <polygon
       id="polygon4288"
       points="11.757,19.5 15.5,19.5 11.878,13.514 15.542,7.458 11.799,7.458 10.007,10.421 8.24,7.5 4.5,7.5 8.137,13.514 4.542,19.458 8.282,19.458 10.007,16.606 "
       transform="matrix(0.98821435,0,0,1,-2.1601989,-2.3625836)" />
  </g>
</svg>
