<?xml version="1.0" encoding="utf-8"?>
<!-- Generator: Adobe Illustrator 15.1.0, SVG Export Plug-In . SVG Version: 6.00 Build 0)  -->
<!DOCTYPE svg PUBLIC "-//W3C//DTD SVG 1.1//EN" "http://www.w3.org/Graphics/SVG/1.1/DTD/svg11.dtd">
<svg version="1.1" id="Layer_1" xmlns="http://www.w3.org/2000/svg" xmlns:xlink="http://www.w3.org/1999/xlink" x="0px" y="0px"
	 width="24px" height="24px" viewBox="0.5 0.5 24 24" enable-background="new 0.5 0.5 24 24" xml:space="preserve">
<path d="M22.306,13.195c0.263-0.26,0.263-0.692,0-0.939l-1.56-1.561c-0.247-0.26-0.68-0.26-0.939,0l-1.228,1.221l2.502,2.499"/>
<polygon points="17.874,12.62 10.5,20.001 10.5,22.5 12.999,22.5 20.373,15.119 "/>
<path d="M12.93,4.29c-1.1-0.1-2.07,0.71-2.17,1.82L10.51,9h2.82v2h-3l-0.439,5.07C9.7,18.27,7.76,19.9,5.56,19.7
	c-1.31-0.11-2.41-0.841-3.06-1.87l1.5-1.5c0.24,0.74,0.9,1.311,1.73,1.38C6.83,17.811,7.8,17,7.9,15.891L8.33,11h-3V9H8.5l0.27-3.07
	C8.96,3.73,10.9,2.1,13.1,2.3c1.311,0.11,2.41,0.84,3.061,1.87l-1.5,1.5C14.42,4.93,13.76,4.36,12.93,4.29z"/>
</svg>
