<?xml version="1.0" encoding="utf-8"?>
<!-- Generator: Adobe Illustrator 15.1.0, SVG Export Plug-In . SVG Version: 6.00 Build 0)  -->
<!DOCTYPE svg PUBLIC "-//W3C//DTD SVG 1.1//EN" "http://www.w3.org/Graphics/SVG/1.1/DTD/svg11.dtd">
<svg version="1.1" id="Layer_1" xmlns="http://www.w3.org/2000/svg" xmlns:xlink="http://www.w3.org/1999/xlink" x="0px" y="0px"
	 width="24px" height="24px" viewBox="0 0 24 24" enable-background="new 0 0 24 24" xml:space="preserve">
<g>
	<path fill="none" d="M16.5,8.5h4v-4h-4V8.5z M19.5,5.5v2h-2v-2H19.5z"/>
	<path fill="none" d="M8.5,14.5v-4h-4v4H8.5z M7.5,11.5v2h-2v-2H7.5z"/>
	<path fill="none" d="M14.5,4.5h-4v4h4V4.5z M11.5,7.5v-2h2v2H11.5z"/>
	<path fill="none" d="M10.5,10.5v10h10v-10H10.5z M17.998,12.669c-0.119-0.37-0.449-0.655-0.865-0.69
		c-0.549-0.05-1.033,0.355-1.084,0.91l-0.125,1.445h1.41v1h-1.5l-0.221,2.535c-0.094,1.1-1.064,1.915-2.164,1.814
		c-0.656-0.06-1.206-0.42-1.531-0.938l0.75-0.75c0.12,0.37,0.451,0.651,0.865,0.688c0.551,0.051,1.035-0.354,1.086-0.91l0.215-2.439
		h-1.5v-1h1.584l0.137-1.535c0.094-1.1,1.064-1.915,2.164-1.815c0.654,0.055,1.205,0.42,1.529,0.935L17.998,12.669z"/>
	<path fill="none" d="M8.5,16.5h-4v4h4V16.5z M5.5,19.5v-2h2v2H5.5z"/>
	<path d="M8.5,2.5v1v1v4h-4h-1h-1v14h20v-20H8.5z M20.5,8.5h-4v-4h4V8.5z M10.5,4.5h4v4h-4V4.5z M8.5,10.5v4h-4v-4H8.5z M4.5,16.5h4
		v4h-4V16.5z M10.5,20.5v-10h10v10H10.5z"/>
	<rect x="11.5" y="5.5" width="2" height="2"/>
	<rect x="17.5" y="5.5" width="2" height="2"/>
	<rect x="5.5" y="11.5" width="2" height="2"/>
	<rect x="5.5" y="17.5" width="2" height="2"/>
	<path d="M17.219,10.984c-1.1-0.1-2.07,0.715-2.164,1.815l-0.137,1.535h-1.584v1h1.5l-0.215,2.439
		c-0.051,0.556-0.535,0.961-1.086,0.91c-0.414-0.037-0.745-0.318-0.865-0.688l-0.75,0.75c0.325,0.519,0.875,0.879,1.531,0.938
		c1.1,0.101,2.07-0.715,2.164-1.814l0.221-2.535h1.5v-1h-1.41l0.125-1.445c0.051-0.555,0.535-0.959,1.084-0.91
		c0.416,0.035,0.746,0.32,0.865,0.69l0.75-0.75C18.424,11.404,17.873,11.039,17.219,10.984z"/>
</g>
</svg>
