<?xml version="1.0" encoding="utf-8"?>
<!-- Generator: Adobe Illustrator 15.1.0, SVG Export Plug-In . SVG Version: 6.00 Build 0)  -->
<!DOCTYPE svg PUBLIC "-//W3C//DTD SVG 1.1//EN" "http://www.w3.org/Graphics/SVG/1.1/DTD/svg11.dtd">
<svg version="1.1" id="Layer_1" xmlns="http://www.w3.org/2000/svg" xmlns:xlink="http://www.w3.org/1999/xlink" x="0px" y="0px"
	 width="24px" height="24px" viewBox="-0.5 -0.5 24 24" enable-background="new -0.5 -0.5 24 24" xml:space="preserve">
<path d="M19.276,22.25H3.722c-1.639,0-2.973-1.334-2.973-2.973V3.723c0-1.639,1.334-2.973,2.973-2.973h15.554
	c1.639,0,2.973,1.333,2.974,2.973v15.555C22.25,20.916,20.916,22.25,19.276,22.25z M3.722,2.25c-0.826,0-1.473,0.647-1.473,1.473
	v15.555c0,0.813,0.661,1.473,1.473,1.473h15.554c0.813,0,1.474-0.66,1.474-1.473V3.723c-0.001-0.812-0.662-1.473-1.474-1.473H3.722z
	"/>
<path d="M4.098,11.058c0.176,0.424,0.658,0.75,1.267,0.79c0.806,0.058,1.516-0.405,1.589-1.043L7.267,8H6.888H5.07V6.853h2.322
	l0.197-1.761C7.728,3.83,9.149,2.894,10.76,3.009c0.959,0.063,1.764,0.481,2.239,1.073l-1.098,0.861
	c-0.177-0.424-0.659-0.751-1.267-0.791C9.829,4.094,9.119,4.558,9.047,5.196L8.863,6.853h2.063V8H8.731L8.41,10.907
	c-0.139,1.263-1.56,2.199-3.171,2.083c-0.96-0.062-1.765-0.481-2.24-1.073L4.098,11.058z"/>
<polygon points="19.499,12 17.295,12 16.241,13.723 15.201,12.023 12.999,12.023 15.141,15.521 13.024,18.977 15.225,18.977 
	16.241,17.316 17.271,19 19.474,19 17.342,15.521 "/>
<rect x="11.146" y="-1.354" transform="matrix(0.7071 0.7071 -0.7071 0.7071 11.6457 -4.8237)" width="1" height="26"/>
</svg>
