<?xml version="1.0" encoding="utf-8"?>
<!-- Generator: Adobe Illustrator 15.1.0, SVG Export Plug-In . SVG Version: 6.00 Build 0)  -->
<!DOCTYPE svg PUBLIC "-//W3C//DTD SVG 1.1//EN" "http://www.w3.org/Graphics/SVG/1.1/DTD/svg11.dtd">
<svg version="1.1" id="Layer_1" xmlns="http://www.w3.org/2000/svg" xmlns:xlink="http://www.w3.org/1999/xlink" x="0px" y="0px"
	 width="24px" height="24px" viewBox="0 0 24 24" enable-background="new 0 0 24 24" xml:space="preserve">
<path d="M9,2C5.134,2,2,5.134,2,9c0,5.25,7,13,7,13s7-7.75,7-13C16,5.13,12.859,2,9,2z M9,11.5c-1.381,0-2.5-1.119-2.5-2.5
	S7.62,6.5,9,6.5s2.5,1.119,2.5,2.5S10.381,11.5,9,11.5z"/>
<polygon points="22.5,15.9 21.1,14.5 19,16.6 16.9,14.5 15.5,15.9 17.6,18 15.529,20.069 16.929,21.471 19,19.4 21.1,21.5 
	22.5,20.1 20.4,18 "/>
</svg>
