<svg xmlns="http://www.w3.org/2000/svg" viewBox="0 0 24 24"><g transform="translate(0, 24) scale(0.025)"><path d="m720-440-56-56 86-86q-43-8-137.5 9T400-441q32-117 129-188t219-71l-84-84 56-56 200 200-200 200ZM480-80q-11 0-20-5.5T446-100l-7-14q-11-21-24-40.5T386-192q-42-50-89.5-93T213-382q-26-39-39.5-84T160-559q0-133 92.5-227T479-880q37 0 71 8t66 23l-61 61q-18-6-37-9t-39-3q-100 0-169 70.5T240-559q0 36 9.5 69.5T279-427q28 42 64 77t71 71q18 19 33.5 38t31.5 39q14-20 30.5-39t33.5-38q27-29 56-56t55-58l57 57q-32 38-68.5 72T574-192q-16 19-29.5 38T520-114l-7 14q-5 10-14 15t-19 5Z"/></g></svg>