<?xml version="1.0" encoding="utf-8"?>
<!-- Generator: Adobe Illustrator 15.1.0, SVG Export Plug-In . SVG Version: 6.00 Build 0)  -->
<!DOCTYPE svg PUBLIC "-//W3C//DTD SVG 1.1//EN" "http://www.w3.org/Graphics/SVG/1.1/DTD/svg11.dtd">
<svg version="1.1" id="Layer_1" xmlns="http://www.w3.org/2000/svg" xmlns:xlink="http://www.w3.org/1999/xlink" x="0px" y="0px"
	 width="24px" height="24px" viewBox="-0.5 -0.5 24 24" enable-background="new -0.5 -0.5 24 24" xml:space="preserve">
<path d="M2.442,8.686c0,0,0.025-0.127,0.164-0.211c0.584-0.352,2.188-1.594,3.3-0.592c0.902,0.815,1.068,0.715,1.649,0.729
	C8.146,8.626,8.756,8.342,9.216,8.2C9.39,8.146,9.37,8.108,9.497,8.145c0.008,0.001-0.004,0.042-0.004,0.051
	C9.488,8.312,9.266,8.564,8.288,9.021c0,0-0.002,0.403-0.002,0.418c0,0.015,0.384-0.112,0.602-0.211
	c0.08-0.037,0.17-0.02,0.17-0.007c0,0.037-0.011,0.117-0.104,0.211c-0.167,0.17-0.522,0.355-0.671,0.441
	c0,0,0.003,0.241,0.003,0.483c0,0.006,0.086-0.023,0.146-0.051c0.036-0.016,0.134-0.008,0.137,0.01
	c0.037,0.323-1.319,0.943-1.679,1.063c-0.887,0.296-1.499-0.032-1.634-0.164c-0.127-0.123-0.421-0.309-0.575-0.439
	c-0.731-0.614-1.763-0.314-2.273-0.186c-0.168,0.042-0.384,0.136-0.585,0.221C1.708,10.86,1.65,10.871,1.5,10.819
	c0,0,0.054-0.131,0.145-0.197c0.071-0.049,0.203-0.125,0.248-0.149c0.519-0.291,1.239-0.813,2.212-0.8
	c0.625,0.008,0.922,0.643,1.737,1.015c0.419,0.19,0.905,0.088,0.905,0.088v-0.385c0,0-0.554,0.051-0.894-0.172
	c-0.147-0.097-0.242-0.177-0.328-0.244c-0.655-0.494-0.903-0.697-1.376-0.7C3.825,9.272,3.369,9.279,2.605,9.605
	C2.225,9.77,2.174,9.792,1.994,9.726c0,0,0.066-0.18,0.238-0.254c0.042-0.019,0.312-0.194,0.42-0.259
	c0.483-0.279,1.119-0.665,1.759-0.632c0.297,0.016,0.632-0.059,1.383,0.646C6.331,9.73,6.749,9.672,6.749,9.672L6.744,9.309
	c0,0-0.011-0.005-0.02-0.006C6.386,9.277,6.099,8.975,5.622,8.613c-0.005-0.004-0.011-0.01-0.017-0.015
	C4.612,7.783,3.624,8.351,2.992,8.591C2.571,8.75,2.442,8.686,2.442,8.686z"/>
<circle cx="10.5" cy="8" r="0.33"/>
<ellipse cx="7.5" cy="7.75" rx="0.879" ry="0.452"/>
<g>
	<path d="M10.603,8.601v2.479h-0.325V8.601H10.603z"/>
	<path d="M11.153,9.781c0-0.188-0.004-0.334-0.015-0.481h0.288l0.019,0.291h0.007c0.088-0.166,0.295-0.331,0.591-0.331
		c0.247,0,0.631,0.147,0.631,0.757v1.063H12.35v-1.026c0-0.287-0.107-0.53-0.414-0.53c-0.21,0-0.376,0.151-0.436,0.331
		c-0.015,0.041-0.022,0.099-0.022,0.151v1.074h-0.325V9.781z"/>
	<path d="M13.389,10.245c0.008,0.438,0.284,0.618,0.609,0.618c0.232,0,0.377-0.041,0.495-0.088l0.059,0.228
		c-0.114,0.051-0.313,0.114-0.598,0.114c-0.547,0-0.879-0.364-0.879-0.897c0-0.541,0.321-0.963,0.842-0.963
		c0.583,0,0.734,0.511,0.734,0.838c0,0.066-0.003,0.118-0.011,0.154L13.389,10.245z M14.338,10.013
		c0.004-0.202-0.085-0.526-0.447-0.526c-0.332,0-0.473,0.302-0.498,0.526H14.338z"/>
	<path d="M15.447,8.873V9.3h0.465v0.246h-0.465v0.96c0,0.221,0.063,0.346,0.243,0.346c0.089,0,0.141-0.007,0.188-0.022l0.015,0.246
		c-0.063,0.022-0.162,0.044-0.288,0.044c-0.151,0-0.272-0.052-0.351-0.136c-0.089-0.099-0.125-0.257-0.125-0.467V9.546h-0.277V9.3
		h0.277V8.973L15.447,8.873z"/>
	<path d="M16.249,10.69c0.144,0.092,0.351,0.162,0.572,0.162c0.328,0,0.521-0.169,0.521-0.423c0-0.228-0.133-0.364-0.469-0.489
		c-0.406-0.147-0.657-0.36-0.657-0.706c0-0.386,0.321-0.673,0.805-0.673c0.251,0,0.439,0.059,0.547,0.122l-0.089,0.261
		c-0.077-0.048-0.244-0.118-0.469-0.118c-0.34,0-0.469,0.203-0.469,0.372c0,0.231,0.151,0.346,0.494,0.478
		c0.421,0.166,0.632,0.364,0.632,0.728c0,0.382-0.281,0.717-0.868,0.717c-0.24,0-0.502-0.074-0.635-0.162L16.249,10.69z"/>
	<path d="M18.843,11.12c-0.48,0-0.856-0.353-0.856-0.916c0-0.596,0.395-0.945,0.886-0.945c0.514,0,0.86,0.372,0.86,0.912
		c0,0.662-0.461,0.949-0.886,0.949H18.843z M18.854,10.877c0.311,0,0.543-0.291,0.543-0.695c0-0.301-0.151-0.68-0.535-0.68
		c-0.381,0-0.547,0.353-0.547,0.691c0,0.39,0.222,0.684,0.535,0.684H18.854z"/>
	<path d="M20.173,11.08V9.546h-0.247V9.3h0.247V9.215c0-0.25,0.06-0.478,0.211-0.622c0.122-0.118,0.284-0.166,0.432-0.166
		c0.118,0,0.215,0.026,0.277,0.051l-0.041,0.25C21,8.708,20.938,8.689,20.842,8.689c-0.273,0-0.348,0.243-0.348,0.515V9.3h0.433
		v0.246h-0.429v1.534H20.173z"/>
	<path d="M21.655,8.873V9.3h0.465v0.246h-0.465v0.96c0,0.221,0.063,0.346,0.243,0.346c0.089,0,0.141-0.007,0.188-0.022l0.015,0.246
		c-0.063,0.022-0.162,0.044-0.288,0.044c-0.151,0-0.272-0.052-0.351-0.136c-0.089-0.099-0.125-0.257-0.125-0.467V9.546h-0.277V9.3
		h0.277V8.973L21.655,8.873z"/>
</g>
</svg>
