<?xml version="1.0" encoding="utf-8"?>
<!-- Generator: Adobe Illustrator 15.1.0, SVG Export Plug-In . SVG Version: 6.00 Build 0)  -->
<!DOCTYPE svg PUBLIC "-//W3C//DTD SVG 1.1//EN" "http://www.w3.org/Graphics/SVG/1.1/DTD/svg11.dtd">
<svg version="1.1" id="Layer_1" xmlns="http://www.w3.org/2000/svg" xmlns:xlink="http://www.w3.org/1999/xlink" x="0px" y="0px"
	 width="24px" height="24px" viewBox="-0.5 -0.5 24 24" enable-background="new -0.5 -0.5 24 24" xml:space="preserve">
<path d="M3.521,9.802c0,0,0.054-0.303,0.352-0.502c1.253-0.836,4.69-3.794,7.074-1.408c1.934,1.939,2.29,1.701,3.535,1.733
	c1.268,0.035,2.574-0.64,3.561-0.979c0.373-0.128,0.329-0.218,0.602-0.13c0.018,0.002-0.008,0.099-0.009,0.122
	c-0.01,0.275-0.487,0.875-2.583,1.962c0,0-0.005,0.958-0.005,0.995c0,0.035,0.824-0.267,1.29-0.503
	c0.171-0.087,0.364-0.046,0.364-0.017c0,0.087-0.024,0.279-0.223,0.503c-0.358,0.405-1.118,0.845-1.438,1.051
	c0,0,0.006,0.574,0.006,1.15c0,0.014,0.185-0.057,0.313-0.121c0.076-0.038,0.287-0.019,0.293,0.024c0.078,0.77-2.828,2.242-3.6,2.53
	c-1.901,0.705-3.213-0.076-3.502-0.39c-0.273-0.293-0.903-0.734-1.232-1.044c-1.566-1.461-3.779-0.748-4.873-0.441
	c-0.36,0.099-0.824,0.324-1.255,0.525c-0.244,0.113-0.368,0.14-0.69,0.015c0,0,0.115-0.313,0.311-0.468
	c0.151-0.117,0.434-0.298,0.53-0.355c1.111-0.691,2.655-1.934,4.741-1.905c1.34,0.019,1.977,1.53,3.724,2.416
	c0.898,0.453,1.94,0.211,1.94,0.211V13.86c0,0-1.188,0.122-1.916-0.41c-0.316-0.231-0.519-0.422-0.704-0.58
	c-1.403-1.176-1.935-1.66-2.95-1.667c-0.692-0.004-1.669,0.012-3.306,0.788c-0.816,0.39-0.926,0.444-1.311,0.286
	c0,0,0.143-0.429,0.511-0.604c0.09-0.044,0.668-0.463,0.901-0.616c1.036-0.665,2.399-1.582,3.771-1.503
	c0.636,0.037,1.354-0.141,2.964,1.539c1.15,1.197,2.046,1.059,2.046,1.059l-0.011-0.866c0,0-0.023-0.012-0.042-0.014
	c-0.725-0.061-1.34-0.78-2.362-1.641c-0.012-0.01-0.023-0.024-0.036-0.036c-2.129-1.94-4.247-0.588-5.603-0.016
	C3.796,9.956,3.521,9.802,3.521,9.802z"/>
<ellipse cx="20.793" cy="8.171" rx="0.707" ry="0.783"/>
<ellipse cx="14.363" cy="7.576" rx="1.884" ry="1.076"/>
</svg>
