<?xml version="1.0" encoding="utf-8"?>
<!-- Generator: Adobe Illustrator 15.1.0, SVG Export Plug-In . SVG Version: 6.00 Build 0)  -->
<!DOCTYPE svg PUBLIC "-//W3C//DTD SVG 1.1//EN" "http://www.w3.org/Graphics/SVG/1.1/DTD/svg11.dtd">
<svg version="1.1" id="Layer_1" xmlns="http://www.w3.org/2000/svg" xmlns:xlink="http://www.w3.org/1999/xlink" x="0px" y="0px"
	 width="24px" height="24px" viewBox="0.458 0.5 24 24" enable-background="new 0.458 0.5 24 24" xml:space="preserve">
<path d="M5.459,15.501c0,3.866,3.134,7,7,7c3.867,0,7-3.134,7-7c0-1.04-0.24-2.061-0.68-3c0.439-0.94,0.68-1.96,0.68-3.001
	c0-3.865-3.133-7-7-7c-3.866,0-7,3.135-7,7c0,1.041,0.24,2.061,0.68,3.001C5.699,13.44,5.459,14.461,5.459,15.501 M7.459,15.501
	c0-0.34,0.03-0.67,0.1-1c1.31,1.279,3.07,2,4.9,2s3.59-0.721,4.891-2c0.07,0.33,0.109,0.66,0.109,1c0,2.761-2.238,5-5,5
	C9.698,20.501,7.459,18.262,7.459,15.501 M7.459,9.5c0-2.762,2.239-5,5-5c2.762,0,5,2.238,5,5c0,0.34-0.029,0.67-0.1,1
	c-1.311-1.279-3.07-2-4.9-2s-3.59,0.721-4.89,2C7.499,10.17,7.459,9.84,7.459,9.5z"/>
</svg>
