<?xml version="1.0" encoding="utf-8"?>
<!-- Generator: Adobe Illustrator 15.1.0, SVG Export Plug-In . SVG Version: 6.00 Build 0)  -->
<!DOCTYPE svg PUBLIC "-//W3C//DTD SVG 1.1//EN" "http://www.w3.org/Graphics/SVG/1.1/DTD/svg11.dtd">
<svg version="1.1" id="Layer_1" xmlns="http://www.w3.org/2000/svg" xmlns:xlink="http://www.w3.org/1999/xlink" x="0px" y="0px"
	 width="24px" height="24px" viewBox="-0.5 -0.5 24 24" enable-background="new -0.5 -0.5 24 24" xml:space="preserve">
<g>
	<path fill="none" d="M20.137,19.442c0.15-0.12,0.363-0.439,0.363-0.942c0-0.646-0.355-1-0.473-1h-1.137
		C19.07,18.519,19.521,19.241,20.137,19.442z"/>
	<path fill="none" d="M11.321,5.5c-0.119-0.304-0.185-0.639-0.185-1s0.066-0.696,0.185-1H3.627C3.005,3.5,2.5,3.949,2.5,4.5
		s0.505,1,1.127,1H11.321z"/>
	<path fill="none" d="M16.8,16.5v-10c0-1.878-1.017-3-2-3c-0.106,0-0.204-0.03-0.3-0.061V3.5c-0.658,0-1.364,0.402-1.364,1
		s0.706,1,1.364,1v2h-9v9c0,1.948,1.236,3,2.4,3h9.571C17.047,18.685,16.8,17.667,16.8,16.5z"/>
	<path d="M22.5,18.5c0-1.654-1.109-3-2.473-3H18.8v-9c0-3.13-2.034-5-4-5c-0.106,0-0.204,0.03-0.3,0.061V1.5H3.627
		C1.903,1.5,0.5,2.846,0.5,4.5c0,1.613,1.336,2.922,3,2.988V16.5c0,3.13,2.237,5,4.4,5h12.127c0.08,0,0.155-0.02,0.233-0.028
		c0.081,0.006,0.156,0.028,0.239,0.028c0.345,0,0.634-0.185,0.813-0.45C22.021,20.521,22.5,19.581,22.5,18.5z M20.5,18.5
		c0,0.503-0.213,0.822-0.363,0.942c-0.615-0.201-1.066-0.924-1.246-1.942h1.137C20.145,17.5,20.5,17.854,20.5,18.5z M2.5,4.5
		c0-0.551,0.505-1,1.127-1h7.694c-0.119,0.304-0.185,0.639-0.185,1s0.066,0.696,0.185,1H3.627C3.005,5.5,2.5,5.051,2.5,4.5z
		 M5.5,16.5v-9h9v-2c-0.658,0-1.364-0.402-1.364-1s0.706-1,1.364-1V3.439C14.596,3.47,14.693,3.5,14.8,3.5c0.983,0,2,1.122,2,3v10
		c0,1.167,0.247,2.185,0.671,3H7.9C6.736,19.5,5.5,18.448,5.5,16.5z"/>
</g>
<g>
	<path d="M8.879,9.417h1.571v5.505c0,2.326-1.127,2.674-2.267,2.674c-0.324,0-0.624-0.048-0.792-0.119l0.132-1.32
		c0.144,0.049,0.312,0.061,0.516,0.061c0.456,0,0.84-0.18,0.84-1.224V9.417z"/>
	<path d="M11.567,15.893c0.324,0.18,0.888,0.313,1.331,0.313c0.731,0,1.104-0.385,1.104-0.912c0-0.588-0.359-0.875-1.043-1.318
		c-1.104-0.672-1.523-1.524-1.523-2.255c0-1.295,0.863-2.375,2.543-2.375c0.539,0,1.043,0.144,1.271,0.288l-0.251,1.355
		c-0.229-0.144-0.576-0.276-1.02-0.276c-0.672,0-0.996,0.408-0.996,0.839c0,0.48,0.24,0.731,1.104,1.259
		c1.079,0.647,1.463,1.463,1.463,2.314c0,1.476-1.091,2.447-2.662,2.447c-0.647,0-1.271-0.168-1.547-0.324L11.567,15.893z"/>
</g>
</svg>
