<?xml version="1.0" encoding="utf-8"?>
<!-- Generator: Adobe Illustrator 15.1.0, SVG Export Plug-In . SVG Version: 6.00 Build 0)  -->
<!DOCTYPE svg PUBLIC "-//W3C//DTD SVG 1.1//EN" "http://www.w3.org/Graphics/SVG/1.1/DTD/svg11.dtd">
<svg version="1.1" id="Layer_1" xmlns="http://www.w3.org/2000/svg" xmlns:xlink="http://www.w3.org/1999/xlink" x="0px" y="0px"
	 width="48px" height="48px" viewBox="0 0 48 48" enable-background="new 0 0 48 48" xml:space="preserve">
<rect x="4" y="20" width="6" height="8"/>
<rect x="38" y="4" width="6" height="8"/>
<rect x="38" y="14" width="6" height="8"/>
<rect x="22" y="10" width="6" height="8"/>
<rect x="22" y="30" width="6" height="8"/>
<rect x="38" y="36" width="6" height="8"/>
<rect x="38" y="26" width="6" height="8"/>
<polygon points="40,41 33.52,41 28.72,35 33.52,29 40,29 40,31 34.48,31 31.28,35 34.48,39 40,39 "/>
<polygon points="40,19 33.52,19 28.72,13 33.52,7 40,7 40,9 34.48,9 31.28,13 34.48,17 40,17 "/>
<polygon points="24,35 17.434,35 10.834,24 17.434,13 24,13 24,15 18.566,15 13.166,24 18.566,33 24,33 "/>
</svg>
