<?xml version="1.0" encoding="utf-8"?>
<!-- Generator: Adobe Illustrator 15.1.0, SVG Export Plug-In . SVG Version: 6.00 Build 0)  -->
<!DOCTYPE svg PUBLIC "-//W3C//DTD SVG 1.1//EN" "http://www.w3.org/Graphics/SVG/1.1/DTD/svg11.dtd">
<svg version="1.1" id="Layer_1" xmlns="http://www.w3.org/2000/svg" xmlns:xlink="http://www.w3.org/1999/xlink" x="0px" y="0px"
	 width="24px" height="24px" viewBox="-0.5 -0.5 24 24" enable-background="new -0.5 -0.5 24 24" xml:space="preserve">
<polygon points="11.299,15 10,15 9.601,15 9.601,16.563 9.6,16.563 9.6,18 11.3,18 11.3,16.438 11.299,16.438 "/>
<path d="M19.8,5.5H6.2c-0.935,0-1.7,0.758-1.7,1.684v12.63c0,0.928,0.766,1.686,1.7,1.686h13.6c0.935,0,1.7-0.758,1.7-1.686V7.184
	C21.5,6.258,20.734,5.5,19.8,5.5z M19.8,10.553v0.842h-0.012v1.684H19.8v2.526v1.684v0.843v1.685H16.4v-0.008h-1.7v0.008h-3.4V19
	H9.6v0.816H6.2v-1.686v-0.843v-1.685v-2.525H7h1v-1.684H7H6.2v-0.842V8.869h3.4v1.172h0.001V11v0.013v1.549H9.6V14h1.7v-1.563
	h-0.001v-1.424V11V9.958H11.3V8.869h3.4v0.008h1.7V8.869H19.8V10.553z"/>
<path d="M18.5,5.458V3.184c0-0.926-0.766-1.684-1.7-1.684H3.2c-0.935,0-1.7,0.758-1.7,1.684v12.63c0,0.858,0.66,1.563,1.5,1.664
	V3.25h14v2.208H18.5z"/>
<path d="M17.3,11.145c-0.55-0.05-1.035,0.355-1.085,0.91L16.09,13.5h1.41v1H16l-0.22,2.535c-0.095,1.1-1.065,1.915-2.165,1.814
	c-0.655-0.055-1.205-0.42-1.53-0.935l0.75-0.75c0.12,0.37,0.45,0.655,0.865,0.69c0.55,0.05,1.035-0.355,1.085-0.91L15,14.5h-1.5v-1
	h1.585l0.135-1.535c0.095-1.1,1.065-1.915,2.165-1.815c0.655,0.055,1.205,0.42,1.53,0.935l-0.75,0.75
	C18.045,11.465,17.715,11.18,17.3,11.145z"/>
<rect x="11.146" y="11.354" width="1.313" height="1.772"/>
</svg>
