<?xml version="1.0" encoding="utf-8"?>
<!-- Generator: Adobe Illustrator 15.1.0, SVG Export Plug-In . SVG Version: 6.00 Build 0)  -->
<!DOCTYPE svg PUBLIC "-//W3C//DTD SVG 1.1//EN" "http://www.w3.org/Graphics/SVG/1.1/DTD/svg11.dtd">
<svg version="1.1" id="Layer_1" xmlns="http://www.w3.org/2000/svg" xmlns:xlink="http://www.w3.org/1999/xlink" x="0px" y="0px"
	 width="24px" height="24px" viewBox="-0.5 -0.5 24 24" enable-background="new -0.5 -0.5 24 24" xml:space="preserve">
<path fill="none" d="M14.7,12.38v-1.365v-0.349v-0.114V8.869h-3.4v1.089h-0.001V11v0.013v1.424H11.3v0.646h3.4V12.38z M12.375,13
	v-1.617h1.299V13H12.375z"/>
<path fill="none" d="M16.4,8.869v1.193h-0.002v0.604V11v0.015v1.23v0.839h2.56V14.5H7.542v-1.416H9.6v-0.521h0.001v-1.549V11v-0.958
	H9.6V8.869H6.2v1.684v0.842H7h1v1.684H7H6.2v2.526v1.684v0.843v1.685h1.3v-1.275h11v1.275h1.3v-1.686v-0.843v-1.685v-2.525H18
	v-1.684h1.8v-0.842V8.869H16.4z M11.3,18H9.6v-1.438h0.001V15H10h1.299v1.438H11.3V18z M16.4,18h-0.002H14.7v-1.438V15H15.1h1.299
	v1.438H16.4V18z"/>
<polygon fill="none" points="7.542,14.5 18.958,14.5 18.958,13.084 16.398,13.084 16.398,13.959 14.7,13.959 14.7,13.084 
	11.3,13.084 11.3,14 9.6,14 9.6,13.084 7.542,13.084 "/>
<polygon fill="none" points="7.5,18.541 7.5,19.816 9.6,19.816 9.6,19 11.3,19 11.3,19.816 14.7,19.816 14.7,19 16.4,19 
	16.4,19.816 18.5,19.816 18.5,18.541 "/>
<rect x="7.917" y="11.383" width="10.298" height="1.7"/>
<polygon points="9.499,14.5 8.2,14.5 7.801,14.5 7.801,16.063 7.8,16.063 7.8,17.5 9.5,17.5 9.5,15.938 9.499,15.938 "/>
<path d="M19.8,5.5H6.2c-0.935,0-1.7,0.758-1.7,1.684v12.63c0,0.928,0.766,1.686,1.7,1.686h13.6c0.935,0,1.7-0.758,1.7-1.686V7.184
	C21.5,6.258,20.734,5.5,19.8,5.5z M19.8,10.553v0.842H18v1.684h1.8v2.526v1.684v0.843v1.685h-1.3v0.017h-11v-0.017H6.2v-1.686
	v-0.843v-1.685v-2.525H7h1v-1.684H7H6.2v-0.842V8.869h3.4v1.172h0.001V11v0.013v1.549H9.6v0.521h1.7v-0.646h-0.001v-1.424V11V9.958
	H11.3V8.869h3.4v1.684v0.114v0.349v1.365v0.703h1.698v-0.838v-1.23V11v-0.333v-0.604H16.4V8.869H19.8V10.553z"/>
<path d="M17,5.458h1.5V3.184c0-0.926-0.766-1.684-1.7-1.684H3.2c-0.935,0-1.7,0.758-1.7,1.684v12.63c0,0.858,0.66,1.563,1.5,1.664
	V3.25h14V5.458z"/>
<polygon points="18.25,14.5 16.951,14.5 16.552,14.5 16.552,16.063 16.552,17.5 18.25,17.5 18.25,15.938 18.25,15.938 "/>
<polygon points="14,14.5 12.701,14.5 12.302,14.5 12.302,16.063 12.302,17.5 14,17.5 14,15.938 14,15.938 "/>
</svg>
