<?xml version="1.0" encoding="UTF-8" standalone="no"?>
<!-- Generator: Adobe Illustrator 15.1.0, SVG Export Plug-In . SVG Version: 6.00 Build 0)  -->

<svg
   xmlns:osb="http://www.openswatchbook.org/uri/2009/osb"
   xmlns:dc="http://purl.org/dc/elements/1.1/"
   xmlns:cc="http://creativecommons.org/ns#"
   xmlns:rdf="http://www.w3.org/1999/02/22-rdf-syntax-ns#"
   xmlns:svg="http://www.w3.org/2000/svg"
   xmlns="http://www.w3.org/2000/svg"
   xmlns:sodipodi="http://sodipodi.sourceforge.net/DTD/sodipodi-0.dtd"
   xmlns:inkscape="http://www.inkscape.org/namespaces/inkscape"
   version="1.1"
   id="Layer_1"
   x="0px"
   y="0px"
   width="24px"
   height="24px"
   viewBox="-0.5 -1.5 24 24"
   enable-background="new -0.5 -1.5 24 24"
   xml:space="preserve"
   sodipodi:docname="materialized-viewsheet.svg"
   inkscape:version="0.92.3 (2405546, 2018-03-11)"><metadata
   id="metadata8193"><rdf:RDF><cc:Work
       rdf:about=""><dc:format>image/svg+xml</dc:format><dc:type
         rdf:resource="http://purl.org/dc/dcmitype/StillImage" /></cc:Work></rdf:RDF></metadata><defs
   id="defs8191"><linearGradient
     id="linearGradient5227"
     osb:paint="solid"><stop
       style="stop-color:#000000;stop-opacity:1;"
       offset="0"
       id="stop5225" /></linearGradient></defs><sodipodi:namedview
   pagecolor="#ffffff"
   bordercolor="#666666"
   borderopacity="1"
   objecttolerance="10"
   gridtolerance="10"
   guidetolerance="10"
   inkscape:pageopacity="0"
   inkscape:pageshadow="2"
   inkscape:window-width="2560"
   inkscape:window-height="1377"
   id="namedview8189"
   showgrid="false"
   inkscape:zoom="1"
   inkscape:cx="6.921875"
   inkscape:cy="12"
   inkscape:window-x="1272"
   inkscape:window-y="-8"
   inkscape:window-maximized="1"
   inkscape:current-layer="Layer_1" />
<rect
   x="12.5"
   y="1.5"
   width="8"
   height="5.232233"
   id="rect8176"
   style="stroke-width:0.86455876" />


<rect
   x="1.5"
   y="13.5"
   width="6.232233"
   height="6"
   id="rect8182"
   style="stroke-width:0.8826263" />
<rect
   x="1.5"
   y="1.5"
   width="8"
   height="10"
   id="rect8184" />

<g
   id="g941"
   transform="matrix(0.69309602,0,0,0.69309602,9.8198598,8.5572577)"><path
     id="path925"
     d="M 15.854,3.146 C 14.228,1.514 11.982,0.5 9.5,0.5 c -4.963,0 -9,4.038 -9,9 h 2 c 0,-3.86 3.141,-7 7,-7 1.931,0 3.666,0.799 4.931,2.069 L 11.5,7.5 h 7 v -7 z"
     inkscape:connector-curvature="0" /><path
     id="path927"
     d="m 16.5,9.5 c 0,3.859 -3.141,7 -7,7 -1.931,0 -3.666,-0.799 -4.932,-2.068 L 7.5,11.5 h -7 v 7 L 3.146,15.854 C 4.773,17.486 7.018,18.5 9.5,18.5 c 4.963,0 9,-4.037 9,-9 z"
     inkscape:connector-curvature="0" /><polyline
     id="polyline929"
     points="8.5,5.6 8.5,10.709 13.21,13.5 14,12.22 10,9.85 10,5.6 " /></g></svg>