<?xml version="1.0" encoding="utf-8"?>
<!-- Generator: Adobe Illustrator 18.1.1, SVG Export Plug-In . SVG Version: 6.00 Build 0)  -->
<svg xmlns="http://www.w3.org/2000/svg" xmlns:xlink="http://www.w3.org/1999/xlink" version="1.1" id="Слой_1" x="0px" y="0px" viewBox="0 0 24 24" enable-background="new 0 0 24 24" xml:space="preserve" width="24px" height="24px">
<path d="M20,12c-0.4,0.5-3.5,1-9,1c-3.8,0-7-1.8-7-4c0-3.3,3.3-4,9-4c2.2,0,4,0.5,4.7,1.3C17.9,6.5,18,6.7,18,7c0,1.9-4.2,2-5,2  c-2,0-2.9-0.5-3-0.6C10.3,8,12.5,8,13.5,8L14,8V6l-0.5,0C11.1,6,8,6,8,8.3C8,10,9.9,11,13,11c4.4,0,7-1.5,7-4c0-0.8-0.3-1.5-0.9-2.1  C18,3.7,15.8,3,13,3C8.9,3,2,3,2,9v7c0,3.4,4,6,9,6c3.3,0,11-0.3,11-3v-7C22,12,20,12,20,12z M20,18.8c-0.3,0.2-1,0.4-2,0.6V18h-2  v1.7c-0.3,0-0.7,0.1-1,0.1V16h-2v4c-0.3,0-0.7,0-1,0v-2h-2v2c-0.3,0-0.7-0.1-1-0.1V16H7v3.3c-1.8-0.7-3-1.9-3-3.3v-3.2  c1.6,1.3,4.1,2.2,7,2.2c2.2,0,6.5-0.1,9-1.1V18.8z"/>
</svg>
