<?xml version="1.0" encoding="utf-8"?>
<!-- Generator: Adobe Illustrator 15.1.0, SVG Export Plug-In . SVG Version: 6.00 Build 0)  -->
<!DOCTYPE svg PUBLIC "-//W3C//DTD SVG 1.1//EN" "http://www.w3.org/Graphics/SVG/1.1/DTD/svg11.dtd">
<svg version="1.1" id="Layer_1" xmlns="http://www.w3.org/2000/svg" xmlns:xlink="http://www.w3.org/1999/xlink" x="0px" y="0px"
	 width="24px" height="24px" viewBox="0 0 24 24" enable-background="new 0 0 24 24" xml:space="preserve">
<path d="M3.5,12.001c0-2.791,1.64-5.201,4-6.321V3.5c-3.5,1.26-6,4.59-6,8.501s2.5,7.241,6,8.5V18.32
	C5.14,17.201,3.5,14.791,3.5,12.001"/>
<path d="M15.479,20.578c-4.417,0-8.014-3.838-8.014-8.556c0-4.718,3.595-8.557,8.014-8.557c4.42,0,8.016,3.839,8.016,8.557
	C23.494,16.74,19.896,20.578,15.479,20.578z M15.479,5.535c-3.276,0-5.942,2.91-5.942,6.487c0,3.578,2.666,6.486,5.942,6.486
	c3.277,0,5.944-2.908,5.944-6.486C21.423,8.445,18.756,5.535,15.479,5.535z"/>
<path d="M20.015,17.6l1.319-0.938l-3.19-2.276l-1.321,0.94 M11.125,9.324h3.274v3.727l-5.064,3.611l1.322,0.938l5.614-4.002V9.324
	h3.274l-4.21-3"/>
</svg>
