<?xml version="1.0" encoding="utf-8"?>
<!-- Generator: Adobe Illustrator 15.1.0, SVG Export Plug-In . SVG Version: 6.00 Build 0)  -->
<!DOCTYPE svg PUBLIC "-//W3C//DTD SVG 1.1//EN" "http://www.w3.org/Graphics/SVG/1.1/DTD/svg11.dtd">
<svg version="1.1" id="Layer_1" xmlns="http://www.w3.org/2000/svg" xmlns:xlink="http://www.w3.org/1999/xlink" x="0px" y="0px"
	 width="24px" height="24px" viewBox="-0.5 -0.5 24 24" enable-background="new -0.5 -0.5 24 24" xml:space="preserve">
<path d="M4.5,8.5c0,1.04,0.24,2.061,0.68,3c-0.44,0.939-0.68,1.959-0.68,3c0,3.865,3.134,7,7,7c3.865,0,7-3.135,7-7
	c0-1.041-0.241-2.061-0.68-3c0.439-0.939,0.68-1.96,0.68-3c0-3.866-3.135-7-7-7C7.634,1.5,4.5,4.634,4.5,8.5 M6.5,14.5
	c0-0.34,0.04-0.67,0.11-1c1.3,1.279,3.06,2,4.89,2s3.589-0.721,4.9-2c0.068,0.33,0.1,0.66,0.1,1c0,2.762-2.238,5-5,5
	C8.739,19.5,6.5,17.262,6.5,14.5 M11.5,9.5c1.57,0,3.049,0.74,4,2c-0.951,1.26-2.43,2-4,2c-1.57,0-3.05-0.74-4-2
	C8.45,10.24,9.93,9.5,11.5,9.5z"/>
</svg>
