<?xml version="1.0" encoding="utf-8"?>
<!-- Generator: Adobe Illustrator 15.1.0, SVG Export Plug-In . SVG Version: 6.00 Build 0)  -->
<!DOCTYPE svg PUBLIC "-//W3C//DTD SVG 1.1//EN" "http://www.w3.org/Graphics/SVG/1.1/DTD/svg11.dtd">
<svg version="1.1" id="Layer_1" xmlns="http://www.w3.org/2000/svg" xmlns:xlink="http://www.w3.org/1999/xlink" x="0px" y="0px"
	 width="24px" height="24px" viewBox="0 -0.5 24 24" enable-background="new 0 -0.5 24 24" xml:space="preserve">
<path d="M20,21.5h-5c-1.159,0-2-0.841-2-2v-11c0-1.159,0.841-2,2-2h5c1.159,0,2,0.841,2,2v11C22,20.659,21.159,21.5,20,21.5z
	 M15,8.5v11h5c0.035,0,0.05-0.005,0.05-0.005L20,8.5H15z"/>
<path d="M20,20.5h-5c-0.6,0-1-0.4-1-1v-1h7v1C21,20.1,20.6,20.5,20,20.5z"/>
<path d="M11,19.5H4c-1.159,0-2-0.841-2-2v-14c0-1.159,0.841-2,2-2h11v2H4v14h7V19.5z"/>
<path d="M11,16.5v2H4c-0.6,0-1-0.4-1-1v-1H11z"/>
</svg>
