<?xml version="1.0" encoding="utf-8"?>
<!-- Generator: Adobe Illustrator 15.1.0, SVG Export Plug-In . SVG Version: 6.00 Build 0)  -->
<!DOCTYPE svg PUBLIC "-//W3C//DTD SVG 1.1//EN" "http://www.w3.org/Graphics/SVG/1.1/DTD/svg11.dtd">
<svg version="1.1" id="Layer_1" xmlns="http://www.w3.org/2000/svg" xmlns:xlink="http://www.w3.org/1999/xlink" x="0px" y="0px"
	 width="24px" height="24px" viewBox="-0.5 -0.5 24 24" enable-background="new -0.5 -0.5 24 24" xml:space="preserve">
<rect x="11.5" y="3.5" width="10" height="2"/>
<rect x="11.5" y="7.5" width="7" height="2"/>
<rect x="11.5" y="13.5" width="10" height="2"/>
<rect x="11.5" y="17.5" width="7" height="2"/>
<path d="M5.5,2.5c-2.222,0-4,1.778-4,4s1.778,4,4,4s4-1.778,4-4S7.722,2.5,5.5,2.5z M6.311,8.5L5.999,7.462H4.841L4.553,8.5H3.612
	l1.229-4.042h1.199L7.3,8.5H6.311z"/>
<path d="M1.5,12.5v8h8v-8H1.5z M6.581,18.191c-0.294,0.234-0.786,0.365-1.589,0.365c-0.45,0-0.786-0.029-0.989-0.059v-3.971
	c0.24-0.041,0.719-0.084,1.181-0.084c0.558,0,0.899,0.055,1.199,0.229c0.282,0.15,0.48,0.426,0.48,0.797
	c0,0.354-0.21,0.684-0.666,0.857v0.012C6.658,16.459,7,16.813,7,17.328C7,17.699,6.832,17.988,6.581,18.191z"/>
<path d="M5.411,5.142H5.399c-0.06,0.24-0.12,0.546-0.186,0.78l-0.24,0.857h0.894L5.615,5.921C5.543,5.682,5.471,5.382,5.411,5.142z"
	/>
<path d="M5.297,15.109c-0.204,0-0.318,0.012-0.39,0.023v0.941h0.3c0.486,0,0.738-0.197,0.738-0.498
	C5.945,15.271,5.711,15.109,5.297,15.109z"/>
<path d="M5.219,16.729H4.907v1.139c0.09,0.012,0.198,0.012,0.354,0.012c0.414,0,0.779-0.16,0.779-0.586
	C6.041,16.891,5.675,16.729,5.219,16.729z"/>
</svg>
