<svg width="24" height="24" xmlns="http://www.w3.org/2000/svg">

 <g>
  <title>background</title>
  <rect fill="none" id="canvas_background" height="402" width="582" y="-1" x="-1"/>
 </g>
 <g>
  <title>Layer 1</title>
  <path id="svg_1" d="m14.7,12.38l0,-1.365l0,-0.349l0,-0.114l0,-1.683l-3.4,0l0,1.089l-0.001,0l0,1.042l0,0.013l0,1.424l0.001,0l0,0.646l3.4,0l0,-0.703zm-2.325,0.62l0,-1.617l1.299,0l0,1.617l-1.299,0z" fill="none"/>
  <path id="svg_2" d="m16.4,8.869l0,1.193l-0.002,0l0,0.604l0,0.334l0,0.015l0,1.23l0,0.839l2.56,0l0,1.416l-11.416,0l0,-1.416l2.058,0l0,-0.521l0.001,0l0,-1.549l0,-0.014l0,-0.958l-0.001,0l0,-1.173l-3.4,0l0,1.684l0,0.842l0.8,0l1,0l0,1.684l-1,0l-0.8,0l0,2.526l0,1.684l0,0.843l0,1.685l1.3,0l0,-1.275l11,0l0,1.275l1.3,0l0,-1.686l0,-0.843l0,-1.685l0,-2.525l-1.8,0l0,-1.684l1.8,0l0,-0.842l0,-1.683l-3.4,0zm-5.1,9.131l-1.7,0l0,-1.438l0.001,0l0,-1.562l0.399,0l1.299,0l0,1.438l0.001,0l0,1.562zm5.1,0l-0.002,0l-1.698,0l0,-1.438l0,-1.562l0.4,0l1.299,0l0,1.438l0.001,0l0,1.562z" fill="none"/>
  <polygon id="svg_3" points="7.542,14.5 18.958,14.5 18.958,13.084 16.398,13.084 16.398,13.959 14.7,13.959 14.7,13.084   11.3,13.084 11.3,14 9.6,14 9.6,13.084 7.542,13.084 " fill="none"/>
  <polygon id="svg_4" points="7.5,18.541 7.5,19.816 9.6,19.816 9.6,19 11.3,19 11.3,19.816 14.7,19.816 14.7,19 16.4,19   16.4,19.816 18.5,19.816 18.5,18.541 " fill="none"/>
  <rect stroke="null" id="svg_5" height="1.747148" width="11.47669" y="9.63854" x="4.946702"/>
  <polygon id="svg_6" points="7.99027681350708,12.18976879119873 6.691277503967285,12.18976879119873 6.292277812957764,12.18976879119873 6.292277812957764,13.752767562866211 6.291277885437012,13.752767562866211 6.291277885437012,15.189769744873047 7.99127721786499,15.189769744873047 7.99127721786499,13.627768516540527 7.99027681350708,13.627768516540527 "/>
  <path stroke="null" id="svg_7" d="m16.433664,4.934229l-11.110609,0c-0.763854,0 -1.388826,0.639618 -1.388826,1.420999l0,10.657493c0,0.783068 0.625789,1.422687 1.388826,1.422687l0.694413,0l0.694413,0l0.694413,0l0.694413,0l0.694413,0l4.166479,0l-3.472065,0l4.860891,0l-4.166478,0l5.555304,0l-4.860891,0l0.694413,0l0.694413,0l1.388826,0l1.388826,0l2.777652,-1.755734l0,-0.333046l0,-0.333047l0,-0.333047l0,-1.332186l0,-1.332187l0,-5.328746l0,3.996559l0,-1.332186l0,-1.332187l0,-2.664373c0,-0.781381 -0.625789,-1.420999 -1.388826,-1.420999zm0,4.97434l-1.470522,0l-0.047148,1.421l1.51767,0l0,2.131498l0,1.420999l0,0.711344l0,1.421842l-1.062044,0l0,0.014346l-8.986521,0l0,-0.014346l-1.062044,0l0,-1.422686l0,-0.711344l0,-1.421842l0,-2.130655l0.653565,0l0.816957,0l0,-1.420999l-0.816957,0l-0.653565,0l0,-0.7105l0,-1.420155l2.777652,0l0,0.988961l0.000817,0l0,0.809227l0.023574,0.123354l0.023574,0.123355l1.340044,0.036177l0,-1.16215l0.000817,0l0,-0.918924l2.777653,0l0,1.420999l0,0.096196l0,0.388789l1.387192,0.000001l0,-0.38879l0,-0.50967l0.001634,0l0,-1.007525l2.777652,0l0,2.131498l0,0l0,0l0,0l0,0l0,0l0,0l0,0l0,0l0,0l0,0l0,0l0,0l0,0l0,0l0,0l0,0l0,0l0,0l0,0l0,0l0,0l0,0l0,0l0,0l0,0l0,0l0,0l0,0zl0,-0.710499"/>
  <path stroke="null" id="svg_8" d="m15.194525,4.990832l1.325277,0l0,-2.005597c0,-0.816703 -0.676775,-1.485235 -1.50198,-1.485235l-12.015841,0c-0.826089,0 -1.50198,0.668532 -1.50198,1.485235l0,11.139266c0,0.756729 0.583122,1.378517 1.325277,1.467596l0,-12.548652l12.369248,0l0,1.947387z"/>
  <polygon id="svg_9" points="14.996818542480469,12.18976879119873 13.697816848754883,12.18976879119873 13.29881763458252,12.18976879119873 13.29881763458252,13.752769470214844 13.29881763458252,15.18976879119873 14.996818542480469,15.18976879119873 14.996818542480469,13.627768516540527 14.996818542480469,13.627768516540527 "/>
  <polygon id="svg_10" points="11.595474421977997,12.18976879119873 10.296474635601044,12.18976879119873 9.897474467754364,12.18976879119873 9.897474467754364,13.752768516540527 9.897474467754364,15.189766883850098 11.595474421977997,15.189766883850098 11.595474421977997,13.627768516540527 11.595474421977997,13.627768516540527 "/>
  <polygon stroke="null" id="svg_11" points="19.052814483642578,14.613037109375 17.475603103637695,17.82048225402832 14.005545616149902,19.277732849121094 17.475603103637695,20.735916137695312 19.052814483642578,23.942428588867188 20.63094711303711,20.735916137695312 24.098247528076172,19.277732849121094 20.63094711303711,17.82048225402832 "/>
 </g>
</svg>