<svg width="24" height="24" xmlns="http://www.w3.org/2000/svg">

 <g>
  <title>background</title>
  <rect fill="none" id="canvas_background" height="26" width="26" y="-1" x="-1"/>
 </g>
 <g>
  <title>Layer 1</title>
  <path stroke="null" id="svg_1" d="m16.794906,4.282342l-12.011168,0c-0.825767,0 -1.501396,0.674083 -1.501396,1.497568l0,11.231753c0,0.825263 0.676512,1.499345 1.501396,1.499345l6.005585,0l3.002792,0c0.500465,0 1.000931,0 1.501396,0c3.002792,-1.967335 3.002792,-2.435325 3.002792,-2.903314c0,-0.467989 0,-0.935979 0,-1.40397l0,-2.807938l0,-5.615876c0,-0.823485 -0.676511,-1.497568 -1.501396,-1.497568zm0.176635,12.894729l-12.364437,0l0,-10.6715l12.364437,0l0,10.6715z"/>
  <path stroke="null" id="svg_2" d="m14.607766,4.294019l1.386331,0l0,-2.274c0,-0.926 -0.707953,-1.684 -1.571176,-1.684l-12.569404,0c-0.864147,0 -1.571176,0.758 -1.571176,1.684l0,12.63c0,0.859 0.609986,1.564 1.386331,1.664l0,-14.228l12.939093,0l0,2.208z"/>
  <path stroke="null" id="svg_3" d="m6.284544,7.440422l0,0.888686l0.042559,0l2.794983,2.624172l0,3.108579l2.837542,2.666057l0,-5.769173l2.799326,-2.629636l0.037348,0l0,-0.888686l-8.511757,0zm4.770927,3.107668l-0.043427,0l0,4.033686l-0.944979,-0.888686l0,-3.145001l-0.038216,0l-2.364184,-2.219893l5.754121,0l-2.363315,2.219893z"/>
  <polygon stroke="null" points="18.999126628041267,14.881421864032745 17.43869037926197,17.99659425020218 14.005545809864998,19.411923229694366 17.43869037926197,20.828160107135773 18.999126628041267,23.94242936372757 20.560472682118416,20.828160107135773 23.990892603993416,19.411923229694366 20.560472682118416,17.99659425020218 " id="svg_11"/>
 </g>
</svg>