<svg width="24.000000000000004" height="24.000000000000004" xmlns="http://www.w3.org/2000/svg">

 <g>
  <title>background</title>
  <rect fill="none" id="canvas_background" height="402" width="582" y="-1" x="-1"/>
 </g>
 <g>
  <title>Layer 1</title>
  <path stroke="null" id="svg_1" d="m1.263314,1.5l0,4.422091l17.357003,0l0,-4.422091l-17.357003,0zm15.621303,2.948061l-10.414202,0l0,-1.47403l10.414202,0l0,1.47403z"/>
  <path stroke="null" id="svg_2" d="m1.302761,7.198225l0,4.540434l17.39645,0l0,-4.540434l-17.39645,0zm15.656805,3.026956l-3.47929,0l0,-1.513478l3.47929,0l0,1.513478z"/>
  <path stroke="null" id="svg_3" d="m1.34221,13.09369l0,4.22485l2.15483,0l2.15483,0l2.15483,0l2.15483,0l2.15483,0l2.15484,0l2.15483,0l2.15483,-2.64053l0,-0.52811l0,-1.05621l-17.23865,0zm15.51479,2.81657l-6.89547,0l0,-1.40829l6.89547,0l0,1.40829z"/>
  <polygon stroke="null" id="svg_4" points="19.005665838718414,14.565889716148376 17.42845445871353,17.77333390712738 13.958397924900055,19.230584502220154 17.42845445871353,20.688767790794373 19.005665838718414,23.895280241966248 20.583798468112946,20.688767790794373 24.051098883152008,19.230584502220154 20.583798468112946,17.77333390712738 "/>
 </g>
</svg>