<?xml version="1.0" encoding="utf-8"?>
<!-- Generator: Adobe Illustrator 15.1.0, SVG Export Plug-In . SVG Version: 6.00 Build 0)  -->
<!DOCTYPE svg PUBLIC "-//W3C//DTD SVG 1.1//EN" "http://www.w3.org/Graphics/SVG/1.1/DTD/svg11.dtd">
<svg version="1.1" id="Layer_1" xmlns="http://www.w3.org/2000/svg" xmlns:xlink="http://www.w3.org/1999/xlink" x="0px" y="0px"
	 width="24px" height="24px" viewBox="-0.5 -0.5 24 24" enable-background="new -0.5 -0.5 24 24" xml:space="preserve">
<polygon points="17.5,1.5 3.184,1.5 3.184,14.1 4.869,14.1 4.869,3.3 15.815,3.3 15.815,10.5 17.5,10.5 "/>
<path d="M1.5,15v2.7c0,0.989,0.758,1.8,1.684,1.8H9.5V15H1.5z"/>
<rect x="9.079" y="10.5" width="5.053" height="1.8"/>
<rect x="6.553" y="10.5" width="1.684" height="1.8"/>
<rect x="9.079" y="6" width="5.053" height="1.8"/>
<rect x="6.553" y="6" width="1.684" height="1.8"/>
<polygon points="16.001,11.5 14.282,14.938 10.5,16.501 14.282,18.063 16.001,21.5 17.721,18.063 21.5,16.501 17.721,14.938 "/>
</svg>
