<?xml version="1.0" encoding="utf-8"?>
<!-- Generator: Adobe Illustrator 15.1.0, SVG Export Plug-In . SVG Version: 6.00 Build 0)  -->
<!DOCTYPE svg PUBLIC "-//W3C//DTD SVG 1.1//EN" "http://www.w3.org/Graphics/SVG/1.1/DTD/svg11.dtd">
<svg version="1.1" id="Layer_1" xmlns="http://www.w3.org/2000/svg" xmlns:xlink="http://www.w3.org/1999/xlink" x="0px" y="0px"
	 width="24px" height="24px" viewBox="-0.5 -0.5 24 24" enable-background="new -0.5 -0.5 24 24" xml:space="preserve">
<polygon points="17.001,12.5 15.282,15.938 11.5,17.5 15.282,19.063 17.001,22.5 18.721,19.063 22.5,17.5 18.721,15.938 "/>
<path d="M17.893,2.5h-3.216c-0.885,0-1.609,0.723-1.609,1.606v2.412c0,0.166,0.032,0.322,0.08,0.473l-2.281,3.626l-2.13-3.349
	c0.12-0.225,0.196-0.478,0.196-0.75V4.106c0-0.884-0.725-1.606-1.607-1.606H4.109C3.224,2.5,2.5,3.223,2.5,4.106v2.412
	c0,0.884,0.724,1.606,1.609,1.606h2.289l2.415,3.796c-0.718,0.181-1.26,0.902-1.26,1.759v2.709c0,0.418,0.136,0.805,0.354,1.111
	l5.724-2.986l0.353-0.873c-0.013-0.773-0.473-1.427-1.099-1.664l2.424-3.853h2.584c0.884,0,1.607-0.723,1.607-1.606V4.106
	C19.5,3.223,18.776,2.5,17.893,2.5z"/>
</svg>
