<?xml version="1.0" encoding="utf-8"?>
<!-- Generator: Adobe Illustrator 15.1.0, SVG Export Plug-In . SVG Version: 6.00 Build 0)  -->
<!DOCTYPE svg PUBLIC "-//W3C//DTD SVG 1.1//EN" "http://www.w3.org/Graphics/SVG/1.1/DTD/svg11.dtd">
<svg version="1.1" id="Layer_1" xmlns="http://www.w3.org/2000/svg" xmlns:xlink="http://www.w3.org/1999/xlink" x="0px" y="0px"
	 width="24px" height="24px" viewBox="0 0 24 24" enable-background="new 0 0 24 24" xml:space="preserve">
<g>
	<path d="M12.104,7.456c0,2.976-1.341,5.044-4.076,5.044C5.243,12.5,4.017,10.253,4,7.515C4,4.703,5.31,2.5,8.094,2.5
		C10.961,2.5,12.104,4.807,12.104,7.456z M6.519,7.515c0,2.217,0.596,3.273,1.558,3.273c0.978,0,1.508-1.101,1.508-3.303
		c0-2.143-0.514-3.273-1.525-3.273C7.149,4.212,6.519,5.253,6.519,7.515z"/>
	<path d="M16.564,4.672h-0.035L14.475,5.55l-0.414-1.696l2.866-1.191H19v9.672h-2.436V4.672z"/>
</g>
<polygon points="17.5,21.5 21.5,17.5 17.5,13.5 17.5,16.5 5.5,16.5 5.5,16.499 5.5,13.5 1.542,17.5 5.5,21.5 5.5,18.5 17.5,18.5 
	17.5,18.501 "/>
</svg>
