<?xml version="1.0" encoding="utf-8"?>
<!-- Generator: Adobe Illustrator 15.1.0, SVG Export Plug-In . SVG Version: 6.00 Build 0)  -->
<!DOCTYPE svg PUBLIC "-//W3C//DTD SVG 1.1//EN" "http://www.w3.org/Graphics/SVG/1.1/DTD/svg11.dtd">
<svg version="1.1" id="Layer_1" xmlns="http://www.w3.org/2000/svg" xmlns:xlink="http://www.w3.org/1999/xlink" x="0px" y="0px"
	 width="24px" height="24px" viewBox="0 0 24 24" enable-background="new 0 0 24 24" xml:space="preserve">
<g>
	<path d="M11.568,12.269c0,4.426-1.702,6.383-3.804,6.383c-2.843,0-3.804-3.097-3.804-6.27C3.96,8.831,5.162,6,7.844,6
		C10.887,6,11.568,9.324,11.568,12.269z M6.603,12.326c-0.04,2.888,0.34,4.199,1.221,4.199c0.801,0,1.101-1.368,1.101-4.199
		c0-2.659-0.26-4.198-1.101-4.198C7.003,8.127,6.583,9.458,6.603,12.326z"/>
	<path d="M13.512,16.581c0.5,0,0.76-0.019,1.182-0.095c0.52-0.095,1.08-0.342,1.541-0.741c0.561-0.513,1.041-1.387,1.262-2.488
		h-0.061c-0.42,0.437-1.021,0.76-1.861,0.76c-1.683,0-3.064-1.425-3.064-3.686C12.51,8.204,13.871,6,16.375,6
		c2.422,0,3.703,2.089,3.703,5.072c0,2.792-0.941,4.749-2.143,5.965c-0.801,0.817-1.941,1.368-3.223,1.558
		c-0.4,0.058-0.801,0.058-1.201,0.058V16.581z M15.094,10.122c0.02,1.197,0.42,2.185,1.221,2.185c0.461,0,0.861-0.323,1-0.646
		c0.102-0.228,0.121-0.494,0.121-1.311c0-1.634-0.48-2.545-1.201-2.545C15.574,7.805,15.053,8.622,15.094,10.122z"/>
</g>
</svg>
