<?xml version="1.0" encoding="utf-8"?>
<!-- Generator: Adobe Illustrator 15.1.0, SVG Export Plug-In . SVG Version: 6.00 Build 0)  -->
<!DOCTYPE svg PUBLIC "-//W3C//DTD SVG 1.1//EN" "http://www.w3.org/Graphics/SVG/1.1/DTD/svg11.dtd">
<svg version="1.1" id="Layer_1" xmlns="http://www.w3.org/2000/svg" xmlns:xlink="http://www.w3.org/1999/xlink" x="0px" y="0px"
	 width="24px" height="24px" viewBox="0 0 24 24" enable-background="new 0 0 24 24" xml:space="preserve">
<g>
	<path d="M10.025,7.925C10.025,10.473,8.48,12,6.18,12C3.87,12,2.5,10.267,2.5,8.051C2.5,5.733,4.01,4,6.309,4
		C8.712,3.999,10.025,5.778,10.025,7.925z M4.369,8.016c0,1.526,0.72,2.594,1.905,2.594c1.196,0,1.88-1.125,1.88-2.628
		c0-1.401-0.662-2.594-1.88-2.594C5.066,5.388,4.369,6.513,4.369,8.016z"/>
	<path d="M11.187,4.24c0.464-0.08,1.394-0.161,2.288-0.161c1.08,0,1.742,0.103,2.321,0.436c0.547,0.287,0.93,0.815,0.93,1.526
		c0,0.677-0.406,1.309-1.288,1.642v0.022c0.894,0.229,1.556,0.907,1.556,1.894c0,0.711-0.326,1.263-0.813,1.653
		c-0.569,0.448-1.522,0.7-3.077,0.7c-0.872,0-1.523-0.058-1.917-0.115L11.187,4.24L11.187,4.24z M12.94,7.202h0.58
		c0.942,0,1.429-0.378,1.429-0.952c0-0.585-0.452-0.895-1.254-0.895c-0.396,0-0.615,0.022-0.756,0.045L12.94,7.202L12.94,7.202z
		 M12.94,10.633c0.174,0.022,0.383,0.022,0.686,0.022c0.8,0,1.509-0.31,1.509-1.125c0-0.769-0.709-1.079-1.591-1.079H12.94V10.633z"
		/>
	<path d="M19.734,4.137H21.5v4.89c0,2.203-1.069,2.973-2.776,2.973c-0.417,0-0.951-0.069-1.3-0.184l0.198-1.412
		c0.243,0.08,0.557,0.137,0.905,0.137c0.744,0,1.209-0.332,1.209-1.526V4.137H19.734z"/>
</g>
<path d="M20,14v1.775h-4V14h-2v1.775h-4V14H8v1.775H4V14H2v6.225C2,21.204,2.896,22,4,22h16c1.104,0,2-0.796,2-1.775V14H20z
	 M8,20.225H4v-2.668h4V20.225z M14,20.225h-4v-2.668h4V20.225z M20,20.225h-4v-2.668h4V20.225z"/>
</svg>
