<?xml version="1.0" encoding="utf-8"?>
<!-- Generator: Adobe Illustrator 15.1.0, SVG Export Plug-In . SVG Version: 6.00 Build 0)  -->
<!DOCTYPE svg PUBLIC "-//W3C//DTD SVG 1.1//EN" "http://www.w3.org/Graphics/SVG/1.1/DTD/svg11.dtd">
<svg version="1.1" id="Layer_1" xmlns="http://www.w3.org/2000/svg" xmlns:xlink="http://www.w3.org/1999/xlink" x="0px" y="0px"
	 width="24px" height="24px" viewBox="0.5 0.5 24 24" enable-background="new 0.5 0.5 24 24" xml:space="preserve">
<path d="M3.505,13.037c0-2.791,1.64-5.201,4-6.321v-2.18c-3.5,1.26-6,4.59-6,8.501s2.5,7.241,6,8.5v-2.181
	C5.145,18.237,3.505,15.827,3.505,13.037"/>
<path d="M15.483,21.614c-4.417,0-8.014-3.838-8.014-8.557c0-4.717,3.595-8.558,8.014-8.558c4.42,0,8.017,3.839,8.017,8.558
	C23.499,17.776,19.901,21.614,15.483,21.614z M15.483,6.571c-3.275,0-5.941,2.91-5.941,6.486c0,3.578,2.666,6.485,5.941,6.485
	c3.277,0,5.944-2.907,5.944-6.485C21.428,9.481,18.761,6.571,15.483,6.571z"/>
<rect x="14.503" y="7.821" transform="matrix(-0.8661 -0.4998 0.4998 -0.8661 22.4178 32.0778)" width="2.004" height="10.432"/>
<rect x="11.505" y="10.036" width="8" height="2"/>
<rect x="11.505" y="13.5" width="8" height="2"/>
</svg>
