<?xml version="1.0" encoding="utf-8"?>
<!-- Generator: Adobe Illustrator 15.1.0, SVG Export Plug-In . SVG Version: 6.00 Build 0)  -->
<!DOCTYPE svg PUBLIC "-//W3C//DTD SVG 1.1//EN" "http://www.w3.org/Graphics/SVG/1.1/DTD/svg11.dtd">
<svg version="1.1" id="Layer_1" xmlns="http://www.w3.org/2000/svg" xmlns:xlink="http://www.w3.org/1999/xlink" x="0px" y="0px"
	 width="24px" height="24px" viewBox="-0.5 -0.5 24 24" enable-background="new -0.5 -0.5 24 24" xml:space="preserve">
<rect x="8.5" y="2.5" width="2" height="18"/>
<rect x="13.5" y="13.5" width="2" height="7"/>
<rect x="4.5" y="12.5" width="14" height="2"/>
<rect x="4.5" y="7.5" width="14" height="2"/>
<path d="M17.5,21.5h-12c-1.159,0-2-0.841-2-2v-16c0-1.159,0.841-2,2-2h12c1.159,0,2,0.841,2,2v16C19.5,20.659,18.659,21.5,17.5,21.5
	z M5.5,3.5v16h12c0.035,0,0.05-0.005,0.05-0.005L17.5,3.5H5.5z"/>
<rect x="4.5" y="8.5" width="5" height="5"/>
<rect x="14.5" y="13.5" width="4" height="7"/>
</svg>
