<?xml version="1.0" encoding="utf-8"?>
<!-- Generator: Adobe Illustrator 15.1.0, SVG Export Plug-In . SVG Version: 6.00 Build 0)  -->
<!DOCTYPE svg PUBLIC "-//W3C//DTD SVG 1.1//EN" "http://www.w3.org/Graphics/SVG/1.1/DTD/svg11.dtd">
<svg version="1.1" id="Layer_1" xmlns="http://www.w3.org/2000/svg" xmlns:xlink="http://www.w3.org/1999/xlink" x="0px" y="0px"
	 width="24px" height="24px" viewBox="0 0 24 24" enable-background="new 0 0 24 24" xml:space="preserve">
<path d="M16.834,21.533H6.167c-2.075,0-3.7-1.552-3.7-3.533s1.625-3.533,3.7-3.533h10.667v2.066c-0.917,0-1.635,0.645-1.635,1.467
	s0.718,1.467,1.635,1.467V21.533z M6.167,16.533c-0.917,0-1.634,0.645-1.634,1.467s0.718,1.467,1.634,1.467h7.288
	c-0.207-0.444-0.322-0.94-0.322-1.467s0.115-1.022,0.322-1.467H6.167z"/>
<path d="M16.834,21.533v-2.066c0.916,0,1.633-0.645,1.633-1.467V3.533H7.733V13.5H5.667V1.467h14.866V18
	C20.533,19.981,18.908,21.533,16.834,21.533z"/>
<path d="M13.001,9.55c-0.597,0-1.08-0.47-1.08-1.05s0.483-1.05,1.08-1.05c0.597,0,1.079,0.47,1.079,1.05S13.598,9.55,13.001,9.55
	 M15.293,8.791c0.012-0.096,0.02-0.192,0.02-0.291s-0.008-0.198-0.02-0.3l0.65-0.489c0.059-0.045,0.074-0.126,0.035-0.192
	l-0.615-1.038c-0.036-0.066-0.121-0.093-0.188-0.066l-0.768,0.3c-0.16-0.117-0.327-0.219-0.521-0.294l-0.115-0.795
	C13.759,5.554,13.693,5.5,13.618,5.5h-1.235c-0.077,0-0.142,0.054-0.154,0.126l-0.114,0.795c-0.194,0.075-0.36,0.177-0.521,0.294
	l-0.768-0.3c-0.068-0.027-0.151,0-0.188,0.066l-0.616,1.038C9.981,7.585,10,7.666,10.058,7.711L10.709,8.2
	c-0.012,0.102-0.021,0.201-0.021,0.3s0.009,0.195,0.021,0.291l-0.651,0.498C10,9.334,9.981,9.415,10.021,9.481l0.616,1.039
	c0.038,0.065,0.121,0.09,0.188,0.065l0.768-0.303c0.161,0.12,0.327,0.222,0.521,0.297l0.114,0.795
	c0.012,0.072,0.077,0.126,0.154,0.126h1.235c0.076,0,0.141-0.054,0.152-0.126l0.114-0.795c0.194-0.078,0.361-0.177,0.521-0.297
	l0.769,0.303c0.067,0.024,0.152,0,0.188-0.065l0.615-1.039c0.039-0.066,0.022-0.146-0.035-0.192L15.293,8.791z"/>
</svg>
