<?xml version="1.0" encoding="utf-8"?>
<!-- Generator: Adobe Illustrator 15.1.0, SVG Export Plug-In . SVG Version: 6.00 Build 0)  -->
<!DOCTYPE svg PUBLIC "-//W3C//DTD SVG 1.1//EN" "http://www.w3.org/Graphics/SVG/1.1/DTD/svg11.dtd">
<svg version="1.1" id="Layer_1" xmlns="http://www.w3.org/2000/svg" xmlns:xlink="http://www.w3.org/1999/xlink" x="0px" y="0px"
	 width="24px" height="24px" viewBox="-0.5 -0.5 24 24" enable-background="new -0.5 -0.5 24 24" xml:space="preserve">
<path d="M17.5,21.5c0,0-9.017-0.006-12.302-0.001c-0.204-0.007-0.404-0.045-0.594-0.12c-0.459-0.181-0.828-0.559-0.998-1.023
	c-0.066-0.178-0.105-0.554-0.105-0.554V3.198c0,0,0.039-0.376,0.105-0.554c0.175-0.478,0.56-0.863,1.038-1.038
	C4.836,1.535,5.038,1.503,5.243,1.5H13.5c2,2,4,4,6,6c0,1.333,0,12,0,12C19.5,20.605,18.605,21.5,17.5,21.5L17.5,21.5z M5.5,19.5h12
	l0.001-10H11.5v-6h-6V19.5z M13.5,4.328V7.5h3.172L13.5,4.328z"/>
<path d="M8.08,16.08v-3h4v-2.42L16,14.58l-3.92,3.92v-2.42H8.08z"/>
</svg>
