<?xml version="1.0" encoding="utf-8"?>
<!-- Generator: Adobe Illustrator 15.1.0, SVG Export Plug-In . SVG Version: 6.00 Build 0)  -->
<!DOCTYPE svg PUBLIC "-//W3C//DTD SVG 1.1//EN" "http://www.w3.org/Graphics/SVG/1.1/DTD/svg11.dtd">
<svg version="1.1" id="Layer_1" xmlns="http://www.w3.org/2000/svg" xmlns:xlink="http://www.w3.org/1999/xlink" x="0px" y="0px"
	 width="24px" height="24px" viewBox="0.5 0.5 24 24" enable-background="new 0.5 0.5 24 24" xml:space="preserve">
<path d="M19.5,21.5h-14v-16h2V8.5h10V5.5h2 M12.5,3.5c0.553,0,1,0.448,1,1c0,0.553-0.447,1-1,1c-0.552,0-1-0.447-1-1
	C11.5,3.948,11.948,3.5,12.5,3.5 M19.5,3.5h-4.18c-0.42-1.16-1.521-2-2.82-2s-2.4,0.84-2.82,2H5.5c-1.104,0-2,0.896-2,2v16
	c0,1.104,0.896,2,2,2h14c1.104,0,2-0.896,2-2v-16C21.5,4.396,20.604,3.5,19.5,3.5z"/>
</svg>
