<?xml version="1.0" encoding="utf-8"?>
<!-- Generator: Adobe Illustrator 15.1.0, SVG Export Plug-In . SVG Version: 6.00 Build 0)  -->
<!DOCTYPE svg PUBLIC "-//W3C//DTD SVG 1.1//EN" "http://www.w3.org/Graphics/SVG/1.1/DTD/svg11.dtd">
<svg version="1.1" id="Layer_1" xmlns="http://www.w3.org/2000/svg" xmlns:xlink="http://www.w3.org/1999/xlink" x="0px" y="0px"
	 width="24px" height="24px" viewBox="0 0 24 24" enable-background="new 0 0 24 24" xml:space="preserve">
<path d="M9.3,19.5H5.5v-15h12v6.8c0.7,0.2,1.4,0.6,2,1.1V4.5c0-1.1-0.9-2-2-2h-12c-1.1,0-2,0.9-2,2v15c0,1.1,0.9,2,2,2h4.9
	C9.9,20.9,9.6,20.2,9.3,19.5z"/>
<g>
	<g>
		<path d="M15.5,22.5c-2.757,0-5-2.243-5-5s2.243-5,5-5s5,2.243,5,5S18.257,22.5,15.5,22.5z M15.5,14.5c-1.654,0-3,1.346-3,3
			s1.346,3,3,3s3-1.346,3-3S17.154,14.5,15.5,14.5z"/>
	</g>
</g>
<rect x="17.817" y="21.15" transform="matrix(0.7071 0.7071 -0.7071 0.7071 21.5641 -7.7606)" width="4.667" height="2"/>
</svg>
