<?xml version="1.0" encoding="utf-8"?>
<!-- Generator: Adobe Illustrator 15.1.0, SVG Export Plug-In . SVG Version: 6.00 Build 0)  -->
<!DOCTYPE svg PUBLIC "-//W3C//DTD SVG 1.1//EN" "http://www.w3.org/Graphics/SVG/1.1/DTD/svg11.dtd">
<svg version="1.1" id="Layer_1" xmlns="http://www.w3.org/2000/svg" xmlns:xlink="http://www.w3.org/1999/xlink" x="0px" y="0px"
	 width="24px" height="24px" viewBox="-0.5 -0.5 24 24" enable-background="new -0.5 -0.5 24 24" xml:space="preserve">
<path d="M18.801,9.944H6.2c-1.492,0-2.7,1.194-2.7,2.667v5.334h3.6V21.5H17.9v-3.555h3.6v-5.334
	C21.5,11.138,20.291,9.944,18.801,9.944z M16.1,19.723H8.9v-4.445H16.1V19.723z M18.801,13.5c-0.498,0-0.9-0.398-0.9-0.889
	c0-0.491,0.402-0.889,0.9-0.889c0.496,0,0.898,0.398,0.898,0.889C19.699,13.102,19.297,13.5,18.801,13.5z"/>
<rect x="10.5" y="5.5" width="7.4" height="3.556"/>
<polygon points="8.313,1.5 4.447,6.443 2.688,4.199 1.5,5.721 4.447,9.5 9.5,3.023 "/>
</svg>
