<?xml version="1.0" encoding="utf-8"?>
<!-- Generator: Adobe Illustrator 15.1.0, SVG Export Plug-In . SVG Version: 6.00 Build 0)  -->
<!DOCTYPE svg PUBLIC "-//W3C//DTD SVG 1.1//EN" "http://www.w3.org/Graphics/SVG/1.1/DTD/svg11.dtd">
<svg version="1.1" id="Layer_1" xmlns="http://www.w3.org/2000/svg" xmlns:xlink="http://www.w3.org/1999/xlink" x="0px" y="0px"
	 width="24px" height="24px" viewBox="-0.5 -0.5 24 24" enable-background="new -0.5 -0.5 24 24" xml:space="preserve">
<path d="M5.499,10C4.001,10,1,11.2,1,13.6V16h9v-2.4C9.999,11.2,6.999,10,5.499,10"/>
<path d="M5,8c1.656,0,3-1.343,3-3S6.656,2,5,2S2,3.343,2,5S3.344,8,5,8"/>
<path d="M19.608,21.1v-1.26c0.349,0,0.631-0.282,0.631-0.631V9.76h-8.19v7.56h-1.26V8.5H21.5v10.709
	C21.5,20.252,20.651,21.1,19.608,21.1z"/>
<path d="M19.608,19.84c-0.378,0-0.629-0.253-0.629-0.631V17.95h-9.45v1.89c0,0.692,0.567,1.26,1.26,1.26h8.819V19.84z"/>
<rect x="15.59" y="12.1" width="3" height="2"/>
<rect x="13.439" y="12.1" width="1" height="2"/>
</svg>
