<?xml version="1.0" encoding="utf-8"?>
<!-- Generator: Adobe Illustrator 15.1.0, SVG Export Plug-In . SVG Version: 6.00 Build 0)  -->
<!DOCTYPE svg PUBLIC "-//W3C//DTD SVG 1.1//EN" "http://www.w3.org/Graphics/SVG/1.1/DTD/svg11.dtd">
<svg version="1.1" id="Layer_1" xmlns="http://www.w3.org/2000/svg" xmlns:xlink="http://www.w3.org/1999/xlink" x="0px" y="0px"
	 width="24px" height="24px" viewBox="0.5 0.5 24 24" enable-background="new 0.5 0.5 24 24" xml:space="preserve">
<path d="M6.499,11.5C5.001,11.5,2,12.701,2,15.1v2.4h9v-2.4C10.999,12.701,7.999,11.5,6.499,11.5"/>
<path d="M6.5,9.5c1.656,0,3-1.343,3-3s-1.344-3-3-3s-3,1.343-3,3S4.844,9.5,6.5,9.5"/>
<path d="M17,19.124c-0.221,0-0.425-0.117-0.537-0.308l-3.5-5.933c-0.175-0.296-0.076-0.679,0.221-0.854
	c0.296-0.175,0.68-0.076,0.854,0.22l2.96,5.017l2.964-5.082c0.173-0.297,0.555-0.397,0.854-0.224
	c0.297,0.173,0.397,0.555,0.225,0.853l-3.5,6c-0.112,0.19-0.316,0.309-0.537,0.31C17.001,19.124,17.001,19.124,17,19.124z"/>
<path d="M18.125,21.5h-2.25c-0.619,0-1.125-0.515-1.125-1.142v-1.715c0-0.627,0.506-1.144,1.125-1.144h2.25
	c0.619,0,1.125,0.517,1.125,1.144v1.715C19.25,20.985,18.744,21.5,18.125,21.5z"/>
<path d="M14.625,13.5h-2.25c-0.619,0-1.125-0.515-1.125-1.143v-1.714c0-0.628,0.506-1.143,1.125-1.143h2.25
	c0.62,0,1.125,0.515,1.125,1.143v1.714C15.75,12.985,15.245,13.5,14.625,13.5z"/>
<path d="M21.624,13.5h-2.248c-0.62,0-1.126-0.515-1.126-1.143v-1.714c0-0.628,0.506-1.143,1.126-1.143h2.248
	c0.62,0,1.126,0.515,1.126,1.143v1.714C22.75,12.985,22.244,13.5,21.624,13.5z"/>
</svg>
