<?xml version="1.0" standalone="no"?><!DOCTYPE svg PUBLIC "-//W3C//DTD SVG 1.1//EN" "http://www.w3.org/Graphics/SVG/1.1/DTD/svg11.dtd"><svg t="1591860119303" class="icon" viewBox="0 0 1024 1024" version="1.1" xmlns="http://www.w3.org/2000/svg" p-id="1887" xmlns:xlink="http://www.w3.org/1999/xlink" width="200" height="200"><defs><style type="text/css"></style></defs><path d="M864 0H96C43.2 0 0 43.2 0 96v832c0 52.8 43.2 96 96 96h768c52.8 0 96-43.2 96-96V96c0-52.8-43.2-96-96-96z m-32 896H128V128h704v768zM256 576h448v64H256z m0 128h448v64H256z m64-416a96 96 0 1 1 192 0 96 96 0 0 1-192 0z m160 96h-128c-52.8 0-96 28.8-96 64v64h320v-64c0-35.2-43.2-64-96-64z" p-id="1888"></path></svg>