<?xml version="1.0" encoding="utf-8"?>
<!-- Generator: Adobe Illustrator 15.1.0, SVG Export Plug-In . SVG Version: 6.00 Build 0)  -->
<!DOCTYPE svg PUBLIC "-//W3C//DTD SVG 1.1//EN" "http://www.w3.org/Graphics/SVG/1.1/DTD/svg11.dtd">
<svg version="1.1" id="Layer_1" xmlns="http://www.w3.org/2000/svg" xmlns:xlink="http://www.w3.org/1999/xlink" x="0px" y="0px"
	 width="24px" height="24px" viewBox="0 0 24 24" enable-background="new 0 0 24 24" xml:space="preserve">
<path d="M17.5,12.5c-2.8,0-5,2.2-5,5s2.2,5,5,5s5-2.2,5-5S20.3,12.5,17.5,12.5z M18.299,21.5h-1.601v-1.6h1.601V21.5z M18.299,19.1
	h-1.601c0-2.078,1.601-1.68,1.601-3.358c0-0.32-0.16-1.04-0.801-1.04c-0.239,0-0.8,0.079-0.8,1.199h-1.601
	c0,0-0.32-2.399,2.32-2.399c2.079,0,2.479,1.521,2.479,2.24C19.898,17.66,18.299,17.74,18.299,19.1z"/>
<g>
	<path fill="none" d="M10.5,4.5c-3.722,0-6,1.295-6,2s2.278,2,6,2c3.723,0,6-1.295,6-2S14.223,4.5,10.5,4.5z"/>
	<path d="M10.5,2.5c-3.976,0-8,1.374-8,4v12c0,2.6,4,4,8,4c0.9,0,1.8-0.1,2.6-0.2c-0.6-0.5-1-1.2-1.399-1.899
		c-0.4,0.1-0.8,0.1-1.2,0.1c-3.7,0-6-1.3-6-2v-1.3c1.5,0.8,3.8,1.3,6,1.3c0.2,0,0.4,0,0.6,0c0-0.3-0.1-0.6-0.1-1c0-0.3,0-0.7,0.1-1
		c-0.2,0-0.4,0-0.6,0c-3.7,0-6-1.3-6-2v-1.3c1.5,0.8,3.8,1.3,6,1.3c0.4,0,0.8,0,1.3-0.1c0.5-1,1.3-1.801,2.2-2.4
		c-1,0.3-2.2,0.5-3.5,0.5c-3.7,0-6-1.3-6-2V9.232c1.541,0.837,3.777,1.268,6,1.268s4.459-0.43,6-1.268V10.5c0,0.2-0.2,0.4-0.5,0.7
		c0.5-0.1,1-0.2,1.5-0.2c0.3,0,0.7,0,1,0.1V6.5C18.5,3.874,14.477,2.5,10.5,2.5z M10.5,8.5c-3.722,0-6-1.295-6-2s2.278-2,6-2
		c3.723,0,6,1.295,6,2S14.223,8.5,10.5,8.5z"/>
</g>
</svg>
