<?xml version="1.0" encoding="utf-8"?>
<!-- Generator: Adobe Illustrator 15.1.0, SVG Export Plug-In . SVG Version: 6.00 Build 0)  -->
<!DOCTYPE svg PUBLIC "-//W3C//DTD SVG 1.1//EN" "http://www.w3.org/Graphics/SVG/1.1/DTD/svg11.dtd">
<svg version="1.1" id="Layer_1" xmlns="http://www.w3.org/2000/svg" xmlns:xlink="http://www.w3.org/1999/xlink" x="0px" y="0px"
	 width="24px" height="24px" viewBox="0 0 24 24" enable-background="new 0 0 24 24" xml:space="preserve">
<path d="M17.854,5.146C16.228,3.514,13.982,2.5,11.5,2.5c-4.963,0-9,4.038-9,9h2c0-3.86,3.141-7,7-7
	c1.931,0,3.666,0.799,4.931,2.069L13.5,9.5h7v-7L17.854,5.146z"/>
<path d="M18.5,11.5c0,3.859-3.141,7-7,7c-1.931,0-3.666-0.799-4.932-2.068L9.5,13.5h-7v7l2.646-2.646
	C6.773,19.486,9.018,20.5,11.5,20.5c4.963,0,9-4.037,9-9H18.5z"/>
</svg>
