<?xml version="1.0" encoding="utf-8"?>
<!-- Generator: Adobe Illustrator 15.1.0, SVG Export Plug-In . SVG Version: 6.00 Build 0)  -->
<!DOCTYPE svg PUBLIC "-//W3C//DTD SVG 1.1//EN" "http://www.w3.org/Graphics/SVG/1.1/DTD/svg11.dtd">
<svg version="1.1" id="Layer_1" xmlns="http://www.w3.org/2000/svg" xmlns:xlink="http://www.w3.org/1999/xlink" x="0px" y="0px"
	 width="24px" height="24px" viewBox="0.5 0.5 24 24" enable-background="new 0.5 0.5 24 24" xml:space="preserve">
<path d="M18.854,6.146C17.229,4.514,14.982,3.5,12.5,3.5c-4.963,0-9,4.038-9,9h2c0-3.86,3.141-7,7-7
	c1.932,0,3.666,0.799,4.932,2.069L14.5,10.5h7v-7L18.854,6.146z"/>
<path d="M19.5,12.5c0,3.859-3.141,7-7,7c-1.931,0-3.666-0.799-4.932-2.068L10.5,14.5h-7v7l2.646-2.646
	C7.773,20.486,10.018,21.5,12.5,21.5c4.963,0,9-4.037,9-9H19.5z"/>
<polygon points="16.5,15.328 13.672,12.5 16.5,9.672 15.793,8.965 12.965,11.793 10.137,8.965 9.43,9.672 12.258,12.5 9.43,15.328 
	10.137,16.035 12.965,13.207 15.793,16.035 "/>
</svg>
