<?xml version="1.0" encoding="utf-8"?>
<!-- Generator: Adobe Illustrator 15.1.0, SVG Export Plug-In . SVG Version: 6.00 Build 0)  -->
<!DOCTYPE svg PUBLIC "-//W3C//DTD SVG 1.1//EN" "http://www.w3.org/Graphics/SVG/1.1/DTD/svg11.dtd">
<svg version="1.1" id="Layer_1" xmlns="http://www.w3.org/2000/svg" xmlns:xlink="http://www.w3.org/1999/xlink" x="0px" y="0px"
	 width="24px" height="24px" viewBox="-0.5 -0.5 24 24" enable-background="new -0.5 -0.5 24 24" xml:space="preserve">
<path d="M18.5,21.5v-2c0.552,0,1-0.448,1-1v-15h-13v12h-2v-14h17v17C21.5,20.154,20.154,21.5,18.5,21.5z"/>
<path d="M18.5,19.5c-0.6,0-1-0.4-1-1v-2h-15v3c0,1.1,0.9,2,2,2h14V19.5z"/>
<g>
	<path d="M15.199,6.002c0.244,0,0.521,0.147,0.822,0.438c0.522,0.504,0.017,2.61-1.937,4.632c-1.511,1.565-3.093,2.266-3.99,2.266
		c-0.182,0-0.428-0.029-0.571-0.168C9.177,12.835,9,12.527,9,12.256c0-0.917,0.694-1.396,1.838-2.075
		c0.518-0.307,1.008-0.597,1.382-0.984c0.386-0.4,0.646-0.916,0.896-1.416C13.688,6.645,14.065,6.002,15.199,6.002 M15.199,5.002
		c-2.564,0-2.753,2.52-3.699,3.5C10.567,9.467,8,10.033,8,12.256c0,0.515,0.234,1.06,0.83,1.634
		c0.314,0.305,0.751,0.448,1.265,0.448c1.318,0,3.144-0.948,4.71-2.569c2.178-2.257,3.033-4.963,1.912-6.047
		C16.186,5.209,15.679,5.002,15.199,5.002L15.199,5.002z"/>
</g>
<path d="M16.739,5.755c2.073,2.048,1.425,4.919-0.752,7.175c-2.178,2.255-5.114,2.764-7.048,1.037
	c0.896,0.302,3.382-0.299,5.56-2.555C16.677,9.157,16.684,6.285,16.739,5.755z"/>
</svg>
