<?xml version="1.0" encoding="utf-8"?>
<!-- Generator: Adobe Illustrator 15.1.0, SVG Export Plug-In . SVG Version: 6.00 Build 0)  -->
<!DOCTYPE svg PUBLIC "-//W3C//DTD SVG 1.1//EN" "http://www.w3.org/Graphics/SVG/1.1/DTD/svg11.dtd">
<svg version="1.1" id="Layer_1" xmlns="http://www.w3.org/2000/svg" xmlns:xlink="http://www.w3.org/1999/xlink" x="0px" y="0px"
	 width="24px" height="24px" viewBox="-0.5 -0.5 24 24" enable-background="new -0.5 -0.5 24 24" xml:space="preserve">
<path d="M18.5,21.5v-2c0.552,0,1-0.448,1-1v-15h-13v12h-2v-14h17v17C21.5,20.154,20.154,21.5,18.5,21.5z"/>
<path d="M18.5,19.5c-0.6,0-1-0.4-1-1v-2h-15v3c0,1.1,0.9,2,2,2h14V19.5z"/>
<polygon points="16.021,6.979 14.149,6.979 13.254,8.46 12.37,7 10.5,7 12.318,10.007 10.521,12.979 12.391,12.979 13.254,11.553 
	14.129,13 16,13 14.189,10.007 "/>
<path d="M17.5,6.5h-1c0,0,1,1.167,1,3.5c0,2.333-1,3.5-1,3.5h1c0,0,1-1.167,1-3.5C18.5,7.667,17.5,6.5,17.5,6.5z"/>
<path d="M9,13.5h1c0,0-1-1.167-1-3.5c0-2.333,1-3.5,1-3.5H9c0,0-1,1.167-1,3.5C8,12.333,9,13.5,9,13.5z"/>
</svg>
