<?xml version="1.0" encoding="utf-8"?>
<!-- Generator: Adobe Illustrator 15.1.0, SVG Export Plug-In . SVG Version: 6.00 Build 0)  -->
<!DOCTYPE svg PUBLIC "-//W3C//DTD SVG 1.1//EN" "http://www.w3.org/Graphics/SVG/1.1/DTD/svg11.dtd">
<svg version="1.1" id="Layer_1" xmlns="http://www.w3.org/2000/svg" xmlns:xlink="http://www.w3.org/1999/xlink" x="0px" y="0px"
	 width="24px" height="24px" viewBox="0 0 24 24" enable-background="new 0 0 24 24" xml:space="preserve">
<path d="M19,22v-2c0.552,0,1-0.448,1-1V4H7v12H5V2h17v17C22,20.654,20.654,22,19,22z"/>
<path d="M19,20c-0.6,0-1-0.4-1-1v-2H3v3c0,1.1,0.9,2,2,2h14V20z"/>
<rect x="12" y="12" width="6" height="2"/>
<rect x="9" y="12" width="2" height="2"/>
<rect x="12" y="7" width="6" height="2"/>
<rect x="9" y="7" width="2" height="2"/>
</svg>
