<?xml version="1.0" encoding="utf-8"?>
<!-- Generator: Adobe Illustrator 15.1.0, SVG Export Plug-In . SVG Version: 6.00 Build 0)  -->
<!DOCTYPE svg PUBLIC "-//W3C//DTD SVG 1.1//EN" "http://www.w3.org/Graphics/SVG/1.1/DTD/svg11.dtd">
<svg version="1.1" id="Layer_1" xmlns="http://www.w3.org/2000/svg" xmlns:xlink="http://www.w3.org/1999/xlink" x="0px" y="0px"
	 width="24px" height="24px" viewBox="-0.5 -0.5 24 24" enable-background="new -0.5 -0.5 24 24" xml:space="preserve">
<path d="M18.5,21.5v-2c0.552,0,1-0.448,1-1v-15h-13v12h-2v-14h17v17C21.5,20.154,20.154,21.5,18.5,21.5z"/>
<path d="M18.5,19.5c-0.6,0-1-0.4-1-1v-2h-15v3c0,1.1,0.9,2,2,2h14V19.5z"/>
<polygon points="16.5,7 13.5,7 13.5,5.5 12,5.5 12,7 8.5,7 8.5,11.5 16.5,11.5 18.5,9.25 "/>
<rect x="11.75" y="12" width="2" height="3.5"/>
<rect x="11.75" y="5.5" width="2" height="2.5"/>
</svg>
