<?xml version="1.0" encoding="utf-8"?>
<!-- Generator: Adobe Illustrator 15.1.0, SVG Export Plug-In . SVG Version: 6.00 Build 0)  -->
<!DOCTYPE svg PUBLIC "-//W3C//DTD SVG 1.1//EN" "http://www.w3.org/Graphics/SVG/1.1/DTD/svg11.dtd">
<svg version="1.1" id="Layer_1" xmlns="http://www.w3.org/2000/svg" xmlns:xlink="http://www.w3.org/1999/xlink" x="0px" y="0px"
	 width="24px" height="24px" viewBox="0 0 24 24" enable-background="new 0 0 24 24" xml:space="preserve">
<g>
	<path d="M19.5,11.5c0,4.411-3.589,8-8,8s-8-3.589-8-8s3.589-8,8-8c2.096,0,4.058,0.835,5.586,2.315L15.45,7.45h5v-5l-1.952,1.952
		C16.597,2.548,14.138,1.5,11.5,1.5c-5.514,0-10,4.486-10,10c0,5.514,4.486,10,10,10c5.514,0,10-4.486,10-10H19.5z"/>
	<polygon points="14.126,8 11.5,10.625 8.875,8 8,8.875 10.625,11.5 8,14.125 8.875,15 11.5,12.375 14.126,15 15,14.125 
		12.375,11.5 15,8.875 	"/>
</g>
</svg>
