<?xml version="1.0" encoding="utf-8"?>
<!-- Generator: Adobe Illustrator 15.1.0, SVG Export Plug-In . SVG Version: 6.00 Build 0)  -->
<!DOCTYPE svg PUBLIC "-//W3C//DTD SVG 1.1//EN" "http://www.w3.org/Graphics/SVG/1.1/DTD/svg11.dtd">
<svg version="1.1" id="Layer_1" xmlns="http://www.w3.org/2000/svg" xmlns:xlink="http://www.w3.org/1999/xlink" x="0px" y="0px"
	 width="24px" height="24px" viewBox="0 0 24 24" enable-background="new 0 0 24 24" xml:space="preserve">
<g>
	<path d="M2.845,10.075c0.444,0.241,1.158,0.483,1.881,0.483c0.778,0,1.191-0.335,1.191-0.841c0-0.483-0.356-0.761-1.257-1.083
		C3.412,8.173,2.589,7.459,2.589,6.329C2.589,5.003,3.669,4,5.427,4c0.858,0,1.469,0.173,1.915,0.392L6.963,5.798
		C6.674,5.649,6.129,5.43,5.405,5.43c-0.735,0-1.09,0.358-1.09,0.75c0,0.496,0.412,0.714,1.391,1.095
		C7.031,7.781,7.644,8.496,7.644,9.59c0,1.302-0.958,2.41-3.017,2.41C3.77,12,2.923,11.758,2.5,11.516L2.845,10.075z"/>
	<path d="M10.551,9.89l-0.534,1.995H8.27l2.281-7.769h2.226l2.339,7.769h-1.837L12.7,9.89H10.551z M12.455,8.577l-0.467-1.648
		c-0.133-0.46-0.268-1.038-0.379-1.498h-0.022c-0.111,0.46-0.223,1.048-0.345,1.498l-0.445,1.648H12.455z"/>
	<path d="M16.112,4.219c0.521-0.093,1.256-0.162,2.291-0.162c1.048,0,1.794,0.208,2.295,0.622c0.49,0.392,0.802,1.038,0.802,1.798
		s-0.233,1.418-0.69,1.844c-0.579,0.554-1.437,0.819-2.438,0.819c-0.224,0-0.424-0.012-0.58-0.046v2.79h-1.68V4.219z M17.792,7.746
		c0.144,0.035,0.312,0.046,0.566,0.046c0.902,0,1.459-0.473,1.459-1.256c0-0.715-0.479-1.142-1.336-1.142
		c-0.334,0-0.567,0.023-0.689,0.058V7.746z"/>
</g>
<path d="M20,14v1.775h-4V14h-2v1.775h-4V14H8v1.775H4V14H2v6.225C2,21.204,2.896,22,4,22h16c1.104,0,2-0.796,2-1.775V14H20z
	 M8,20.225H4v-2.668h4V20.225z M14,20.225h-4v-2.668h4V20.225z M20,20.225h-4v-2.668h4V20.225z"/>
</svg>
