<?xml version="1.0" encoding="utf-8"?>
<!-- Generator: Adobe Illustrator 15.1.0, SVG Export Plug-In . SVG Version: 6.00 Build 0)  -->
<!DOCTYPE svg PUBLIC "-//W3C//DTD SVG 1.1//EN" "http://www.w3.org/Graphics/SVG/1.1/DTD/svg11.dtd">
<svg version="1.1" id="Layer_1" xmlns="http://www.w3.org/2000/svg" xmlns:xlink="http://www.w3.org/1999/xlink" x="0px" y="0px"
	 width="24px" height="24px" viewBox="0.5 0.5 24 24" enable-background="new 0.5 0.5 24 24" xml:space="preserve">
<path d="M19.166,2.5H4.723C3.5,2.5,2.5,3.499,2.5,4.722v15.555c0,1.224,1,2.224,2.223,2.224h15.555c1.224,0,2.223-1,2.223-2.224
	V5.833L19.166,2.5z M16.945,9.167h-8.89V3.611h8.89V9.167z M18.055,20.276H6.946c-0.668,0-1.111-0.445-1.111-1.111V13.61
	c0-0.666,0.446-1.111,1.111-1.111h11.109c0.668,0,1.111,0.445,1.111,1.111v5.555C19.166,19.831,18.723,20.276,18.055,20.276z"/>
<rect x="13.112" y="4.222" width="2.223" height="3.333"/>
</svg>
