<?xml version="1.0" encoding="utf-8"?>
<!-- Generator: Adobe Illustrator 15.1.0, SVG Export Plug-In . SVG Version: 6.00 Build 0)  -->
<!DOCTYPE svg PUBLIC "-//W3C//DTD SVG 1.1//EN" "http://www.w3.org/Graphics/SVG/1.1/DTD/svg11.dtd">
<svg version="1.1" id="Layer_1" xmlns="http://www.w3.org/2000/svg" xmlns:xlink="http://www.w3.org/1999/xlink" x="0px" y="0px"
	 width="23px" height="24px" viewBox="-1 -0.5 23 24" enable-background="new -1 -0.5 23 24" xml:space="preserve">
<rect x="10.95" y="3.5" width="2" height="3"/>
<path d="M13.934,19.777H5.173c-0.633,0-1.056-0.444-1.056-1.111v-5.555C4.117,12.443,4.539,12,5.173,12h10.556
	c0.633,0,1.057,0.443,1.057,1.111v1.443l3.167,3.331V5.333L16.783,2H3.063C1.901,2,0.952,3,0.952,4.223v15.554
	c0,1.226,0.949,2.225,2.111,2.225h12.98L13.934,19.777z M6.229,3.111h8.444v5.556H6.229V3.111z"/>
<g>
	<path d="M20.852,22.398l1-1c0.198-0.198,0.198-0.398,0-0.601L21.15,20.1L19.55,21.7l0.699,0.698
		C20.352,22.5,20.648,22.5,20.852,22.398z"/>
	<polygon points="20.749,19.7 15.55,14.5 13.95,14.5 13.95,16.102 19.148,21.3 	"/>
</g>
<g>
	<path d="M11.135,13.951L9.749,15.59l0.014,0.041l1.975-0.363v1.274l-1.975-0.364L9.735,16.22l1.4,1.583l-1.176,0.658l-0.742-2.018
		l-0.028,0.043L8.39,18.475l-1.051-0.658l1.387-1.666l-0.028-0.015l-1.933,0.406v-1.274l1.919,0.363l0.028-0.041l-1.373-1.611
		l1.149-0.658l0.742,1.975h0.042l0.729-1.988L11.135,13.951z"/>
</g>
</svg>
