<?xml version="1.0" encoding="UTF-8" standalone="no"?>
<!-- Generator: Adobe Illustrator 15.1.0, SVG Export Plug-In . SVG Version: 6.00 Build 0)  -->

<svg
   xmlns:dc="http://purl.org/dc/elements/1.1/"
   xmlns:cc="http://creativecommons.org/ns#"
   xmlns:rdf="http://www.w3.org/1999/02/22-rdf-syntax-ns#"
   xmlns:svg="http://www.w3.org/2000/svg"
   xmlns="http://www.w3.org/2000/svg"
   xmlns:sodipodi="http://sodipodi.sourceforge.net/DTD/sodipodi-0.dtd"
   xmlns:inkscape="http://www.inkscape.org/namespaces/inkscape"
   version="1.1"
   id="Layer_1"
   x="0px"
   y="0px"
   width="24px"
   height="24px"
   viewBox="0.5 0.5 24 24"
   enable-background="new 0.5 0.5 24 24"
   xml:space="preserve"
   sodipodi:docname="save-close.svg"
   inkscape:version="0.92.3 (2405546, 2018-03-11)"><metadata
   id="metadata4570"><rdf:RDF><cc:Work
       rdf:about=""><dc:format>image/svg+xml</dc:format><dc:type
         rdf:resource="http://purl.org/dc/dcmitype/StillImage" /><dc:title></dc:title></cc:Work></rdf:RDF></metadata><defs
   id="defs4568" /><sodipodi:namedview
   pagecolor="#ffffff"
   bordercolor="#666666"
   borderopacity="1"
   objecttolerance="10"
   gridtolerance="10"
   guidetolerance="10"
   inkscape:pageopacity="0"
   inkscape:pageshadow="2"
   inkscape:window-width="1920"
   inkscape:window-height="1017"
   id="namedview4566"
   showgrid="false"
   inkscape:zoom="1"
   inkscape:cx="12.0005"
   inkscape:cy="11.464871"
   inkscape:window-x="3832"
   inkscape:window-y="-8"
   inkscape:window-maximized="1"
   inkscape:current-layer="Layer_1" />
<path
   d="M19.166,2.5H4.723C3.5,2.5,2.5,3.499,2.5,4.722v15.555c0,1.224,1,2.224,2.223,2.224h15.555c1.224,0,2.223-1,2.223-2.224  V5.833L19.166,2.5z M16.945,9.167h-8.89V3.611h8.89V9.167z M18.055,20.276H6.946c-0.668,0-1.111-0.445-1.111-1.111V13.61  c0-0.666,0.446-1.111,1.111-1.111h11.109c0.668,0,1.111,0.445,1.111,1.111v5.555C19.166,19.831,18.723,20.276,18.055,20.276z"
   id="path4561" />
<rect
   x="13.112"
   y="4.222"
   width="2.223"
   height="3.333"
   id="rect4563" />
<path
   id="path4735"
   d="M 19.209288,10.565093 H 10.15706 c -0.7142016,0 -1.2931763,0.578975 -1.293176,1.293176 v 9.052228 c -3e-7,0.714201 0.5789744,1.293176 1.293176,1.293176 h 9.052228 c 0.714201,0 1.293176,-0.578975 1.293176,-1.293176 v -9.052228 c 0,-0.714201 -0.578975,-1.293176 -1.293176,-1.293176 m 0,10.345404 H 8.863884 v -9.052228 h 10.345404 v 9.052228 m -1.293175,-6.853831 -2.327717,2.327717 2.327717,2.327716 -0.905223,0.905223 -2.327716,-2.327717 -2.327717,2.327717 -0.905222,-0.905223 2.327717,-2.327716 -2.327717,-2.327717 0.905222,-0.905221 2.327717,2.327716 2.327716,-2.327716 z"
   inkscape:connector-curvature="0"
   style="stroke-width:0.64658773"
   sodipodi:nodetypes="csssssssccccccccccccccccccc" /></svg>