<?xml version="1.0" encoding="utf-8"?>
<!-- Generator: Adobe Illustrator 15.1.0, SVG Export Plug-In . SVG Version: 6.00 Build 0)  -->
<!DOCTYPE svg PUBLIC "-//W3C//DTD SVG 1.1//EN" "http://www.w3.org/Graphics/SVG/1.1/DTD/svg11.dtd">
<svg version="1.1" id="Layer_1" xmlns="http://www.w3.org/2000/svg" xmlns:xlink="http://www.w3.org/1999/xlink" x="0px" y="0px"
	 width="24px" height="24px" viewBox="-0.5 -0.5 24 24" enable-background="new -0.5 -0.5 24 24" xml:space="preserve">
<path d="M18.666,2H4.223C3,2,2,2.999,2,4.222v15.555c0,1.224,1,2.224,2.223,2.224h15.554c1.225,0,2.224-1,2.224-2.224V5.333
	L18.666,2z M16.445,8.667h-8.89V3.111h8.89V8.667z M17.555,19.775H6.446c-0.668,0-1.111-0.444-1.111-1.11v-5.556
	c0-0.666,0.446-1.11,1.111-1.11h11.109c0.668,0,1.111,0.444,1.111,1.11v5.556C18.666,19.331,18.223,19.775,17.555,19.775z"/>
<rect x="12.611" y="3.722" width="2.224" height="3.333"/>
<g>
	<path d="M13.885,13.701l-1.386,1.639l0.014,0.041l1.976-0.363v1.274l-1.976-0.364l-0.028,0.042l1.4,1.583l-1.176,0.658
		l-0.742-2.018l-0.028,0.043l-0.798,1.988l-1.051-0.658l1.387-1.666l-0.028-0.015l-1.933,0.406v-1.274l1.919,0.363l0.028-0.041
		l-1.373-1.611l1.149-0.658l0.742,1.975h0.042l0.729-1.988L13.885,13.701z"/>
</g>
</svg>
