<?xml version="1.0" encoding="utf-8"?>
<!-- Generator: Adobe Illustrator 15.1.0, SVG Export Plug-In . SVG Version: 6.00 Build 0)  -->
<!DOCTYPE svg PUBLIC "-//W3C//DTD SVG 1.1//EN" "http://www.w3.org/Graphics/SVG/1.1/DTD/svg11.dtd">
<svg version="1.1" id="Layer_1" xmlns="http://www.w3.org/2000/svg" xmlns:xlink="http://www.w3.org/1999/xlink" x="0px" y="0px"
	 width="23px" height="24px" viewBox="0 0.5 23 24" enable-background="new 0 0.5 23 24" xml:space="preserve">
<rect x="11.95" y="4" width="2" height="3"/>
<path d="M14.934,20.277H6.173c-0.633,0-1.056-0.444-1.056-1.111v-5.555c0-0.668,0.422-1.111,1.056-1.111h10.556
	c0.633,0,1.056,0.443,1.056,1.111v1.443l3.167,3.332V5.833L17.783,2.5H4.063c-1.162,0-2.111,1-2.111,2.223v15.555
	c0,1.225,0.949,2.224,2.111,2.224h12.98L14.934,20.277z M7.229,3.611h8.444v5.556H7.229V3.611z"/>
<g>
	<path d="M21.852,22.898l1-1c0.198-0.198,0.198-0.398,0-0.6L22.15,20.6L20.55,22.2l0.699,0.698C21.352,23,21.648,23,21.852,22.898z"
		/>
	<polygon points="21.749,20.2 16.55,15 14.95,15 14.95,16.602 20.148,21.8 	"/>
</g>
</svg>
