<?xml version="1.0" encoding="utf-8"?>
<!-- Generator: Adobe Illustrator 15.1.0, SVG Export Plug-In . SVG Version: 6.00 Build 0)  -->
<!DOCTYPE svg PUBLIC "-//W3C//DTD SVG 1.1//EN" "http://www.w3.org/Graphics/SVG/1.1/DTD/svg11.dtd">
<svg version="1.1" id="Layer_1" xmlns="http://www.w3.org/2000/svg" xmlns:xlink="http://www.w3.org/1999/xlink" x="0px" y="0px"
	 width="24px" height="24px" viewBox="-0.5 -0.5 24 24" enable-background="new -0.5 -0.5 24 24" xml:space="preserve">
<path d="M9,2.5c3.59,0,6.5,2.91,6.5,6.5c0,1.61-0.59,3.09-1.561,4.23l0.271,0.27H15l5,5L18.5,20l-5-5v-0.79l-0.27-0.271
	C12.09,14.91,10.61,15.5,9,15.5c-3.59,0-6.5-2.91-6.5-6.5S5.41,2.5,9,2.5 M9,4.5c-2.5,0-4.5,2-4.5,4.5s2,4.5,4.5,4.5s4.5-2,4.5-4.5
	S11.5,4.5,9,4.5z"/>
<path d="M7.7,11.7L11.3,9L7.7,6.3V11.7z"/>
</svg>
