<?xml version="1.0" encoding="utf-8"?>
<!-- Generator: Adobe Illustrator 15.1.0, SVG Export Plug-In . SVG Version: 6.00 Build 0)  -->
<!DOCTYPE svg PUBLIC "-//W3C//DTD SVG 1.1//EN" "http://www.w3.org/Graphics/SVG/1.1/DTD/svg11.dtd">
<svg version="1.1" id="Layer_1" xmlns="http://www.w3.org/2000/svg" xmlns:xlink="http://www.w3.org/1999/xlink" x="0px" y="0px"
	 width="24px" height="24px" viewBox="-0.5 -0.5 24 24" enable-background="new -0.5 -0.5 24 24" xml:space="preserve">
<rect x="16.5" y="19.5" width="2" height="2"/>
<rect x="1.5" y="4.5" width="2" height="2"/>
<path d="M6.5,16.5v-15h-2v2v1v2v1v9c0,1.104,0.896,2,2,2h8h2h2h1h2v-2H6.5z"/>
<path d="M18.5,6.5c0-1.11-0.9-2-2-2v1v1h1H18.5z"/>
<polygon points="16.5,7.5 16.5,9.5 17.5,9.5 18.5,9.5 18.5,7.5 17.5,7.5 "/>
<polygon points="16.5,10.5 16.5,12.5 17.5,12.5 18.5,12.5 18.5,10.5 17.5,10.5 "/>
<polygon points="16.5,13.5 16.5,15.5 17.5,15.5 18.5,15.5 18.5,13.5 17.5,13.5 "/>
<polygon points="10.5,5.5 10.5,6.5 12.5,6.5 12.5,5.5 12.5,4.5 10.5,4.5 "/>
<polygon points="7.5,5.5 7.5,6.5 9.5,6.5 9.5,5.5 9.5,4.5 7.5,4.5 "/>
<polygon points="13.5,4.5 13.5,5.5 13.5,6.5 15.5,6.5 15.5,5.5 15.5,4.5 "/>
</svg>
