<?xml version="1.0" encoding="utf-8"?>
<!-- Generator: Adobe Illustrator 15.1.0, SVG Export Plug-In . SVG Version: 6.00 Build 0)  -->
<!DOCTYPE svg PUBLIC "-//W3C//DTD SVG 1.1//EN" "http://www.w3.org/Graphics/SVG/1.1/DTD/svg11.dtd">
<svg version="1.1" id="Layer_1" xmlns="http://www.w3.org/2000/svg" xmlns:xlink="http://www.w3.org/1999/xlink" x="0px" y="0px"
	 width="24px" height="24px" viewBox="0 0 24 24" enable-background="new 0 0 24 24" xml:space="preserve">
<polygon points="7.744,10.624 6.334,12.044 10.834,16.544 20.834,6.543 19.424,5.124 10.834,13.714 "/>
<path d="M20.5,11.999c0,4.687-3.813,8.5-8.5,8.5c-4.687,0-8.5-3.813-8.5-8.5c0-4.686,3.813-8.498,8.5-8.498
	c1.216,0,2.37,0.261,3.417,0.723V2.083C14.344,1.712,13.197,1.501,12,1.501c-5.79,0-10.5,4.709-10.5,10.498
	c0,5.79,4.71,10.5,10.5,10.5c5.789,0,10.5-4.71,10.5-10.5c0-0.395-0.026-0.782-0.068-1.166H20.41
	C20.463,11.216,20.5,11.603,20.5,11.999z"/>
</svg>
