<?xml version="1.0" encoding="utf-8"?>
<!-- Generator: Adobe Illustrator 15.1.0, SVG Export Plug-In . SVG Version: 6.00 Build 0)  -->
<!DOCTYPE svg PUBLIC "-//W3C//DTD SVG 1.1//EN" "http://www.w3.org/Graphics/SVG/1.1/DTD/svg11.dtd">
<svg version="1.1" id="Layer_1" xmlns="http://www.w3.org/2000/svg" xmlns:xlink="http://www.w3.org/1999/xlink" x="0px" y="0px"
	 width="24px" height="24px" viewBox="0 0 24 24" enable-background="new 0 0 24 24" xml:space="preserve">
<path d="M21.5,17.5v-14h-14v14H21.5 M23.5,17.25c0,1.242-1.008,2.25-2.25,2.25H7.75c-1.248,0-2.25-1.014-2.25-2.25V3.75
	c0-1.249,1.002-2.25,2.25-2.25h13.5c1.242,0,2.25,1.007,2.25,2.25V17.25 M15.5,21.5v2h-12c-1.104,0-2-0.896-2-2v-13h2v13H15.5z"/>
<path d="M15.5,5.5h-6v6h6V5.5z M13.5,9.5h-2v-2h2V9.5z"/>
<polygon points="19.387,9.75 15.764,13.768 14.111,11.942 13,13.18 15.764,16.25 20.5,10.988 "/>
</svg>
