<?xml version="1.0" encoding="utf-8"?>
<!-- Generator: Adobe Illustrator 15.1.0, SVG Export Plug-In . SVG Version: 6.00 Build 0)  -->
<!DOCTYPE svg PUBLIC "-//W3C//DTD SVG 1.1//EN" "http://www.w3.org/Graphics/SVG/1.1/DTD/svg11.dtd">
<svg version="1.1" id="Layer_1" xmlns="http://www.w3.org/2000/svg" xmlns:xlink="http://www.w3.org/1999/xlink" x="0px" y="0px"
	 width="24px" height="24px" viewBox="0 0 24 24" enable-background="new 0 0 24 24" xml:space="preserve">
<g>
	<rect x="5.208" y="4.167" fill="none" width="2" height="2"/>
	<path d="M9.208,2.167h-6v6h6V2.167z M7.208,6.167h-2v-2h2V6.167z"/>
	<polygon points="15.75,18.545 13.66,16.465 12.25,17.875 15.75,21.375 21.75,15.375 20.34,13.965 	"/>
	<path d="M17.5,6.476V9h-2.625l3.604,3.5L22.083,9H19.5V6.476c0-2.216-1.579-4.018-3.518-4.018h-3.774v2h3.774
		C16.807,4.458,17.5,5.382,17.5,6.476z"/>
	<path d="M6.583,16.5V14h2.625l-3.604-3.5L2,14h2.583v2.5c0,2.243,1.245,4,2.833,4h2.75v-2h-2.75
		C7.162,18.5,6.583,17.744,6.583,16.5z"/>
</g>
</svg>
