<?xml version="1.0" encoding="utf-8"?>
<!-- Generator: Adobe Illustrator 15.1.0, SVG Export Plug-In . SVG Version: 6.00 Build 0)  -->
<!DOCTYPE svg PUBLIC "-//W3C//DTD SVG 1.1//EN" "http://www.w3.org/Graphics/SVG/1.1/DTD/svg11.dtd">
<svg version="1.1" id="Layer_1" xmlns="http://www.w3.org/2000/svg" xmlns:xlink="http://www.w3.org/1999/xlink" x="0px" y="0px"
	 width="24px" height="24px" viewBox="-0.5 -0.5 24 24" enable-background="new -0.5 -0.5 24 24" xml:space="preserve">
<g>
	<polygon fill="none" points="3.723,3.724 3.723,12.612 3.722,12.612 3.722,19.277 19.276,19.277 19.276,10.389 19.276,3.724 	"/>
	<path d="M19.276,1.5h-4.443H3.723h0c-1.234,0-2.223,0.989-2.223,2.223v0.001v8.889v6.665c0,1.229,0.995,2.223,2.223,2.223h4.444
		h11.11c1.234,0,2.224-0.988,2.224-2.223l0,0v-8.889V3.724C21.5,2.495,20.505,1.5,19.276,1.5z M19.276,19.277H3.722v-6.665h0V3.724
		h15.554v6.665V19.277z"/>
</g>
<rect x="6.5" y="6.5" width="10" height="10"/>
</svg>
