<?xml version="1.0" encoding="utf-8"?>
<!-- Generator: Adobe Illustrator 15.1.0, SVG Export Plug-In . SVG Version: 6.00 Build 0)  -->
<!DOCTYPE svg PUBLIC "-//W3C//DTD SVG 1.1//EN" "http://www.w3.org/Graphics/SVG/1.1/DTD/svg11.dtd">
<svg version="1.1" id="Layer_1" xmlns="http://www.w3.org/2000/svg" xmlns:xlink="http://www.w3.org/1999/xlink" x="0px" y="0px"
	 width="24px" height="24px" viewBox="0 0 24 24" enable-background="new 0 0 24 24" xml:space="preserve">
<g>
	<rect x="13.828" y="14.33" transform="matrix(0.7076 -0.7066 0.7066 0.7076 -6.1427 14.8139)" width="2.001" height="0.999"/>
	<polygon points="14.119,12.707 13.061,11.647 12.707,12.001 13.061,12.354 12.353,13.062 12,12.708 11.646,13.062 12.707,14.122 	
		"/>
	<polygon points="10.938,11.647 11.646,10.94 12,11.293 12.353,10.94 11.292,9.879 9.877,11.293 10.938,12.354 11.292,12.001 	"/>
	<rect x="8.171" y="8.672" transform="matrix(0.7071 -0.7071 0.7071 0.7071 -3.7995 9.1708)" width="2" height="1"/>
	<polygon points="10.938,12.354 11.292,12.001 10.938,11.647 11.646,10.94 12,11.293 12.353,10.94 13.061,11.647 12.707,12.001 
		13.061,12.354 14.119,11.293 12.705,9.879 9.877,12.707 11.292,14.121 12.353,13.062 12,12.708 11.646,13.062 	"/>
	<rect x="13.827" y="8.673" transform="matrix(0.707 0.7072 -0.7072 0.707 10.8312 -7.7987)" width="2" height="0.998"/>
	<rect x="8.17" y="14.33" transform="matrix(-0.7074 -0.7069 0.7069 -0.7074 5.1738 31.8012)" width="1.999" height="1"/>
	<rect x="15.596" y="16.097" transform="matrix(0.7071 -0.7071 0.7071 0.7071 -6.8749 16.596)" width="2" height="1"/>
	<rect x="15.596" y="6.904" transform="matrix(0.7074 0.7069 -0.7069 0.7074 10.0905 -9.5649)" width="2.002" height="1"/>
	<rect x="6.403" y="16.096" transform="matrix(-0.7071 -0.7071 0.7071 -0.7071 0.9033 33.5656)" width="2" height="1"/>
	<rect x="6.402" y="6.905" transform="matrix(0.707 -0.7072 0.7072 0.707 -3.0674 7.4051)" width="2.001" height="0.999"/>
</g>
<g>
	<polygon fill="none" points="19.775,10.889 19.775,4.224 4.224,4.224 4.224,19.775 19.775,19.775 	"/>
	<path d="M22,10.889L22,10.889l-0.001-6.665C21.999,2.995,21.004,2,19.775,2h-4.441H4.224l0,0C4.206,2,4.189,2.004,4.171,2.004
		C3.134,2.029,2.284,2.75,2.062,3.723C2.024,3.883,2,4.05,2,4.224v8.886h0.001v6.666c0,1.23,0.995,2.225,2.223,2.225h4.442h11.109
		c1.08,0,1.973-0.758,2.179-1.773C21.984,20.082,22,19.932,22,19.777V10.889z M4.224,19.775V4.224h15.551v6.665v8.887H4.224z"/>
</g>
</svg>
