<?xml version="1.0" encoding="utf-8"?>
<!-- Generator: Adobe Illustrator 15.1.0, SVG Export Plug-In . SVG Version: 6.00 Build 0)  -->
<!DOCTYPE svg PUBLIC "-//W3C//DTD SVG 1.1//EN" "http://www.w3.org/Graphics/SVG/1.1/DTD/svg11.dtd">
<svg version="1.1" id="Layer_1" xmlns="http://www.w3.org/2000/svg" xmlns:xlink="http://www.w3.org/1999/xlink" x="0px" y="0px"
	 width="24px" height="24px" viewBox="0 0 24 24" enable-background="new 0 0 24 24" xml:space="preserve">
<g>
	<rect x="13.643" y="14.096" transform="matrix(-0.7082 0.706 -0.706 -0.7082 35.1129 14.5772)" width="1.801" height="0.898"/>
	<polygon points="13.906,12.637 12.953,11.683 12.636,12.001 12.953,12.319 12.317,12.955 11.999,12.639 11.68,12.955 12.636,13.91 
			"/>
	<polygon points="11.043,11.683 11.68,11.046 11.999,11.365 12.317,11.046 11.361,10.091 10.089,11.365 11.043,12.319 
		11.361,12.001 	"/>
	<rect x="8.553" y="9.005" transform="matrix(-0.7071 0.7071 -0.7071 -0.7071 22.8227 9.4562)" width="1.8" height="0.9"/>
	<polygon points="11.043,12.319 11.361,12.001 11.043,11.683 11.68,11.046 11.999,11.365 12.317,11.046 12.953,11.683 
		12.636,12.001 12.953,12.319 13.906,11.365 12.634,10.091 10.089,12.637 11.361,13.91 12.317,12.955 11.999,12.639 11.68,12.955 	
		"/>
	<rect x="13.644" y="9.005" transform="matrix(-0.707 -0.7072 0.7072 -0.707 18.1396 26.4244)" width="1.8" height="0.899"/>
	<rect x="8.552" y="14.098" transform="matrix(0.7075 0.7067 -0.7067 0.7075 13.0454 -2.4244)" width="1.799" height="0.9"/>
	<rect x="15.235" y="15.688" transform="matrix(-0.7074 0.7068 -0.7068 -0.7074 38.9541 16.1469)" width="1.799" height="0.898"/>
	<rect x="15.235" y="7.413" transform="matrix(-0.7075 -0.7067 0.7067 -0.7075 21.9968 24.8301)" width="1.803" height="0.9"/>
	<rect x="6.962" y="15.687" transform="matrix(0.707 0.7072 -0.7072 0.707 13.7163 -0.8317)" width="1.801" height="0.9"/>
	<rect x="6.961" y="7.416" transform="matrix(-0.707 0.7072 -0.7072 -0.707 18.9827 7.8659)" width="1.801" height="0.899"/>
</g>
<path d="M12,22.499c-5.79,0-10.5-4.71-10.5-10.5C1.5,6.21,6.21,1.501,12,1.501c5.789,0,10.5,4.709,10.5,10.498
	C22.5,17.789,17.789,22.499,12,22.499z M12,3.501c-4.687,0-8.5,3.813-8.5,8.498c0,4.687,3.813,8.5,8.5,8.5
	c4.688,0,8.5-3.813,8.5-8.5C20.5,7.313,16.688,3.501,12,3.501z"/>
</svg>
