<?xml version="1.0" encoding="utf-8"?>
<!-- Generator: Adobe Illustrator 15.1.0, SVG Export Plug-In . SVG Version: 6.00 Build 0)  -->
<!DOCTYPE svg PUBLIC "-//W3C//DTD SVG 1.1//EN" "http://www.w3.org/Graphics/SVG/1.1/DTD/svg11.dtd">
<svg version="1.1" id="Layer_1" xmlns="http://www.w3.org/2000/svg" xmlns:xlink="http://www.w3.org/1999/xlink" x="0px" y="0px"
	 width="24px" height="24px" viewBox="1.5 0.5 24 24" enable-background="new 1.5 0.5 24 24" xml:space="preserve">
<g>
	<polygon fill="none" points="21.276,11.388 21.276,4.723 5.724,4.723 5.724,20.276 21.276,20.276 	"/>
	<path d="M23.5,11.388L23.5,11.388l-0.001-6.665c0-1.229-0.995-2.224-2.223-2.224h-4.442H5.724h0c-0.018,0-0.035,0.005-0.053,0.005
		C4.634,2.529,3.784,3.25,3.562,4.222C3.524,4.383,3.5,4.55,3.5,4.723v8.887h0.001v6.666c0,1.229,0.995,2.224,2.223,2.224h4.442
		h11.11c1.08,0,1.972-0.758,2.178-1.773c0.03-0.146,0.046-0.296,0.046-0.45V11.388z M5.724,20.276V4.723h15.552v6.665v8.888H5.724z"
		/>
</g>
</svg>
