<?xml version="1.0" encoding="utf-8"?>
<!-- Generator: Adobe Illustrator 15.1.0, SVG Export Plug-In . SVG Version: 6.00 Build 0)  -->
<!DOCTYPE svg PUBLIC "-//W3C//DTD SVG 1.1//EN" "http://www.w3.org/Graphics/SVG/1.1/DTD/svg11.dtd">
<svg version="1.1" id="Layer_1" xmlns="http://www.w3.org/2000/svg" xmlns:xlink="http://www.w3.org/1999/xlink" x="0px" y="0px"
	 width="24px" height="24px" viewBox="0.542 0.5 24 24" enable-background="new 0.542 0.5 24 24" xml:space="preserve">
<polygon points="13.542,13.501 7.542,13.501 7.542,18.501 13.542,18.501 13.542,20.501 7.542,20.501 5.542,20.501 5.542,9.5 
	7.542,9.5 7.542,11.5 13.542,11.5 "/>
<path d="M15.5,15.5h6v-6h-6V15.5z M17.5,11.5h2v2h-2V11.5z"/>
<polygon points="22.053,16.497 18.335,20.207 16.643,18.522 15.5,19.665 18.335,22.5 23.195,17.64 "/>
<path d="M3.5,8.5h6v-6h-6V8.5z M5.5,4.5h2v2h-2V4.5z"/>
</svg>
