<?xml version="1.0" encoding="utf-8"?>
<!-- Generator: Adobe Illustrator 15.1.0, SVG Export Plug-In . SVG Version: 6.00 Build 0)  -->
<!DOCTYPE svg PUBLIC "-//W3C//DTD SVG 1.1//EN" "http://www.w3.org/Graphics/SVG/1.1/DTD/svg11.dtd">
<svg version="1.1" id="Layer_1" xmlns="http://www.w3.org/2000/svg" xmlns:xlink="http://www.w3.org/1999/xlink" x="0px" y="0px"
	 width="24px" height="24px" viewBox="0 0 24 24" enable-background="new 0 0 24 24" xml:space="preserve">
<path d="M20.5,3h-14c-1.104,0-2,0.896-2,2v12c0,1.104,0.896,2,2,2h1v-2h-1v-4h5h1h2h1h5v4h-1v2h1c1.104,0,2-0.896,2-2V5
	C22.5,3.896,21.604,3,20.5,3z M12.501,11h-6V7h6V11z M20.5,11h-6V7h6V11z"/>
<polygon points="13.141,13.941 13.041,14.042 13.24,14.042 "/>
<path d="M20.5,20.933h-6.299v-1.374H14.9c0.776,0,1.399-0.612,1.399-1.373v-2.063c0-0.762-0.623-1.373-1.399-1.373h-2.8
	c-0.777,0-1.4,0.611-1.4,1.373v2.063c0,0.761,0.623,1.373,1.4,1.373h0.7v1.374H6.5v1.317h14V20.933z"/>
</svg>
