<?xml version="1.0" encoding="utf-8"?>
<!-- Generator: Adobe Illustrator 15.1.0, SVG Export Plug-In . SVG Version: 6.00 Build 0)  -->
<!DOCTYPE svg PUBLIC "-//W3C//DTD SVG 1.1//EN" "http://www.w3.org/Graphics/SVG/1.1/DTD/svg11.dtd">
<svg version="1.1" id="Layer_1" xmlns="http://www.w3.org/2000/svg" xmlns:xlink="http://www.w3.org/1999/xlink" x="0px" y="0px"
	 width="24px" height="24px" viewBox="0 0 24 24" enable-background="new 0 0 24 24" xml:space="preserve">
<g>
	<polygon points="19,9.492 19,6.392 18.194,5 16.402,5 	"/>
	<polygon points="5,5 5,5.444 12.808,18.949 14.6,18.949 6.536,5 	"/>
	<polygon points="18.793,19 19,18.881 19,16.146 12.561,5 10.705,5 	"/>
	<polygon points="5,12.362 5,15.463 7.016,18.949 8.807,18.949 	"/>
</g>
<g>
	<path d="M23.5,23.5h-23v-23h23V23.5z M1.714,22.224h20.57V1.772H1.714V22.224z"/>
	<rect x="3" y="3" width="1" height="1.059"/>
	<rect x="3" y="11.471" width="1" height="1.059"/>
	<rect x="3" y="19.941" width="1" height="1.059"/>
	<rect x="11.5" y="19.941" width="1" height="1.059"/>
	<rect x="11.5" y="3" width="1" height="1.059"/>
	<rect x="20" y="11.471" width="1" height="1.059"/>
	<rect x="20" y="19.941" width="1" height="1.059"/>
	<rect x="20" y="3" width="1" height="1.059"/>
</g>
</svg>
