<?xml version="1.0" encoding="utf-8"?>
<!-- Generator: Adobe Illustrator 15.1.0, SVG Export Plug-In . SVG Version: 6.00 Build 0)  -->
<!DOCTYPE svg PUBLIC "-//W3C//DTD SVG 1.1//EN" "http://www.w3.org/Graphics/SVG/1.1/DTD/svg11.dtd">
<svg version="1.1" id="Layer_1" xmlns="http://www.w3.org/2000/svg" xmlns:xlink="http://www.w3.org/1999/xlink" x="0px" y="0px"
	 width="24px" height="24px" viewBox="0 0 24 24" enable-background="new 0 0 24 24" xml:space="preserve">
<g>
	<polygon fill="none" points="11.449,10.153 10.179,8.88 8.908,10.153 10.178,11.426 	"/>
	<polygon fill="none" points="15.259,6.335 13.988,5.062 12.719,6.335 13.988,7.608 	"/>
	
		<rect x="13.09" y="13.073" transform="matrix(-0.7066 0.7076 -0.7076 -0.7066 33.7598 13.9444)" fill="none" width="1.798" height="1.797"/>
	<polygon fill="none" points="6.368,12.698 5.097,13.972 6.368,15.245 7.638,13.972 	"/>
	
		<rect x="16.9" y="9.254" transform="matrix(-0.7064 0.7078 -0.7078 -0.7064 37.5588 4.7282)" fill="none" width="1.798" height="1.798"/>
	
		<rect x="20.71" y="13.072" transform="matrix(-0.7063 0.7079 -0.7079 -0.7063 46.7624 8.5412)" fill="none" width="1.799" height="1.798"/>
	<polygon fill="none" points="16.529,17.79 17.799,19.063 19.069,17.79 17.799,16.517 	"/>
	<polygon fill="none" points="12.719,21.608 13.988,22.881 15.258,21.608 13.988,20.336 	"/>
	
		<rect x="9.279" y="16.891" transform="matrix(0.7062 -0.7081 0.7081 0.7062 -9.6055 12.4343)" fill="none" width="1.798" height="1.797"/>
	<path d="M21.609,7.608l-1.271-1.273L21.671,5h-2.664h-2.416h-2.54h-0.124h-2.541H8.97H6.307l1.332,1.334L6.367,7.608L4.979,6.217
		v2.782v2.308v2.546v0.236v2.547v2.307v2.785l1.39-1.393l1.27,1.272L6.249,23h2.778h2.303h2.54h0.237h2.539h2.305h2.777
		l-1.389-1.392l1.27-1.272l1.369,1.372v-2.744v-2.347V14.07v-0.198v-2.546V8.98V6.236L21.609,7.608z M19.069,10.153l-1.271,1.273
		l-1.271-1.273l1.271-1.273L19.069,10.153z M15.259,13.972l-1.271,1.272l-1.27-1.272l1.271-1.272L15.259,13.972z M13.988,5.062
		l1.271,1.273l-1.271,1.273l-1.27-1.273L13.988,5.062z M10.179,8.88l1.27,1.273l-1.271,1.273l-1.271-1.273L10.179,8.88z
		 M5.097,13.972l1.271-1.273l1.271,1.273l-1.271,1.273L5.097,13.972z M8.908,17.791l1.27-1.273l1.27,1.272l-1.27,1.272L8.908,17.791
		z M13.988,22.881l-1.27-1.272l1.27-1.272l1.27,1.272L13.988,22.881z M17.799,19.063l-1.27-1.272l1.27-1.273l1.271,1.273
		L17.799,19.063z M22.88,13.971l-1.271,1.273l-1.271-1.272l1.271-1.273L22.88,13.971z"/>
</g>
<path d="M25.5,25.5h-23v-23h23V25.5z M3.714,24.225h20.57V3.772H3.714V24.225z"/>
</svg>
