<?xml version="1.0" encoding="utf-8"?>
<!-- Generator: Adobe Illustrator 15.1.0, SVG Export Plug-In . SVG Version: 6.00 Build 0)  -->
<!DOCTYPE svg PUBLIC "-//W3C//DTD SVG 1.1//EN" "http://www.w3.org/Graphics/SVG/1.1/DTD/svg11.dtd">
<svg version="1.1" id="Layer_1" xmlns="http://www.w3.org/2000/svg" xmlns:xlink="http://www.w3.org/1999/xlink" x="0px" y="0px"
	 width="24px" height="24px" viewBox="0 0 24 24" enable-background="new 0 0 24 24" xml:space="preserve">
<g>
	<path d="M23.5,23.5h-23v-23h23V23.5z M1.714,22.225h20.57V1.772H1.714V22.225z"/>
	<rect x="3" y="3" width="1" height="1.059"/>
	<rect x="3" y="11.471" width="1" height="1.059"/>
	<rect x="3" y="19.941" width="1" height="1.059"/>
	<rect x="11.5" y="19.941" width="1" height="1.059"/>
	<rect x="11.5" y="3" width="1" height="1.059"/>
	<rect x="20" y="11.471" width="1" height="1.059"/>
	<rect x="20" y="19.941" width="1" height="1.059"/>
	<rect x="20" y="3" width="1" height="1.059"/>
</g>
<title></title>
<g id="icomoon-ignore">
</g>
<g>
	<path d="M19,12.016v-6.22l-0.305-0.529c-0.089-0.085-0.182-0.167-0.273-0.249h-3.453L19,12.016L19,12.016z"/>
	<path d="M18.967,18.646l-0.025-0.045c-0.04,0.041-0.074,0.086-0.115,0.127L18.967,18.646L18.967,18.646z"/>
	<path d="M15.584,19h2.778l0.465-0.271c0.04-0.041,0.075-0.086,0.114-0.127L11.05,5H7.499L7.47,5.016L15.584,19L15.584,19z"/>
	<path d="M5,8.207v6.221L7.634,19h3.583L5,8.207z"/>
</g>
</svg>
