<?xml version="1.0" encoding="utf-8"?>
<!-- Generator: Adobe Illustrator 15.1.0, SVG Export Plug-In . SVG Version: 6.00 Build 0)  -->
<!DOCTYPE svg PUBLIC "-//W3C//DTD SVG 1.1//EN" "http://www.w3.org/Graphics/SVG/1.1/DTD/svg11.dtd">
<svg version="1.1" id="Layer_1" xmlns="http://www.w3.org/2000/svg" xmlns:xlink="http://www.w3.org/1999/xlink" x="0px" y="0px"
	 width="24px" height="24px" viewBox="0 0 24 24" enable-background="new 0 0 24 24" xml:space="preserve">
<g>
	<path d="M9.064,5h-3.13c-0.32,0.286-0.623,0.589-0.901,0.916v6.081L9.064,5z"/>
	<path d="M15.304,5h-3.55L5,16.64v1.485c0.25,0.295,0.513,0.579,0.796,0.843h1.442l8.094-13.952L15.304,5z"/>
	<path d="M18.453,5h-0.416l-7.891,13.602c0.04,0.041,0.075,0.086,0.115,0.127l0.41,0.239h2.851l5.476-9.434L19,5.533
		C18.824,5.348,18.643,5.169,18.453,5z"/>
	<polygon points="13.503,19 13.521,18.968 10.672,18.968 10.726,19 	"/>
	<path d="M16.354,18.927c0.013,0.014,0.026,0.027,0.038,0.042h2.197c0.14-0.129,0.267-0.271,0.397-0.408l0.008-4.18L16.354,18.927z"
		/>
	<path d="M18.794,5.312C18.866,5.383,18.932,5.46,19,5.534v-0.05C18.935,5.423,18.871,5.361,18.794,5.312z"/>
	<path d="M6.732,18.968H6.667c0.016,0.005,0.03,0.015,0.047,0.02L6.732,18.968z"/>
</g>
<g>
	<path d="M23.5,23.5h-23v-23h23V23.5z M1.714,22.224h20.57V1.772H1.714V22.224z"/>
	<rect x="3" y="3" width="1" height="1.059"/>
	<rect x="3" y="11.471" width="1" height="1.059"/>
	<rect x="3" y="19.941" width="1" height="1.059"/>
	<rect x="11.5" y="19.941" width="1" height="1.059"/>
	<rect x="11.5" y="3" width="1" height="1.059"/>
	<rect x="20" y="11.471" width="1" height="1.059"/>
	<rect x="20" y="19.941" width="1" height="1.059"/>
	<rect x="20" y="3" width="1" height="1.059"/>
</g>
</svg>
