<?xml version="1.0" encoding="utf-8"?>
<!-- Generator: Adobe Illustrator 15.1.0, SVG Export Plug-In . SVG Version: 6.00 Build 0)  -->
<!DOCTYPE svg PUBLIC "-//W3C//DTD SVG 1.1//EN" "http://www.w3.org/Graphics/SVG/1.1/DTD/svg11.dtd">
<svg version="1.1" id="Layer_1" xmlns="http://www.w3.org/2000/svg" xmlns:xlink="http://www.w3.org/1999/xlink" x="0px" y="0px"
	 width="24px" height="24px" viewBox="0 0 24 24" enable-background="new 0 0 24 24" xml:space="preserve">
<g>
	
		<rect x="13.291" y="6.33" transform="matrix(-0.7067 0.7075 -0.7075 -0.7067 29.5743 2.3938)" fill="none" width="2.001" height="1.994"/>
	<rect x="4.808" y="9.158" transform="matrix(0.7071 -0.7071 0.7071 0.7071 -5.481 7.0817)" fill="none" width="2" height="1.998"/>
	
		<rect x="7.637" y="6.329" transform="matrix(-0.7071 0.7071 -0.7071 -0.7071 19.9257 6.4032)" fill="none" width="1.999" height="1.999"/>
	<polygon fill="none" points="12.878,15.813 11.464,14.399 10.351,15.513 10.05,15.814 11.463,17.227 	"/>
	<polygon fill="none" points="9.193,13.842 10.049,12.984 8.636,11.571 7.222,12.985 8.636,14.399 	"/>
	
		<rect x="10.465" y="9.156" transform="matrix(-0.7071 -0.7071 0.7071 -0.7071 12.3888 25.4421)" fill="none" width="1.997" height="1.999"/>
	
		<rect x="13.293" y="11.985" transform="matrix(-0.7074 -0.7069 0.7069 -0.7074 15.2241 32.2717)" fill="none" width="1.999" height="1.998"/>
	
		<rect x="16.122" y="14.813" transform="matrix(-0.7071 0.7071 -0.7071 -0.7071 40.409 14.888)" fill="none" width="1.998" height="1.999"/>
	
		<rect x="13.292" y="17.642" transform="matrix(0.7069 -0.7074 0.7074 0.7069 -8.9965 15.5743)" fill="none" width="2" height="1.998"/>
	
		<rect x="16.122" y="9.157" transform="matrix(-0.707 0.7072 -0.7072 -0.707 36.4089 5.2273)" fill="none" width="2" height="1.998"/>
	
		<rect x="7.636" y="17.645" transform="matrix(0.7066 -0.7076 0.7076 0.7066 -10.6573 11.5802)" fill="none" width="2" height="1.995"/>
	
		<rect x="4.808" y="14.814" transform="matrix(0.7071 -0.7071 0.7071 0.7071 -9.4807 8.7384)" fill="none" width="2" height="1.999"/>
	<path d="M20.449,5.415V4h-1.414l-1.914,1.915L15.707,4.5l0.5-0.5h-1.001h-0.028h-1.799h-1l0.5,0.5l-1.414,1.414L10.051,4.5l0.5-0.5
		h-0.001h-1H7.723H7.722h-1l0.5,0.5L5.809,5.914L3.895,4H2.491v1.426l1.902,1.902L2.979,8.743L2.491,8.255V9.23v0.001v1.852v0.976
		v0.001l0.488-0.489l1.414,1.414l-1.414,1.413l-0.488-0.487v0.976v0.002v1.852v0.029v0.947l0.488-0.488l1.414,1.414l-1.902,1.901V22
		h1.373l1.928-1.928l0.003,0.003l0.015-0.016l1.41,1.41l-0.015,0.015l0.001,0.001L6.692,22h1.03h0.029h1.77h1.059l-0.529-0.529
		l1.414-1.414l1.414,1.413L12.348,22h0.002h1.058h1.77h1.059l-0.529-0.529l1.414-1.414L19.064,22h1.385v-1.445l-1.913-1.913
		l1.413-1.413l0.5,0.5v-1v-1.83V13.9v-0.002l-0.5,0.5l-1.414-1.414l1.415-1.415l0.499,0.499v-0.998V9.272V9.243v-1l-0.5,0.5
		l-1.414-1.414L20.449,5.415z M11.463,11.568l-1.412-1.412l1.413-1.414l1.412,1.412L11.463,11.568z M8.636,11.571l1.413,1.413
		l-0.856,0.857l-0.558,0.558l-1.414-1.414L8.636,11.571z M10.351,15.513l1.113-1.113l1.414,1.413l-1.415,1.414l-1.413-1.412
		L10.351,15.513z M14.293,14.397l-1.414-1.413l1.414-1.413l1.413,1.413L14.293,14.397z M15.703,7.323l-1.414,1.416l-1.41-1.411
		l1.414-1.414L15.703,7.323z M10.05,7.328L8.637,8.742L7.223,7.328l1.414-1.413L10.05,7.328z M4.394,10.158l1.415-1.415l1.413,1.414
		l-1.415,1.414L4.394,10.158z M4.394,15.813l1.414-1.414l1.414,1.414l-1.414,1.414L4.394,15.813z M7.224,18.645l1.413-1.415
		l1.412,1.411l-1.414,1.414L7.224,18.645z M12.879,18.643l1.414-1.415l1.413,1.414l-1.414,1.414L12.879,18.643z M18.534,15.813
		l-1.413,1.413l-1.413-1.414l1.413-1.413L18.534,15.813z M18.535,10.155l-1.414,1.415l-1.414-1.413l1.415-1.415L18.535,10.155z"/>
</g>
<path d="M23,24.5H0v-23h23V24.5z M1.214,23.225h20.57V2.772H1.214V23.225z"/>
</svg>
