<?xml version="1.0" encoding="utf-8"?>
<!-- Generator: Adobe Illustrator 15.1.0, SVG Export Plug-In . SVG Version: 6.00 Build 0)  -->
<!DOCTYPE svg PUBLIC "-//W3C//DTD SVG 1.1//EN" "http://www.w3.org/Graphics/SVG/1.1/DTD/svg11.dtd">
<svg version="1.1" id="Layer_1" xmlns="http://www.w3.org/2000/svg" xmlns:xlink="http://www.w3.org/1999/xlink" x="0px" y="0px"
	 width="24px" height="24px" viewBox="0 0 24 24" enable-background="new 0 0 24 24" xml:space="preserve">
<polygon points="24.021,21.518 24.021,21.501 24.006,21.501 "/>
<g>
	
		<rect x="5.717" y="6.141" transform="matrix(0.7072 -0.707 0.707 0.7072 -3.4538 7.8381)" fill="none" width="4.04" height="3.896"/>
	
		<rect x="9.937" y="10.289" transform="matrix(0.7071 0.7071 -0.7071 0.7071 12.2057 -4.8496)" fill="none" width="4.04" height="4.04"/>
	
		<rect x="5.716" y="14.581" transform="matrix(-0.7072 -0.707 0.707 -0.7072 1.5228 33.6873)" fill="none" width="4.042" height="3.894"/>
	
		<rect x="14.18" y="14.571" transform="matrix(-0.7072 0.707 -0.707 -0.7072 39.3569 16.8033)" fill="none" width="4.039" height="3.959"/>
	
		<rect x="14.18" y="6.086" transform="matrix(-0.7071 -0.7071 0.7071 -0.7071 21.9506 25.2256)" fill="none" width="4.04" height="3.961"/>
	<path d="M20.441,6.681l-2.856-2.854l0.306-0.306h-0.611h-2.217h-0.608l0.304,0.304l-2.8,2.799L9.202,3.869l0.349-0.348H8.854h-2.13
		H6.025l0.35,0.35L3.517,6.726L2.958,6.167v1.118v1.712v1.115l0.558-0.557l2.755,2.755l-2.754,2.753l-0.559-0.559v1.117v1.711v1.116
		l0.558-0.558l2.858,2.857l-0.73,0.73h1.461h1.367h1.462l-0.731-0.73l2.753-2.754l2.799,2.799l-0.686,0.686h1.371h1.457h1.373
		l-0.687-0.687l2.856-2.855l0.601,0.601v-1.201v-1.627v-1.201l-0.601,0.601l-2.8-2.799l2.801-2.8l0.6,0.6v-1.2V7.281v-1.2
		L20.441,6.681z M4.931,8.14l2.857-2.856l2.755,2.755l-2.857,2.855L4.931,8.14z M11.957,9.453l2.856,2.856l-2.856,2.856L9.1,12.309
		L11.957,9.453z M7.789,19.334l-2.858-2.857l2.754-2.754l2.858,2.857L7.789,19.334z M19.027,16.522l-2.856,2.855l-2.8-2.799
		l2.856-2.855L19.027,16.522z M16.228,10.895l-2.856-2.856l2.801-2.8l2.856,2.856L16.228,10.895z"/>
</g>
<path d="M23.5,24h-23V1h23V24z M1.714,22.725h20.57V2.272H1.714V22.725z"/>
</svg>
