<?xml version="1.0" encoding="utf-8"?>
<!-- Generator: Adobe Illustrator 15.1.0, SVG Export Plug-In . SVG Version: 6.00 Build 0)  -->
<!DOCTYPE svg PUBLIC "-//W3C//DTD SVG 1.1//EN" "http://www.w3.org/Graphics/SVG/1.1/DTD/svg11.dtd">
<svg version="1.1" id="Layer_1" xmlns="http://www.w3.org/2000/svg" xmlns:xlink="http://www.w3.org/1999/xlink" x="0px" y="0px"
	 width="24px" height="24px" viewBox="-0.5 -0.5 24 24" enable-background="new -0.5 -0.5 24 24" xml:space="preserve">
<path d="M8,2.5c3.038,0,5.5,2.462,5.5,5.5c0,1.33-0.471,2.55-1.26,3.5h8.26v9h-9v-8.26C10.55,13.03,9.33,13.5,8,13.5
	c-3.038,0-5.5-2.462-5.5-5.5S4.962,2.5,8,2.5z"/>
<g>
	<rect x="0.5" y="0.542" fill="none" width="22" height="21.916"/>
	<path d="M22.5-0.5h-22h-1v1.042v21.916V23.5h1h23v-1v-0.042V0.542V-0.5H22.5z M22.5,22.458h-22V0.542h22V22.458z"/>
</g>
</svg>
