<?xml version="1.0" encoding="utf-8"?>
<!-- Generator: Adobe Illustrator 15.1.0, SVG Export Plug-In . SVG Version: 6.00 Build 0)  -->
<!DOCTYPE svg PUBLIC "-//W3C//DTD SVG 1.1//EN" "http://www.w3.org/Graphics/SVG/1.1/DTD/svg11.dtd">
<svg version="1.1" id="Layer_1" xmlns="http://www.w3.org/2000/svg" xmlns:xlink="http://www.w3.org/1999/xlink" x="0px" y="0px"
	 width="24px" height="24px" viewBox="-0.5 -0.5 24 24" enable-background="new -0.5 -0.5 24 24" xml:space="preserve">
<path d="M17,1.5c2.5,0,4.5,2,4.5,4.5s-2,4.5-4.5,4.5s-4.5-2-4.5-4.5S14.5,1.5,17,1.5"/>
<polyline points="6,13.5 10.5,21.5 1.5,21.5 6,13.5 "/>
<rect x="1.5" y="8.5" width="2" height="2"/>
<rect x="1.5" y="1.5" width="9" height="2"/>
<rect x="7.5" y="5" width="3" height="2"/>
<rect x="5.5" y="8.5" width="2" height="2"/>
<rect x="1.5" y="5" width="4" height="2"/>
<rect x="9.5" y="8.5" width="1" height="2"/>
<g>
	
		<rect x="17.614" y="17.144" transform="matrix(-0.7071 0.7071 -0.7071 -0.7071 44.6049 17.8082)" fill="none" width="2" height="1.996"/>
	<rect x="14.787" y="14.314" transform="matrix(0.7071 -0.7071 0.7071 0.7071 -6.2043 15.6484)" fill="none" width="2" height="2"/>
	<path d="M20.043,12.5h-0.029l0,0l-0.707,0.708l-0.691,0.691l-1.4-1.399h-0.027h-0.002h-2.799h-0.027h-0.002l-1.4,1.398
		l-0.428-0.428l-0.059-0.06v0.976v0.002v1.852v0.029v0.947l0.059-0.06l0.43-0.429l1.414,1.414l-1.844,1.842l-0.059,0.06V21.5h0.059
		h1.314l1.928-1.928l0.002,0.003l0.016-0.016l1.41,1.41l-0.014,0.015v0.001L16.672,21.5h1.029h0.029h1.77h1.059l-0.529-0.529
		l1.414-1.414l0.086,0.086V19.47v-2.655v-0.173V16.64l-0.088,0.087l-1.412-1.412l0.203-0.204l1.211-1.21l0.086,0.086v-0.173v-0.002
		V12.5H20.043z M14.373,15.313l1.414-1.414l1.414,1.414l-1.414,1.414L14.373,15.313z M20.027,18.141l-1.414,1.414l-1.41-1.41
		l1.412-1.415L20.027,18.141z"/>
</g>
</svg>
