<?xml version="1.0" encoding="utf-8"?>
<!-- Generator: Adobe Illustrator 15.1.0, SVG Export Plug-In . SVG Version: 6.00 Build 0)  -->
<!DOCTYPE svg PUBLIC "-//W3C//DTD SVG 1.1//EN" "http://www.w3.org/Graphics/SVG/1.1/DTD/svg11.dtd">
<svg version="1.1" id="Layer_1" xmlns="http://www.w3.org/2000/svg" xmlns:xlink="http://www.w3.org/1999/xlink" x="0px" y="0px"
	 width="24px" height="24px" viewBox="0 0 24 24" enable-background="new 0 0 24 24" xml:space="preserve">
<g>
	<path d="M18.967,11.997V5.916C18.688,5.589,18.386,5.286,18.064,5h-3.129L18.967,11.997z"/>
	<path d="M8.667,5.016l8.095,13.952h1.441c0.283-0.264,0.546-0.548,0.796-0.843V16.64L12.247,5h-3.55L8.667,5.016z"/>
	<path d="M5,5.533l0.003,4.001l5.475,9.434h2.851l0.409-0.239c0.041-0.041,0.075-0.086,0.115-0.127L5.962,5H5.547
		C5.357,5.169,5.176,5.348,5,5.533z"/>
	<polygon points="13.274,19 13.327,18.968 10.479,18.968 10.496,19 	"/>
	<path d="M5.006,14.381l0.007,4.18c0.13,0.137,0.258,0.279,0.397,0.408h2.198c0.013-0.015,0.025-0.028,0.039-0.042L5.006,14.381z"/>
	<path d="M5,5.484v0.05C5.069,5.46,5.133,5.383,5.206,5.312C5.129,5.361,5.065,5.423,5,5.484z"/>
	<path d="M17.286,18.987c0.017-0.005,0.031-0.016,0.047-0.02h-0.065L17.286,18.987z"/>
</g>
<g>
	<path d="M23.5,23.5h-23v-23h23V23.5z M1.714,22.224h20.57V1.772H1.714V22.224z"/>
	<rect x="3" y="3" width="1" height="1.059"/>
	<rect x="3" y="11.471" width="1" height="1.059"/>
	<rect x="3" y="19.941" width="1" height="1.059"/>
	<rect x="11.5" y="19.941" width="1" height="1.059"/>
	<rect x="11.5" y="3" width="1" height="1.059"/>
	<rect x="20" y="11.471" width="1" height="1.059"/>
	<rect x="20" y="19.941" width="1" height="1.059"/>
	<rect x="20" y="3" width="1" height="1.059"/>
</g>
</svg>
