<?xml version="1.0" encoding="utf-8"?>
<!-- Generator: Adobe Illustrator 15.1.0, SVG Export Plug-In . SVG Version: 6.00 Build 0)  -->
<!DOCTYPE svg PUBLIC "-//W3C//DTD SVG 1.1//EN" "http://www.w3.org/Graphics/SVG/1.1/DTD/svg11.dtd">
<svg version="1.1" id="Layer_1" xmlns="http://www.w3.org/2000/svg" xmlns:xlink="http://www.w3.org/1999/xlink" x="0px" y="0px"
	 width="24px" height="24px" viewBox="0 0 24 24" enable-background="new 0 0 24 24" xml:space="preserve">
<g>
	<polygon points="7.598,5 5.806,5 5,6.397 5,9.508 	"/>
	<polygon points="11.461,5 9.67,5 5,13.106 5,16.217 	"/>
	<polygon points="15.342,5 13.551,5 5.486,19 7.278,19 	"/>
	<polygon points="17.465,5 9.4,19 11.192,19 19,5.445 19,5 	"/>
	<polygon points="13.28,19 15.072,19 19,12.18 19,9.07 	"/>
	<polygon points="17.17,19 18.961,19 19,18.932 19,15.82 	"/>
</g>
<g>
	<path d="M23.5,23.5h-23v-23h23V23.5z M1.714,22.224h20.57V1.772H1.714V22.224z"/>
	<rect x="3" y="3" width="1" height="1.059"/>
	<rect x="3" y="11.471" width="1" height="1.059"/>
	<rect x="3" y="19.941" width="1" height="1.059"/>
	<rect x="11.5" y="19.941" width="1" height="1.059"/>
	<rect x="11.5" y="3" width="1" height="1.059"/>
	<rect x="20" y="11.471" width="1" height="1.059"/>
	<rect x="20" y="19.941" width="1" height="1.059"/>
	<rect x="20" y="3" width="1" height="1.059"/>
</g>
</svg>
