<?xml version="1.0" encoding="utf-8"?>
<!-- Generator: Adobe Illustrator 15.1.0, SVG Export Plug-In . SVG Version: 6.00 Build 0)  -->
<!DOCTYPE svg PUBLIC "-//W3C//DTD SVG 1.1//EN" "http://www.w3.org/Graphics/SVG/1.1/DTD/svg11.dtd">
<svg version="1.1" id="Layer_1" xmlns="http://www.w3.org/2000/svg" xmlns:xlink="http://www.w3.org/1999/xlink" x="0px" y="0px"
	 width="24px" height="24px" viewBox="-0.5 -2.5 24 24" enable-background="new -0.5 -2.5 24 24" xml:space="preserve">
<rect x="2.5" y="0.5" width="4" height="4"/>
<rect x="8.5" y="0.5" width="4" height="4"/>
<rect x="14.5" y="0.5" width="4" height="4"/>
<rect x="2.5" y="10.5" width="2" height="2"/>
<rect x="6.5" y="10.5" width="2" height="2"/>
<rect x="10.5" y="10.5" width="2" height="2"/>
<rect x="14.5" y="10.5" width="2" height="2"/>
<rect x="18.5" y="10.5" width="2" height="2"/>
<rect x="2.5" y="16.5" width="18" height="2"/>
<g>
	<rect x="0.5" y="-1.458" fill="none" width="22" height="21.916"/>
	<path d="M22.5-2.5h-22h-1v1.042v21.916V21.5h1h23v-1v-0.042V-1.458V-2.5H22.5z M22.5,20.458h-22V-1.458h22V20.458z"/>
</g>
</svg>
