<?xml version="1.0" encoding="utf-8"?>
<!-- Generator: Adobe Illustrator 15.1.0, SVG Export Plug-In . SVG Version: 6.00 Build 0)  -->
<!DOCTYPE svg PUBLIC "-//W3C//DTD SVG 1.1//EN" "http://www.w3.org/Graphics/SVG/1.1/DTD/svg11.dtd">
<svg version="1.1" id="Layer_1" xmlns="http://www.w3.org/2000/svg" xmlns:xlink="http://www.w3.org/1999/xlink" x="0px" y="0px"
	 width="24px" height="24px" viewBox="0.5 0.5 24 24" enable-background="new 0.5 0.5 24 24" xml:space="preserve">
<g>
	<polygon points="19.5,7.95 19.5,6.145 18.39,5.5 15.287,5.5 	"/>
	<polygon points="5.5,5.5 5.5,5.556 19.5,13.695 19.5,11.89 8.509,5.5 	"/>
	<polygon points="5.5,9.681 5.5,11.486 19.283,19.5 19.5,19.5 19.5,17.82 	"/>
	<polygon points="5.5,15.687 5.5,17.492 8.955,19.5 12.06,19.5 	"/>
</g>
<g>
	<path d="M24,24H1V1h23V24z M2.214,22.724h20.57V2.272H2.214V22.724z"/>
	<rect x="3.5" y="3.5" width="1" height="1.059"/>
	<rect x="3.5" y="11.971" width="1" height="1.059"/>
	<rect x="3.5" y="20.441" width="1" height="1.059"/>
	<rect x="12" y="20.441" width="1" height="1.059"/>
	<rect x="12" y="3.5" width="1" height="1.059"/>
	<rect x="20.5" y="11.971" width="1" height="1.059"/>
	<rect x="20.5" y="20.441" width="1" height="1.059"/>
	<rect x="20.5" y="3.5" width="1" height="1.059"/>
</g>
</svg>
