<?xml version="1.0" encoding="utf-8"?>
<!-- Generator: Adobe Illustrator 15.1.0, SVG Export Plug-In . SVG Version: 6.00 Build 0)  -->
<!DOCTYPE svg PUBLIC "-//W3C//DTD SVG 1.1//EN" "http://www.w3.org/Graphics/SVG/1.1/DTD/svg11.dtd">
<svg version="1.1" id="Layer_1" xmlns="http://www.w3.org/2000/svg" xmlns:xlink="http://www.w3.org/1999/xlink" x="0px" y="0px"
	 width="24px" height="24px" viewBox="0 0 24 24" enable-background="new 0 0 24 24" xml:space="preserve">
<path d="M21,2.284c-1.109-0.432-2.33-0.617-3.5-0.617c-1.95,0-4.05,0.493-5.5,1.849c-0.013-0.012-0.028-0.021-0.042-0.033V5.75
	h0.379c1.391-0.931,3.591-1.617,5.163-1.617c1.2,0,2.4,0.185,3.5,0.616v14.178c-1.1-0.432-2.3-0.617-3.5-0.617
	c-1.604,0-3.865,0.718-5.25,1.678v0.055h-0.079c-0.055,0.04-0.119,0.077-0.171,0.117v-0.117h-0.042v2.549
	c0.013,0.013,0.028,0.022,0.042,0.034c1.35-1.048,3.8-1.85,5.5-1.85c1.65,0,3.35,0.37,4.75,1.294c0.1,0.063,0.15,0.063,0.25,0.063
	c0.25,0,0.5-0.308,0.5-0.617V3.516C22.4,2.961,21.75,2.592,21,2.284z"/>
<path d="M12.25,20.042v-0.055c-0.026,0.019-0.054,0.036-0.079,0.055H12.25z"/>
<path d="M12,20.076c-0.015-0.012-0.034-0.022-0.05-0.034h-0.2v-0.138c-1.385-0.961-3.646-1.679-5.25-1.679
	c-1.2,0-2.4,0.186-3.5,0.617V4.666c1.1-0.432,2.3-0.616,3.5-0.616c1.617,0,3.902,0.728,5.284,1.701h0.257V3.399
	C12.028,3.411,12.013,3.421,12,3.433c-1.45-1.356-3.55-1.849-5.5-1.849C5.33,1.583,4.109,1.769,3,2.2C2.25,2.508,1.6,2.878,1,3.433
	V21.43c0,0.31,0.25,0.618,0.5,0.618c0.1,0,0.15,0,0.25-0.062c1.4-0.925,3.1-1.295,4.75-1.295c1.7,0,4.15,0.803,5.5,1.85
	c0.013-0.012,0.028-0.021,0.041-0.034v-2.465H12V20.076z"/>
<path d="M11.95,20.042c-0.062-0.047-0.134-0.092-0.2-0.138v0.138H11.95z"/>
<path d="M8.25,11.25C7.5,11.25,6,11.85,6,13.05v1.2h4.5v-1.2C10.5,11.85,9,11.25,8.25,11.25"/>
<path d="M8,10.25c0.828,0,1.5-0.671,1.5-1.5S8.828,7.25,8,7.25s-1.5,0.671-1.5,1.5S7.172,10.25,8,10.25"/>
<path d="M10.97,10c0.845,0,1.53-0.671,1.53-1.5S11.815,7,10.97,7c-0.164,0-0.322,0.025-0.47,0.07c0.291,0.405,0.47,0.899,0.47,1.43
	s-0.179,1.02-0.47,1.425C10.648,9.975,10.806,10,10.97,10"/>
<rect x="15" y="11" width="2" height="2"/>
<rect x="11.5" y="11" width="2.5" height="3"/>
<rect x="11.5" y="15" width="2.5" height="2"/>
<rect x="15" y="14" width="2" height="3"/>
<path d="M13.97,10c0.845,0,1.53-0.671,1.53-1.5S14.814,7,13.97,7c-0.164,0-0.323,0.025-0.47,0.07c0.291,0.405,0.47,0.899,0.47,1.43
	s-0.179,1.02-0.47,1.425C13.647,9.975,13.806,10,13.97,10"/>
</svg>
