<?xml version="1.0" encoding="utf-8"?>
<!-- Generator: Adobe Illustrator 15.1.0, SVG Export Plug-In . SVG Version: 6.00 Build 0)  -->
<!DOCTYPE svg PUBLIC "-//W3C//DTD SVG 1.1//EN" "http://www.w3.org/Graphics/SVG/1.1/DTD/svg11.dtd">
<svg version="1.1" id="Layer_1" xmlns="http://www.w3.org/2000/svg" xmlns:xlink="http://www.w3.org/1999/xlink" x="0px" y="0px"
	 width="24px" height="24px" viewBox="-0.5 0.5 24 24" enable-background="new -0.5 0.5 24 24" xml:space="preserve">
<path d="M5.43,10.5l-2.14,8v-10h17c0-1.104-0.896-2-2-2h-7l-2-2h-6c-1.11,0-2,0.89-2,2v12c0,1.1,0.89,2,2,2h15
	c0.92,0,1.7-0.63,1.93-1.5l2.28-8.5H5.43z M15.11,11.556c0.126-0.036,0.255-0.056,0.383-0.056c0.663,0,1.056,0.537,0.878,1.199
	c-0.178,0.664-0.857,1.201-1.521,1.201c-0.128,0-0.246-0.02-0.354-0.061c0.316-0.324,0.562-0.715,0.675-1.141
	C15.284,12.275,15.252,11.88,15.11,11.556z M12.694,11.556c0.128-0.036,0.259-0.056,0.39-0.056c0.677,0,1.081,0.537,0.903,1.199
	c-0.178,0.664-0.869,1.201-1.545,1.201c-0.131,0-0.252-0.02-0.361-0.061c0.319-0.324,0.568-0.715,0.681-1.141
	C12.877,12.276,12.841,11.88,12.694,11.556z M11.158,16.539L10.902,17.5h-3.6l0.256-0.961C7.815,15.58,9.145,15.1,9.744,15.1
	C10.344,15.1,11.415,15.58,11.158,16.539z M11.48,13.1c-0.177,0.664-0.859,1.201-1.521,1.201S8.903,13.764,9.08,13.1
	c0.178-0.662,0.86-1.2,1.522-1.2C11.264,11.9,11.659,12.438,11.48,13.1z M16.483,14.957l-0.186,0.686
	c-0.066,0.252-0.324,0.457-0.572,0.457h-0.392l0.232-0.273l-2.044,2.4l0.438-0.514c0.206,0.034,0.325,0.217,0.265,0.443
	l-0.183,0.688c-0.067,0.25-0.326,0.457-0.574,0.457h-0.899c-0.248,0-0.394-0.207-0.327-0.457l0.185-0.688
	c0.06-0.227,0.277-0.408,0.502-0.443L12.407,16.1h-0.381c-0.248,0-0.394-0.205-0.327-0.457l0.185-0.686
	c0.066-0.252,0.324-0.457,0.572-0.457h0.9c0.248,0,0.396,0.205,0.328,0.457l-0.186,0.686c-0.062,0.232-0.285,0.417-0.515,0.445
	l0.488,1.52l1.73-2.033l-0.437,0.513c-0.207-0.033-0.328-0.215-0.268-0.444l0.186-0.686c0.067-0.252,0.324-0.457,0.572-0.457h0.899
	C16.403,14.5,16.551,14.705,16.483,14.957z"/>
<polygon points="12.928,17.713 12.928,17.713 13.093,18.227 "/>
<path d="M12.926,16.1c0.02,0,0.038-0.009,0.058-0.012l0,0C12.964,16.091,12.945,16.1,12.926,16.1z"/>
</svg>
