<?xml version="1.0" encoding="UTF-8" standalone="no"?>
<svg
   xmlns:dc="http://purl.org/dc/elements/1.1/"
   xmlns:cc="http://creativecommons.org/ns#"
   xmlns:rdf="http://www.w3.org/1999/02/22-rdf-syntax-ns#"
   xmlns:svg="http://www.w3.org/2000/svg"
   xmlns="http://www.w3.org/2000/svg"
   id="svg944"
   version="1.1"
   viewBox="0 0 6.3499999 6.3499999"
   height="24"
   width="24">
  <defs
     id="defs938" />
  <metadata
     id="metadata941">
    <rdf:RDF>
      <cc:Work
         rdf:about="">
        <dc:format>image/svg+xml</dc:format>
        <dc:type
           rdf:resource="http://purl.org/dc/dcmitype/StillImage" />
        <dc:title></dc:title>
      </cc:Work>
    </rdf:RDF>
  </metadata>
  <g
     transform="translate(0,-10.583332)"
     style="display:inline"
     id="layer2">
    <path
       id="path863"
       d="m 3.1750002,11.046447 c -1.2420544,0 -2.24895835,1.006727 -2.24895835,2.248781 10e-8,1.242054 1.00690405,2.248958 2.24895835,2.248958 h 0.1322395 v 0.926031 c 1.2858637,-0.621765 2.1167184,-1.984374 2.1167184,-3.174989 0,-1.243531 -1.0080728,-2.248781 -2.2489579,-2.248781 z m 0.1051543,0.960374 c 0.2101048,0 0.4048091,0.04188 0.5841911,0.125867 0.1803729,0.08399 0.3314671,0.203317 0.4533676,0.357773 0.074329,0.0946 0.1309411,0.197367 0.1695923,0.308382 0.039642,0.111014 0.059481,0.225935 0.059481,0.344672 0,0.253886 -0.07893,0.454099 -0.2365088,0.600832 -0.1575785,0.146733 -0.3750266,0.223105 -0.6525233,0.228897 v -0.223055 c -0.059464,0.07433 -0.1278723,0.129272 -0.205175,0.16499 -0.076312,0.03475 -0.1654095,0.05222 -0.2674887,0.05222 -0.1704624,0 -0.3093343,-0.0598 -0.4163688,-0.179506 -0.1060435,-0.120669 -0.1589708,-0.277647 -0.1589708,-0.470717 0,-0.193069 0.053529,-0.349871 0.160564,-0.470539 0.1070346,-0.120668 0.2453043,-0.181099 0.4147756,-0.181099 0.1020792,0 0.1917792,0.01837 0.2690819,0.05506 0.077303,0.03572 0.1451092,0.09021 0.2035818,0.163573 v -0.189597 h 0.2126101 v 1.065706 c 0.1446948,-0.02124 0.2575637,-0.08545 0.3388307,-0.192606 0.082258,-0.108118 0.1233883,-0.247626 0.1233883,-0.418493 0,-0.103292 -0.01573,-0.200291 -0.047443,-0.291033 -0.030723,-0.09074 -0.077841,-0.174683 -0.1412684,-0.25191 C 4.0408018,12.479776 3.9149313,12.383228 3.7662722,12.31662 3.6186042,12.249045 3.4575906,12.215183 3.283164,12.215183 c -0.1219004,0 -0.2388789,0.01594 -0.3508687,0.0478 -0.1119898,0.03089 -0.2155415,0.07736 -0.3106834,0.139144 -0.1555964,0.09846 -0.2775346,0.227797 -0.3657389,0.388044 -0.087213,0.159282 -0.1308234,0.332025 -0.1308234,0.518337 0,0.15349 0.028306,0.29741 0.084796,0.431593 0.057481,0.134183 0.1401671,0.252437 0.2481926,0.354764 0.1040615,0.100396 0.224547,0.176591 0.3613134,0.228719 0.1367663,0.05309 0.2829008,0.07966 0.4384972,0.07966 0.1278468,0 0.2532922,-0.02126 0.3761837,-0.06373 0.1238825,-0.04151 0.2373537,-0.101313 0.340424,-0.179506 l 0.133656,0.160742 c -0.1238825,0.09364 -0.2590703,0.164971 -0.4057472,0.214203 -0.1456858,0.0502 -0.2938751,0.07541 -0.4445163,0.07541 -0.1833461,0 -0.3563339,-0.03188 -0.5188678,-0.0956 C 2.5764473,14.452024 2.4317653,14.360338 2.3049096,14.23967 2.1780539,14.119002 2.0815165,13.979494 2.0151155,13.821177 c -0.066401,-0.159282 -0.099667,-0.330222 -0.099667,-0.512672 0,-0.175693 0.033691,-0.343122 0.1010828,-0.502404 0.067392,-0.159282 0.1635043,-0.299241 0.2883779,-0.41991 0.1278469,-0.122598 0.2756108,-0.216264 0.4431,-0.280942 0.1674893,-0.06564 0.3448345,-0.09843 0.5321449,-0.09843 z m -0.040185,0.868675 c -0.1199183,0 -0.2154283,0.03963 -0.2867847,0.118785 -0.070365,0.07916 -0.1056855,0.186785 -0.1056854,0.322898 -10e-8,0.138045 0.03532,0.24675 0.1056854,0.325908 0.070365,0.07819 0.1669026,0.117192 0.2897942,0.117192 0.1219003,0 0.2175874,-0.03963 0.2869616,-0.118785 0.070365,-0.07916 0.1055085,-0.187235 0.1055085,-0.324315 0,-0.135148 -0.035745,-0.242323 -0.1071017,-0.321482 -0.071356,-0.08012 -0.1674687,-0.120201 -0.2883779,-0.120201 z"
       style="stroke-width:0.26458099" />
    <g
       transform="matrix(0.83975091,0,0,0.81796231,2.3931368,3.8782408)"
       id="text1581"
       style="font-style:normal;font-weight:normal;font-size:10.58333302px;line-height:1.25;font-family:sans-serif;letter-spacing:0px;word-spacing:0px;fill:#ff0000;fill-opacity:1;stroke:none;stroke-width:0.26458332"
       aria-label="@" />
  </g>
</svg>
