<?xml version="1.0" encoding="utf-8"?>
<!-- Generator: Adobe Illustrator 15.1.0, SVG Export Plug-In . SVG Version: 6.00 Build 0)  -->
<!DOCTYPE svg PUBLIC "-//W3C//DTD SVG 1.1//EN" "http://www.w3.org/Graphics/SVG/1.1/DTD/svg11.dtd">
<svg version="1.1" id="Layer_1" xmlns="http://www.w3.org/2000/svg" xmlns:xlink="http://www.w3.org/1999/xlink" x="0px" y="0px"
	 width="24px" height="24px" viewBox="-0.5 -0.5 24 24" enable-background="new -0.5 -0.5 24 24" xml:space="preserve">
<path d="M5.499,10C4.001,10,1,11.2,1,13.6V16h9v-2.4C9.999,11.2,6.999,10,5.499,10"/>
<path d="M5,8c1.656,0,3-1.343,3-3S6.656,2,5,2S2,3.343,2,5S3.344,8,5,8"/>
<path d="M10.939,7.5C12.63,7.5,14,6.157,14,4.5s-1.37-3-3.061-3c-0.327,0-0.643,0.05-0.939,0.14c0.582,0.81,0.939,1.8,0.939,2.86
	S10.582,6.54,10,7.35C10.296,7.45,10.612,7.5,10.939,7.5"/>
<path d="M16.939,7.5C18.629,7.5,20,6.157,20,4.5s-1.37-3-3.061-3c-0.328,0-0.646,0.05-0.939,0.14c0.582,0.81,0.939,1.799,0.939,2.86
	S16.582,6.54,16,7.35C16.295,7.45,16.611,7.5,16.939,7.5"/>
<path d="M20.579,21.5v-1.26c0.349,0,0.631-0.282,0.631-0.631V10.16h-8.19v7.56h-1.26V8.9h10.711v10.709
	C22.471,20.652,21.622,21.5,20.579,21.5z"/>
<path d="M20.579,20.24c-0.378,0-0.629-0.253-0.629-0.631v-1.259H10.5v1.89c0,0.692,0.567,1.26,1.26,1.26h8.819V20.24z"/>
<rect x="16.561" y="12.5" width="3" height="2"/>
<rect x="14.41" y="12.5" width="1" height="2"/>
</svg>
