<?xml version="1.0" encoding="utf-8"?>
<!-- Generator: Adobe Illustrator 15.1.0, SVG Export Plug-In . SVG Version: 6.00 Build 0)  -->
<!DOCTYPE svg PUBLIC "-//W3C//DTD SVG 1.1//EN" "http://www.w3.org/Graphics/SVG/1.1/DTD/svg11.dtd">
<svg version="1.1" id="Layer_1" xmlns="http://www.w3.org/2000/svg" xmlns:xlink="http://www.w3.org/1999/xlink" x="0px" y="0px"
	 width="24px" height="24px" viewBox="0.5 0.5 24 24" enable-background="new 0.5 0.5 24 24" xml:space="preserve">
<path d="M6.499,11.5C5.001,11.5,2,12.701,2,15.1v2.4h9v-2.4C11,12.701,8,11.5,6.499,11.5"/>
<path d="M6.5,9.5c1.656,0,3-1.343,3-3s-1.344-3-3-3s-3,1.343-3,3S4.845,9.5,6.5,9.5"/>
<path d="M12.439,8.5c1.69,0,3.061-1.343,3.061-3s-1.37-3-3.061-3c-0.328,0-0.644,0.05-0.939,0.14c0.582,0.81,0.939,1.8,0.939,2.86
	S12.082,7.54,11.5,8.35C11.797,8.45,12.113,8.5,12.439,8.5"/>
<path d="M18.461,8.5c1.656,0,2.998-1.343,2.998-3s-1.342-3-2.998-3c-0.32,0-0.631,0.05-0.92,0.14c0.57,0.81,0.92,1.799,0.92,2.86
	s-0.35,2.04-0.92,2.85C17.83,8.45,18.141,8.5,18.461,8.5"/>
<path d="M17.5,19.624c-0.221,0-0.425-0.117-0.537-0.308l-3.5-5.933c-0.175-0.296-0.076-0.679,0.221-0.854
	c0.296-0.175,0.68-0.076,0.854,0.22l2.96,5.018l2.964-5.082c0.173-0.297,0.555-0.397,0.854-0.225
	c0.297,0.174,0.397,0.556,0.225,0.854l-3.5,6c-0.112,0.19-0.316,0.309-0.537,0.31C17.501,19.624,17.501,19.624,17.5,19.624z"/>
<path d="M18.625,22h-2.25c-0.619,0-1.125-0.515-1.125-1.142v-1.715c0-0.627,0.506-1.144,1.125-1.144h2.25
	c0.619,0,1.125,0.517,1.125,1.144v1.715C19.75,21.485,19.244,22,18.625,22z"/>
<path d="M15.125,14h-2.25c-0.619,0-1.125-0.515-1.125-1.143v-1.715c0-0.628,0.506-1.143,1.125-1.143h2.25
	c0.62,0,1.125,0.515,1.125,1.143v1.715C16.25,13.485,15.745,14,15.125,14z"/>
<path d="M22.124,14h-2.248c-0.62,0-1.126-0.515-1.126-1.143v-1.715c0-0.628,0.506-1.143,1.126-1.143h2.248
	c0.62,0,1.126,0.515,1.126,1.143v1.715C23.25,13.485,22.744,14,22.124,14z"/>
</svg>
