<?xml version="1.0" encoding="utf-8"?>
<!-- Generator: Adobe Illustrator 15.1.0, SVG Export Plug-In . SVG Version: 6.00 Build 0)  -->
<!DOCTYPE svg PUBLIC "-//W3C//DTD SVG 1.1//EN" "http://www.w3.org/Graphics/SVG/1.1/DTD/svg11.dtd">
<svg version="1.1" id="Layer_1" xmlns="http://www.w3.org/2000/svg" xmlns:xlink="http://www.w3.org/1999/xlink" x="0px" y="0px"
	 width="24px" height="24px" viewBox="0 0 24 24" enable-background="new 0 0 24 24" xml:space="preserve">
<rect x="10.85" y="10.545" transform="matrix(0.4053 0.9142 -0.9142 0.4053 21.5367 -1.4074)" width="2" height="10.61"/>
<rect x="13.45" y="14.961" transform="matrix(0.3941 0.9191 -0.9191 0.3941 26.3555 -1.6777)" width="2" height="8.377"/>
<rect x="7" y="20" width="12" height="2"/>
<path d="M14,22c-4.962,0-9-4.037-9-9c0-3.497,2.072-6.718,5.279-8.207l0.842,1.814C8.618,7.77,7,10.279,7,13c0,3.859,3.14,7,7,7V22z
	"/>
<rect x="9.208" y="2.506" transform="matrix(-0.917 0.3989 -0.3989 -0.917 23.4985 7.1217)" width="3.6" height="7"/>
<polygon points="14.5,9.4 11.2,10.9 12.5,12.1 14.5,11.2 "/>
<circle cx="9" cy="17" r="2"/>
</svg>
