<?xml version="1.0" encoding="utf-8"?>
<!-- Generator: Adobe Illustrator 15.1.0, SVG Export Plug-In . SVG Version: 6.00 Build 0)  -->
<!DOCTYPE svg PUBLIC "-//W3C//DTD SVG 1.1//EN" "http://www.w3.org/Graphics/SVG/1.1/DTD/svg11.dtd">
<svg version="1.1" id="Layer_1" xmlns="http://www.w3.org/2000/svg" xmlns:xlink="http://www.w3.org/1999/xlink" x="0px" y="0px"
	 width="24px" height="24px" viewBox="0.5 0.5 24 24" enable-background="new 0.5 0.5 24 24" xml:space="preserve">
<path d="M20.5,22h-16c-1.103,0-2-0.896-2-2V6c0-1.103,0.897-2,2-2h16c1.104,0,2,0.897,2,2v14C22.5,21.104,21.604,22,20.5,22z M4.5,6
	v14h16V6H4.5z"/>
<rect x="6.5" y="8.5" width="3" height="2"/>
<rect x="6.5" y="12" width="3" height="2"/>
<rect x="6.5" y="15.5" width="3" height="2"/>
<path d="M10.405,7.96h8.189v3.149h-0.63l-0.63-1.89h-3.742l2.262,3.231l-2.59,3.697h4.07l0.63-1.26h0.63v3.15h-8.189l3.527-5.04
	L10.405,7.96z"/>
</svg>
