<?xml version="1.0" encoding="utf-8"?>
<!-- Generator: Adobe Illustrator 15.1.0, SVG Export Plug-In . SVG Version: 6.00 Build 0)  -->
<!DOCTYPE svg PUBLIC "-//W3C//DTD SVG 1.1//EN" "http://www.w3.org/Graphics/SVG/1.1/DTD/svg11.dtd">
<svg version="1.1" id="Layer_1" xmlns="http://www.w3.org/2000/svg" xmlns:xlink="http://www.w3.org/1999/xlink" x="0px" y="0px"
	 width="24px" height="24px" viewBox="0 0 24 24" enable-background="new 0 0 24 24" xml:space="preserve">
<polygon points="19,14 14,14 14,19 15.644,17.356 17.143,18.856 18.857,17.143 17.357,15.643 "/>
<polygon points="8.357,6.643 6.857,5.143 5.143,6.856 6.643,8.357 5,10 10,10 10,5 "/>
<g>
	<path fill="none" d="M15.414,10l-0.707,0.707l-1.414-1.414L14,8.586V8V4H4v10h4h0.587l0.706-0.706L9.999,14H10v0.001l0.708,0.707
		L10,15.416V16v4h10V10h-4H15.414z M11.707,13.707l-1.414-1.414l2-2l1.414,1.415L11.707,13.707z"/>
	<path d="M20,8h-4V4c0-1.105-0.895-2-2-2H4C2.895,2,2,2.895,2,4v10c0,1.105,0.895,2,2,2h4v4c0,1.105,0.895,2,2,2h10
		c1.105,0,2-0.895,2-2V10C22,8.895,21.105,8,20,8z M20,20H10v-4v-0.584l0.708-0.708L10,14.001V14H9.999l-0.706-0.706L8.587,14H8H4V4
		h10v4v0.586l-0.707,0.707l1.414,1.414L15.414,10H16h4V20z"/>
	<rect x="11" y="10.586" transform="matrix(-0.7071 -0.7071 0.7071 -0.7071 11.9998 28.971)" width="2" height="2.828"/>
</g>
</svg>
