<?xml version="1.0" encoding="utf-8"?>
<!-- Generator: Adobe Illustrator 15.1.0, SVG Export Plug-In . SVG Version: 6.00 Build 0)  -->
<!DOCTYPE svg PUBLIC "-//W3C//DTD SVG 1.1//EN" "http://www.w3.org/Graphics/SVG/1.1/DTD/svg11.dtd">
<svg version="1.1" id="Layer_1" xmlns="http://www.w3.org/2000/svg" xmlns:xlink="http://www.w3.org/1999/xlink" x="0px" y="0px"
	 width="24px" height="24px" viewBox="0.5 0.5 24 24" enable-background="new 0.5 0.5 24 24" xml:space="preserve">
<path d="M11.5,6.357V5.214H9.785V3.5H8.643v1.714H6.357V3.5H5.214v1.714H3.5v1.143h1.714v2.286H3.5v1.142h1.714V11.5h1.143V9.785
	h2.286V11.5h1.142V9.785H11.5V8.643H9.785V6.357H11.5z M6.357,8.645V6.358h2.286v2.287H6.357z"/>
<rect x="16.5" y="6.5" width="6" height="2"/>
<polygon points="19.5,12.5 13.5,7.5 19.5,2.5 "/>
<polygon points="2.5,19.5 7.5,13.5 12.5,19.5 "/>
<rect x="6.5" y="16.5" width="2" height="6"/>
</svg>
