<?xml version="1.0" encoding="utf-8"?>
<!-- Generator: Adobe Illustrator 15.1.0, SVG Export Plug-In . SVG Version: 6.00 Build 0)  -->
<!DOCTYPE svg PUBLIC "-//W3C//DTD SVG 1.1//EN" "http://www.w3.org/Graphics/SVG/1.1/DTD/svg11.dtd">
<svg version="1.1" id="Layer_1" xmlns="http://www.w3.org/2000/svg" xmlns:xlink="http://www.w3.org/1999/xlink" x="0px" y="0px"
	 width="24px" height="24px" viewBox="-0.5 -0.5 24 24" enable-background="new -0.5 -0.5 24 24" xml:space="preserve">
<rect x="3.5" y="3.5" width="3" height="1"/>
<path d="M20.301,4.5H2.7c-1.21,0-2.2,1.029-2.2,2.286v11.429c0,1.256,0.99,2.285,2.2,2.285h17.601c1.209,0,2.199-1.029,2.199-2.285
	V6.786C22.5,5.529,21.51,4.5,20.301,4.5z M4.35,7.357c-0.606,0-1.1-0.513-1.1-1.144c0-0.63,0.493-1.143,1.1-1.143
	c0.607,0,1.101,0.513,1.101,1.143C5.45,6.845,4.957,7.357,4.35,7.357z M13.5,19.5c-3.866,0-7-3.134-7-7s3.134-7,7-7s7,3.134,7,7
	S17.366,19.5,13.5,19.5z"/>
<polygon id="XMLID_1142_" points="19.5,5.5 16.5,2.5 10.5,2.5 7.5,5.5 "/>
<polyline points="14,7.5 14,10.5 17,10.5 17,7.5 "/>
<rect x="9.75" y="7.5" width="3" height="5"/>
<polyline points="9.75,13.5 9.75,16.5 12.75,16.5 12.75,13.5 "/>
<rect x="14" y="11.5" width="3" height="5"/>
</svg>
