<?xml version="1.0" encoding="utf-8"?>
<!-- Generator: Adobe Illustrator 15.1.0, SVG Export Plug-In . SVG Version: 6.00 Build 0)  -->
<!DOCTYPE svg PUBLIC "-//W3C//DTD SVG 1.1//EN" "http://www.w3.org/Graphics/SVG/1.1/DTD/svg11.dtd">
<svg version="1.1" id="Layer_1" xmlns="http://www.w3.org/2000/svg" xmlns:xlink="http://www.w3.org/1999/xlink" x="0px" y="0px"
	 width="24px" height="24px" viewBox="0 0 24 24" enable-background="new 0 0 24 24" xml:space="preserve">
<path d="M20,14v1.775h-4V14h-2v1.775h-4V14H8v1.775H4V14H2v6.225C2,21.204,2.896,22,4,22h16c1.104,0,2-0.796,2-1.775V14H20z
	 M8,20.225H4v-2.668h4V20.225z M14,20.225h-4v-2.668h4V20.225z M20,20.225h-4v-2.668h4V20.225z"/>
<g>
	<path d="M2.532,9.94c0.44,0.231,1.144,0.462,1.859,0.462c0.77,0,1.177-0.319,1.177-0.803c0-0.462-0.352-0.726-1.243-1.034
		c-1.232-0.44-2.046-1.122-2.046-2.2c0-1.265,1.067-2.222,2.805-2.222c0.847,0,1.452,0.165,1.892,0.374L6.602,5.858
		c-0.286-0.143-0.825-0.353-1.54-0.353c-0.726,0-1.078,0.341-1.078,0.715c0,0.473,0.407,0.682,1.375,1.045
		C6.668,7.75,7.273,8.433,7.273,9.478c0,1.243-0.946,2.299-2.981,2.299c-0.847,0-1.684-0.231-2.102-0.462L2.532,9.94z"/>
</g>
<g>
	<path d="M16.602,4.31c0.517-0.088,1.243-0.154,2.266-0.154c1.034,0,1.771,0.198,2.267,0.594c0.484,0.374,0.792,0.99,0.792,1.716
		s-0.23,1.353-0.682,1.76c-0.572,0.528-1.42,0.781-2.41,0.781c-0.22,0-0.418-0.011-0.571-0.044v2.663h-1.661V4.31z M18.263,7.676
		c0.143,0.033,0.308,0.044,0.561,0.044c0.892,0,1.441-0.451,1.441-1.199c0-0.682-0.473-1.089-1.32-1.089
		c-0.33,0-0.561,0.022-0.682,0.055V7.676z"/>
</g>
<g>
	<path d="M12.2,6.424c0,1.555-0.932,2.486-2.318,2.486c-1.394,0-2.22-1.058-2.22-2.409c0-1.415,0.911-2.473,2.297-2.473
		C11.409,4.028,12.2,5.114,12.2,6.424z M8.789,6.479c0,0.932,0.435,1.583,1.149,1.583c0.721,0,1.134-0.687,1.134-1.604
		c0-0.854-0.399-1.583-1.134-1.583C9.209,4.876,8.789,5.562,8.789,6.479z"/>
</g>
<g>
	<path d="M13.145,10.414l-0.336,1.211h-1.099l1.435-4.721h1.402l1.471,4.721h-1.156l-0.363-1.211H13.145z M14.344,9.615
		l-0.295-1.001c-0.084-0.28-0.168-0.63-0.238-0.91h-0.014c-0.07,0.28-0.141,0.637-0.217,0.91l-0.281,1.001H14.344z"/>
</g>
</svg>
