<?xml version="1.0" encoding="utf-8"?>
<!-- Generator: Adobe Illustrator 15.1.0, SVG Export Plug-In . SVG Version: 6.00 Build 0)  -->
<!DOCTYPE svg PUBLIC "-//W3C//DTD SVG 1.1//EN" "http://www.w3.org/Graphics/SVG/1.1/DTD/svg11.dtd">
<svg version="1.1" id="Layer_1" xmlns="http://www.w3.org/2000/svg" xmlns:xlink="http://www.w3.org/1999/xlink" x="0px" y="0px"
	 width="24px" height="24px" viewBox="-0.5 -0.5 24 24" enable-background="new -0.5 -0.5 24 24" xml:space="preserve">
<polyline points="14.5,5.5 16.5,5.5 16.5,3.5 14.5,3.5 14.5,5.5 "/>
<polyline points="18.5,2.5 18.5,6.5 21.5,6.5 21.5,2.5 18.5,2.5 "/>
<polyline points="10.5,5.5 12.5,5.5 12.5,3.5 10.5,3.5 10.5,5.5 "/>
<polyline points="1.5,2.5 1.5,6.5 8.5,6.5 8.5,2.5 1.5,2.5 "/>
<polyline points="14.5,12.5 16.5,12.5 16.5,10.5 14.5,10.5 14.5,12.5 "/>
<polyline points="18.5,9.5 18.5,13.5 21.5,13.5 21.5,9.5 18.5,9.5 "/>
<polyline points="10.5,12.5 12.5,12.5 12.5,10.5 10.5,10.5 10.5,12.5 "/>
<polyline points="1.5,9.5 1.5,13.5 8.5,13.5 8.5,9.5 1.5,9.5 "/>
<polyline points="14.5,19.5 16.5,19.5 16.5,17.5 14.5,17.5 14.5,19.5 "/>
<polyline points="18.5,16.5 18.5,20.5 21.5,20.5 21.5,16.5 18.5,16.5 "/>
<polyline points="10.5,19.5 12.5,19.5 12.5,17.5 10.5,17.5 10.5,19.5 "/>
<polyline points="1.5,16.5 1.5,20.5 8.5,20.5 8.5,16.5 1.5,16.5 "/>
</svg>
