<?xml version="1.0" encoding="utf-8"?>
<!-- Generator: Adobe Illustrator 15.1.0, SVG Export Plug-In . SVG Version: 6.00 Build 0)  -->
<!DOCTYPE svg PUBLIC "-//W3C//DTD SVG 1.1//EN" "http://www.w3.org/Graphics/SVG/1.1/DTD/svg11.dtd">
<svg version="1.1" id="Layer_1" xmlns="http://www.w3.org/2000/svg" xmlns:xlink="http://www.w3.org/1999/xlink" x="0px" y="0px"
	 width="24px" height="24px" viewBox="0 0 24 24" enable-background="new 0 0 24 24" xml:space="preserve">
<path d="M20,14v1.775h-4V14h-2v1.775h-4V14H8v1.775H4V14H2v6.225C2,21.203,2.896,22,4,22h16c1.104,0,2-0.795,2-1.775V14H20z
	 M8,20.225H4v-2.668h4V20.225z M14,20.225h-4v-2.668h4V20.225z M20,20.225h-4v-2.668h4V20.225z"/>
<path d="M11.4,10.6H12.6V9.4H11.4V10.6 M12,1C8.687,1,6,3.687,6,7s2.687,6,6,6c3.314,0,6-2.687,6-6S15.314,1,12,1 M12,11.799
	c-2.646,0-4.8-2.153-4.8-4.799c0-2.646,2.154-4.8,4.8-4.8c2.646,0,4.799,2.153,4.799,4.8C16.799,9.646,14.646,11.799,12,11.799
	 M12,3.4c-1.325,0-2.4,1.074-2.4,2.399h1.2c0-0.662,0.538-1.2,1.2-1.2c0.663,0,1.199,0.537,1.199,1.2c0,1.2-1.799,1.05-1.799,3H12.6
	c0-1.349,1.801-1.5,1.801-3C14.4,4.475,13.325,3.4,12,3.4z"/>
</svg>
