<?xml version="1.0" encoding="utf-8"?>
<!-- Generator: Adobe Illustrator 15.1.0, SVG Export Plug-In . SVG Version: 6.00 Build 0)  -->
<!DOCTYPE svg PUBLIC "-//W3C//DTD SVG 1.1//EN" "http://www.w3.org/Graphics/SVG/1.1/DTD/svg11.dtd">
<svg version="1.1" id="Layer_1" xmlns="http://www.w3.org/2000/svg" xmlns:xlink="http://www.w3.org/1999/xlink" x="0px" y="0px"
	 width="24px" height="24px" viewBox="0 0 24 24" enable-background="new 0 0 24 24" xml:space="preserve">
<path d="M20,14v1.776h-4V14h-2v1.776h-4V14H8v1.776H4V14H2v6.224C2,21.203,2.896,22,4,22h16c1.104,0,2-0.795,2-1.776V14H20z
	 M8,20.224H4v-2.668h4V20.224z M14,20.224h-4v-2.668h4V20.224z M20,20.224h-4v-2.668h4V20.224z"/>
<path d="M12,9.75c-0.994,0-1.799-0.783-1.799-1.75c0-0.966,0.806-1.75,1.799-1.75c0.993,0,1.799,0.784,1.799,1.75
	C13.799,8.967,12.993,9.75,12,9.75 M15.819,8.485C15.84,8.325,15.854,8.166,15.854,8s-0.017-0.329-0.035-0.5l1.083-0.815
	c0.098-0.075,0.123-0.21,0.063-0.32l-1.028-1.73c-0.063-0.11-0.2-0.154-0.313-0.11l-1.28,0.5c-0.27-0.195-0.545-0.366-0.867-0.49
	L13.284,3.21C13.263,3.089,13.156,3,13.026,3h-2.056c-0.128,0-0.235,0.09-0.257,0.21l-0.189,1.325
	C10.201,4.66,9.923,4.83,9.656,5.024l-1.279-0.5c-0.113-0.044-0.252,0-0.314,0.11l-1.027,1.73C6.969,6.475,7,6.611,7.098,6.686
	L8.182,7.5C8.161,7.671,8.146,7.835,8.146,8s0.015,0.325,0.036,0.485l-1.084,0.83C7,9.389,6.969,9.525,7.036,9.634l1.027,1.73
	c0.063,0.109,0.2,0.149,0.314,0.109l1.279-0.506c0.268,0.2,0.545,0.37,0.869,0.495l0.19,1.327c0.021,0.12,0.128,0.21,0.257,0.21
	h2.056c0.13,0,0.236-0.09,0.258-0.21l0.191-1.327c0.322-0.129,0.6-0.295,0.867-0.495l1.28,0.506c0.112,0.04,0.25,0,0.313-0.109
	l1.028-1.73c0.062-0.109,0.035-0.245-0.063-0.319L15.819,8.485z"/>
</svg>
