<?xml version="1.0" encoding="utf-8"?>
<!-- Generator: Adobe Illustrator 15.1.0, SVG Export Plug-In . SVG Version: 6.00 Build 0)  -->
<!DOCTYPE svg PUBLIC "-//W3C//DTD SVG 1.1//EN" "http://www.w3.org/Graphics/SVG/1.1/DTD/svg11.dtd">
<svg version="1.1" id="Layer_1" xmlns="http://www.w3.org/2000/svg" xmlns:xlink="http://www.w3.org/1999/xlink" x="0px" y="0px"
	 width="24px" height="24px" viewBox="0 0 24 24" enable-background="new 0 0 24 24" xml:space="preserve">
<path d="M22.5,23h-20V3h20V23z M4.408,21.185h16.185V4.816H4.408V21.185z"/>
<g>
	<path d="M7.737,14.825L7.213,16.75H5.5l2.237-7.5h2.184l2.292,7.5h-1.801l-0.567-1.925H7.737z M9.604,13.558l-0.457-1.592
		c-0.131-0.445-0.262-1.001-0.371-1.447H8.753c-0.109,0.444-0.219,1.013-0.338,1.447l-0.437,1.592H9.604z"/>
	<path d="M12.791,15.837l3.505-5.141v-0.044h-3.188V9.25h5.338v0.979l-3.427,5.075v0.043H18.5v1.403h-5.709V15.837z"/>
</g>
</svg>
