<?xml version="1.0" encoding="utf-8"?>
<!-- Generator: Adobe Illustrator 15.1.0, SVG Export Plug-In . SVG Version: 6.00 Build 0)  -->
<!DOCTYPE svg PUBLIC "-//W3C//DTD SVG 1.1//EN" "http://www.w3.org/Graphics/SVG/1.1/DTD/svg11.dtd">
<svg version="1.1" id="Layer_1" xmlns="http://www.w3.org/2000/svg" xmlns:xlink="http://www.w3.org/1999/xlink" x="0px" y="0px"
	 width="24px" height="24px" viewBox="0 0 24 24" enable-background="new 0 0 24 24" xml:space="preserve">
<g>
	<path d="M9.084,18.357l1.245,2.385l-1.865,1.864l-4.636-9.505l2.375-2.374l9.565,4.575l-1.961,1.96l-2.432-1.197L9.084,18.357z
		 M9.918,15.131l-1.999-1.002C7.358,13.852,6.69,13.47,6.153,13.17l-0.024,0.024c0.302,0.537,0.717,1.192,0.995,1.731l1.026,1.977
		L9.918,15.131L9.918,15.131z"/>
	<path d="M15.537,13.815l-1.035-8.66L14.46,5.113l-3.469,3.468L9.669,7.259l5.806-5.807l0.924,0.923l1.056,8.511l0.042,0.042
		l3.787-3.787l1.322,1.322l-6.21,6.21L15.537,13.815z"/>
</g>
</svg>
