<?xml version="1.0" encoding="utf-8"?>
<!-- Generator: Adobe Illustrator 15.1.0, SVG Export Plug-In . SVG Version: 6.00 Build 0)  -->
<!DOCTYPE svg PUBLIC "-//W3C//DTD SVG 1.1//EN" "http://www.w3.org/Graphics/SVG/1.1/DTD/svg11.dtd">
<svg version="1.1" id="Layer_1" xmlns="http://www.w3.org/2000/svg" xmlns:xlink="http://www.w3.org/1999/xlink" x="0px" y="0px"
	 width="24px" height="24px" viewBox="0.5 0.5 24 24" enable-background="new 0.5 0.5 24 24" xml:space="preserve">
<g>
	<path d="M4.953,20.597L4.425,22.5H2.698l2.255-7.415h2.201l2.31,7.415H7.649l-0.572-1.903H4.953z M6.834,19.343L6.373,17.77
		c-0.132-0.44-0.264-0.99-0.374-1.431H5.977c-0.11,0.44-0.22,1.001-0.341,1.431l-0.44,1.573H6.834z"/>
	<path d="M10.046,21.598l3.531-5.082v-0.045h-3.212v-1.386h5.379v0.968L12.29,21.07v0.043h3.51V22.5h-5.754V21.598z"/>
</g>
<polygon points="11.6,10.535 11.061,11.853 9.74,12.393 11.061,12.934 11.6,14.252 12.14,12.934 13.46,12.393 12.14,11.853 "/>
<polygon points="20,4.599 19.641,5.438 18.8,5.798 19.641,6.157 20,6.997 20.359,6.157 21.2,5.798 20.359,5.438 "/>
<g>
	<path d="M20.24,14.313l1.08-1.079c0.239-0.241,0.239-0.601,0-0.841l-5.1-5.096L14.3,9.215l5.16,5.157
		C19.641,14.552,20,14.552,20.24,14.313z"/>
</g>
<path d="M12.08,6.997c-0.24-0.239-0.24-0.599,0-0.839l1.08-1.079c0.24-0.24,0.6-0.24,0.84,0l2.221,2.219L17.3,6.397L15.98,5.318
	l0.18-1.679l-1.68,0.18L13.4,2.5l-1.08,1.319l-1.681-0.18l0.18,1.679L9.5,6.397l1.32,1.079l-0.18,1.679l1.681-0.18l1.08,1.319
	L14.3,9.215L12.08,6.997z"/>
</svg>
