<?xml version="1.0" encoding="utf-8"?>
<!-- Generator: Adobe Illustrator 15.1.0, SVG Export Plug-In . SVG Version: 6.00 Build 0)  -->
<!DOCTYPE svg PUBLIC "-//W3C//DTD SVG 1.1//EN" "http://www.w3.org/Graphics/SVG/1.1/DTD/svg11.dtd">
<svg version="1.1" id="Layer_1" xmlns="http://www.w3.org/2000/svg" xmlns:xlink="http://www.w3.org/1999/xlink" x="0px" y="0px"
	 width="24px" height="24px" viewBox="0 0 24 24" enable-background="new 0 0 24 24" xml:space="preserve">
<g>
	<path d="M14.434,18.558L17,19.363V22l-9.999-3.443v-3.357L17,11.67l-0.001,2.773l-2.565,0.873V18.558z M12.742,15.686l-2.122,0.705
		c-0.593,0.201-1.335,0.403-1.928,0.571v0.034c0.593,0.167,1.351,0.336,1.928,0.521l2.124,0.672L12.742,15.686L12.742,15.686z"/>
	<path d="M15.785,10.783L8.929,5.391l-0.06,0l0,4.905H7l0-8.211l1.306-0.001l6.765,5.272l0.06,0V2H17v8.783H15.785z"/>
</g>
</svg>
