<?xml version="1.0" encoding="utf-8"?>
<!-- Generator: Adobe Illustrator 15.1.0, SVG Export Plug-In . SVG Version: 6.00 Build 0)  -->
<!DOCTYPE svg PUBLIC "-//W3C//DTD SVG 1.1//EN" "http://www.w3.org/Graphics/SVG/1.1/DTD/svg11.dtd">
<svg version="1.1" id="Layer_1" xmlns="http://www.w3.org/2000/svg" xmlns:xlink="http://www.w3.org/1999/xlink" x="0px" y="0px"
	 width="24px" height="24px" viewBox="0 0 24 24" enable-background="new 0 0 24 24" xml:space="preserve">
<g>
	<path d="M9.566,5.443L7,4.637L7,2l10,3.443v3.357L7,12.33l0.001-2.773l2.565-0.873L9.566,5.443z M11.258,8.315L13.38,7.61
		c0.594-0.201,1.336-0.403,1.928-0.571l-0.001-0.034c-0.592-0.167-1.35-0.336-1.927-0.52l-2.125-0.672L11.258,8.315L11.258,8.315z"
		/>
	<path d="M8.214,13.218l6.856,5.393h0.06l0.001-4.905H17l0.001,8.212l-1.306-0.001L8.93,16.646H8.87l0,5.354H7l0-8.783L8.214,13.218
		z"/>
</g>
</svg>
