<?xml version="1.0" encoding="utf-8"?>
<!-- Generator: Adobe Illustrator 15.1.0, SVG Export Plug-In . SVG Version: 6.00 Build 0)  -->
<!DOCTYPE svg PUBLIC "-//W3C//DTD SVG 1.1//EN" "http://www.w3.org/Graphics/SVG/1.1/DTD/svg11.dtd">
<svg version="1.1" id="Layer_1" xmlns="http://www.w3.org/2000/svg" xmlns:xlink="http://www.w3.org/1999/xlink" x="0px" y="0px"
	 width="24px" height="24px" viewBox="-0.5 -0.5 24 24" enable-background="new -0.5 -0.5 24 24" xml:space="preserve">
<g>
	<rect x="11" y="4" fill="none" width="8" height="3"/>
	<path fill="none" d="M7,5.5C7,6.3,7.7,7,8.5,7S10,6.3,10,5.5S9.3,4,8.5,4S7,4.7,7,5.5z"/>
	<path fill="none" d="M3,5.5C3,6.3,3.7,7,4.5,7S6,6.3,6,5.5S5.3,4,4.5,4S3,4.7,3,5.5z"/>
	<path fill="none" d="M3,9v9h16c0.035,0,0.05-0.005,0.05-0.005L19.018,9H3z"/>
	<path d="M19,2H3C1.841,2,1,2.841,1,4v14c0,1.159,0.841,2,2,2h16c1.159,0,2-0.841,2-2V4C21,2.841,20.159,2,19,2z M10,5.5
		C10,6.3,9.3,7,8.5,7S7,6.3,7,5.5S7.7,4,8.5,4S10,4.7,10,5.5z M6,5.5C6,6.3,5.3,7,4.5,7S3,6.3,3,5.5S3.7,4,4.5,4S6,4.7,6,5.5z M11,4
		h8v3h-8V4z M19,18H3V9h16.018l0.032,8.995C19.05,17.995,19.035,18,19,18z"/>
</g>
</svg>
