<?xml version="1.0" encoding="utf-8"?>
<!-- Generator: Adobe Illustrator 15.1.0, SVG Export Plug-In . SVG Version: 6.00 Build 0)  -->
<!DOCTYPE svg PUBLIC "-//W3C//DTD SVG 1.1//EN" "http://www.w3.org/Graphics/SVG/1.1/DTD/svg11.dtd">
<svg version="1.1" id="Layer_1" xmlns="http://www.w3.org/2000/svg" xmlns:xlink="http://www.w3.org/1999/xlink" x="0px" y="0px"
	 width="24px" height="24px" viewBox="0 0 24 24" enable-background="new 0 0 24 24" xml:space="preserve">
<g>
	<path d="M4.532,5.519H2.5V4h5.781v1.52H6.228V12H4.532V5.519z"/>
	<path d="M13.347,12l-0.682-1.448c-0.279-0.558-0.457-0.974-0.669-1.437h-0.022c-0.156,0.463-0.347,0.879-0.592,1.437L10.768,12
		H8.825l2.178-4.047L8.903,4h1.953l0.658,1.46c0.223,0.487,0.391,0.879,0.57,1.33h0.022c0.179-0.511,0.324-0.867,0.514-1.33
		L13.254,4h1.944l-2.122,3.905L15.309,12H13.347z"/>
	<path d="M17.752,5.519H15.72V4h5.78v1.52h-2.052V12h-1.696V5.519z"/>
</g>
<path d="M20,14v1.775h-4V14h-2v1.775h-4V14H8v1.775H4V14H2v6.225C2,21.204,2.896,22,4,22h16c1.104,0,2-0.796,2-1.775V14H20z
	 M8,20.225H4v-2.668h4V20.225z M14,20.225h-4v-2.668h4V20.225z M20,20.225h-4v-2.668h4V20.225z"/>
</svg>
