<?xml version="1.0" encoding="utf-8"?>
<!-- Generator: Adobe Illustrator 15.1.0, SVG Export Plug-In . SVG Version: 6.00 Build 0)  -->
<!DOCTYPE svg PUBLIC "-//W3C//DTD SVG 1.1//EN" "http://www.w3.org/Graphics/SVG/1.1/DTD/svg11.dtd">
<svg version="1.1" id="Layer_1" xmlns="http://www.w3.org/2000/svg" xmlns:xlink="http://www.w3.org/1999/xlink" x="0px" y="0px"
	 width="24px" height="24px" viewBox="0.5 0.5 24 24" enable-background="new 0.5 0.5 24 24" xml:space="preserve">
<path d="M5.5,15.499c0-1.04,0.24-2.06,0.68-3C5.74,11.561,5.5,10.539,5.5,9.5c0-3.867,3.134-7,7-7c3.866,0,7,3.133,7,7
	c0,1.039-0.24,2.061-0.681,2.999c0.439,0.94,0.68,1.96,0.68,3c0,3.866-3.135,7-7,7C8.633,22.499,5.5,19.365,5.5,15.499 M12.5,15.999
	c1.869,0,3.56-0.79,4.75-2.06l-0.461-1c-1,1.25-2.549,2.06-4.289,2.06c-1.74,0-3.29-0.81-4.29-2.06l-0.46,1
	C8.939,15.209,10.629,15.999,12.5,15.999 M12.5,9c-1.87,0-3.56,0.789-4.75,2.061l0.46,1c1-1.25,2.55-2.061,4.29-2.061
	c1.741,0,3.29,0.811,4.289,2.061l0.462-1C16.061,9.789,14.369,9,12.5,9z"/>
</svg>
