<?xml version="1.0" encoding="utf-8"?>
<!-- Generator: Adobe Illustrator 15.1.0, SVG Export Plug-In . SVG Version: 6.00 Build 0)  -->
<!DOCTYPE svg PUBLIC "-//W3C//DTD SVG 1.1//EN" "http://www.w3.org/Graphics/SVG/1.1/DTD/svg11.dtd">
<svg version="1.1" id="Layer_1" xmlns="http://www.w3.org/2000/svg" xmlns:xlink="http://www.w3.org/1999/xlink" x="0px" y="0px"
	 width="24px" height="24px" viewBox="0.5 0.5 24 24" enable-background="new 0.5 0.5 24 24" xml:space="preserve">
<path d="M20.5,2.5h-16c-1.1,0-2,0.9-2,2v16c0,1.1,0.9,2,2,2h16c1.1,0,2-0.9,2-2v-16C22.5,3.4,21.6,2.5,20.5,2.5z M20.5,20.5h-12v-10
	h-4v-2h4v-4h2v4h10V20.5z"/>
<polygon points="19.499,12.5 16.5,9.5 13.499,12.5 "/>
<g>
	<path d="M15.501,11.5l-0.001,3c0,0.552-0.448,1-1,1h-2v2h2c1.654,0,3-1.346,3-3l0.001-3L15.501,11.5z"/>
	<rect x="10.5" y="15.5" width="2" height="2"/>
</g>
</svg>
