<?xml version="1.0" encoding="utf-8"?>
<!-- Generator: Adobe Illustrator 15.1.0, SVG Export Plug-In . SVG Version: 6.00 Build 0)  -->
<!DOCTYPE svg PUBLIC "-//W3C//DTD SVG 1.1//EN" "http://www.w3.org/Graphics/SVG/1.1/DTD/svg11.dtd">
<svg version="1.1" id="Layer_1" xmlns="http://www.w3.org/2000/svg" xmlns:xlink="http://www.w3.org/1999/xlink" x="0px" y="0px"
	 width="24px" height="24px" viewBox="-0.5 -0.5 24 24" enable-background="new -0.5 -0.5 24 24" xml:space="preserve">
<circle cx="19" cy="8" r="2.5"/>
<path d="M19,12.5c-1.227,0-2.148,0.345-2.832,0.786c2.33,1.114,3.2,3.037,3.25,3.151l0.027,0.063H23.5v-1.333
	C23.5,15.167,22.418,12.5,19,12.5z"/>
<path d="M19,12.5c-1.227,0-2.148,0.345-2.832,0.786c2.33,1.114,3.2,3.037,3.25,3.151l0.027,0.063H23.5v-1.333
	C23.5,15.167,22.418,12.5,19,12.5z"/>
<circle cx="4" cy="8" r="2.5"/>
<path d="M4,12.5c1.227,0,2.149,0.345,2.832,0.786c-2.33,1.114-3.2,3.037-3.25,3.151L3.555,16.5H-0.5v-1.333
	C-0.5,15.167,0.582,12.5,4,12.5z"/>
<path d="M11.5,4.5c-2.209,0-4,1.791-4,4s1.791,4,4,4s4-1.791,4-4S13.709,4.5,11.5,4.5z M11.5,10.5c-1.105,0-2-0.895-2-2s0.895-2,2-2
	c1.105,0,2,0.895,2,2S12.605,10.5,11.5,10.5z"/>
<path d="M11.5,13.5c-5.317,0-7,4-7,4v2h14v-2C18.5,17.5,16.816,13.5,11.5,13.5z M6.979,17.5c0,0,1.13-2,4.521-2
	c3.434,0,4.521,2,4.521,2H6.979z"/>
</svg>
