<?xml version="1.0" encoding="utf-8"?>
<!-- Generator: Adobe Illustrator 15.1.0, SVG Export Plug-In . SVG Version: 6.00 Build 0)  -->
<!DOCTYPE svg PUBLIC "-//W3C//DTD SVG 1.1//EN" "http://www.w3.org/Graphics/SVG/1.1/DTD/svg11.dtd">
<svg version="1.1" id="Layer_1" xmlns="http://www.w3.org/2000/svg" xmlns:xlink="http://www.w3.org/1999/xlink" x="0px" y="0px"
	 width="24px" height="24px" viewBox="-1 -1 24 24" enable-background="new -1 -1 24 24" xml:space="preserve">
<g id="Layer_2">
</g>
<path d="M18.766,8.5c0,0.158-0.013,0.32-0.029,0.483l-0.045,0.411l0.396,0.12c0.087,0.028,0.178,0.111,0.178,0.236
	c0,0.138-0.115,0.236-0.291,0.245l-0.41-0.066l-0.142,0.391C17.945,11.654,16.939,13,15.766,13c-1.175,0-2.183-1.346-2.66-2.681
	l-0.181-0.385L12.516,10c-0.14,0-0.25-0.112-0.25-0.25c0-0.125,0.09-0.208,0.178-0.236l0.396-0.12l-0.045-0.411
	C12.775,8.82,12.766,8.658,12.766,8.5c0-0.178,0.018-0.341,0.041-0.5h-0.998c-0.019,0.164-0.043,0.324-0.043,0.5
	c0,0.082,0.002,0.164,0.006,0.247c-0.313,0.23-0.506,0.597-0.506,1.003c0,0.612,0.441,1.123,1.023,1.229
	C12.895,12.439,14.111,14,15.766,14c1.652,0,2.871-1.561,3.477-3.021c0.582-0.106,1.023-0.617,1.023-1.229
	c0-0.406-0.193-0.773-0.508-1.003c0.006-0.083,0.008-0.165,0.008-0.247c0-0.176-0.025-0.336-0.043-0.5h-0.998
	C18.747,8.159,18.766,8.322,18.766,8.5z"/>
<path d="M17.266,8.5c-0.328,0-0.748,0.034-0.953,0.146c-0.326-0.193-0.766-0.194-1.092-0.001C15.014,8.534,14.593,8.5,14.266,8.5
	c-0.623,0-1,0.333-1,0.5c0,0.552,0.336,1.5,1.127,1.5c0.873,0,1.127-0.781,1.127-1.333c0-0.045-0.008-0.083-0.015-0.123
	c0.078-0.037,0.166-0.059,0.261-0.059c0.096,0,0.186,0.023,0.264,0.061c-0.006,0.039-0.016,0.077-0.016,0.122
	c0,0.551,0.252,1.332,1.127,1.332c0.836,0,1.125-0.948,1.125-1.5C18.266,8.833,17.887,8.5,17.266,8.5z"/>
<path d="M16.266,1h-1c-1.65,0-3,1.35-3,3v1h7V4C19.266,2.35,17.915,1,16.266,1z"/>
<path d="M10.304,5.65l0.224,0.6C10.917,7.4,11.923,8,13.093,8h5.579c1.171,0,2.176-0.6,2.564-1.75l0.224-0.6
	c0.168-0.45-0.224-0.9-0.668-0.8L16.439,6c-0.278,0.1-0.836,0.1-1.114,0l-4.353-1.15C10.528,4.75,10.137,5.2,10.304,5.65z"/>
<circle cx="4.72" cy="14.28" r="0.64"/>
<circle cx="7.28" cy="14.28" r="0.64"/>
<polygon points="4.72,16.2 4.72,16.84 5.36,16.84 5.36,18.12 6.64,18.12 6.64,16.84 7.28,16.84 7.28,16.2 "/>
<path d="M2.16,11.72c0,0,0.824,1.919,1.921,1.919c1.097,0,0.823-0.64,1.92-0.64c1.098,0,0.823,0.64,1.92,0.64
	c1.097,0,1.92-1.919,1.92-1.919S9.2,11.08,6,11.08S2.16,11.72,2.16,11.72z"/>
<path d="M10.089,14.021c0.005-0.085-0.004-1.106-0.024-1.344c-0.235,0.392-0.57,0.852-0.998,1.178
	c-0.003,0.135-0.07,0.828-0.07,0.828l0.404,0.124c0.091,0.027,0.182,0.113,0.182,0.242c0,0.141-0.122,0.25-0.297,0.25l-0.421-0.067
	c0,0-1.026,3.142-2.866,3.146c-1.987,0.003-2.908-3.14-2.908-3.14l-0.419,0.066c-0.142,0-0.256-0.114-0.256-0.255
	c0-0.129,0.091-0.215,0.183-0.242l0.404-0.123c0,0-0.066-0.694-0.07-0.83c-0.431-0.33-0.769-0.793-1.002-1.187
	c-0.017,0.229-0.024,1.269-0.019,1.354c-0.322,0.235-0.52,0.611-0.52,1.028c0,0.626,0.453,1.149,1.049,1.258
	C3.061,17.802,4.308,19.4,6,19.4s2.939-1.599,3.559-3.094c0.596-0.108,1.049-0.632,1.049-1.258
	C10.608,14.632,10.41,14.256,10.089,14.021z"/>
<path d="M6.634,7.269C6.635,7.259,6.64,7.25,6.64,7.24C6.64,6.887,6.353,6.6,6,6.6S5.36,6.887,5.36,7.24
	c0,0.011,0.005,0.02,0.005,0.03C2.717,7.509,2.16,9.272,2.16,11.08c0,0,1.28-0.64,3.84-0.64s3.841,0.64,3.841,0.64
	C9.841,9.272,9.285,7.508,6.634,7.269z"/>
</svg>
