<?xml version="1.0" encoding="utf-8"?>
<!-- Generator: Adobe Illustrator 15.1.0, SVG Export Plug-In . SVG Version: 6.00 Build 0)  -->
<!DOCTYPE svg PUBLIC "-//W3C//DTD SVG 1.1//EN" "http://www.w3.org/Graphics/SVG/1.1/DTD/svg11.dtd">
<svg version="1.1" id="Layer_1" xmlns="http://www.w3.org/2000/svg" xmlns:xlink="http://www.w3.org/1999/xlink" x="0px" y="0px"
	 width="24px" height="24px" viewBox="0.5 0.5 24 24" enable-background="new 0.5 0.5 24 24" xml:space="preserve">
<path d="M6.737,11.5H2.5v2h5.848C7.687,12.95,7.139,12.27,6.737,11.5z"/>
<path d="M22.5,11.5h-4.237c-0.401,0.77-0.949,1.45-1.61,2H22.5V11.5z"/>
<rect x="2.5" y="15.5" width="20" height="2"/>
<polygon id="XMLID_5_" points="15.5,19.5 12.5,22.5 9.5,19.5 "/>
<path d="M16.216,7.984c0.021-0.159,0.035-0.319,0.035-0.484S16.236,7.17,16.216,7l1.055-0.815c0.096-0.075,0.12-0.21,0.061-0.32
	l-1-1.73c-0.061-0.11-0.195-0.155-0.306-0.11l-1.244,0.5c-0.261-0.195-0.53-0.365-0.846-0.49L13.751,2.71
	c-0.021-0.12-0.125-0.21-0.25-0.21h-2c-0.125,0-0.23,0.09-0.25,0.21l-0.186,1.325c-0.314,0.125-0.585,0.295-0.845,0.49l-1.245-0.5
	c-0.11-0.045-0.245,0-0.305,0.11l-1,1.73c-0.065,0.11-0.035,0.245,0.06,0.32L8.786,7c-0.02,0.17-0.035,0.335-0.035,0.5
	s0.015,0.325,0.035,0.484l-1.055,0.83c-0.095,0.076-0.125,0.211-0.06,0.32l1,1.73c0.06,0.109,0.195,0.15,0.305,0.109l1.245-0.505
	c0.26,0.2,0.53,0.37,0.845,0.495l0.186,1.325c0.02,0.12,0.125,0.21,0.25,0.21h2c0.125,0,0.229-0.09,0.25-0.21l0.185-1.325
	c0.315-0.13,0.585-0.295,0.846-0.495l1.244,0.505c0.11,0.041,0.245,0,0.306-0.109l1-1.73c0.06-0.109,0.035-0.244-0.061-0.32
	L16.216,7.984z M12.501,9.25c-0.966,0-1.75-0.783-1.75-1.75s0.783-1.75,1.75-1.75c0.967,0,1.75,0.783,1.75,1.75
	S13.468,9.25,12.501,9.25z"/>
</svg>
