<?xml version="1.0" encoding="utf-8"?>
<!-- Generator: Adobe Illustrator 15.1.0, SVG Export Plug-In . SVG Version: 6.00 Build 0)  -->
<!DOCTYPE svg PUBLIC "-//W3C//DTD SVG 1.1//EN" "http://www.w3.org/Graphics/SVG/1.1/DTD/svg11.dtd">
<svg version="1.1" id="Layer_1" xmlns="http://www.w3.org/2000/svg" xmlns:xlink="http://www.w3.org/1999/xlink" x="0px" y="0px"
	 width="24px" height="24px" viewBox="-2 1 24 24" enable-background="new -2 1 24 24" xml:space="preserve">
<polygon points="15.542,7.458 11.799,7.458 10.007,10.421 8.24,7.5 4.5,7.5 8.137,13.514 4.542,19.458 8.282,19.458 10.007,16.606 
	11.757,19.5 15.5,19.5 11.878,13.514 "/>
<path d="M18.5,6.5h-2c0,0,2,2.333,2,7.001c0,4.665-2,6.999-2,6.999h2c0,0,2-2.334,2-6.999C20.5,8.833,18.5,6.5,18.5,6.5z"/>
<path d="M1.5,20.5h2c0,0-2-2.334-2-6.999c0-4.668,2-7.001,2-7.001h-2c0,0-2,2.333-2,7.001C-0.5,18.166,1.5,20.5,1.5,20.5z"/>
</svg>
