<?xml version="1.0" encoding="utf-8"?>
<!-- Generator: Adobe Illustrator 15.1.0, SVG Export Plug-In . SVG Version: 6.00 Build 0)  -->
<!DOCTYPE svg PUBLIC "-//W3C//DTD SVG 1.1//EN" "http://www.w3.org/Graphics/SVG/1.1/DTD/svg11.dtd">
<svg version="1.1" id="Layer_1" xmlns="http://www.w3.org/2000/svg" xmlns:xlink="http://www.w3.org/1999/xlink" x="0px" y="0px"
	 width="24px" height="24px" viewBox="0.5 0.5 24 24" enable-background="new 0.5 0.5 24 24" xml:space="preserve">
<path d="M21.167,10H14.5v2.75h1.333v2.75H14.5v1.376h1.333v2.751h-3.999V18.9H10.5v0.727c0,0.758,0.597,1.373,1.334,1.373h9.333
	c0.736,0,1.333-0.615,1.333-1.373v-8.252C22.5,10.615,21.903,10,21.167,10z M21.167,19.627h-4v-2.751h4V19.627z M21.167,15.5h-4
	v-2.75h4V15.5z"/>
<polygon points="12.5,2.5 9.097,2.5 7.499,4.922 5.9,2.5 2.5,2.5 5.799,7.499 2.5,12.5 5.9,12.5 7.499,10.077 9.097,12.5 12.5,12.5 
	9.199,7.499 "/>
<rect x="2.5" y="14.34" width="10" height="2.32"/>
</svg>
