<svg xmlns="http://www.w3.org/2000/svg" viewBox="0 0 960 960"><path d="M348.5 668.5Q360 657 360 640t-11.5-28.5Q337 600 320 600t-28.5 11.5Q280 623 280 640t11.5 28.5Q303 680 320 680t28.5-11.5Zm0-160Q360 497 360 480t-11.5-28.5Q337 440 320 440t-28.5 11.5Q280 463 280 480t11.5 28.5Q303 520 320 520t28.5-11.5Zm0-160Q360 337 360 320t-11.5-28.5Q337 280 320 280t-28.5 11.5Q280 303 280 320t11.5 28.5Q303 360 320 360t28.5-11.5ZM440 680h240v-80H440v80Zm0-160h240v-80H440v80Zm0-160h240v-80H440v80ZM200 840q-33 0-56.5-23.5T120 760v-560q0-33 23.5-56.5T200 120h560q33 0 56.5 23.5T840 200v560q0 33-23.5 56.5T760 840H200Zm0-80h560v-560H200v560Zm0-560v560-560Z"/></svg>
