<?xml version="1.0" encoding="utf-8"?>
<!-- Generator: Adobe Illustrator 15.1.0, SVG Export Plug-In . SVG Version: 6.00 Build 0)  -->
<!DOCTYPE svg PUBLIC "-//W3C//DTD SVG 1.1//EN" "http://www.w3.org/Graphics/SVG/1.1/DTD/svg11.dtd">
<svg version="1.1" id="Layer_1" xmlns="http://www.w3.org/2000/svg" xmlns:xlink="http://www.w3.org/1999/xlink" x="0px" y="0px"
	 width="24px" height="24px" viewBox="0 0 24 24" enable-background="new 0 0 24 24" xml:space="preserve">
<path d="M19.689,2.09c-1.006-0.413-2.11-0.59-3.17-0.59c-1.768,0-3.668,0.471-4.981,1.765c-0.012-0.012-0.025-0.021-0.038-0.031
	v2.163h0.344c1.259-0.889,3.251-1.543,4.675-1.543c1.088,0,2.174,0.177,3.17,0.588v13.529c-0.996-0.412-2.082-0.588-3.17-0.588
	c-1.451,0-3.5,0.686-4.754,1.602v0.052h-0.071c-0.05,0.038-0.108,0.073-0.155,0.11v-0.11H11.5v2.434
	c0.012,0.013,0.025,0.021,0.038,0.031c1.224-1,3.44-1.767,4.981-1.767c1.494,0,3.032,0.354,4.301,1.235
	c0.091,0.061,0.137,0.061,0.228,0.061c0.228,0,0.452-0.294,0.452-0.589V3.265C20.957,2.735,20.368,2.383,19.689,2.09z"/>
<path d="M11.75,19.542v-0.056c-0.026,0.02-0.054,0.037-0.079,0.056H11.75z"/>
<path d="M11.463,19.146c-0.014-0.011-0.031-0.02-0.045-0.031h-0.182v-0.133c-1.254-0.916-3.302-1.603-4.755-1.603
	c-1.087,0-2.174,0.179-3.17,0.589V4.441c0.996-0.413,2.083-0.588,3.17-0.588c1.465,0,3.534,0.695,4.786,1.624H11.5V3.232
	c-0.012,0.011-0.025,0.021-0.037,0.032C10.149,1.971,8.248,1.5,6.481,1.5c-1.06-0.001-2.166,0.177-3.17,0.588
	C2.632,2.382,2.043,2.735,1.5,3.265v17.174c0,0.297,0.227,0.591,0.453,0.591c0.091,0,0.136,0,0.227-0.06
	c1.268-0.884,2.808-1.236,4.302-1.236c1.54,0,3.759,0.768,4.981,1.767c0.012-0.011,0.025-0.021,0.037-0.032v-2.353h-0.037V19.146z"
	/>
<path d="M11.45,19.542c-0.062-0.047-0.134-0.092-0.2-0.138v0.138H11.45z"/>
<polyline points="12.375,6.25 12.375,9.75 16.625,9.75 16.625,6.25 "/>
<polyline points="12.375,16.5 16.625,16.5 16.625,11 12.375,11 "/>
<polyline points="6.375,16.5 10.625,16.5 10.625,13 6.375,13 "/>
<rect x="6.375" y="6.25" width="4.25" height="5.5"/>
</svg>
