<?xml version="1.0" encoding="utf-8"?>
<!-- Generator: Adobe Illustrator 15.1.0, SVG Export Plug-In . SVG Version: 6.00 Build 0)  -->
<!DOCTYPE svg PUBLIC "-//W3C//DTD SVG 1.1//EN" "http://www.w3.org/Graphics/SVG/1.1/DTD/svg11.dtd">
<svg version="1.1" id="Layer_1" xmlns="http://www.w3.org/2000/svg" xmlns:xlink="http://www.w3.org/1999/xlink" x="0px" y="0px"
	 width="24px" height="24px" viewBox="0 0 24 24" enable-background="new 0 0 24 24" xml:space="preserve">
<path d="M12,3c4.42,0,8,1.79,8,4s-3.58,4-8,4S4,9.21,4,7S7.58,3,12,3"/>
<path d="M4,9c0,2.21,3.58,4,8,4c1.109,0,2.17-0.109,3.141-0.32c-0.951,0.86-1.641,1.99-1.961,3.28L12,16c-4.42,0-8-1.79-8-4V9"/>
<path d="M20,9v2h-0.5l-0.6,0.03C19.6,10.43,20,9.74,20,9"/>
<path d="M4,14c0,2.21,3.58,4,8,4l1-0.03c0.09,1.062,0.42,2.03,0.95,2.91L12,21c-4.42,0-8-1.79-8-4V14z"/>
<path fill="#231F20" d="M15.197,13.4H23v3h-0.602l-0.6-1.799h-3.563l2.152,3.077l-2.467,3.522h3.877l0.6-1.201H23v3h-7.803
	l3.362-4.799L15.197,13.4z"/>
</svg>
