<?xml version="1.0" encoding="utf-8"?>
<!-- Generator: Adobe Illustrator 15.1.0, SVG Export Plug-In . SVG Version: 6.00 Build 0)  -->
<!DOCTYPE svg PUBLIC "-//W3C//DTD SVG 1.1//EN" "http://www.w3.org/Graphics/SVG/1.1/DTD/svg11.dtd">
<svg version="1.1" id="Layer_1" xmlns="http://www.w3.org/2000/svg" xmlns:xlink="http://www.w3.org/1999/xlink" x="0px" y="0px"
	 width="24px" height="24px" viewBox="0 0 24 24" enable-background="new 0 0 24 24" xml:space="preserve">
<path d="M5.001,6.499c0.828,0,1.5-0.67,1.5-1.5c0.001-0.83-0.672-1.5-1.5-1.5c-0.83,0-1.499,0.67-1.499,1.499
	C3.5,5.828,4.17,6.5,5.001,6.499 M20.912,11.081c0.357,0.356,0.588,0.861,0.588,1.417c0,0.549-0.223,1.051-0.59,1.412l-7,7
	c-0.359,0.359-0.859,0.588-1.41,0.59c-0.551,0-1.049-0.229-1.418-0.59l-8.993-9C1.721,11.549,1.5,11.051,1.5,10.5v-7
	c0-1.109,0.89-2,2-2h7.001c0.547,0,1.047,0.219,1.408,0.58L20.912,11.081 M12.5,19.5l7-7L11,4l-7,7L12.5,19.5z"/>
</svg>
