<?xml version="1.0" encoding="utf-8"?>
<!-- Generator: Adobe Illustrator 15.1.0, SVG Export Plug-In . SVG Version: 6.00 Build 0)  -->
<!DOCTYPE svg PUBLIC "-//W3C//DTD SVG 1.1//EN" "http://www.w3.org/Graphics/SVG/1.1/DTD/svg11.dtd">
<svg version="1.1" id="Layer_1" xmlns="http://www.w3.org/2000/svg" xmlns:xlink="http://www.w3.org/1999/xlink" x="0px" y="0px"
	 width="24px" height="24px" viewBox="-0.5 -0.5 24 24" enable-background="new -0.5 -0.5 24 24" xml:space="preserve">
<path d="M20.3,6H6.7C5.765,6,5,6.758,5,7.684v12.63C5,21.242,5.766,22,6.7,22h13.6c0.935,0,1.7-0.758,1.7-1.686V7.684
	C22,6.758,21.234,6,20.3,6z M20.5,20.5h-14v-12h14V20.5z"/>
<path d="M17.5,5.958H19V3.684C19,2.758,18.234,2,17.3,2H3.7C2.765,2,2,2.758,2,3.684v12.63c0,0.859,0.66,1.564,1.5,1.664V3.75h14
	V5.958z"/>
<path d="M8.7,10.5v0.976h0.049l3.218,2.882v3.414l3.267,2.928v-6.336l3.223-2.888H18.5V10.5H8.7z M14.193,13.913h-0.05v4.43
	l-1.088-0.976v-3.454h-0.044l-2.722-2.438h6.625L14.193,13.913z"/>
</svg>
