<?xml version="1.0" encoding="utf-8"?>
<!-- Generator: Adobe Illustrator 15.1.0, SVG Export Plug-In . SVG Version: 6.00 Build 0)  -->
<!DOCTYPE svg PUBLIC "-//W3C//DTD SVG 1.1//EN" "http://www.w3.org/Graphics/SVG/1.1/DTD/svg11.dtd">
<svg version="1.1" id="Layer_1" xmlns="http://www.w3.org/2000/svg" xmlns:xlink="http://www.w3.org/1999/xlink" x="0px" y="0px"
	 width="24px" height="24px" viewBox="0 0 24 24" enable-background="new 0 0 24 24" xml:space="preserve">
<g>
	<path d="M6.487,12l-0.601-1.448C5.639,9.995,5.482,9.579,5.295,9.116h-0.02C5.138,9.579,4.97,9.994,4.754,10.552L4.213,12H2.5
		l1.919-4.047L2.569,4.001h1.722L4.873,5.46c0.197,0.487,0.344,0.879,0.501,1.33h0.02C5.551,6.28,5.68,5.924,5.846,5.46l0.562-1.459
		H8.12L6.25,7.906L8.22,12H6.487z"/>
	<path d="M14.638,8.939c-0.029-0.962-0.06-2.124-0.06-3.288H14.56c-0.217,1.021-0.493,2.161-0.749,3.098l-0.806,3.121h-1.172
		l-0.709-3.084c-0.216-0.95-0.434-2.089-0.6-3.133h-0.02c-0.029,1.081-0.069,2.314-0.108,3.312L10.268,12H8.88l0.423-7.999h1.999
		l0.649,2.67c0.217,0.925,0.413,1.921,0.561,2.86h0.04c0.176-0.926,0.403-1.981,0.63-2.873L13.88,4h1.969l0.355,7.999h-1.458
		L14.638,8.939z"/>
	<path d="M17.365,4.001h1.497v6.48H21.5V12h-4.135V4.001z"/>
</g>
<path d="M20,14v1.775h-4V14h-2v1.775h-4V14H8v1.775H4V14H2v6.225C2,21.204,2.896,22,4,22h16c1.104,0,2-0.796,2-1.775V14H20z
	 M8,20.225H4v-2.668h4V20.225z M14,20.225h-4v-2.668h4V20.225z M20,20.225h-4v-2.668h4V20.225z"/>
</svg>
