<?xml version="1.0" encoding="utf-8"?>
<!-- Generator: Adobe Illustrator 15.1.0, SVG Export Plug-In . SVG Version: 6.00 Build 0)  -->
<!DOCTYPE svg PUBLIC "-//W3C//DTD SVG 1.1//EN" "http://www.w3.org/Graphics/SVG/1.1/DTD/svg11.dtd">
<svg version="1.1" id="Layer_1" xmlns="http://www.w3.org/2000/svg" xmlns:xlink="http://www.w3.org/1999/xlink" x="0px" y="0px"
	 width="24px" height="24px" viewBox="0.5 0.5 24 24" enable-background="new 0.5 0.5 24 24" xml:space="preserve">
<path d="M19.375,16.35h-1.067l-0.378-0.363c1.324-1.539,2.119-3.538,2.12-5.711c0-4.846-3.929-8.775-8.775-8.775
	S2.5,5.429,2.5,10.275c0,4.846,3.929,8.775,8.775,8.775c2.173-0.002,4.171-0.797,5.711-2.121l0.363,0.379v1.066l3.153,3.154
	l2.026-2.025L19.375,16.35z M15.742,13.328l-1.414,1.414L11.5,11.914l-2.829,2.828l-1.414-1.414l2.829-2.828L7.257,7.671
	l1.414-1.414L11.5,9.086l2.828-2.829l1.414,1.414L12.914,10.5L15.742,13.328z"/>
</svg>
