<!--
  - This file is part of StyleBI.
  - Copyright (C) 2024  InetSoft Technology
  -
  - This program is free software: you can redistribute it and/or modify
  - it under the terms of the GNU Affero General Public License as published by
  - the Free Software Foundation, either version 3 of the License, or
  - (at your option) any later version.
  -
  - This program is distributed in the hope that it will be useful,
  - but WITHOUT ANY WARRANTY; without even the implied warranty of
  - MERCHANTABILITY or FITNESS FOR A PARTICULAR PURPOSE.  See the
  - GNU Affero General Public License for more details.
  -
  - You should have received a copy of the GNU Affero General Public License
  - along with this program.  If not, see <https://www.gnu.org/licenses/>.
  -->

<svg xmlns="http://www.w3.org/2000/svg" width="70.836" height="30" viewBox="22.432 9.5 70.836 30"><g transform="matrix(.264583 0 0 .264583 -.13272 -.13211)"><path d="M203.693 90.484h-5.156V63.46h5.156v9.956c.8-.976 2.67-1.956 4.62-1.956 5.424 0 8.447 4.446 8.447 9.777s-3.023 9.7-8.447 9.7c-1.953 0-3.822-.976-4.62-1.953v1.5zm0-6.223c.622 1.334 1.954 2.135 3.468 2.135 2.757 0 4.444-2.224 4.444-5.247s-1.687-5.243-4.444-5.243c-1.513 0-2.934.9-3.468 2.133v6.222zm35.737-12.8c3.82 0 6.13 2.667 6.13 6.843v12.18h-5.156v-11.1c0-1.958-.9-3.3-2.67-3.3-1.33 0-2.576.8-2.842 2.4v12h-5.16v-11.1c0-1.958-.8-3.3-2.573-3.3-1.332 0-2.576.8-2.93 2.4v12h-5.158v-18.58h4.977v1.513c.9-1.157 2.67-1.956 4.706-1.956 2.226 0 3.916.98 4.98 2.4 1.248-1.336 3.027-2.4 5.696-2.4zm17.064 0c4.7 0 7.648 2.755 8.18 6.668h-5.068c-.266-1.423-1.42-2.3-3.1-2.3-2.4 0-3.82 2.133-3.82 5.332 0 3.1 1.42 5.247 3.82 5.247 1.7 0 2.757-.9 3.1-2.3h5.068c-.53 4-3.47 6.666-8.18 6.666-5.24 0-8.976-4-8.976-9.692.088-5.688 3.735-9.6 8.976-9.6z" fill="#414042"/><path fill="#fe5000" d="M166.178 98.484c-1.69 0-3.464-1.332-3.464-3.91V88.53c0-2.4 1.5-5.156 3.643-6.3l8.443-4.98-8.443-4.98c-2.047-1.332-3.643-4-3.643-6.4v-6.13c0-2.58 1.775-3.914 3.554-3.914.71 0 1.5.177 2.22.622l19.023 11.29c1.334.8 2.047 2.047 2.047 3.29 0 1.332-.8 2.578-2.047 3.29l-4.532 2.667 4.532 2.67c1.334.8 2.135 2.043 2.135 3.287 0 1.334-.8 2.58-2.135 3.292l-19.023 11.645c-.798.442-1.51.62-2.3.62zm12.714-18.844l-10.403 6.133c-.8.447-1.598 1.866-1.598 2.757v5.42l18.047-10.667-6.046-3.643zm-12-19.2v5.42c0 .89.8 2.31 1.598 2.755l10.403 6.134 6.134-3.643L166.89 60.44z"/></g><path d="M30.22 26.354c.44-.08 1.08-.14 1.67-.14.93 0 1.54.18 1.95.55.33.3.53.76.53 1.3 0 .88-.56 1.47-1.26 1.7v.03c.5.18.82.66.98 1.36l.52 1.85h-.9c-.1-.2-.26-.77-.44-1.6-.2-.93-.57-1.28-1.36-1.3h-.82V33h-.87v-6.646zm.87 3.068h.9c.93 0 1.52-.5 1.52-1.28 0-.87-.63-1.25-1.55-1.25-.42 0-.7.03-.86.07v2.46zm5 1.318c.02 1.2.77 1.68 1.66 1.68.63 0 1.02-.1 1.34-.25l.16.63c-.3.14-.85.3-1.62.3-1.5 0-2.378-1-2.378-2.45s.86-2.6 2.27-2.6c1.6 0 2 1.38 2 2.27a2.13 2.13 0 0 1-.03.41h-3.4zm2.58-.63c.01-.55-.23-1.42-1.22-1.42-.9 0-1.28.8-1.35 1.42h2.568zm1.94-.638l-.04-1.3h.77l.04.8h.03c.27-.46.72-.9 1.53-.9.65 0 1.15.4 1.36.97h.02a1.92 1.92 0 0 1 .55-.63 1.64 1.64 0 0 1 1.06-.34c.65 0 1.6.42 1.6 2.1V33h-.86v-2.73c0-.94-.35-1.5-1.05-1.5-.5 0-.9.37-1.05.8-.04.13-.07.28-.07.44V33h-.86v-2.898c0-.77-.34-1.32-1-1.32-.54 0-.95.44-1.1.88-.05.12-.07.28-.07.43V33h-.86v-3.528zm8.83 1.268c.02 1.2.77 1.68 1.66 1.68.63 0 1.02-.1 1.34-.25l.16.63c-.3.14-.85.3-1.62.3-1.5 0-2.38-1-2.38-2.45s.86-2.6 2.27-2.6c1.6 0 2 1.38 2 2.27a2.13 2.13 0 0 1-.03.41h-3.4zm2.58-.63c.01-.55-.23-1.42-1.22-1.42-.9 0-1.28.8-1.35 1.42h2.57zm6.107-4.206v5.847l.04 1.25h-.78l-.04-.84h-.03c-.26.54-.84.95-1.63.95-1.17 0-2.08-1-2.08-2.46-.01-1.6 1-2.6 2.17-2.6.75 0 1.24.35 1.46.73h.02v-2.888h.87zm-.87 4.228a1.61 1.61 0 0 0-.04-.37c-.13-.55-.6-1-1.27-1-.9 0-1.45.8-1.45 1.86 0 .98.5 1.8 1.43 1.8.6 0 1.13-.4 1.3-1.05a1.53 1.53 0 0 0 .04-.38v-.838zm2.663-1.97l1.05 2.858.32 1h.02l.3-1 .96-2.838h.93L62.2 31.6c-.63 1.66-1.06 2.5-1.66 3.028-.44.37-.86.52-1.08.56l-.22-.73a2.43 2.43 0 0 0 .77-.43c.24-.2.53-.53.74-.98.04-.1.07-.16.07-.2s-.02-.12-.07-.23l-1.78-4.457h.958zm4.4-1.9h3.628v.73h-2.75v2.24h2.54v.72h-2.54V33h-.88v-6.736zm8.917 4.276c0 1.8-1.25 2.57-2.4 2.57-1.3 0-2.318-.96-2.318-2.5 0-1.6 1.07-2.56 2.398-2.56 1.4.001 2.33 1 2.33 2.48zm-3.828.05c0 1.06.6 1.858 1.46 1.858.84 0 1.47-.8 1.47-1.88 0-.82-.4-1.85-1.45-1.85-1.03.001-1.48.96-1.48 1.87zm4.94-.918l-.04-1.5h.77l.04.96h.03c.22-.65.76-1.06 1.35-1.06.1 0 .16.01.24.02v.83c-.1-.02-.18-.02-.3-.02-.62 0-1.06.46-1.18 1.12-.02.12-.03.27-.03.4V33h-.88v-3.328zm6.618 3.158c-.23.1-.74.28-1.4.28-1.46 0-2.408-1-2.408-2.47 0-1.5 1.02-2.58 2.6-2.58.52 0 .98.13 1.22.26l-.2.67c-.2-.1-.54-.23-1.02-.23-1.1 0-1.7.83-1.7 1.83 0 1.12.72 1.8 1.68 1.8a2.52 2.52 0 0 0 1.08-.23l.15.658zm1.462-2.1c.02 1.2.77 1.68 1.66 1.68.63 0 1.02-.1 1.34-.25l.16.63c-.3.14-.85.3-1.62.3-1.5 0-2.38-1-2.38-2.45s.86-2.6 2.27-2.6c1.6 0 2 1.38 2 2.27a2.13 2.13 0 0 1-.03.41h-3.4zm2.58-.63c.01-.55-.23-1.42-1.22-1.42-.9 0-1.28.8-1.35 1.42h2.57z" fill="#fe5000"/></svg>