<?xml version="1.0" encoding="utf-8"?>
<!--
  - This file is part of StyleBI.
  -
  - Copyright (c) 2024, InetSoft Technology Corp, All Rights Reserved.
  -
  - The software and information contained herein are copyrighted and
  - proprietary to InetSoft Technology Corp. This software is furnished
  - pursuant to a written license agreement and may be used, copied,
  - transmitted, and stored only in accordance with the terms of such
  - license and with the inclusion of the above copyright notice. Please
  - refer to the file "COPYRIGHT" for further copyright and licensing
  - information. This software and information or any other copies
  - thereof may not be provided or otherwise made available to any other
  - person.
  -->

<!-- Generator: Adobe Illustrator 13.0.1, SVG Export Plug-In . SVG Version: 6.00 Build 14948)  -->
<!DOCTYPE svg PUBLIC "-//W3C//DTD SVG 1.0//EN" "http://www.w3.org/TR/2001/REC-SVG-20010904/DTD/svg10.dtd">
<svg version="1.0" id="图层_1" xmlns="http://www.w3.org/2000/svg" xmlns:xlink="http://www.w3.org/1999/xlink" x="0px" y="0px"
	 width="173.264px" height="200.77px" viewBox="0 0 173.264 200.77" enable-background="new 0 0 173.264 200.77"
	 xml:space="preserve">
<g id="Layer_1">
	
		<linearGradient id="SVGID_1_" gradientUnits="userSpaceOnUse" x1="-151.4553" y1="-615.7751" x2="-151.4553" y2="-421.7747" gradientTransform="matrix(1 0 0 -1 238.0869 -418.3901)">
		<stop  offset="0.0225" style="stop-color:#85DC7C"/>
		<stop  offset="0.5141" style="stop-color:#5D9C86"/>
		<stop  offset="1" style="stop-color:#335891"/>
	</linearGradient>
	<path opacity="0.8" fill="url(#SVGID_1_)" stroke="#8E8E8E" stroke-width="1.0052" enable-background="new    " d="M167.136,30.125
		C155.827,10.868,108.807,3.789,88.46,3.421c-0.335-0.043-0.64-0.05-0.896-0.012c-0.315-0.006-0.628-0.007-0.932-0.006
		c-19.2-0.048-68.842,6.86-80.504,26.722c-7.745,14.419-1.726,33.087,22.541,40.188l39.4,81.892h0.065
		c-4.863,4.782-7.884,11.438-7.884,18.803c0,14.563,11.811,26.378,26.378,26.378s26.377-11.813,26.377-26.378
		c0-7.362-3.021-14.021-7.882-18.803h0.931l39.401-81.892c0.557-0.207,1.035-0.461,1.469-0.736
		C169.238,61.988,174.625,44.07,167.136,30.125z"/>
	<g opacity="0.8">
		
			<linearGradient id="SVGID_2_" gradientUnits="userSpaceOnUse" x1="-152.2815" y1="-425.6028" x2="-152.2815" y2="-454.1941" gradientTransform="matrix(1 0 0 -1 238.0869 -418.3901)">
			<stop  offset="0" style="stop-color:#E8FFE8"/>
			<stop  offset="0.0364" style="stop-color:#D5F0E0"/>
			<stop  offset="0.1369" style="stop-color:#A7CBCE"/>
			<stop  offset="0.2331" style="stop-color:#83AEBF"/>
			<stop  offset="0.3226" style="stop-color:#6999B5"/>
			<stop  offset="0.403" style="stop-color:#598CAE"/>
			<stop  offset="0.4663" style="stop-color:#5488AC"/>
		</linearGradient>
		<path fill="url(#SVGID_2_)" d="M12.076,33.612c0,0,73.179-60.833,147.458,2.192C159.534,35.804,98.064-5.56,12.076,33.612z"/>
	</g>
	<g display="none" opacity="0.4">
		<path display="inline" fill="#FFFFFF" stroke="#707070" d="M147.439,65.112c0.939-1.805,1.079-3.896,0.391-5.895
			c-0.767-2.213-2.486-4.063-4.726-5.074c-35.816-16.207-76.902-16.207-112.724,0c-2.234,1.01-3.957,2.858-4.723,5.071
			c-0.69,1.998-0.555,4.092,0.389,5.896c1.979,3.809,6.754,5.335,10.866,3.479c31.669-14.329,67.988-14.329,99.653-0.001
			C140.685,70.447,145.459,68.918,147.439,65.112z"/>
	</g>
	
		<linearGradient id="SVGID_3_" gradientUnits="userSpaceOnUse" x1="-151.4553" y1="-618.7751" x2="-151.4553" y2="-418.7751" gradientTransform="matrix(1 0 0 -1 238.0869 -418.3901)">
		<stop  offset="0.0056" style="stop-color:#FDA43F"/>
		<stop  offset="1" style="stop-color:#FF213F"/>
	</linearGradient>
	<rect x="0.385" y="0.385" fill="url(#SVGID_3_)" fill-opacity="0" width="172.493" height="200"/>
	<path opacity="0.4" fill="#FFFFFF" stroke="#707070" enable-background="new    " d="M133.793,50.556L133.793,50.556
		c-30.853-11.322-64.742-11.347-95.501,0.312c-0.278,0.085-0.547,0.188-0.813,0.305c-0.136,0.053-0.272,0.101-0.41,0.154l0.02,0.033
		c-2.453,1.252-4.136,3.799-4.136,6.74c0,4.18,3.388,7.569,7.567,7.569c1.188,0,2.268-0.301,3.282-0.691l0.063-0.009
		c27.896-10.188,55.061-10.493,83.322-0.82l0,0l0,0c1.22,0.547,2.469,1.083,3.885,1.083c4.195,0,7.6-3.4,7.6-7.6
		C138.673,54.397,136.641,51.653,133.793,50.556z"/>
</g>
</svg>
