<?xml version="1.0" encoding="utf-8"?>
<!--
  - This file is part of StyleBI.
  -
  - Copyright (c) 2024, InetSoft Technology Corp, All Rights Reserved.
  -
  - The software and information contained herein are copyrighted and
  - proprietary to InetSoft Technology Corp. This software is furnished
  - pursuant to a written license agreement and may be used, copied,
  - transmitted, and stored only in accordance with the terms of such
  - license and with the inclusion of the above copyright notice. Please
  - refer to the file "COPYRIGHT" for further copyright and licensing
  - information. This software and information or any other copies
  - thereof may not be provided or otherwise made available to any other
  - person.
  -->

<!-- Generator: Adobe Illustrator 13.0.1, SVG Export Plug-In . SVG Version: 6.00 Build 14948)  -->
<!DOCTYPE svg PUBLIC "-//W3C//DTD SVG 1.0//EN" "http://www.w3.org/TR/2001/REC-SVG-20010904/DTD/svg10.dtd">
<svg version="1.0" xmlns="http://www.w3.org/2000/svg" xmlns:xlink="http://www.w3.org/1999/xlink" x="0px" y="0px" width="200px"
	 height="131.453px" viewBox="0 0 200 131.453" enable-background="new 0 0 200 131.453" xml:space="preserve">
<g id="图层_1">
	<g id="Layer_3">
		<g>
			<rect fill="#FFFFFF" fill-opacity="0" width="200" height="131.453"/>
		</g>
	</g>
	<g id="Layer_1">
		
			<linearGradient id="SVGID_1_" gradientUnits="userSpaceOnUse" x1="108.3613" y1="26.834" x2="108.3613" y2="152.2876" gradientTransform="matrix(1 0 0 -1 -8.3623 155.2871)">
			<stop  offset="0.0225" style="stop-color:#85DC7C"/>
			<stop  offset="0.5141" style="stop-color:#5D9C86"/>
			<stop  offset="1" style="stop-color:#335891"/>
		</linearGradient>
		<path opacity="0.8" fill="url(#SVGID_1_)" stroke="#8E8E8E" stroke-width="0.5465" enable-background="new    " d="
			M170.292,30.989C146.762,8.528,120.462,3,100,3C79.35,3,53.237,8.528,29.708,30.989C10.792,49.046,3.097,74.195,3,90.738
			c-0.015,2.648,0.164,5.074,0.522,7.217c0.27,1.605,0.639,3.053,1.104,4.313c4.283,11.604,16.31,11.058,25,9.193
			c0.899-0.193,1.762-0.4,2.578-0.607h45.539c1.978,10.019,11.187,17.6,22.256,17.6c11.069,0,20.278-7.581,22.255-17.6h45.541
			c0.814,0.207,1.678,0.414,2.577,0.607c8.69,1.863,20.718,2.409,25-9.193c0.465-1.26,0.836-2.707,1.104-4.313
			c0.357-2.143,0.537-4.568,0.521-7.217C196.902,74.195,189.207,49.046,170.292,30.989z"/>
		<g opacity="0.8">
			
				<linearGradient id="SVGID_2_" gradientUnits="userSpaceOnUse" x1="109.7793" y1="146.7793" x2="109.7793" y2="118.8125" gradientTransform="matrix(1 0 0 -1 -8.3623 155.2871)">
				<stop  offset="0" style="stop-color:#E8FFE8"/>
				<stop  offset="0.0364" style="stop-color:#D5F0E0"/>
				<stop  offset="0.1369" style="stop-color:#A7CBCE"/>
				<stop  offset="0.2331" style="stop-color:#83AEBF"/>
				<stop  offset="0.3226" style="stop-color:#6999B5"/>
				<stop  offset="0.403" style="stop-color:#598CAE"/>
				<stop  offset="0.4663" style="stop-color:#5488AC"/>
			</linearGradient>
			<path fill="url(#SVGID_2_)" d="M37.454,30.216c0,0,66.679-52.78,127.926,6.259C165.379,36.475,140.609,7.092,37.454,30.216z"/>
		</g>
		<g display="none" opacity="0.3">
			<g display="inline">
				<path fill="#FFFFFF" stroke="#4C4C4C" d="M164.041,90.52c1.622-0.205,3.068-1.154,4.076-2.672
					c1.591-2.402,1.968-6.06,0.984-9.545c-8.477-30.184-35.549-49.689-68.968-49.689S39.643,48.118,31.166,78.307
					c-0.982,3.48-0.605,7.137,0.985,9.539c1.006,1.52,2.454,2.469,4.076,2.674c3.788,0.492,7.511-2.924,9.043-8.309
					c8.154-29.037,34.65-39.337,54.864-39.338c20.214,0,46.71,10.3,54.863,39.328C156.529,87.596,160.252,91.012,164.041,90.52z"/>
			</g>
		</g>
		<path opacity="0.3" fill="#FFFFFF" stroke="#4C4C4C" d="M166.905,71.745L166.905,71.745
			c-10.345-26.421-35.839-43.131-66.771-43.131c-31.226,0-56.91,17.029-67.063,43.889l0,0c-0.612,1.027-0.884,2.253-0.884,3.536
			c0,3.797,3.078,6.875,6.875,6.875c3.597,0,6.047-2.734,6.923-6.259l0,0c8.639-21.86,29.587-34.679,54.14-34.679
			c23.866,0,44.372,12.339,53.421,33.144c0.142,0.325,1.151,2.527,1.287,2.856l0,0c1.12,2.953,3.492,5.145,6.699,5.145
			c3.797,0,6.969-3.079,6.875-6.875C168.376,74.977,167.396,73.019,166.905,71.745z"/>
		<g>
			
				<linearGradient id="SVGID_3_" gradientUnits="userSpaceOnUse" x1="20.6899" y1="51.6992" x2="32.9337" y2="66.2907" gradientTransform="matrix(1 0 0 -1 -8.3623 155.2871)">
				<stop  offset="0.0056" style="stop-color:#C0F2CA"/>
				<stop  offset="0.1558" style="stop-color:#B0E6BE"/>
				<stop  offset="0.7472" style="stop-color:#72BB90"/>
			</linearGradient>
			<path fill="url(#SVGID_3_)" d="M11.467,78c0,0-13.738,37.885,21.814,27.23C33.281,105.23,9.229,105.766,11.467,78z"/>
		</g>
		<g>
			
				<linearGradient id="SVGID_4_" gradientUnits="userSpaceOnUse" x1="76.7559" y1="51.877" x2="89.0009" y2="66.4699" gradientTransform="matrix(-1 0 0 -1 265.2344 155.2871)">
				<stop  offset="0.0056" style="stop-color:#C0F2CA"/>
				<stop  offset="0.1558" style="stop-color:#B0E6BE"/>
				<stop  offset="0.7472" style="stop-color:#72BB90"/>
			</linearGradient>
			<path fill="url(#SVGID_4_)" d="M189.339,77.82c0,0,13.738,37.887-21.813,27.234C167.525,105.055,191.577,105.588,189.339,77.82z"
				/>
		</g>
	</g>
</g>
<g id="图层_2">
	<g display="none">
		<line display="inline" fill="none" stroke="#000000" x1="101.04" y1="99.14" x2="300.176" y2="35.688"/>
		<line display="inline" fill="none" stroke="#000000" x1="101.04" y1="99.14" x2="-98.477" y2="36.896"/>
	</g>
</g>
</svg>
