<?xml version="1.0" encoding="utf-8"?>
<!--
  - This file is part of StyleBI.
  - Copyright (C) 2024  InetSoft Technology
  -
  - This program is free software: you can redistribute it and/or modify
  - it under the terms of the GNU Affero General Public License as published by
  - the Free Software Foundation, either version 3 of the License, or
  - (at your option) any later version.
  -
  - This program is distributed in the hope that it will be useful,
  - but WITHOUT ANY WARRANTY; without even the implied warranty of
  - MERCHANTABILITY or FITNESS FOR A PARTICULAR PURPOSE.  See the
  - GNU Affero General Public License for more details.
  -
  - You should have received a copy of the GNU Affero General Public License
  - along with this program.  If not, see <https://www.gnu.org/licenses/>.
  -->

<!-- Generator: Adobe Illustrator 13.0.0, SVG Export Plug-In . SVG Version: 6.00 Build 14948)  -->
<!DOCTYPE svg PUBLIC "-//W3C//DTD SVG 1.1//EN" "http://www.w3.org/Graphics/SVG/1.1/DTD/svg11.dtd">
<svg version="1.1" id="图层_1" xmlns="http://www.w3.org/2000/svg" xmlns:xlink="http://www.w3.org/1999/xlink" x="0px" y="0px"
	 width="200px" height="60.742px" viewBox="0 0 200 60.742" enable-background="new 0 0 200 60.742" xml:space="preserve">
<linearGradient id="SVGID_1_" gradientUnits="userSpaceOnUse" x1="-114.3999" y1="22.7822" x2="-114.3999" y2="-37.959" gradientTransform="matrix(1 0 0 -1 214.3999 22.7822)">
	<stop  offset="0" style="stop-color:#5178C3"/>
	<stop  offset="0.989" style="stop-color:#04205A"/>
	<stop  offset="1" style="stop-color:#041F59"/>
</linearGradient>
<path fill="url(#SVGID_1_)" d="M200,55.585c0,2.847-2.309,5.156-5.156,5.156H5.157C2.309,60.742,0,58.432,0,55.585V5.157
	C0,2.31,2.309,0,5.157,0h189.687C197.691,0,200,2.31,200,5.157V55.585z"/>
<linearGradient id="SVGID_2_" gradientUnits="userSpaceOnUse" x1="-114.3999" y1="20.9253" x2="-114.3999" y2="-36.1025" gradientTransform="matrix(1 0 0 -1 214.3999 22.7822)">
	<stop  offset="0" style="stop-color:#043CA0"/>
	<stop  offset="0.989" style="stop-color:#04183F"/>
</linearGradient>
<path fill="url(#SVGID_2_)" d="M198.453,54.044c0,2.673-2.271,4.841-5.077,4.841H6.624c-2.804,0-5.077-2.168-5.077-4.841V6.698
	c0-2.673,2.273-4.841,5.077-4.841h186.752c2.806,0,5.077,2.168,5.077,4.841V54.044z"/>
<linearGradient id="SVGID_3_" gradientUnits="userSpaceOnUse" x1="-114.3994" y1="-32.082" x2="-114.3994" y2="16.9033" gradientTransform="matrix(1 0 0 -1 214.3999 22.7822)">
	<stop  offset="0" style="stop-color:#B8C8F2"/>
	<stop  offset="1" style="stop-color:#020221"/>
</linearGradient>
<path fill="url(#SVGID_3_)" d="M195.05,50.706c0,2.296-2.194,4.158-4.901,4.158H9.852c-2.707,0-4.901-1.862-4.901-4.158V10.038
	c0-2.297,2.194-4.159,4.901-4.159h180.296c2.709,0,4.901,1.862,4.901,4.159V50.706z"/>
<linearGradient id="SVGID_4_" gradientUnits="userSpaceOnUse" x1="-171.1797" y1="49.1914" x2="-57.6194" y2="-64.3689" gradientTransform="matrix(1 0 0 -1 214.3999 22.7822)">
	<stop  offset="0" style="stop-color:#CFD4E2"/>
	<stop  offset="1" style="stop-color:#636D87"/>
</linearGradient>
<path fill="url(#SVGID_4_)" d="M193.096,49.45c0,2.155-2.15,3.901-4.801,3.901H11.705c-2.651,0-4.801-1.746-4.801-3.901V11.292
	c0-2.154,2.15-3.902,4.801-3.902h176.59c2.65,0,4.801,1.748,4.801,3.902V49.45z"/>
<g opacity="0.5">
	<g>
		<path fill="#4C6A9E" d="M181.762,20.143c-0.234,0-0.462,0.04-0.685,0.098H19.086c-0.148-0.024-0.293-0.063-0.445-0.063
			c-2.08,0-3.766,2.385-3.766,5.327c0,2.942,1.686,5.327,3.766,5.327c0.228,0,0.448-0.04,0.665-0.095h162.025
			c0.144,0.023,0.282,0.062,0.431,0.062c2.08,0,3.766-2.386,3.766-5.328C185.527,22.529,183.842,20.143,181.762,20.143z"/>
	</g>
</g>
<g>
	<text transform="matrix(1 0 0 1 17.9775 44.1045)" fill="#040A47" font-family="'ArialMT'" font-size="9.2112">0         10        20        30         40         50 </text>
</g>
<g opacity="0.7">
	<rect x="34.045" y="23.126" fill="#E5E5E5" width="1.076" height="5.376"/>
	<rect x="27.404" y="23.126" fill="#E5E5E5" width="1.076" height="5.376"/>
	<rect x="41.258" y="23.126" fill="#E5E5E5" width="1.075" height="5.376"/>
	<rect x="65.99" y="23.126" fill="#E5E5E5" width="1.076" height="5.376"/>
	<rect x="57.746" y="23.126" fill="#E5E5E5" width="1.076" height="5.376"/>
	<rect x="74.119" y="23.126" fill="#E5E5E5" width="1.076" height="5.376"/>
	<rect x="95.416" y="23.126" fill="#E5E5E5" width="1.076" height="5.376"/>
	<rect x="103.316" y="23.126" fill="#E5E5E5" width="1.076" height="5.376"/>
	<rect x="88.431" y="23.126" fill="#E5E5E5" width="1.076" height="5.376"/>
	<rect x="129.88" y="23.126" fill="#E5E5E5" width="1.076" height="5.376"/>
	<rect x="121.063" y="23.126" fill="#E5E5E5" width="1.076" height="5.376"/>
	<rect x="138.238" y="23.126" fill="#E5E5E5" width="1.076" height="5.376"/>
	<rect x="163.313" y="23.126" fill="#E5E5E5" width="1.076" height="5.376"/>
	<rect x="155.643" y="23.126" fill="#E5E5E5" width="1.076" height="5.376"/>
	<rect x="171.328" y="23.126" fill="#E5E5E5" width="1.076" height="5.376"/>
	<path fill="#FFFFFF" d="M22.595,27.419c0,0.57-0.462,1.031-1.031,1.031h-1.097c-0.57,0-1.032-0.461-1.032-1.031v-3.681
		c0-0.57,0.462-1.031,1.032-1.031h1.097c0.569,0,1.031,0.461,1.031,1.031V27.419z"/>
	<path fill="#FFFFFF" d="M51.616,27.419c0,0.57-0.461,1.031-1.031,1.031h-1.097c-0.57,0-1.031-0.461-1.031-1.031v-3.681
		c0-0.57,0.461-1.031,1.031-1.031h1.097c0.57,0,1.031,0.461,1.031,1.031V27.419z"/>
	<path fill="#FFFFFF" d="M83.625,27.419c0,0.57-0.461,1.031-1.031,1.031h-1.097c-0.569,0-1.031-0.461-1.031-1.031v-3.681
		c0-0.57,0.462-1.031,1.031-1.031h1.097c0.57,0,1.031,0.461,1.031,1.031V27.419z"/>
	<path fill="#FFFFFF" d="M114.779,27.562c0,0.569-0.461,1.031-1.03,1.031h-1.097c-0.569,0-1.031-0.462-1.031-1.031V23.88
		c0-0.569,0.462-1.031,1.031-1.031h1.097c0.569,0,1.03,0.462,1.03,1.031V27.562z"/>
	<path fill="#FFFFFF" d="M149.064,27.419c0,0.57-0.461,1.031-1.03,1.031h-1.097c-0.57,0-1.031-0.461-1.031-1.031v-3.681
		c0-0.57,0.461-1.031,1.031-1.031h1.097c0.569,0,1.03,0.461,1.03,1.031V27.419z"/>
	<path fill="#FFFFFF" d="M180.932,27.419c0,0.57-0.461,1.031-1.031,1.031h-1.098c-0.568,0-1.031-0.461-1.031-1.031v-3.681
		c0-0.57,0.463-1.031,1.031-1.031h1.098c0.57,0,1.031,0.461,1.031,1.031V27.419z"/>
</g>
<g>
	
		<linearGradient id="SVGID_5_" gradientUnits="userSpaceOnUse" x1="-193.4028" y1="-13.291" x2="-193.4028" y2="9.3833" gradientTransform="matrix(1 0 0 -1 214.3999 22.7822)">
		<stop  offset="0" style="stop-color:#4C0303"/>
		<stop  offset="0.4908" style="stop-color:#A20202"/>
		<stop  offset="1" style="stop-color:#FF0000"/>
	</linearGradient>
	<polygon fill="url(#SVGID_5_)" points="20.996,36.073 17.987,24.736 14.978,13.399 20.996,13.399 27.017,13.399 24.007,24.736 	"/>
	
		<linearGradient id="SVGID_6_" gradientUnits="userSpaceOnUse" x1="-193.4653" y1="-7.5576" x2="-193.4653" y2="8.7964" gradientTransform="matrix(1 0 0 -1 214.3999 22.7822)">
		<stop  offset="0" style="stop-color:#3A3A3A"/>
		<stop  offset="0.221" style="stop-color:#3D3D3D"/>
		<stop  offset="0.3757" style="stop-color:#464646"/>
		<stop  offset="0.5101" style="stop-color:#555555"/>
		<stop  offset="0.6331" style="stop-color:#6B6B6B"/>
		<stop  offset="0.7482" style="stop-color:#888888"/>
		<stop  offset="0.8574" style="stop-color:#ABABAB"/>
		<stop  offset="0.9601" style="stop-color:#D3D3D3"/>
		<stop  offset="1" style="stop-color:#E5E5E5"/>
	</linearGradient>
	<polygon opacity="0.4" fill="url(#SVGID_6_)" enable-background="new    " points="20.935,30.34 18.765,22.164 16.593,13.986 
		20.935,13.986 25.276,13.986 23.104,22.164 	"/>
</g>
</svg>
