<?xml version="1.0" encoding="utf-8"?>
<!--
  - This file is part of StyleBI.
  -
  - Copyright (c) 2024, InetSoft Technology Corp, All Rights Reserved.
  -
  - The software and information contained herein are copyrighted and
  - proprietary to InetSoft Technology Corp. This software is furnished
  - pursuant to a written license agreement and may be used, copied,
  - transmitted, and stored only in accordance with the terms of such
  - license and with the inclusion of the above copyright notice. Please
  - refer to the file "COPYRIGHT" for further copyright and licensing
  - information. This software and information or any other copies
  - thereof may not be provided or otherwise made available to any other
  - person.
  -->

<!-- Generator: Adobe Illustrator 15.1.0, SVG Export Plug-In . SVG Version: 6.00 Build 0)  -->
<!DOCTYPE svg PUBLIC "-//W3C//DTD SVG 1.1//EN" "http://www.w3.org/Graphics/SVG/1.1/DTD/svg11.dtd">
<svg version="1.1" id="Layer_1" xmlns="http://www.w3.org/2000/svg" xmlns:xlink="http://www.w3.org/1999/xlink" x="0px" y="0px"
	 width="30px" height="30px" viewBox="80.5 80.5 30 30" enable-background="new 80.5 80.5 30 30" xml:space="preserve">
<g transform="translate(0.000000,191.000000) scale(0.100000,-0.100000)">
	<path d="M830.85,955v-124.15H955h124.15V955v124.15H955H830.85V955z M974.375,1014.15c4.678-1.563,12.207-5.2,16.641-8.325
		c7.666-5.063,19.229-17.417,19.229-20.273c0-0.781-4.414-1.299-9.873-1.299c-9.619,0-10.02,0.127-15.732,5.195
		c-8.975,7.803-18.066,10.791-31.587,10.137c-13.521-0.645-20.669-3.638-29.897-12.217c-3.511-3.252-8.062-9.355-10.01-13.389
		c-3.125-6.372-3.647-8.843-3.647-18.979c0-10.146,0.522-12.607,3.647-19.102c4.678-9.502,15.469-19.375,25.347-23.271
		c6.89-2.734,9.746-2.998,43.55-3.516l36.016-0.527v-8.057v-8.066l-36.66,0.146c-33.804,0.254-37.446,0.518-45.376,2.979
		c-21.836,7.148-37.959,24.443-42.773,45.898c-2.207,10.005-1.04,25.864,2.603,35.352c6.367,16.646,22.358,31.855,39.39,37.188
		C946.426,1017.529,963.057,1017.656,974.375,1014.15z M1009.082,968.52c2.998-1.694,2.725-1.821-4.424-2.603
		c-8.975-1.04-23.535-7.803-32.627-15.469c-7.012-5.85-15.083-15.342-15.083-17.939c0-0.908-0.522-1.299-1.294-0.908
		c-1.694,1.045-1.694,20.669,0,26.777c0.771,2.466,2.856,5.977,4.678,7.798c2.998,2.729,4.941,3.252,17.158,3.901
		C995.43,971.118,1005.185,970.596,1009.082,968.52z M1015.703,925.752c-4.668-6.377-9.746-7.813-27.559-7.813
		c-15.459,0-25.088,1.436-26.523,3.779c-0.381,0.654,1.836,1.172,4.951,1.172c6.885,0.127,17.549,4.033,26.514,9.756
		c8.975,5.586,20.283,16.758,22.617,22.095c1.563,3.896,1.689,3.115,2.09-10.796
		C1018.057,931.211,1017.793,928.603,1015.703,925.752z"/>
</g>
</svg>
