<?xml version="1.0" encoding="utf-8"?>
<!--
  - This file is part of StyleBI.
  -
  - Copyright (c) 2024, InetSoft Technology Corp, All Rights Reserved.
  -
  - The software and information contained herein are copyrighted and
  - proprietary to InetSoft Technology Corp. This software is furnished
  - pursuant to a written license agreement and may be used, copied,
  - transmitted, and stored only in accordance with the terms of such
  - license and with the inclusion of the above copyright notice. Please
  - refer to the file "COPYRIGHT" for further copyright and licensing
  - information. This software and information or any other copies
  - thereof may not be provided or otherwise made available to any other
  - person.
  -->

<!-- Generator: Adobe Illustrator 15.1.0, SVG Export Plug-In . SVG Version: 6.00 Build 0)  -->
<!DOCTYPE svg PUBLIC "-//W3C//DTD SVG 1.1//EN" "http://www.w3.org/Graphics/SVG/1.1/DTD/svg11.dtd">
<svg version="1.1" id="Layer_1" xmlns="http://www.w3.org/2000/svg" xmlns:xlink="http://www.w3.org/1999/xlink" x="0px" y="0px"
	 width="30px" height="30px" viewBox="0 0 30 30" enable-background="new 0 0 30 30" xml:space="preserve">
<g>
	<g>
		<path fill="#E64425" d="M27.959,23.958c0,2.2-1.8,4-4,4H6.041c-2.2,0-4-1.8-4-4V6.042c0-2.2,1.8-4,4-4h17.918c2.2,0,4,1.8,4,4
			V23.958z"/>
	</g>
	<g>
		<path fill="#FFFFFF" d="M14.478,18.549c-0.57,0.484-1.118,0.826-1.645,1.025s-1.092,0.299-1.696,0.299
			c-0.997,0-1.764-0.243-2.299-0.73c-0.536-0.487-0.803-1.109-0.803-1.867c0-0.444,0.101-0.851,0.303-1.218
			c0.202-0.368,0.467-0.663,0.795-0.885c0.327-0.222,0.696-0.39,1.106-0.504c0.302-0.08,0.757-0.156,1.367-0.23
			c1.242-0.148,2.156-0.325,2.743-0.53c0.005-0.21,0.008-0.345,0.008-0.402c0-0.626-0.145-1.068-0.436-1.324
			c-0.393-0.347-0.977-0.521-1.751-0.521c-0.724,0-1.258,0.127-1.602,0.38c-0.345,0.254-0.6,0.702-0.765,1.346L8.3,13.182
			c0.137-0.644,0.361-1.164,0.675-1.56c0.313-0.396,0.766-0.701,1.358-0.915c0.593-0.213,1.279-0.32,2.06-0.32
			c0.774,0,1.404,0.091,1.889,0.273c0.484,0.183,0.84,0.412,1.068,0.688c0.228,0.276,0.387,0.625,0.479,1.047
			c0.051,0.262,0.077,0.734,0.077,1.418v2.051c0,1.431,0.033,2.335,0.099,2.713c0.065,0.379,0.195,0.742,0.389,1.09h-1.607
			C14.626,19.349,14.523,18.976,14.478,18.549z M14.35,15.113c-0.559,0.228-1.396,0.422-2.513,0.581
			c-0.632,0.091-1.08,0.194-1.341,0.308c-0.262,0.114-0.464,0.281-0.607,0.5c-0.142,0.22-0.213,0.463-0.213,0.73
			c0,0.41,0.155,0.752,0.466,1.025c0.31,0.273,0.765,0.41,1.363,0.41c0.592,0,1.119-0.129,1.581-0.389
			c0.461-0.259,0.8-0.613,1.017-1.063c0.165-0.348,0.248-0.86,0.248-1.539V15.113z"/>
		<path fill="#FFFFFF" d="M18.657,19.668v-7.879h-1.359v-1.196h1.359V9.627c0-0.61,0.054-1.063,0.162-1.359
			c0.147-0.398,0.408-0.722,0.781-0.97c0.373-0.248,0.896-0.372,1.568-0.372c0.433,0,0.911,0.051,1.436,0.153l-0.23,1.342
			c-0.319-0.057-0.621-0.085-0.906-0.085c-0.467,0-0.798,0.1-0.991,0.299c-0.193,0.199-0.29,0.572-0.29,1.119v0.837h1.769v1.196
			h-1.769v7.879H18.657z"/>
	</g>
</g>
</svg>
