<?xml version="1.0" encoding="utf-8"?>
<!--
  - This file is part of StyleBI.
  -
  - Copyright (c) 2024, InetSoft Technology Corp, All Rights Reserved.
  -
  - The software and information contained herein are copyrighted and
  - proprietary to InetSoft Technology Corp. This software is furnished
  - pursuant to a written license agreement and may be used, copied,
  - transmitted, and stored only in accordance with the terms of such
  - license and with the inclusion of the above copyright notice. Please
  - refer to the file "COPYRIGHT" for further copyright and licensing
  - information. This software and information or any other copies
  - thereof may not be provided or otherwise made available to any other
  - person.
  -->

<!-- Generator: Adobe Illustrator 15.1.0, SVG Export Plug-In . SVG Version: 6.00 Build 0)  -->
<!DOCTYPE svg PUBLIC "-//W3C//DTD SVG 1.1//EN" "http://www.w3.org/Graphics/SVG/1.1/DTD/svg11.dtd">
<svg version="1.1" id="Layer_1" xmlns="http://www.w3.org/2000/svg" xmlns:xlink="http://www.w3.org/1999/xlink" x="0px" y="0px"
	 width="30px" height="30px" viewBox="35 50 30 30" enable-background="new 35 50 30 30" xml:space="preserve">
<g>
	<path fill="#23A566" d="M59.505,76.698c0,0.845-0.686,1.528-1.53,1.528h-15.95c-0.844,0-1.529-0.684-1.529-1.528v-23.39
		c0-0.844,0.685-1.528,1.529-1.528H52.28l7.225,7.399V76.698L59.505,76.698z"/>
	<path fill="#1C8F5A" d="M53.076,58.99l6.429,6.141l-0.02-5.962l-0.011-0.001h-5.679c-0.258,0-0.502-0.064-0.715-0.177L53.076,58.99
		L53.076,58.99z"/>
	<path fill="#8ED1B1" d="M59.505,59.168h-5.709c-0.844,0-1.528-0.684-1.528-1.528v-5.867L59.505,59.168L59.505,59.168z"/>
	<path fill="#FFFFFF" d="M54.943,73.335h-9.886v-8.561h9.886V73.335L54.943,73.335z M50.611,65.998v1.528h3.108v-1.528H50.611
		L50.611,65.998z M50.611,68.442v1.428h3.108v-1.428H50.611L50.611,68.442z M50.611,70.788v1.325h3.108v-1.325H50.611L50.611,70.788
		z M49.389,72.111v-1.324H46.28v1.324H49.389L49.389,72.111z M49.389,69.87v-1.428H46.28v1.428H49.389L49.389,69.87z M49.389,67.526
		v-1.528H46.28v1.528H49.389L49.389,67.526z"/>
</g>
</svg>
