<?xml version="1.0" encoding="utf-8"?>
<!--
  - This file is part of StyleBI.
  - Copyright (C) 2024  InetSoft Technology
  -
  - This program is free software: you can redistribute it and/or modify
  - it under the terms of the GNU Affero General Public License as published by
  - the Free Software Foundation, either version 3 of the License, or
  - (at your option) any later version.
  -
  - This program is distributed in the hope that it will be useful,
  - but WITHOUT ANY WARRANTY; without even the implied warranty of
  - MERCHANTABILITY or FITNESS FOR A PARTICULAR PURPOSE.  See the
  - GNU Affero General Public License for more details.
  -
  - You should have received a copy of the GNU Affero General Public License
  - along with this program.  If not, see <https://www.gnu.org/licenses/>.
  -->

<!-- Generator: Adobe Illustrator 15.1.0, SVG Export Plug-In . SVG Version: 6.00 Build 0)  -->
<!DOCTYPE svg PUBLIC "-//W3C//DTD SVG 1.1//EN" "http://www.w3.org/Graphics/SVG/1.1/DTD/svg11.dtd">
<svg version="1.1" id="Layer_1" xmlns="http://www.w3.org/2000/svg" xmlns:xlink="http://www.w3.org/1999/xlink" x="0px" y="0px"
	 width="30px" height="30px" viewBox="291 381 30 30" enable-background="new 291 381 30 30" xml:space="preserve">
<g id="Group" transform="translate(309 368)">
	<g id="Group-8" transform="translate(0 0)">
		<path id="Rectangle_1" fill="#231F20" d="M-14.337,16.066H8.337c0.33,0,0.597,0.267,0.597,0.597v22.674
			c0,0.33-0.267,0.597-0.597,0.597h-22.674c-0.33,0-0.597-0.267-0.597-0.597V16.663C-14.934,16.333-14.667,16.066-14.337,16.066z"/>
		<path id="Fill-1" fill="#72B64A" d="M5.138,29.208c-0.719,0.004-1.367,0.43-1.657,1.087l-1.635,0.003l-2.192-5.939l-0.389-0.038
			l-1.961,6.406l-2.307-12.69l-0.53,0.023l-3.04,12.454l-4.802,1.229l-0.041-0.004l6.467,0.478l1.46-6.479l2.059,11.768l0.704,0.007
			l2.372-8.621l1.063,2.898l2.756,0.017c0.422,0.92,1.51,1.325,2.43,0.904c0.922-0.422,1.326-1.51,0.904-2.431
			C6.5,29.629,5.853,29.211,5.138,29.208"/>
	</g>
</g>
</svg>
