<?xml version="1.0" encoding="utf-8"?>
<!--
  - This file is part of StyleBI.
  - Copyright (C) 2024  InetSoft Technology
  -
  - This program is free software: you can redistribute it and/or modify
  - it under the terms of the GNU Affero General Public License as published by
  - the Free Software Foundation, either version 3 of the License, or
  - (at your option) any later version.
  -
  - This program is distributed in the hope that it will be useful,
  - but WITHOUT ANY WARRANTY; without even the implied warranty of
  - MERCHANTABILITY or FITNESS FOR A PARTICULAR PURPOSE.  See the
  - GNU Affero General Public License for more details.
  -
  - You should have received a copy of the GNU Affero General Public License
  - along with this program.  If not, see <https://www.gnu.org/licenses/>.
  -->

<!-- Generator: Adobe Illustrator 15.0.0, SVG Export Plug-In . SVG Version: 6.00 Build 0)  -->
<!DOCTYPE svg PUBLIC "-//W3C//DTD SVG 1.1//EN" "http://www.w3.org/Graphics/SVG/1.1/DTD/svg11.dtd">
<svg version="1.1" id="图层_1" xmlns="http://www.w3.org/2000/svg" xmlns:xlink="http://www.w3.org/1999/xlink" x="0px" y="0px"
	 width="175px" height="200px" viewBox="0 0 175 200" enable-background="new 0 0 175 200" xml:space="preserve">
<g>
	<path fill="#42BCF4" d="M160.157,15.216C137.975,5.436,113.446,0,87.645,0C62.239,0,38.068,5.271,16.154,14.769
		c-5.268,2.283-14.51,6.81-9.942,20.741c0.141,0.429,0.691,1.668,0.691,1.668L68.68,186.319C71.328,194.265,78.811,200,87.645,200
		s16.317-5.735,18.964-13.681l60.489-146.032c0,0,1.285-2.981,1.656-3.998C173.146,24.244,165.068,17.381,160.157,15.216z"/>
	<path fill="#FFFFFF" d="M159.258,20.243C137.429,10.453,113.232,5,87.757,5c-26.032,0-50.73,5.695-72.933,15.894
		c-2.592,1.19-6.067,4.976-4.65,10.58c0.097,0.383,0.297,1.185,0.297,1.185l63.126,152.399c2.08,5.819,7.627,9.991,14.16,9.991
		c6.535,0,12.081-4.172,14.161-9.991l61.634-148.796c0,0,0.872-1.968,1.097-2.648C166.633,27.619,162.341,21.626,159.258,20.243z"/>
	<path fill="#8DD0FC" d="M45.396,78.353l2.307,5.568C59.968,78.821,73.41,76,87.5,76c14.091,0,27.532,2.821,39.798,7.921
		l2.307-5.568C116.635,72.974,102.416,70,87.5,70C72.584,70,58.366,72.974,45.396,78.353z"/>
	<polygon fill="#42BCF4" points="97.501,180 77.5,180 87.5,50.063 	"/>
	<circle fill="#42BCF4" cx="87.5" cy="180" r="10"/>
	<circle fill="#FFFFFF" cx="87.5" cy="180" r="6"/>
	<g>
		<path fill="#AFAFAF" d="M42.507,57.007l-3.189-9.805c-0.333,0.104-0.663,0.197-0.987,0.31l3.184,9.805
			C41.837,57.212,42.177,57.116,42.507,57.007z"/>
		<path fill="#AFAFAF" d="M37.59,58.655l-3.524-9.688c-0.333,0.115-0.654,0.239-0.979,0.363l3.526,9.688
			C36.94,58.896,37.266,58.771,37.59,58.655z"/>
		<path fill="#AFAFAF" d="M131.388,45.877c-0.332-0.093-0.663-0.183-1-0.278l-2.832,9.919c0.332,0.091,0.667,0.182,0.998,0.278
			L131.388,45.877z"/>
		<path fill="#AFAFAF" d="M126.028,44.451c-0.332-0.086-0.664-0.177-1.006-0.259l-2.492,10.006c0.352,0.08,0.68,0.173,1.006,0.257
			L126.028,44.451z"/>
		<path fill="#AFAFAF" d="M136.696,47.492c-0.326-0.106-0.662-0.211-0.99-0.313l-3.189,9.809c0.34,0.102,0.668,0.202,0.992,0.313
			L136.696,47.492z"/>
		<path fill="#AFAFAF" d="M141.929,49.302c-0.313-0.116-0.647-0.238-0.97-0.354l-3.528,9.691c0.328,0.116,0.654,0.233,0.977,0.35
			L141.929,49.302z"/>
		<path fill="#AFAFAF" d="M43.627,45.896l2.846,9.915c0.329-0.098,0.663-0.196,0.992-0.294l-2.837-9.906
			C44.29,45.706,43.961,45.803,43.627,45.896z"/>
		<path fill="#AFAFAF" d="M54.391,43.212l2.143,10.09c0.341-0.076,0.675-0.146,1.015-0.218l-2.152-10.081
			C55.067,43.072,54.729,43.143,54.391,43.212z"/>
		<path fill="#AFAFAF" d="M120.62,43.205c-0.332-0.073-0.673-0.137-1.001-0.206l-2.149,10.085c0.336,0.069,0.672,0.134,1.021,0.207
			L120.62,43.205z"/>
		<path fill="#AFAFAF" d="M48.98,44.456l2.5,10.004c0.337-0.085,0.667-0.164,1.009-0.245l-2.499-10.007
			C49.651,44.287,49.32,44.372,48.98,44.456z"/>
		<path fill="#AFAFAF" d="M104.196,40.624c-0.346-0.037-0.709-0.066-1.038-0.104l-1.07,10.254c0.337,0.038,0.687,0.066,1.025,0.105
			L104.196,40.624z"/>
		<path fill="#AFAFAF" d="M92.985,39.839l-0.373,10.304c0.041,0,0.059,0,0.082,0c0.32,0.011,0.649,0.034,0.969,0.045l0.358-10.299
			c-0.323-0.017-0.661-0.035-0.972-0.048C93.024,39.839,93.003,39.839,92.985,39.839z"/>
		<path fill="#AFAFAF" d="M98.661,40.144c-0.337-0.021-0.684-0.055-1.031-0.074l-0.717,10.284c0.346,0.021,0.698,0.051,1.04,0.077
			L98.661,40.144z"/>
		<path fill="#AFAFAF" d="M115.181,42.157c-0.334-0.062-0.689-0.124-1.025-0.179l-1.787,10.156c0.346,0.056,0.678,0.117,1.023,0.178
			L115.181,42.157z"/>
		<path fill="#AFAFAF" d="M109.702,41.289c-0.338-0.045-0.688-0.091-1.028-0.139l-1.433,10.216c0.34,0.044,0.687,0.093,1.029,0.137
			L109.702,41.289z"/>
		<path fill="#AFAFAF" d="M70.813,40.624l1.082,10.25c0.348-0.034,0.692-0.069,1.036-0.109l-1.084-10.252
			C71.505,40.549,71.157,40.587,70.813,40.624z"/>
		<path fill="#AFAFAF" d="M59.829,42.153l1.797,10.159c0.334-0.061,0.676-0.127,1.018-0.186L60.848,41.97
			C60.513,42.027,60.171,42.096,59.829,42.153z"/>
		<path fill="#AFAFAF" d="M65.312,41.289l1.432,10.214c0.342-0.049,0.688-0.093,1.026-0.135l-1.437-10.214
			C65.999,41.2,65.648,41.24,65.312,41.289z"/>
		<path fill="#AFAFAF" d="M87.435,39.758l0.008,10.306c0.338,0,0.688-0.002,1.039-0.002l-0.009-10.306
			C88.126,39.754,87.776,39.758,87.435,39.758z"/>
		<path fill="#AFAFAF" d="M81.894,39.854l0.358,10.3c0.342-0.013,0.69-0.015,1.032-0.024L82.92,39.823
			C82.579,39.828,82.234,39.834,81.894,39.854z"/>
		<path fill="#AFAFAF" d="M76.341,40.136l0.724,10.285c0.343-0.025,0.689-0.043,1.033-0.067l-0.721-10.287
			C77.031,40.091,76.692,40.106,76.341,40.136z"/>
		<path fill="#AFAFAF" d="M37.59,58.655L25.485,25.438c-0.325,0.115-0.65,0.241-0.977,0.354l12.104,33.226
			C36.94,58.896,37.266,58.771,37.59,58.655z"/>
		<path fill="#AFAFAF" d="M149.515,25.407l-12.082,33.231c0.331,0.116,0.654,0.233,0.975,0.35l12.084-33.228
			C150.166,25.643,149.844,25.525,149.515,25.407z"/>
		<path fill="#AFAFAF" d="M87.425,14.719l0.018,35.352c0.338-0.007,0.688-0.009,1.039-0.009L88.46,14.714
			C88.121,14.712,87.77,14.719,87.425,14.719z"/>
		<path fill="#AFAFAF" d="M58.552,34.902l3.077,17.41c0.333-0.061,0.676-0.127,1.019-0.186l-3.076-17.408
			C59.233,34.774,58.887,34.844,58.552,34.902z"/>
		<path fill="#AFAFAF" d="M112.368,52.135c0.346,0.056,0.687,0.121,1.023,0.178l3.068-17.41c-0.342-0.059-0.686-0.119-1.029-0.179
			L112.368,52.135z"/>
	</g>
	<path fill="#055B75" d="M54.44,26.485v-0.063c1.669-0.772,2.251-2.021,2.251-3.168c0-1.711-1.333-3.338-3.958-3.338
		c-2.4,0-4.215,1.462-4.215,3.608c0,1.167,0.647,2.336,2.167,3.045l0.022,0.063c-1.67,0.708-2.691,1.939-2.691,3.649
		c0,1.98,1.709,3.648,4.545,3.648c2.589,0,4.609-1.563,4.609-3.939C57.173,28.363,56.131,27.152,54.44,26.485z M50.272,23.401
		c0-1.17,0.832-2.169,2.357-2.169c1.649,0,2.295,1.125,2.295,2.209c0,1.23-0.896,2.066-2.068,2.461
		C51.292,25.486,50.25,24.755,50.272,23.401z M52.604,32.597c-1.729,0-2.772-1.209-2.708-2.566c0-1.291,0.858-2.355,2.437-2.813
		c1.84,0.52,2.985,1.333,2.985,2.96C55.317,31.573,54.251,32.597,52.604,32.597z M63.427,19.916c-2.751,0-4.731,2.481-4.731,7.048
		c0.042,4.483,1.854,6.966,4.503,6.966c2.985,0,4.712-2.544,4.712-7.153C67.91,22.461,66.265,19.916,63.427,19.916z M63.303,32.512
		c-1.667,0-2.753-2.003-2.753-5.526c0-3.691,1.165-5.65,2.753-5.65c1.917,0,2.755,2.188,2.755,5.525
		C66.056,30.324,65.162,32.512,63.303,32.512z"/>
	<path fill="#055B75" d="M103.262,21.993l0.295,1.176l1.987-1.072h0.033v9.978h1.493V20.658h-1.318L103.262,21.993z M113.407,30.758
		l0.898-0.844c2.404-2.32,3.932-4.023,3.932-6.129c0-1.634-1.036-3.317-3.492-3.317c-1.304,0-2.445,0.508-3.215,1.157l0.49,1.088
		c0.531-0.437,1.387-0.967,2.424-0.967c1.704,0,2.247,1.069,2.247,2.232c0,1.719-1.337,3.194-4.246,5.97l-1.213,1.178v0.948h7.282
		V30.79h-5.111v-0.032H113.407z M124.065,20.467c-2.32,0-3.985,2.087-3.985,5.934c0.035,3.777,1.563,5.866,3.788,5.866
		c2.514,0,3.971-2.143,3.971-6.024C127.839,22.604,126.458,20.467,124.065,20.467z M123.96,31.071c-1.404,0-2.317-1.684-2.317-4.655
		c0-3.106,0.984-4.757,2.317-4.757c1.616,0,2.32,1.842,2.32,4.654C126.28,29.229,125.522,31.071,123.96,31.071z"/>
</g>
</svg>
