<?xml version="1.0" encoding="utf-8"?>
<!--
  - This file is part of StyleBI.
  - Copyright (C) 2024  InetSoft Technology
  -
  - This program is free software: you can redistribute it and/or modify
  - it under the terms of the GNU Affero General Public License as published by
  - the Free Software Foundation, either version 3 of the License, or
  - (at your option) any later version.
  -
  - This program is distributed in the hope that it will be useful,
  - but WITHOUT ANY WARRANTY; without even the implied warranty of
  - MERCHANTABILITY or FITNESS FOR A PARTICULAR PURPOSE.  See the
  - GNU Affero General Public License for more details.
  -
  - You should have received a copy of the GNU Affero General Public License
  - along with this program.  If not, see <https://www.gnu.org/licenses/>.
  -->

<!-- Generator: Adobe Illustrator 15.0.0, SVG Export Plug-In . SVG Version: 6.00 Build 0)  -->
<!DOCTYPE svg PUBLIC "-//W3C//DTD SVG 1.1//EN" "http://www.w3.org/Graphics/SVG/1.1/DTD/svg11.dtd">
<svg version="1.1" id="图层_1" xmlns="http://www.w3.org/2000/svg" xmlns:xlink="http://www.w3.org/1999/xlink" x="0px" y="0px"
	 width="175px" height="200px" viewBox="0 0 175 200" enable-background="new 0 0 175 200" xml:space="preserve">
<path fill="#42BCF4" d="M160.157,15.216C137.975,5.436,113.445,0,87.645,0c-25.405,0-49.576,5.271-71.49,14.769
	c-5.268,2.283-14.51,6.81-9.942,20.741c0.141,0.429,0.691,1.668,0.691,1.668L68.68,186.319C71.328,194.265,78.811,200,87.645,200
	s16.316-5.735,18.965-13.681l60.488-146.032c0,0,1.285-2.981,1.656-3.998C173.145,24.244,165.068,17.381,160.157,15.216z"/>
<path fill="#FFFFFF" d="M159.145,20.243C137.314,10.453,113.119,5,87.645,5c-26.033,0-50.73,5.695-72.933,15.894
	c-2.592,1.19-6.067,4.976-4.651,10.58c0.097,0.383,0.297,1.185,0.297,1.185l63.126,152.399c2.08,5.819,7.627,9.991,14.16,9.991
	s12.08-4.172,14.16-9.991l61.633-148.796c0,0,0.873-1.968,1.098-2.648C166.52,27.619,162.228,21.626,159.145,20.243z"/>
<path fill="#8DD0FC" d="M45.541,78.352l2.307,5.569C60.113,78.821,73.555,76,87.645,76s27.531,2.821,39.797,7.921l2.307-5.569
	C116.779,72.974,102.561,70,87.645,70S58.51,72.974,45.541,78.352z"/>
</svg>
