<?xml version="1.0" encoding="utf-8"?>
<!--
  - This file is part of StyleBI.
  - Copyright (C) 2024  InetSoft Technology
  -
  - This program is free software: you can redistribute it and/or modify
  - it under the terms of the GNU Affero General Public License as published by
  - the Free Software Foundation, either version 3 of the License, or
  - (at your option) any later version.
  -
  - This program is distributed in the hope that it will be useful,
  - but WITHOUT ANY WARRANTY; without even the implied warranty of
  - MERCHANTABILITY or FITNESS FOR A PARTICULAR PURPOSE.  See the
  - GNU Affero General Public License for more details.
  -
  - You should have received a copy of the GNU Affero General Public License
  - along with this program.  If not, see <https://www.gnu.org/licenses/>.
  -->

<!-- Generator: Adobe Illustrator 15.1.0, SVG Export Plug-In . SVG Version: 6.00 Build 0)  -->
<!DOCTYPE svg PUBLIC "-//W3C//DTD SVG 1.1//EN" "http://www.w3.org/Graphics/SVG/1.1/DTD/svg11.dtd">
<svg version="1.1" id="Layer_1" xmlns="http://www.w3.org/2000/svg" xmlns:xlink="http://www.w3.org/1999/xlink" x="0px" y="0px"
	 width="70px" height="30px" viewBox="0 0 70 30" enable-background="new 0 0 70 30" xml:space="preserve">
<title>Asset 2</title>
<g>
	<path fill="#238FFB" d="M7.734,23.559c0.124,0.5,0.499,0.903,0.999,1.092c4.148,0.718,7.457,0.437,11.449-0.875
		c0.5-0.217,0.875-0.622,1.125-1.092c1.341-3.806,1.965-7.362,0.779-11.324c-0.188-0.5-0.594-0.873-1.093-0.998
		c-4.181-0.905-8.485-1.124-12.729-0.625c-0.498,0.125-0.904,0.5-1.028,1.029C6.672,15.01,6.86,19.346,7.734,23.559"/>
	<path fill="#2549C9" d="M24.799,18.379c-0.063,0.467-0.436,0.873-0.904,0.967c-3.869,0.625-7.832,0.405-11.606-0.623
		c-0.468-0.156-0.843-0.531-0.967-0.998c-0.874-3.713-1.093-7.521-0.593-11.295c0.094-0.468,0.468-0.842,0.967-0.904
		c4.182-0.592,8.393-0.717,12.574-0.375c0.498,0.063,0.873,0.438,0.904,0.937C25.487,10.204,25.362,14.323,24.799,18.379"/>
	<path d="M12.538,20.719c0.156,0.529,0.594,0.967,1.123,1.123c3.932,1.028,7.987,1.528,12.076,1.437
		c0.561-0.063,1.029-0.47,1.123-1.029c0.654-4.183,0.75-8.394,0.279-12.604c-0.094-0.563-0.467-1-0.967-1.217
		c-3.557-0.906-7.3-0.781-10.795,0.375c-0.531,0.217-0.998,0.592-1.279,1.092C12.32,13.262,11.79,17.068,12.538,20.719"/>
	<path fill="#FFFFFF" d="M20.401,20.843c-2.777,0-4.836-2.276-4.836-5.084c0-2.809,2.09-5.243,5.085-5.243s5.085,2.371,5.085,5.305
		v4.992l-2.527-2.498V15.82c0-1.561-1.123-2.809-2.527-2.809c-1.403,0-2.525,1.248-2.525,2.746c-0.031,1.402,1.091,2.557,2.496,2.59
		c0.031,0,0.063,0,0.125,0h1.466v2.494L20.401,20.843L20.401,20.843z"/>
</g>
<g>
	<path d="M33.871,19.317L31.5,11.962h1.824l0.913,3.1c0.244,0.912,0.486,1.703,0.668,2.615h0.061
		c0.183-0.912,0.425-1.763,0.669-2.615l0.912-3.162h1.766l-2.494,7.417H33.871z"/>
	<path d="M39.83,17.189c0.061,0.669,0.729,1.034,1.521,1.034c0.547,0,1.031-0.061,1.457-0.244l0.244,1.156
		c-0.547,0.242-1.217,0.364-1.945,0.364c-1.824,0-2.857-1.033-2.857-2.735c0-1.338,0.852-2.858,2.676-2.858
		c1.701,0,2.371,1.338,2.371,2.677c0,0.303-0.063,0.548-0.063,0.667h-3.402v-0.061H39.83z M41.836,16.034
		c0-0.425-0.182-1.094-0.912-1.094c-0.729,0-0.973,0.669-1.033,1.094H41.836z"/>
	<path d="M48.344,19.136c-0.305,0.121-0.852,0.242-1.461,0.242c-1.701,0-2.857-1.032-2.857-2.735c0-1.581,1.094-2.856,3.041-2.856
		c0.426,0,0.912,0.061,1.277,0.182L48.1,15.183c-0.182-0.06-0.486-0.181-0.912-0.181c-0.852,0-1.459,0.607-1.459,1.519
		c0,0.974,0.67,1.521,1.459,1.521c0.365,0,0.73-0.062,0.973-0.183L48.344,19.136z"/>
	<path d="M51.32,12.508v1.459h1.217v1.216H51.32v1.947c0,0.668,0.184,0.912,0.67,0.912c0.244,0,0.365,0,0.486-0.063v1.278
		c-0.184,0.06-0.609,0.12-1.094,0.12c-0.549,0-0.975-0.182-1.279-0.484c-0.303-0.305-0.486-0.852-0.486-1.582v-2.188h-0.727v-1.217
		h0.727v-0.973L51.32,12.508z"/>
	<path d="M58.68,16.583c0,1.945-1.398,2.856-2.797,2.856c-1.582,0-2.797-1.034-2.797-2.736c0-1.763,1.154-2.857,2.857-2.857
		C57.584,13.846,58.68,14.94,58.68,16.583z M54.848,16.643c0,0.912,0.365,1.582,1.096,1.582c0.668,0,1.033-0.67,1.033-1.642
		c0-0.79-0.305-1.581-1.033-1.581C55.15,15.002,54.848,15.852,54.848,16.643z"/>
	<path d="M59.711,15.73c0-0.791,0-1.277-0.059-1.763h1.398l0.061,0.972h0.061c0.303-0.791,0.912-1.094,1.459-1.094
		c0.182,0,0.242,0,0.363,0.06v1.582c-0.121,0-0.244-0.061-0.424-0.061c-0.609,0-1.035,0.304-1.156,0.85
		c0,0.122-0.061,0.244-0.061,0.365v2.676h-1.643V15.73z"/>
</g>
</svg>
