<?xml version="1.0" encoding="utf-8"?>
<!--
  - This file is part of StyleBI.
  -
  - Copyright (c) 2024, InetSoft Technology Corp, All Rights Reserved.
  -
  - The software and information contained herein are copyrighted and
  - proprietary to InetSoft Technology Corp. This software is furnished
  - pursuant to a written license agreement and may be used, copied,
  - transmitted, and stored only in accordance with the terms of such
  - license and with the inclusion of the above copyright notice. Please
  - refer to the file "COPYRIGHT" for further copyright and licensing
  - information. This software and information or any other copies
  - thereof may not be provided or otherwise made available to any other
  - person.
  -->

<!-- Generator: Adobe Illustrator 15.1.0, SVG Export Plug-In . SVG Version: 6.00 Build 0)  -->
<!DOCTYPE svg PUBLIC "-//W3C//DTD SVG 1.1//EN" "http://www.w3.org/Graphics/SVG/1.1/DTD/svg11.dtd">
<svg version="1.1" id="Layer_1" xmlns="http://www.w3.org/2000/svg" xmlns:xlink="http://www.w3.org/1999/xlink" x="0px" y="0px"
	 width="70px" height="30px" viewBox="0 0 70 30" enable-background="new 0 0 70 30" xml:space="preserve">
<g>
	<path fill="#238FFB" d="M8.833,23.56c0.124,0.5,0.499,0.903,0.999,1.092c4.147,0.718,7.457,0.437,11.449-0.875
		c0.499-0.217,0.874-0.622,1.124-1.092c1.342-3.806,1.965-7.362,0.78-11.324c-0.188-0.5-0.594-0.873-1.093-0.998
		c-4.182-0.905-8.486-1.124-12.729-0.625c-0.499,0.125-0.904,0.5-1.028,1.029C7.771,15.011,7.959,19.347,8.833,23.56"/>
	<path fill="#2549C9" d="M25.898,18.38c-0.063,0.467-0.437,0.873-0.905,0.967c-3.868,0.625-7.831,0.405-11.605-0.623
		c-0.468-0.156-0.843-0.531-0.967-0.998c-0.874-3.713-1.093-7.521-0.594-11.295c0.095-0.468,0.469-0.842,0.968-0.904
		c4.181-0.592,8.393-0.717,12.573-0.375c0.499,0.063,0.874,0.438,0.905,0.937C26.585,10.205,26.46,14.324,25.898,18.38"/>
	<path d="M13.637,20.72c0.156,0.529,0.593,0.967,1.123,1.123c3.931,1.028,7.987,1.528,12.075,1.437
		c0.562-0.063,1.029-0.47,1.123-1.029c0.655-4.183,0.75-8.394,0.28-12.604c-0.094-0.563-0.468-1-0.967-1.217
		c-3.557-0.906-7.3-0.781-10.795,0.375c-0.531,0.217-0.999,0.592-1.279,1.092C13.419,13.263,12.889,17.069,13.637,20.72"/>
	<path fill="#FFFFFF" d="M21.5,20.844c-2.777,0-4.836-2.276-4.836-5.084c0-2.809,2.09-5.243,5.085-5.243s5.084,2.371,5.084,5.305
		v4.992l-2.527-2.498v-2.494c0-1.561-1.122-2.809-2.526-2.809c-1.403,0-2.525,1.248-2.525,2.746
		c-0.031,1.402,1.091,2.557,2.496,2.59c0.03,0,0.062,0,0.125,0h1.466v2.494L21.5,20.844L21.5,20.844z"/>
</g>
<g>
	<path d="M39,16.678c-0.059-0.865-0.059-1.844-0.059-2.88l0,0c-0.23,0.864-0.518,1.9-0.807,2.708l-0.863,2.764h-1.211l-0.749-2.707
		c-0.23-0.806-0.461-1.842-0.633-2.765l0,0c-0.058,0.922-0.058,2.016-0.116,2.88l-0.173,2.707H32.95l0.46-6.969h2.131l0.692,2.362
		c0.229,0.806,0.461,1.67,0.575,2.477h0.058c0.172-0.807,0.403-1.728,0.691-2.534l0.748-2.304h2.073l0.23,6.969h-1.555L39,16.678z"
		/>
	<path d="M46.026,18.175c0,0.461,0,0.922,0.056,1.21h-1.438l-0.117-0.518h-0.055c-0.349,0.403-0.864,0.633-1.44,0.633
		c-1.039,0-1.614-0.749-1.614-1.554c0-1.326,1.209-1.96,2.995-1.96V15.93c0-0.287-0.174-0.691-0.924-0.691
		c-0.516,0-1.09,0.172-1.381,0.404l-0.229-0.981c0.346-0.172,1.036-0.46,1.958-0.46c1.671,0,2.245,0.979,2.245,2.188v1.785H46.026z
		 M44.527,16.966c-0.806,0-1.496,0.173-1.496,0.806c0,0.405,0.287,0.577,0.633,0.577c0.402,0,0.69-0.288,0.808-0.577
		c0-0.056,0.056-0.17,0.056-0.286V16.966z"/>
	<path d="M48.964,12.934v1.382h1.151v1.152h-1.151v1.842c0,0.635,0.172,0.864,0.634,0.864c0.23,0,0.344,0,0.46-0.057v1.21
		c-0.172,0.057-0.575,0.115-1.036,0.115c-0.519,0-0.922-0.173-1.209-0.462c-0.289-0.287-0.461-0.805-0.461-1.496V15.41h-0.692
		v-1.151h0.692v-0.922L48.964,12.934z"/>
	<path d="M51.037,15.986c0-0.749,0-1.21-0.058-1.67h1.325l0.058,0.921h0.058c0.287-0.749,0.864-1.036,1.383-1.036
		c0.172,0,0.229,0,0.344,0.057v1.498c-0.114,0-0.229-0.058-0.403-0.058c-0.575,0-0.978,0.288-1.094,0.808
		c0,0.114-0.058,0.229-0.058,0.346v2.534h-1.553v-3.399H51.037z"/>
	<path d="M56.566,12.876c0,0.461-0.345,0.806-0.863,0.806c-0.52,0-0.807-0.345-0.807-0.806s0.346-0.808,0.864-0.808
		C56.279,12.127,56.566,12.473,56.566,12.876z M54.954,19.385v-5.068h1.555v5.068H54.954z"/>
	<path d="M58.987,14.316l0.517,0.863c0.174,0.289,0.286,0.518,0.403,0.749l0,0c0.116-0.286,0.288-0.519,0.403-0.806l0.461-0.807
		H62.5l-1.672,2.419l1.672,2.649h-1.786l-0.518-0.921c-0.173-0.229-0.289-0.518-0.404-0.749h-0.058
		c-0.114,0.286-0.288,0.518-0.403,0.749l-0.46,0.921h-1.729l1.729-2.592l-1.67-2.477H58.987z"/>
</g>
</svg>
