<?xml version="1.0" encoding="utf-8"?>
<!--
  - This file is part of StyleBI.
  -
  - Copyright (c) 2024, InetSoft Technology Corp, All Rights Reserved.
  -
  - The software and information contained herein are copyrighted and
  - proprietary to InetSoft Technology Corp. This software is furnished
  - pursuant to a written license agreement and may be used, copied,
  - transmitted, and stored only in accordance with the terms of such
  - license and with the inclusion of the above copyright notice. Please
  - refer to the file "COPYRIGHT" for further copyright and licensing
  - information. This software and information or any other copies
  - thereof may not be provided or otherwise made available to any other
  - person.
  -->

<!-- Generator: Adobe Illustrator 15.1.0, SVG Export Plug-In . SVG Version: 6.00 Build 0)  -->
<!DOCTYPE svg PUBLIC "-//W3C//DTD SVG 1.1//EN" "http://www.w3.org/Graphics/SVG/1.1/DTD/svg11.dtd">
<svg version="1.1" id="Layer_1" xmlns="http://www.w3.org/2000/svg" xmlns:xlink="http://www.w3.org/1999/xlink" x="0px" y="0px"
	 width="30px" height="30px" viewBox="0 0 30 30" enable-background="new 0 0 30 30" xml:space="preserve">
<g>
	<polyline fill="#1A476F" points="3.664,22.128 6.318,25.238 6.557,24.955 6.557,5.059 6.318,4.758 3.664,7.868 3.664,22.128 	"/>
	<polyline fill="#1F5B98" points="6.319,25.238 11.391,27.774 11.602,27.436 11.605,2.491 11.394,2.225 6.319,4.752 6.319,25.238 	
		"/>
	<polyline fill="#2D72B8" points="26.336,7.868 23.681,4.758 23.384,4.852 23.442,24.985 23.681,25.238 26.336,22.129 26.336,7.868 
			"/>
	<polyline fill="#5294CF" points="18.608,27.774 23.681,25.238 23.681,4.752 18.605,2.225 18.365,2.55 18.368,27.405 18.608,27.774 
			"/>
	<rect x="11.394" y="2.225" fill="#2D72B8" width="7.211" height="25.549"/>
</g>
<path fill="#FFFFFF" d="M6.253,20.36c1.056,0.152,1.697,0,2.546-0.367c0.721-0.313,1.418-0.958,2.27-1.231
	c1.252-0.401,2.624,0,3.962,0.081c0.325,0.02,0.648,0.02,0.968-0.016c0.499-0.307,0.489-1.452,0.974-1.557
	c-0.015,1.607-0.673,2.57-1.362,3.502c1.452-0.256,2.321-1.096,2.908-2.218c0.179-0.34,0.33-0.706,0.465-1.09
	c0.208,0.159,0.09,0.646,0.194,0.908c1-0.558,1.573-1.829,1.952-3.115c0.439-1.488,0.619-2.995,0.901-3.436
	c0.277-0.431,0.706-0.695,1.099-0.971c0.446-0.313,0.844-0.639,0.913-1.235c-0.471-0.043-0.58-0.152-0.649-0.389
	c-0.235,0.133-0.452,0.161-0.696,0.168c-0.212,0.007-0.445-0.003-0.73,0.026c-2.354,0.242-2.654,2.838-4.164,4.31
	c-0.111,0.107-0.229,0.208-0.354,0.301c-0.528,0.394-1.178,0.676-1.773,0.903c-0.967,0.369-1.884,0.395-2.79,0.714
	c-0.665,0.233-1.341,0.572-1.887,0.945c-0.132,0.091-0.26,0.186-0.383,0.286c-0.321,0.263-0.531,0.554-0.735,0.853
	c-0.21,0.309-0.412,0.626-0.721,0.929c-0.501,0.491-2.371,0.144-3.029,0.599c-0.073,0.052-0.132,0.112-0.172,0.186
	c0.359,0.163,0.6,0.063,1.013,0.108C7.025,19.946,6.118,20.18,6.253,20.36L6.253,20.36z M20.521,17.536
	c0.028,0.449,0.29,1.342,0.521,1.559c-0.452,0.11-1.23-0.071-1.43-0.391C19.716,18.245,20.249,17.824,20.521,17.536L20.521,17.536z"
	/>
</svg>
