<?xml version="1.0" encoding="utf-8"?>
<!--
  - This file is part of StyleBI.
  - Copyright (C) 2024  InetSoft Technology
  -
  - This program is free software: you can redistribute it and/or modify
  - it under the terms of the GNU Affero General Public License as published by
  - the Free Software Foundation, either version 3 of the License, or
  - (at your option) any later version.
  -
  - This program is distributed in the hope that it will be useful,
  - but WITHOUT ANY WARRANTY; without even the implied warranty of
  - MERCHANTABILITY or FITNESS FOR A PARTICULAR PURPOSE.  See the
  - GNU Affero General Public License for more details.
  -
  - You should have received a copy of the GNU Affero General Public License
  - along with this program.  If not, see <https://www.gnu.org/licenses/>.
  -->

<!-- Generator: Adobe Illustrator 15.1.0, SVG Export Plug-In . SVG Version: 6.00 Build 0)  -->
<!DOCTYPE svg PUBLIC "-//W3C//DTD SVG 1.1//EN" "http://www.w3.org/Graphics/SVG/1.1/DTD/svg11.dtd">
<svg version="1.1" id="Layer_1" xmlns="http://www.w3.org/2000/svg" xmlns:xlink="http://www.w3.org/1999/xlink" x="0px" y="0px"
	 width="30px" height="30px" viewBox="35 35 30 30" enable-background="new 35 35 30 30" xml:space="preserve">
<g id="Layer_1_1_">
	<g>
		<polygon fill="#F58435" points="51.96,49.993 41.154,49.993 41.154,57.458 51.96,54.987 		"/>
		<polygon fill="#F58435" points="55.195,49.993 43.453,49.993 43.453,58.606 55.195,55.273 		"/>
		<polygon fill="#F58435" points="57.755,49.993 46.32,49.993 46.32,60.041 57.755,55.857 		"/>
		<polygon fill="#F58435" points="49.999,61.88 49.999,49.993 59.834,49.993 59.834,56.962 		"/>
		<polygon fill="#9D5025" points="41.154,49.993 41.154,57.458 40.169,56.965 40.169,49.993 		"/>
		<polygon fill="#9D5025" points="43.453,49.993 43.453,58.606 42.244,58.003 42.244,49.993 		"/>
		<polygon fill="#9D5025" points="46.32,49.993 46.32,60.041 44.802,59.282 44.802,49.993 		"/>
		<polygon fill="#9D5025" points="48.038,60.9 48.038,49.993 49.999,49.993 49.999,61.88 		"/>
		<polygon fill="#F58435" points="59.837,47.603 50,45.912 50,38.12 59.837,43.038 		"/>
		<polygon fill="#9D5025" points="40.164,47.603 50,45.912 50,38.12 40.164,43.038 		"/>
		<polygon fill="#6B3B19" points="59.837,47.603 50,48.303 40.164,47.603 50,45.912 		"/>
	</g>
</g>
</svg>
