<?xml version="1.0" encoding="utf-8"?>
<!--
  - This file is part of StyleBI.
  -
  - Copyright (c) 2024, InetSoft Technology Corp, All Rights Reserved.
  -
  - The software and information contained herein are copyrighted and
  - proprietary to InetSoft Technology Corp. This software is furnished
  - pursuant to a written license agreement and may be used, copied,
  - transmitted, and stored only in accordance with the terms of such
  - license and with the inclusion of the above copyright notice. Please
  - refer to the file "COPYRIGHT" for further copyright and licensing
  - information. This software and information or any other copies
  - thereof may not be provided or otherwise made available to any other
  - person.
  -->

<!-- Generator: Adobe Illustrator 15.1.0, SVG Export Plug-In . SVG Version: 6.00 Build 0)  -->
<!DOCTYPE svg PUBLIC "-//W3C//DTD SVG 1.1//EN" "http://www.w3.org/Graphics/SVG/1.1/DTD/svg11.dtd">
<svg version="1.1" id="Layer_1" xmlns="http://www.w3.org/2000/svg" xmlns:xlink="http://www.w3.org/1999/xlink" x="0px" y="0px"
	 width="30px" height="30px" viewBox="291 381 30 30" enable-background="new 291 381 30 30" xml:space="preserve">
<g>
	<path fill="#205B97" d="M306,402.438l9.253,2.203V387.31L306,389.513V402.438z"/>
	<path fill="#5193CE" d="M315.253,387.31l1.763,0.881v15.569l-1.763,0.882V387.31z M306,402.438l-9.253,2.203V387.31l9.253,2.203
		V402.438z"/>
	<path fill="#205B97" d="M296.747,387.31l-1.763,0.881v15.569l1.763,0.882V387.31z"/>
	<path fill="#5193CE" d="M308.351,408.166l3.525-1.762v-20.808l-3.525-1.763l-1.078,11.555L308.351,408.166z"/>
	<path fill="#205B97" d="M303.649,408.166l-3.525-1.762v-20.808l3.525-1.763l1.078,11.555L303.649,408.166z"/>
	<path fill="#2E73B7" d="M303.649,383.833h4.748v24.284h-4.748V383.833z"/>
</g>
</svg>
