<?xml version="1.0" encoding="utf-8"?>
<!--
  - This file is part of StyleBI.
  -
  - Copyright (c) 2024, InetSoft Technology Corp, All Rights Reserved.
  -
  - The software and information contained herein are copyrighted and
  - proprietary to InetSoft Technology Corp. This software is furnished
  - pursuant to a written license agreement and may be used, copied,
  - transmitted, and stored only in accordance with the terms of such
  - license and with the inclusion of the above copyright notice. Please
  - refer to the file "COPYRIGHT" for further copyright and licensing
  - information. This software and information or any other copies
  - thereof may not be provided or otherwise made available to any other
  - person.
  -->

<!-- Generator: Adobe Illustrator 15.1.0, SVG Export Plug-In . SVG Version: 6.00 Build 0)  -->
<!DOCTYPE svg PUBLIC "-//W3C//DTD SVG 1.1//EN" "http://www.w3.org/Graphics/SVG/1.1/DTD/svg11.dtd">
<svg version="1.1" id="Layer_1" xmlns="http://www.w3.org/2000/svg" xmlns:xlink="http://www.w3.org/1999/xlink" x="0px" y="0px"
	 width="30px" height="30px" viewBox="0 0 30 30" enable-background="new 0 0 30 30" xml:space="preserve">
<g>
	<polyline fill="#1A476F" points="3.664,22.128 6.318,25.238 6.557,24.955 6.557,5.059 6.318,4.758 3.664,7.868 3.664,22.128 	"/>
	<polyline fill="#1F5B98" points="6.319,25.238 11.391,27.773 11.602,27.436 11.605,2.491 11.394,2.225 6.319,4.752 6.319,25.238 	
		"/>
	<polyline fill="#2D72B8" points="26.336,7.868 23.682,4.758 23.384,4.852 23.441,24.984 23.682,25.238 26.336,22.129 26.336,7.868 
			"/>
	<polyline fill="#5294CF" points="18.607,27.773 23.682,25.238 23.682,4.752 18.605,2.225 18.365,2.55 18.368,27.405 18.607,27.773 
			"/>
	<rect x="11.394" y="2.225" fill="#2D72B8" width="7.211" height="25.548"/>
</g>
<g id="surface1">
	<path fill="#FFFFFF" d="M22.721,16.76c-0.068-0.305-0.343-0.659-0.899-0.659c-0.115,0-0.24,0.015-0.38,0.044
		c-0.261,0.054-0.481,0.079-0.678,0.089c1.519-2.586,2.503-6.176,1.527-7.423c-1.287-1.642-3.016-1.888-3.932-1.888h-0.088
		c-0.341,0.007-0.694,0.048-1.052,0.125l-1.316,0.283c-0.183-0.023-0.365-0.038-0.55-0.041h-0.074c-0.585,0-1.119,0.124-1.594,0.356
		l-0.46-0.18c-0.631-0.249-1.581-0.546-2.522-0.546c-0.053,0-0.104,0.001-0.158,0.004C9.62,6.957,8.826,7.309,8.247,7.938
		c-0.724,0.788-1.051,1.94-0.977,3.427c0.002,0.077,0.902,7.674,3.45,7.674h0.033c0.332-0.01,0.647-0.142,0.941-0.396
		c0.225,0.169,0.517,0.27,0.788,0.31c0.179,0.042,0.502,0.102,0.887,0.102c0.472,0,0.898-0.096,1.264-0.271
		c0,0.324-0.001,0.731-0.006,1.256v0.027l0.002,0.026c0.036,0.521,0.127,0.99,0.261,1.359c0.386,1.049,1.054,1.628,1.876,1.628
		c0.035,0,0.07,0,0.104-0.004c0.679-0.04,1.368-0.422,1.838-1.018c0.513-0.645,0.629-1.324,0.676-1.845l0.003-0.033v-1.529
		l0.038,0.004l0.159,0.015l0.018,0.001h0.015c0.046,0.004,0.093,0.005,0.141,0.005c0.554,0,1.233-0.146,1.694-0.358
		C21.891,18.113,22.896,17.553,22.721,16.76L22.721,16.76z"/>
	<path fill="#0277BD" d="M18.651,18.306c0-0.075,0.005-0.138,0.009-0.207l-0.009-0.159l0.012-0.009
		c0.056-0.981,0.325-1.361,0.615-1.575c-0.039-0.057-0.087-0.116-0.13-0.174c-0.121-0.161-0.276-0.359-0.438-0.615l-0.03-0.059
		c-0.022-0.059-0.084-0.165-0.16-0.3c-0.432-0.787-1.338-2.421-0.719-3.455c0.271-0.451,0.777-0.712,1.513-0.777
		c-0.301-0.852-1.424-2.91-3.974-2.951h0c-2.219-0.037-2.948,1.979-3.185,3.184c0.326-0.137,0.701-0.222,1.042-0.222h0.017
		c0.84,0.005,1.418,0.455,1.585,1.232c0.124,0.568,0.183,1.067,0.181,1.523c-0.003,0.998-0.207,1.523-0.382,1.987l-0.057,0.149
		c-0.046,0.124-0.093,0.237-0.14,0.345c-0.046,0.11-0.087,0.205-0.116,0.295c0.178,0.041,0.318,0.096,0.413,0.139l0.055,0.025
		c0.018,0.007,0.035,0.015,0.05,0.024c0.312,0.188,0.506,0.479,0.547,0.819c0.021,0.184,0.019,1.431,0.01,2.517
		c0.033,0.473,0.113,0.868,0.218,1.155c0.149,0.408,0.523,1.189,1.246,1.146c0.504-0.031,0.987-0.339,1.308-0.741
		c0.345-0.433,0.471-0.914,0.519-1.454L18.651,18.306L18.651,18.306L18.651,18.306z"/>
	<path fill="#0277BD" d="M12.083,16.439c-0.592-0.618-0.88-1.45-0.771-2.225c0.105-0.747,0.044-1.478,0.013-1.871
		c-0.008-0.095-0.014-0.189-0.017-0.283c0-0.002,0.002-0.005,0.002-0.009c0-0.001-0.002-0.001-0.002-0.002
		c0.044-1.11,0.472-2.861,1.65-3.9c-0.571-0.227-1.506-0.524-2.384-0.493c-1.373,0.051-2.703,1-2.569,3.672
		c0.051,1.002,1.183,7.015,2.732,6.977c0.221-0.006,0.451-0.147,0.687-0.432c0.323-0.387,0.655-0.768,0.995-1.14
		C12.297,16.645,12.187,16.546,12.083,16.439L12.083,16.439z"/>
	<path fill="#0277BD" d="M20.129,11.23c0.006,0.058,0,0.104-0.009,0.15c0.011,0.337-0.024,0.666-0.062,0.982
		c-0.031,0.239-0.053,0.478-0.063,0.719c-0.007,0.236,0.026,0.469,0.063,0.717c0.08,0.58,0.168,1.233-0.281,1.997
		c0.08,0.108,0.154,0.21,0.212,0.308c1.693-2.745,2.375-6.009,1.724-6.84c-0.985-1.257-2.349-1.623-3.429-1.605
		c-0.339,0.006-0.646,0.051-0.908,0.107C19.24,8.667,20.069,10.604,20.129,11.23z"/>
	<path fill="#0277BD" d="M21.588,16.861c-0.977,0.204-1.448,0.095-1.678-0.046c-0.036,0.026-0.072,0.05-0.106,0.07
		c-0.137,0.083-0.353,0.214-0.405,1.021c0.029,0.007,0.057,0.009,0.089,0.017l0.162,0.016c0.484,0.021,1.119-0.114,1.491-0.287
		C21.941,17.279,22.379,16.701,21.588,16.861L21.588,16.861z"/>
	<path fill="#0277BD" d="M14.621,17.614c-0.014-0.109-0.074-0.199-0.181-0.268l-0.04-0.019c-0.131-0.059-0.282-0.125-0.522-0.125h0
		c-0.048,0.005-0.094,0.008-0.14,0.008c-0.02,0-0.039-0.003-0.057-0.003c-0.174,0.132-0.421,0.236-1.034,0.362
		c-1.094,0.278-0.448,0.608-0.029,0.657c0.406,0.102,1.371,0.225,2.012-0.296C14.629,17.826,14.626,17.72,14.621,17.614
		L14.621,17.614z"/>
	<path fill="#0277BD" d="M14.127,12.614c-0.106,0.112-0.275,0.207-0.463,0.177c-0.305-0.048-0.537-0.416-0.52-0.553
		c0.017-0.137,0.276-0.208,0.578-0.159c0.107,0.017,0.203,0.047,0.283,0.083c-0.118-0.252-0.331-0.399-0.655-0.433
		c-0.575-0.064-1.184,0.235-1.307,0.401c0.001,0.042,0.007,0.094,0.012,0.154c0.034,0.421,0.097,1.206-0.019,2.034
		c-0.076,0.544,0.145,1.164,0.576,1.614c0.277,0.289,0.601,0.474,0.923,0.528c0.041-0.177,0.114-0.349,0.188-0.524
		c0.041-0.097,0.086-0.2,0.128-0.313l0.058-0.156c0.162-0.426,0.33-0.864,0.334-1.728C14.247,13.407,14.205,13.029,14.127,12.614
		L14.127,12.614z"/>
	<path fill="#0277BD" d="M19.329,13.902c-0.038-0.27-0.077-0.546-0.068-0.847c0.01-0.273,0.041-0.53,0.068-0.777
		c0.021-0.196,0.041-0.385,0.052-0.569c-0.474,0.039-0.787,0.176-0.937,0.407c0.066-0.023,0.137-0.041,0.207-0.047
		c0.328-0.043,0.567,0.052,0.594,0.234c0.021,0.133-0.092,0.258-0.141,0.307c-0.104,0.099-0.23,0.163-0.36,0.18
		c-0.147,0.016-0.296-0.021-0.42-0.107c0.043,0.726,0.576,1.695,0.838,2.169c0.059,0.102,0.101,0.184,0.136,0.252
		C19.442,14.693,19.39,14.319,19.329,13.902L19.329,13.902z"/>
</g>
</svg>
