<?xml version="1.0" encoding="utf-8"?>
<!--
  - This file is part of StyleBI.
  -
  - Copyright (c) 2024, InetSoft Technology Corp, All Rights Reserved.
  -
  - The software and information contained herein are copyrighted and
  - proprietary to InetSoft Technology Corp. This software is furnished
  - pursuant to a written license agreement and may be used, copied,
  - transmitted, and stored only in accordance with the terms of such
  - license and with the inclusion of the above copyright notice. Please
  - refer to the file "COPYRIGHT" for further copyright and licensing
  - information. This software and information or any other copies
  - thereof may not be provided or otherwise made available to any other
  - person.
  -->

<!-- Generator: Adobe Illustrator 15.1.0, SVG Export Plug-In . SVG Version: 6.00 Build 0)  -->
<!DOCTYPE svg PUBLIC "-//W3C//DTD SVG 1.1//EN" "http://www.w3.org/Graphics/SVG/1.1/DTD/svg11.dtd">
<svg version="1.1" id="Layer_1" xmlns="http://www.w3.org/2000/svg" xmlns:xlink="http://www.w3.org/1999/xlink" x="0px" y="0px"
	 width="30px" height="30px" viewBox="0 0 30 30" enable-background="new 0 0 30 30" xml:space="preserve">
<g>
	<polyline fill="#1A476F" points="3.664,22.128 6.318,25.238 6.557,24.955 6.557,5.059 6.318,4.758 3.664,7.868 3.664,22.128 	"/>
	<polyline fill="#1F5B98" points="6.319,25.238 11.391,27.773 11.602,27.436 11.605,2.491 11.394,2.225 6.319,4.752 6.319,25.238 	
		"/>
	<polyline fill="#2D72B8" points="26.336,7.868 23.682,4.758 23.384,4.852 23.441,24.984 23.682,25.238 26.336,22.129 26.336,7.868 
			"/>
	<polyline fill="#5294CF" points="18.607,27.773 23.682,25.238 23.682,4.752 18.605,2.225 18.365,2.55 18.368,27.405 18.607,27.773 
			"/>
	<rect x="11.394" y="2.225" fill="#2D72B8" width="7.211" height="25.548"/>
</g>
<path fill="#FFFFFF" stroke="#FFFFFF" stroke-miterlimit="10" d="M21.094,19.391c-0.873-0.021-1.553,0.065-2.119,0.3
	c-0.162,0.065-0.424,0.065-0.443,0.269c0.086,0.086,0.098,0.225,0.174,0.343c0.131,0.214,0.357,0.503,0.566,0.652
	c0.229,0.173,0.459,0.344,0.701,0.493c0.422,0.258,0.904,0.405,1.318,0.662c0.24,0.149,0.479,0.345,0.719,0.505
	c0.119,0.087,0.195,0.224,0.352,0.277V22.86c-0.078-0.096-0.1-0.236-0.174-0.345l-0.33-0.308c-0.316-0.419-0.711-0.781-1.135-1.081
	c-0.35-0.237-1.113-0.56-1.258-0.952l-0.021-0.023c0.242-0.021,0.527-0.106,0.758-0.172c0.369-0.095,0.707-0.074,1.09-0.17
	c0.174-0.043,0.35-0.094,0.523-0.15v-0.096c-0.197-0.194-0.338-0.449-0.543-0.632c-0.557-0.472-1.168-0.929-1.801-1.317
	c-0.34-0.213-0.775-0.351-1.139-0.533c-0.129-0.064-0.346-0.097-0.424-0.206c-0.195-0.236-0.305-0.544-0.447-0.825
	c-0.314-0.586-0.623-1.239-0.893-1.862c-0.199-0.418-0.318-0.836-0.559-1.222c-1.127-1.819-2.348-2.922-4.222-4.004
	c-0.403-0.226-0.883-0.321-1.396-0.439L9.574,8.481C9.404,8.405,9.227,8.2,9.077,8.103C8.45,7.717,6.847,6.883,6.389,7.986
	C6.092,8.683,6.825,9.367,7.076,9.719c0.186,0.247,0.425,0.524,0.556,0.802c0.077,0.182,0.098,0.377,0.174,0.57
	c0.175,0.472,0.339,0.996,0.566,1.436c0.12,0.225,0.252,0.46,0.404,0.662c0.088,0.119,0.24,0.17,0.272,0.364
	c-0.151,0.212-0.163,0.535-0.252,0.803c-0.393,1.209-0.24,2.709,0.315,3.597c0.175,0.268,0.59,0.856,1.145,0.632
	c0.492-0.192,0.384-0.803,0.524-1.339c0.033-0.128,0.014-0.214,0.078-0.299v0.023c0.153,0.296,0.304,0.587,0.446,0.889
	c0.339,0.524,0.926,1.07,1.418,1.435c0.261,0.194,0.468,0.524,0.796,0.644v-0.029h-0.023c-0.067-0.097-0.162-0.14-0.251-0.214
	c-0.197-0.192-0.413-0.429-0.568-0.642c-0.456-0.6-0.86-1.264-1.221-1.949c-0.176-0.334-0.328-0.696-0.469-1.028
	c-0.068-0.13-0.068-0.321-0.176-0.388c-0.164,0.237-0.403,0.438-0.523,0.729c-0.209,0.461-0.229,1.029-0.307,1.618l-0.043,0.021
	c-0.348-0.088-0.467-0.439-0.599-0.739C9.01,16.554,8.955,15.33,9.24,14.455c0.075-0.223,0.404-0.932,0.271-1.146
	c-0.065-0.205-0.284-0.321-0.403-0.482c-0.14-0.204-0.294-0.461-0.393-0.686c-0.261-0.599-0.394-1.262-0.674-1.862
	C7.91,10,7.682,9.71,7.497,9.454c-0.208-0.288-0.437-0.49-0.599-0.833c-0.055-0.116-0.131-0.31-0.044-0.438
	C6.876,8.098,6.92,8.066,7.008,8.043c0.144-0.12,0.546,0.03,0.688,0.092C8.101,8.297,8.438,8.447,8.776,8.67
	C8.93,8.779,9.093,8.983,9.289,9.037h0.229c0.349,0.073,0.742,0.02,1.069,0.115c0.58,0.183,1.103,0.45,1.571,0.741
	c1.428,0.889,2.607,2.152,3.401,3.662c0.135,0.248,0.189,0.473,0.307,0.728c0.229,0.526,0.514,1.06,0.74,1.577
	c0.23,0.504,0.447,1.017,0.777,1.436c0.162,0.223,0.818,0.343,1.111,0.46c0.215,0.096,0.557,0.182,0.754,0.299
	c0.369,0.225,0.738,0.479,1.088,0.728C20.516,18.908,21.061,19.175,21.094,19.391"/>
<path fill="#FFFFFF" d="M10.222,10.136c-0.289-0.004-0.573,0.031-0.847,0.102v0.04h0.042c0.164,0.328,0.458,0.552,0.664,0.836
	c0.167,0.326,0.311,0.649,0.476,0.976l0.042-0.042c0.293-0.205,0.439-0.529,0.439-1.018c-0.129-0.143-0.146-0.285-0.25-0.425
	C10.661,10.401,10.393,10.299,10.222,10.136"/>
</svg>
