<?xml version="1.0" encoding="utf-8"?>
<!--
  - This file is part of StyleBI.
  - Copyright (C) 2024  InetSoft Technology
  -
  - This program is free software: you can redistribute it and/or modify
  - it under the terms of the GNU Affero General Public License as published by
  - the Free Software Foundation, either version 3 of the License, or
  - (at your option) any later version.
  -
  - This program is distributed in the hope that it will be useful,
  - but WITHOUT ANY WARRANTY; without even the implied warranty of
  - MERCHANTABILITY or FITNESS FOR A PARTICULAR PURPOSE.  See the
  - GNU Affero General Public License for more details.
  -
  - You should have received a copy of the GNU Affero General Public License
  - along with this program.  If not, see <https://www.gnu.org/licenses/>.
  -->

<!-- Generator: Adobe Illustrator 15.1.0, SVG Export Plug-In . SVG Version: 6.00 Build 0)  -->
<!DOCTYPE svg PUBLIC "-//W3C//DTD SVG 1.1//EN" "http://www.w3.org/Graphics/SVG/1.1/DTD/svg11.dtd">
<svg version="1.1" id="Layer_1" xmlns="http://www.w3.org/2000/svg" xmlns:xlink="http://www.w3.org/1999/xlink" x="0px" y="0px"
	 width="30px" height="30px" viewBox="291 381 30 30" enable-background="new 291 381 30 30" xml:space="preserve">
<g>
	<path fill="#205B97" d="M306,402.438l9.253,2.203V387.31L306,389.513V402.438z"/>
	<path fill="#5193CE" d="M315.253,387.31l1.763,0.881v15.569l-1.763,0.882V387.31z M306,402.438l-9.253,2.203V387.31l9.253,2.203
		V402.438z"/>
	<path fill="#205B97" d="M296.747,387.31l-1.763,0.881v15.569l1.763,0.882V387.31z"/>
	<path fill="#5193CE" d="M308.351,408.166l3.525-1.762v-20.808l-3.525-1.763l-1.078,11.555L308.351,408.166z"/>
	<path fill="#205B97" d="M303.649,408.166l-3.525-1.762v-20.808l3.525-1.763l1.078,11.555L303.649,408.166z"/>
	<path fill="#2E73B7" d="M303.649,383.833h4.748v24.284h-4.748V383.833z"/>
</g>
</svg>
