<?xml version="1.0" encoding="utf-8"?>
<!--
  - This file is part of StyleBI.
  - Copyright (C) 2024  InetSoft Technology
  -
  - This program is free software: you can redistribute it and/or modify
  - it under the terms of the GNU Affero General Public License as published by
  - the Free Software Foundation, either version 3 of the License, or
  - (at your option) any later version.
  -
  - This program is distributed in the hope that it will be useful,
  - but WITHOUT ANY WARRANTY; without even the implied warranty of
  - MERCHANTABILITY or FITNESS FOR A PARTICULAR PURPOSE.  See the
  - GNU Affero General Public License for more details.
  -
  - You should have received a copy of the GNU Affero General Public License
  - along with this program.  If not, see <https://www.gnu.org/licenses/>.
  -->

<!-- Generator: Adobe Illustrator 15.1.0, SVG Export Plug-In . SVG Version: 6.00 Build 0)  -->
<!DOCTYPE svg PUBLIC "-//W3C//DTD SVG 1.1//EN" "http://www.w3.org/Graphics/SVG/1.1/DTD/svg11.dtd">
<svg version="1.1" id="Layer_1" xmlns="http://www.w3.org/2000/svg" xmlns:xlink="http://www.w3.org/1999/xlink" x="0px" y="0px"
	 width="30px" height="30px" viewBox="0 0 30 30" enable-background="new 0 0 30 30" xml:space="preserve">
<g>
	<polyline fill="#1A476F" points="3.664,22.128 6.318,25.238 6.557,24.955 6.557,5.059 6.318,4.758 3.664,7.868 3.664,22.128 	"/>
	<polyline fill="#1F5B98" points="6.319,25.238 11.391,27.774 11.602,27.436 11.605,2.491 11.394,2.225 6.319,4.752 6.319,25.238 	
		"/>
	<polyline fill="#2D72B8" points="26.336,7.868 23.682,4.758 23.384,4.852 23.441,24.985 23.682,25.238 26.336,22.129 26.336,7.868 
			"/>
	<polyline fill="#5294CF" points="18.607,27.774 23.682,25.238 23.682,4.752 18.605,2.225 18.365,2.55 18.368,27.405 18.607,27.774 
			"/>
	<rect x="11.394" y="2.225" fill="#2D72B8" width="7.211" height="25.55"/>
</g>
<path fill="#FFFFFF" d="M18.383,14.341l-3.976,1.298l-3.458,1.526L9.981,17.42c-0.247,0.234-0.504,0.474-0.784,0.714
	c-0.308,0.265-0.593,0.505-0.811,0.681c-0.244,0.191-0.604,0.552-0.788,0.78c-0.273,0.342-0.489,0.706-0.583,0.985
	c-0.166,0.504-0.084,1.016,0.234,1.486c0.409,0.601,1.223,1.215,2.172,1.632c0.483,0.214,1.298,0.486,1.911,0.641
	c1.019,0.258,2.989,0.538,4.074,0.58c0.22,0.009,0.513,0.009,0.526,0c0.024-0.016,0.192-0.338,0.388-0.736
	c0.667-1.36,1.149-2.639,1.411-3.728c0.154-0.661,0.278-1.543,0.359-2.584c0.021-0.291,0.029-1.27,0.013-1.6
	c-0.027-0.541-0.075-0.979-0.15-1.409c-0.014-0.063-0.016-0.12-0.01-0.123c0.013-0.01,0.049-0.021,0.538-0.164L18.383,14.341
	L18.383,14.341L18.383,14.341L18.383,14.341z M17.475,14.874c0.036,0,0.132,0.921,0.156,1.506c0.007,0.122,0.004,0.203-0.003,0.203
	c-0.023,0-0.508-0.284-0.853-0.502c-0.301-0.188-0.871-0.567-0.961-0.639c-0.031-0.022-0.029-0.023,0.219-0.109
	C16.449,15.192,17.441,14.874,17.475,14.874z M15.45,15.541c0.027,0,0.097,0.039,0.261,0.142c0.619,0.388,1.461,0.856,1.82,1.013
	c0.112,0.049,0.123,0.03-0.131,0.204c-0.547,0.372-1.229,0.739-2.065,1.108c-0.147,0.066-0.27,0.117-0.272,0.117
	c-0.006,0,0.012-0.075,0.036-0.165c0.201-0.749,0.316-1.505,0.322-2.113c0.001-0.3,0.001-0.3,0.029-0.31
	C15.444,15.541,15.447,15.541,15.45,15.541L15.45,15.541z M15.032,15.7c0.018,0.019,0.006,0.69-0.018,0.873
	c-0.054,0.44-0.138,0.849-0.277,1.308c-0.034,0.112-0.063,0.205-0.069,0.211c-0.012,0.016-0.423-0.388-0.559-0.543
	c-0.234-0.272-0.417-0.541-0.553-0.807c-0.069-0.135-0.177-0.398-0.167-0.408C13.437,16.301,15.02,15.688,15.032,15.7L15.032,15.7z
	 M13.066,16.472c0.003,0,0.006,0,0.01,0.003c0.004,0.007,0.026,0.055,0.043,0.108c0.097,0.263,0.313,0.646,0.5,0.894
	c0.203,0.269,0.47,0.559,0.694,0.748c0.072,0.06,0.138,0.116,0.147,0.125c0.018,0.019,0.024,0.017-0.466,0.202
	c-0.567,0.216-1.186,0.433-1.896,0.661c-0.169,0.055-0.338,0.109-0.509,0.165c-0.026,0.008-0.017-0.007,0.061-0.13
	c0.351-0.55,0.886-1.628,1.186-2.392c0.052-0.131,0.103-0.264,0.111-0.293c0.013-0.043,0.028-0.058,0.067-0.079
	C13.037,16.479,13.058,16.472,13.066,16.472L13.066,16.472z M12.466,16.722c0.009,0.006-0.145,0.327-0.295,0.622
	c-0.292,0.567-0.609,1.126-1.036,1.807c-0.072,0.116-0.142,0.224-0.151,0.235c-0.016,0.021-0.021,0.016-0.069-0.077
	c-0.103-0.201-0.186-0.46-0.231-0.697c-0.046-0.234-0.036-0.644,0.015-0.896c0.038-0.187,0.035-0.183,0.126-0.229
	C11.211,17.292,12.453,16.709,12.466,16.722L12.466,16.722z M17.648,16.932v0.126c0,0.671-0.07,1.591-0.177,2.26
	c-0.017,0.116-0.032,0.213-0.036,0.216c0,0-0.087-0.024-0.188-0.054c-0.451-0.142-0.94-0.349-1.384-0.592
	c-0.291-0.159-0.715-0.421-0.703-0.432c0.003-0.005,0.13-0.07,0.277-0.149c0.59-0.306,1.152-0.637,1.644-0.963
	c0.184-0.123,0.46-0.322,0.52-0.377L17.648,16.932L17.648,16.932z M10.198,17.82c0.012,0,0.008,0.025-0.009,0.133
	c-0.013,0.078-0.027,0.222-0.033,0.321c-0.025,0.439,0.047,0.763,0.264,1.208c0.059,0.122,0.108,0.226,0.105,0.229
	c-0.021,0.018-2.01,0.602-2.635,0.771c-0.186,0.051-0.349,0.098-0.36,0.101c-0.021,0.006-0.025,0.001-0.015-0.05
	c0.069-0.441,0.405-1.018,0.874-1.505c0.313-0.324,0.563-0.515,0.989-0.757c0.306-0.176,0.778-0.437,0.815-0.448
	C10.19,17.82,10.194,17.82,10.198,17.82L10.198,17.82z M14.884,18.659c0.003-0.003,0.076,0.037,0.163,0.088
	c0.643,0.372,1.537,0.717,2.302,0.895l0.068,0.015l-0.095,0.055c-0.4,0.222-1.713,0.771-3.057,1.271
	c-0.195,0.07-0.388,0.145-0.423,0.159c-0.036,0.015-0.069,0.023-0.069,0.021c0-0.004,0.054-0.109,0.124-0.238
	c0.375-0.703,0.754-1.559,0.947-2.154C14.866,18.714,14.883,18.662,14.884,18.659L14.884,18.659z M14.407,18.815
	c0.002,0.003-0.021,0.067-0.051,0.14c-0.262,0.633-0.603,1.324-1.042,2.1c-0.112,0.198-0.205,0.357-0.208,0.357
	c-0.003,0-0.094-0.054-0.201-0.119c-0.637-0.391-1.202-0.873-1.571-1.338l-0.055-0.066l0.273-0.076
	c0.98-0.268,1.813-0.554,2.637-0.91C14.308,18.854,14.404,18.815,14.407,18.815z M17.377,19.854
	C17.377,19.854,17.38,19.854,17.377,19.854c0.003,0.068-0.151,0.687-0.277,1.134c-0.105,0.376-0.197,0.671-0.361,1.19
	c-0.071,0.228-0.135,0.418-0.137,0.418c-0.004,0-0.021-0.004-0.041-0.01c-0.891-0.162-1.691-0.389-2.442-0.688
	c-0.211-0.083-0.511-0.218-0.53-0.234c-0.006-0.005,0.175-0.09,0.403-0.188c1.366-0.599,2.785-1.277,3.271-1.569
	C17.322,19.87,17.366,19.854,17.377,19.854L17.377,19.854z M10.522,20.088c0.006,0.005-0.375,0.554-0.911,1.304
	c-0.186,0.262-0.401,0.567-0.483,0.682c-0.081,0.114-0.205,0.294-0.273,0.401l-0.126,0.196l-0.135-0.114
	c-0.159-0.132-0.437-0.416-0.559-0.57c-0.258-0.322-0.433-0.661-0.501-0.971c-0.034-0.146-0.034-0.217-0.003-0.225
	c0.044-0.015,0.847-0.202,1.598-0.377c0.417-0.097,0.901-0.21,1.076-0.252C10.378,20.12,10.519,20.088,10.522,20.088L10.522,20.088z
	 M10.907,20.233l0.096,0.108c0.433,0.484,0.875,0.843,1.41,1.153c0.095,0.055,0.168,0.103,0.162,0.106
	c-0.021,0.016-1.857,0.666-2.707,0.962c-0.478,0.168-0.871,0.302-0.875,0.302c-0.004,0-0.03-0.017-0.061-0.039l-0.054-0.039
	l0.087-0.125c0.283-0.409,0.637-0.857,1.41-1.789L10.907,20.233L10.907,20.233z M13.305,21.95c0.003-0.003,0.134,0.046,0.297,0.104
	c0.391,0.148,0.7,0.241,1.116,0.346c0.511,0.13,1.25,0.256,1.685,0.293c0.066,0.006,0.102,0.012,0.09,0.021
	c-0.021,0.012-0.463,0.159-0.787,0.261c-0.516,0.161-2.094,0.629-3.38,0.997c-0.237,0.069-0.442,0.127-0.454,0.129
	c-0.031,0.007-0.13-0.021-0.13-0.032c0-0.006,0.073-0.099,0.16-0.202c0.432-0.517,0.861-1.093,1.219-1.641
	C13.22,22.076,13.305,21.953,13.305,21.95L13.305,21.95z M12.776,21.964c0.001,0.004-0.211,0.347-0.583,0.937
	c-0.159,0.248-0.337,0.53-0.4,0.629c-0.06,0.098-0.151,0.247-0.201,0.332l-0.088,0.152l-0.045-0.012
	c-0.108-0.031-0.869-0.298-1.07-0.38c-0.25-0.099-0.508-0.22-0.7-0.321c-0.239-0.129-0.539-0.321-0.517-0.326
	c0.007-0.004,0.418-0.116,0.915-0.25c1.315-0.358,2.046-0.565,2.523-0.717C12.698,21.982,12.772,21.963,12.776,21.964L12.776,21.964
	z M16.518,22.842L16.518,22.842c0.014,0.031-0.473,1.383-0.65,1.809c-0.039,0.098-0.053,0.121-0.075,0.117
	c-0.052-0.002-0.758-0.102-1.188-0.165c-0.749-0.113-2.004-0.333-2.319-0.405l-0.072-0.015l0.448-0.103
	c0.962-0.217,1.424-0.333,1.893-0.478c0.592-0.183,1.178-0.407,1.77-0.684C16.417,22.878,16.495,22.846,16.518,22.842L16.518,22.842
	z"/>
<path fill="#FFFFFF" d="M14.283,5.075c-0.065-0.01-1.133,0.375-1.819,0.655c-0.929,0.378-1.651,0.739-2.095,1.051
	c-0.166,0.118-0.373,0.325-0.405,0.406C9.95,7.217,9.945,7.253,9.945,7.289l0.403,0.382l0.958,0.307l2.281,0.41l2.608,0.447
	l0.026-0.226c-0.009,0-0.016-0.003-0.024-0.003l-0.343-0.053L15.785,8.43c-0.354-0.625-0.745-1.4-0.973-1.923
	c-0.177-0.406-0.345-0.875-0.438-1.21C14.323,5.089,14.317,5.078,14.283,5.075L14.283,5.075L14.283,5.075L14.283,5.075z
	 M14.236,5.228h0.002c0.002,0.003,0.015,0.087,0.027,0.186c0.05,0.42,0.145,0.827,0.292,1.266c0.111,0.33,0.111,0.313-0.019,0.273
	c-0.306-0.084-1.68-0.322-2.674-0.46c-0.159-0.021-0.294-0.042-0.294-0.045c-0.012-0.012,0.719-0.394,1.041-0.544
	C13.022,5.716,14.151,5.244,14.236,5.228z M11.339,6.575l0.117,0.039c0.637,0.216,2.238,0.522,3.122,0.594
	c0.098,0.009,0.183,0.019,0.186,0.019c0.003,0.002-0.082,0.047-0.189,0.099c-0.426,0.213-0.895,0.475-1.22,0.676
	c-0.095,0.06-0.183,0.108-0.194,0.108s-0.076-0.012-0.142-0.02l-0.12-0.019l-0.301-0.293c-0.529-0.515-0.943-0.911-1.102-1.061
	L11.339,6.575z M11.219,6.668l0.423,0.529c0.231,0.292,0.466,0.577,0.517,0.64c0.05,0.063,0.092,0.115,0.091,0.116
	c-0.013,0.01-0.613-0.108-0.933-0.18c-0.328-0.075-0.462-0.111-0.664-0.174l-0.166-0.054V7.503c0.003-0.201,0.258-0.501,0.691-0.808
	L11.219,6.668z M14.819,7.389c0.012,0,0.026,0.026,0.063,0.108c0.102,0.225,0.421,0.833,0.498,0.95
	c0.024,0.039,0.067,0.042-0.356-0.026c-1.02-0.166-1.347-0.22-1.347-0.225c0-0.003,0.03-0.024,0.069-0.045
	c0.316-0.175,0.634-0.397,0.917-0.634c0.068-0.057,0.132-0.111,0.144-0.12C14.811,7.389,14.815,7.386,14.819,7.389L14.819,7.389z"/>
<path fill="#FFFFFF" d="M9.984,7.146c0,0-0.067,0.106-0.003,0.262c0.039,0.096,0.153,0.213,0.282,0.333c0,0,1.337,1.305,1.5,1.491
	c0.738,0.853,1.06,1.694,1.09,2.854c0.019,0.745-0.123,1.4-0.474,2.159c-0.625,1.364-1.944,2.87-3.979,4.541l0.297-0.099
	c0.192-0.146,0.453-0.299,1.066-0.635c1.415-0.776,3.008-1.488,4.962-2.22c2.813-1.058,7.436-2.296,10.068-2.699l0.273-0.042
	l-0.043-0.066c-0.239-0.373-0.405-0.604-0.604-0.851c-0.576-0.715-1.276-1.293-2.135-1.775c-1.176-0.658-2.699-1.171-4.629-1.553
	c-0.363-0.072-1.163-0.211-1.812-0.31c-1.376-0.213-2.266-0.361-3.245-0.53c-0.352-0.06-0.878-0.15-1.227-0.224
	c-0.18-0.039-0.525-0.12-0.795-0.214C10.362,7.484,10.05,7.401,9.984,7.146L9.984,7.146z M10.759,7.897
	c0.003-0.003,0.05,0.014,0.114,0.035c0.114,0.039,0.262,0.083,0.436,0.133c0.132,0.036,0.264,0.071,0.397,0.105
	c0.181,0.045,0.331,0.086,0.333,0.086c0.021,0.022,0.324,0.992,0.427,1.364c0.039,0.143,0.069,0.263,0.066,0.263
	c-0.002,0.003-0.036-0.048-0.075-0.117c-0.352-0.619-0.908-1.247-1.551-1.751C10.822,7.953,10.759,7.9,10.759,7.897z M12.237,8.305
	c0.016,0,0.082,0.009,0.163,0.028c0.511,0.114,1.427,0.287,2.014,0.387c0.098,0.015,0.176,0.033,0.176,0.039
	c0,0.005-0.036,0.027-0.081,0.05c-0.099,0.051-0.499,0.288-0.63,0.378c-0.334,0.224-0.634,0.464-0.851,0.68
	c-0.087,0.087-0.163,0.159-0.163,0.159s-0.018-0.051-0.033-0.114C12.726,9.495,12.5,8.876,12.295,8.44
	c-0.033-0.07-0.061-0.132-0.061-0.138C12.234,8.309,12.234,8.305,12.237,8.305L12.237,8.305z M14.84,8.801
	c0.018,0.006,0.047,0.108,0.108,0.333c0.111,0.435,0.163,0.922,0.145,1.376c-0.007,0.126-0.012,0.244-0.018,0.258l-0.008,0.031
	l-0.157-0.051c-0.322-0.102-0.844-0.255-1.292-0.382c-0.255-0.068-0.462-0.133-0.462-0.138c0-0.017,0.373-0.391,0.531-0.531
	C13.989,9.429,14.813,8.792,14.84,8.801L14.84,8.801z M15.047,8.831c0.009-0.009,1.244,0.204,1.807,0.313
	c0.416,0.082,1.023,0.208,1.061,0.223c0.017,0.006-0.046,0.042-0.248,0.132c-0.793,0.358-1.382,0.68-1.968,1.069
	c-0.153,0.102-0.283,0.187-0.284,0.187c-0.003,0-0.007-0.088-0.007-0.192c0-0.57-0.114-1.148-0.324-1.634
	C15.063,8.88,15.045,8.834,15.047,8.831z M18.24,9.462c0.01,0.009-0.029,0.251-0.065,0.397c-0.107,0.448-0.399,1.111-0.756,1.737
	c-0.064,0.11-0.121,0.201-0.127,0.204c-0.006,0.003-0.087-0.042-0.181-0.096c-0.35-0.204-0.745-0.396-1.178-0.577
	c-0.119-0.052-0.227-0.094-0.229-0.099c-0.021-0.019,0.946-0.659,1.457-0.966C17.568,9.817,18.229,9.45,18.24,9.462L18.24,9.462z
	 M18.469,9.499c0.027,0,0.575,0.15,0.861,0.234c0.704,0.211,1.516,0.508,2.045,0.749l0.22,0.098l-0.154,0.036
	c-1.29,0.298-2.396,0.641-3.464,1.072c-0.088,0.037-0.164,0.067-0.17,0.067c-0.007,0,0.023-0.069,0.063-0.153
	c0.321-0.683,0.528-1.395,0.579-2.001C18.451,9.544,18.461,9.499,18.469,9.499L18.469,9.499z M13.025,10.749
	c0.009-0.009,0.427,0.09,0.651,0.153c0.342,0.096,1.07,0.339,1.07,0.357c0,0.003-0.082,0.072-0.178,0.157
	c-0.394,0.328-0.771,0.672-1.225,1.111c-0.134,0.13-0.25,0.234-0.256,0.234c-0.005,0-0.008-0.017-0.005-0.042
	c0.069-0.505,0.053-1.154-0.043-1.813C13.031,10.823,13.022,10.751,13.025,10.749z M21.802,10.756
	c0.006,0.007-0.192,0.319-0.319,0.497c-0.18,0.258-0.443,0.6-1.042,1.352c-0.315,0.397-0.669,0.844-0.786,0.995
	c-0.121,0.151-0.219,0.277-0.223,0.277c-0.003,0-0.043-0.054-0.083-0.12c-0.336-0.506-0.739-0.948-1.218-1.344
	c-0.09-0.076-0.189-0.156-0.222-0.181c-0.032-0.024-0.06-0.049-0.06-0.051c0-0.01,0.512-0.229,0.897-0.385
	c0.68-0.275,1.604-0.607,2.3-0.82C21.408,10.862,21.796,10.751,21.802,10.756L21.802,10.756z M22.033,10.817
	c0.012-0.003,0.084,0.033,0.171,0.084c0.73,0.417,1.446,0.955,2.012,1.508c0.158,0.157,0.552,0.565,0.546,0.569
	c0,0-0.139,0.013-0.3,0.024c-1.265,0.096-2.884,0.363-4.441,0.738c-0.104,0.024-0.198,0.045-0.205,0.045
	c-0.006,0,0.112-0.117,0.26-0.258c0.912-0.88,1.329-1.436,1.823-2.428C21.967,10.952,22.026,10.827,22.033,10.817
	C22.03,10.817,22.03,10.817,22.033,10.817L22.033,10.817z M15.341,11.502c0.043,0.008,0.432,0.192,0.727,0.339
	c0.271,0.135,0.677,0.352,0.697,0.37c0.003,0.003-0.141,0.078-0.317,0.165c-0.565,0.283-1.049,0.551-1.553,0.856
	c-0.145,0.087-0.265,0.16-0.268,0.16c-0.012,0-0.009-0.012,0.072-0.16c0.271-0.493,0.486-1.082,0.609-1.655
	C15.32,11.533,15.333,11.502,15.341,11.502L15.341,11.502z M14.952,11.574c0.008,0.009-0.094,0.379-0.157,0.579
	c-0.123,0.383-0.331,0.861-0.531,1.22c-0.049,0.084-0.12,0.208-0.159,0.276l-0.075,0.121l-0.168-0.163
	c-0.196-0.189-0.355-0.306-0.56-0.412c-0.081-0.042-0.145-0.078-0.145-0.084c0-0.025,0.515-0.49,0.909-0.826
	C14.347,12.044,14.941,11.565,14.952,11.574L14.952,11.574z M17.339,12.556l0.148,0.097c0.336,0.219,0.733,0.51,1.038,0.766
	c0.171,0.141,0.501,0.439,0.566,0.512l0.037,0.039l-0.244,0.068c-1.377,0.382-2.439,0.721-3.681,1.178
	c-0.138,0.051-0.255,0.094-0.265,0.094c-0.019,0-0.034,0.016,0.276-0.271c0.794-0.73,1.498-1.535,2.02-2.32L17.339,12.556
	L17.339,12.556z M16.711,12.714c0.008,0.006-0.404,0.585-0.65,0.914c-0.296,0.39-0.818,1.045-1.178,1.473
	c-0.151,0.176-0.281,0.323-0.286,0.327c-0.009,0.003-0.012-0.043-0.012-0.112c0-0.362-0.092-0.75-0.255-1.081
	c-0.069-0.138-0.081-0.171-0.065-0.186c0.056-0.051,0.931-0.55,1.482-0.848C16.119,13.001,16.703,12.707,16.711,12.714
	L16.711,12.714z M12.914,13.646c0.009,0,0.078,0.036,0.156,0.078c0.192,0.105,0.363,0.222,0.517,0.348
	c0.005,0.006-0.073,0.07-0.175,0.146c-0.285,0.203-0.717,0.531-0.971,0.733c-0.264,0.21-0.273,0.216-0.244,0.172
	c0.199-0.305,0.298-0.475,0.403-0.695c0.093-0.195,0.186-0.426,0.251-0.628C12.878,13.711,12.908,13.646,12.914,13.646
	L12.914,13.646z M13.926,14.438c0.015-0.003,0.034,0.024,0.114,0.145c0.172,0.254,0.303,0.597,0.336,0.873l0.006,0.062l-0.412,0.159
	c-0.736,0.284-1.415,0.567-1.875,0.778c-0.129,0.059-0.355,0.167-0.502,0.24c-0.147,0.075-0.267,0.132-0.267,0.129
	c0-0.002,0.093-0.072,0.207-0.156c0.898-0.652,1.677-1.367,2.26-2.082c0.063-0.075,0.121-0.145,0.125-0.147H13.926L13.926,14.438z
	 M13.461,14.552c0.012,0.012-0.331,0.4-0.565,0.637c-0.581,0.59-1.154,1.055-1.866,1.505c-0.09,0.058-0.171,0.108-0.18,0.115
	c-0.021,0.013,0.004-0.019,0.318-0.358c0.198-0.214,0.348-0.393,0.52-0.615c0.115-0.148,0.136-0.169,0.3-0.286
	C12.43,15.231,13.448,14.54,13.461,14.552z"/>
</svg>
