<?xml version="1.0" encoding="utf-8"?>
<!--
  - This file is part of StyleBI.
  -
  - Copyright (c) 2024, InetSoft Technology Corp, All Rights Reserved.
  -
  - The software and information contained herein are copyrighted and
  - proprietary to InetSoft Technology Corp. This software is furnished
  - pursuant to a written license agreement and may be used, copied,
  - transmitted, and stored only in accordance with the terms of such
  - license and with the inclusion of the above copyright notice. Please
  - refer to the file "COPYRIGHT" for further copyright and licensing
  - information. This software and information or any other copies
  - thereof may not be provided or otherwise made available to any other
  - person.
  -->

<!-- Generator: Adobe Illustrator 15.1.0, SVG Export Plug-In . SVG Version: 6.00 Build 0)  -->
<!DOCTYPE svg PUBLIC "-//W3C//DTD SVG 1.1//EN" "http://www.w3.org/Graphics/SVG/1.1/DTD/svg11.dtd">
<svg version="1.1" id="Layer_1" xmlns="http://www.w3.org/2000/svg" xmlns:xlink="http://www.w3.org/1999/xlink" x="0px" y="0px"
	 width="42.417px" height="30px" viewBox="0 0 42.417 30" enable-background="new 0 0 42.417 30" xml:space="preserve">
<g>
	<path fill="#C82027" d="M16.388,24.364l-0.007,1.704l0.124,0.023c0.392,0.071,0.788,0.123,1.185,0.151
		c0.348,0.032,0.697,0.038,1.046,0.019c0.333-0.022,0.663-0.084,0.982-0.184c0.375-0.106,0.722-0.291,1.019-0.542
		c0.268-0.229,0.472-0.522,0.594-0.851c0.212-0.554,0.208-1.165-0.012-1.714c-0.116-0.284-0.298-0.538-0.532-0.738
		c-0.226-0.202-0.491-0.357-0.78-0.453l-1.287-0.477c-0.153-0.065-0.279-0.185-0.351-0.335c-0.057-0.125-0.052-0.27,0.015-0.392
		c0.023-0.042,0.052-0.08,0.085-0.116c0.04-0.038,0.084-0.073,0.132-0.103c0.02-0.013,0.039-0.022,0.059-0.033
		c0.144-0.071,0.299-0.116,0.458-0.135c0.272-0.038,0.549-0.035,0.82,0.01c0.321,0.034,0.639,0.092,0.951,0.17l0.067,0.016v-1.574
		l-0.123-0.027c-0.319-0.076-0.642-0.132-0.967-0.171c-0.422-0.057-0.851-0.058-1.272-0.006c-0.536,0.048-1.045,0.253-1.465,0.59
		c-0.285,0.224-0.501,0.521-0.626,0.862c-0.187,0.518-0.188,1.084-0.001,1.604c0.096,0.257,0.25,0.49,0.45,0.678
		c0.173,0.168,0.37,0.31,0.582,0.422c0.28,0.151,0.578,0.269,0.886,0.348c0.101,0.031,0.203,0.063,0.303,0.097l0.152,0.056
		c0.015,0.007,0.029,0.012,0.043,0.019c0.15,0.054,0.288,0.138,0.403,0.248c0.081,0.075,0.142,0.168,0.181,0.27
		c0.023,0.095,0.024,0.193,0.001,0.288c-0.048,0.151-0.154,0.278-0.294,0.354c-0.154,0.078-0.32,0.131-0.491,0.152
		c-0.251,0.041-0.507,0.054-0.761,0.038c-0.333-0.025-0.664-0.068-0.992-0.132c-0.171-0.035-0.342-0.075-0.511-0.12L16.388,24.364"
		/>
	<path fill="#C82027" d="M9.393,26.008v-1.982l-0.039,0.018c-0.446,0.217-0.932,0.341-1.428,0.363
		c-0.515,0.04-1.026-0.111-1.438-0.424c-0.293-0.228-0.511-0.537-0.625-0.888c-0.126-0.385-0.141-0.798-0.042-1.189
		c0.092-0.4,0.316-0.759,0.638-1.016c0.284-0.238,0.632-0.39,1.001-0.432c0.651-0.072,1.31,0.051,1.89,0.354l0.042,0.021v-1.991
		l-0.09-0.025C8.721,18.631,8.11,18.552,7.5,18.583c-0.555,0.014-1.103,0.138-1.609,0.367c-0.512,0.234-0.962,0.583-1.318,1.02
		C3.46,21.376,3.431,23.354,4.5,24.793c0.526,0.673,1.265,1.146,2.095,1.347c0.876,0.213,1.794,0.181,2.652-0.093L9.393,26.008"/>
	<polyline fill="#C82027" points="13.848,26.139 13.848,18.708 11.975,18.708 11.975,26.139 13.848,26.139 	"/>
	<path fill="#12393D" d="M-0.121,12.738c0.018,0.234,0.122,0.452,0.294,0.612c0.171,0.159,0.397,0.248,0.632,0.248
		c0.234,0,0.46-0.089,0.632-0.248c0.171-0.16,0.277-0.378,0.293-0.612v-2.059c-0.009-0.24-0.11-0.466-0.283-0.632
		C1.274,9.881,1.045,9.789,0.805,9.789s-0.47,0.093-0.643,0.258c-0.172,0.167-0.274,0.393-0.283,0.632V12.738"/>
	<path fill="#12393D" d="M5.007,12.738c0.018,0.234,0.123,0.452,0.294,0.612c0.172,0.159,0.397,0.248,0.632,0.248
		c0.234,0,0.46-0.089,0.631-0.248c0.172-0.16,0.277-0.378,0.294-0.612V8.122C6.85,7.882,6.749,7.656,6.576,7.49
		C6.403,7.324,6.173,7.231,5.934,7.231c-0.24,0-0.47,0.093-0.643,0.259C5.118,7.656,5.016,7.882,5.007,8.122V12.738"/>
	<path fill="#12393D" d="M10.108,14.597c0.018,0.234,0.123,0.452,0.295,0.612c0.171,0.16,0.397,0.248,0.632,0.248
		c0.234,0,0.46-0.088,0.632-0.248c0.171-0.16,0.277-0.377,0.294-0.612V4.612c-0.009-0.24-0.111-0.466-0.284-0.632
		c-0.172-0.167-0.403-0.259-0.642-0.259c-0.24,0-0.47,0.093-0.643,0.259c-0.172,0.166-0.274,0.392-0.284,0.632V14.597"/>
	<path fill="#12393D" d="M15.236,12.738c0.017,0.234,0.123,0.452,0.294,0.612c0.172,0.159,0.397,0.248,0.632,0.248
		s0.46-0.089,0.632-0.248c0.172-0.16,0.277-0.378,0.294-0.612V8.122c-0.01-0.239-0.111-0.465-0.284-0.631s-0.403-0.259-0.643-0.259
		c-0.239,0-0.47,0.093-0.642,0.259c-0.173,0.166-0.275,0.392-0.284,0.631V12.738"/>
	<path fill="#12393D" d="M20.341,12.738c0.017,0.234,0.123,0.452,0.294,0.612c0.171,0.159,0.397,0.248,0.632,0.248
		s0.46-0.089,0.632-0.248c0.172-0.16,0.277-0.378,0.294-0.612v-2.059c-0.009-0.24-0.111-0.466-0.284-0.632
		c-0.172-0.166-0.403-0.258-0.642-0.258c-0.24,0-0.47,0.093-0.643,0.258c-0.173,0.167-0.274,0.393-0.284,0.632V12.738"/>
	<path fill="#12393D" d="M25.464,12.738c0.019,0.234,0.122,0.452,0.296,0.612c0.17,0.159,0.396,0.248,0.631,0.248
		c0.234,0,0.46-0.089,0.632-0.248c0.172-0.16,0.277-0.378,0.295-0.612V8.122c-0.01-0.239-0.112-0.465-0.285-0.631
		s-0.401-0.259-0.642-0.259s-0.47,0.093-0.642,0.259c-0.175,0.166-0.275,0.392-0.285,0.631V12.738"/>
	<path fill="#12393D" d="M30.568,14.597c0.017,0.234,0.123,0.452,0.293,0.612c0.172,0.16,0.399,0.248,0.632,0.248
		c0.235,0,0.461-0.088,0.633-0.248s0.277-0.377,0.295-0.612V4.612c-0.009-0.24-0.111-0.466-0.284-0.632
		c-0.173-0.167-0.403-0.259-0.644-0.259c-0.238,0-0.469,0.093-0.641,0.259c-0.174,0.166-0.275,0.392-0.284,0.632V14.597"/>
	<path fill="#12393D" d="M35.687,12.738c0.018,0.234,0.122,0.452,0.295,0.612c0.171,0.159,0.396,0.248,0.632,0.248
		c0.234,0,0.46-0.089,0.632-0.248c0.171-0.16,0.277-0.378,0.294-0.612V8.122c-0.01-0.239-0.111-0.465-0.284-0.631
		s-0.402-0.259-0.642-0.259c-0.24,0-0.47,0.093-0.644,0.259c-0.172,0.166-0.273,0.392-0.283,0.631V12.738"/>
	<path fill="#12393D" d="M40.793,12.738c0.019,0.234,0.122,0.452,0.296,0.612c0.172,0.159,0.397,0.248,0.631,0.248
		c0.234,0,0.46-0.089,0.632-0.248c0.173-0.16,0.277-0.378,0.296-0.612v-2.059c-0.011-0.24-0.113-0.466-0.285-0.632
		C42.19,9.881,41.96,9.789,41.72,9.789c-0.239,0-0.47,0.093-0.642,0.258c-0.175,0.167-0.274,0.393-0.285,0.632V12.738"/>
	<path fill="#C82027" d="M28.966,26.008v-1.982l-0.039,0.018c-0.446,0.217-0.931,0.341-1.427,0.363
		c-0.515,0.04-1.027-0.111-1.438-0.424c-0.294-0.228-0.512-0.537-0.625-0.888c-0.127-0.385-0.142-0.798-0.043-1.189
		c0.091-0.4,0.315-0.759,0.637-1.016c0.284-0.238,0.633-0.39,1.001-0.432c0.652-0.072,1.31,0.051,1.892,0.354l0.042,0.021v-1.991
		l-0.09-0.025c-0.583-0.187-1.192-0.266-1.804-0.234c-0.556,0.014-1.103,0.138-1.608,0.367c-0.513,0.234-0.964,0.583-1.319,1.02
		c-1.11,1.406-1.141,3.384-0.071,4.823c0.526,0.673,1.264,1.146,2.096,1.347c0.875,0.213,1.793,0.181,2.652-0.093L28.966,26.008"/>
	<path fill="#C82027" d="M30.94,22.426c0.018,1.175,0.563,2.28,1.485,3.008c0.922,0.729,2.122,1.003,3.269,0.749
		c1.556-0.292,2.771-1.519,3.048-3.079c0.278-1.56-0.438-3.129-1.798-3.94c-1.202-0.745-2.708-0.786-3.95-0.111
		C31.754,19.726,30.97,21.015,30.94,22.426 M33.66,20.903c0.405-0.324,0.922-0.472,1.437-0.416c0.515,0.058,0.985,0.319,1.31,0.724
		c0.322,0.404,0.473,0.922,0.415,1.436c-0.058,0.515-0.318,0.986-0.723,1.309c-0.405,0.324-0.922,0.474-1.437,0.415
		c-0.516-0.057-0.986-0.316-1.31-0.722c-0.324-0.405-0.473-0.922-0.415-1.437C32.995,21.696,33.255,21.227,33.66,20.903"/>
</g>
</svg>
