<?xml version="1.0" encoding="utf-8"?>
<!--
  - This file is part of StyleBI.
  - Copyright (C) 2024  InetSoft Technology
  -
  - This program is free software: you can redistribute it and/or modify
  - it under the terms of the GNU Affero General Public License as published by
  - the Free Software Foundation, either version 3 of the License, or
  - (at your option) any later version.
  -
  - This program is distributed in the hope that it will be useful,
  - but WITHOUT ANY WARRANTY; without even the implied warranty of
  - MERCHANTABILITY or FITNESS FOR A PARTICULAR PURPOSE.  See the
  - GNU Affero General Public License for more details.
  -
  - You should have received a copy of the GNU Affero General Public License
  - along with this program.  If not, see <https://www.gnu.org/licenses/>.
  -->

<!-- Generator: Adobe Illustrator 15.1.0, SVG Export Plug-In . SVG Version: 6.00 Build 0)  -->
<!DOCTYPE svg PUBLIC "-//W3C//DTD SVG 1.1//EN" "http://www.w3.org/Graphics/SVG/1.1/DTD/svg11.dtd">
<svg version="1.1" id="Layer_1" xmlns="http://www.w3.org/2000/svg" xmlns:xlink="http://www.w3.org/1999/xlink" x="0px" y="0px"
	 width="30px" height="30px" viewBox="35 0 30 30" enable-background="new 35 0 30 30" xml:space="preserve">
<g>
	<path fill="#231F20" d="M46.953,20.039l3.511-3.526c0.185-0.237,0.159-0.575-0.059-0.784c-0.217-0.208-0.557-0.22-0.785-0.025
		l-3.477,3.514l-3.537-3.559c-0.109-0.11-0.258-0.175-0.414-0.175c-0.237,0.003-0.45,0.145-0.54,0.365
		c-0.09,0.22-0.037,0.474,0.132,0.638l3.53,3.563l-3.48,3.511c-0.171,0.166-0.223,0.422-0.13,0.641
		c0.09,0.22,0.303,0.361,0.539,0.363c0.157,0,0.305-0.063,0.414-0.175l3.486-3.511l3.526,3.263c0.11,0.111,0.258,0.176,0.415,0.176
		c0.237-0.002,0.45-0.146,0.542-0.364c0.091-0.22,0.042-0.473-0.124-0.642L46.953,20.039z"/>
	<path fill="#231F20" d="M42.19,15.745c-0.126,0.003-0.24,0.082-0.288,0.199c-0.049,0.118-0.021,0.256,0.073,0.344l3.721,3.753
		l-3.669,3.689c-0.094,0.089-0.124,0.229-0.072,0.35c0.043,0.091,0.129,0.158,0.227,0.177c0.101,0.02,0.204-0.01,0.279-0.079
		l3.673-3.691l3.717,3.441c0.073,0.078,0.18,0.117,0.286,0.098c0.107-0.02,0.195-0.089,0.237-0.189
		c0.049-0.123,0.021-0.263-0.075-0.356l-3.731-3.427l3.703-3.724c0.081-0.094,0.101-0.227,0.052-0.338
		c-0.045-0.096-0.131-0.164-0.234-0.183c-0.101-0.018-0.207,0.012-0.281,0.084l-3.67,3.695l-3.731-3.751
		C42.348,15.778,42.272,15.746,42.19,15.745z M42.235,24.813c-0.35-0.005-0.659-0.218-0.79-0.539
		c-0.134-0.323-0.059-0.694,0.192-0.937l3.286-3.309l-3.34-3.375c-0.246-0.241-0.322-0.609-0.19-0.928
		c0.131-0.322,0.443-0.534,0.79-0.54c0.226,0,0.445,0.09,0.604,0.253l3.347,3.364l3.284-3.312c0.332-0.313,0.853-0.308,1.181,0.007
		c0.328,0.317,0.354,0.835,0.056,1.179l-3.314,3.336l3.334,3.084c0.251,0.252,0.325,0.628,0.185,0.956
		c-0.135,0.314-0.444,0.519-0.787,0.519c-0.226,0-0.445-0.092-0.605-0.256l-3.326-3.078l-3.303,3.322
		C42.681,24.722,42.462,24.813,42.235,24.813z"/>
	<path fill="#0A7A96" d="M56.738,17.684c0.022,0.924,0.598,1.741,1.459,2.074c0.861,0.334,1.839,0.115,2.477-0.555
		c0.636-0.669,0.806-1.655,0.434-2.499c-0.375-0.844-1.222-1.378-2.143-1.355C57.704,15.378,56.708,16.425,56.738,17.684z"/>
	<path fill="#0A7A96" d="M47.415,6.72c0.023,0.922,0.598,1.74,1.46,2.074c0.86,0.333,1.838,0.114,2.475-0.554
		c0.638-0.669,0.808-1.656,0.434-2.5c-0.375-0.844-1.219-1.379-2.142-1.357C48.38,4.413,47.384,5.459,47.415,6.72z"/>
	<circle fill="#0A7A96" cx="43.663" cy="5.073" r="1.767"/>
	<circle fill="#0A7A96" cx="58.318" cy="23.458" r="1.618"/>
	<path fill="#0A7A96" d="M53.136,25.765c0.013,0.526,0.45,0.942,0.977,0.929c0.526-0.015,0.942-0.451,0.928-0.978
		c-0.015-0.525-0.45-0.942-0.978-0.927c-0.253,0.006-0.49,0.112-0.666,0.294C53.221,25.266,53.129,25.512,53.136,25.765z"/>
	<path fill="#0A7A96" d="M38.82,7.77c0.017,0.579,0.499,1.035,1.079,1.02c0.58-0.016,1.037-0.499,1.023-1.078
		c-0.017-0.579-0.5-1.036-1.077-1.022c-0.278,0.006-0.545,0.123-0.736,0.326C38.917,7.219,38.812,7.49,38.82,7.77z"/>
	<path fill="#0A7A96" d="M38.698,11.901c0.017,0.443,0.387,0.791,0.83,0.779c0.443-0.009,0.797-0.375,0.79-0.819
		c-0.006-0.444-0.367-0.801-0.81-0.801c-0.222,0-0.43,0.089-0.583,0.248C38.773,11.469,38.691,11.682,38.698,11.901z"/>
	<path fill="#0A7A96" d="M52.568,11.431c0.026,1.153,0.746,2.178,1.822,2.594c1.077,0.417,2.296,0.146,3.093-0.691
		c0.797-0.834,1.012-2.067,0.544-3.123c-0.467-1.055-1.523-1.724-2.676-1.697C53.775,8.554,52.533,9.858,52.568,11.431z"/>
	<circle fill="#D1D3D4" cx="58.318" cy="23.458" r="1.618"/>
	<path fill="#A7A9AC" d="M53.136,25.765c0.013,0.526,0.45,0.942,0.977,0.929c0.526-0.015,0.942-0.451,0.928-0.978
		c-0.015-0.525-0.45-0.942-0.978-0.927c-0.253,0.006-0.49,0.112-0.666,0.294C53.221,25.266,53.129,25.512,53.136,25.765z"/>
	<path fill="#D1D3D4" d="M38.82,7.77c0.017,0.579,0.499,1.035,1.079,1.02c0.58-0.016,1.037-0.499,1.023-1.078
		c-0.017-0.579-0.5-1.036-1.077-1.022c-0.278,0.006-0.545,0.123-0.736,0.326C38.917,7.219,38.812,7.49,38.82,7.77z"/>
	<path fill="#A7A9AC" d="M38.698,11.901c0.017,0.443,0.387,0.791,0.83,0.779c0.443-0.009,0.797-0.375,0.79-0.819
		c-0.006-0.444-0.367-0.801-0.81-0.801c-0.222,0-0.43,0.089-0.583,0.248C38.773,11.469,38.691,11.682,38.698,11.901z"/>
</g>
</svg>
