<?xml version="1.0" encoding="utf-8"?>
<!--
  - This file is part of StyleBI.
  - Copyright (C) 2024  InetSoft Technology
  -
  - This program is free software: you can redistribute it and/or modify
  - it under the terms of the GNU Affero General Public License as published by
  - the Free Software Foundation, either version 3 of the License, or
  - (at your option) any later version.
  -
  - This program is distributed in the hope that it will be useful,
  - but WITHOUT ANY WARRANTY; without even the implied warranty of
  - MERCHANTABILITY or FITNESS FOR A PARTICULAR PURPOSE.  See the
  - GNU Affero General Public License for more details.
  -
  - You should have received a copy of the GNU Affero General Public License
  - along with this program.  If not, see <https://www.gnu.org/licenses/>.
  -->

<!-- Generator: Adobe Illustrator 15.1.0, SVG Export Plug-In . SVG Version: 6.00 Build 0)  -->
<!DOCTYPE svg PUBLIC "-//W3C//DTD SVG 1.1//EN" "http://www.w3.org/Graphics/SVG/1.1/DTD/svg11.dtd">
<svg version="1.1" id="Layer_1" xmlns="http://www.w3.org/2000/svg" xmlns:xlink="http://www.w3.org/1999/xlink" x="0px" y="0px"
	 width="30px" height="30px" viewBox="60 60 30 30" enable-background="new 60 60 30 30" xml:space="preserve">
<g>
	<rect x="62.79" y="62.749" width="24.42" height="12.458"/>
	<path fill="#FFFFFF" d="M64.977,65.018v0.564h4.014v-0.564H64.977z M69.56,65.018v0.564h5.722c0,0-0.584-0.564-1.359-0.564H69.56z
		 M76.402,65.018v0.564h3.462l-0.205-0.564H76.402z M82.346,65.018l-0.205,0.564h3.429v-0.564H82.346z M64.977,66.115v0.564h4.014
		v-0.564H64.977z M69.56,66.116v0.563h6.386c0,0-0.075-0.435-0.205-0.563H69.56L69.56,66.116z M76.402,66.116v0.563h3.841
		l-0.189-0.563H76.402L76.402,66.116z M81.935,66.116l-0.189,0.563h3.824v-0.563H81.935z M66.13,67.213v0.565h1.739v-0.565H66.13
		L66.13,67.213z M70.713,67.213v0.565h1.739v-0.565H70.713L70.713,67.213z M74.143,67.213v0.565h1.74c0,0,0.109-0.298,0.109-0.565
		H74.143L74.143,67.213z M77.557,67.213v0.565h3.082l-0.204-0.565H77.557L77.557,67.213z M81.557,67.213l-0.206,0.565h3.098v-0.565
		H81.557L81.557,67.213z M66.13,68.311v0.565h1.739v-0.565H66.13L66.13,68.311z M70.713,68.311v0.565h4.441
		c0,0,0.371-0.29,0.49-0.565H70.713z M77.557,68.311v0.565h1.739v-0.314l0.11,0.314h3.184l0.119-0.314v0.314h1.739v-0.565h-3.265
		l-0.173,0.478l-0.174-0.478H77.557z M66.13,69.409v0.565h1.739v-0.565H66.13z M70.713,69.409v0.565h4.931
		c-0.119-0.274-0.49-0.565-0.49-0.565H70.713z M77.557,69.409v0.565h1.739v-0.565H77.557z M79.611,69.409l0.21,0.565h2.389
		l0.199-0.565H79.611z M82.709,69.409v0.565h1.739v-0.565H82.709z M66.13,70.507v0.564h1.739v-0.564H66.13z M70.713,70.507v0.564
		h1.739v-0.564H70.713z M74.143,70.507v0.564h1.849c0-0.267-0.109-0.564-0.109-0.564H74.143z M77.557,70.507v0.564h1.739v-0.564
		H77.557z M80.006,70.507l0.204,0.564h1.601l0.206-0.564H80.006z M82.709,70.507v0.564h1.739v-0.564H82.709z M65.008,71.605v0.565
		h4.015v-0.565H65.008z M69.56,71.605v0.565h6.181c0.13-0.129,0.205-0.565,0.205-0.565H69.56L69.56,71.605z M76.435,71.605v0.565
		h2.861v-0.565H76.435z M80.401,71.605l0.21,0.565h0.814l0.197-0.565H80.401z M82.709,71.605v0.565h2.893v-0.565H82.709z
		 M65.008,72.703v0.564h4.015v-0.564H65.008z M69.56,72.703v0.563h4.363c0.774,0,1.359-0.563,1.359-0.563H69.56z M76.435,72.703
		v0.564h2.861v-0.564H76.435z M80.799,72.703L81,73.266l0.034,0l0.205-0.563H80.799z M82.709,72.703v0.564h2.893v-0.564H82.709z"/>
	<rect x="62.79" y="74.793" fill="#009A2C" width="24.42" height="12.458"/>
	<g>
		<path fill="#FFFFFF" d="M68.888,78.046h1.783c0.451,0,0.791,0.051,1.02,0.15c0.229,0.102,0.441,0.271,0.634,0.51
			c0.192,0.239,0.344,0.55,0.454,0.931c0.11,0.382,0.166,0.855,0.166,1.423c0,0.51-0.058,0.953-0.173,1.33
			c-0.115,0.378-0.262,0.677-0.438,0.896c-0.178,0.221-0.391,0.387-0.643,0.498c-0.25,0.111-0.573,0.167-0.968,0.167h-1.835
			L68.888,78.046L68.888,78.046z M69.863,79.045v3.907h0.733c0.314,0,0.542-0.029,0.683-0.089c0.141-0.059,0.256-0.148,0.346-0.267
			c0.09-0.12,0.165-0.309,0.223-0.566c0.06-0.258,0.089-0.597,0.089-1.018c0-0.437-0.03-0.782-0.09-1.034
			c-0.061-0.253-0.155-0.45-0.282-0.597c-0.127-0.144-0.282-0.238-0.465-0.285c-0.137-0.034-0.402-0.052-0.794-0.052H69.863
			L69.863,79.045z"/>
		<path fill="#FFFFFF" d="M73.774,78.046h1.94c0.53,0,0.901,0.048,1.117,0.145c0.215,0.097,0.396,0.268,0.545,0.512
			c0.147,0.244,0.222,0.521,0.222,0.829c0,0.285-0.064,0.543-0.191,0.772c-0.126,0.229-0.291,0.399-0.493,0.51
			c0.287,0.102,0.512,0.276,0.675,0.523c0.161,0.248,0.242,0.549,0.242,0.902c0,0.43-0.103,0.793-0.31,1.089
			c-0.207,0.298-0.451,0.481-0.733,0.551c-0.196,0.048-0.651,0.073-1.365,0.073h-1.648V78.046L73.774,78.046z M74.749,79.029v1.364
			h0.645c0.387,0,0.625-0.006,0.718-0.02c0.166-0.026,0.296-0.097,0.39-0.211c0.095-0.114,0.141-0.27,0.141-0.466
			c0-0.175-0.037-0.315-0.114-0.425c-0.076-0.109-0.169-0.177-0.277-0.203c-0.109-0.027-0.421-0.04-0.937-0.04H74.749L74.749,79.029
			z M74.749,81.377v1.575h0.909c0.398,0,0.654-0.021,0.767-0.063c0.113-0.041,0.207-0.123,0.285-0.245
			c0.076-0.121,0.115-0.275,0.115-0.464c0-0.192-0.042-0.352-0.123-0.477c-0.083-0.124-0.192-0.21-0.327-0.257
			c-0.137-0.047-0.414-0.07-0.833-0.07H74.749L74.749,81.377z"/>
		<path fill="#FFFFFF" d="M81.589,82.899v1.052h-3.255c0.035-0.397,0.143-0.774,0.32-1.133c0.179-0.358,0.525-0.829,1.041-1.411
			c0.408-0.464,0.66-0.778,0.754-0.942c0.139-0.239,0.209-0.479,0.209-0.721c0-0.257-0.058-0.451-0.173-0.583
			c-0.116-0.131-0.268-0.197-0.455-0.197c-0.411,0-0.632,0.308-0.665,0.923l-0.923-0.112c0.057-0.603,0.225-1.044,0.502-1.325
			c0.278-0.283,0.648-0.424,1.109-0.424c0.508,0,0.891,0.165,1.148,0.495s0.387,0.708,0.387,1.135c0,0.242-0.032,0.476-0.098,0.702
			c-0.066,0.228-0.167,0.456-0.306,0.685c-0.136,0.229-0.364,0.522-0.684,0.88c-0.299,0.335-0.487,0.556-0.566,0.664
			c-0.079,0.107-0.144,0.212-0.191,0.313H81.589L81.589,82.899z"/>
	</g>
</g>
</svg>
