<?xml version="1.0" encoding="utf-8"?>
<!--
  - This file is part of StyleBI.
  - Copyright (C) 2024  InetSoft Technology
  -
  - This program is free software: you can redistribute it and/or modify
  - it under the terms of the GNU Affero General Public License as published by
  - the Free Software Foundation, either version 3 of the License, or
  - (at your option) any later version.
  -
  - This program is distributed in the hope that it will be useful,
  - but WITHOUT ANY WARRANTY; without even the implied warranty of
  - MERCHANTABILITY or FITNESS FOR A PARTICULAR PURPOSE.  See the
  - GNU Affero General Public License for more details.
  -
  - You should have received a copy of the GNU Affero General Public License
  - along with this program.  If not, see <https://www.gnu.org/licenses/>.
  -->

<!-- Generator: Adobe Illustrator 15.1.0, SVG Export Plug-In . SVG Version: 6.00 Build 0)  -->
<!DOCTYPE svg PUBLIC "-//W3C//DTD SVG 1.1//EN" "http://www.w3.org/Graphics/SVG/1.1/DTD/svg11.dtd">
<svg version="1.1" id="Layer_1" xmlns="http://www.w3.org/2000/svg" xmlns:xlink="http://www.w3.org/1999/xlink" x="0px" y="0px"
	 width="30px" height="30px" viewBox="291 381 30 30" enable-background="new 291 381 30 30" xml:space="preserve">
<g>
	<path fill="#383C42" d="M303.813,397.464c-0.483,1.265-1.894,1.864-2.284,1.648c-0.198-0.104,0-0.506,0-0.78
		c-0.285,0.111-0.758,0.321-1.043,0.438c1.221,1.047,1.362,2.887,0.314,4.108c-0.097,0.112-0.202,0.218-0.314,0.313
		c1.166,1.749,0.583,3.252-1.043,4.423l-0.064,0.041l-0.035-0.116c-0.202-0.807-0.584-1.559-1.119-2.197
		c-0.285-0.331-0.612-0.635-0.932-0.938c-0.419-0.396-0.827-0.804-1.207-1.235c-1.603-1.678-2.238-4.632-2.028-6.916
		c0.113-1.173,0.458-2.312,1.014-3.351c0.44-0.829,0.989-1.595,1.631-2.278c1.441-1.546,3.264-2.686,5.285-3.304
		c1.776-0.613,3.72-0.523,5.431,0.25c0.316,0.167,0.617,0.363,0.898,0.583l0.413,0.39l0.047,0.047l7.791-3.991
		c0.641-0.32,1.125-0.32,1.341-0.088c0.215,0.233-0.088,0.833-0.543,1.166l-6.701,4.843c0.08,0.461-0.057,0.935-0.372,1.282
		c0.891,0.309,0.104,1.614-0.286,2.08c-1.119,1.323-3.164,2.36-4.988,3.117c-0.489,0.21-0.769,0.298-1.206,0.461 M299.455,399.206
		c-0.729,0.332-2.15,1.072-2.016,1.876c0.187,0.496,0.763,0,0.979-0.232c0.465-0.451,0.82-1.004,1.037-1.614V399.206z"/>
	<path fill="#31D3DB" d="M309.926,392.889c0.502-0.629,0.152-0.99-0.198-0.641c-0.709,0.676-1.699,0.971-2.662,0.793
		c-1.37-0.228-1.434-0.437-1.201-0.641c1.589,0.535,3.341-0.059,4.277-1.451c0.339-0.484-0.792-0.868-1.457-1.749
		c-3.193-4.335-13.192-0.577-14.148,6.958c-0.314,2.354,0.377,4.729,1.906,6.544c1.165,1.323,2.436,1.877,3.152,3.957
		c1.398-1.201,1.165-2.558,0.157-3.747c1.148-0.583,1.606-1.985,1.023-3.133c-0.176-0.347-0.436-0.645-0.755-0.865
		c-0.583,2.104-2.628,3.66-3.106,2.168c-0.309-1.521,2.197-2.528,6.206-4.079c3.356-1.258,5.523-2.295,6.806-4.148"/>
	<path fill="#FFFFFF" d="M309.926,392.889c0.502-0.629,0.152-0.99-0.198-0.641c-0.615,0.594-1.454,0.899-2.308,0.839
		c-1.381-0.099-2.481-0.373-3.496-0.262c-1.882,0.282-3.624,1.165-4.964,2.518c-1.748,1.795-3.683,5.524-1.748,6.247
		c-0.147-0.131-0.246-0.307-0.28-0.502c-0.309-1.521,2.196-2.528,6.206-4.079c3.356-1.258,5.523-2.295,6.806-4.148"/>
	<path fill="#31D3DB" d="M301.331,395.833c1.031,0.507,0.828,2.278,0.676,2.721c1.958-0.583,1.375-3.456,2.285-4.341
		C303.126,394.177,301.017,395.325,301.331,395.833"/>
	<path fill="#383C42" d="M304.641,390.576c0.244-0.211,0.612-0.185,0.822,0.059c0.211,0.243,0.185,0.611-0.059,0.821
		c-0.066,0.058-0.144,0.099-0.228,0.122c-0.31,0.085-0.631-0.097-0.716-0.407C304.401,390.955,304.471,390.723,304.641,390.576"/>
	<path fill="#31D3DB" d="M309.396,390.815l7.86-5.472c0.222-0.157,0.513-0.495,0.391-0.658c-0.122-0.164-0.461-0.076-0.751,0.058
		l-8.496,4.592c-0.274,0.583,0.278,1.777,1.002,1.48"/>
	<path fill="#FFFFFF" d="M308.708,389.737l8.21-4.808c0.213-0.144,0.461-0.225,0.718-0.232c-0.122-0.14-0.461-0.059-0.739,0.076
		l-8.496,4.563c-0.173,0.548,0.039,1.145,0.518,1.462c-0.176-0.326-0.248-0.698-0.21-1.066"/>
	<path fill="#21AAAD" d="M296.611,391.881c0.211-0.045,0.419,0.088,0.465,0.298c0.008,0.038,0.01,0.077,0.007,0.115
		c0.004,0.289-0.204,0.537-0.49,0.583c-0.211,0.043-0.417-0.094-0.459-0.306c-0.006-0.034-0.009-0.068-0.006-0.102
		c0.009-0.282,0.208-0.521,0.483-0.583"/>
	<path fill="#21AAAD" d="M298.202,390.127c0.186-0.039,0.369,0.08,0.408,0.266c0.007,0.033,0.01,0.068,0.006,0.102
		c-0.019,0.247-0.191,0.455-0.431,0.519c-0.186,0.039-0.368-0.079-0.407-0.265c-0.007-0.034-0.009-0.068-0.006-0.103
		C297.79,390.399,297.963,390.191,298.202,390.127"/>
	<path fill="#21AAAD" d="M303.027,387.802c0.19,0.007,0.337,0.167,0.331,0.356c-0.001,0.032-0.006,0.063-0.016,0.093
		c-0.066,0.238-0.283,0.403-0.53,0.402c-0.193-0.004-0.346-0.165-0.341-0.358c0.001-0.031,0.005-0.061,0.014-0.09
		c0.066-0.24,0.287-0.405,0.536-0.402"/>
	<path fill="#21AAAD" d="M304.507,387.563c0.159,0.026,0.267,0.175,0.24,0.335c-0.004,0.027-0.013,0.054-0.024,0.079
		c-0.088,0.188-0.291,0.294-0.496,0.262c-0.158-0.03-0.262-0.182-0.232-0.34c0.003-0.019,0.009-0.038,0.016-0.056
		C304.094,387.648,304.297,387.533,304.507,387.563"/>
	<path fill="#21AAAD" d="M298.219,391.229c0.138-0.029,0.275,0.059,0.304,0.198c0.005,0.025,0.007,0.051,0.005,0.076
		c-0.005,0.186-0.138,0.343-0.321,0.379c-0.138,0.029-0.274-0.059-0.303-0.198c-0.005-0.023-0.007-0.046-0.005-0.07
		C297.907,391.428,298.038,391.271,298.219,391.229"/>
	<path fill="#21AAAD" d="M295.737,393.292c0.141-0.033,0.282,0.054,0.315,0.195c0.007,0.028,0.008,0.056,0.005,0.084
		c-0.006,0.193-0.144,0.356-0.332,0.396c-0.149,0.03-0.293-0.066-0.323-0.214c-0.005-0.027-0.006-0.055-0.003-0.083
		c0.007-0.195,0.147-0.359,0.337-0.396"/>
	<path fill="#21AAAD" d="M316.161,385.128l-0.216,0.116c0.053,0.257,0.19,0.489,0.391,0.658
		C316.225,385.659,316.165,385.395,316.161,385.128 M314.297,386.13l-0.245,0.134c0,0.314,0.228,0.786,0.484,0.851
		c-0.168-0.3-0.24-0.643-0.21-0.985H314.297z M312.362,387.179l-0.321,0.175c0.049,0.437,0.291,0.83,0.658,1.072
		c-0.207-0.382-0.313-0.812-0.308-1.247H312.362z M310.434,388.239l-0.367,0.187c0.043,0.528,0.332,1.005,0.78,1.288
		C310.563,389.275,310.419,388.761,310.434,388.239L310.434,388.239z"/>
</g>
</svg>
