<?xml version="1.0" encoding="utf-8"?>
<!--
  - This file is part of StyleBI.
  - Copyright (C) 2024  InetSoft Technology
  -
  - This program is free software: you can redistribute it and/or modify
  - it under the terms of the GNU Affero General Public License as published by
  - the Free Software Foundation, either version 3 of the License, or
  - (at your option) any later version.
  -
  - This program is distributed in the hope that it will be useful,
  - but WITHOUT ANY WARRANTY; without even the implied warranty of
  - MERCHANTABILITY or FITNESS FOR A PARTICULAR PURPOSE.  See the
  - GNU Affero General Public License for more details.
  -
  - You should have received a copy of the GNU Affero General Public License
  - along with this program.  If not, see <https://www.gnu.org/licenses/>.
  -->

<!-- Generator: Adobe Illustrator 15.1.0, SVG Export Plug-In . SVG Version: 6.00 Build 0)  -->
<!DOCTYPE svg PUBLIC "-//W3C//DTD SVG 1.1//EN" "http://www.w3.org/Graphics/SVG/1.1/DTD/svg11.dtd">
<svg version="1.1" id="Layer_1" xmlns="http://www.w3.org/2000/svg" xmlns:xlink="http://www.w3.org/1999/xlink" x="0px" y="0px"
	 width="30px" height="30px" viewBox="291 381 30 30" enable-background="new 291 381 30 30" xml:space="preserve">
<linearGradient id="SVGID_1_" gradientUnits="userSpaceOnUse" x1="125.791" y1="729.7344" x2="128.2761" y2="730.7144" gradientTransform="matrix(2.4238 0 0 -2.4238 -0.7113 2166.4514)">
	<stop  offset="0" style="stop-color:#C2C2C4"/>
	<stop  offset="1" style="stop-color:#717073"/>
</linearGradient>
<polygon fill="url(#SVGID_1_)" points="299.333,385.031 299.943,386.533 302.387,384.955 300.375,387.602 300.375,387.602 
	299.841,389.765 301.292,389.816 301.648,390.681 304.066,389.078 302.081,391.725 302.081,391.725 301.496,393.786 
	302.946,393.837 303.277,394.651 305.669,393.074 303.735,395.796 303.735,395.796 303.15,397.832 304.575,397.884 304.931,398.724 
	307.425,397.094 307.425,397.12 305.44,399.792 305.135,401.574 306.789,401.574 307.35,402.337 308.698,401.446 307.96,403.254 
	307.629,404.856 309.182,404.831 309.639,405.441 310.683,404.755 310.098,406.053 312.414,409.208 312.083,406.994 
	312.668,405.519 311.879,405.493 311.497,402.668 312.287,400.326 311.167,400.302 310.784,397.629 311.318,395.644 
	310.046,395.593 309.258,393.633 309.817,391.546 308.366,391.496 307.629,389.663 308.163,387.526 306.738,387.475 
	305.975,385.617 306.509,383.479 305.084,383.428 304.804,382.792 "/>
</svg>
