<?xml version="1.0" encoding="utf-8"?>
<!--
  - This file is part of StyleBI.
  - Copyright (C) 2024  InetSoft Technology
  -
  - This program is free software: you can redistribute it and/or modify
  - it under the terms of the GNU Affero General Public License as published by
  - the Free Software Foundation, either version 3 of the License, or
  - (at your option) any later version.
  -
  - This program is distributed in the hope that it will be useful,
  - but WITHOUT ANY WARRANTY; without even the implied warranty of
  - MERCHANTABILITY or FITNESS FOR A PARTICULAR PURPOSE.  See the
  - GNU Affero General Public License for more details.
  -
  - You should have received a copy of the GNU Affero General Public License
  - along with this program.  If not, see <https://www.gnu.org/licenses/>.
  -->

<!-- Generator: Adobe Illustrator 15.1.0, SVG Export Plug-In . SVG Version: 6.00 Build 0)  -->
<!DOCTYPE svg PUBLIC "-//W3C//DTD SVG 1.1//EN" "http://www.w3.org/Graphics/SVG/1.1/DTD/svg11.dtd">
<svg version="1.1" id="Layer_1" xmlns="http://www.w3.org/2000/svg" xmlns:xlink="http://www.w3.org/1999/xlink" x="0px" y="0px"
	 width="30px" height="30px" viewBox="0 0 30 30" enable-background="new 0 0 30 30" xml:space="preserve">
<g>
	<path fill="#FFFFFF" d="M-1.328-1.329h32.656v32.657H-1.328V-1.329z"/>
	<path fill="#236BB3" d="M14.289,6.09c0.275,0.124,0.41,0.496,0.503,0.997l2.947,15.845L3.588,14.6L0.244,2.224
		C0.151,1.862,0.467,1.63,0.766,1.725l5.789,1.903c0.654,0.211,0.324-0.916,0.82-0.766l4.353,1.313
		c0.431,0.157,0.257,1.1,0.69,1.292L14.289,6.09L14.289,6.09z"/>
	<path fill="#EEBD31" d="M21.8,4.076L6.924,0.24C6.637,0.173,6.45,0.316,6.346,0.649L5.651,3.331l0.902,0.297
		c0.654,0.211,0.325-0.916,0.821-0.766l4.353,1.313c0.431,0.156,0.256,1.1,0.69,1.292l1.872,0.623
		c0.275,0.124,0.41,0.496,0.503,0.997l2.947,15.843l0.001,0.002L22.233,4.94C22.317,4.547,22.113,4.172,21.8,4.076L21.8,4.076z"/>
	<path fill="#C9D3EB" d="M30.226,16.887l-10.173-3.217l-2.313,9.26h-0.001v0.002l13.008-5.583
		C31.058,17.179,30.584,17.03,30.226,16.887L30.226,16.887z"/>
</g>
</svg>
