<?xml version="1.0" encoding="utf-8"?>
<!--
  - This file is part of StyleBI.
  - Copyright (C) 2024  InetSoft Technology
  -
  - This program is free software: you can redistribute it and/or modify
  - it under the terms of the GNU Affero General Public License as published by
  - the Free Software Foundation, either version 3 of the License, or
  - (at your option) any later version.
  -
  - This program is distributed in the hope that it will be useful,
  - but WITHOUT ANY WARRANTY; without even the implied warranty of
  - MERCHANTABILITY or FITNESS FOR A PARTICULAR PURPOSE.  See the
  - GNU Affero General Public License for more details.
  -
  - You should have received a copy of the GNU Affero General Public License
  - along with this program.  If not, see <https://www.gnu.org/licenses/>.
  -->

<!-- Generator: Adobe Illustrator 15.1.0, SVG Export Plug-In . SVG Version: 6.00 Build 0)  -->
<!DOCTYPE svg PUBLIC "-//W3C//DTD SVG 1.1//EN" "http://www.w3.org/Graphics/SVG/1.1/DTD/svg11.dtd">
<svg version="1.1" id="Layer_1" xmlns="http://www.w3.org/2000/svg" xmlns:xlink="http://www.w3.org/1999/xlink" x="0px" y="0px"
	 width="30px" height="30px" viewBox="0 0 30 30" enable-background="new 0 0 30 30" xml:space="preserve">
<g id="Placement_ONLY" display="none">
</g>
<g>
	<g id="BASE">
		
			<linearGradient id="SVGID_1_" gradientUnits="userSpaceOnUse" x1="15.0005" y1="-634.4673" x2="15.0005" y2="-659.4918" gradientTransform="matrix(1 0 0 -1 0 -632)">
			<stop  offset="0" style="stop-color:#4387FD"/>
			<stop  offset="1" style="stop-color:#4683EA"/>
		</linearGradient>
		<path fill="url(#SVGID_1_)" d="M7.034,26.267L1.26,16.265c-0.45-0.783-0.45-1.746,0-2.531L7.034,3.732
			C7.485,2.95,8.321,2.467,9.224,2.467h11.551c0.903,0,1.738,0.481,2.191,1.265l5.773,10.002c0.451,0.785,0.451,1.748,0,2.531
			l-5.773,10.002c-0.453,0.783-1.288,1.266-2.191,1.266H9.226C8.321,27.534,7.485,27.05,7.034,26.267z"/>
	</g>
	<g id="shadow">
		<g>
			<g>
				<g>
					<g>
						<defs>
							<path id="SVGID_2_" d="M7.034,26.267L1.26,16.265c-0.45-0.783-0.45-1.746,0-2.531L7.034,3.732
								C7.485,2.95,8.321,2.467,9.224,2.467h11.551c0.903,0,1.738,0.481,2.191,1.265l5.773,10.002c0.451,0.785,0.451,1.748,0,2.531
								l-5.773,10.002c-0.453,0.783-1.288,1.266-2.191,1.266H9.226C8.321,27.534,7.485,27.05,7.034,26.267z"/>
						</defs>
						<clipPath id="SVGID_3_">
							<use xlink:href="#SVGID_2_"  overflow="visible"/>
						</clipPath>
						<polygon opacity="0.07" clip-path="url(#SVGID_3_)" enable-background="new    " points="27.149,19.944 18.657,11.453 
							15.001,10.474 11.716,11.693 10.446,14.999 11.468,18.681 20.474,27.687 22.385,27.601 						"/>
					</g>
				</g>
			</g>
		</g>
	</g>
	<g id="art">
		<g>
			<g>
				<path fill="#FFFFFF" d="M15.001,9.896c-2.818,0-5.104,2.285-5.104,5.103c0,2.818,2.285,5.104,5.104,5.104
					s5.104-2.285,5.104-5.104C20.104,12.181,17.819,9.896,15.001,9.896 M15.001,18.87c-2.139,0-3.871-1.73-3.871-3.871
					c0-2.138,1.732-3.871,3.871-3.871s3.871,1.732,3.871,3.871C18.872,17.138,17.14,18.87,15.001,18.87"/>
				<path fill="#FFFFFF" d="M12.579,14.802v1.585c0.234,0.404,0.564,0.74,0.963,0.986v-2.572H12.579z"/>
				<path fill="#FFFFFF" d="M14.489,13.465v4.27c0.164,0.029,0.332,0.049,0.504,0.049c0.158,0,0.311-0.018,0.461-0.041v-4.277
					L14.489,13.465L14.489,13.465z"/>
				<path fill="#FFFFFF" d="M16.489,15.462v1.883c0.402-0.258,0.734-0.611,0.963-1.033v-0.848L16.489,15.462L16.489,15.462z"/>
				<path fill="#FFFFFF" d="M18.673,18.144l-0.527,0.527c-0.094,0.092-0.094,0.246,0,0.338l2.004,2.006
					c0.095,0.092,0.244,0.092,0.34,0l0.527-0.527c0.094-0.096,0.094-0.244,0-0.34l-2.007-2.004
					C18.918,18.05,18.765,18.05,18.673,18.144"/>
			</g>
		</g>
	</g>
	<g id="Guides">
	</g>
</g>
</svg>
