<?xml version="1.0" encoding="utf-8"?>
<!--
  - This file is part of StyleBI.
  -
  - Copyright (c) 2024, InetSoft Technology Corp, All Rights Reserved.
  -
  - The software and information contained herein are copyrighted and
  - proprietary to InetSoft Technology Corp. This software is furnished
  - pursuant to a written license agreement and may be used, copied,
  - transmitted, and stored only in accordance with the terms of such
  - license and with the inclusion of the above copyright notice. Please
  - refer to the file "COPYRIGHT" for further copyright and licensing
  - information. This software and information or any other copies
  - thereof may not be provided or otherwise made available to any other
  - person.
  -->

<!-- Generator: Adobe Illustrator 15.1.0, SVG Export Plug-In . SVG Version: 6.00 Build 0)  -->
<!DOCTYPE svg PUBLIC "-//W3C//DTD SVG 1.1//EN" "http://www.w3.org/Graphics/SVG/1.1/DTD/svg11.dtd">
<svg version="1.1" id="Layer_1" xmlns="http://www.w3.org/2000/svg" xmlns:xlink="http://www.w3.org/1999/xlink" x="0px" y="0px"
	 width="30px" height="30px" viewBox="0 0 30 30" enable-background="new 0 0 30 30" xml:space="preserve">
<title>logo-gpdb-light</title>
<path fill="#80BC00" d="M22.076,8.58c-3.92-3.405-9.857-2.989-13.263,0.929C5.49,13.332,5.794,19.102,9.5,22.554
	c0.876,0.787,1.621,1.171,2.282,1.171c1.271,0,2.219-1.422,3.446-3.214c0.738-1.146,1.555-2.234,2.448-3.264
	c0.928-0.992,1.925-1.921,2.979-2.774c1.577-1.328,2.814-2.37,2.836-3.542C23.5,10.222,23.036,9.451,22.076,8.58z M17.979,14.212
	c-0.604,0.472-1.173,0.989-1.698,1.549c-0.508,0.595-0.97,1.225-1.386,1.887c-0.627,0.949-1.072,1.632-1.665,1.632
	c-0.209-0.012-0.408-0.101-0.554-0.25c-1.869-1.77-1.949-4.716-0.181-6.582c1.704-1.803,4.521-1.951,6.406-0.34
	c0.2,0.15,0.318,0.384,0.321,0.634C19.19,13.218,18.689,13.635,17.979,14.212z"/>
<path fill="#80BC00" d="M15.005,1.753C7.689,1.75,1.756,7.678,1.753,14.995c-0.003,7.317,5.925,13.25,13.242,13.252
	c7.317,0.002,13.25-5.927,13.252-13.242l0,0C28.25,7.689,22.319,1.756,15.005,1.753L15.005,1.753z M23.359,22.514
	c-4.155,4.61-11.26,4.983-15.875,0.833l0,0C2.809,19.196,2.38,12.042,6.531,7.364c4.15-4.675,11.306-5.104,15.983-0.954
	c4.627,4.104,5.102,11.166,1.066,15.855L23.359,22.514z"/>
</svg>
