<?xml version="1.0" encoding="utf-8"?>
<!--
  - This file is part of StyleBI.
  -
  - Copyright (c) 2024, InetSoft Technology Corp, All Rights Reserved.
  -
  - The software and information contained herein are copyrighted and
  - proprietary to InetSoft Technology Corp. This software is furnished
  - pursuant to a written license agreement and may be used, copied,
  - transmitted, and stored only in accordance with the terms of such
  - license and with the inclusion of the above copyright notice. Please
  - refer to the file "COPYRIGHT" for further copyright and licensing
  - information. This software and information or any other copies
  - thereof may not be provided or otherwise made available to any other
  - person.
  -->

<!-- Generator: Adobe Illustrator 15.1.0, SVG Export Plug-In . SVG Version: 6.00 Build 0)  -->
<!DOCTYPE svg PUBLIC "-//W3C//DTD SVG 1.1//EN" "http://www.w3.org/Graphics/SVG/1.1/DTD/svg11.dtd">
<svg version="1.1" id="Layer_1" xmlns="http://www.w3.org/2000/svg" xmlns:xlink="http://www.w3.org/1999/xlink" x="0px" y="0px"
	 width="40px" height="30px" viewBox="286 381 40 30" enable-background="new 286 381 40 30" xml:space="preserve">
<g>
	
		<ellipse transform="matrix(-0.6482 -0.7614 0.7614 -0.6482 184.9048 894.941)" fill="#2296DB" cx="299.168" cy="404.761" rx="2.325" ry="3.554"/>
	<polygon fill="#2296DB" points="316.906,394.667 289.71,394.262 316.908,393.929 	"/>
	
		<ellipse transform="matrix(-0.6484 -0.7613 0.7613 -0.6484 201.8496 892.7338)" fill="#2296DB" cx="307.087" cy="399.753" rx="2.209" ry="3.377"/>
	
		<ellipse transform="matrix(-0.6483 -0.7614 0.7614 -0.6483 225.817 893.116)" fill="#696D70" cx="319.199" cy="394.399" rx="2.319" ry="3.546"/>
	
		<ellipse transform="matrix(-0.6483 -0.7614 0.7614 -0.6483 185.7205 883.5864)" fill="#2296DB" cx="296.946" cy="398.896" rx="1.976" ry="3.021"/>
	
		<ellipse transform="matrix(-0.6482 -0.7615 0.7615 -0.6482 200.5729 881.4603)" fill="#2296DB" cx="303.898" cy="394.399" rx="1.878" ry="2.87"/>
	
		<ellipse transform="matrix(-0.6483 -0.7614 0.7614 -0.6483 215.9272 879.5759)" fill="#2296DB" cx="311.1" cy="389.92" rx="1.784" ry="2.727"/>
	
		<ellipse transform="matrix(-0.6482 -0.7614 0.7614 -0.6482 213.4825 871.0805)" fill="#2296DB" cx="307.947" cy="386.229" rx="1.516" ry="2.318"/>
	
		<ellipse transform="matrix(-0.6483 -0.7614 0.7614 -0.6483 199.6329 872.8448)" fill="#2296DB" cx="301.396" cy="390.318" rx="1.592" ry="2.433"/>
	
		<ellipse transform="matrix(-0.6483 -0.7614 0.7614 -0.6483 186.418 874.7117)" fill="#2296DB" cx="295.246" cy="394.298" rx="1.592" ry="2.434"/>
</g>
</svg>
