<?xml version="1.0" encoding="utf-8"?>
<!--
  - This file is part of StyleBI.
  - Copyright (C) 2024  InetSoft Technology
  -
  - This program is free software: you can redistribute it and/or modify
  - it under the terms of the GNU Affero General Public License as published by
  - the Free Software Foundation, either version 3 of the License, or
  - (at your option) any later version.
  -
  - This program is distributed in the hope that it will be useful,
  - but WITHOUT ANY WARRANTY; without even the implied warranty of
  - MERCHANTABILITY or FITNESS FOR A PARTICULAR PURPOSE.  See the
  - GNU Affero General Public License for more details.
  -
  - You should have received a copy of the GNU Affero General Public License
  - along with this program.  If not, see <https://www.gnu.org/licenses/>.
  -->

<!-- Generator: Adobe Illustrator 15.1.0, SVG Export Plug-In . SVG Version: 6.00 Build 0)  -->
<!DOCTYPE svg PUBLIC "-//W3C//DTD SVG 1.1//EN" "http://www.w3.org/Graphics/SVG/1.1/DTD/svg11.dtd">
<svg version="1.1" id="Layer_1" xmlns="http://www.w3.org/2000/svg" xmlns:xlink="http://www.w3.org/1999/xlink" x="0px" y="0px"
	 width="30px" height="30px" viewBox="35 35 30 30" enable-background="new 35 35 30 30" xml:space="preserve">
<g>
	<rect x="38.012" y="37.971" width="23.977" height="12.231"/>
	<path fill="#FFFFFF" d="M40.159,40.199v0.554h3.942v-0.554H40.159z M44.659,40.199v0.554h5.617c0,0-0.573-0.554-1.333-0.554H44.659
		z M51.377,40.199v0.554h3.399l-0.202-0.554H51.377z M57.212,40.199l-0.202,0.554h3.368v-0.554H57.212z M40.159,41.276v0.555h3.942
		v-0.555H40.159z M44.659,41.277v0.554h6.269c0,0-0.073-0.427-0.201-0.554H44.659L44.659,41.277z M51.377,41.277v0.554h3.771
		l-0.187-0.554H51.377L51.377,41.277z M56.809,41.277l-0.187,0.554h3.755v-0.554H56.809z M41.292,42.354v0.555h1.707v-0.555H41.292
		L41.292,42.354z M45.792,42.354v0.555h1.707v-0.555H45.792L45.792,42.354z M49.159,42.354v0.555h1.708c0,0,0.107-0.293,0.107-0.555
		H49.159L49.159,42.354z M52.51,42.354v0.555h3.026l-0.201-0.555H52.51L52.51,42.354z M56.438,42.354l-0.203,0.555h3.042v-0.555
		H56.438L56.438,42.354z M41.292,43.433v0.555h1.707v-0.555H41.292L41.292,43.433z M45.792,43.433v0.555h4.36
		c0,0,0.365-0.284,0.48-0.555H45.792z M52.51,43.433v0.555h1.707v-0.309l0.108,0.309h3.127l0.117-0.309v0.309h1.707v-0.555h-3.205
		l-0.17,0.47l-0.171-0.47H52.51z M41.292,44.511v0.554h1.707v-0.554H41.292z M45.792,44.511v0.554h4.84
		c-0.116-0.269-0.48-0.554-0.48-0.554H45.792z M52.51,44.511v0.554h1.707v-0.554H52.51z M54.527,44.511l0.206,0.554h2.346
		l0.195-0.554H54.527z M57.568,44.511v0.554h1.707v-0.554H57.568z M41.292,45.588v0.554h1.707v-0.554H41.292z M45.792,45.588v0.554
		h1.707v-0.554H45.792z M49.159,45.588v0.554h1.815c0-0.262-0.107-0.554-0.107-0.554H49.159z M52.51,45.588v0.554h1.707v-0.554
		H52.51z M54.915,45.588l0.2,0.554h1.571l0.201-0.554H54.915z M57.568,45.588v0.554h1.707v-0.554H57.568z M40.189,46.667v0.555
		h3.942v-0.555H40.189z M44.659,46.667v0.555h6.068c0.128-0.127,0.201-0.555,0.201-0.555H44.659L44.659,46.667z M51.408,46.667
		v0.555h2.809v-0.555H51.408z M55.304,46.667l0.205,0.555h0.8l0.193-0.555H55.304z M57.568,46.667v0.555h2.84v-0.555H57.568z
		 M40.189,47.745v0.554h3.942v-0.554H40.189z M44.659,47.745v0.553h4.283c0.76,0,1.333-0.553,1.333-0.553H44.659z M51.408,47.745
		v0.554h2.809v-0.554H51.408z M55.693,47.745l0.198,0.553l0.033,0l0.201-0.553H55.693L55.693,47.745z M57.568,47.745v0.554h2.84
		v-0.554H57.568z"/>
	<rect x="38.012" y="49.797" fill="#094687" width="23.977" height="12.231"/>
	<g>
		<path fill="#FFFFFF" d="M43.282,56.24l-0.28,1.009h-0.916l1.196-3.931h1.166l1.226,3.931h-0.962l-0.303-1.009H43.282z
			 M44.279,55.576l-0.245-0.834c-0.07-0.234-0.141-0.525-0.198-0.759h-0.012c-0.058,0.232-0.116,0.53-0.181,0.759l-0.233,0.834
			H44.279z"/>
		<path fill="#FFFFFF" d="M46.221,56.334c0.233,0.122,0.607,0.245,0.986,0.245c0.408,0,0.624-0.169,0.624-0.426
			c0-0.245-0.187-0.385-0.659-0.549c-0.654-0.233-1.085-0.595-1.085-1.166c0-0.671,0.565-1.179,1.487-1.179
			c0.449,0,0.77,0.088,1.003,0.199l-0.198,0.711c-0.152-0.076-0.438-0.187-0.816-0.187c-0.385,0-0.571,0.181-0.571,0.38
			c0,0.25,0.215,0.361,0.729,0.554c0.694,0.256,1.015,0.618,1.015,1.172c0,0.659-0.502,1.22-1.581,1.22
			c-0.449,0-0.892-0.123-1.114-0.245L46.221,56.334z"/>
		<path fill="#FFFFFF" d="M50.77,57.249v-0.903H49.09v-0.577l1.429-2.311h1.091v2.223h0.449v0.664H51.61v0.904H50.77L50.77,57.249z
			 M50.77,55.681v-0.84c0-0.228,0.013-0.46,0.024-0.705h-0.018c-0.122,0.244-0.228,0.466-0.356,0.705l-0.501,0.828l-0.006,0.012
			H50.77L50.77,55.681z"/>
		<path fill="#FFFFFF" d="M55.237,55.337c0,1.166-0.473,1.977-1.435,1.977c-0.98,0-1.412-0.881-1.417-1.954
			c0-1.102,0.46-1.965,1.44-1.965C54.835,53.395,55.237,54.299,55.237,55.337z M53.272,55.359c0,0.869,0.209,1.283,0.547,1.283
			c0.345,0,0.531-0.432,0.531-1.294c0-0.84-0.18-1.283-0.536-1.283C53.493,54.065,53.272,54.473,53.272,55.359z"/>
		<path fill="#FFFFFF" d="M58.474,55.337c0,1.166-0.472,1.977-1.435,1.977c-0.979,0-1.411-0.881-1.417-1.954
			c0-1.102,0.461-1.965,1.44-1.965C58.072,53.395,58.474,54.299,58.474,55.337z M56.509,55.359c0,0.869,0.21,1.283,0.548,1.283
			c0.344,0,0.531-0.432,0.531-1.294c0-0.84-0.182-1.283-0.537-1.283C56.729,54.065,56.509,54.473,56.509,55.359z"/>
	</g>
</g>
</svg>
