<?xml version="1.0" encoding="utf-8"?>
<!--
  - This file is part of StyleBI.
  - Copyright (C) 2024  InetSoft Technology
  -
  - This program is free software: you can redistribute it and/or modify
  - it under the terms of the GNU Affero General Public License as published by
  - the Free Software Foundation, either version 3 of the License, or
  - (at your option) any later version.
  -
  - This program is distributed in the hope that it will be useful,
  - but WITHOUT ANY WARRANTY; without even the implied warranty of
  - MERCHANTABILITY or FITNESS FOR A PARTICULAR PURPOSE.  See the
  - GNU Affero General Public License for more details.
  -
  - You should have received a copy of the GNU Affero General Public License
  - along with this program.  If not, see <https://www.gnu.org/licenses/>.
  -->

<!-- Generator: Adobe Illustrator 15.1.0, SVG Export Plug-In . SVG Version: 6.00 Build 0)  -->
<!DOCTYPE svg PUBLIC "-//W3C//DTD SVG 1.1//EN" "http://www.w3.org/Graphics/SVG/1.1/DTD/svg11.dtd">
<svg version="1.1" id="Layer_1" xmlns="http://www.w3.org/2000/svg" xmlns:xlink="http://www.w3.org/1999/xlink" x="0px" y="0px"
	 width="27.562px" height="66px" viewBox="508.219 1217 27.562 66" enable-background="new 508.219 1217 27.562 66"
	 xml:space="preserve">
<path fill="#2C6791" d="M528.405,1221.559c0.338,0.409,0.638,0.809,0.954,1.233c4.127,5.532,5.367,12.159,4.167,18.906
	c-0.077,0.429-0.302,0.448-0.623,0.757c-1.98,1.912-3.891,3.895-5.074,6.411c-0.497,1.058-0.75,2.246-0.994,3.4
	c-0.072,0.346,0.174,0.993,0.445,1.112c0.305,0.132,0.942-0.049,1.19-0.318c1.264-1.372,2.48-2.792,3.647-4.247
	c0.797-0.993,1.488-2.071,2.302-3.074c0.22,2.195,0.18,4.353-0.825,6.321c-0.425,1.252-0.968,1.4-1.65,2.154
	c-0.773,0.582-1.666,1.465-2.215,2.202c-0.855,1.374-0.811,2.482,0.474,3.444c0.082,0.049,0.504,0.252,0.64,0.282
	c-0.288,0.194-0.544,0.258-1.209,0.451c-0.023,0.999-0.855,1.663-1.1,2.13c-0.114,0.447-0.157,0.514-0.194,1.012
	c-0.314,4.288-0.947,8.929-2.541,12.964c-0.539,1.365-1.19,2.22-2.54,2.784c-0.162,0.068-0.918,0.461-1.015,0.481
	c0.333-0.528,0.396-1.308-0.045-1.906c-0.316-0.429-1.578-0.405-1.986-0.798c0.077-0.018,0.619,0.023,0.696,0.025
	c0.643,0.022,1.251-0.011,1.44-0.803c0.152-0.635-0.187-1.27-0.827-1.715c-0.435-0.303-0.735-0.389-1.107-0.769
	c-0.089-0.091-0.225-0.595-0.131-0.928c0.009-0.034,0.043-0.054,0.077-0.046c0.009,0.004,0.018,0.008,0.025,0.014
	c0.42,0.377,0.967,0.775,1.317,1.194c0.225,0.205,0.509,0.442,0.704,0.439c0.206-0.002,0.325-0.254,0.569-0.425
	c0.556-0.496,0.755-0.737,1.104-1.415c0.062-0.372-0.07-1.005-0.188-1.464c-0.487-1.92-0.642-3.918-0.141-5.845
	c0.358-1.381,0.872-2.79,1.641-3.979c1.226-1.902,1.282-3.643-0.002-5.464c-2.196-3.113-1.943-6.26-0.164-9.45
	c1.268-2.274,2.899-4.253,4.706-6.113c0.375-0.385,0.619-0.424,0.722-0.951c1.322-6.098,0.509-12.282-2.404-17.704
	c-0.129-0.234-1.217-1.746-1.233-1.831C527.051,1220.011,528.37,1221.582,528.405,1221.559L528.405,1221.559z M516.493,1254.531
	c-0.07-0.892-0.079-1.732-0.212-2.553c-0.53-3.28-2.269-5.918-4.487-8.29c-0.176-0.188-0.339-0.402-0.548-0.545
	c-1.108-0.761-1.446-1.879-1.59-3.142c-0.8-7.038,0.988-13.279,5.664-18.648c0.031-0.036,0.957-1.243,1.108-1.303
	c-1.312,2.285-2.872,4.517-3.612,8.336c-0.716,3.697-0.724,7.364,0.05,11.036c0.079,0.375,0.354,0.748,0.627,1.036
	c1.942,2.044,3.771,4.188,4.885,6.799c0.534,1.252,0.895,2.627,1.049,3.98C519.638,1253.071,518.5,1254.253,516.493,1254.531
	L516.493,1254.531z M514.52,1260.303c1.771-1.179,3.086-0.812,3.828,0.795c0.789,1.709,1.291,4.174,1.377,6.058
	c-0.446-1.093-1.066-2.822-1.501-3.918c-0.205-0.516-0.475-0.89-1.108-0.878c-0.592,0.011-0.982-0.336-1.111-0.892
	c-0.059-0.254-0.129-0.636-0.284-0.809C515.461,1260.372,515.036,1260.366,514.52,1260.303L514.52,1260.303z M513.901,1254.699
	c-2.313-1.548-3.986-3.531-4.303-6.487C510.871,1248.758,513.18,1252.192,513.901,1254.699L513.901,1254.699z"/>
</svg>
