<?xml version="1.0" encoding="utf-8"?>
<!--
  - This file is part of StyleBI.
  - Copyright (C) 2024  InetSoft Technology
  -
  - This program is free software: you can redistribute it and/or modify
  - it under the terms of the GNU Affero General Public License as published by
  - the Free Software Foundation, either version 3 of the License, or
  - (at your option) any later version.
  -
  - This program is distributed in the hope that it will be useful,
  - but WITHOUT ANY WARRANTY; without even the implied warranty of
  - MERCHANTABILITY or FITNESS FOR A PARTICULAR PURPOSE.  See the
  - GNU Affero General Public License for more details.
  -
  - You should have received a copy of the GNU Affero General Public License
  - along with this program.  If not, see <https://www.gnu.org/licenses/>.
  -->

<!-- Generator: Adobe Illustrator 15.1.0, SVG Export Plug-In . SVG Version: 6.00 Build 0)  -->
<!DOCTYPE svg PUBLIC "-//W3C//DTD SVG 1.1//EN" "http://www.w3.org/Graphics/SVG/1.1/DTD/svg11.dtd">
<svg version="1.1" id="Layer_1" xmlns="http://www.w3.org/2000/svg" xmlns:xlink="http://www.w3.org/1999/xlink" x="0px" y="0px"
	 width="30px" height="30px" viewBox="1235 1235 30 30" enable-background="new 1235 1235 30 30" xml:space="preserve">
<g>
	<path fill="#33348E" d="M1251.943,1238.853l-0.75,2.659h-2.41l-5.636,19.637h-1.727c-0.734,0.006-1.334-0.584-1.341-1.317
		c0-0.008,0-0.016,0-0.023v-19.615c0-0.75,0.636-1.341,1.341-1.341L1251.943,1238.853L1251.943,1238.853z"/>
	<path fill="#33348E" d="M1256.967,1238.853l-5.614,19.637h-1.205l4.568-16.022l-0.909-0.956l-5.613,19.637h10.387
		c0.734,0.006,1.334-0.584,1.34-1.318c0.001-0.008,0.001-0.016,0-0.022v-19.615c0-0.75-0.658-1.341-1.34-1.341L1256.967,1238.853
		L1256.967,1238.853z"/>
</g>
</svg>
