<?xml version="1.0" encoding="utf-8"?>
<!--
  - This file is part of StyleBI.
  -
  - Copyright (c) 2024, InetSoft Technology Corp, All Rights Reserved.
  -
  - The software and information contained herein are copyrighted and
  - proprietary to InetSoft Technology Corp. This software is furnished
  - pursuant to a written license agreement and may be used, copied,
  - transmitted, and stored only in accordance with the terms of such
  - license and with the inclusion of the above copyright notice. Please
  - refer to the file "COPYRIGHT" for further copyright and licensing
  - information. This software and information or any other copies
  - thereof may not be provided or otherwise made available to any other
  - person.
  -->

<!-- Generator: Adobe Illustrator 15.1.0, SVG Export Plug-In . SVG Version: 6.00 Build 0)  -->
<!DOCTYPE svg PUBLIC "-//W3C//DTD SVG 1.1//EN" "http://www.w3.org/Graphics/SVG/1.1/DTD/svg11.dtd">
<svg version="1.1" id="svg2" xmlns:svg="http://www.w3.org/2000/svg"
	 xmlns="http://www.w3.org/2000/svg" xmlns:xlink="http://www.w3.org/1999/xlink" x="0px" y="0px" width="70px" height="30px"
	 viewBox="0 0 70 30" enable-background="new 0 0 70 30" xml:space="preserve">
<g id="layer1">
	<g id="INGRES" transform="matrix(0.6239032,0,0,0.6239032,-42.124657,-268.14258)">
		<path id="R" fill="#0193CF" stroke="#0193CF" stroke-width="0.204" d="M121.476,445.689l-0.016,16.141h2.936v-13.726
			c2.349-0.002,4.698-0.002,7.048-0.005c1.13,0.025,2.038,1.016,2.038,2.227c0,1.209-0.908,2.192-2.038,2.219v0.008h-4.918
			l9.06,9.266h3.93l-7.468-7.235c0.069,0.002,0.139,0.002,0.21,0.002c2.451,0,4.442-1.989,4.442-4.445
			c0-2.457-1.991-4.452-4.442-4.452h-10.781V445.689z"/>
		<path id="N" fill="#0193CF" stroke="#0193CF" stroke-width="0.5" d="M82.959,461.717h3.134v-10.959l14.528,11.624v-16.57H97.51
			v11.04l-14.533-11.585L82.959,461.717z"/>
		<path id="I" fill="#0193CF" d="M77.724,445.772l2.916-0.002v15.959h-2.934L77.724,445.772z"/>
		<path id="G" fill="#0193CF" stroke="#0193CF" stroke-width="0.8627" stroke-linecap="round" d="M111.768,445.35
			c-5.506,0.067-9.262,3.836-9.271,8.376c-0.009,4.81,4.02,8.385,9.811,8.371c2.961-0.008,5.543-1.017,7.315-2.667v-6.581
			c-1.319,0.041-7.597-0.002-7.615,0.007c-0.02,0.014,0,2.209-0.005,2.216c-0.008,0.008,4.7,0.02,4.715,0.025
			c0.024,1.803-0.002,1.698-0.002,3.085c-1.157,0.961-2.72,1.535-4.483,1.54c-3.872,0.009-6.559-2.554-6.553-6.001
			c0.006-3.258,2.511-5.958,6.192-6.008c0.118-0.001,0.241-0.004,0.361,0c1.824,0.062,3.471,0.747,4.66,1.836l1.927-2.009
			c-1.732-1.299-4.012-2.108-6.511-2.185C112.126,445.35,111.945,445.348,111.768,445.35z"/>
		<path id="E" fill="#0193CF" d="M137.181,445.815l2.281,2.351h12.045v-2.351H137.181z M139.411,452.229l2.279,2.357h9.809v-2.357
			H139.411z M139.411,459.402l2.227,2.357h9.861v-2.357H139.411z"/>
		<path id="S" fill="#0193CF" d="M160.772,445.392c-4.206,0-7.045,1.931-7.045,4.725c0,2.498,2.675,3.681,5.555,4.369
			c0.69,0.165,3.298,0.52,5.774,1.5c1.201,0.476,1.816,2.061,0.008,3.105c-0.848,0.484-2.176,0.751-3.89,0.639
			c-3.088-0.208-4.876-1.013-5.147-3.231h-2.955c-0.005,0.038-0.013,0.075-0.013,0.113c-0.022,4.037,4.298,5.543,8.56,5.599
			c3.303,0.219,6.619-1.157,7.435-3.12c1.067-2.229,0.208-3.943-1.49-5.118c-1.512-0.93-4.276-1.464-8.283-2.232
			c-1.172-0.322-2.112-0.83-2.112-1.593c-0.003-1.41,1.548-2.416,3.671-2.456c2.01-0.038,4.268,0.864,5.032,1.887l2.138-1.56
			C166.584,446.488,163.734,445.392,160.772,445.392z"/>
	</g>
</g>
</svg>
