<?xml version="1.0" encoding="utf-8"?>
<!--
  - This file is part of StyleBI.
  - Copyright (C) 2024  InetSoft Technology
  -
  - This program is free software: you can redistribute it and/or modify
  - it under the terms of the GNU Affero General Public License as published by
  - the Free Software Foundation, either version 3 of the License, or
  - (at your option) any later version.
  -
  - This program is distributed in the hope that it will be useful,
  - but WITHOUT ANY WARRANTY; without even the implied warranty of
  - MERCHANTABILITY or FITNESS FOR A PARTICULAR PURPOSE.  See the
  - GNU Affero General Public License for more details.
  -
  - You should have received a copy of the GNU Affero General Public License
  - along with this program.  If not, see <https://www.gnu.org/licenses/>.
  -->

<!-- Generator: Adobe Illustrator 15.1.0, SVG Export Plug-In . SVG Version: 6.00 Build 0)  -->
<!DOCTYPE svg PUBLIC "-//W3C//DTD SVG 1.1//EN" "http://www.w3.org/Graphics/SVG/1.1/DTD/svg11.dtd">
<svg version="1.1" id="Layer_1" xmlns="http://www.w3.org/2000/svg" xmlns:xlink="http://www.w3.org/1999/xlink" x="0px" y="0px"
	 width="30px" height="30px" viewBox="0 0 30 30" enable-background="new 0 0 30 30" xml:space="preserve">
<path fill="#356483" d="M12.678,16.525c0,0-0.711,0.412,0.504,0.554c1.472,0.168,2.224,0.146,3.845-0.164
	c0,0,0.427,0.269,1.021,0.498C14.413,18.973,9.821,17.325,12.678,16.525"/>
<path fill="#356483" d="M12.233,14.493c0,0-0.796,0.59,0.419,0.717c1.572,0.16,2.813,0.174,4.961-0.24c0,0,0.297,0.303,0.764,0.467
	C13.982,16.723,9.088,15.537,12.233,14.493"/>
<path fill="#C95100" d="M15.977,11.044c0.896,1.032-0.234,1.959-0.234,1.959s2.273-1.174,1.229-2.644
	c-0.976-1.371-1.723-2.052,2.326-4.399C19.299,5.96,12.941,7.548,15.977,11.044"/>
<path fill="#356483" d="M20.784,18.03c0,0,0.524,0.434-0.577,0.768c-2.1,0.636-8.732,0.828-10.576,0.024
	c-0.662-0.287,0.582-0.688,0.971-0.772c0.408-0.088,0.642-0.069,0.642-0.069C10.507,17.46,6.481,19,9.199,19.439
	C16.609,20.641,22.706,18.896,20.784,18.03"/>
<path fill="#356483" d="M13.018,12.386c0,0-3.375,0.803-1.194,1.094c0.92,0.125,2.754,0.095,4.466-0.047
	c1.396-0.117,2.797-0.367,2.797-0.367s-0.491,0.209-0.849,0.454c-3.427,0.899-10.047,0.481-8.142-0.439
	C11.709,12.298,13.018,12.386,13.018,12.386"/>
<path fill="#356483" d="M19.073,15.771c3.481-1.81,1.872-3.549,0.747-3.314c-0.275,0.059-0.398,0.108-0.398,0.108
	s0.104-0.161,0.299-0.229c2.225-0.783,3.937,2.306-0.717,3.528C19.004,15.861,19.055,15.814,19.073,15.771"/>
<path fill="#C95100" d="M16.971,2.167c0,0,1.93,1.932-1.83,4.898c-3.014,2.38-0.688,3.738,0,5.288
	c-1.76-1.587-3.051-2.985-2.185-4.285C14.227,6.158,17.75,5.232,16.971,2.167"/>
<path fill="#356483" d="M13.36,20.677c3.346,0.214,8.479-0.12,8.601-1.7c0,0-0.23,0.601-2.764,1.075
	c-2.854,0.537-6.375,0.476-8.462,0.13C10.735,20.182,11.163,20.534,13.36,20.677"/>
<g>
	<path fill="#323232" d="M6.544,28.268c0.312-0.023,0.567-0.096,0.72-0.256c0.176-0.184,0.239-0.496,0.239-1.271v-3.15h1.216v3.446
		c0,0.848-0.185,1.367-0.552,1.703c-0.36,0.336-0.928,0.479-1.503,0.479L6.544,28.268z M8.75,22.503
		c0,0.336-0.247,0.606-0.655,0.606c-0.384,0-0.632-0.271-0.632-0.606c0-0.344,0.256-0.606,0.647-0.606
		C8.503,21.896,8.743,22.159,8.75,22.503z"/>
	<path fill="#323232" d="M10.759,23.135H9.304v-1.023h4.142v1.023h-1.472V27.5h-1.215V23.135z"/>
	<path fill="#323232" d="M14.095,22.191c0.448-0.072,1.032-0.121,1.639-0.121c1.031,0,1.703,0.191,2.215,0.576
		c0.561,0.416,0.912,1.08,0.912,2.03c0,1.031-0.377,1.743-0.889,2.183c-0.566,0.473-1.438,0.695-2.495,0.695
		c-0.632,0-1.088-0.039-1.384-0.08L14.095,22.191L14.095,22.191z M15.311,26.58c0.104,0.023,0.279,0.023,0.423,0.023
		c1.111,0.008,1.84-0.6,1.84-1.887c0-1.119-0.656-1.711-1.711-1.711c-0.264,0-0.449,0.023-0.552,0.049V26.58z"/>
	<path fill="#323232" d="M19.703,26.245c0.32,0.167,0.832,0.335,1.352,0.335c0.559,0,0.855-0.23,0.855-0.583
		c0-0.336-0.256-0.528-0.904-0.752c-0.895-0.319-1.486-0.815-1.486-1.599c0-0.92,0.775-1.615,2.039-1.615
		c0.615,0,1.055,0.119,1.375,0.271l-0.271,0.976c-0.209-0.104-0.601-0.256-1.121-0.256c-0.526,0-0.783,0.248-0.783,0.521
		c0,0.344,0.298,0.496,1,0.76c0.951,0.353,1.392,0.849,1.392,1.607c0,0.903-0.688,1.671-2.166,1.671
		c-0.615,0-1.223-0.168-1.527-0.336L19.703,26.245z"/>
</g>
</svg>
