<?xml version="1.0" encoding="utf-8"?>
<!--
  - This file is part of StyleBI.
  - Copyright (C) 2024  InetSoft Technology
  -
  - This program is free software: you can redistribute it and/or modify
  - it under the terms of the GNU Affero General Public License as published by
  - the Free Software Foundation, either version 3 of the License, or
  - (at your option) any later version.
  -
  - This program is distributed in the hope that it will be useful,
  - but WITHOUT ANY WARRANTY; without even the implied warranty of
  - MERCHANTABILITY or FITNESS FOR A PARTICULAR PURPOSE.  See the
  - GNU Affero General Public License for more details.
  -
  - You should have received a copy of the GNU Affero General Public License
  - along with this program.  If not, see <https://www.gnu.org/licenses/>.
  -->

<!-- Generator: Adobe Illustrator 15.1.0, SVG Export Plug-In . SVG Version: 6.00 Build 0)  -->
<!DOCTYPE svg PUBLIC "-//W3C//DTD SVG 1.1//EN" "http://www.w3.org/Graphics/SVG/1.1/DTD/svg11.dtd">
<svg version="1.1" id="Layer_1" xmlns="http://www.w3.org/2000/svg" xmlns:xlink="http://www.w3.org/1999/xlink" x="0px" y="0px"
	 width="110px" height="30px" viewBox="0 0 110 30" enable-background="new 0 0 110 30" xml:space="preserve">
<g>
	<g>
		<path fill="#323232" d="M16.327,8.943h2.918v10.483h5.147v2.458h-8.065V8.943z"/>
		<path fill="#323232" d="M28.443,8.943v7.431c0,2.247,0.864,3.38,2.343,3.38c1.536,0,2.381-1.075,2.381-3.38V8.943h2.919v7.259
			c0,3.993-2.017,5.894-5.396,5.894c-3.264,0-5.165-1.823-5.165-5.933v-7.22H28.443z"/>
		<path fill="#323232" d="M48.104,21.539c-0.518,0.249-1.747,0.557-3.303,0.557c-4.474,0-6.778-2.804-6.778-6.489
			c0-4.417,3.149-6.855,7.066-6.855c1.517,0,2.669,0.288,3.187,0.576l-0.615,2.304c-0.576-0.25-1.402-0.48-2.458-0.48
			c-2.304,0-4.108,1.402-4.108,4.283c0,2.592,1.536,4.224,4.128,4.224c0.902,0,1.862-0.173,2.457-0.423L48.104,21.539z"/>
		<path fill="#323232" d="M52.979,8.943v12.941h-2.918V8.943H52.979z"/>
		<path fill="#323232" d="M55.514,9.135c1.076-0.172,2.478-0.288,3.938-0.288c2.477,0,4.089,0.46,5.317,1.382
			c1.344,0.999,2.189,2.592,2.189,4.877c0,2.477-0.902,4.185-2.132,5.243c-1.363,1.133-3.457,1.67-5.991,1.67
			c-1.517,0-2.61-0.096-3.321-0.191V9.135z M58.432,19.677c0.25,0.057,0.672,0.057,1.019,0.057c2.669,0.02,4.416-1.44,4.416-4.531
			c0-2.688-1.575-4.11-4.109-4.11c-0.634,0-1.075,0.058-1.325,0.115V19.677z"/>
	</g>
	<g>
		<path fill="#1C93BE" d="M70.708,9.135c1.075-0.172,2.478-0.288,3.936-0.288c2.478,0,4.091,0.46,5.319,1.382
			c1.344,0.999,2.188,2.592,2.188,4.877c0,2.477-0.901,4.185-2.131,5.243c-1.363,1.133-3.456,1.67-5.991,1.67
			c-1.517,0-2.611-0.096-3.321-0.191V9.135z M73.627,19.677c0.249,0.057,0.672,0.057,1.016,0.057c2.669,0.02,4.418-1.44,4.418-4.531
			c0-2.688-1.574-4.11-4.109-4.11c-0.634,0-1.076,0.058-1.324,0.115V19.677z"/>
		<path fill="#1C93BE" d="M84.07,9.116c0.769-0.134,2.305-0.269,3.783-0.269c1.785,0,2.882,0.172,3.84,0.729
			c0.903,0.48,1.536,1.363,1.536,2.554c0,1.133-0.672,2.188-2.131,2.746v0.038c1.479,0.384,2.574,1.518,2.574,3.169
			c0,1.19-0.538,2.112-1.345,2.765c-0.942,0.749-2.516,1.171-5.088,1.171c-1.441,0-2.516-0.096-3.169-0.191L84.07,9.116L84.07,9.116
			z M86.971,14.069h0.959c1.557,0,2.362-0.634,2.362-1.593c0-0.979-0.749-1.498-2.073-1.498c-0.653,0-1.019,0.038-1.249,0.076
			L86.971,14.069L86.971,14.069z M86.971,19.812c0.287,0.037,0.634,0.037,1.133,0.037c1.324,0,2.496-0.518,2.496-1.881
			c0-1.286-1.172-1.805-2.631-1.805h-0.998V19.812z"/>
	</g>
</g>
</svg>
