<?xml version="1.0" encoding="utf-8"?>
<!--
  - This file is part of StyleBI.
  - Copyright (C) 2024  InetSoft Technology
  -
  - This program is free software: you can redistribute it and/or modify
  - it under the terms of the GNU Affero General Public License as published by
  - the Free Software Foundation, either version 3 of the License, or
  - (at your option) any later version.
  -
  - This program is distributed in the hope that it will be useful,
  - but WITHOUT ANY WARRANTY; without even the implied warranty of
  - MERCHANTABILITY or FITNESS FOR A PARTICULAR PURPOSE.  See the
  - GNU Affero General Public License for more details.
  -
  - You should have received a copy of the GNU Affero General Public License
  - along with this program.  If not, see <https://www.gnu.org/licenses/>.
  -->

<!-- Generator: Adobe Illustrator 15.1.0, SVG Export Plug-In . SVG Version: 6.00 Build 0)  -->
<!DOCTYPE svg PUBLIC "-//W3C//DTD SVG 1.1//EN" "http://www.w3.org/Graphics/SVG/1.1/DTD/svg11.dtd">
<svg version="1.1" id="layer" xmlns="http://www.w3.org/2000/svg" xmlns:xlink="http://www.w3.org/1999/xlink" x="0px" y="0px"
	 width="60px" height="30px" viewBox="0 0 60 30" enable-background="new 0 0 60 30" xml:space="preserve">
<g>
	<rect x="5.219" y="6.537" fill="#C8102E" width="49.561" height="16.926"/>
	<path fill="#FFFFFF" d="M51.037,19.126L51.037,19.126c0.067-0.016,0.116-0.075,0.116-0.141c0-0.05-0.017-0.099-0.06-0.125
		c-0.057-0.031-0.132-0.048-0.198-0.04c-0.073,0-0.148,0.009-0.224,0.018v0.577h0.134v-0.232h0.066c0.073,0,0.107,0.026,0.114,0.092
		c0.008,0.051,0.025,0.091,0.051,0.141h0.14c-0.023-0.05-0.032-0.09-0.04-0.141C51.13,19.2,51.087,19.15,51.037,19.126z
		 M50.872,19.084h-0.056v-0.163c0.023-0.01,0.047-0.01,0.073-0.01c0.081,0,0.124,0.032,0.124,0.092
		C51.014,19.051,50.947,19.084,50.872,19.084z"/>
	<path fill="#FFFFFF" d="M50.906,18.531c-0.322,0.008-0.578,0.272-0.571,0.595c0.009,0.322,0.272,0.578,0.595,0.569
		c0.314-0.008,0.569-0.262,0.569-0.584C51.493,18.788,51.229,18.522,50.906,18.531L50.906,18.531z M50.906,19.572
		c-0.256,0.008-0.473-0.182-0.479-0.438c-0.009-0.256,0.18-0.472,0.436-0.48c0.256-0.008,0.473,0.183,0.481,0.438
		c0,0.009,0,0.019,0,0.024c0.007,0.248-0.183,0.446-0.432,0.454C50.915,19.563,50.906,19.572,50.906,19.572z"/>
	<path fill="#FFFFFF" d="M36.995,10.321h-2.909c-1.171,0-1.435,0.364-1.435,1.354v6.742l-3.496-7.064
		c-0.421-0.776-0.819-1.165-1.429-1.156c-0.661,0.008-1.049,0.396-1.371,1.156l-3.487,7.031l-1.8-7.031
		c-0.206-0.816-0.752-1.156-1.372-1.156c-0.62,0-1.098,0.322-1.387,1.156l-2.19,7.064l-2.139-7.064
		c-0.264-0.833-0.759-1.156-1.388-1.156c-0.627,0-1.156,0.339-1.362,1.156l-2.148,8.401h1.43l2.089-8.185l2.181,7.17
		c0.223,0.735,0.801,1.081,1.347,1.058c0.552,0.017,1.115-0.322,1.362-1.058l2.198-7.195l1.8,7.004
		c0.208,0.868,0.719,1.249,1.363,1.249c0.603,0,1.041-0.463,1.363-1.058l3.519-7.111l1.626,3.261h-2.387l-0.687,1.373h3.743
		l1.248,2.486c0.404,0.734,0.668,1.057,1.411,1.057c0.759,0,1.362-0.299,1.362-1.948l0.009-6.154h3.025
		c1.667,0,1.972,0.859,1.972,1.546c0,0.685-0.346,1.635-2.007,1.644h-2.247v1.354h2.148c2.634,0,3.618-1.24,3.618-3.007
		C40.581,11.478,39.573,10.321,36.995,10.321z"/>
	<path fill="#FFFFFF" d="M49.386,13.261c0-1.758-0.999-2.94-3.602-2.94h-4.111c-0.967,0-0.967,1.379,0,1.379h4.187
		c1.67,0,2.007,0.875,2.007,1.561c0,0.686-0.346,1.569-2.007,1.569l-4.509,0.018l0.017,4.89h1.396l-0.009-3.544h2.841l2.479,3.526
		h1.692l-2.578-3.666C48.634,15.756,49.386,14.625,49.386,13.261z"/>
</g>
</svg>
