<?xml version="1.0" encoding="utf-8"?>
<!--
  - This file is part of StyleBI.
  -
  - Copyright (c) 2024, InetSoft Technology Corp, All Rights Reserved.
  -
  - The software and information contained herein are copyrighted and
  - proprietary to InetSoft Technology Corp. This software is furnished
  - pursuant to a written license agreement and may be used, copied,
  - transmitted, and stored only in accordance with the terms of such
  - license and with the inclusion of the above copyright notice. Please
  - refer to the file "COPYRIGHT" for further copyright and licensing
  - information. This software and information or any other copies
  - thereof may not be provided or otherwise made available to any other
  - person.
  -->

<!-- Generator: Adobe Illustrator 15.1.0, SVG Export Plug-In . SVG Version: 6.00 Build 0)  -->
<!DOCTYPE svg PUBLIC "-//W3C//DTD SVG 1.1//EN" "http://www.w3.org/Graphics/SVG/1.1/DTD/svg11.dtd">
<svg version="1.1"
	 id="svg2" xmlns:svg="http://www.w3.org/2000/svg" xmlns:dc="http://purl.org/dc/elements/1.1/" xmlns:cc="http://creativecommons.org/ns#" xmlns:sodipodi="http://sodipodi.sourceforge.net/DTD/sodipodi-0.dtd" xmlns:rdf="http://www.w3.org/1999/02/22-rdf-syntax-ns#" xmlns:inkscape="http://www.inkscape.org/namespaces/inkscape" inkscape:version="0.47 r22583" sodipodi:docname="mariadb-seal-flat-browntext.svg" inkscape:export-ydpi="89.714859" inkscape:export-xdpi="89.714859" inkscape:export-filename="/mnt/files/documents/monty-program-ab/logos-dbart/mariadb-seal-flat-browntext.png"
	 xmlns="http://www.w3.org/2000/svg" xmlns:xlink="http://www.w3.org/1999/xlink" x="0px" y="0px" width="210px" height="129.41px"
	 viewBox="102.31 0 210 129.41" enable-background="new 102.31 0 210 129.41" xml:space="preserve">
<defs>
	
	
		<inkscape:perspective  inkscape:vp_x="0 : 526.18109 : 1" inkscape:vp_y="0 : 1000 : 0" sodipodi:type="inkscape:persp3d" inkscape:vp_z="744.09448 : 526.18109 : 1" id="perspective10" inkscape:persp3d-origin="372.04724 : 350.78739 : 1">
		</inkscape:perspective>
	
		<inkscape:perspective  inkscape:vp_x="0 : 0.5 : 1" inkscape:vp_y="0 : 1000 : 0" sodipodi:type="inkscape:persp3d" inkscape:vp_z="1 : 0.5 : 1" id="perspective5832" inkscape:persp3d-origin="0.5 : 0.33333333 : 1">
		</inkscape:perspective>
	
		<inkscape:perspective  inkscape:vp_x="0 : 59.706104 : 1" inkscape:vp_y="0 : 1000 : 0" sodipodi:type="inkscape:persp3d" inkscape:vp_z="179.82086 : 59.706104 : 1" id="perspective2491" inkscape:persp3d-origin="89.910431 : 39.80407 : 1">
		</inkscape:perspective>
</defs>
<sodipodi:namedview  inkscape:cy="65.420389" showgrid="false" pagecolor="#ffffff" borderopacity="1.0" bordercolor="#666666" inkscape:cx="20.59729" inkscape:zoom="1" id="base" inkscape:window-maximized="1" inkscape:window-y="24" inkscape:window-x="0" inkscape:window-height="975" inkscape:window-width="1680" inkscape:current-layer="layer1" inkscape:document-units="px" inkscape:pageshadow="2" inkscape:pageopacity="0.0">
	</sodipodi:namedview>
<g id="layer1-8" transform="translate(-144.5456,180.71539)" inkscape:label="Layer 1">
	
		<g id="g3392" inkscape:export-ydpi="90" inkscape:export-xdpi="90" inkscape:export-filename="/mnt/files/documents/monty-program-ab/logos-dbart/MariaDB-seal-flat.png">
		
			<path id="path9" sodipodi:nodetypes="czssccsccssccccsccsssssz" inkscape:export-ydpi="90" inkscape:export-xdpi="90" inkscape:export-filename="/mnt/files/documents/monty-program-ab/logos/seal-flat.png" fill="#002B64" d="
			M429.419-175.713c-2.779,0.089-1.9,0.89-7.905,2.367c-6.064,1.492-13.471,1.035-20.001,3.773
			c-19.493,8.175-23.404,36.116-41.125,46.125c-13.246,7.482-26.61,8.078-38.625,11.844c-7.896,2.477-16.534,7.554-23.688,13.719
			c-5.553,4.787-5.698,8.996-11.5,15c-6.206,6.422-24.666,0.108-33.031,9.938c2.695,2.725,3.876,3.488,9.188,2.781
			c-1.1,2.084-7.582,3.84-6.313,6.906c1.335,3.227,17.005,5.412,31.25-3.188c6.634-4.006,11.918-9.778,22.25-11.156
			c13.37-1.782,28.772,1.143,44.25,3.375c-2.295,6.843-6.903,11.394-10.594,16.844c-1.143,1.23,2.295,1.369,6.219,0.625
			c7.058-1.745,12.143-3.15,17.469-6.25c6.543-3.809,7.534-13.574,15.563-15.688c4.473,6.875,16.638,8.499,24.188,3
			c-6.624-1.875-8.455-15.975-6.219-22.188c2.118-5.881,4.21-15.289,6.344-23.063c2.29-8.349,3.135-18.872,5.906-23.125
			c4.169-6.398,8.776-8.596,12.776-12.204c4-3.608,7.662-7.121,7.541-15.376C433.323-174.312,431.948-175.794,429.419-175.713
			L429.419-175.713z"/>
		
			<path id="path3352" inkscape:export-ydpi="90" inkscape:export-xdpi="90" inkscape:export-filename="/mnt/files/documents/monty-program-ab/logos/seal-flat.png" fill="#C49A6C" d="
			M259.298-63.848c10.144,1.453,16.313,0,24.459-3.533c6.931-3.006,13.625-9.203,21.81-11.83
			c12.021-3.857,25.203,0.005,38.053,0.775c3.129,0.188,6.238,0.189,9.307-0.145c4.787-2.941,4.688-13.947,9.347-14.955
			c-0.137,15.44-6.467,24.691-13.086,33.649c13.952-2.464,22.301-10.534,27.94-21.313c1.711-3.268,3.172-6.784,4.464-10.469
			c1.997,1.533,0.865,6.197,1.869,8.724c9.61-5.353,15.112-17.57,18.757-29.926c4.216-14.3,5.941-28.78,8.661-33.011
			c2.653-4.13,6.784-6.676,10.554-9.32c4.284-3.006,8.105-6.139,8.766-11.867c-4.519-0.418-5.563-1.463-6.231-3.74
			c-2.263,1.275-4.342,1.548-6.692,1.618c-2.039,0.062-4.279-0.029-7.015,0.252c-22.627,2.324-25.502,27.263-40.005,41.401
			c-1.055,1.028-2.196,1.987-3.402,2.887c-5.078,3.785-11.31,6.49-17.04,8.68c-9.275,3.544-18.093,3.796-26.795,6.854
			c-6.388,2.245-12.879,5.503-18.126,9.093c-1.312,0.897-2.548,1.816-3.685,2.746c-3.079,2.52-5.1,5.314-7.055,8.189
			c-2.016,2.963-3.963,6.011-6.931,8.923c-4.808,4.722-22.774,1.377-29.099,5.755c-0.705,0.487-1.265,1.072-1.646,1.774
			c3.451,1.567,5.756,0.606,9.726,1.045C266.722-67.823,258.01-65.584,259.298-63.848L259.298-63.848z"/>
		
			<path id="path3873" inkscape:export-ydpi="90" inkscape:export-xdpi="90" inkscape:export-filename="/mnt/files/documents/monty-program-ab/logos/seal-flat.png" fill="#C49A6C" d="
			M396.382-90.989c0.271,4.322,2.778,12.897,4.993,14.981c-4.338,1.055-11.811-0.688-13.728-3.748
			C388.633-84.173,393.759-88.212,396.382-90.989z"/>
		
			<path id="path3880" inkscape:export-ydpi="90" inkscape:export-xdpi="90" inkscape:export-filename="/mnt/files/documents/monty-program-ab/logos/seal-flat.png" fill="#002B64" d="
			M402.737-159.581c3.203,2.781,9.924,0.549,8.723-4.984C406.483-164.976,403.6-163.287,402.737-159.581z"/>
		
			<path id="path3882" inkscape:export-ydpi="90" inkscape:export-xdpi="90" inkscape:export-filename="/mnt/files/documents/monty-program-ab/logos/seal-flat.png" fill="#002B64" d="
			M425.069-166.046c-0.853,1.787-2.484,4.091-2.484,8.64c-0.006,0.781-0.592,1.316-0.602,0.112c0.043-4.446,1.221-6.368,2.471-8.894
			C425.033-167.223,425.384-166.796,425.069-166.046z"/>
		
			<path id="path3884" inkscape:export-ydpi="90" inkscape:export-xdpi="90" inkscape:export-filename="/mnt/files/documents/monty-program-ab/logos/seal-flat.png" fill="#002B64" d="
			M424.209-166.719c-1.004,1.705-3.424,4.815-3.824,9.347c-0.074,0.777-0.706,1.258-0.609,0.057c0.436-4.424,2.369-7.193,3.838-9.6
			C424.279-167.894,424.592-167.439,424.209-166.719z"/>
		
			<path id="path3886" inkscape:export-ydpi="90" inkscape:export-xdpi="90" inkscape:export-filename="/mnt/files/documents/monty-program-ab/logos/seal-flat.png" fill="#002B64" d="
			M423.428-167.611c-1.145,1.614-4.87,5.349-5.648,9.832c-0.141,0.767-0.811,1.195-0.613,0.006c0.806-4.373,4.017-7.81,5.682-10.083
			C423.594-168.777,423.867-168.296,423.428-167.611z"/>
		
			<path id="path3888" inkscape:export-ydpi="90" inkscape:export-xdpi="90" inkscape:export-filename="/mnt/files/documents/monty-program-ab/logos/seal-flat.png" fill="#002B64" d="
			M422.73-168.607c-1.36,1.437-5.801,6.2-7.2,10.528c-0.248,0.74-0.972,1.07-0.608-0.08c1.411-4.216,5.301-8.757,7.269-10.773
			C423.059-169.738,423.261-169.223,422.73-168.607L422.73-168.607z"/>
	</g>
</g>
</svg>
