<?xml version="1.0" encoding="utf-8"?>
<!--
  - This file is part of StyleBI.
  - Copyright (C) 2024  InetSoft Technology
  -
  - This program is free software: you can redistribute it and/or modify
  - it under the terms of the GNU Affero General Public License as published by
  - the Free Software Foundation, either version 3 of the License, or
  - (at your option) any later version.
  -
  - This program is distributed in the hope that it will be useful,
  - but WITHOUT ANY WARRANTY; without even the implied warranty of
  - MERCHANTABILITY or FITNESS FOR A PARTICULAR PURPOSE.  See the
  - GNU Affero General Public License for more details.
  -
  - You should have received a copy of the GNU Affero General Public License
  - along with this program.  If not, see <https://www.gnu.org/licenses/>.
  -->

<!-- Generator: Adobe Illustrator 15.1.0, SVG Export Plug-In . SVG Version: 6.00 Build 0)  -->
<!DOCTYPE svg PUBLIC "-//W3C//DTD SVG 1.1//EN" "http://www.w3.org/Graphics/SVG/1.1/DTD/svg11.dtd">
<svg version="1.1" id="Layer_1" xmlns="http://www.w3.org/2000/svg" xmlns:xlink="http://www.w3.org/1999/xlink" x="0px" y="0px"
	 width="120px" height="30px" viewBox="-10 0 120 30" enable-background="new -10 0 120 30" xml:space="preserve">
<g>
	<path d="M26.11,21.811h-6.246v-0.862c0.514,0,0.944-0.043,1.162-0.174c0.259-0.089,0.432-0.259,0.475-0.473
		c0.088-0.22,0.131-0.479,0.131-0.82v-7.798l-4.695,10.127h-0.563l-4.739-10.086v7.412c0,0.389,0,0.686,0.042,0.905
		c0.042,0.216,0.084,0.387,0.217,0.517c0.127,0.125,0.301,0.256,0.517,0.345c0.259,0.084,0.603,0.084,1.032,0.084v0.866h-4.61
		v-0.866c0.433,0,0.778-0.038,1.036-0.127c0.259-0.089,0.429-0.171,0.518-0.348c0.128-0.13,0.17-0.302,0.216-0.516
		c0.041-0.216,0.041-0.518,0.041-0.903v-7.065c0-0.517-0.041-0.904-0.086-1.123c-0.042-0.215-0.215-0.387-0.472-0.516
		c-0.258-0.13-0.647-0.17-1.25-0.17V9.355h4.568l4.135,8.793l4.135-8.793h4.44v0.864c-0.777,0-1.25,0.128-1.463,0.345
		c-0.216,0.215-0.346,0.603-0.346,1.12v7.8c0,0.347,0.042,0.603,0.13,0.818c0.088,0.214,0.259,0.388,0.518,0.472
		c0.259,0.133,0.646,0.175,1.204,0.175v0.862L26.11,21.811L26.11,21.811z"/>
	<path d="M36.449,19.869c0,0.476-0.09,0.862-0.299,1.207c-0.175,0.346-0.429,0.559-0.778,0.734c-0.3,0.17-0.688,0.213-1.075,0.213
		c-0.517,0-0.947-0.13-1.295-0.346c-0.344-0.259-0.558-0.517-0.603-0.86c-1.032,0.815-2.068,1.249-3.059,1.249
		c-0.647,0-1.206-0.173-1.638-0.478c-0.43-0.299-0.646-0.73-0.646-1.249c0-0.429,0.129-0.814,0.347-1.164
		c0.217-0.344,0.559-0.643,0.99-0.945c0.429-0.258,0.948-0.518,1.551-0.733c0.604-0.216,1.377-0.429,2.281-0.642v-0.517
		c0-0.435-0.086-0.778-0.298-1.037c-0.214-0.258-0.607-0.39-1.121-0.39c-0.476,0-0.819,0.087-1.033,0.302
		c-0.216,0.217-0.348,0.475-0.432,0.903c-0.042,0.301-0.131,0.519-0.259,0.688c-0.13,0.173-0.387,0.259-0.815,0.259
		c-0.259,0-0.476-0.084-0.689-0.213c-0.216-0.131-0.298-0.351-0.298-0.649c0-0.56,0.298-1.075,0.904-1.464
		c0.604-0.431,1.549-0.646,2.842-0.646c1.337,0,2.284,0.216,2.759,0.689c0.517,0.429,0.777,1.074,0.777,1.809v2.887
		c0,0.389,0,0.647,0.042,0.821c0,0.168,0.086,0.299,0.171,0.384c0.087,0.088,0.217,0.131,0.389,0.131c0.17,0,0.302-0.087,0.43-0.254
		c0.132-0.176,0.171-0.352,0.171-0.607h0.689L36.449,19.869L36.449,19.869z M32.227,19.911v-2.283
		c-1.164,0.389-1.896,0.735-2.198,1.074c-0.301,0.348-0.475,0.69-0.475,1.036c0,0.301,0.086,0.517,0.259,0.687
		c0.173,0.172,0.429,0.257,0.734,0.257c0.345,0,0.646-0.085,0.905-0.216C31.667,20.345,31.926,20.173,32.227,19.911"/>
	<path d="M45.066,15.432c0,0.345-0.129,0.649-0.344,0.818c-0.217,0.216-0.476,0.302-0.778,0.302c-0.345,0-0.645-0.175-0.903-0.518
		c-0.131-0.175-0.218-0.261-0.299-0.349C42.654,15.6,42.568,15.6,42.396,15.6c-0.475,0-0.861,0.26-1.12,0.774
		c-0.259,0.518-0.389,1.036-0.389,1.596v1.594c0,0.515,0.085,0.861,0.214,1.033c0.13,0.173,0.476,0.301,1.036,0.301h0.474v0.862
		h-5.688v-0.862h0.475c0.516,0,0.815-0.089,0.946-0.301c0.128-0.216,0.17-0.555,0.17-1.033v-2.673c0-0.387-0.043-0.688-0.128-0.862
		c-0.087-0.171-0.217-0.299-0.433-0.345c-0.213-0.043-0.556-0.088-1.032-0.088v-0.862l3.575-0.776
		c0.084,0.298,0.171,0.99,0.259,1.984c0.171-0.348,0.388-0.69,0.688-0.994c0.256-0.299,0.599-0.557,0.946-0.732
		c0.344-0.174,0.688-0.258,1.077-0.258c0.517,0,0.904,0.129,1.205,0.429C44.937,14.7,45.066,15.043,45.066,15.432"/>
	<path d="M55.494,21.811h-4.57v-0.862c0.519,0,0.82-0.089,0.82-0.303c0-0.13-0.088-0.301-0.22-0.473l-1.679-2.198l-0.946,0.646
		v1.165c0,0.387,0.042,0.646,0.129,0.815c0.087,0.173,0.171,0.259,0.299,0.302c0.131,0.042,0.347,0.042,0.646,0.042v0.862h-4.739
		v-0.862c0.345,0,0.646-0.042,0.816-0.087c0.174-0.089,0.301-0.218,0.387-0.391c0.087-0.167,0.131-0.472,0.131-0.863v-7.797
		c0-0.299-0.042-0.518-0.131-0.646c-0.084-0.129-0.213-0.216-0.387-0.258c-0.17-0.041-0.431-0.087-0.816-0.087V9.953l3.706-0.815
		v8.445l2.583-1.767c0.17-0.131,0.259-0.218,0.349-0.258c0.042-0.045,0.087-0.13,0.087-0.172c0-0.174-0.131-0.258-0.431-0.258
		h-0.516V14.27h3.875v0.86c-0.646,0.044-1.332,0.345-2.068,0.86l-0.947,0.649l2.457,3.317c0.258,0.349,0.474,0.56,0.645,0.734
		c0.17,0.17,0.347,0.259,0.561,0.259v0.862h-0.04V21.811z"/>
	<path fill="#CB3137" d="M77.512,18.02c0,0.817-0.217,1.551-0.604,2.153c-0.391,0.604-0.948,1.076-1.64,1.422
		c-0.688,0.346-1.424,0.475-2.239,0.475c-0.777,0-1.511-0.13-2.199-0.43c-0.688-0.299-1.252-0.775-1.679-1.378
		c-0.429-0.604-0.647-1.382-0.647-2.245c0-1.333,0.432-2.325,1.332-3.018c0.905-0.688,1.983-1.033,3.232-1.033
		c0.948,0,1.726,0.171,2.413,0.557c0.688,0.391,1.162,0.865,1.507,1.462C77.337,16.64,77.512,17.285,77.512,18.02 M75.009,17.974
		c0-1.032-0.127-1.811-0.429-2.327c-0.259-0.516-0.815-0.776-1.593-0.776c-0.518,0-0.906,0.13-1.209,0.346
		c-0.297,0.217-0.472,0.558-0.603,1.077c-0.128,0.475-0.17,1.119-0.17,1.854c0,0.946,0.127,1.68,0.386,2.286
		c0.258,0.554,0.82,0.858,1.64,0.858c0.558,0,0.994-0.17,1.25-0.475c0.298-0.299,0.475-0.733,0.557-1.203
		C74.968,19.096,75.009,18.578,75.009,17.974"/>
	<path fill="#CB3137" d="M87.895,14.783c0,0.217-0.042,0.39-0.173,0.518c-0.13,0.13-0.257,0.216-0.389,0.216
		c-0.17,0-0.388-0.086-0.558-0.258c-0.046,0-0.087-0.044-0.174-0.13c-0.085-0.042-0.129-0.087-0.17-0.13
		c-0.039-0.041-0.089-0.041-0.173-0.041c-0.17,0-0.344,0.041-0.432,0.171c0.219,0.258,0.392,0.517,0.478,0.733
		c0.13,0.217,0.173,0.516,0.173,0.903c0,0.476-0.132,0.901-0.35,1.25c-0.213,0.349-0.514,0.559-0.859,0.777
		c-0.348,0.171-0.733,0.299-1.119,0.388c-0.392,0.088-0.866,0.17-1.466,0.259c-1.422,0.17-2.155,0.475-2.155,0.862
		c0,0.17,0.089,0.298,0.346,0.348c0.219,0.085,0.518,0.085,0.949,0.085h1.379c0.429,0,0.861,0.041,1.291,0.084
		c0.431,0.043,0.82,0.17,1.249,0.302c0.433,0.171,0.777,0.432,1.075,0.819c0.301,0.387,0.43,0.859,0.43,1.462
		c0,0.431-0.129,0.905-0.387,1.335c-0.259,0.429-0.774,0.817-1.462,1.164c-0.688,0.302-1.641,0.472-2.8,0.472
		c-0.905,0-1.854-0.128-2.761-0.341c-0.905-0.262-1.382-0.778-1.382-1.641c0-0.3,0.089-0.56,0.262-0.818
		c0.173-0.256,0.427-0.346,0.774-0.346c0.303,0,0.519,0.039,0.688,0.172c-0.132,0.216-0.219,0.429-0.219,0.688
		c0,0.388,0.219,0.734,0.69,1.036c0.473,0.297,1.166,0.427,2.113,0.427c0.946,0,1.678-0.13,2.241-0.389
		c0.559-0.258,0.815-0.645,0.815-1.074c0-0.301-0.13-0.561-0.343-0.733c-0.216-0.172-0.563-0.259-0.993-0.297
		c-0.432-0.044-1.122-0.089-2.027-0.089c-1.121,0-1.984-0.13-2.629-0.388c-0.645-0.22-0.946-0.732-0.946-1.465
		c0-0.646,0.257-1.073,0.735-1.378c0.473-0.302,1.071-0.518,1.763-0.647c-1.636-0.299-2.456-1.073-2.456-2.325
		c0-0.389,0.13-0.817,0.349-1.25c0.216-0.43,0.604-0.778,1.161-1.078c0.562-0.3,1.291-0.429,2.243-0.429
		c1.206,0,2.115,0.299,2.756,0.862c0.388-0.561,0.866-0.819,1.467-0.819c0.301,0,0.562,0.086,0.732,0.217
		C87.811,14.401,87.895,14.573,87.895,14.783 M84.101,16.725c0-0.519-0.128-0.995-0.348-1.336c-0.215-0.388-0.602-0.557-1.074-0.557
		c-0.514,0-0.903,0.169-1.117,0.515c-0.221,0.346-0.348,0.774-0.348,1.293c0,0.519,0.088,0.948,0.301,1.381
		c0.212,0.431,0.604,0.646,1.162,0.646c0.432,0,0.776-0.17,1.035-0.475C83.974,17.801,84.101,17.329,84.101,16.725"/>
	<path fill="#CB3137" d="M93.841,21.811h-4.955v-0.862h0.255c0.351,0,0.607-0.043,0.777-0.131c0.174-0.089,0.259-0.219,0.302-0.432
		c0.043-0.174,0.043-0.429,0.043-0.777v-2.714c0-0.388-0.043-0.644-0.089-0.813c-0.043-0.174-0.167-0.26-0.345-0.35
		c-0.174-0.086-0.519-0.128-0.947-0.128V14.74l3.748-0.774v5.643c0,0.519,0.043,0.862,0.174,1.036
		c0.128,0.173,0.472,0.303,1.029,0.303v0.86h0.008V21.811z M92.808,10.392c0,0.388-0.133,0.688-0.392,0.946
		c-0.259,0.258-0.561,0.39-0.947,0.39c-0.345,0-0.686-0.131-0.948-0.39c-0.255-0.259-0.385-0.558-0.385-0.946
		c0-0.345,0.13-0.688,0.385-0.948c0.262-0.259,0.561-0.386,0.948-0.386c0.387,0,0.688,0.127,0.947,0.386
		C92.677,9.703,92.808,10.003,92.808,10.392"/>
	<path fill="#CB3137" d="M102.499,19.911c-0.731,1.424-1.938,2.155-3.578,2.155c-0.772,0-1.508-0.173-2.15-0.478
		c-0.69-0.297-1.206-0.771-1.639-1.33c-0.431-0.604-0.607-1.295-0.607-2.068c0-0.557,0.131-1.075,0.35-1.593
		c0.216-0.516,0.556-0.948,0.944-1.334c0.433-0.389,0.904-0.732,1.509-0.948c0.56-0.216,1.206-0.346,1.854-0.346
		c0.859,0,1.591,0.172,2.24,0.517c0.646,0.346,0.947,0.776,0.947,1.382c0,0.259-0.089,0.515-0.302,0.688
		c-0.216,0.172-0.43,0.303-0.688,0.303c-0.255,0-0.429-0.046-0.558-0.176c-0.128-0.129-0.217-0.216-0.257-0.344
		c-0.044-0.131-0.087-0.352-0.173-0.648c-0.087-0.301-0.216-0.517-0.39-0.648c-0.171-0.131-0.427-0.172-0.774-0.172
		c-0.558,0-1.032,0.216-1.467,0.604c-0.428,0.388-0.645,1.162-0.645,2.327c0,0.604,0.089,1.165,0.259,1.678
		c0.17,0.518,0.429,0.906,0.815,1.208c0.392,0.298,0.817,0.43,1.382,0.43c0.604,0,1.075-0.132,1.38-0.43
		c0.301-0.302,0.604-0.644,0.861-1.033L102.499,19.911z"/>
	<path fill="#CB3137" d="M62.646,20.774c0.643,0,1.248-0.043,1.765-0.17c0.518-0.089,1.032-0.393,1.464-0.863
		c0.43-0.476,0.734-1.165,0.82-2.113h0.858l-0.084,4.137h-4.825h-0.043h-5.988v-0.862c0.774,0,1.247-0.128,1.463-0.344
		c0.215-0.219,0.347-0.607,0.347-1.122V11.68c0-0.347-0.04-0.646-0.132-0.816c-0.085-0.217-0.254-0.347-0.514-0.476
		c-0.258-0.13-0.646-0.171-1.206-0.171V9.354h6.246v0.864c-0.516,0-0.903,0.041-1.163,0.171c-0.257,0.086-0.428,0.258-0.515,0.429
		c-0.09,0.217-0.132,0.474-0.132,0.863v7.152c0,0.56,0.041,0.947,0.089,1.206c0.042,0.259,0.215,0.427,0.43,0.559
		C61.827,20.689,62.128,20.774,62.646,20.774L62.646,20.774z"/>
	<path fill="#CB3137" d="M0.901,17.89c0.646,0,1.204-0.559,1.204-1.205v-6.119c0-0.69-0.558-1.206-1.204-1.206h-6.118
		c-0.646,0-1.205,0.56-1.205,1.206v6.119c0,0.686,0.559,1.205,1.205,1.205H0.901z"/>
	<path fill="#CB3137" d="M6.503,8.538c0.518,0,0.946-0.43,0.946-0.947V4.573c0-0.518-0.429-0.948-0.946-0.948H3.491
		c-0.518,0-0.948,0.43-0.948,0.948V7.59c0,0.517,0.429,0.946,0.948,0.946h3.013V8.538z"/>
	<path fill="#CB3137" d="M104.007,15.174c0-0.173,0.043-0.344,0.084-0.476c0.046-0.129,0.132-0.259,0.259-0.388
		c0.092-0.087,0.221-0.173,0.392-0.258c0.128-0.043,0.301-0.087,0.475-0.087c0.17,0,0.345,0.042,0.475,0.087
		c0.13,0.04,0.259,0.129,0.389,0.258c0.084,0.086,0.17,0.213,0.258,0.388c0.043,0.131,0.085,0.3,0.085,0.476
		c0,0.171-0.04,0.344-0.085,0.473c-0.046,0.13-0.131,0.26-0.258,0.389c-0.089,0.084-0.216,0.17-0.389,0.257
		c-0.132,0.046-0.3,0.086-0.475,0.086c-0.172,0-0.348-0.038-0.475-0.086c-0.133-0.041-0.26-0.13-0.392-0.257
		c-0.084-0.084-0.167-0.216-0.259-0.389C104.05,15.519,104.007,15.346,104.007,15.174 M104.266,15.174
		c0,0.13,0.044,0.259,0.084,0.389c0.046,0.13,0.092,0.217,0.176,0.299c0.083,0.088,0.17,0.172,0.297,0.217
		c0.132,0.041,0.263,0.087,0.391,0.087c0.127,0,0.258-0.041,0.386-0.087c0.13-0.043,0.219-0.129,0.299-0.217
		c0.09-0.085,0.133-0.171,0.174-0.299c0.046-0.13,0.089-0.259,0.089-0.389c0-0.129-0.043-0.258-0.085-0.39
		c-0.045-0.127-0.09-0.213-0.174-0.299c-0.084-0.087-0.172-0.171-0.303-0.216c-0.128-0.044-0.254-0.086-0.386-0.086
		c-0.128,0-0.259,0.04-0.387,0.086c-0.134,0.041-0.218,0.13-0.301,0.216c-0.086,0.087-0.13,0.171-0.171,0.299
		C104.31,14.916,104.266,15.043,104.266,15.174 M105.386,15.302l0.346,0.519h-0.298l-0.301-0.478H105v0.478h-0.257v-1.207h0.43
		c0.043,0,0.129,0,0.172,0c0.041,0,0.131,0.044,0.171,0.044c0.043,0.042,0.089,0.084,0.132,0.127
		c0.042,0.043,0.042,0.087,0.042,0.174c0,0.085-0.042,0.169-0.088,0.214C105.559,15.217,105.476,15.261,105.386,15.302
		L105.386,15.302z M105.043,14.783v0.347h0.13c0.083,0,0.17,0,0.216-0.042c0.043-0.042,0.087-0.087,0.087-0.13
		c0-0.042,0-0.085-0.042-0.127c-0.043-0.042-0.087-0.042-0.175-0.042h-0.216V14.783L105.043,14.783z"/>
</g>
</svg>
