<?xml version="1.0" encoding="utf-8"?>
<!--
  - This file is part of StyleBI.
  -
  - Copyright (c) 2024, InetSoft Technology Corp, All Rights Reserved.
  -
  - The software and information contained herein are copyrighted and
  - proprietary to InetSoft Technology Corp. This software is furnished
  - pursuant to a written license agreement and may be used, copied,
  - transmitted, and stored only in accordance with the terms of such
  - license and with the inclusion of the above copyright notice. Please
  - refer to the file "COPYRIGHT" for further copyright and licensing
  - information. This software and information or any other copies
  - thereof may not be provided or otherwise made available to any other
  - person.
  -->

<!-- Generator: Adobe Illustrator 15.1.0, SVG Export Plug-In . SVG Version: 6.00 Build 0)  -->
<!DOCTYPE svg PUBLIC "-//W3C//DTD SVG 1.1//EN" "http://www.w3.org/Graphics/SVG/1.1/DTD/svg11.dtd">
<svg version="1.1" id="Layer_1" xmlns="http://www.w3.org/2000/svg" xmlns:xlink="http://www.w3.org/1999/xlink" x="0px" y="0px"
	 width="30px" height="30px" viewBox="0 0 30 30" enable-background="new 0 0 30 30" xml:space="preserve">
<path fill="#DBD6B6" stroke="#CC6600" stroke-miterlimit="10" d="M27.75,11.174v-2.55h-6.375V2.25h-2.549v6.375h-2.551V2.25h-2.55
	v6.375h-2.551V2.25h-2.55v6.375H2.25v2.55h6.375v2.55H2.25v2.551h6.375v2.551H2.25v2.549h6.375v6.375h2.55v-6.375h2.551v6.375h2.55
	v-6.375h2.551v6.375h2.549v-6.375h6.375v-2.549h-6.375v-2.551h6.375v-2.551h-6.375v-2.55H27.75z"/>
<rect x="4.5" y="4.5" fill="#F2F6D0" stroke="#CC6600" stroke-miterlimit="10" width="21" height="21"/>
<linearGradient id="SVGID_1_" gradientUnits="userSpaceOnUse" x1="-26490.0273" y1="-15473.626" x2="-26479.4336" y2="-15479.8848" gradientTransform="matrix(0.0675 0 0 0.0675 1798.8804 1066.2742)">
	<stop  offset="0.6061" style="stop-color:#646464"/>
	<stop  offset="0.8848" style="stop-color:#969696"/>
</linearGradient>
<path fill="url(#SVGID_1_)" d="M17.807,14.498l-3.479,1.136l-3.026,1.335l-0.846,0.224c-0.216,0.205-0.442,0.414-0.687,0.624
	c-0.27,0.231-0.519,0.442-0.709,0.595c-0.213,0.168-0.529,0.483-0.689,0.684c-0.239,0.299-0.428,0.618-0.51,0.861
	c-0.145,0.442-0.074,0.89,0.205,1.302c0.357,0.525,1.07,1.063,1.9,1.428c0.423,0.188,1.136,0.425,1.672,0.561
	c0.891,0.226,2.615,0.47,3.565,0.507c0.192,0.008,0.449,0.008,0.459,0c0.022-0.014,0.17-0.295,0.34-0.644
	c0.584-1.191,1.006-2.31,1.234-3.263c0.135-0.578,0.242-1.349,0.314-2.26c0.018-0.256,0.025-1.111,0.01-1.4
	c-0.021-0.473-0.064-0.856-0.131-1.232c-0.012-0.056-0.014-0.105-0.008-0.108c0.012-0.008,0.043-0.018,0.471-0.143L17.807,14.498
	L17.807,14.498L17.807,14.498L17.807,14.498z M17.012,14.963c0.031,0,0.115,0.807,0.137,1.318c0.006,0.107,0.002,0.178-0.002,0.178
	c-0.021,0-0.445-0.248-0.748-0.438c-0.262-0.165-0.762-0.497-0.84-0.559c-0.027-0.02-0.024-0.021,0.191-0.095
	C16.115,15.243,16.982,14.963,17.012,14.963z M15.24,15.547c0.023,0,0.084,0.034,0.228,0.125c0.542,0.339,1.278,0.749,1.592,0.886
	c0.1,0.042,0.109,0.026-0.115,0.179c-0.479,0.326-1.074,0.646-1.806,0.97c-0.129,0.059-0.236,0.103-0.239,0.103
	c-0.005,0,0.01-0.065,0.032-0.145c0.175-0.655,0.276-1.317,0.281-1.849c0.001-0.263,0.001-0.263,0.026-0.271
	C15.234,15.547,15.237,15.547,15.24,15.547L15.24,15.547z M14.875,15.687c0.016,0.017,0.004,0.604-0.016,0.765
	c-0.047,0.386-0.12,0.742-0.242,1.145c-0.029,0.098-0.056,0.179-0.06,0.185c-0.011,0.013-0.371-0.34-0.49-0.477
	c-0.205-0.237-0.365-0.473-0.484-0.705c-0.06-0.117-0.154-0.349-0.146-0.357C13.479,16.213,14.864,15.676,14.875,15.687
	L14.875,15.687z M13.154,16.362c0.003,0,0.005,0,0.009,0.003c0.004,0.005,0.023,0.048,0.039,0.094
	c0.084,0.229,0.274,0.566,0.438,0.782c0.178,0.235,0.412,0.489,0.607,0.654c0.063,0.053,0.12,0.102,0.129,0.11
	c0.016,0.016,0.021,0.014-0.408,0.176c-0.497,0.189-1.038,0.379-1.659,0.578c-0.147,0.048-0.296,0.096-0.445,0.146
	c-0.023,0.007-0.015-0.006,0.053-0.113c0.307-0.481,0.775-1.425,1.038-2.094c0.045-0.114,0.089-0.23,0.097-0.256
	c0.011-0.038,0.024-0.051,0.059-0.069C13.128,16.367,13.147,16.362,13.154,16.362L13.154,16.362z M12.629,16.581
	c0.007,0.005-0.126,0.285-0.258,0.544c-0.255,0.496-0.533,0.985-0.907,1.58c-0.063,0.103-0.124,0.196-0.132,0.207
	c-0.014,0.019-0.018,0.014-0.06-0.067c-0.09-0.177-0.163-0.403-0.202-0.611c-0.041-0.205-0.032-0.563,0.013-0.783
	c0.034-0.162,0.031-0.16,0.111-0.199C11.531,17.08,12.618,16.57,12.629,16.581L12.629,16.581z M17.164,16.764v0.111
	c0,0.586-0.063,1.392-0.154,1.977c-0.016,0.103-0.029,0.187-0.031,0.189c0,0-0.078-0.021-0.166-0.047
	c-0.395-0.124-0.823-0.306-1.21-0.519c-0.255-0.139-0.626-0.367-0.615-0.377c0.002-0.004,0.113-0.062,0.242-0.131
	c0.516-0.268,1.009-0.558,1.439-0.843c0.16-0.108,0.4-0.281,0.453-0.33L17.164,16.764L17.164,16.764z M10.644,17.542
	c0.01,0,0.008,0.021-0.007,0.116c-0.011,0.068-0.024,0.194-0.029,0.281c-0.022,0.385,0.042,0.668,0.231,1.058
	c0.052,0.106,0.095,0.196,0.092,0.199c-0.018,0.016-1.759,0.526-2.306,0.676c-0.163,0.044-0.306,0.084-0.315,0.087
	c-0.019,0.006-0.022,0.002-0.013-0.043c0.06-0.386,0.354-0.891,0.764-1.317c0.274-0.283,0.492-0.449,0.866-0.662
	c0.268-0.153,0.681-0.382,0.713-0.392C10.638,17.542,10.642,17.542,10.644,17.542L10.644,17.542z M14.745,18.276
	c0.003-0.003,0.066,0.032,0.142,0.076c0.562,0.325,1.345,0.628,2.013,0.783l0.061,0.013l-0.084,0.048
	c-0.35,0.194-1.498,0.674-2.673,1.113c-0.171,0.062-0.339,0.125-0.371,0.139c-0.031,0.013-0.06,0.021-0.06,0.018
	s0.047-0.095,0.108-0.208c0.328-0.616,0.661-1.364,0.829-1.885C14.729,18.324,14.744,18.279,14.745,18.276L14.745,18.276z
	 M14.328,18.413c0.002,0.003-0.019,0.059-0.044,0.121c-0.229,0.554-0.528,1.16-0.912,1.838c-0.098,0.174-0.179,0.313-0.182,0.313
	c-0.003,0-0.082-0.048-0.176-0.104c-0.558-0.342-1.052-0.764-1.375-1.172l-0.048-0.057l0.239-0.067
	c0.858-0.233,1.586-0.484,2.308-0.796C14.241,18.447,14.325,18.413,14.328,18.413z M16.926,19.32
	C16.926,19.32,16.928,19.322,16.926,19.32c0.002,0.061-0.133,0.602-0.242,0.993c-0.094,0.329-0.172,0.587-0.316,1.042
	c-0.063,0.198-0.119,0.364-0.119,0.364c-0.004,0-0.02-0.003-0.036-0.008c-0.78-0.142-1.48-0.34-2.137-0.603
	c-0.185-0.073-0.447-0.19-0.463-0.205c-0.005-0.005,0.153-0.078,0.353-0.165c1.196-0.523,2.438-1.117,2.862-1.373
	C16.877,19.336,16.916,19.32,16.926,19.32L16.926,19.32z M10.928,19.525c0.006,0.005-0.328,0.485-0.797,1.142
	c-0.163,0.229-0.352,0.496-0.422,0.597c-0.071,0.1-0.179,0.257-0.239,0.352l-0.111,0.171L9.24,21.686
	c-0.14-0.114-0.382-0.363-0.489-0.499c-0.226-0.281-0.379-0.578-0.439-0.849c-0.029-0.127-0.029-0.19-0.003-0.197
	c0.039-0.012,0.741-0.176,1.399-0.329c0.365-0.085,0.788-0.184,0.941-0.22C10.802,19.555,10.925,19.525,10.928,19.525L10.928,19.525
	z M11.265,19.653l0.084,0.096c0.378,0.424,0.766,0.736,1.233,1.009c0.083,0.048,0.148,0.09,0.142,0.093
	c-0.019,0.014-1.625,0.583-2.369,0.842c-0.418,0.146-0.762,0.265-0.765,0.265c-0.003,0-0.027-0.016-0.054-0.034L9.49,21.889
	l0.077-0.11c0.247-0.357,0.557-0.75,1.233-1.564L11.265,19.653L11.265,19.653z M13.363,21.155c0.003-0.003,0.118,0.041,0.26,0.092
	c0.343,0.13,0.613,0.211,0.976,0.303c0.447,0.113,1.093,0.224,1.475,0.256c0.058,0.006,0.09,0.01,0.079,0.019
	c-0.02,0.01-0.405,0.139-0.689,0.229c-0.452,0.141-1.833,0.549-2.958,0.872c-0.208,0.06-0.387,0.11-0.397,0.112
	c-0.026,0.007-0.113-0.019-0.113-0.028c0-0.005,0.063-0.086,0.139-0.177c0.378-0.451,0.754-0.956,1.067-1.436
	C13.289,21.266,13.363,21.158,13.363,21.155L13.363,21.155z M12.901,21.168c0.001,0.003-0.185,0.304-0.511,0.818
	c-0.14,0.218-0.294,0.465-0.35,0.552c-0.053,0.084-0.132,0.216-0.176,0.289l-0.076,0.135l-0.04-0.012
	c-0.094-0.026-0.76-0.26-0.937-0.332c-0.218-0.086-0.444-0.191-0.612-0.28c-0.209-0.113-0.472-0.281-0.452-0.286
	c0.006-0.004,0.366-0.102,0.8-0.219c1.151-0.313,1.791-0.494,2.208-0.627C12.832,21.185,12.897,21.166,12.901,21.168L12.901,21.168z
	 M16.174,21.937h0.002c0.01,0.026-0.415,1.209-0.57,1.581c-0.035,0.087-0.047,0.106-0.066,0.103
	c-0.045-0.001-0.663-0.089-1.039-0.144c-0.655-0.1-1.753-0.291-2.029-0.355l-0.063-0.012l0.392-0.091
	c0.841-0.188,1.246-0.291,1.656-0.417c0.518-0.159,1.031-0.356,1.549-0.599C16.086,21.968,16.154,21.938,16.174,21.937
	L16.174,21.937z"/>
<linearGradient id="SVGID_2_" gradientUnits="userSpaceOnUse" x1="-26481.9414" y1="-15677.6152" x2="-26473.418" y2="-15677.6152" gradientTransform="matrix(0.0675 0 0 0.0675 1798.8804 1066.2742)">
	<stop  offset="0.5091" style="stop-color:#646464"/>
	<stop  offset="0.697" style="stop-color:#969696"/>
</linearGradient>
<path fill="url(#SVGID_2_)" d="M14.219,6.39c-0.058-0.008-0.991,0.328-1.592,0.573c-0.813,0.331-1.444,0.647-1.833,0.919
	c-0.145,0.104-0.326,0.285-0.355,0.355c-0.011,0.026-0.016,0.058-0.016,0.089l0.353,0.334l0.838,0.269l1.996,0.358l2.282,0.392
	l0.023-0.198c-0.009,0-0.014-0.002-0.021-0.002l-0.301-0.047l-0.06-0.108c-0.311-0.547-0.652-1.225-0.852-1.683
	c-0.154-0.354-0.302-0.765-0.383-1.059C14.254,6.402,14.249,6.393,14.219,6.39L14.219,6.39L14.219,6.39L14.219,6.39z M14.178,6.524
	h0.002c0.002,0.003,0.013,0.077,0.024,0.163c0.044,0.368,0.127,0.723,0.256,1.107c0.097,0.289,0.097,0.273-0.017,0.239
	c-0.268-0.074-1.47-0.282-2.34-0.402c-0.14-0.019-0.258-0.037-0.258-0.039c-0.01-0.011,0.629-0.345,0.911-0.477
	C13.115,6.951,14.104,6.538,14.178,6.524z M11.643,7.703l0.103,0.034c0.557,0.189,1.958,0.457,2.731,0.52
	c0.086,0.007,0.16,0.017,0.163,0.017c0.003,0.002-0.071,0.042-0.165,0.086c-0.374,0.187-0.784,0.416-1.068,0.592
	c-0.083,0.052-0.16,0.094-0.17,0.094s-0.066-0.01-0.124-0.018l-0.104-0.017l-0.263-0.257c-0.463-0.451-0.826-0.797-0.965-0.929
	L11.643,7.703z M11.538,7.784l0.371,0.463c0.202,0.256,0.407,0.504,0.453,0.56c0.043,0.055,0.081,0.1,0.079,0.102
	c-0.012,0.009-0.537-0.094-0.816-0.157c-0.287-0.065-0.405-0.097-0.581-0.152l-0.145-0.047V8.515
	c0.002-0.176,0.226-0.439,0.604-0.707L11.538,7.784z M14.688,8.415c0.011,0,0.023,0.023,0.055,0.095
	c0.089,0.197,0.369,0.729,0.437,0.831c0.021,0.034,0.059,0.037-0.312-0.023c-0.892-0.145-1.178-0.192-1.178-0.197
	c0-0.002,0.026-0.021,0.06-0.04c0.276-0.153,0.555-0.347,0.802-0.555c0.061-0.05,0.116-0.097,0.126-0.104
	C14.681,8.415,14.685,8.412,14.688,8.415L14.688,8.415z"/>
<radialGradient id="SVGID_3_" cx="5239.0625" cy="-9533.418" r="11.3164" gradientTransform="matrix(-0.0649 -0.0097 0.0197 -0.1297 543.0901 -1173.0253)" gradientUnits="userSpaceOnUse">
	<stop  offset="0" style="stop-color:#EE352C"/>
	<stop  offset="1" style="stop-color:#A91D22"/>
</radialGradient>
<path fill="url(#SVGID_3_)" d="M10.458,8.202c0,0-0.059,0.093-0.002,0.229c0.034,0.084,0.134,0.187,0.247,0.292
	c0,0,1.169,1.142,1.313,1.305c0.646,0.746,0.928,1.482,0.954,2.498c0.017,0.652-0.107,1.225-0.414,1.89
	c-0.547,1.193-1.702,2.512-3.482,3.973l0.261-0.086c0.168-0.127,0.396-0.261,0.933-0.555c1.238-0.68,2.632-1.303,4.341-1.943
	c2.461-0.925,6.506-2.009,8.811-2.361l0.238-0.037l-0.037-0.058c-0.211-0.326-0.355-0.528-0.529-0.744
	c-0.504-0.625-1.117-1.132-1.867-1.554c-1.029-0.576-2.363-1.025-4.051-1.358c-0.316-0.063-1.018-0.185-1.584-0.271
	c-1.205-0.187-1.983-0.316-2.84-0.463c-0.308-0.053-0.768-0.132-1.073-0.196c-0.157-0.034-0.459-0.105-0.696-0.188
	C10.789,8.498,10.515,8.425,10.458,8.202L10.458,8.202z M11.136,8.859c0.003-0.002,0.044,0.013,0.1,0.031
	c0.1,0.034,0.229,0.073,0.382,0.116c0.115,0.032,0.231,0.063,0.347,0.092c0.159,0.04,0.289,0.075,0.292,0.075
	c0.018,0.02,0.284,0.868,0.373,1.194c0.034,0.125,0.06,0.229,0.058,0.229c-0.002,0.003-0.031-0.042-0.065-0.103
	c-0.308-0.542-0.794-1.091-1.357-1.533C11.19,8.908,11.136,8.862,11.136,8.859z M12.429,9.216c0.014,0,0.071,0.008,0.142,0.025
	c0.447,0.1,1.249,0.251,1.762,0.339c0.086,0.013,0.155,0.029,0.155,0.034c0,0.005-0.032,0.023-0.071,0.044
	c-0.086,0.044-0.436,0.252-0.551,0.331c-0.293,0.196-0.555,0.406-0.745,0.595c-0.076,0.077-0.142,0.14-0.142,0.14
	s-0.016-0.045-0.029-0.1c-0.094-0.366-0.292-0.907-0.471-1.289c-0.028-0.061-0.052-0.115-0.052-0.121
	C12.426,9.219,12.426,9.216,12.429,9.216L12.429,9.216z M14.706,9.65c0.016,0.005,0.042,0.095,0.095,0.292
	c0.097,0.381,0.142,0.807,0.126,1.205c-0.006,0.11-0.01,0.213-0.016,0.226l-0.008,0.026l-0.137-0.044
	c-0.282-0.089-0.738-0.223-1.131-0.334c-0.223-0.06-0.405-0.116-0.405-0.121c0-0.015,0.326-0.342,0.465-0.465
	C13.962,10.2,14.682,9.643,14.706,9.65L14.706,9.65z M14.887,9.677c0.008-0.008,1.088,0.178,1.58,0.273
	c0.365,0.072,0.896,0.182,0.93,0.195c0.014,0.005-0.041,0.036-0.217,0.115c-0.693,0.313-1.209,0.595-1.722,0.936
	c-0.134,0.089-0.248,0.164-0.249,0.164c-0.002,0-0.006-0.077-0.006-0.168c0-0.499-0.1-1.005-0.284-1.43
	C14.901,9.719,14.886,9.679,14.887,9.677z M17.682,10.229c0.008,0.007-0.025,0.22-0.057,0.347c-0.096,0.392-0.352,0.972-0.662,1.52
	c-0.057,0.097-0.105,0.176-0.111,0.179c-0.006,0.002-0.076-0.037-0.158-0.084c-0.305-0.179-0.651-0.347-1.03-0.505
	c-0.104-0.045-0.197-0.082-0.2-0.086c-0.018-0.017,0.828-0.577,1.275-0.845C17.094,10.54,17.672,10.218,17.682,10.229L17.682,10.229
	z M17.881,10.26c0.025,0,0.504,0.131,0.754,0.205c0.617,0.185,1.326,0.444,1.789,0.655l0.193,0.086l-0.135,0.031
	c-1.131,0.261-2.098,0.561-3.031,0.938c-0.076,0.032-0.145,0.059-0.15,0.059c-0.004,0,0.021-0.061,0.055-0.134
	c0.283-0.597,0.463-1.22,0.508-1.75C17.867,10.3,17.875,10.26,17.881,10.26L17.881,10.26z M13.118,11.354
	c0.007-0.008,0.373,0.079,0.57,0.134c0.299,0.084,0.937,0.296,0.937,0.313c0,0.002-0.072,0.063-0.156,0.137
	c-0.344,0.287-0.674,0.588-1.072,0.972c-0.118,0.113-0.218,0.205-0.224,0.205c-0.004,0-0.007-0.015-0.004-0.037
	c0.06-0.441,0.046-1.01-0.038-1.586C13.124,11.42,13.115,11.357,13.118,11.354z M20.797,11.361c0.006,0.006-0.168,0.279-0.277,0.435
	c-0.158,0.226-0.389,0.525-0.912,1.183c-0.277,0.347-0.586,0.738-0.688,0.87c-0.107,0.132-0.193,0.242-0.195,0.242
	c-0.004,0-0.037-0.047-0.074-0.105c-0.293-0.443-0.646-0.829-1.064-1.176c-0.078-0.066-0.166-0.137-0.193-0.158
	c-0.029-0.021-0.053-0.043-0.053-0.044c0-0.009,0.447-0.201,0.785-0.337c0.594-0.241,1.404-0.531,2.012-0.718
	C20.453,11.454,20.793,11.357,20.797,11.361L20.797,11.361z M21,11.415c0.012-0.003,0.074,0.028,0.15,0.074
	c0.639,0.365,1.264,0.835,1.76,1.319c0.139,0.137,0.482,0.494,0.479,0.498c0,0-0.121,0.011-0.264,0.021
	c-1.105,0.084-2.523,0.318-3.887,0.646c-0.092,0.021-0.174,0.04-0.178,0.04c-0.006,0,0.098-0.102,0.227-0.226
	c0.799-0.77,1.164-1.257,1.596-2.124C20.943,11.532,20.994,11.422,21,11.415C20.998,11.415,20.998,11.415,21,11.415L21,11.415z
	 M15.145,12.014c0.038,0.008,0.378,0.168,0.636,0.297c0.236,0.118,0.592,0.308,0.611,0.323c0.002,0.003-0.125,0.068-0.279,0.145
	c-0.494,0.248-0.917,0.482-1.358,0.749c-0.127,0.076-0.232,0.14-0.235,0.14c-0.01,0-0.007-0.01,0.064-0.14
	c0.236-0.431,0.425-0.947,0.533-1.449C15.126,12.041,15.138,12.014,15.145,12.014L15.145,12.014z M14.804,12.077
	c0.008,0.008-0.082,0.332-0.137,0.507c-0.107,0.335-0.289,0.753-0.465,1.067c-0.043,0.074-0.104,0.182-0.14,0.242l-0.065,0.105
	l-0.147-0.143c-0.171-0.165-0.311-0.268-0.489-0.36c-0.071-0.037-0.127-0.068-0.127-0.073c0-0.022,0.451-0.429,0.795-0.723
	C14.275,12.488,14.795,12.069,14.804,12.077L14.804,12.077z M16.893,12.936l0.131,0.085c0.293,0.191,0.641,0.446,0.906,0.67
	c0.15,0.124,0.439,0.384,0.498,0.448l0.031,0.034l-0.215,0.06c-1.203,0.334-2.133,0.631-3.219,1.03
	c-0.121,0.045-0.224,0.082-0.232,0.082c-0.017,0-0.029,0.014,0.242-0.237c0.694-0.639,1.309-1.343,1.768-2.03L16.893,12.936
	L16.893,12.936z M16.344,13.074c0.006,0.005-0.354,0.512-0.57,0.799c-0.258,0.341-0.715,0.915-1.03,1.289
	c-0.132,0.155-0.245,0.283-0.25,0.287c-0.008,0.003-0.011-0.038-0.011-0.098c0-0.317-0.081-0.657-0.223-0.946
	c-0.06-0.121-0.071-0.149-0.058-0.163c0.049-0.045,0.815-0.481,1.298-0.742C15.825,13.326,16.336,13.068,16.344,13.074
	L16.344,13.074z M13.021,13.889c0.008,0,0.068,0.031,0.137,0.068c0.168,0.092,0.318,0.194,0.453,0.305
	c0.005,0.005-0.064,0.061-0.153,0.127c-0.249,0.178-0.627,0.465-0.849,0.642c-0.231,0.184-0.239,0.189-0.213,0.15
	c0.173-0.267,0.26-0.416,0.353-0.608c0.082-0.171,0.163-0.373,0.22-0.55C12.99,13.946,13.016,13.889,13.021,13.889L13.021,13.889z
	 M13.907,14.583c0.013-0.003,0.029,0.021,0.1,0.126c0.15,0.223,0.265,0.522,0.294,0.764l0.005,0.054l-0.36,0.139
	c-0.644,0.249-1.238,0.496-1.641,0.681c-0.113,0.053-0.31,0.146-0.438,0.211c-0.129,0.065-0.234,0.115-0.234,0.113
	c0-0.003,0.081-0.064,0.18-0.137c0.786-0.571,1.468-1.197,1.978-1.822c0.055-0.065,0.105-0.126,0.109-0.129H13.907L13.907,14.583z
	 M13.5,14.682c0.01,0.011-0.289,0.35-0.494,0.558c-0.508,0.517-1.01,0.922-1.632,1.317c-0.08,0.05-0.15,0.095-0.158,0.101
	c-0.018,0.011,0.004-0.016,0.278-0.313c0.174-0.188,0.304-0.344,0.455-0.539c0.101-0.13,0.119-0.147,0.263-0.25
	C12.598,15.277,13.489,14.672,13.5,14.682z"/>
</svg>
