<?xml version="1.0" encoding="utf-8"?>
<!--
  - This file is part of StyleBI.
  -
  - Copyright (c) 2024, InetSoft Technology Corp, All Rights Reserved.
  -
  - The software and information contained herein are copyrighted and
  - proprietary to InetSoft Technology Corp. This software is furnished
  - pursuant to a written license agreement and may be used, copied,
  - transmitted, and stored only in accordance with the terms of such
  - license and with the inclusion of the above copyright notice. Please
  - refer to the file "COPYRIGHT" for further copyright and licensing
  - information. This software and information or any other copies
  - thereof may not be provided or otherwise made available to any other
  - person.
  -->

<!-- Generator: Adobe Illustrator 15.1.0, SVG Export Plug-In . SVG Version: 6.00 Build 0)  -->
<!DOCTYPE svg PUBLIC "-//W3C//DTD SVG 1.1//EN" "http://www.w3.org/Graphics/SVG/1.1/DTD/svg11.dtd">
<svg version="1.1" id="Layer_1" xmlns="http://www.w3.org/2000/svg" xmlns:xlink="http://www.w3.org/1999/xlink" x="0px" y="0px"
	 width="30px" height="30px" viewBox="35 35 30 30" enable-background="new 35 35 30 30" xml:space="preserve">
<linearGradient id="SVGID_1_" gradientUnits="userSpaceOnUse" x1="-30016.4902" y1="20944.8691" x2="-30001.3574" y2="20953.8105" gradientTransform="matrix(0.0675 0 0 -0.0675 2069.772 1474.5503)">
	<stop  offset="0.6061" style="stop-color:#646464"/>
	<stop  offset="0.8848" style="stop-color:#969696"/>
</linearGradient>
<path fill="url(#SVGID_1_)" d="M52.979,49.177L48.009,50.8l-4.324,1.907l-1.209,0.319c-0.308,0.293-0.631,0.591-0.98,0.891
	c-0.384,0.331-0.741,0.632-1.014,0.85c-0.304,0.24-0.755,0.691-0.984,0.976c-0.342,0.428-0.612,0.883-0.729,1.232
	c-0.207,0.631-0.105,1.27,0.293,1.858c0.511,0.751,1.529,1.518,2.715,2.04c0.605,0.268,1.623,0.608,2.389,0.801
	c1.273,0.322,3.737,0.672,5.093,0.725c0.274,0.01,0.642,0.01,0.657,0c0.031-0.02,0.241-0.422,0.485-0.92
	c0.833-1.702,1.436-3.299,1.763-4.661c0.194-0.826,0.348-1.928,0.449-3.229c0.026-0.365,0.038-1.587,0.016-2
	c-0.033-0.676-0.094-1.224-0.188-1.761c-0.016-0.079-0.019-0.15-0.012-0.154c0.016-0.012,0.061-0.026,0.673-0.204L52.979,49.177
	L52.979,49.177L52.979,49.177L52.979,49.177z M51.844,49.842c0.045,0,0.164,1.152,0.195,1.883c0.008,0.153,0.004,0.254-0.004,0.254
	c-0.029,0-0.635-0.355-1.066-0.627c-0.375-0.236-1.089-0.709-1.202-0.799c-0.038-0.027-0.035-0.03,0.274-0.136
	C50.563,50.24,51.802,49.842,51.844,49.842z M49.313,50.676c0.033,0,0.12,0.049,0.326,0.177c0.774,0.485,1.826,1.071,2.275,1.266
	c0.14,0.06,0.154,0.038-0.164,0.255c-0.684,0.466-1.536,0.924-2.581,1.386c-0.184,0.083-0.337,0.146-0.341,0.146
	c-0.008,0,0.015-0.094,0.045-0.206c0.251-0.936,0.395-1.881,0.402-2.641c0.003-0.375,0.003-0.375,0.038-0.387
	C49.305,50.676,49.309,50.676,49.313,50.676L49.313,50.676z M48.79,50.875c0.022,0.023,0.007,0.863-0.022,1.092
	c-0.068,0.55-0.173,1.06-0.346,1.635c-0.042,0.139-0.079,0.256-0.086,0.263c-0.016,0.019-0.529-0.485-0.699-0.68
	c-0.293-0.339-0.522-0.675-0.691-1.007c-0.086-0.168-0.221-0.499-0.21-0.511C46.796,51.626,48.775,50.859,48.79,50.875L48.79,50.875
	z M46.333,51.84c0.004,0,0.008,0,0.012,0.004c0.007,0.008,0.034,0.068,0.056,0.135c0.12,0.327,0.391,0.808,0.624,1.117
	c0.255,0.336,0.589,0.698,0.867,0.934c0.091,0.075,0.173,0.146,0.185,0.158c0.022,0.022,0.03,0.02-0.583,0.251
	c-0.709,0.271-1.483,0.542-2.37,0.827c-0.211,0.068-0.423,0.137-0.635,0.207c-0.034,0.01-0.022-0.009,0.075-0.162
	c0.439-0.688,1.108-2.035,1.483-2.99c0.064-0.164,0.128-0.33,0.139-0.367c0.015-0.053,0.034-0.072,0.083-0.099
	C46.296,51.848,46.322,51.84,46.333,51.84L46.333,51.84z M45.583,52.152c0.011,0.007-0.181,0.408-0.369,0.777
	c-0.364,0.709-0.762,1.408-1.295,2.258c-0.09,0.146-0.177,0.281-0.188,0.295c-0.02,0.027-0.026,0.02-0.087-0.096
	c-0.128-0.252-0.232-0.576-0.289-0.872c-0.057-0.293-0.045-0.804,0.019-1.119c0.048-0.233,0.044-0.229,0.158-0.286
	C44.013,52.865,45.567,52.137,45.583,52.152L45.583,52.152z M52.061,52.414v0.158c0,0.838-0.089,1.988-0.221,2.824
	c-0.021,0.146-0.041,0.267-0.045,0.271c0,0-0.109-0.031-0.236-0.068c-0.564-0.176-1.176-0.436-1.729-0.739
	c-0.364-0.199-0.894-0.526-0.879-0.54c0.004-0.005,0.162-0.087,0.346-0.186c0.737-0.383,1.442-0.797,2.055-1.205
	c0.229-0.154,0.574-0.401,0.649-0.471L52.061,52.414L52.061,52.414z M42.747,53.525c0.015,0,0.011,0.031-0.011,0.166
	c-0.015,0.098-0.034,0.278-0.041,0.402c-0.031,0.549,0.06,0.954,0.331,1.51c0.074,0.153,0.135,0.282,0.131,0.285
	c-0.026,0.023-2.512,0.752-3.294,0.965c-0.232,0.064-0.436,0.121-0.45,0.125c-0.026,0.008-0.031,0.003-0.019-0.061
	c0.086-0.552,0.507-1.272,1.093-1.882c0.391-0.405,0.703-0.642,1.236-0.946c0.383-0.219,0.973-0.545,1.018-0.56
	C42.739,53.525,42.743,53.525,42.747,53.525L42.747,53.525z M48.606,54.574c0.003-0.004,0.094,0.046,0.203,0.109
	c0.803,0.465,1.922,0.897,2.876,1.119l0.087,0.019l-0.12,0.067c-0.5,0.278-2.141,0.963-3.82,1.59
	c-0.244,0.089-0.484,0.18-0.529,0.199c-0.045,0.019-0.086,0.029-0.086,0.025s0.067-0.136,0.154-0.297
	c0.469-0.879,0.943-1.949,1.183-2.693C48.583,54.643,48.603,54.578,48.606,54.574L48.606,54.574z M48.009,54.77
	c0.003,0.004-0.026,0.084-0.064,0.173c-0.327,0.792-0.754,1.657-1.303,2.625c-0.139,0.249-0.255,0.448-0.259,0.448
	c-0.004,0-0.117-0.068-0.251-0.15c-0.797-0.488-1.503-1.09-1.964-1.672l-0.068-0.082l0.342-0.096
	c1.225-0.334,2.265-0.693,3.297-1.138C47.885,54.819,48.005,54.77,48.009,54.77z M51.72,56.066
	C51.72,56.066,51.725,56.068,51.72,56.066c0.005,0.086-0.188,0.859-0.346,1.419c-0.132,0.469-0.245,0.838-0.451,1.487
	c-0.089,0.285-0.169,0.522-0.171,0.522c-0.005,0-0.027-0.005-0.051-0.012c-1.114-0.202-2.114-0.485-3.053-0.86
	c-0.263-0.105-0.638-0.273-0.661-0.293c-0.008-0.007,0.218-0.112,0.503-0.236c1.708-0.748,3.482-1.596,4.089-1.961
	C51.652,56.088,51.708,56.066,51.72,56.066L51.72,56.066z M43.152,56.359c0.008,0.007-0.469,0.693-1.138,1.63
	c-0.233,0.327-0.503,0.709-0.604,0.853c-0.102,0.143-0.256,0.367-0.342,0.502l-0.158,0.245l-0.169-0.144
	c-0.199-0.164-0.545-0.519-0.698-0.713c-0.323-0.402-0.541-0.826-0.627-1.213c-0.042-0.181-0.042-0.271-0.004-0.281
	c0.056-0.017,1.059-0.252,1.998-0.471c0.521-0.12,1.126-0.262,1.345-0.314C42.973,56.4,43.149,56.359,43.152,56.359L43.152,56.359z
	 M43.634,56.542l0.12,0.136c0.541,0.605,1.093,1.053,1.761,1.441c0.12,0.068,0.211,0.128,0.203,0.133
	c-0.026,0.019-2.321,0.833-3.384,1.202c-0.597,0.21-1.089,0.378-1.093,0.378c-0.004,0-0.038-0.021-0.076-0.049l-0.067-0.048
	l0.109-0.158c0.354-0.511,0.796-1.071,1.762-2.235L43.634,56.542L43.634,56.542z M46.631,58.687
	c0.004-0.003,0.168,0.058,0.371,0.132c0.489,0.185,0.875,0.301,1.394,0.432c0.639,0.162,1.562,0.32,2.107,0.365
	c0.083,0.008,0.128,0.015,0.112,0.026c-0.026,0.015-0.578,0.199-0.983,0.327c-0.646,0.201-2.618,0.785-4.226,1.246
	c-0.297,0.086-0.552,0.158-0.567,0.161c-0.038,0.009-0.162-0.026-0.162-0.041c0-0.007,0.09-0.123,0.199-0.252
	c0.54-0.646,1.077-1.366,1.524-2.051C46.525,58.845,46.631,58.691,46.631,58.687L46.631,58.687z M45.97,58.705
	c0.003,0.005-0.263,0.433-0.729,1.17c-0.199,0.311-0.42,0.663-0.5,0.787c-0.075,0.121-0.188,0.309-0.251,0.414l-0.109,0.191
	l-0.057-0.015c-0.135-0.038-1.085-0.372-1.337-0.474c-0.312-0.124-0.635-0.275-0.875-0.402c-0.3-0.161-0.675-0.401-0.646-0.408
	c0.008-0.005,0.522-0.145,1.143-0.313c1.645-0.447,2.558-0.706,3.154-0.895C45.872,58.729,45.966,58.703,45.97,58.705L45.97,58.705z
	 M50.646,59.803h0.002c0.016,0.038-0.592,1.727-0.814,2.26c-0.049,0.122-0.067,0.151-0.094,0.146
	c-0.064-0.002-0.947-0.127-1.484-0.206c-0.935-0.142-2.505-0.416-2.899-0.507l-0.09-0.018l0.56-0.129
	c1.202-0.27,1.781-0.416,2.367-0.596c0.739-0.227,1.472-0.509,2.212-0.854C50.521,59.848,50.619,59.806,50.646,59.803L50.646,59.803
	z"/>
<linearGradient id="SVGID_2_" gradientUnits="userSpaceOnUse" x1="-30015.0801" y1="21240.7539" x2="-30002.9043" y2="21240.7539" gradientTransform="matrix(0.0675 0 0 -0.0675 2069.772 1474.5503)">
	<stop  offset="0.5091" style="stop-color:#646464"/>
	<stop  offset="0.697" style="stop-color:#969696"/>
</linearGradient>
<path fill="url(#SVGID_2_)" d="M47.854,37.594c-0.083-0.012-1.416,0.469-2.275,0.819c-1.161,0.473-2.063,0.924-2.618,1.314
	c-0.207,0.147-0.466,0.406-0.507,0.507c-0.016,0.038-0.023,0.083-0.023,0.128l0.504,0.477l1.198,0.383l2.851,0.512l3.26,0.56
	l0.033-0.282c-0.011,0-0.019-0.004-0.03-0.004l-0.428-0.067l-0.086-0.154c-0.444-0.781-0.932-1.75-1.217-2.404
	c-0.221-0.507-0.432-1.093-0.548-1.513C47.904,37.612,47.896,37.598,47.854,37.594L47.854,37.594L47.854,37.594L47.854,37.594z
	 M47.795,37.785h0.003c0.003,0.004,0.019,0.109,0.034,0.233c0.063,0.525,0.181,1.033,0.365,1.581
	c0.139,0.413,0.139,0.391-0.023,0.342c-0.383-0.105-2.1-0.402-3.343-0.575c-0.199-0.026-0.368-0.052-0.368-0.056
	c-0.015-0.015,0.898-0.492,1.3-0.68C46.278,38.394,47.69,37.805,47.795,37.785z M44.174,39.469l0.146,0.048
	c0.796,0.271,2.798,0.654,3.902,0.744c0.124,0.011,0.229,0.023,0.233,0.023c0.004,0.003-0.102,0.06-0.236,0.124
	c-0.533,0.267-1.12,0.594-1.525,0.846c-0.12,0.074-0.229,0.135-0.244,0.135c-0.015,0-0.094-0.015-0.177-0.026l-0.149-0.023
	l-0.376-0.368c-0.661-0.643-1.179-1.138-1.378-1.326L44.174,39.469z M44.024,39.585l0.529,0.661c0.289,0.365,0.582,0.721,0.646,0.8
	c0.063,0.079,0.116,0.144,0.113,0.146c-0.016,0.012-0.766-0.135-1.165-0.225c-0.41-0.094-0.579-0.139-0.831-0.218l-0.207-0.067
	v-0.053c0.004-0.251,0.323-0.627,0.864-1.01L44.024,39.585z M48.523,40.486c0.016,0,0.034,0.034,0.079,0.135
	c0.127,0.282,0.526,1.041,0.623,1.188c0.03,0.048,0.083,0.052-0.446-0.034c-1.274-0.207-1.683-0.274-1.683-0.281
	c0-0.004,0.037-0.03,0.086-0.057c0.394-0.218,0.792-0.496,1.146-0.792c0.086-0.072,0.165-0.139,0.18-0.15
	C48.513,40.486,48.52,40.482,48.523,40.486L48.523,40.486z"/>
<radialGradient id="SVGID_3_" cx="10186.0078" cy="7620.709" r="16.166" gradientTransform="matrix(-0.0649 -0.0097 -0.0197 0.1297 860.5499 -843.0791)" gradientUnits="userSpaceOnUse">
	<stop  offset="0" style="stop-color:#EE352C"/>
	<stop  offset="1" style="stop-color:#A91D22"/>
</radialGradient>
<path fill="url(#SVGID_3_)" d="M42.48,40.182c0,0-0.083,0.132-0.004,0.327c0.049,0.12,0.192,0.267,0.353,0.417
	c0,0,1.671,1.63,1.875,1.863c0.923,1.066,1.325,2.118,1.363,3.568c0.023,0.932-0.154,1.75-0.593,2.7
	c-0.781,1.705-2.43,3.588-4.973,5.675l0.372-0.123c0.24-0.181,0.567-0.372,1.333-0.792c1.769-0.971,3.76-1.861,6.202-2.776
	c3.516-1.322,9.295-2.87,12.586-3.373l0.341-0.053l-0.053-0.083c-0.3-0.466-0.507-0.754-0.755-1.063
	c-0.721-0.894-1.596-1.618-2.667-2.22c-1.472-0.822-3.376-1.464-5.788-1.941c-0.453-0.09-1.453-0.263-2.264-0.387
	c-1.72-0.267-2.832-0.451-4.056-0.662c-0.439-0.075-1.097-0.188-1.533-0.281c-0.225-0.049-0.657-0.15-0.995-0.267
	C42.953,40.606,42.563,40.501,42.48,40.182L42.48,40.182z M43.449,41.121c0.004-0.004,0.063,0.018,0.143,0.044
	c0.143,0.049,0.327,0.105,0.545,0.166c0.165,0.045,0.33,0.089,0.496,0.132c0.226,0.056,0.413,0.108,0.417,0.108
	c0.026,0.026,0.405,1.239,0.533,1.705c0.049,0.177,0.086,0.327,0.083,0.327c-0.003,0.004-0.045-0.06-0.094-0.146
	c-0.439-0.774-1.134-1.559-1.938-2.189C43.528,41.192,43.449,41.125,43.449,41.121z M45.297,41.631c0.02,0,0.102,0.012,0.203,0.035
	c0.639,0.143,1.784,0.36,2.517,0.484c0.124,0.019,0.221,0.042,0.221,0.049c0,0.007-0.044,0.033-0.101,0.063
	c-0.124,0.063-0.623,0.36-0.788,0.473c-0.417,0.278-0.793,0.579-1.063,0.849c-0.108,0.109-0.203,0.199-0.203,0.199
	s-0.022-0.064-0.041-0.143c-0.135-0.522-0.417-1.295-0.673-1.84c-0.041-0.087-0.075-0.165-0.075-0.173
	C45.293,41.636,45.293,41.631,45.297,41.631L45.297,41.631z M48.55,42.251c0.022,0.008,0.06,0.136,0.136,0.417
	c0.138,0.544,0.203,1.153,0.18,1.72c-0.008,0.158-0.015,0.305-0.022,0.323l-0.011,0.038l-0.196-0.063
	c-0.402-0.128-1.055-0.319-1.615-0.478c-0.319-0.086-0.579-0.166-0.579-0.173c0-0.022,0.466-0.488,0.665-0.664
	C47.487,43.036,48.516,42.24,48.55,42.251L48.55,42.251z M48.809,42.289c0.011-0.012,1.555,0.255,2.257,0.391
	c0.521,0.102,1.28,0.259,1.326,0.278c0.021,0.007-0.057,0.052-0.309,0.165c-0.991,0.448-1.728,0.849-2.46,1.337
	c-0.191,0.127-0.354,0.233-0.356,0.233c-0.004,0-0.008-0.109-0.008-0.24c0-0.713-0.143-1.435-0.406-2.043
	C48.828,42.349,48.806,42.293,48.809,42.289z M52.801,43.078c0.012,0.011-0.037,0.315-0.082,0.496
	c-0.135,0.56-0.5,1.389-0.946,2.171c-0.079,0.138-0.151,0.251-0.158,0.255c-0.007,0.004-0.108-0.053-0.226-0.12
	c-0.436-0.255-0.931-0.495-1.472-0.721c-0.15-0.064-0.282-0.117-0.285-0.124c-0.026-0.023,1.183-0.823,1.821-1.207
	C51.96,43.521,52.786,43.063,52.801,43.078L52.801,43.078z M53.086,43.123c0.034,0,0.719,0.188,1.076,0.293
	c0.881,0.263,1.895,0.635,2.557,0.935l0.274,0.124l-0.192,0.045c-1.613,0.372-2.996,0.8-4.33,1.34
	c-0.109,0.045-0.206,0.083-0.213,0.083c-0.008,0,0.029-0.086,0.078-0.191c0.402-0.853,0.661-1.743,0.725-2.501
	C53.064,43.179,53.076,43.123,53.086,43.123L53.086,43.123z M46.281,44.686c0.011-0.012,0.533,0.112,0.815,0.191
	c0.428,0.12,1.337,0.424,1.337,0.446c0,0.004-0.102,0.09-0.222,0.196c-0.492,0.41-0.964,0.841-1.532,1.389
	c-0.168,0.162-0.311,0.293-0.319,0.293c-0.007,0-0.011-0.022-0.007-0.053c0.086-0.63,0.067-1.442-0.053-2.265
	C46.289,44.779,46.278,44.689,46.281,44.686z M57.252,44.696c0.008,0.008-0.24,0.398-0.398,0.62
	c-0.225,0.323-0.555,0.751-1.303,1.69c-0.395,0.496-0.837,1.055-0.983,1.243c-0.151,0.188-0.274,0.346-0.278,0.346
	s-0.053-0.067-0.105-0.15c-0.42-0.632-0.924-1.184-1.521-1.68c-0.112-0.094-0.237-0.195-0.278-0.225
	c-0.041-0.03-0.074-0.061-0.074-0.064c0-0.012,0.639-0.286,1.121-0.481c0.85-0.345,2.006-0.758,2.875-1.025
	C56.76,44.828,57.245,44.689,57.252,44.696L57.252,44.696z M57.541,44.772c0.016-0.004,0.105,0.041,0.214,0.105
	c0.913,0.522,1.808,1.194,2.514,1.885c0.199,0.196,0.691,0.706,0.683,0.711c0,0-0.173,0.015-0.375,0.03
	c-1.58,0.12-3.605,0.454-5.552,0.923c-0.13,0.03-0.247,0.057-0.255,0.057s0.139-0.146,0.324-0.323
	c1.141-1.1,1.662-1.795,2.279-3.034C57.459,44.94,57.533,44.783,57.541,44.772C57.538,44.772,57.538,44.772,57.541,44.772
	L57.541,44.772z M49.177,45.628c0.053,0.011,0.541,0.24,0.909,0.424c0.338,0.169,0.846,0.439,0.872,0.462
	c0.003,0.003-0.177,0.097-0.398,0.206c-0.706,0.354-1.311,0.688-1.941,1.07c-0.181,0.109-0.331,0.199-0.335,0.199
	c-0.015,0-0.011-0.015,0.091-0.199c0.338-0.616,0.608-1.352,0.762-2.069C49.15,45.666,49.166,45.628,49.177,45.628L49.177,45.628z
	 M48.689,45.718c0.011,0.011-0.117,0.473-0.196,0.724c-0.153,0.478-0.413,1.075-0.664,1.525c-0.061,0.105-0.15,0.259-0.199,0.346
	l-0.094,0.15l-0.21-0.203c-0.245-0.237-0.444-0.383-0.699-0.515c-0.102-0.052-0.181-0.097-0.181-0.105
	c0-0.03,0.643-0.612,1.135-1.032C47.934,46.304,48.677,45.707,48.689,45.718L48.689,45.718z M51.674,46.946l0.186,0.12
	c0.42,0.274,0.915,0.638,1.296,0.958c0.214,0.176,0.627,0.548,0.709,0.639l0.046,0.049l-0.305,0.086
	c-1.721,0.477-3.05,0.901-4.601,1.472c-0.173,0.064-0.319,0.117-0.331,0.117c-0.023,0-0.042,0.019,0.346-0.338
	c0.991-0.913,1.871-1.919,2.524-2.9L51.674,46.946L51.674,46.946z M50.889,47.142c0.01,0.008-0.506,0.732-0.814,1.142
	c-0.369,0.488-1.022,1.307-1.472,1.841c-0.188,0.221-0.35,0.405-0.357,0.409c-0.011,0.004-0.015-0.053-0.015-0.139
	c0-0.454-0.116-0.939-0.319-1.352c-0.086-0.173-0.102-0.214-0.082-0.233c0.07-0.064,1.164-0.687,1.854-1.059
	C50.149,47.502,50.879,47.134,50.889,47.142L50.889,47.142z M46.143,48.306c0.011,0,0.097,0.045,0.195,0.098
	c0.24,0.132,0.454,0.278,0.646,0.436c0.007,0.008-0.091,0.087-0.218,0.181c-0.356,0.255-0.897,0.665-1.213,0.916
	c-0.331,0.263-0.342,0.271-0.305,0.215c0.248-0.38,0.372-0.594,0.504-0.868c0.116-0.244,0.233-0.533,0.315-0.785
	C46.097,48.389,46.135,48.306,46.143,48.306L46.143,48.306z M47.408,49.298c0.019-0.004,0.042,0.03,0.143,0.18
	c0.214,0.319,0.379,0.747,0.42,1.093l0.007,0.076l-0.514,0.199c-0.92,0.355-1.769,0.709-2.344,0.973
	c-0.161,0.074-0.443,0.209-0.627,0.3c-0.185,0.094-0.334,0.165-0.334,0.161c0-0.003,0.116-0.09,0.258-0.195
	c1.123-0.815,2.097-1.709,2.825-2.603c0.079-0.094,0.15-0.18,0.157-0.184H47.408L47.408,49.298z M46.826,49.44
	c0.015,0.015-0.413,0.5-0.706,0.796c-0.725,0.739-1.442,1.318-2.332,1.882c-0.113,0.071-0.214,0.135-0.226,0.144
	c-0.026,0.015,0.007-0.023,0.398-0.447c0.248-0.268,0.435-0.492,0.65-0.77c0.143-0.186,0.169-0.211,0.375-0.357
	C45.538,50.289,46.811,49.425,46.826,49.44z"/>
</svg>
