<?xml version="1.0" encoding="utf-8"?>
<!--
  - This file is part of StyleBI.
  -
  - Copyright (c) 2024, InetSoft Technology Corp, All Rights Reserved.
  -
  - The software and information contained herein are copyrighted and
  - proprietary to InetSoft Technology Corp. This software is furnished
  - pursuant to a written license agreement and may be used, copied,
  - transmitted, and stored only in accordance with the terms of such
  - license and with the inclusion of the above copyright notice. Please
  - refer to the file "COPYRIGHT" for further copyright and licensing
  - information. This software and information or any other copies
  - thereof may not be provided or otherwise made available to any other
  - person.
  -->

<!-- Generator: Adobe Illustrator 15.1.0, SVG Export Plug-In . SVG Version: 6.00 Build 0)  -->
<!DOCTYPE svg PUBLIC "-//W3C//DTD SVG 1.1//EN" "http://www.w3.org/Graphics/SVG/1.1/DTD/svg11.dtd">
<svg version="1.1" id="Layer_1" xmlns="http://www.w3.org/2000/svg" xmlns:xlink="http://www.w3.org/1999/xlink" x="0px" y="0px"
	 width="60px" height="30px" viewBox="95 35 60 30" enable-background="new 95 35 60 30" xml:space="preserve">
<g>
	<g>
		<path fill="#0066FF" d="M139.101,49.8c-0.615,2.885-1.993,5.873-2.9,8.799c-0.434,0-0.867,0-1.3,0
			c-0.027-0.359,0.184-0.482,0.199-0.799c-0.495,0.449-2.419,1.326-3.099,0.299c-1.284-1.938,2.095-5.501,4.499-4.8
			c0.484-0.882,0.664-2.069,1.1-3C138.027,50.061,138.666,50.032,139.101,49.8z M133.8,57.5c1.603-0.165,1.942-1.592,2.3-2.999
			C134.356,54.006,132.934,56.034,133.8,57.5z"/>
		<path fill="#0066FF" d="M141,50.8c0.131,0.673-0.715,2.08-1,3c0.571-0.212,2.289-1.113,3-0.1c0.673,3.438-2.721,5.783-5.6,4.399
			c-0.13-2.734,1.469-4.594,2.101-6.899C139.988,51.054,140.602,51.034,141,50.8z M141.2,54.4c-1.667,0.033-2.025,1.375-2.3,2.799
			C140.327,58.178,142.202,55.558,141.2,54.4z"/>
		<path fill="#000044" d="M131.2,51.801c-0.208,0.392-0.284,0.915-0.499,1.299c0.17,0.229,0.763,0.036,1.1,0.1
			c-0.151,0.416-0.35,0.784-0.501,1.2c-0.333,0-0.666,0-0.999,0c-0.537,0.763-0.813,1.787-1.101,2.8
			c0.117,0.303,0.496,0.344,0.8,0.201c-0.014,0.452-0.244,0.688-0.301,1.1c-0.785,0.236-1.945,0.115-2.199-0.501
			c0.147-1.386,0.748-2.317,1.1-3.499c-0.012-0.222-0.424-0.043-0.6-0.101c-0.013-0.546,0.413-0.653,0.399-1.2
			c0.854,0.188,0.868-0.466,1.001-1C130.02,52.086,130.57,51.903,131.2,51.801z"/>
		<path fill="#000044" d="M100,58.6c0-0.065,0-0.133,0-0.2c0.364-0.485,0.59-1.509,1-2.599c0.225-0.6,0.643-2.323,1.1-2.5
			c0.303-0.118,0.642,0.089,0.9,0c0.367,0.122-0.243,0.602,0.1,0.699c0.54-0.814,2.844-1.289,3.1,0.101
			c0.533-0.786,2.39-1.385,2.9-0.4c0.729,1.408-1.204,3.742-1.4,4.899c-0.469-0.064-1.197,0.131-1.5-0.1
			c0.373-1.298,1.382-2.479,1.2-3.999c-2.007-0.066-2.008,2.718-2.9,4.099c-0.435-0.064-1.13,0.131-1.399-0.1
			c0.291-1.387,1.313-2.538,1.2-3.999c-2.093-0.151-2.006,2.72-2.9,4.099C100.933,58.6,100.467,58.6,100,58.6z"/>
		<path fill="#000044" d="M113.101,53.3c1.311-0.198,2.32,0.172,2.5,1.201c0.44,2.521-3.738,5.679-5.5,3.499
			C108.539,56.068,111.545,53.535,113.101,53.3z M112,57.5c1.188,0.277,2.115-1.676,1.9-2.801
			C112.339,53.396,110.507,57.15,112,57.5z"/>
		<path fill="#000044" d="M118.601,53.199c-0.025,0.309-0.102,0.566-0.2,0.801c0.476-0.347,2.416-1.412,3.2-0.3
			c0.055,2.154-0.988,3.213-1.4,4.899c-0.533,0-1.067,0-1.6,0c0.328-1.404,1.123-2.344,1.299-3.9
			c-1.956-0.899-2.354,2.567-3.099,3.9c-0.534,0-1.067,0-1.601,0c0.679-1.787,1.423-3.51,2-5.4
			C117.667,53.199,118.134,53.199,118.601,53.199z"/>
		<path fill="#000044" d="M123.4,56.601c0.066,1.218,1.755,0.882,2.6,0.599c0,0.301,0,0.602,0,0.9c-1.116,0.697-3.749,0.799-4-0.6
			c-0.369-2.063,3.053-5.943,5.001-3.9c0.411,0.433,0.364,1.521-0.101,2.1C126.461,56.246,125.063,56.645,123.4,56.601z M123.8,55.4
			c0.881-0.02,1.941,0.141,2.001-0.701C125.182,53.982,124.121,54.882,123.8,55.4z"/>
	</g>
	<path fill="#0066FF" d="M135.1,39.7c0.701,0,1.4,0,2.1,0c5.632,0.535,9.343,2.991,11.701,6.8c-2.611-3.139-7.017-4.611-11.899-4.3
		c-6.552,0.417-11.318,3.229-13.701,7.9c-1.789,0.344-3.809,0.99-5.4,1.2C121.137,44.936,126.099,40.298,135.1,39.7z"/>
	<path fill="#000044" d="M150,51c0,0.633,0,1.267,0,1.9c-0.033,0-0.066,0-0.1,0c-0.661,3.739-3.016,5.783-5.8,7.4
		c-0.033,0-0.067,0-0.101,0c1.479-1.846,3.149-3.764,3.101-6.901c-0.151-9.703-17.457-10.484-21.9-4.1
		c2.599-3.691,8.079-6.402,14.6-5.899C144.901,43.793,148.876,46.653,150,51z"/>
</g>
</svg>
