<?xml version="1.0" encoding="utf-8"?>
<!--
  - This file is part of StyleBI.
  -
  - Copyright (c) 2024, InetSoft Technology Corp, All Rights Reserved.
  -
  - The software and information contained herein are copyrighted and
  - proprietary to InetSoft Technology Corp. This software is furnished
  - pursuant to a written license agreement and may be used, copied,
  - transmitted, and stored only in accordance with the terms of such
  - license and with the inclusion of the above copyright notice. Please
  - refer to the file "COPYRIGHT" for further copyright and licensing
  - information. This software and information or any other copies
  - thereof may not be provided or otherwise made available to any other
  - person.
  -->

<!-- Generator: Adobe Illustrator 15.1.0, SVG Export Plug-In . SVG Version: 6.00 Build 0)  -->
<!DOCTYPE svg PUBLIC "-//W3C//DTD SVG 1.1//EN" "http://www.w3.org/Graphics/SVG/1.1/DTD/svg11.dtd">
<svg version="1.1"
	 id="svg2" xmlns:dc="http://purl.org/dc/elements/1.1/" xmlns:cc="http://creativecommons.org/ns#" xmlns:rdf="http://www.w3.org/1999/02/22-rdf-syntax-ns#" xmlns:svg="http://www.w3.org/2000/svg" inkscape:version="0.48.3.1 r9886" sodipodi:docname="o.svg" xmlns:inkscape="http://www.inkscape.org/namespaces/inkscape" xmlns:sodipodi="http://sodipodi.sourceforge.net/DTD/sodipodi-0.dtd"
	 xmlns="http://www.w3.org/2000/svg" xmlns:xlink="http://www.w3.org/1999/xlink" x="0px" y="0px" width="41.739px" height="30px"
	 viewBox="34.125 38.75 41.739 30" enable-background="new 34.125 38.75 41.739 30" xml:space="preserve">
<sodipodi:namedview  id="namedview122" inkscape:window-maximized="1" inkscape:pageopacity="0" inkscape:pageshadow="2" inkscape:window-x="0" inkscape:window-height="960" inkscape:window-width="1280" fit-margin-right="0" fit-margin-bottom="0" inkscape:current-layer="svg2" inkscape:window-y="0" gridtolerance="10" fit-margin-top="0" inkscape:cy="53.75" pagecolor="#ffffff" bordercolor="#666666" inkscape:zoom="1.0905983" showgrid="false" guidetolerance="10" fit-margin-left="0" inkscape:cx="404.86423" borderopacity="1" objecttolerance="10">
	</sodipodi:namedview>
<g>
	<path id="path22" inkscape:connector-curvature="0" fill="#A33639" d="M55.496,43h1.494c0,0.728,0,1.453,0,2.18
		c2.416-0.308,4.941-0.285,7.258,0.535c0.873,0.297,1.822,0.978,1.738,2.018c0.01,3.842,0.01,7.687,0,11.533
		c0.088,1.052-0.887,1.728-1.77,2.022c-2.32,0.77-4.818,0.862-7.227,0.52c0,0.897,0,1.795,0,2.692h-1.557
		c-3.808-0.694-7.625-1.33-11.438-2c0-5.832,0-11.665,0-17.495C47.828,44.335,51.666,43.683,55.496,43z"/>
	<path id="path50" inkscape:connector-curvature="0" fill="#FFFFFF" d="M56.99,45.94c2.234-0.308,4.559-0.298,6.729,0.365
		c0.598,0.223,1.396,0.49,1.533,1.203c-0.102,0.583-0.709,0.845-1.188,1.055c-2.268,0.765-4.721,0.838-7.074,0.483
		C56.99,48.01,56.99,46.975,56.99,45.94z"/>
	<path id="path66" inkscape:connector-curvature="0" fill="#FFFFFF" d="M62.111,49.83c1.1-0.163,2.248-0.4,3.137-1.115
		c-0.055,1.075,0.086,2.163-0.074,3.228c-0.447,0.532-1.158,0.722-1.797,0.905c-2.088,0.493-4.266,0.505-6.387,0.232
		c0-1.08,0-2.16,0-3.24C58.689,50.055,60.414,50.053,62.111,49.83z"/>
	<path id="path78" inkscape:connector-curvature="0" fill="#FFFFFF" d="M49.098,49.573c0.583-0.042,1.163-0.083,1.748-0.127
		c0.837,2.8,1.632,5.615,2.46,8.417c-0.578-0.037-1.155-0.08-1.728-0.132c-0.152-0.625-0.315-1.25-0.48-1.873
		c-0.768-0.002-1.535-0.027-2.3-0.064c-0.148,0.592-0.298,1.183-0.45,1.772c-0.49-0.038-0.978-0.072-1.465-0.105
		C47.613,54.828,48.373,52.205,49.098,49.573z"/>
	<path id="path98" inkscape:connector-curvature="0" fill="#A33639" d="M49.111,54.442c0.252-1.17,0.627-2.312,0.795-3.5
		c0.225,1.185,0.572,2.34,0.857,3.51C50.21,54.45,49.661,54.447,49.111,54.442z"/>
	<path id="path110" inkscape:connector-curvature="0" fill="#FFFFFF" d="M62.126,53.828c1.098-0.163,2.236-0.4,3.121-1.112
		c-0.049,1.072,0.078,2.155-0.07,3.22c-0.438,0.534-1.146,0.725-1.783,0.907c-2.094,0.497-4.279,0.51-6.404,0.24
		c0-1.083,0-2.163,0-3.243C58.693,54.058,60.423,54.053,62.126,53.828z"/>
	<path id="path118" inkscape:connector-curvature="0" fill="#FFFFFF" d="M62.115,57.828c1.102-0.16,2.244-0.4,3.133-1.113
		c-0.053,1.073,0.084,2.16-0.074,3.226c-0.707,0.77-1.83,0.912-2.803,1.109c-1.783,0.272-3.605,0.278-5.391,0.021
		c0.018-1.077,0.01-2.152,0.01-3.23C58.691,58.058,60.416,58.053,62.115,57.828z"/>
</g>
</svg>
