<?xml version="1.0" encoding="utf-8"?>
<!--
  - This file is part of StyleBI.
  - Copyright (C) 2024  InetSoft Technology
  -
  - This program is free software: you can redistribute it and/or modify
  - it under the terms of the GNU Affero General Public License as published by
  - the Free Software Foundation, either version 3 of the License, or
  - (at your option) any later version.
  -
  - This program is distributed in the hope that it will be useful,
  - but WITHOUT ANY WARRANTY; without even the implied warranty of
  - MERCHANTABILITY or FITNESS FOR A PARTICULAR PURPOSE.  See the
  - GNU Affero General Public License for more details.
  -
  - You should have received a copy of the GNU Affero General Public License
  - along with this program.  If not, see <https://www.gnu.org/licenses/>.
  -->

<!-- Generator: Adobe Illustrator 15.1.0, SVG Export Plug-In . SVG Version: 6.00 Build 0)  -->
<!DOCTYPE svg PUBLIC "-//W3C//DTD SVG 1.1//EN" "http://www.w3.org/Graphics/SVG/1.1/DTD/svg11.dtd">
<svg version="1.1" id="Layer_1" xmlns="http://www.w3.org/2000/svg" xmlns:xlink="http://www.w3.org/1999/xlink" x="0px" y="0px"
	 width="43.277px" height="30px" viewBox="103.361 71.65 43.277 30" enable-background="new 103.361 71.65 43.277 30"
	 xml:space="preserve">
<g>
	<path fill="none" d="M100,69.322h50v34.656h-50V69.322z"/>
	<path fill="#5D87A1" d="M115.306,97.311h-1.354c-0.047-2.284-0.179-4.433-0.395-6.445h-0.012l-2.061,6.445h-1.031l-2.048-6.445
		h-0.012c-0.152,1.933-0.248,4.081-0.288,6.445h-1.234c0.08-2.875,0.279-5.571,0.599-8.087h1.678l1.953,5.942h0.012l1.964-5.942
		h1.605C115.034,92.171,115.242,94.867,115.306,97.311 M121.176,91.344c-0.551,2.991-1.278,5.164-2.181,6.521
		c-0.703,1.044-1.474,1.566-2.313,1.566c-0.224,0-0.5-0.066-0.827-0.201v-0.721c0.16,0.023,0.347,0.036,0.563,0.036
		c0.392,0,0.707-0.108,0.947-0.323c0.287-0.264,0.431-0.56,0.431-0.887c0-0.225-0.112-0.684-0.335-1.378l-1.485-4.613h1.33
		l1.066,3.45c0.24,0.783,0.339,1.33,0.3,1.642c0.583-1.557,0.99-3.255,1.222-5.092H121.176L121.176,91.344L121.176,91.344z"/>
	<path fill="#F8981D" d="M139.194,97.311h-3.845v-8.087h1.293v7.092h2.552V97.311L139.194,97.311z M134.343,97.506l-1.487-0.733
		c0.132-0.108,0.259-0.226,0.372-0.361c0.632-0.742,0.946-1.84,0.946-3.295c0-2.675-1.05-4.014-3.15-4.014
		c-1.03,0-1.833,0.34-2.408,1.019c-0.632,0.743-0.946,1.837-0.946,3.283c0,1.422,0.279,2.465,0.838,3.126
		c0.512,0.6,1.282,0.899,2.313,0.899c0.384,0,0.737-0.047,1.059-0.142l1.936,1.127L134.343,97.506z M129.526,95.693
		c-0.327-0.527-0.491-1.373-0.491-2.539c0-2.036,0.618-3.056,1.857-3.056c0.647,0,1.122,0.244,1.425,0.73
		c0.327,0.527,0.492,1.366,0.492,2.516c0,2.054-0.62,3.08-1.857,3.08C130.305,96.424,129.83,96.181,129.526,95.693 M127.105,95.07
		c0,0.686-0.252,1.248-0.755,1.689c-0.503,0.438-1.178,0.658-2.024,0.658c-0.791,0-1.558-0.252-2.3-0.755l0.348-0.694
		c0.639,0.319,1.217,0.479,1.736,0.479c0.488,0,0.868-0.107,1.145-0.322s0.44-0.517,0.44-0.898c0-0.48-0.335-0.891-0.95-1.234
		c-0.567-0.312-1.7-0.963-1.7-0.963c-0.615-0.447-0.922-0.928-0.922-1.721c0-0.655,0.229-1.184,0.688-1.587
		c0.46-0.404,1.053-0.605,1.779-0.605c0.751,0,1.434,0.201,2.048,0.6l-0.312,0.694c-0.526-0.223-1.045-0.335-1.557-0.335
		c-0.415,0-0.735,0.1-0.958,0.3c-0.224,0.199-0.363,0.454-0.363,0.768c0,0.478,0.342,0.894,0.974,1.244
		c0.574,0.313,1.736,0.975,1.736,0.975C126.791,93.807,127.105,94.284,127.105,95.07"/>
	<path fill="#5D87A1" d="M140.818,86.515c-0.782-0.02-1.388,0.059-1.896,0.274c-0.147,0.059-0.381,0.059-0.4,0.244
		c0.079,0.079,0.088,0.205,0.156,0.313c0.118,0.195,0.322,0.458,0.509,0.595c0.204,0.157,0.41,0.313,0.626,0.449
		c0.38,0.235,0.811,0.372,1.181,0.606c0.216,0.137,0.431,0.313,0.646,0.46c0.106,0.078,0.174,0.204,0.313,0.254v-0.03
		c-0.069-0.088-0.089-0.215-0.156-0.313l-0.294-0.283c-0.284-0.381-0.636-0.713-1.016-0.986c-0.313-0.216-0.997-0.509-1.124-0.869
		l-0.021-0.02c0.215-0.021,0.471-0.098,0.675-0.158c0.332-0.088,0.636-0.068,0.977-0.155c0.157-0.039,0.313-0.088,0.47-0.137v-0.088
		c-0.177-0.176-0.303-0.41-0.488-0.576c-0.498-0.43-1.046-0.85-1.612-1.202c-0.304-0.196-0.694-0.322-1.017-0.489
		c-0.117-0.059-0.313-0.088-0.382-0.186c-0.175-0.215-0.273-0.498-0.4-0.752c-0.283-0.537-0.558-1.133-0.801-1.701
		c-0.177-0.381-0.284-0.761-0.499-1.114c-1.007-1.661-2.101-2.667-3.781-3.654c-0.361-0.206-0.791-0.293-1.25-0.401l-0.733-0.039
		c-0.156-0.068-0.313-0.254-0.449-0.342c-0.558-0.352-1.994-1.114-2.404-0.108c-0.264,0.636,0.392,1.261,0.616,1.583
		c0.166,0.224,0.381,0.479,0.497,0.733c0.069,0.166,0.088,0.342,0.157,0.518c0.156,0.43,0.303,0.908,0.508,1.31
		c0.107,0.205,0.225,0.42,0.361,0.604c0.079,0.109,0.215,0.156,0.245,0.333c-0.136,0.194-0.146,0.488-0.226,0.733
		c-0.351,1.104-0.214,2.471,0.284,3.283c0.156,0.245,0.528,0.782,1.025,0.576c0.44-0.176,0.344-0.733,0.47-1.221
		c0.029-0.118,0.011-0.195,0.069-0.272v0.019c0.136,0.273,0.273,0.537,0.399,0.811c0.304,0.479,0.831,0.977,1.271,1.309
		c0.233,0.176,0.419,0.479,0.712,0.587v-0.029h-0.02c-0.059-0.087-0.146-0.126-0.224-0.194c-0.177-0.176-0.371-0.391-0.509-0.587
		c-0.409-0.547-0.771-1.153-1.094-1.779c-0.157-0.304-0.293-0.635-0.42-0.938c-0.059-0.117-0.059-0.293-0.157-0.352
		c-0.146,0.215-0.361,0.4-0.469,0.664c-0.186,0.42-0.205,0.938-0.274,1.477l-0.038,0.019c-0.312-0.078-0.42-0.4-0.537-0.674
		c-0.293-0.694-0.343-1.809-0.088-2.609c0.067-0.205,0.362-0.85,0.244-1.045c-0.059-0.187-0.254-0.293-0.361-0.441
		c-0.126-0.185-0.264-0.42-0.353-0.625c-0.234-0.547-0.352-1.153-0.604-1.7c-0.118-0.255-0.322-0.519-0.488-0.753
		c-0.187-0.264-0.391-0.449-0.538-0.762c-0.049-0.107-0.117-0.283-0.039-0.4c0.02-0.078,0.059-0.107,0.137-0.127
		c0.127-0.107,0.488,0.029,0.615,0.087c0.362,0.146,0.665,0.284,0.968,0.488c0.137,0.098,0.283,0.284,0.459,0.333h0.205
		c0.313,0.068,0.664,0.019,0.958,0.107c0.518,0.167,0.987,0.41,1.407,0.674c1.28,0.812,2.336,1.965,3.048,3.342
		c0.117,0.225,0.167,0.43,0.273,0.664c0.206,0.479,0.46,0.968,0.665,1.437c0.205,0.459,0.4,0.928,0.694,1.309
		c0.146,0.205,0.733,0.313,0.997,0.42c0.194,0.088,0.498,0.166,0.674,0.273c0.332,0.205,0.663,0.44,0.976,0.666
		C140.3,86.075,140.789,86.319,140.818,86.515 M130.851,78.023c-0.135-0.001-0.27,0.015-0.399,0.049v0.02h0.019
		c0.079,0.156,0.216,0.264,0.313,0.401c0.079,0.156,0.147,0.312,0.225,0.468l0.019-0.019c0.138-0.098,0.207-0.254,0.207-0.489
		c-0.06-0.069-0.069-0.137-0.118-0.205C131.057,78.15,130.93,78.102,130.851,78.023"/>
	<path fill="#F8981D" d="M141.749,97.31h0.202v-0.991h-0.304l-0.247,0.677l-0.27-0.677h-0.293v0.991h0.191v-0.754h0.011l0.282,0.754
		h0.146l0.281-0.754V97.31z M140.118,97.31h0.214v-0.823h0.28v-0.168h-0.787v0.168h0.292L140.118,97.31L140.118,97.31z"/>
</g>
</svg>
