<?xml version="1.0" encoding="utf-8"?>
<!--
  - This file is part of StyleBI.
  -
  - Copyright (c) 2024, InetSoft Technology Corp, All Rights Reserved.
  -
  - The software and information contained herein are copyrighted and
  - proprietary to InetSoft Technology Corp. This software is furnished
  - pursuant to a written license agreement and may be used, copied,
  - transmitted, and stored only in accordance with the terms of such
  - license and with the inclusion of the above copyright notice. Please
  - refer to the file "COPYRIGHT" for further copyright and licensing
  - information. This software and information or any other copies
  - thereof may not be provided or otherwise made available to any other
  - person.
  -->

<!-- Generator: Adobe Illustrator 15.1.0, SVG Export Plug-In . SVG Version: 6.00 Build 0)  -->
<!DOCTYPE svg PUBLIC "-//W3C//DTD SVG 1.1//EN" "http://www.w3.org/Graphics/SVG/1.1/DTD/svg11.dtd">
<svg version="1.1" id="Layer_1" xmlns="http://www.w3.org/2000/svg" xmlns:xlink="http://www.w3.org/1999/xlink" x="0px" y="0px"
	 width="30px" height="30px" viewBox="0 0 30 30" enable-background="new 0 0 30 30" xml:space="preserve">
<path fill="#006173" d="M20.757,8.57h-3.638v6.866L13.217,8.57H9.244v12.86h3.703v-7.474l4.04,7.474h3.771V8.57z M20.757,8.57"/>
<path fill="#B7C034" d="M15,27.859C7.931,27.859,2.141,22.07,2.141,15C2.141,7.931,7.931,2.141,15,2.141
	c7.07,0,12.859,5.79,12.859,12.859C27.859,22.07,22.07,27.859,15,27.859L15,27.859z M15,3.62c-6.258,0-11.309,5.122-11.309,11.314
	c0,6.193,5.05,11.38,11.309,11.38c6.263,0,11.313-5.117,11.313-11.313C26.313,8.807,21.263,3.62,15,3.62L15,3.62z M15,3.62"/>
</svg>
