<?xml version="1.0" encoding="utf-8"?>
<!--
  - This file is part of StyleBI.
  - Copyright (C) 2024  InetSoft Technology
  -
  - This program is free software: you can redistribute it and/or modify
  - it under the terms of the GNU Affero General Public License as published by
  - the Free Software Foundation, either version 3 of the License, or
  - (at your option) any later version.
  -
  - This program is distributed in the hope that it will be useful,
  - but WITHOUT ANY WARRANTY; without even the implied warranty of
  - MERCHANTABILITY or FITNESS FOR A PARTICULAR PURPOSE.  See the
  - GNU Affero General Public License for more details.
  -
  - You should have received a copy of the GNU Affero General Public License
  - along with this program.  If not, see <https://www.gnu.org/licenses/>.
  -->

<!-- Generator: Adobe Illustrator 15.1.0, SVG Export Plug-In . SVG Version: 6.00 Build 0)  -->
<!DOCTYPE svg PUBLIC "-//W3C//DTD SVG 1.1//EN" "http://www.w3.org/Graphics/SVG/1.1/DTD/svg11.dtd">
<svg version="1.1" id="Layer_1" xmlns="http://www.w3.org/2000/svg" xmlns:xlink="http://www.w3.org/1999/xlink" x="0px" y="0px"
	 width="30px" height="30px" viewBox="0 0 30 30" enable-background="new 0 0 30 30" xml:space="preserve">
<path fill="#006173" d="M20.482,8.876h-3.464v6.54l-3.717-6.54H9.518v12.248h3.527v-7.118l3.847,7.118h3.591V8.876z M20.482,8.876"
	/>
<path fill="#B7C034" d="M15,27.247C8.267,27.247,2.753,21.733,2.753,15C2.753,8.267,8.267,2.753,15,2.753
	c6.733,0,12.247,5.514,12.247,12.247C27.247,21.733,21.733,27.247,15,27.247L15,27.247z M15,4.162c-5.96,0-10.77,4.877-10.77,10.775
	c0,5.898,4.81,10.838,10.77,10.838c5.965,0,10.774-4.873,10.774-10.774C25.774,9.102,20.965,4.162,15,4.162L15,4.162z M15,4.162"/>
</svg>
