<?xml version="1.0" encoding="utf-8"?>
<!--
  - This file is part of StyleBI.
  -
  - Copyright (c) 2024, InetSoft Technology Corp, All Rights Reserved.
  -
  - The software and information contained herein are copyrighted and
  - proprietary to InetSoft Technology Corp. This software is furnished
  - pursuant to a written license agreement and may be used, copied,
  - transmitted, and stored only in accordance with the terms of such
  - license and with the inclusion of the above copyright notice. Please
  - refer to the file "COPYRIGHT" for further copyright and licensing
  - information. This software and information or any other copies
  - thereof may not be provided or otherwise made available to any other
  - person.
  -->

<!-- Generator: Adobe Illustrator 15.1.0, SVG Export Plug-In . SVG Version: 6.00 Build 0)  -->
<!DOCTYPE svg PUBLIC "-//W3C//DTD SVG 1.1//EN" "http://www.w3.org/Graphics/SVG/1.1/DTD/svg11.dtd">
<svg version="1.1" id="Layer_1" xmlns="http://www.w3.org/2000/svg" xmlns:xlink="http://www.w3.org/1999/xlink" x="0px" y="0px"
	 width="30px" height="30px" viewBox="135 135 30 30" enable-background="new 135 135 30 30" xml:space="preserve">
<path fill="#5CE500" d="M161.344,144.776L161.344,144.776v12.113c-0.017,0.297-0.174,0.568-0.424,0.73l-0.396,0.238l-3.021,1.745
	l-2.04,1.188l-0.424,0.238v-13.101l-11.34-6.555l5.387-3.104l0.496-0.283c0.266-0.135,0.58-0.135,0.846,0l7.468,4.313l3.445,1.991
	v0.487H161.344z M152.518,149.381l-2.325-1.344l-5.441-3.143c-0.267-0.132-0.58-0.132-0.846,0l-4.829,2.789l-0.42,0.245l8.191,4.729
	v9.459l4.821-2.786l0.425-0.237c0.25-0.162,0.406-0.435,0.423-0.731V149.381L152.518,149.381z M138.657,157.387l5.667,3.273v-6.55
	L138.657,157.387z"/>
</svg>
