<?xml version="1.0" encoding="utf-8"?>
<!--
  - This file is part of StyleBI.
  -
  - Copyright (c) 2024, InetSoft Technology Corp, All Rights Reserved.
  -
  - The software and information contained herein are copyrighted and
  - proprietary to InetSoft Technology Corp. This software is furnished
  - pursuant to a written license agreement and may be used, copied,
  - transmitted, and stored only in accordance with the terms of such
  - license and with the inclusion of the above copyright notice. Please
  - refer to the file "COPYRIGHT" for further copyright and licensing
  - information. This software and information or any other copies
  - thereof may not be provided or otherwise made available to any other
  - person.
  -->

<!-- Generator: Adobe Illustrator 15.1.0, SVG Export Plug-In . SVG Version: 6.00 Build 0)  -->
<!DOCTYPE svg PUBLIC "-//W3C//DTD SVG 1.1//EN" "http://www.w3.org/Graphics/SVG/1.1/DTD/svg11.dtd">
<svg version="1.1" id="Layer_1" xmlns="http://www.w3.org/2000/svg" xmlns:xlink="http://www.w3.org/1999/xlink" x="0px" y="0px"
	 width="87.702px" height="30px" viewBox="9.224 3.156 87.702 30" enable-background="new 9.224 3.156 87.702 30"
	 xml:space="preserve">
<g>
	<path fill="#FF0000" d="M48.632,11.572h3.381l-1.786-2.881l-3.28,5.205l-1.498,0.001l3.992-6.25
		c0.17-0.251,0.462-0.405,0.782-0.405c0.314,0,0.601,0.147,0.771,0.395l4.006,6.261l-1.497-0.001l-0.702-1.163H49.38L48.632,11.572
		L48.632,11.572z"/>
	<path fill="#FF0000" d="M64.146,12.733V7.304h-1.27v5.961c0,0.164,0.068,0.321,0.188,0.438c0.123,0.124,0.288,0.192,0.463,0.192
		h5.775l0.75-1.163H64.146L64.146,12.733z"/>
	<path fill="#FF0000" d="M43.178,11.762c1.233,0,2.227-0.998,2.227-2.229s-0.994-2.229-2.227-2.229h-5.545v6.592h1.267V8.47h4.192
		c0.59,0,1.066,0.476,1.066,1.063c0,0.587-0.477,1.068-1.066,1.068l-3.573-0.001l3.785,3.295h1.839L42.6,11.761L43.178,11.762
		L43.178,11.762z"/>
	<path fill="#FF0000" d="M29.834,13.896c-1.82,0-3.296-1.474-3.296-3.294c0-1.821,1.476-3.298,3.296-3.298h3.832
		c1.821,0,3.292,1.477,3.292,3.298c0,1.82-1.471,3.295-3.292,3.295L29.834,13.896L29.834,13.896z M33.579,12.737
		c1.181,0,2.133-0.957,2.133-2.135c0-1.18-0.953-2.132-2.133-2.132h-3.66c-1.179,0-2.132,0.952-2.132,2.132
		c0,1.178,0.953,2.135,2.132,2.135H33.579z"/>
	<path fill="#FF0000" d="M57.649,13.896c-1.822,0-3.302-1.474-3.302-3.294c0-1.821,1.479-3.298,3.302-3.298h4.549L61.448,8.47
		h-3.715c-1.184,0-2.137,0.952-2.137,2.132c0,1.178,0.953,2.135,2.137,2.135H62.3l-0.742,1.159H57.649L57.649,13.896z"/>
	<path fill="#FF0000" d="M73.148,12.737c-0.976,0-1.799-0.656-2.053-1.553h5.416l0.747-1.162h-6.163
		c0.252-0.897,1.077-1.552,2.053-1.552h3.718l0.744-1.166h-4.547c-1.817,0-3.295,1.477-3.295,3.298c0,1.82,1.478,3.294,3.295,3.294
		h3.911l0.744-1.159H73.148z"/>
	<path fill="#FF0000" d="M78.29,8.007c0-0.321,0.26-0.581,0.584-0.581s0.584,0.26,0.584,0.581c0,0.322-0.26,0.582-0.584,0.582
		S78.29,8.329,78.29,8.007z M78.874,8.75c0.41,0,0.738-0.33,0.738-0.738c0-0.411-0.328-0.744-0.738-0.744s-0.742,0.333-0.742,0.744
		C78.132,8.42,78.464,8.75,78.874,8.75z M78.804,7.572c0.112,0,0.16,0.003,0.219,0.022c0.146,0.047,0.159,0.183,0.159,0.231
		c0,0.011-0.005,0.038-0.01,0.066c-0.007,0.033-0.024,0.101-0.101,0.145c-0.011,0.007-0.016,0.012-0.035,0.021l0.19,0.343h-0.186
		l-0.17-0.319h-0.108V8.4h-0.168V7.572H78.804z M78.865,7.947c0.047,0,0.104-0.005,0.132-0.055c0.021-0.019,0.025-0.041,0.025-0.069
		c0-0.046-0.027-0.082-0.064-0.103c-0.041-0.016-0.075-0.016-0.153-0.016h-0.041v0.242H78.865L78.865,7.947z"/>
</g>
<polygon fill="#7F7F7F" points="26.538,17.192 79.575,17.192 79.575,17.656 26.538,17.656 "/>
<g>
	<path d="M28.533,20.752h1.368v3.835c0,1.729-0.828,2.331-2.151,2.331c-0.324,0-0.738-0.054-1.008-0.144l0.153-1.107
		c0.189,0.063,0.432,0.108,0.702,0.108c0.576,0,0.937-0.262,0.937-1.197V20.752z"/>
	<path d="M31.043,20.842c0.504-0.081,1.161-0.136,1.846-0.136c1.161,0,1.917,0.217,2.494,0.648c0.63,0.469,1.026,1.216,1.026,2.287
		c0,1.161-0.423,1.962-1,2.457c-0.639,0.531-1.621,0.784-2.809,0.784c-0.711,0-1.225-0.046-1.558-0.091V20.842z M32.411,25.784
		c0.117,0.027,0.315,0.027,0.478,0.027c1.251,0.009,2.07-0.676,2.07-2.125c0-1.261-0.738-1.927-1.926-1.927
		c-0.297,0-0.504,0.027-0.622,0.054V25.784z"/>
	<path d="M42.735,24.254h-2.232v1.44h2.494v1.125h-3.862v-6.067h3.736v1.125h-2.368v1.261h2.232V24.254z"/>
	<path d="M43.931,20.842c0.504-0.081,1.161-0.136,1.846-0.136c1.161,0,1.917,0.217,2.494,0.648c0.63,0.469,1.026,1.216,1.026,2.287
		c0,1.161-0.423,1.962-1,2.457c-0.639,0.531-1.621,0.784-2.809,0.784c-0.711,0-1.225-0.046-1.558-0.091V20.842z M45.3,25.784
		c0.117,0.027,0.315,0.027,0.478,0.027c1.251,0.009,2.07-0.676,2.07-2.125c0-1.261-0.738-1.927-1.926-1.927
		c-0.297,0-0.504,0.027-0.622,0.054V25.784z"/>
	<path d="M51.114,26.82l-1.44-6.067h1.467l0.459,2.493c0.135,0.729,0.261,1.513,0.36,2.125h0.018c0.1-0.657,0.243-1.387,0.396-2.143
		l0.513-2.476h1.459l0.486,2.557c0.135,0.711,0.233,1.359,0.324,2.034h0.018c0.09-0.675,0.225-1.387,0.351-2.115l0.495-2.476h1.396
		l-1.566,6.067h-1.485l-0.513-2.61c-0.117-0.612-0.216-1.18-0.288-1.873h-0.019c-0.107,0.685-0.207,1.261-0.351,1.873l-0.576,2.61
		H51.114z"/>
	<path d="M59.052,25.262l-0.433,1.558h-1.413l1.846-6.067h1.801l1.89,6.067h-1.485l-0.468-1.558H59.052z M60.591,24.236
		l-0.378-1.287c-0.108-0.36-0.216-0.811-0.306-1.17h-0.019c-0.09,0.359-0.18,0.818-0.279,1.17l-0.359,1.287H60.591z"/>
	<path d="M63.542,20.833c0.441-0.072,1.09-0.127,1.828-0.127c0.9,0,1.53,0.136,1.963,0.478c0.368,0.288,0.566,0.721,0.566,1.278
		c0,0.766-0.549,1.297-1.071,1.485v0.027c0.424,0.171,0.657,0.567,0.811,1.125c0.189,0.693,0.369,1.485,0.486,1.72h-1.404
		c-0.091-0.18-0.243-0.666-0.414-1.413c-0.172-0.766-0.433-0.964-1-0.973h-0.405v2.386h-1.359V20.833z M64.902,23.444h0.541
		c0.684,0,1.089-0.342,1.089-0.873c0-0.55-0.378-0.838-1.008-0.838c-0.334,0-0.522,0.019-0.622,0.046V23.444z"/>
	<path d="M68.879,20.842c0.505-0.081,1.162-0.136,1.846-0.136c1.162,0,1.918,0.217,2.494,0.648c0.63,0.469,1.026,1.216,1.026,2.287
		c0,1.161-0.423,1.962-0.999,2.457c-0.64,0.531-1.621,0.784-2.81,0.784c-0.711,0-1.224-0.046-1.558-0.091V20.842z M70.248,25.784
		c0.117,0.027,0.314,0.027,0.477,0.027c1.252,0.009,2.071-0.676,2.071-2.125c0-1.261-0.738-1.927-1.927-1.927
		c-0.297,0-0.504,0.027-0.621,0.054V25.784z"/>
	<path d="M75.189,25.406c0.359,0.188,0.936,0.378,1.521,0.378c0.631,0,0.964-0.262,0.964-0.657c0-0.378-0.288-0.595-1.018-0.847
		c-1.008-0.359-1.675-0.918-1.675-1.8c0-1.036,0.874-1.819,2.296-1.819c0.693,0,1.188,0.136,1.549,0.307l-0.307,1.098
		c-0.233-0.116-0.675-0.287-1.26-0.287c-0.595,0-0.883,0.278-0.883,0.585c0,0.387,0.333,0.558,1.126,0.854
		c1.071,0.396,1.566,0.955,1.566,1.81c0,1.018-0.774,1.882-2.439,1.882c-0.693,0-1.378-0.188-1.72-0.378L75.189,25.406z"/>
</g>
</svg>
