<?xml version="1.0" encoding="utf-8"?>
<!--
  - This file is part of StyleBI.
  - Copyright (C) 2024  InetSoft Technology
  -
  - This program is free software: you can redistribute it and/or modify
  - it under the terms of the GNU Affero General Public License as published by
  - the Free Software Foundation, either version 3 of the License, or
  - (at your option) any later version.
  -
  - This program is distributed in the hope that it will be useful,
  - but WITHOUT ANY WARRANTY; without even the implied warranty of
  - MERCHANTABILITY or FITNESS FOR A PARTICULAR PURPOSE.  See the
  - GNU Affero General Public License for more details.
  -
  - You should have received a copy of the GNU Affero General Public License
  - along with this program.  If not, see <https://www.gnu.org/licenses/>.
  -->

<!-- Generator: Adobe Illustrator 15.1.0, SVG Export Plug-In . SVG Version: 6.00 Build 0)  -->
<!DOCTYPE svg PUBLIC "-//W3C//DTD SVG 1.1//EN" "http://www.w3.org/Graphics/SVG/1.1/DTD/svg11.dtd">
<svg version="1.1" id="Layer_1" xmlns="http://www.w3.org/2000/svg" xmlns:xlink="http://www.w3.org/1999/xlink" x="0px" y="0px"
	 width="104px" height="30px" viewBox="1.075 3.156 104 30" enable-background="new 1.075 3.156 104 30" xml:space="preserve">
<g>
	<path fill="#FF0000" d="M48.632,11.572h3.381l-1.786-2.881l-3.28,5.205l-1.498,0.001l3.992-6.25
		c0.17-0.251,0.462-0.405,0.782-0.405c0.314,0,0.601,0.147,0.771,0.395l4.006,6.261l-1.497-0.001l-0.702-1.163H49.38L48.632,11.572
		L48.632,11.572z"/>
	<path fill="#FF0000" d="M64.146,12.733V7.304h-1.27v5.961c0,0.164,0.068,0.321,0.188,0.438c0.123,0.124,0.288,0.192,0.463,0.192
		h5.775l0.75-1.163H64.146L64.146,12.733z"/>
	<path fill="#FF0000" d="M43.178,11.762c1.233,0,2.227-0.998,2.227-2.229s-0.994-2.229-2.227-2.229h-5.545v6.592h1.267V8.47h4.192
		c0.59,0,1.066,0.476,1.066,1.063c0,0.587-0.477,1.068-1.066,1.068l-3.573-0.001l3.785,3.295h1.839L42.6,11.761L43.178,11.762
		L43.178,11.762z"/>
	<path fill="#FF0000" d="M29.834,13.896c-1.82,0-3.296-1.474-3.296-3.294c0-1.821,1.476-3.298,3.296-3.298h3.832
		c1.821,0,3.292,1.477,3.292,3.298c0,1.82-1.471,3.295-3.292,3.295L29.834,13.896L29.834,13.896z M33.579,12.737
		c1.181,0,2.133-0.957,2.133-2.135c0-1.18-0.953-2.132-2.133-2.132h-3.66c-1.179,0-2.132,0.952-2.132,2.132
		c0,1.178,0.953,2.135,2.132,2.135H33.579z"/>
	<path fill="#FF0000" d="M57.649,13.896c-1.822,0-3.302-1.474-3.302-3.294c0-1.821,1.479-3.298,3.302-3.298h4.549L61.448,8.47
		h-3.715c-1.184,0-2.137,0.952-2.137,2.132c0,1.178,0.953,2.135,2.137,2.135H62.3l-0.742,1.159H57.649L57.649,13.896z"/>
	<path fill="#FF0000" d="M73.148,12.737c-0.976,0-1.799-0.656-2.053-1.553h5.416l0.747-1.162h-6.163
		c0.252-0.897,1.077-1.552,2.053-1.552h3.718l0.744-1.166h-4.547c-1.817,0-3.295,1.477-3.295,3.298c0,1.82,1.478,3.294,3.295,3.294
		h3.911l0.744-1.159H73.148z"/>
	<path fill="#FF0000" d="M78.29,8.007c0-0.321,0.26-0.581,0.584-0.581s0.584,0.26,0.584,0.581c0,0.322-0.26,0.582-0.584,0.582
		S78.29,8.329,78.29,8.007z M78.874,8.75c0.41,0,0.738-0.33,0.738-0.738c0-0.411-0.328-0.744-0.738-0.744s-0.742,0.333-0.742,0.744
		C78.132,8.42,78.464,8.75,78.874,8.75z M78.804,7.572c0.112,0,0.16,0.003,0.219,0.022c0.146,0.047,0.159,0.183,0.159,0.231
		c0,0.011-0.005,0.038-0.01,0.066c-0.007,0.033-0.024,0.101-0.101,0.145c-0.011,0.007-0.016,0.012-0.035,0.021l0.19,0.343h-0.186
		l-0.17-0.319h-0.108V8.4h-0.168V7.572H78.804z M78.865,7.947c0.047,0,0.104-0.005,0.132-0.055c0.021-0.019,0.025-0.041,0.025-0.069
		c0-0.046-0.027-0.082-0.064-0.103c-0.041-0.016-0.075-0.016-0.153-0.016h-0.041v0.242H78.865L78.865,7.947z"/>
</g>
<polygon fill="#7F7F7F" points="26.538,17.192 79.575,17.192 79.575,17.656 26.538,17.656 "/>
<g>
	<path d="M4.098,20.833c0.36-0.063,1.08-0.127,1.773-0.127c0.837,0,1.351,0.081,1.801,0.343c0.423,0.225,0.72,0.639,0.72,1.197
		c0,0.531-0.315,1.026-1,1.287v0.019c0.693,0.18,1.207,0.711,1.207,1.485c0,0.558-0.252,0.99-0.63,1.296
		c-0.441,0.352-1.179,0.55-2.386,0.55c-0.675,0-1.179-0.046-1.485-0.091V20.833z M5.458,23.156h0.45
		c0.729,0,1.107-0.297,1.107-0.747c0-0.459-0.351-0.702-0.973-0.702c-0.306,0-0.477,0.018-0.585,0.036V23.156z M5.458,25.847
		c0.135,0.019,0.297,0.019,0.531,0.019c0.621,0,1.17-0.243,1.17-0.883c0-0.603-0.549-0.846-1.233-0.846H5.458V25.847z"/>
	<path d="M10.903,20.752v3.483c0,1.054,0.405,1.585,1.099,1.585c0.72,0,1.116-0.505,1.116-1.585v-3.483h1.368v3.402
		c0,1.873-0.945,2.764-2.529,2.764c-1.531,0-2.422-0.854-2.422-2.781v-3.385H10.903z"/>
	<path d="M15.717,25.406c0.36,0.188,0.937,0.378,1.521,0.378c0.63,0,0.963-0.262,0.963-0.657c0-0.378-0.288-0.595-1.018-0.847
		c-1.008-0.359-1.674-0.918-1.674-1.8c0-1.036,0.873-1.819,2.296-1.819c0.693,0,1.188,0.136,1.548,0.307l-0.306,1.098
		c-0.234-0.116-0.675-0.287-1.26-0.287c-0.594,0-0.882,0.278-0.882,0.585c0,0.387,0.333,0.558,1.125,0.854
		c1.072,0.396,1.567,0.955,1.567,1.81c0,1.018-0.774,1.882-2.44,1.882c-0.693,0-1.377-0.188-1.72-0.378L15.717,25.406z"/>
	<path d="M21.909,20.752v6.067h-1.369v-6.067H21.909z"/>
	<path d="M23.097,26.82v-6.067h1.603l1.26,2.224c0.36,0.639,0.711,1.395,0.99,2.079h0.018c-0.081-0.801-0.108-1.62-0.108-2.539
		v-1.764h1.26v6.067h-1.44l-1.296-2.341c-0.36-0.648-0.765-1.432-1.053-2.143h-0.036c0.045,0.811,0.063,1.666,0.063,2.656v1.827
		H23.097z"/>
	<path d="M32.917,24.254h-2.232v1.44h2.493v1.125h-3.861v-6.067h3.735v1.125h-2.367v1.261h2.232V24.254z"/>
	<path d="M34.158,25.406c0.359,0.188,0.936,0.378,1.521,0.378c0.63,0,0.963-0.262,0.963-0.657c0-0.378-0.288-0.595-1.018-0.847
		c-1.008-0.359-1.674-0.918-1.674-1.8c0-1.036,0.873-1.819,2.295-1.819c0.693,0,1.188,0.136,1.549,0.307l-0.307,1.098
		c-0.233-0.116-0.675-0.287-1.26-0.287c-0.595,0-0.883,0.278-0.883,0.585c0,0.387,0.334,0.558,1.126,0.854
		c1.071,0.396,1.566,0.955,1.566,1.81c0,1.018-0.774,1.882-2.439,1.882c-0.693,0-1.378-0.188-1.72-0.378L34.158,25.406z"/>
	<path d="M39.018,25.406c0.359,0.188,0.936,0.378,1.521,0.378c0.63,0,0.963-0.262,0.963-0.657c0-0.378-0.288-0.595-1.018-0.847
		c-1.008-0.359-1.674-0.918-1.674-1.8c0-1.036,0.873-1.819,2.295-1.819c0.693,0,1.188,0.136,1.549,0.307l-0.307,1.098
		c-0.233-0.116-0.675-0.287-1.26-0.287c-0.595,0-0.883,0.278-0.883,0.585c0,0.387,0.334,0.558,1.126,0.854
		c1.071,0.396,1.566,0.955,1.566,1.81c0,1.018-0.774,1.882-2.439,1.882c-0.693,0-1.378-0.188-1.72-0.378L39.018,25.406z"/>
	<path d="M47.029,20.752v6.067H45.66v-6.067H47.029z"/>
	<path d="M48.215,26.82v-6.067h1.603l1.261,2.224c0.36,0.639,0.711,1.395,0.99,2.079h0.018c-0.08-0.801-0.107-1.62-0.107-2.539
		v-1.764h1.26v6.067h-1.439l-1.297-2.341c-0.36-0.648-0.766-1.432-1.054-2.143h-0.035c0.045,0.811,0.063,1.666,0.063,2.656v1.827
		H48.215z"/>
	<path d="M55.605,21.905h-1.639v-1.152h4.664v1.152h-1.657v4.915h-1.368V21.905z"/>
	<path d="M62.967,24.254h-2.232v1.44h2.494v1.125h-3.862v-6.067h3.735v1.125h-2.367v1.261h2.232V24.254z"/>
	<path d="M64.173,20.752h1.368v4.915h2.413v1.152h-3.781V20.752z"/>
	<path d="M68.772,20.752h1.368v4.915h2.413v1.152h-3.781V20.752z"/>
	<path d="M74.739,20.752v6.067H73.37v-6.067H74.739z"/>
	<path d="M80.995,26.54c-0.424,0.145-1.225,0.343-2.026,0.343c-1.107,0-1.908-0.279-2.467-0.811
		c-0.549-0.531-0.854-1.323-0.854-2.215c0.009-2.017,1.477-3.169,3.466-3.169c0.783,0,1.387,0.153,1.684,0.288l-0.288,1.107
		c-0.333-0.153-0.738-0.261-1.404-0.261c-1.144,0-2.017,0.639-2.017,1.962c0,1.261,0.792,1.99,1.917,1.99
		c0.307,0,0.559-0.036,0.666-0.081v-1.278h-0.936v-1.071h2.26V26.54z"/>
	<path d="M85.674,24.254h-2.232v1.44h2.494v1.125h-3.862v-6.067h3.735v1.125h-2.367v1.261h2.232V24.254z"/>
	<path d="M86.869,26.82v-6.067h1.603l1.261,2.224c0.36,0.639,0.711,1.395,0.99,2.079h0.018c-0.08-0.801-0.107-1.62-0.107-2.539
		v-1.764h1.26v6.067h-1.439l-1.297-2.341c-0.36-0.648-0.766-1.432-1.054-2.143h-0.035c0.045,0.811,0.063,1.666,0.063,2.656v1.827
		H86.869z"/>
	<path d="M97.528,26.657c-0.243,0.117-0.819,0.261-1.549,0.261c-2.098,0-3.178-1.314-3.178-3.043c0-2.07,1.477-3.214,3.313-3.214
		c0.711,0,1.252,0.136,1.494,0.271l-0.288,1.08c-0.27-0.117-0.657-0.225-1.152-0.225c-1.08,0-1.926,0.657-1.926,2.007
		c0,1.216,0.72,1.981,1.936,1.981c0.423,0,0.873-0.081,1.152-0.198L97.528,26.657z"/>
	<path d="M102.044,24.254h-2.232v1.44h2.493v1.125h-3.861v-6.067h3.735v1.125h-2.367v1.261h2.232V24.254z"/>
</g>
</svg>
