<?xml version="1.0" encoding="utf-8"?>
<!--
  - This file is part of StyleBI.
  - Copyright (C) 2024  InetSoft Technology
  -
  - This program is free software: you can redistribute it and/or modify
  - it under the terms of the GNU Affero General Public License as published by
  - the Free Software Foundation, either version 3 of the License, or
  - (at your option) any later version.
  -
  - This program is distributed in the hope that it will be useful,
  - but WITHOUT ANY WARRANTY; without even the implied warranty of
  - MERCHANTABILITY or FITNESS FOR A PARTICULAR PURPOSE.  See the
  - GNU Affero General Public License for more details.
  -
  - You should have received a copy of the GNU Affero General Public License
  - along with this program.  If not, see <https://www.gnu.org/licenses/>.
  -->

<!-- Generator: Adobe Illustrator 15.1.0, SVG Export Plug-In . SVG Version: 6.00 Build 0)  -->
<!DOCTYPE svg PUBLIC "-//W3C//DTD SVG 1.1//EN" "http://www.w3.org/Graphics/SVG/1.1/DTD/svg11.dtd">
<svg version="1.1" id="Layer_1" xmlns="http://www.w3.org/2000/svg" xmlns:xlink="http://www.w3.org/1999/xlink" x="0px" y="0px"
	 width="87.702px" height="30px" viewBox="9.224 3.156 87.702 30" enable-background="new 9.224 3.156 87.702 30"
	 xml:space="preserve">
<g>
	<path fill="#FF0000" d="M48.632,11.572h3.381l-1.786-2.881l-3.28,5.205l-1.498,0.001l3.992-6.25
		c0.17-0.251,0.462-0.405,0.782-0.405c0.314,0,0.601,0.147,0.771,0.395l4.006,6.261l-1.497-0.001l-0.702-1.163H49.38L48.632,11.572
		L48.632,11.572z"/>
	<path fill="#FF0000" d="M64.146,12.733V7.304h-1.27v5.961c0,0.164,0.068,0.321,0.188,0.438c0.123,0.124,0.288,0.192,0.463,0.192
		h5.775l0.75-1.163H64.146L64.146,12.733z"/>
	<path fill="#FF0000" d="M43.178,11.762c1.233,0,2.227-0.998,2.227-2.229s-0.994-2.229-2.227-2.229h-5.545v6.592h1.267V8.47h4.192
		c0.59,0,1.066,0.476,1.066,1.063c0,0.587-0.477,1.068-1.066,1.068l-3.573-0.001l3.785,3.295h1.839L42.6,11.761L43.178,11.762
		L43.178,11.762z"/>
	<path fill="#FF0000" d="M29.834,13.896c-1.82,0-3.296-1.474-3.296-3.294c0-1.821,1.476-3.298,3.296-3.298h3.832
		c1.821,0,3.292,1.477,3.292,3.298c0,1.82-1.471,3.295-3.292,3.295L29.834,13.896L29.834,13.896z M33.579,12.737
		c1.181,0,2.133-0.957,2.133-2.135c0-1.18-0.953-2.132-2.133-2.132h-3.66c-1.179,0-2.132,0.952-2.132,2.132
		c0,1.178,0.953,2.135,2.132,2.135H33.579z"/>
	<path fill="#FF0000" d="M57.649,13.896c-1.822,0-3.302-1.474-3.302-3.294c0-1.821,1.479-3.298,3.302-3.298h4.549L61.448,8.47
		h-3.715c-1.184,0-2.137,0.952-2.137,2.132c0,1.178,0.953,2.135,2.137,2.135H62.3l-0.742,1.159H57.649L57.649,13.896z"/>
	<path fill="#FF0000" d="M73.148,12.737c-0.976,0-1.799-0.656-2.053-1.553h5.416l0.747-1.162h-6.163
		c0.252-0.897,1.077-1.552,2.053-1.552h3.718l0.744-1.166h-4.547c-1.817,0-3.295,1.477-3.295,3.298c0,1.82,1.478,3.294,3.295,3.294
		h3.911l0.744-1.159H73.148z"/>
	<path fill="#FF0000" d="M78.29,8.007c0-0.321,0.26-0.581,0.584-0.581s0.584,0.26,0.584,0.581c0,0.322-0.26,0.582-0.584,0.582
		S78.29,8.329,78.29,8.007z M78.874,8.75c0.41,0,0.738-0.33,0.738-0.738c0-0.411-0.328-0.744-0.738-0.744s-0.742,0.333-0.742,0.744
		C78.132,8.42,78.464,8.75,78.874,8.75z M78.804,7.572c0.112,0,0.16,0.003,0.219,0.022c0.146,0.047,0.159,0.183,0.159,0.231
		c0,0.011-0.005,0.038-0.01,0.066c-0.007,0.033-0.024,0.101-0.101,0.145c-0.011,0.007-0.016,0.012-0.035,0.021l0.19,0.343h-0.186
		l-0.17-0.319h-0.108V8.4h-0.168V7.572H78.804z M78.865,7.947c0.047,0,0.104-0.005,0.132-0.055c0.021-0.019,0.025-0.041,0.025-0.069
		c0-0.046-0.027-0.082-0.064-0.103c-0.041-0.016-0.075-0.016-0.153-0.016h-0.041v0.242H78.865L78.865,7.947z"/>
</g>
<polygon fill="#7F7F7F" points="26.538,17.192 79.575,17.192 79.575,17.656 26.538,17.656 "/>
<g>
	<path d="M27.615,20.833c0.423-0.072,1.017-0.127,1.854-0.127c0.846,0,1.449,0.162,1.854,0.486c0.396,0.307,0.648,0.811,0.648,1.404
		c0,0.595-0.189,1.107-0.558,1.44c-0.468,0.433-1.162,0.64-1.972,0.64c-0.18,0-0.342-0.009-0.468-0.036v2.179h-1.359V20.833z
		 M28.974,23.587c0.117,0.027,0.252,0.036,0.459,0.036c0.729,0,1.18-0.369,1.18-0.981c0-0.558-0.387-0.891-1.081-0.891
		c-0.27,0-0.459,0.018-0.558,0.045V23.587z"/>
	<path d="M36.454,24.254h-2.232v1.44h2.494v1.125h-3.862v-6.067h3.736v1.125h-2.368v1.261h2.232V24.254z"/>
	<path d="M43.205,23.723c0,1.998-1.197,3.195-2.98,3.195c-1.792,0-2.854-1.359-2.854-3.097c0-1.818,1.17-3.178,2.953-3.178
		C42.187,20.644,43.205,22.039,43.205,23.723z M38.821,23.794c0,1.198,0.558,2.035,1.477,2.035c0.927,0,1.458-0.883,1.458-2.062
		c0-1.099-0.513-2.035-1.458-2.035C39.361,21.733,38.821,22.615,38.821,23.794z"/>
	<path d="M44.103,20.833c0.423-0.072,1.017-0.127,1.854-0.127c0.846,0,1.449,0.162,1.854,0.486c0.396,0.307,0.648,0.811,0.648,1.404
		c0,0.595-0.189,1.107-0.559,1.44c-0.468,0.433-1.161,0.64-1.971,0.64c-0.18,0-0.342-0.009-0.468-0.036v2.179h-1.359V20.833z
		 M45.462,23.587c0.117,0.027,0.252,0.036,0.459,0.036c0.729,0,1.18-0.369,1.18-0.981c0-0.558-0.387-0.891-1.081-0.891
		c-0.27,0-0.459,0.018-0.558,0.045V23.587z"/>
	<path d="M49.341,20.752h1.369v4.915h2.413v1.152h-3.782V20.752z"/>
	<path d="M57.54,24.254h-2.232v1.44h2.494v1.125H53.94v-6.067h3.735v1.125h-2.367v1.261h2.232V24.254z"/>
	<path d="M58.782,25.406c0.359,0.188,0.936,0.378,1.521,0.378c0.63,0,0.963-0.262,0.963-0.657c0-0.378-0.288-0.595-1.018-0.847
		c-1.008-0.359-1.674-0.918-1.674-1.8c0-1.036,0.873-1.819,2.295-1.819c0.693,0,1.188,0.136,1.549,0.307l-0.307,1.098
		c-0.233-0.116-0.675-0.287-1.26-0.287c-0.595,0-0.883,0.278-0.883,0.585c0,0.387,0.334,0.558,1.126,0.854
		c1.071,0.396,1.566,0.955,1.566,1.81c0,1.018-0.774,1.882-2.439,1.882c-0.693,0-1.378-0.188-1.72-0.378L58.782,25.406z"/>
	<path d="M69.151,23.723c0,1.998-1.197,3.195-2.979,3.195c-1.792,0-2.854-1.359-2.854-3.097c0-1.818,1.17-3.178,2.952-3.178
		C68.134,20.644,69.151,22.039,69.151,23.723z M64.767,23.794c0,1.198,0.558,2.035,1.477,2.035c0.927,0,1.458-0.883,1.458-2.062
		c0-1.099-0.513-2.035-1.458-2.035C65.307,21.733,64.767,22.615,64.767,23.794z"/>
	<path d="M70.059,20.752h3.7v1.125h-2.332v1.387h2.179v1.116h-2.179v2.439h-1.368V20.752z"/>
	<path d="M75.972,21.905h-1.639v-1.152h4.664v1.152H77.34v4.915h-1.368V21.905z"/>
</g>
</svg>
