<?xml version="1.0" encoding="utf-8"?>
<!--
  - This file is part of StyleBI.
  - Copyright (C) 2024  InetSoft Technology
  -
  - This program is free software: you can redistribute it and/or modify
  - it under the terms of the GNU Affero General Public License as published by
  - the Free Software Foundation, either version 3 of the License, or
  - (at your option) any later version.
  -
  - This program is distributed in the hope that it will be useful,
  - but WITHOUT ANY WARRANTY; without even the implied warranty of
  - MERCHANTABILITY or FITNESS FOR A PARTICULAR PURPOSE.  See the
  - GNU Affero General Public License for more details.
  -
  - You should have received a copy of the GNU Affero General Public License
  - along with this program.  If not, see <https://www.gnu.org/licenses/>.
  -->

<!-- Generator: Adobe Illustrator 15.1.0, SVG Export Plug-In . SVG Version: 6.00 Build 0)  -->
<!DOCTYPE svg PUBLIC "-//W3C//DTD SVG 1.1//EN" "http://www.w3.org/Graphics/SVG/1.1/DTD/svg11.dtd">
<svg version="1.1" id="Layer_1" xmlns="http://www.w3.org/2000/svg" xmlns:xlink="http://www.w3.org/1999/xlink" x="0px" y="0px"
	 width="87.702px" height="30px" viewBox="9.224 3.156 87.702 30" enable-background="new 9.224 3.156 87.702 30"
	 xml:space="preserve">
<g>
	<path fill="#FF0000" d="M48.632,11.572h3.381l-1.786-2.881l-3.28,5.205l-1.498,0.001l3.992-6.25
		c0.17-0.251,0.462-0.405,0.782-0.405c0.314,0,0.601,0.147,0.771,0.395l4.006,6.261l-1.497-0.001l-0.702-1.163H49.38L48.632,11.572
		L48.632,11.572z"/>
	<path fill="#FF0000" d="M64.146,12.733V7.304h-1.27v5.961c0,0.164,0.068,0.321,0.188,0.438c0.123,0.124,0.288,0.192,0.463,0.192
		h5.775l0.75-1.163H64.146L64.146,12.733z"/>
	<path fill="#FF0000" d="M43.178,11.762c1.233,0,2.227-0.998,2.227-2.229s-0.994-2.229-2.227-2.229h-5.545v6.592h1.267V8.47h4.192
		c0.59,0,1.066,0.476,1.066,1.063c0,0.587-0.477,1.068-1.066,1.068l-3.573-0.001l3.785,3.295h1.839L42.6,11.761L43.178,11.762
		L43.178,11.762z"/>
	<path fill="#FF0000" d="M29.834,13.896c-1.82,0-3.296-1.474-3.296-3.294c0-1.821,1.476-3.298,3.296-3.298h3.832
		c1.821,0,3.292,1.477,3.292,3.298c0,1.82-1.471,3.295-3.292,3.295L29.834,13.896L29.834,13.896z M33.579,12.737
		c1.181,0,2.133-0.957,2.133-2.135c0-1.18-0.953-2.132-2.133-2.132h-3.66c-1.179,0-2.132,0.952-2.132,2.132
		c0,1.178,0.953,2.135,2.132,2.135H33.579z"/>
	<path fill="#FF0000" d="M57.649,13.896c-1.822,0-3.302-1.474-3.302-3.294c0-1.821,1.479-3.298,3.302-3.298h4.549L61.448,8.47
		h-3.715c-1.184,0-2.137,0.952-2.137,2.132c0,1.178,0.953,2.135,2.137,2.135H62.3l-0.742,1.159H57.649L57.649,13.896z"/>
	<path fill="#FF0000" d="M73.148,12.737c-0.976,0-1.799-0.656-2.053-1.553h5.416l0.747-1.162h-6.163
		c0.252-0.897,1.077-1.552,2.053-1.552h3.718l0.744-1.166h-4.547c-1.817,0-3.295,1.477-3.295,3.298c0,1.82,1.478,3.294,3.295,3.294
		h3.911l0.744-1.159H73.148z"/>
	<path fill="#FF0000" d="M78.29,8.007c0-0.321,0.26-0.581,0.584-0.581s0.584,0.26,0.584,0.581c0,0.322-0.26,0.582-0.584,0.582
		S78.29,8.329,78.29,8.007z M78.874,8.75c0.41,0,0.738-0.33,0.738-0.738c0-0.411-0.328-0.744-0.738-0.744s-0.742,0.333-0.742,0.744
		C78.132,8.42,78.464,8.75,78.874,8.75z M78.804,7.572c0.112,0,0.16,0.003,0.219,0.022c0.146,0.047,0.159,0.183,0.159,0.231
		c0,0.011-0.005,0.038-0.01,0.066c-0.007,0.033-0.024,0.101-0.101,0.145c-0.011,0.007-0.016,0.012-0.035,0.021l0.19,0.343h-0.186
		l-0.17-0.319h-0.108V8.4h-0.168V7.572H78.804z M78.865,7.947c0.047,0,0.104-0.005,0.132-0.055c0.021-0.019,0.025-0.041,0.025-0.069
		c0-0.046-0.027-0.082-0.064-0.103c-0.041-0.016-0.075-0.016-0.153-0.016h-0.041v0.242H78.865L78.865,7.947z"/>
</g>
<polygon fill="#7F7F7F" points="26.538,17.192 79.575,17.192 79.575,17.656 26.538,17.656 "/>
<g>
	<path d="M40.178,25.406c0.36,0.188,0.937,0.378,1.521,0.378c0.63,0,0.963-0.262,0.963-0.657c0-0.378-0.288-0.595-1.018-0.847
		c-1.008-0.359-1.674-0.918-1.674-1.8c0-1.036,0.873-1.819,2.296-1.819c0.693,0,1.188,0.136,1.548,0.307l-0.306,1.098
		c-0.234-0.116-0.675-0.287-1.26-0.287c-0.594,0-0.882,0.278-0.882,0.585c0,0.387,0.333,0.558,1.125,0.854
		c1.071,0.396,1.566,0.955,1.566,1.81c0,1.018-0.774,1.882-2.44,1.882c-0.693,0-1.377-0.188-1.719-0.378L40.178,25.406z"/>
	<path d="M46.371,20.752v6.067h-1.369v-6.067H46.371z"/>
	<path d="M51.168,24.254h-2.232v1.44h2.494v1.125h-3.862v-6.067h3.736v1.125h-2.368v1.261h2.232V24.254z"/>
	<path d="M52.365,20.833c0.36-0.063,1.08-0.127,1.773-0.127c0.838,0,1.351,0.081,1.801,0.343c0.423,0.225,0.721,0.639,0.721,1.197
		c0,0.531-0.316,1.026-1,1.287v0.019c0.693,0.18,1.207,0.711,1.207,1.485c0,0.558-0.253,0.99-0.631,1.296
		c-0.441,0.352-1.18,0.55-2.386,0.55c-0.675,0-1.179-0.046-1.485-0.091V20.833z M53.724,23.156h0.45
		c0.729,0,1.107-0.297,1.107-0.747c0-0.459-0.351-0.702-0.973-0.702c-0.306,0-0.478,0.018-0.585,0.036V23.156z M53.724,25.847
		c0.135,0.019,0.297,0.019,0.531,0.019c0.621,0,1.17-0.243,1.17-0.883c0-0.603-0.549-0.846-1.232-0.846h-0.469V25.847z"/>
	<path d="M61.409,24.254h-2.232v1.44h2.494v1.125h-3.862v-6.067h3.736v1.125h-2.368v1.261h2.232V24.254z"/>
	<path d="M62.615,20.752h1.369v4.915h2.413v1.152h-3.782V20.752z"/>
</g>
</svg>
