<?xml version="1.0" encoding="utf-8"?>
<!--
  - This file is part of StyleBI.
  - Copyright (C) 2024  InetSoft Technology
  -
  - This program is free software: you can redistribute it and/or modify
  - it under the terms of the GNU Affero General Public License as published by
  - the Free Software Foundation, either version 3 of the License, or
  - (at your option) any later version.
  -
  - This program is distributed in the hope that it will be useful,
  - but WITHOUT ANY WARRANTY; without even the implied warranty of
  - MERCHANTABILITY or FITNESS FOR A PARTICULAR PURPOSE.  See the
  - GNU Affero General Public License for more details.
  -
  - You should have received a copy of the GNU Affero General Public License
  - along with this program.  If not, see <https://www.gnu.org/licenses/>.
  -->

<!-- Generator: Adobe Illustrator 15.1.0, SVG Export Plug-In . SVG Version: 6.00 Build 0)  -->
<!DOCTYPE svg PUBLIC "-//W3C//DTD SVG 1.1//EN" "http://www.w3.org/Graphics/SVG/1.1/DTD/svg11.dtd">
<svg version="1.1" id="Layer_1" xmlns="http://www.w3.org/2000/svg" xmlns:xlink="http://www.w3.org/1999/xlink" x="0px" y="0px"
	 width="130px" height="30px" viewBox="60 20 130 30" enable-background="new 60 20 130 30" xml:space="preserve">
<path fill="#EA1B22" d="M116.468,37.446h8.256l-4.366-7.023l-8.012,12.698H108.7l9.745-15.254c0.424-0.616,1.13-0.989,1.914-0.989
	c0.758,0,1.464,0.359,1.875,0.963l9.784,15.28h-3.646l-1.721-2.838h-8.358L116.468,37.446L116.468,37.446z M154.346,40.284V27.033
	h-3.095v14.548c0,0.397,0.154,0.782,0.448,1.078c0.297,0.296,0.694,0.463,1.131,0.463h14.111l1.823-2.838H154.346L154.346,40.284z
	 M103.153,37.908c3.005,0,5.445-2.427,5.445-5.431c0-3.005-2.439-5.444-5.445-5.444H89.616v16.089h3.093V29.871h10.239
	c1.438,0,2.593,1.169,2.593,2.606s-1.155,2.606-2.593,2.606l-8.724-0.013l9.237,8.051h4.494l-6.214-5.213L103.153,37.908
	L103.153,37.908z M70.575,43.122c-4.441,0-8.046-3.596-8.046-8.038c0-4.443,3.604-8.051,8.046-8.051h9.351
	c4.443,0,8.044,3.607,8.044,8.051c0,4.442-3.602,8.038-8.044,8.038H70.575L70.575,43.122z M79.718,40.284
	c2.877,0,5.208-2.324,5.208-5.2s-2.331-5.213-5.208-5.213h-8.937c-2.877,0-5.208,2.337-5.208,5.213s2.331,5.2,5.208,5.2H79.718
	L79.718,40.284z M138.476,43.122c-4.442,0-8.052-3.596-8.052-8.038c0-4.443,3.609-8.051,8.052-8.051h11.106l-1.811,2.838h-9.091
	c-2.876,0-5.214,2.337-5.214,5.213c0,2.875,2.338,5.2,5.214,5.2h11.157l-1.822,2.838H138.476L138.476,43.122z M176.314,40.284
	c-2.375,0-4.391-1.593-5.008-3.788h13.225l1.824-2.837h-15.049c0.615-2.184,2.633-3.788,5.008-3.788h9.078l1.835-2.838h-11.119
	c-4.442,0-8.05,3.608-8.05,8.051s3.607,8.038,8.05,8.038h9.54l1.822-2.838H176.314L176.314,40.284z"/>
</svg>
