<?xml version="1.0" encoding="utf-8"?>
<!--
  - This file is part of StyleBI.
  -
  - Copyright (c) 2024, InetSoft Technology Corp, All Rights Reserved.
  -
  - The software and information contained herein are copyrighted and
  - proprietary to InetSoft Technology Corp. This software is furnished
  - pursuant to a written license agreement and may be used, copied,
  - transmitted, and stored only in accordance with the terms of such
  - license and with the inclusion of the above copyright notice. Please
  - refer to the file "COPYRIGHT" for further copyright and licensing
  - information. This software and information or any other copies
  - thereof may not be provided or otherwise made available to any other
  - person.
  -->

<!-- Generator: Adobe Illustrator 15.1.0, SVG Export Plug-In . SVG Version: 6.00 Build 0)  -->
<!DOCTYPE svg PUBLIC "-//W3C//DTD SVG 1.1//EN" "http://www.w3.org/Graphics/SVG/1.1/DTD/svg11.dtd">
<svg version="1.1" id="Layer_1" xmlns="http://www.w3.org/2000/svg" xmlns:xlink="http://www.w3.org/1999/xlink" x="0px" y="0px"
	 width="30px" height="30px" viewBox="0 0 30 30" enable-background="new 0 0 30 30" xml:space="preserve">
<g>
	<path fill="#F2683C" d="M1.394,13.441c0.091,0.103,1.262,1.274,2.798,2.047c1.645,0.83,3.671,1.262,4.04,1.269
		c-0.058-0.587-0.211-0.917-0.201-1.518c0.01-0.572,0.075-1.345,0.203-1.902c-0.374,0.152-1.748,0.703-3.223,0.702
		C3.451,14.038,1.786,13.48,1.394,13.441z"/>
	<path fill="#CFCFCE" d="M6.48,4.448C6.472,4.585,6.478,6.241,7.023,7.873c0.585,1.748,1.719,3.48,1.976,3.746
		c0.373-0.458,0.496-0.799,0.927-1.219c0.41-0.398,1-0.902,1.483-1.208C11.036,9.036,9.673,8.46,8.627,7.421
		C7.52,6.321,6.731,4.752,6.48,4.448z"/>
	<path fill="#F2683C" d="M16.692,1.423c-0.104,0.089-1.294,1.241-2.091,2.766c-0.854,1.632-1.317,3.651-1.331,4.02
		c0.588-0.049,0.92-0.197,1.521-0.177c0.572,0.019,1.344,0.096,1.898,0.232c-0.146-0.376-0.676-1.759-0.651-3.233
		C16.063,3.47,16.646,1.814,16.692,1.423z"/>
	<path fill="#CFCFCE" d="M25.822,6.167c-0.137-0.003-1.793,0.056-3.405,0.653c-1.728,0.64-3.423,1.829-3.681,2.094
		c0.47,0.358,0.814,0.47,1.248,0.888c0.411,0.396,0.934,0.971,1.255,1.444c0.143-0.377,0.676-1.759,1.681-2.837
		C23.983,7.267,25.525,6.428,25.822,6.167z"/>
	<path fill="#CFCFCE" d="M4.14,23.25c0.135,0.022,1.783,0.192,3.463-0.177c1.799-0.396,3.643-1.341,3.934-1.567
		c-0.416-0.419-0.742-0.577-1.114-1.051c-0.353-0.45-0.791-1.09-1.043-1.604c-0.193,0.354-0.912,1.649-2.056,2.578
		C6.112,22.414,4.47,23.032,4.14,23.25z"/>
	<path fill="#F2683C" d="M13.26,28.577c0.104-0.089,1.297-1.238,2.099-2.76c0.859-1.63,1.328-3.647,1.342-4.016
		c-0.588,0.047-0.92,0.193-1.521,0.172c-0.571-0.021-1.344-0.1-1.898-0.237c0.145,0.377,0.67,1.761,0.642,3.235
		C13.896,26.531,13.307,28.185,13.26,28.577z"/>
	<path fill="#F2683C" d="M28.606,16.732c-0.09-0.104-1.247-1.289-2.773-2.081c-1.636-0.848-3.657-1.302-4.025-1.315
		c0.052,0.588,0.199,0.919,0.182,1.521c-0.017,0.571-0.089,1.344-0.224,1.899c0.376-0.147,1.756-0.683,3.23-0.665
		C26.556,16.111,28.214,16.688,28.606,16.732z"/>
	<path fill="#CFCFCE" d="M23.321,25.93c0.013-0.137,0.065-1.793-0.422-3.441c-0.522-1.768-1.596-3.539-1.842-3.813
		c-0.39,0.445-0.524,0.782-0.971,1.187c-0.423,0.384-1.03,0.865-1.524,1.154c0.368,0.168,1.71,0.793,2.719,1.867
		C22.349,24.021,23.081,25.616,23.321,25.93z"/>
</g>
</svg>
