<?xml version="1.0" encoding="utf-8"?>
<!--
  - This file is part of StyleBI.
  - Copyright (C) 2024  InetSoft Technology
  -
  - This program is free software: you can redistribute it and/or modify
  - it under the terms of the GNU Affero General Public License as published by
  - the Free Software Foundation, either version 3 of the License, or
  - (at your option) any later version.
  -
  - This program is distributed in the hope that it will be useful,
  - but WITHOUT ANY WARRANTY; without even the implied warranty of
  - MERCHANTABILITY or FITNESS FOR A PARTICULAR PURPOSE.  See the
  - GNU Affero General Public License for more details.
  -
  - You should have received a copy of the GNU Affero General Public License
  - along with this program.  If not, see <https://www.gnu.org/licenses/>.
  -->

<!-- Generator: Adobe Illustrator 15.1.0, SVG Export Plug-In . SVG Version: 6.00 Build 0)  -->
<!DOCTYPE svg PUBLIC "-//W3C//DTD SVG 1.1//EN" "http://www.w3.org/Graphics/SVG/1.1/DTD/svg11.dtd">
<svg version="1.1" id="Layer_1" xmlns="http://www.w3.org/2000/svg" xmlns:xlink="http://www.w3.org/1999/xlink" x="0px" y="0px"
	 width="30px" height="30px" viewBox="113 158 30 30" enable-background="new 113 158 30 30" xml:space="preserve">
<path fill="#356483" d="M125.564,173.291c0,0-0.71,0.412,0.504,0.553c1.472,0.168,2.224,0.144,3.846-0.164
	c0,0,0.426,0.268,1.021,0.498C127.3,175.737,122.708,174.09,125.564,173.291"/>
<path fill="#356483" d="M125.12,171.258c0,0-0.796,0.59,0.419,0.716c1.572,0.161,2.813,0.174,4.961-0.239
	c0,0,0.297,0.302,0.764,0.466C126.869,173.486,121.974,172.302,125.12,171.258"/>
<path fill="#C95100" d="M128.863,167.809c0.896,1.032-0.235,1.959-0.235,1.959s2.274-1.174,1.229-2.644
	c-0.975-1.371-1.722-2.052,2.327-4.4C132.185,162.725,125.828,164.312,128.863,167.809"/>
<path fill="#356483" d="M133.671,174.795c0,0,0.524,0.433-0.577,0.768c-2.1,0.634-8.733,0.827-10.576,0.024
	c-0.663-0.287,0.581-0.688,0.971-0.772c0.407-0.088,0.641-0.071,0.641-0.071c-0.737-0.519-4.763,1.02-2.045,1.46
	C129.496,177.404,135.593,175.662,133.671,174.795"/>
<path fill="#356483" d="M125.905,169.151c0,0-3.375,0.802-1.195,1.093c0.92,0.125,2.754,0.095,4.466-0.047
	c1.395-0.117,2.796-0.367,2.796-0.367s-0.492,0.209-0.847,0.454c-3.428,0.9-10.048,0.481-8.142-0.439
	C124.595,169.063,125.905,169.151,125.905,169.151"/>
<path fill="#356483" d="M131.96,172.535c3.482-1.809,1.872-3.548,0.747-3.314c-0.276,0.058-0.398,0.108-0.398,0.108
	s0.102-0.161,0.298-0.23c2.225-0.782,3.936,2.306-0.717,3.529C131.89,172.627,131.941,172.579,131.96,172.535"/>
<path fill="#C95100" d="M129.857,158.932c0,0,1.929,1.931-1.829,4.898c-3.014,2.38-0.688,3.738-0.001,5.288
	c-1.76-1.587-3.051-2.985-2.184-4.285C127.114,162.923,130.636,161.997,129.857,158.932"/>
<path fill="#356483" d="M126.247,177.442c3.346,0.213,8.479-0.121,8.601-1.702c0,0-0.232,0.601-2.764,1.076
	c-2.853,0.538-6.375,0.475-8.462,0.13C123.622,176.946,124.05,177.299,126.247,177.442"/>
<g>
	<path fill="#323232" d="M119.601,178.565h1.338v3.751c0,1.69-0.81,2.28-2.104,2.28c-0.317,0-0.722-0.053-0.986-0.141l0.15-1.083
		c0.185,0.062,0.422,0.105,0.687,0.105c0.563,0,0.916-0.255,0.916-1.171V178.565z"/>
	<path fill="#323232" d="M122.056,178.654c0.493-0.08,1.136-0.133,1.805-0.133c1.136,0,1.875,0.212,2.439,0.635
		c0.616,0.457,1.004,1.188,1.004,2.235c0,1.136-0.414,1.92-0.978,2.404c-0.625,0.52-1.584,0.766-2.747,0.766
		c-0.695,0-1.197-0.044-1.523-0.088V178.654z M123.394,183.487c0.114,0.026,0.308,0.026,0.466,0.026
		c1.224,0.009,2.025-0.66,2.025-2.077c0-1.233-0.722-1.885-1.884-1.885c-0.291,0-0.493,0.026-0.607,0.053V183.487z"/>
	<path fill="#323232" d="M128.181,178.646c0.353-0.062,1.057-0.124,1.734-0.124c0.819,0,1.32,0.08,1.761,0.335
		c0.414,0.22,0.704,0.625,0.704,1.171c0,0.52-0.308,1.004-0.977,1.259v0.018c0.678,0.177,1.18,0.696,1.18,1.453
		c0,0.546-0.247,0.969-0.616,1.268c-0.432,0.344-1.153,0.537-2.333,0.537c-0.66,0-1.154-0.044-1.453-0.088V178.646z
		 M129.511,180.917h0.439c0.714,0,1.083-0.291,1.083-0.731c0-0.448-0.343-0.687-0.95-0.687c-0.3,0-0.467,0.018-0.572,0.035V180.917z
		 M129.511,183.549c0.132,0.018,0.29,0.018,0.52,0.018c0.607,0,1.144-0.237,1.144-0.862c0-0.59-0.536-0.828-1.206-0.828h-0.457
		V183.549z"/>
	<path fill="#323232" d="M137.845,184.342c-0.238,0.114-0.802,0.255-1.515,0.255c-2.052,0-3.107-1.285-3.107-2.976
		c0-2.025,1.443-3.144,3.239-3.144c0.696,0,1.224,0.133,1.462,0.265l-0.282,1.057c-0.264-0.115-0.643-0.221-1.127-0.221
		c-1.056,0-1.884,0.643-1.884,1.964c0,1.188,0.704,1.937,1.893,1.937c0.414,0,0.854-0.079,1.127-0.193L137.845,184.342z"/>
</g>
</svg>
