<?xml version="1.0" encoding="utf-8"?>
<!--
  - This file is part of StyleBI.
  - Copyright (C) 2024  InetSoft Technology
  -
  - This program is free software: you can redistribute it and/or modify
  - it under the terms of the GNU Affero General Public License as published by
  - the Free Software Foundation, either version 3 of the License, or
  - (at your option) any later version.
  -
  - This program is distributed in the hope that it will be useful,
  - but WITHOUT ANY WARRANTY; without even the implied warranty of
  - MERCHANTABILITY or FITNESS FOR A PARTICULAR PURPOSE.  See the
  - GNU Affero General Public License for more details.
  -
  - You should have received a copy of the GNU Affero General Public License
  - along with this program.  If not, see <https://www.gnu.org/licenses/>.
  -->

<!-- Generator: Adobe Illustrator 15.1.0, SVG Export Plug-In . SVG Version: 6.00 Build 0)  -->
<!DOCTYPE svg PUBLIC "-//W3C//DTD SVG 1.1//EN" "http://www.w3.org/Graphics/SVG/1.1/DTD/svg11.dtd">
<svg version="1.1" id="Layer_1" xmlns="http://www.w3.org/2000/svg" xmlns:xlink="http://www.w3.org/1999/xlink" x="0px" y="0px"
	 width="485.055px" height="500px" viewBox="-26.492 -27.309 485.055 500" enable-background="new -26.492 -27.309 485.055 500"
	 xml:space="preserve">
<g id="orginal">
</g>
<g id="Layer_x0020_3">
	<path stroke="#000000" stroke-width="37.3953" d="M323.206,324.227c2.832-23.601,1.984-27.062,19.563-23.238l4.463,0.392
		c13.518,0.615,31.199-2.174,41.588-7c22.361-10.376,35.621-27.7,13.57-23.147c-50.297,10.375-53.754-6.655-53.754-6.655
		c53.111-78.803,75.313-178.836,56.148-203.322c-52.27-66.789-142.748-35.206-144.262-34.386l-0.482,0.089
		c-9.938-2.062-21.06-3.294-33.554-3.496c-22.761-0.374-40.032,5.967-53.133,15.904c0,0-161.408-66.498-153.899,83.628
		c1.597,31.936,45.777,241.654,98.47,178.311c19.259-23.164,37.871-42.748,37.871-42.748c9.242,6.14,20.307,9.271,31.912,8.146
		l0.897-0.766c-0.281,2.877-0.157,5.689,0.359,9.02c-13.572,15.167-9.584,17.83-36.723,23.416
		c-27.457,5.659-11.326,15.734-0.797,18.367c12.768,3.193,42.305,7.716,62.268-20.225l-0.795,3.188
		c5.325,4.26,4.965,30.619,5.72,49.452c0.756,18.834,2.017,36.408,5.856,46.771c3.838,10.359,8.368,37.049,44.035,29.405
		C298.336,418.945,321.127,409.751,323.206,324.227"/>
	<path fill="#336791" d="M402.395,271.23c-50.303,10.375-53.76-6.655-53.76-6.655c53.111-78.808,75.313-178.843,56.152-203.326
		c-52.27-66.785-142.752-35.2-144.262-34.38l-0.486,0.087c-9.938-2.063-21.06-3.292-33.56-3.496
		c-22.761-0.373-40.026,5.967-53.127,15.902c0,0-161.411-66.495-153.904,83.63c1.597,31.938,45.776,241.656,98.471,178.313
		c19.26-23.164,37.869-42.748,37.869-42.748c9.243,6.14,20.308,9.271,31.908,8.146l0.901-0.766c-0.28,2.877-0.152,5.689,0.361,9.02
		c-13.575,15.167-9.586,17.83-36.723,23.416c-27.459,5.659-11.328,15.734-0.796,18.367c12.768,3.193,42.307,7.716,62.266-20.225
		l-0.796,3.188c5.319,4.26,9.053,27.711,8.428,48.969c-0.627,21.259-1.045,35.854,3.146,47.255
		c4.191,11.399,8.368,37.049,44.042,29.405c29.81-6.388,45.257-22.942,47.405-50.556c1.525-19.631,4.977-16.729,5.193-34.279
		l2.768-8.309c3.193-26.611,0.508-35.196,18.873-31.203l4.463,0.392c13.518,0.615,31.207-2.174,41.592-7
		c22.357-10.376,35.617-27.7,13.572-23.147H402.395z"/>
	<path fill="none" stroke="#FFFFFF" stroke-width="12.4651" stroke-linecap="round" stroke-linejoin="round" d="M215.866,286.484
		c-1.385,49.516,0.348,99.377,5.193,111.494c4.848,12.118,15.223,35.688,50.9,28.046c29.806-6.391,40.65-18.757,45.357-46.052
		c3.465-20.082,10.146-75.854,11.004-87.281"/>
	<path fill="none" stroke="#FFFFFF" stroke-width="12.4651" stroke-linecap="round" stroke-linejoin="round" d="M173.104,38.256
		c0,0-161.521-66.016-154.012,84.109c1.597,31.938,45.779,241.664,98.473,178.316c19.256-23.166,36.671-41.336,36.671-41.336"/>
	<path fill="none" stroke="#FFFFFF" stroke-width="12.4651" stroke-linecap="round" stroke-linejoin="round" d="M260.349,26.207
		c-5.591,1.753,89.849-34.889,144.087,34.417c19.158,24.484-3.043,124.519-56.152,203.329"/>
	<path fill="none" stroke="#FFFFFF" stroke-width="12.4651" stroke-linecap="round" stroke-linejoin="bevel" d="M348.282,263.953
		c0,0,3.461,17.036,53.764,6.652c22.041-4.551,8.777,12.774-13.576,23.156c-18.346,8.514-59.475,10.695-60.146-1.07
		c-1.729-30.354,21.646-21.133,19.961-28.738c-1.525-6.85-11.98-13.573-18.895-30.338c-6.037-14.633-82.797-126.849,21.287-110.183
		c3.813-0.789-27.146-99.002-124.553-100.599c-97.386-1.597-94.19,119.762-94.19,119.762"/>
	<path fill="none" stroke="#FFFFFF" stroke-width="12.4651" stroke-linecap="round" stroke-linejoin="round" d="M188.604,274.334
		c-13.577,15.166-9.584,17.829-36.723,23.417c-27.459,5.66-11.326,15.733-0.797,18.365c12.768,3.194,42.307,7.718,62.266-20.229
		c6.078-8.509-0.036-22.086-8.385-25.547C200.931,268.669,195.537,266.575,188.604,274.334z"/>
	<path fill="none" stroke="#FFFFFF" stroke-width="12.4651" stroke-linecap="round" stroke-linejoin="round" d="M187.715,274.068
		c-1.368-8.916,2.93-19.527,7.536-31.941c6.922-18.626,22.893-37.255,10.117-96.339c-9.523-44.029-73.396-9.163-73.436-3.193
		c-0.039,5.968,2.889,30.26-1.067,58.548c-5.162,36.914,23.488,68.132,56.479,64.938"/>
	<path fill="#FFFFFF" stroke="#FFFFFF" stroke-width="4.155" d="M172.517,141.7c-0.288,2.039,3.733,7.48,8.976,8.207
		c5.234,0.729,9.714-3.522,9.998-5.559c0.284-2.039-3.732-4.285-8.977-5.015C177.277,138.602,172.795,139.666,172.517,141.7
		L172.517,141.7z"/>
	<path fill="#FFFFFF" stroke="#FFFFFF" stroke-width="2.0775" d="M331.942,137.543c0.283,2.039-3.732,7.48-8.977,8.207
		c-5.238,0.73-9.719-3.522-10.006-5.559c-0.277-2.039,3.74-4.285,8.98-5.015C327.178,134.446,331.657,135.509,331.942,137.543
		L331.942,137.543z"/>
	<path fill="none" stroke="#FFFFFF" stroke-width="12.4651" stroke-linecap="round" stroke-linejoin="round" d="M350.676,123.432
		c0.863,15.994-3.445,26.888-3.988,43.914c-0.805,24.748,11.799,53.074-7.191,81.435"/>
	<path fill="none" stroke="#FFFFFF" stroke-width="3" stroke-linecap="round" stroke-linejoin="round" d="M0,60.232"/>
</g>
</svg>
