<?xml version="1.0" encoding="utf-8"?>
<!--
  - This file is part of StyleBI.
  - Copyright (C) 2024  InetSoft Technology
  -
  - This program is free software: you can redistribute it and/or modify
  - it under the terms of the GNU Affero General Public License as published by
  - the Free Software Foundation, either version 3 of the License, or
  - (at your option) any later version.
  -
  - This program is distributed in the hope that it will be useful,
  - but WITHOUT ANY WARRANTY; without even the implied warranty of
  - MERCHANTABILITY or FITNESS FOR A PARTICULAR PURPOSE.  See the
  - GNU Affero General Public License for more details.
  -
  - You should have received a copy of the GNU Affero General Public License
  - along with this program.  If not, see <https://www.gnu.org/licenses/>.
  -->

<!-- Generator: Adobe Illustrator 15.1.0, SVG Export Plug-In . SVG Version: 6.00 Build 0)  -->
<!DOCTYPE svg PUBLIC "-//W3C//DTD SVG 1.1//EN" "http://www.w3.org/Graphics/SVG/1.1/DTD/svg11.dtd">
<svg version="1.1" id="Layer_1" xmlns="http://www.w3.org/2000/svg" xmlns:xlink="http://www.w3.org/1999/xlink" x="0px" y="0px"
	 width="30px" height="30px" viewBox="0 0 30 30" enable-background="new 0 0 30 30" xml:space="preserve">
<g>
	<circle cx="2.21" cy="4.474" r="1.031"/>
	<circle fill="#1EDCFF" cx="9.264" cy="4.474" r="1.186"/>
	<circle fill="#5B87DA" cx="16.4" cy="4.474" r="1.305"/>
	<circle cx="5.733" cy="8.021" r="1.135"/>
	<circle cx="9.264" cy="11.651" r="1.248"/>
	<circle cx="12.812" cy="15.157" r="1.372"/>
	<circle cx="16.401" cy="18.663" r="1.51"/>
	<circle cx="19.948" cy="22.252" r="1.661"/>
	<circle fill="#1EDCFF" cx="12.88" cy="8.021" r="1.304"/>
	<circle fill="#1EDCFF" cx="16.401" cy="11.651" r="1.435"/>
	<circle fill="#1EDCFF" cx="19.949" cy="15.157" r="1.579"/>
	<circle fill="#1EDCFF" cx="23.578" cy="18.791" r="1.736"/>
	<circle fill="#5B87DA" cx="19.948" cy="8.021" r="1.435"/>
	<circle fill="#5B87DA" cx="23.579" cy="11.651" r="1.579"/>
	<circle fill="#5B87DA" cx="27.084" cy="15.157" r="1.737"/>
	<circle fill="#5A86D9" cx="9.264" cy="18.791" r="1.031"/>
	<circle fill="#5A86D9" cx="5.733" cy="22.252" r="1.031"/>
	<circle fill="#5A86D9" cx="2.21" cy="25.8" r="1.031"/>
	<circle fill="#5A86D9" cx="9.264" cy="25.8" r="1.031"/>
	<circle fill="#5A86D9" cx="12.88" cy="22.252" r="1.031"/>
	<circle fill="#5A86D9" cx="16.4" cy="25.8" r="1.031"/>
</g>
</svg>
