<?xml version="1.0" encoding="utf-8"?>
<!--
  - This file is part of StyleBI.
  -
  - Copyright (c) 2024, InetSoft Technology Corp, All Rights Reserved.
  -
  - The software and information contained herein are copyrighted and
  - proprietary to InetSoft Technology Corp. This software is furnished
  - pursuant to a written license agreement and may be used, copied,
  - transmitted, and stored only in accordance with the terms of such
  - license and with the inclusion of the above copyright notice. Please
  - refer to the file "COPYRIGHT" for further copyright and licensing
  - information. This software and information or any other copies
  - thereof may not be provided or otherwise made available to any other
  - person.
  -->

<!-- Generator: Adobe Illustrator 15.1.0, SVG Export Plug-In . SVG Version: 6.00 Build 0)  -->
<!DOCTYPE svg PUBLIC "-//W3C//DTD SVG 1.1//EN" "http://www.w3.org/Graphics/SVG/1.1/DTD/svg11.dtd">
<svg version="1.1" id="Layer_1" xmlns="http://www.w3.org/2000/svg" xmlns:xlink="http://www.w3.org/1999/xlink" x="0px" y="0px"
	 width="30px" height="30px" viewBox="0 0 30 30" enable-background="new 0 0 30 30" xml:space="preserve">
<g>
	<circle cx="2.21" cy="4.474" r="1.031"/>
	<circle fill="#1EDCFF" cx="9.264" cy="4.474" r="1.186"/>
	<circle fill="#5B87DA" cx="16.4" cy="4.474" r="1.305"/>
	<circle cx="5.733" cy="8.021" r="1.135"/>
	<circle cx="9.264" cy="11.651" r="1.248"/>
	<circle cx="12.812" cy="15.157" r="1.372"/>
	<circle cx="16.401" cy="18.663" r="1.51"/>
	<circle cx="19.948" cy="22.252" r="1.661"/>
	<circle fill="#1EDCFF" cx="12.88" cy="8.021" r="1.304"/>
	<circle fill="#1EDCFF" cx="16.401" cy="11.651" r="1.435"/>
	<circle fill="#1EDCFF" cx="19.949" cy="15.157" r="1.579"/>
	<circle fill="#1EDCFF" cx="23.578" cy="18.791" r="1.736"/>
	<circle fill="#5B87DA" cx="19.948" cy="8.021" r="1.435"/>
	<circle fill="#5B87DA" cx="23.579" cy="11.651" r="1.579"/>
	<circle fill="#5B87DA" cx="27.084" cy="15.157" r="1.737"/>
	<circle fill="#5A86D9" cx="9.264" cy="18.791" r="1.031"/>
	<circle fill="#5A86D9" cx="5.733" cy="22.252" r="1.031"/>
	<circle fill="#5A86D9" cx="2.21" cy="25.8" r="1.031"/>
	<circle fill="#5A86D9" cx="9.264" cy="25.8" r="1.031"/>
	<circle fill="#5A86D9" cx="12.88" cy="22.252" r="1.031"/>
	<circle fill="#5A86D9" cx="16.4" cy="25.8" r="1.031"/>
</g>
</svg>
