<?xml version="1.0" encoding="utf-8"?>
<!--
  - This file is part of StyleBI.
  - Copyright (C) 2024  InetSoft Technology
  -
  - This program is free software: you can redistribute it and/or modify
  - it under the terms of the GNU Affero General Public License as published by
  - the Free Software Foundation, either version 3 of the License, or
  - (at your option) any later version.
  -
  - This program is distributed in the hope that it will be useful,
  - but WITHOUT ANY WARRANTY; without even the implied warranty of
  - MERCHANTABILITY or FITNESS FOR A PARTICULAR PURPOSE.  See the
  - GNU Affero General Public License for more details.
  -
  - You should have received a copy of the GNU Affero General Public License
  - along with this program.  If not, see <https://www.gnu.org/licenses/>.
  -->

<!-- Generator: Adobe Illustrator 15.1.0, SVG Export Plug-In . SVG Version: 6.00 Build 0)  -->
<!DOCTYPE svg PUBLIC "-//W3C//DTD SVG 1.1//EN" "http://www.w3.org/Graphics/SVG/1.1/DTD/svg11.dtd">
<svg version="1.1" id="svg1978" xmlns:svg="http://www.w3.org/2000/svg"
	 xmlns="http://www.w3.org/2000/svg" xmlns:xlink="http://www.w3.org/1999/xlink" x="0px" y="0px" width="70px" height="30px"
	 viewBox="0 0 70 30" enable-background="new 0 0 70 30" xml:space="preserve">
<g>
	<g>
		<path id="path25030" fill="#014185" d="M4.392,23.277H21.28L37.842,6.723H4.392V23.277"/>
		<path id="path25032" fill="#FFFFFF" d="M24.227,9.834l-3.273-0.001v7.831l-2.88-7.831h-2.815l-2.488,6.549
			c-0.262-1.649-1.964-2.22-3.338-2.647c-0.852-0.285-1.833-0.707-1.769-1.168c0-0.383,0.458-0.732,1.44-0.682
			c0.655,0.033,1.244,0.088,2.422,0.649l1.178-1.995C11.591,10,10.15,9.659,8.974,9.657l0,0c-1.44,0-2.618,0.451-3.338,1.203
			c-0.458,0.521-0.786,1.187-0.786,1.921c0,1.011,0.393,1.729,1.113,2.3c0.72,0.481,1.506,0.794,2.291,1.024
			c0.917,0.283,1.637,0.529,1.637,1.057c0,0.193-0.065,0.371-0.196,0.513c-0.262,0.235-0.589,0.324-1.114,0.335
			c-0.917,0.018-1.57-0.129-2.684-0.779L4.85,19.252c1.113,0.626,2.422,0.994,3.73,0.994l0.196-0.002
			c1.113-0.021,2.095-0.354,2.815-0.951c0.064-0.036,0.064-0.068,0.131-0.104l-0.327,0.879h3.011l0.458-1.521
			c0.523,0.178,1.112,0.277,1.768,0.277c0.653,0,1.178-0.1,1.701-0.266l0.524,1.51H23.7V16.91h1.112
			c2.553,0,4.059-1.313,4.059-3.508C28.875,10.957,27.435,9.834,24.227,9.834z M16.632,16.538c-0.394,0-0.721-0.067-1.047-0.188
			l1.047-3.293l0,0l1.047,3.305C17.354,16.475,17.024,16.538,16.632,16.538z M24.423,14.645h-0.721v-2.655h0.721
			c0.98,0,1.767,0.319,1.767,1.313C26.19,14.324,25.403,14.645,24.423,14.645"/>
	</g>
	<g>
		<path fill="#014185" d="M40.139,12.365v2.693h2.611v-2.693h1.581v7.011H42.75v-2.934h-2.611v2.934h-1.581v-7.011H40.139z"/>
		<path fill="#014185" d="M47.347,17.576l-0.5,1.799h-1.633l2.133-7.01h2.081l2.183,7.01h-1.717l-0.54-1.799H47.347z M49.124,16.392
			l-0.437-1.488c-0.125-0.416-0.251-0.936-0.353-1.352h-0.021c-0.104,0.416-0.21,0.946-0.323,1.352l-0.416,1.488H49.124z"/>
		<path fill="#014185" d="M52.536,19.375v-7.01h1.852l1.454,2.569c0.416,0.738,0.821,1.611,1.146,2.402h0.02
			c-0.093-0.926-0.124-1.873-0.124-2.934v-2.038h1.456v7.01h-1.664l-1.499-2.704c-0.416-0.748-0.884-1.653-1.216-2.476h-0.043
			c0.052,0.937,0.074,1.926,0.074,3.068v2.111H52.536z"/>
		<path fill="#014185" d="M61.344,17.576l-0.498,1.799h-1.633l2.131-7.01h2.08l2.185,7.01h-1.716l-0.541-1.799H61.344z
			 M63.122,16.392l-0.436-1.488c-0.125-0.416-0.251-0.936-0.354-1.352h-0.021c-0.104,0.416-0.208,0.946-0.322,1.352l-0.416,1.488
			H63.122z"/>
	</g>
</g>
</svg>
