<?xml version="1.0" encoding="utf-8"?>
<!--
  - This file is part of StyleBI.
  -
  - Copyright (c) 2024, InetSoft Technology Corp, All Rights Reserved.
  -
  - The software and information contained herein are copyrighted and
  - proprietary to InetSoft Technology Corp. This software is furnished
  - pursuant to a written license agreement and may be used, copied,
  - transmitted, and stored only in accordance with the terms of such
  - license and with the inclusion of the above copyright notice. Please
  - refer to the file "COPYRIGHT" for further copyright and licensing
  - information. This software and information or any other copies
  - thereof may not be provided or otherwise made available to any other
  - person.
  -->

<!-- Generator: Adobe Illustrator 15.1.0, SVG Export Plug-In . SVG Version: 6.00 Build 0)  -->
<!DOCTYPE svg PUBLIC "-//W3C//DTD SVG 1.1//EN" "http://www.w3.org/Graphics/SVG/1.1/DTD/svg11.dtd">
<svg version="1.1" id="Layer_1" xmlns="http://www.w3.org/2000/svg" xmlns:xlink="http://www.w3.org/1999/xlink" x="0px" y="0px"
	 width="30px" height="30px" viewBox="77 7 30 30" enable-background="new 77 7 30 30" xml:space="preserve">
<title>Group</title>
<desc>Created with Sketch.</desc>
<g>
	<path id="Path" fill="#29B5E8" d="M100.415,28.153l-4.956-2.862c-0.695-0.401-1.586-0.163-1.988,0.533
		c-0.156,0.274-0.218,0.575-0.188,0.869v5.595c0,0.799,0.649,1.449,1.451,1.449c0.8,0,1.449-0.65,1.449-1.449v-3.217l2.776,1.603
		c0.696,0.402,1.589,0.163,1.989-0.533C101.351,29.444,101.112,28.554,100.415,28.153"/>
	<path id="Path_1_" fill="#29B5E8" d="M88.092,22.019c0.008-0.517-0.264-0.998-0.711-1.257l-4.955-2.86
		c-0.215-0.125-0.462-0.19-0.709-0.19c-0.508,0-0.981,0.272-1.234,0.71c-0.392,0.68-0.158,1.55,0.521,1.943l2.856,1.647
		l-2.856,1.649c-0.329,0.189-0.565,0.496-0.662,0.863c-0.1,0.366-0.049,0.75,0.141,1.08c0.253,0.438,0.726,0.71,1.232,0.71
		c0.249,0,0.496-0.065,0.711-0.189l4.955-2.86C87.824,23.008,88.097,22.532,88.092,22.019"/>
	<path id="Path_2_" fill="#29B5E8" d="M83.551,15.875l4.955,2.86c0.578,0.335,1.291,0.226,1.747-0.22
		c0.289-0.266,0.468-0.645,0.468-1.067v-5.733c0-0.802-0.65-1.451-1.449-1.451c-0.802,0-1.451,0.649-1.451,1.451v3.263l-2.814-1.624
		c-0.696-0.403-1.586-0.165-1.989,0.531C82.614,14.581,82.855,15.472,83.551,15.875"/>
	<path id="Combined-Shape" fill="#29B5E8" d="M94.691,22.251c0,0.11-0.063,0.262-0.141,0.342l-1.965,1.964
		c-0.077,0.078-0.231,0.142-0.34,0.142h-0.5c-0.11,0-0.264-0.063-0.342-0.142l-1.966-1.964c-0.078-0.08-0.141-0.232-0.141-0.342
		v-0.5c0-0.112,0.063-0.264,0.141-0.342l1.966-1.966c0.078-0.078,0.232-0.141,0.342-0.141h0.5c0.109,0,0.263,0.063,0.34,0.141
		l1.965,1.966c0.077,0.079,0.141,0.23,0.141,0.342V22.251z M92.938,22.011v-0.021c0-0.08-0.046-0.192-0.104-0.25l-0.579-0.578
		c-0.057-0.059-0.169-0.105-0.251-0.105h-0.021c-0.08,0-0.192,0.046-0.251,0.105l-0.578,0.578c-0.057,0.057-0.104,0.168-0.104,0.25
		v0.021c0,0.082,0.046,0.194,0.104,0.251l0.578,0.58c0.059,0.057,0.171,0.104,0.251,0.104h0.021c0.082,0,0.194-0.047,0.251-0.104
		l0.579-0.58C92.893,22.205,92.938,22.093,92.938,22.011z"/>
	<path id="Path_3_" fill="#29B5E8" d="M95.459,18.735l4.956-2.86c0.695-0.401,0.936-1.293,0.533-1.989
		c-0.403-0.696-1.293-0.935-1.989-0.531l-2.776,1.603v-3.242c0-0.802-0.649-1.451-1.449-1.451c-0.802,0-1.451,0.649-1.451,1.451
		v5.619c-0.027,0.292,0.03,0.595,0.188,0.869C93.873,18.899,94.764,19.137,95.459,18.735"/>
	<path id="Path_4_" fill="#29B5E8" d="M89.5,25.122c-0.329-0.063-0.682-0.011-0.994,0.169l-4.955,2.862
		c-0.696,0.4-0.937,1.291-0.534,1.987c0.403,0.697,1.293,0.936,1.989,0.533l2.814-1.624v3.238c0,0.799,0.649,1.449,1.451,1.449
		c0.799,0,1.449-0.65,1.449-1.449v-5.733C90.721,25.83,90.191,25.231,89.5,25.122"/>
	<path id="Path_5_" fill="#29B5E8" d="M103.511,18.406c-0.4-0.698-1.293-0.937-1.988-0.534l-4.956,2.861
		c-0.475,0.274-0.736,0.776-0.728,1.287c-0.004,0.508,0.258,1.004,0.728,1.274l4.956,2.862c0.695,0.401,1.585,0.163,1.988-0.533
		s0.163-1.587-0.533-1.989l-2.806-1.62l2.806-1.62C103.676,19.992,103.914,19.102,103.511,18.406"/>
</g>
</svg>
