<?xml version="1.0" encoding="utf-8"?>
<!--
  - This file is part of StyleBI.
  - Copyright (C) 2024  InetSoft Technology
  -
  - This program is free software: you can redistribute it and/or modify
  - it under the terms of the GNU Affero General Public License as published by
  - the Free Software Foundation, either version 3 of the License, or
  - (at your option) any later version.
  -
  - This program is distributed in the hope that it will be useful,
  - but WITHOUT ANY WARRANTY; without even the implied warranty of
  - MERCHANTABILITY or FITNESS FOR A PARTICULAR PURPOSE.  See the
  - GNU Affero General Public License for more details.
  -
  - You should have received a copy of the GNU Affero General Public License
  - along with this program.  If not, see <https://www.gnu.org/licenses/>.
  -->

<!-- Generator: Adobe Illustrator 15.1.0, SVG Export Plug-In . SVG Version: 6.00 Build 0)  -->
<!DOCTYPE svg PUBLIC "-//W3C//DTD SVG 1.1//EN" "http://www.w3.org/Graphics/SVG/1.1/DTD/svg11.dtd">
<svg version="1.1" id="Layer_1" xmlns="http://www.w3.org/2000/svg" xmlns:xlink="http://www.w3.org/1999/xlink" x="0px" y="0px"
	 width="30px" height="30px" viewBox="0 0 30 30" enable-background="new 0 0 30 30" xml:space="preserve">
<path fill-rule="evenodd" clip-rule="evenodd" fill="#F7A750" d="M21.894,2.7c-1.306,2.228-2.603,4.464-3.8,6.8
	c1.44,0.437,3.583-0.148,5.2-0.2c0.122,0.526-0.647,1.391-1.2,2c-1.637,1.802-4.064,3.861-5.6,5.799
	c0.477,0.332,1.517-0.111,2.199-0.199c0.205,0.614-1.159,1.76-2,2.6c-2.513,2.513-5.544,5.593-8.4,7.8
	c1.348-2.451,2.814-4.786,4.2-7.2c-1.12-0.522-2.488,0.267-4,0c0.729-2.07,1.956-3.644,2.8-5.6c-1.278-0.408-2.963,0.501-4.6,0.4
	c0.729-4.005,1.922-7.545,2.8-11.4C13.691,3.298,17.731,2.938,21.894,2.7z"/>
</svg>
