<?xml version="1.0" encoding="utf-8"?>
<!--
  - This file is part of StyleBI.
  - Copyright (C) 2024  InetSoft Technology
  -
  - This program is free software: you can redistribute it and/or modify
  - it under the terms of the GNU Affero General Public License as published by
  - the Free Software Foundation, either version 3 of the License, or
  - (at your option) any later version.
  -
  - This program is distributed in the hope that it will be useful,
  - but WITHOUT ANY WARRANTY; without even the implied warranty of
  - MERCHANTABILITY or FITNESS FOR A PARTICULAR PURPOSE.  See the
  - GNU Affero General Public License for more details.
  -
  - You should have received a copy of the GNU Affero General Public License
  - along with this program.  If not, see <https://www.gnu.org/licenses/>.
  -->

<!-- Generator: Adobe Illustrator 15.1.0, SVG Export Plug-In . SVG Version: 6.00 Build 0)  -->
<!DOCTYPE svg PUBLIC "-//W3C//DTD SVG 1.1//EN" "http://www.w3.org/Graphics/SVG/1.1/DTD/svg11.dtd">
<svg version="1.1" id="Layer_1" xmlns="http://www.w3.org/2000/svg" xmlns:xlink="http://www.w3.org/1999/xlink" x="0px" y="0px"
	 width="21.428px" height="30px" viewBox="239.286 335 21.428 30" enable-background="new 239.286 335 21.428 30"
	 xml:space="preserve">
<g>
	<path d="M242.638,338.098h7.097c-3.524,0.725-6.372,3.718-7.097,7.193V338.098z"/>
	<path d="M257.362,338.098v3.863c-0.531-1.835-2.076-3.332-3.91-3.863H257.362z"/>
	<path d="M252.052,343.388v-4.614c2.413,0.049,4.537,2.201,4.585,4.614H252.052L252.052,343.388z M252.052,343.795h0.578
		c-0.237,0.142-0.437,0.341-0.578,0.579V343.795z M252.052,347.078h0.578c-0.237-0.142-0.437-0.341-0.578-0.579V347.078z
		 M253.937,343.795h2.7c-0.191,1.352-1.3,2.51-2.7,2.606V343.795z M253.493,344.422v1.979c-0.446,0-0.863-0.479-0.863-0.925
		C252.63,344.608,253.493,344.422,253.493,344.422z M251.604,347.078h-8.242c0-4.345,3.851-8.303,8.242-8.303V347.078z
		 M257.362,347.078h-2.27c1.014-0.386,1.883-1.303,2.27-2.317V347.078z M257.362,347.464v13.503c-7.362,0.062-14-6.214-14-13.503
		H257.362L257.362,347.464z"/>
	<path d="M242.638,349.564c1.787,9.607,10.846,12.441,14.676,12.334h-14.676V349.564z"/>
</g>
</svg>
