<?xml version="1.0" encoding="utf-8"?>
<!--
  - This file is part of StyleBI.
  -
  - Copyright (c) 2024, InetSoft Technology Corp, All Rights Reserved.
  -
  - The software and information contained herein are copyrighted and
  - proprietary to InetSoft Technology Corp. This software is furnished
  - pursuant to a written license agreement and may be used, copied,
  - transmitted, and stored only in accordance with the terms of such
  - license and with the inclusion of the above copyright notice. Please
  - refer to the file "COPYRIGHT" for further copyright and licensing
  - information. This software and information or any other copies
  - thereof may not be provided or otherwise made available to any other
  - person.
  -->

<!-- Generator: Adobe Illustrator 15.1.0, SVG Export Plug-In . SVG Version: 6.00 Build 0)  -->
<!DOCTYPE svg PUBLIC "-//W3C//DTD SVG 1.1//EN" "http://www.w3.org/Graphics/SVG/1.1/DTD/svg11.dtd">
<svg version="1.1" id="Layer_1" xmlns="http://www.w3.org/2000/svg" xmlns:xlink="http://www.w3.org/1999/xlink" x="0px" y="0px"
	 width="80px" height="30px" viewBox="0 0 80 30" enable-background="new 0 0 80 30" xml:space="preserve">
<g>
	<path fill="#EC881D" d="M65.678,10.708h-8.424l-0.323,1.115h3.492v8.029c0,0.664,0.395,1.042,1.187,1.042h0.667v-9.016h3.149
		L65.678,10.708 M49.425,14.973c0-2.826-1.44-4.265-4.41-4.265h-3.419v9.144c0,0.665,0.395,1.043,1.187,1.043h2.304h0.396
		c2.755-0.125,4.015-1.313,4.015-4.14v-1.782H49.425z M47.59,16.684c0,2.033-0.667,3.096-2.504,3.096h-1.637v-7.884h1.583
		c1.908,0,2.575,1.116,2.575,3.15v1.639H47.59z M36.212,10.563c-0.468,0-0.864,0.125-0.918,0.396l-3.545,9.539l-2.7-4.085
		c1.386-0.271,2.232-0.99,2.232-2.232v-0.917c0-1.836-1.71-2.556-3.943-2.556h-3.15v9.072h-4.085c-1.585,0-1.981-0.323-1.981-2.034
		v-1.782h3.024l0.325-1.116h-3.349v-2.952h4.41l0.324-1.116h-6.642v7.038c0,2.377,0.522,3.149,3.744,3.149h5.994v-9.019h1.313
		c1.44,0,2.178,0.522,2.178,1.441v0.846c0,0.99-0.917,1.313-1.979,1.313h-0.847l2.826,4.807c0.324,0.521,0.469,0.593,1.188,0.593
		h1.638c0.72,0,1.044-0.071,1.314-0.665l0.846-2.304h2.232l-0.325-1.116h-1.566l1.387-3.943l2.501,7.363
		c0.199,0.594,0.594,0.665,1.386,0.665h0.847l-3.817-9.935C37.058,10.762,36.608,10.563,36.212,10.563z M69.098,10.959
		c-0.071-0.198-0.521-0.396-0.919-0.396c-0.468,0-0.845,0.125-0.918,0.396l-3.744,9.936h0.721c0.721,0,1.044-0.071,1.313-0.665
		l0.847-2.305h2.231l-0.323-1.115h-1.584l1.385-3.942l2.502,7.362c0.198,0.594,0.595,0.665,1.386,0.665h0.864L69.098,10.959z
		 M54.104,10.563c-0.467,0-0.863,0.125-0.917,0.396l-3.744,9.936h0.72c0.72,0,1.044-0.071,1.313-0.665l0.846-2.305h2.231
		L54.23,16.81h-1.586l1.387-3.942l2.502,7.362c0.197,0.594,0.594,0.665,1.386,0.665h0.845l-3.814-9.936
		C54.896,10.762,54.499,10.563,54.104,10.563z M18.715,7.413H7.538L7.142,8.727h5.129v12.816c0,0.666,0.396,1.044,1.188,1.044h0.667
		V8.709h4.211L18.715,7.413z"/>
</g>
</svg>
