<?xml version="1.0" encoding="utf-8"?>
<!--
  - This file is part of StyleBI.
  -
  - Copyright (c) 2024, InetSoft Technology Corp, All Rights Reserved.
  -
  - The software and information contained herein are copyrighted and
  - proprietary to InetSoft Technology Corp. This software is furnished
  - pursuant to a written license agreement and may be used, copied,
  - transmitted, and stored only in accordance with the terms of such
  - license and with the inclusion of the above copyright notice. Please
  - refer to the file "COPYRIGHT" for further copyright and licensing
  - information. This software and information or any other copies
  - thereof may not be provided or otherwise made available to any other
  - person.
  -->

<!-- Generator: Adobe Illustrator 15.1.0, SVG Export Plug-In . SVG Version: 6.00 Build 0)  -->
<!DOCTYPE svg PUBLIC "-//W3C//DTD SVG 1.1//EN" "http://www.w3.org/Graphics/SVG/1.1/DTD/svg11.dtd">
<svg version="1.1" id="Layer_1" xmlns="http://www.w3.org/2000/svg" xmlns:xlink="http://www.w3.org/1999/xlink" x="0px" y="0px"
	 width="50px" height="30px" viewBox="0 0 50 30" enable-background="new 0 0 50 30" xml:space="preserve">
<g>
	<g>
		<path fill="#EC881D" d="M42.262,7.812h-5.664l-0.217,0.752h2.348v5.396c0,0.447,0.268,0.7,0.799,0.7h0.447V8.599h2.105
			L42.262,7.812 M31.348,10.681c0-1.901-0.967-2.869-2.965-2.869h-2.297v6.147c0,0.447,0.264,0.7,0.797,0.7h1.549h0.268
			c1.85-0.085,2.697-0.883,2.697-2.782v-1.196H31.348L31.348,10.681z M30.102,11.829c0,1.367-0.447,2.082-1.684,2.082h-1.1V8.61
			h1.064c1.283,0,1.729,0.75,1.729,2.117v1.102H30.102z M22.455,7.715c-0.315,0-0.581,0.085-0.618,0.267l-2.383,6.414l-1.814-2.748
			c0.932-0.182,1.5-0.666,1.5-1.5V9.529c0-1.234-1.15-1.72-2.65-1.72h-2.117v6.099h-2.746c-1.064,0-1.331-0.218-1.331-1.367v-1.197
			h2.033l0.217-0.75h-2.25V8.608h2.965l0.218-0.75H9.012v4.731c0,1.599,0.352,2.118,2.518,2.118h4.016V8.646h0.885
			c0.967,0,1.463,0.351,1.463,0.969v0.568c0,0.664-0.615,0.883-1.33,0.883h-0.568l1.898,3.229c0.217,0.353,0.313,0.399,0.801,0.399
			h1.1c0.484,0,0.702-0.049,0.883-0.447l0.569-1.549h1.5l-0.218-0.75h-1.065l0.933-2.651l1.684,4.95
			c0.133,0.398,0.398,0.447,0.931,0.447h0.569l-2.564-6.68C23.035,7.849,22.721,7.715,22.455,7.715z M44.561,7.981
			c-0.051-0.135-0.352-0.268-0.617-0.268c-0.314,0-0.568,0.085-0.617,0.268l-2.518,6.678h0.484c0.482,0,0.701-0.047,0.883-0.446
			l0.568-1.549h1.5l-0.219-0.75h-1.064l0.934-2.649l1.682,4.948c0.135,0.399,0.396,0.446,0.932,0.446h0.58L44.561,7.981z
			 M34.479,7.715c-0.313,0-0.58,0.085-0.617,0.267l-2.516,6.679h0.484c0.482,0,0.701-0.047,0.883-0.446l0.568-1.549h1.5l-0.219-0.75
			h-1.064l0.934-2.65l1.682,4.949c0.135,0.399,0.398,0.446,0.932,0.446h0.568l-2.563-6.679C35.014,7.849,34.748,7.715,34.479,7.715z
			 M10.692,5.599H3.178L2.912,6.481H6.36v8.615c0,0.447,0.267,0.701,0.799,0.701h0.447V6.47h2.83L10.692,5.599z"/>
	</g>
	<g>
		<path fill="#852004" d="M18.86,23.687c0.049,0.146,0.072,0.254,0.084,0.34c0.013,0.084,0,0.146-0.047,0.182
			c-0.049,0.037-0.123,0.07-0.23,0.07c-0.109,0.015-0.266,0.015-0.459,0.015c-0.207,0-0.363,0-0.473-0.015
			c-0.109-0.012-0.193-0.012-0.254-0.033c-0.062-0.025-0.098-0.037-0.121-0.073c-0.024-0.037-0.049-0.071-0.062-0.12l-0.508-1.535
			h-2.868l-0.482,1.498c-0.014,0.063-0.037,0.099-0.062,0.135c-0.024,0.035-0.073,0.07-0.121,0.082
			c-0.062,0.025-0.134,0.037-0.241,0.051c-0.109,0.012-0.24,0.012-0.412,0.012c-0.182,0-0.326,0-0.424-0.012
			c-0.097-0.014-0.17-0.035-0.218-0.084c-0.036-0.049-0.049-0.11-0.036-0.193c0.012-0.086,0.036-0.195,0.084-0.328l2.361-6.787
			c0.023-0.072,0.048-0.123,0.084-0.158c0.037-0.035,0.086-0.072,0.146-0.098c0.072-0.023,0.17-0.035,0.289-0.035
			c0.12,0,0.279-0.015,0.484-0.015c0.229,0,0.425,0,0.557,0.015c0.133,0,0.241,0.022,0.327,0.035
			c0.072,0.023,0.134,0.047,0.169,0.098c0.036,0.047,0.063,0.098,0.086,0.183L18.86,23.687z M15.352,18.072L15.352,18.072
			l-1.09,3.256h2.166L15.352,18.072z"/>
		<path fill="#852004" d="M23.555,22.573c0,0.303-0.061,0.57-0.168,0.787c-0.109,0.229-0.268,0.424-0.473,0.568
			c-0.208,0.157-0.449,0.268-0.727,0.352c-0.279,0.072-0.582,0.121-0.908,0.121c-0.193,0-0.387-0.014-0.567-0.049
			c-0.183-0.025-0.34-0.072-0.483-0.108c-0.146-0.037-0.256-0.097-0.353-0.134c-0.097-0.036-0.17-0.098-0.206-0.133
			c-0.048-0.037-0.072-0.109-0.097-0.195c-0.023-0.083-0.036-0.217-0.036-0.387c0-0.109,0-0.207,0.013-0.278
			c0.013-0.072,0.023-0.119,0.037-0.169c0.013-0.036,0.035-0.072,0.062-0.084c0.023-0.014,0.047-0.023,0.084-0.023
			c0.049,0,0.109,0.023,0.193,0.071c0.083,0.049,0.193,0.108,0.314,0.157c0.121,0.062,0.277,0.107,0.435,0.17
			c0.171,0.049,0.363,0.072,0.569,0.072c0.135,0,0.254-0.014,0.363-0.037c0.108-0.023,0.192-0.071,0.268-0.121
			c0.072-0.047,0.132-0.119,0.169-0.192c0.036-0.085,0.062-0.17,0.062-0.267c0-0.121-0.037-0.219-0.108-0.301
			c-0.072-0.086-0.169-0.158-0.291-0.22c-0.121-0.062-0.254-0.12-0.412-0.181c-0.157-0.061-0.302-0.121-0.472-0.184
			c-0.157-0.071-0.314-0.146-0.473-0.229c-0.158-0.084-0.291-0.193-0.412-0.314s-0.219-0.277-0.291-0.459s-0.108-0.387-0.108-0.642
			c0-0.254,0.049-0.483,0.146-0.69c0.098-0.205,0.241-0.388,0.424-0.543c0.182-0.146,0.412-0.268,0.678-0.353
			c0.268-0.082,0.57-0.119,0.896-0.119c0.168,0,0.325,0.013,0.483,0.037c0.158,0.022,0.291,0.047,0.424,0.082
			c0.121,0.037,0.229,0.073,0.313,0.122c0.084,0.033,0.146,0.07,0.182,0.109c0.038,0.022,0.063,0.061,0.086,0.084
			c0.014,0.022,0.025,0.063,0.037,0.108c0.012,0.035,0.012,0.097,0.023,0.158c0,0.06,0.012,0.132,0.012,0.229
			c0,0.107,0,0.192-0.012,0.252c0,0.072-0.013,0.121-0.023,0.157c-0.012,0.038-0.037,0.063-0.063,0.085
			c-0.022,0.014-0.047,0.024-0.086,0.024c-0.035,0-0.084-0.024-0.166-0.062c-0.074-0.035-0.17-0.084-0.279-0.134
			c-0.11-0.048-0.241-0.097-0.387-0.133c-0.146-0.036-0.316-0.062-0.511-0.062c-0.133,0-0.253,0.013-0.35,0.037
			c-0.097,0.022-0.183,0.07-0.243,0.119c-0.063,0.049-0.109,0.108-0.146,0.184c-0.035,0.072-0.047,0.144-0.047,0.217
			c0,0.119,0.035,0.229,0.108,0.302c0.071,0.086,0.169,0.158,0.29,0.218c0.119,0.061,0.268,0.121,0.41,0.182
			c0.158,0.062,0.316,0.121,0.473,0.182c0.157,0.063,0.314,0.146,0.473,0.23c0.157,0.084,0.291,0.194,0.412,0.313
			c0.12,0.121,0.217,0.278,0.289,0.448C23.518,22.125,23.555,22.333,23.555,22.573z"/>
		<path fill="#852004" d="M27.656,23.543c0,0.168-0.012,0.302-0.035,0.397c-0.023,0.098-0.051,0.158-0.084,0.192
			c-0.037,0.037-0.086,0.073-0.16,0.097c-0.07,0.025-0.145,0.063-0.24,0.074c-0.098,0.022-0.193,0.037-0.303,0.049
			c-0.111,0.014-0.219,0.014-0.328,0.014c-0.289,0-0.557-0.039-0.762-0.11c-0.219-0.071-0.398-0.192-0.531-0.35
			c-0.146-0.159-0.242-0.353-0.314-0.595S24.8,22.79,24.8,22.478v-2.699h-0.628c-0.072,0-0.134-0.049-0.17-0.133
			c-0.035-0.097-0.061-0.241-0.061-0.459c0-0.109,0-0.207,0.013-0.291s0.022-0.146,0.048-0.183c0.023-0.049,0.049-0.071,0.073-0.097
			c0.024-0.023,0.06-0.023,0.108-0.023h0.629v-1.175c0-0.036,0.013-0.071,0.037-0.108c0.022-0.037,0.062-0.063,0.119-0.086
			c0.061-0.022,0.135-0.035,0.23-0.049c0.097-0.013,0.218-0.013,0.361-0.013c0.146,0,0.268,0,0.363,0.013
			c0.1,0.014,0.17,0.024,0.23,0.049c0.061,0.023,0.098,0.049,0.121,0.086c0.021,0.035,0.035,0.072,0.035,0.108v1.172h1.148
			c0.037,0,0.074,0.015,0.109,0.025c0.023,0.022,0.049,0.048,0.072,0.097c0.023,0.048,0.035,0.11,0.049,0.182
			c0.014,0.084,0.014,0.17,0.014,0.291c0,0.219-0.023,0.375-0.063,0.459c-0.035,0.097-0.096,0.133-0.17,0.133h-1.148v2.481
			c0,0.291,0.049,0.507,0.133,0.644c0.086,0.144,0.254,0.216,0.484,0.216c0.082,0,0.146-0.013,0.217-0.022
			c0.061-0.014,0.121-0.025,0.17-0.05c0.047-0.022,0.084-0.035,0.119-0.047c0.035-0.015,0.063-0.024,0.098-0.024
			c0.023,0,0.051,0.012,0.072,0.024c0.023,0.012,0.035,0.036,0.049,0.083c0.012,0.05,0.021,0.098,0.037,0.169
			C27.717,23.322,27.656,23.433,27.656,23.543z"/>
		<path fill="#852004" d="M33.453,21.267c0,0.183-0.037,0.315-0.119,0.399c-0.086,0.083-0.195,0.133-0.342,0.133h-3.205
			c0,0.229,0.023,0.423,0.084,0.617c0.061,0.192,0.133,0.339,0.254,0.474c0.119,0.133,0.266,0.229,0.447,0.289
			c0.182,0.072,0.398,0.096,0.654,0.096c0.252,0,0.482-0.021,0.688-0.06c0.193-0.036,0.363-0.084,0.508-0.12
			c0.145-0.048,0.268-0.084,0.365-0.121c0.096-0.035,0.168-0.06,0.229-0.06c0.037,0,0.061,0.012,0.086,0.022
			c0.023,0.014,0.049,0.035,0.061,0.072c0.014,0.035,0.023,0.085,0.035,0.146c0.014,0.061,0.014,0.146,0.014,0.243
			c0,0.084,0,0.156,0,0.217c0,0.059-0.014,0.109-0.014,0.156c-0.012,0.049-0.021,0.086-0.035,0.11
			c-0.012,0.024-0.037,0.062-0.061,0.085c-0.025,0.022-0.1,0.061-0.207,0.108s-0.254,0.097-0.436,0.133
			c-0.182,0.037-0.373,0.084-0.605,0.119c-0.229,0.039-0.473,0.05-0.736,0.05c-0.475,0-0.885-0.063-1.236-0.182
			c-0.35-0.12-0.639-0.301-0.883-0.531c-0.24-0.242-0.41-0.545-0.531-0.908c-0.121-0.361-0.168-0.798-0.168-1.281
			c0-0.473,0.061-0.896,0.18-1.271c0.123-0.373,0.303-0.688,0.533-0.956c0.23-0.265,0.52-0.459,0.848-0.604
			c0.338-0.133,0.715-0.205,1.125-0.205c0.436,0,0.822,0.063,1.125,0.192c0.303,0.134,0.568,0.315,0.773,0.545
			c0.207,0.23,0.35,0.509,0.447,0.822c0.096,0.315,0.145,0.653,0.145,1.03v0.242L33.453,21.267L33.453,21.267z M32.012,20.843
			c0.014-0.423-0.072-0.751-0.252-0.979c-0.182-0.243-0.461-0.364-0.836-0.364c-0.193,0-0.352,0.036-0.496,0.11
			c-0.145,0.07-0.252,0.168-0.35,0.289s-0.17,0.268-0.219,0.426c-0.049,0.168-0.072,0.338-0.086,0.521h2.238V20.843L32.012,20.843z"
			/>
		<path fill="#852004" d="M38.063,19.283c0,0.146,0,0.253-0.012,0.35c-0.014,0.085-0.023,0.157-0.037,0.22
			c-0.014,0.047-0.035,0.084-0.061,0.107c-0.023,0.023-0.061,0.023-0.098,0.023s-0.07-0.012-0.107-0.023s-0.084-0.021-0.137-0.048
			c-0.047-0.013-0.107-0.036-0.156-0.048c-0.061-0.014-0.119-0.024-0.193-0.024c-0.084,0-0.168,0.013-0.254,0.05
			c-0.084,0.036-0.168,0.084-0.254,0.156c-0.084,0.073-0.18,0.17-0.277,0.279c-0.096,0.109-0.205,0.265-0.314,0.434v3.279
			c0,0.037-0.012,0.072-0.033,0.111c-0.027,0.033-0.064,0.047-0.123,0.069c-0.061,0.024-0.133,0.037-0.23,0.05
			c-0.096,0.012-0.217,0.012-0.361,0.012c-0.146,0-0.266,0-0.365-0.012c-0.096-0.013-0.166-0.022-0.229-0.05
			c-0.061-0.022-0.098-0.048-0.121-0.069c-0.021-0.025-0.033-0.063-0.033-0.111v-5.275c0-0.035,0.012-0.072,0.021-0.107
			c0.023-0.024,0.061-0.049,0.109-0.073c0.047-0.022,0.121-0.035,0.193-0.048c0.084-0.012,0.182-0.012,0.301-0.012
			c0.121,0,0.229,0,0.313,0.012c0.086,0.013,0.146,0.023,0.195,0.048s0.072,0.049,0.098,0.073c0.023,0.021,0.023,0.061,0.023,0.107
			v0.655c0.133-0.194,0.266-0.362,0.389-0.483c0.121-0.133,0.24-0.229,0.352-0.304c0.107-0.071,0.217-0.118,0.326-0.157
			c0.107-0.021,0.217-0.048,0.326-0.048c0.047,0,0.107,0,0.17,0.013c0.061,0.014,0.119,0.014,0.182,0.023
			c0.059,0.012,0.121,0.021,0.168,0.048c0.049,0.023,0.084,0.036,0.109,0.062c0.023,0.022,0.035,0.035,0.049,0.061
			c0.012,0.025,0.021,0.063,0.021,0.098c0.012,0.035,0.012,0.109,0.012,0.184C38.051,19.028,38.063,19.138,38.063,19.283z"/>
	</g>
</g>
</svg>
