<?xml version="1.0" encoding="utf-8"?>
<!--
  - This file is part of StyleBI.
  -
  - Copyright (c) 2024, InetSoft Technology Corp, All Rights Reserved.
  -
  - The software and information contained herein are copyrighted and
  - proprietary to InetSoft Technology Corp. This software is furnished
  - pursuant to a written license agreement and may be used, copied,
  - transmitted, and stored only in accordance with the terms of such
  - license and with the inclusion of the above copyright notice. Please
  - refer to the file "COPYRIGHT" for further copyright and licensing
  - information. This software and information or any other copies
  - thereof may not be provided or otherwise made available to any other
  - person.
  -->

<!-- Generator: Adobe Illustrator 15.1.0, SVG Export Plug-In . SVG Version: 6.00 Build 0)  -->
<!DOCTYPE svg PUBLIC "-//W3C//DTD SVG 1.1//EN" "http://www.w3.org/Graphics/SVG/1.1/DTD/svg11.dtd">
<svg version="1.1" id="Layer_1" xmlns="http://www.w3.org/2000/svg" xmlns:xlink="http://www.w3.org/1999/xlink" x="0px" y="0px"
	 width="70px" height="30px" viewBox="271 381 70 30" enable-background="new 271 381 70 30" xml:space="preserve">
<g>
	<polygon points="296.169,391.503 289.271,391.503 289.271,391.503 289.271,391.503 285.388,398.365 281.519,391.503 
		279.676,391.503 285.401,401.629 290.21,393.11 296.169,393.11 	"/>
	<polygon points="296.169,397.19 296.169,395.583 289.32,395.583 289.32,401.184 296.169,401.184 296.169,399.576 290.927,399.576 
		290.927,397.19 	"/>
	<rect x="313.12" y="391.503" width="1.607" height="9.681"/>
	<path d="M312.49,391.503h-8.21v0.025c0.507,0.408,0.891,0.952,1.113,1.582h2.188v8.074h1.607v-8.074h3.302V391.503L312.49,391.503z
		"/>
	<path d="M303.884,401.184h1.607l-2.374-4.352c1.014-0.408,1.731-1.41,1.731-2.56c0-1.533-1.236-2.769-2.77-2.769h-3.635h-1.076
		h-0.532v9.681h1.607v-4.154h3.177L303.884,401.184z M298.444,393.11h3.635c0.643,0,1.162,0.52,1.162,1.162
		c0,0.643-0.519,1.163-1.162,1.163h-3.635V393.11z"/>
	<path d="M327.141,391.145L327.141,391.145l-4.13,6.874v0.013l0,0c-0.581,0.964-1.632,1.607-2.831,1.607
		c-1.83,0-3.313-1.484-3.313-3.314c0-1.83,1.483-3.313,3.313-3.313c1.125,0,2.114,0.556,2.721,1.422l0.864-1.446
		c-0.89-0.965-2.163-1.558-3.585-1.558c-2.708,0-4.896,2.188-4.896,4.896c0,2.708,2.188,4.896,4.896,4.896
		c1.78,0,3.338-0.952,4.204-2.374l0,0l2.757-4.599l4.179,6.961l1.854-0.025L327.141,391.145z"/>
</g>
</svg>
