<?xml version="1.0" encoding="utf-8"?>
<!--
  - This file is part of StyleBI.
  -
  - Copyright (c) 2024, InetSoft Technology Corp, All Rights Reserved.
  -
  - The software and information contained herein are copyrighted and
  - proprietary to InetSoft Technology Corp. This software is furnished
  - pursuant to a written license agreement and may be used, copied,
  - transmitted, and stored only in accordance with the terms of such
  - license and with the inclusion of the above copyright notice. Please
  - refer to the file "COPYRIGHT" for further copyright and licensing
  - information. This software and information or any other copies
  - thereof may not be provided or otherwise made available to any other
  - person.
  -->

<!-- Generator: Adobe Illustrator 15.1.0, SVG Export Plug-In . SVG Version: 6.00 Build 0)  -->
<!DOCTYPE svg PUBLIC "-//W3C//DTD SVG 1.1//EN" "http://www.w3.org/Graphics/SVG/1.1/DTD/svg11.dtd">
<svg version="1.1"
	 id="svg3761" xmlns:dc="http://purl.org/dc/elements/1.1/" xmlns:cc="http://creativecommons.org/ns#" xmlns:svg="http://www.w3.org/2000/svg" xmlns:rdf="http://www.w3.org/1999/02/22-rdf-syntax-ns#" xmlns:sodipodi="http://sodipodi.sourceforge.net/DTD/sodipodi-0.dtd" xmlns:inkscape="http://www.inkscape.org/namespaces/inkscape" sodipodi:docname="logo.svg" inkscape:export-xdpi="96" inkscape:version="0.92.4 (5da689c313, 2019-01-14)" inkscape:export-ydpi="96" inkscape:export-filename="D:\_projects.net\TeamDesk.net\TeamDesk.net\custom_database\assets\img\teamdesk-logo.png"
	 xmlns="http://www.w3.org/2000/svg" xmlns:xlink="http://www.w3.org/1999/xlink" x="0px" y="0px" width="30px" height="30px"
	 viewBox="40 40 30 30" enable-background="new 40 40 30 30" xml:space="preserve">
<sodipodi:namedview  id="namedview3763" inkscape:cy="27.503592" objecttolerance="10" bordercolor="#666666" inkscape:cx="112.0829" inkscape:zoom="6.1071429" guidetolerance="10" showgrid="false" pagecolor="#ffffff" gridtolerance="10" borderopacity="1" inkscape:window-maximized="1" inkscape:current-layer="svg3761" inkscape:window-y="-13" inkscape:window-x="-13" inkscape:window-height="1675" inkscape:window-width="2880" inkscape:pageshadow="2" inkscape:pageopacity="0">
	</sodipodi:namedview>
<g id="g3759" transform="matrix(0.2474658,0,0,-0.2474658,-59.282356,242.84442)">
	<path id="path3755" inkscape:connector-curvature="0" fill="#C4181B" d="M462.529,805.138c12.107,0,21.957-9.85,21.957-21.953
		c0-12.314-9.85-22.164-21.957-22.164c-12.107,0-22.162,9.85-22.162,22.164C440.366,795.288,450.421,805.138,462.529,805.138z"/>
	<path id="path3757" inkscape:connector-curvature="0" fill="#204090" d="M488.175,759.585h27.292
		c0.209-1.435,0.209-2.873,0.209-4.305v-8.413h-24.83c-5.541,0-10.055-4.518-10.055-10.059v-23.804h-12.517v26.471
		C468.274,750.556,477.098,759.585,488.175,759.585z M436.675,759.585h-28.729c0-1.435,0-2.873,0-4.305v-8.413h26.264
		c5.539,0,10.055-4.518,10.055-10.059v-23.804h12.517v26.471C456.783,750.556,447.754,759.585,436.675,759.585"/>
</g>
</svg>
