<?xml version="1.0" encoding="utf-8"?>
<!--
  - This file is part of StyleBI.
  -
  - Copyright (c) 2024, InetSoft Technology Corp, All Rights Reserved.
  -
  - The software and information contained herein are copyrighted and
  - proprietary to InetSoft Technology Corp. This software is furnished
  - pursuant to a written license agreement and may be used, copied,
  - transmitted, and stored only in accordance with the terms of such
  - license and with the inclusion of the above copyright notice. Please
  - refer to the file "COPYRIGHT" for further copyright and licensing
  - information. This software and information or any other copies
  - thereof may not be provided or otherwise made available to any other
  - person.
  -->

<!-- Generator: Adobe Illustrator 13.0.1, SVG Export Plug-In . SVG Version: 6.00 Build 14948)  -->
<!DOCTYPE svg PUBLIC "-//W3C//DTD SVG 1.0//EN" "http://www.w3.org/TR/2001/REC-SVG-20010904/DTD/svg10.dtd">
<svg version="1.0" id="图层_1" xmlns="http://www.w3.org/2000/svg" xmlns:xlink="http://www.w3.org/1999/xlink" x="0px" y="0px"
	 width="173.354px" height="200px" viewBox="0 0 173.354 200" enable-background="new 0 0 173.354 200" xml:space="preserve">
<g id="Layer_1">
	<rect x="0" fill="#B5DF00" fill-opacity="0" width="173.354" height="200"/>
	<path fill="#FFFFFF" stroke="#0440A0" stroke-width="1.5398" d="M167.181,29.741C155.873,10.483,108.853,3.404,88.507,3.037
		c-0.336-0.043-0.638-0.05-0.898-0.013c-0.316-0.002-0.628-0.003-0.931-0.003C67.48,2.973,17.837,9.881,6.176,29.741
		c-7.746,14.42-1.725,33.088,22.54,40.19l39.402,81.889h0.065c-4.864,4.783-7.884,11.439-7.884,18.803
		C60.3,185.189,72.11,197,86.678,197s26.378-11.811,26.378-26.378c0-7.36-3.02-14.019-7.883-18.802h0.93l39.402-81.89
		c0.556-0.208,1.034-0.46,1.468-0.739C169.284,61.604,174.672,43.686,167.181,29.741z"/>
	<g display="none">
		<g display="inline">
			<path fill="#BBE8FF" d="M146.303,61.216c-1.489,2.921-5.625,3.721-9.326,2.066c-32.057-14.389-68.541-14.389-100.597,0
				c-3.702,1.655-7.837,0.854-9.327-2.066l0,0c-1.488-2.913,0.559-7.016,4.67-8.858c35.024-15.72,74.885-15.72,109.91,0
				C145.743,54.2,147.791,58.303,146.303,61.216L146.303,61.216z"/>
			<path fill="#BBE8FF" d="M146.303,61.216c-1.489,2.921-5.625,3.721-9.326,2.066c-32.057-14.389-68.541-14.389-100.597,0
				c-3.702,1.655-7.837,0.854-9.327-2.066l0,0c-1.488-2.913,0.559-7.016,4.67-8.858c35.024-15.72,74.885-15.72,109.91,0
				C145.743,54.2,147.791,58.303,146.303,61.216L146.303,61.216z"/>
		</g>
	</g>
	<g display="none">
		<g display="inline">
			<path fill="#B500DF" d="M146.303,61.216c-1.489,2.921-5.625,3.721-9.326,2.066c-32.057-14.389-68.541-14.389-100.597,0
				c-3.702,1.655-7.837,0.854-9.327-2.066l0,0c-1.488-2.913,0.559-7.016,4.67-8.858c35.024-15.72,74.885-15.72,109.91,0
				C145.743,54.2,147.791,58.303,146.303,61.216L146.303,61.216z"/>
		</g>
	</g>
</g>
<path display="none" fill="#BBE8FF" d="M139.734,51.598l0.019-0.044c-0.096-0.042-0.193-0.08-0.29-0.121
	c-0.427-0.247-0.886-0.44-1.372-0.575c-34.42-14.41-72.449-12.584-101.981-0.316c-2.68,0.573-4.689,2.953-4.689,5.804
	c0,3.279,2.658,5.938,5.938,5.938c0.786,0,1.535-0.156,2.223-0.434l0.007,0.017c29.083-12,63.458-13.25,95.417,0.542l0.375,0.083
	c0.362,0.068,0.744,0.021,1.125,0.021c3.279,0,5.938-2.658,5.938-5.938C142.439,54.488,141.361,52.657,139.734,51.598z"/>
<path fill="#BBE8FF" d="M128.164,59.651c1.081,0.43,2.159,0.877,3.235,1.342l0.375,0.083c0.362,0.068,0.744,0.021,1.125,0.021
	c3.279,0,5.938-2.658,5.938-5.938c-0.002-2.087-1.08-3.918-2.707-4.977l0.019-0.044c-0.096-0.042-0.193-0.08-0.29-0.121
	c-0.427-0.247-0.886-0.44-1.372-0.575c-0.855-0.358-1.713-0.706-2.572-1.044L128.164,59.651z"/>
<path fill="#BBE8FF" d="M135.518,49.814c-33.036-12.995-69.088-11.313-97.615,0l4.236,11.033
	c27.54-10.657,59.532-11.761,89.628,0.221L135.518,49.814z"/>
<path fill="#BBE8FF" d="M40.132,49.063c-0.602,0.239-1.2,0.481-1.794,0.729c-2.68,0.573-4.689,2.953-4.689,5.804
	c0,3.279,2.658,5.938,5.938,5.938c0.786,0,1.535-0.156,2.223-0.434l0.007,0.017c0.847-0.35,1.698-0.69,2.553-1.021L40.132,49.063z"
	/>
</svg>
