<?xml version="1.0" encoding="utf-8"?>
<!--
  - This file is part of StyleBI.
  - Copyright (C) 2024  InetSoft Technology
  -
  - This program is free software: you can redistribute it and/or modify
  - it under the terms of the GNU Affero General Public License as published by
  - the Free Software Foundation, either version 3 of the License, or
  - (at your option) any later version.
  -
  - This program is distributed in the hope that it will be useful,
  - but WITHOUT ANY WARRANTY; without even the implied warranty of
  - MERCHANTABILITY or FITNESS FOR A PARTICULAR PURPOSE.  See the
  - GNU Affero General Public License for more details.
  -
  - You should have received a copy of the GNU Affero General Public License
  - along with this program.  If not, see <https://www.gnu.org/licenses/>.
  -->

<!-- Generator: Adobe Illustrator 13.0.1, SVG Export Plug-In . SVG Version: 6.00 Build 14948)  -->
<!DOCTYPE svg PUBLIC "-//W3C//DTD SVG 1.0//EN" "http://www.w3.org/TR/2001/REC-SVG-20010904/DTD/svg10.dtd">
<svg version="1.0" id="图层_1" xmlns="http://www.w3.org/2000/svg" xmlns:xlink="http://www.w3.org/1999/xlink" x="0px" y="0px"
	 width="200px" height="200px" viewBox="0 0 200 200" enable-background="new 0 0 200 200" xml:space="preserve">
<g id="图层_1_1_">
	<g id="Layer_3">
	</g>
	<g id="Layer_1">
		<rect fill="#D4F5FF" fill-opacity="0" width="200" height="200"/>
		<circle display="none" fill="#FFFFFF" cx="100" cy="100" r="100"/>
		<g>
			<g>
				<circle fill="#D4F5FF" cx="100" cy="100" r="96.012"/>
			</g>
			<g>
				<path fill="#6A86CB" d="M195.023,100c0,52.396-42.627,95.025-95.024,95.025c-52.396,0-95.023-42.629-95.023-95.025
					c0-52.396,42.627-95.023,95.023-95.023C152.396,4.977,195.023,47.604,195.023,100z M99.999,3C46.514,3,3,46.514,3,100
					c0,53.486,43.514,97.001,96.999,97.001C153.484,197.001,197,153.486,197,100C197,46.514,153.484,3,99.999,3z"/>
			</g>
		</g>
		<g>
			<circle fill="#FFFFFF" cx="100" cy="100" r="87.559"/>
			<circle fill="none" stroke="#6A86CB" stroke-width="1.9759" cx="100" cy="100" r="87.559"/>
		</g>
		
			<linearGradient id="SVGID_1_" gradientUnits="userSpaceOnUse" x1="609.6973" y1="-815.668" x2="609.6973" y2="-915.5215" gradientTransform="matrix(1 0 0 -1 -509.6973 -765.5938)">
			<stop  offset="0.0169" style="stop-color:#EBEBEB"/>
			<stop  offset="0.0444" style="stop-color:#F6F6F6"/>
			<stop  offset="0.0832" style="stop-color:#FDFDFD"/>
			<stop  offset="0.191" style="stop-color:#FFFFFF"/>
			<stop  offset="0.3482" style="stop-color:#F3F3F3"/>
			<stop  offset="0.7584" style="stop-color:#D9D9D9"/>
			<stop  offset="0.9405" style="stop-color:#D7D7D7"/>
			<stop  offset="1" style="stop-color:#D1D1D1"/>
		</linearGradient>
		<circle opacity="0.5" fill="url(#SVGID_1_)" enable-background="new    " cx="100" cy="100.001" r="49.927"/>
		<circle opacity="0.5" fill="#CCCCCC" enable-background="new    " cx="100" cy="100.001" r="49.927"/>
		<path fill="#C5F7FF" stroke="#C5F7FF" stroke-width="4" d="M53.896,135.223c-7.472-9.768-11.916-21.975-11.916-35.222
			c0-32.043,25.976-58.02,58.019-58.02c32.045,0,58.021,25.977,58.021,58.02c0,13.248-4.441,25.456-11.916,35.224l6.043,4.614
			c8.453-11.047,13.479-24.854,13.479-39.838c0-36.243-29.379-65.625-65.625-65.625c-36.242,0-65.624,29.382-65.624,65.625
			c0,14.983,5.026,28.79,13.478,39.836L53.896,135.223z"/>
		<line id="line" fill="none" stroke="#FFFFFF" stroke-width="10" x1="140" y1="133.334" x2="153.5" y2="143.667"/>
		<line fill="none" stroke="#FFFFFF" stroke-width="10" x1="43.167" y1="143.167" x2="57.667" y2="132.667"/>
		<path fill="#C5F7FF" d="M48.677,128.123c3.375,0,5.156,3.211,6.111,6.111c1.055,3.205-2.747,6.388-6.111,6.111
			c-2.177-0.18-5.844-2.846-6.111-6.111C42.291,130.87,45.302,128.123,48.677,128.123z"/>
		<path fill="#C5F7FF" d="M150.803,128.789c3.307,0,6.571,2.732,5.986,5.986c-0.789,4.392-2.682,5.986-5.986,5.986
			c-3.306,0-6.271-2.693-5.986-5.986C145,132.667,147.497,128.789,150.803,128.789z"/>
		<path display="none" fill="#C5F7FF" d="M60.046,139.32c-9.961-10.119-16.113-24-16.113-39.32
			c0-30.965,25.102-56.066,56.066-56.066S156.066,69.035,156.066,100c0,15.369-6.188,29.289-16.205,39.416l8.178,8.085
			c12.068-12.205,19.527-28.979,19.527-47.501c0-37.315-30.25-67.566-67.566-67.566c-37.316,0-67.566,30.251-67.566,67.566
			c0,18.464,7.414,35.189,19.418,47.387L60.046,139.32z"/>
	</g>
</g>
<g id="图层_2">
</g>
</svg>
