<?xml version="1.0" encoding="utf-8"?>
<!--
  - This file is part of StyleBI.
  - Copyright (C) 2024  InetSoft Technology
  -
  - This program is free software: you can redistribute it and/or modify
  - it under the terms of the GNU Affero General Public License as published by
  - the Free Software Foundation, either version 3 of the License, or
  - (at your option) any later version.
  -
  - This program is distributed in the hope that it will be useful,
  - but WITHOUT ANY WARRANTY; without even the implied warranty of
  - MERCHANTABILITY or FITNESS FOR A PARTICULAR PURPOSE.  See the
  - GNU Affero General Public License for more details.
  -
  - You should have received a copy of the GNU Affero General Public License
  - along with this program.  If not, see <https://www.gnu.org/licenses/>.
  -->

<!-- Generator: Adobe Illustrator 13.0.1, SVG Export Plug-In . SVG Version: 6.00 Build 14948)  -->
<!DOCTYPE svg PUBLIC "-//W3C//DTD SVG 1.0//EN" "http://www.w3.org/TR/2001/REC-SVG-20010904/DTD/svg10.dtd">
<svg version="1.0" xmlns="http://www.w3.org/2000/svg" xmlns:xlink="http://www.w3.org/1999/xlink" x="0px" y="0px" width="200px"
	 height="131.451px" viewBox="0 0 200 131.451" enable-background="new 0 0 200 131.451" xml:space="preserve">
<g id="图层_1">
	<g id="Layer_2">
	</g>
	<g id="Layer_6">
	</g>
	<g id="Layer_1">
	</g>
	<g id="Layer_5">
	</g>
	<g id="Layer_4">
	</g>
	<g id="Layer_3">
		<rect fill="#FFFFFF" fill-opacity="0" width="200" height="131.451"/>
		<g>
			<g>
				<path fill="#FFFFFF" d="M169.689,31.45C146.361,9.287,120.287,3.832,100,3.832c-20.472,0-46.362,5.455-69.689,27.619
					C11.558,49.267,3.929,74.084,3.833,90.408c-0.015,2.61,0.162,5.006,0.518,7.118c0.267,1.586,0.634,3.014,1.095,4.257
					c4.246,11.448,16.169,10.909,24.785,9.069c0.891-0.188,1.748-0.393,2.556-0.6h45.148c1.96,9.887,11.09,17.365,22.064,17.365
					c10.976,0,20.104-7.479,22.063-17.365h45.149c0.808,0.207,1.663,0.41,2.556,0.6c8.616,1.84,20.539,2.379,24.785-9.069
					c0.461-1.243,0.828-2.671,1.096-4.257c0.354-2.112,0.533-4.508,0.518-7.118C196.072,74.084,188.441,49.267,169.689,31.45z"/>
			</g>
			<g>
				<path fill="#6987C9" d="M170.264,30.847C150.814,12.369,127.174,3,100,3s-50.813,9.369-70.262,27.847
					C10.152,49.456,3.094,74.56,3.001,90.401c-0.015,2.644,0.163,5.086,0.529,7.265c0.276,1.638,0.658,3.119,1.136,4.405
					c3.441,9.277,12.101,12.507,25.738,9.597c0.85-0.183,1.721-0.388,2.588-0.606l-0.206,0.024h45.148l-0.816-0.67
					c2.072,10.45,11.695,18.035,22.88,18.035c11.188,0,20.811-7.585,22.881-18.035l-0.816,0.67h45.149l-0.206-0.024
					c0.868,0.221,1.738,0.426,2.587,0.606c13.64,2.91,22.3-0.317,25.739-9.597c0.479-1.288,0.861-2.77,1.136-4.405
					c0.366-2.181,0.546-4.624,0.529-7.265C196.906,74.562,189.85,49.457,170.264,30.847z M195.336,90.412
					c0.016,2.544-0.156,4.892-0.507,6.978c-0.257,1.531-0.612,2.914-1.056,4.104c-3.107,8.383-11.127,11.258-23.832,8.547
					c-0.826-0.179-1.676-0.377-2.521-0.593l-0.102-0.026h-0.104h-45.149h-0.683l-0.134,0.671
					c-1.917,9.674-10.854,16.694-21.248,16.694c-10.394,0-19.33-7.021-21.249-16.695l-0.133-0.67h-0.683H32.787h-0.104l-0.102,0.026
					c-0.847,0.216-1.696,0.414-2.524,0.593c-12.704,2.711-20.722-0.164-23.832-8.547c-0.441-1.188-0.796-2.57-1.055-4.104
					c-0.351-2.082-0.521-4.431-0.506-6.978c0.099-16.742,8.244-41.28,26.219-58.359C50.013,13.879,73.267,4.664,100,4.664
					c26.732,0,49.986,9.215,69.117,27.39C187.093,49.134,195.238,73.672,195.336,90.412z"/>
			</g>
		</g>
		<g>
			<path display="none" fill="#FF00DB" stroke="#DB3FFF" stroke-width="4" d="M34.571,94.157
				c3.65-32.919,31.559-58.521,65.452-58.521s61.801,25.603,65.452,58.521h8.498c-3.688-37.595-35.388-66.97-73.95-66.97
				c-38.563,0-70.263,29.375-73.949,66.97H34.571z"/>
			<path fill="#B0EEFF" stroke="#B0EEFF" stroke-width="4" d="M35.167,88.726c6.083-28.625,30.963-53.089,64.856-53.089
				s59.352,25.089,64.727,53.589l8.5-0.875c-5.625-32.25-34.667-61.574-73.227-61.164C61.125,27.601,32.75,55.476,26.875,87.976
				L35.167,88.726z"/>
			<circle fill="#B0EEFF" cx="30.75" cy="90.083" r="6.243"/>
			<circle fill="#B0EEFF" cx="169.25" cy="89.708" r="6.243"/>
		</g>
	</g>
</g>
<g id="图层_2" display="none">
	<line display="inline" fill="none" stroke="#000000" x1="-18.5" y1="93.226" x2="239.5" y2="93.226"/>
</g>
</svg>
