<?xml version="1.0" encoding="utf-8"?>
<!--
  - This file is part of StyleBI.
  - Copyright (C) 2024  InetSoft Technology
  -
  - This program is free software: you can redistribute it and/or modify
  - it under the terms of the GNU Affero General Public License as published by
  - the Free Software Foundation, either version 3 of the License, or
  - (at your option) any later version.
  -
  - This program is distributed in the hope that it will be useful,
  - but WITHOUT ANY WARRANTY; without even the implied warranty of
  - MERCHANTABILITY or FITNESS FOR A PARTICULAR PURPOSE.  See the
  - GNU Affero General Public License for more details.
  -
  - You should have received a copy of the GNU Affero General Public License
  - along with this program.  If not, see <https://www.gnu.org/licenses/>.
  -->

<!-- Generator: Adobe Illustrator 13.0.1, SVG Export Plug-In . SVG Version: 6.00 Build 14948)  -->
<!DOCTYPE svg PUBLIC "-//W3C//DTD SVG 1.0//EN" "http://www.w3.org/TR/2001/REC-SVG-20010904/DTD/svg10.dtd">
<svg version="1.0" id="图层_1" xmlns="http://www.w3.org/2000/svg" xmlns:xlink="http://www.w3.org/1999/xlink" x="0px" y="0px"
	 width="200px" height="200px" viewBox="0 0 200 200" enable-background="new 0 0 200 200" xml:space="preserve">
<g id="Layer_1">
	<rect display="none" fill="#FFFFFF" width="200" height="200"/>
	
		<linearGradient id="SVGID_1_" gradientUnits="userSpaceOnUse" x1="-251.1177" y1="-386.1675" x2="-141.7056" y2="-276.7554" gradientTransform="matrix(1 0 0 -1 264.0879 -198.9238)">
		<stop  offset="0.0056" style="stop-color:#E3F1F4"/>
		<stop  offset="0.5337" style="stop-color:#76BDCE"/>
		<stop  offset="1" style="stop-color:#2881FF"/>
	</linearGradient>
	<path fill="url(#SVGID_1_)" stroke="#4C7291" stroke-width="0.4514" d="M194.709,169.531c8.006-23.081-4.221-85.172-48.613-124.305
		C100.871,2.118,39.718-7.157,19.267,13.626c-9.303,9.452-10.319,26.611-4.47,45.775l-0.002,77.774
		c-0.688,0.597-1.361,1.212-2.012,1.872c-13.046,13.26-13.046,34.753,0,48.01c13.048,13.258,34.202,13.258,47.248,0.002
		c0.875-0.892,1.688-1.817,2.445-2.774h77.78C154.299,188.111,187.079,191.527,194.709,169.531z"/>
	
		<linearGradient id="SVGID_2_" gradientUnits="userSpaceOnUse" x1="-115.8442" y1="-253.8877" x2="-135.4387" y2="-273.4823" gradientTransform="matrix(1 0 0 -1 264.0879 -198.9238)">
		<stop  offset="0.0112" style="stop-color:#CCE6EC"/>
		<stop  offset="0.3034" style="stop-color:#76BDCE"/>
		<stop  offset="1" style="stop-color:#2881FF"/>
	</linearGradient>
	<path fill="url(#SVGID_2_)" d="M40.601,17.685c0,0,129.667-22.027,148.985,140.859C189.586,158.544,155.273,21.296,40.601,17.685z"
		/>
	<g>
		<g>
			<path fill="#044FAA" d="M38.157,49.91c-0.044-0.611-0.006-1.107,0.109-1.489c0.117-0.383,0.307-0.684,0.574-0.905
				c0.265-0.221,0.612-0.347,1.036-0.376c0.314-0.021,0.593,0.016,0.836,0.109c0.246,0.096,0.452,0.243,0.619,0.442
				c0.171,0.199,0.309,0.447,0.417,0.742c0.109,0.297,0.182,0.7,0.216,1.212c0.044,0.605,0.006,1.1-0.108,1.481
				c-0.115,0.382-0.305,0.685-0.571,0.906c-0.268,0.224-0.614,0.35-1.041,0.378c-0.564,0.04-1.017-0.108-1.365-0.442
				C38.466,51.566,38.223,50.88,38.157,49.91z M38.894,49.859c0.059,0.847,0.211,1.403,0.453,1.668
				c0.244,0.266,0.532,0.387,0.86,0.362c0.329-0.022,0.597-0.182,0.803-0.479c0.205-0.299,0.276-0.869,0.218-1.715
				c-0.057-0.85-0.21-1.407-0.454-1.67c-0.243-0.265-0.532-0.385-0.866-0.361c-0.329,0.023-0.585,0.165-0.766,0.425
				C38.918,48.421,38.835,49.011,38.894,49.859z"/>
			<path fill="#044FAA" d="M55.585,53.865l-0.709-0.121l0.684-3.988c-0.194,0.114-0.443,0.219-0.744,0.315
				c-0.302,0.096-0.568,0.161-0.802,0.196l0.104-0.606c0.423-0.095,0.804-0.235,1.141-0.418c0.337-0.185,0.585-0.376,0.748-0.575
				l0.457,0.08L55.585,53.865z"/>
			<path fill="#044FAA" d="M56.636,52.666l0.753,0.1c-0.012,0.327,0.063,0.592,0.232,0.794c0.165,0.202,0.389,0.332,0.669,0.391
				c0.341,0.07,0.651,0.018,0.932-0.159c0.282-0.176,0.463-0.451,0.54-0.824c0.074-0.354,0.02-0.658-0.164-0.909
				c-0.183-0.252-0.457-0.416-0.822-0.491c-0.226-0.048-0.439-0.046-0.641,0.007c-0.203,0.054-0.371,0.142-0.506,0.264l-0.645-0.213
				l1.098-2.483l2.851,0.593l-0.123,0.595l-2.29-0.477l-0.592,1.297c0.389-0.141,0.771-0.172,1.15-0.092
				c0.5,0.104,0.893,0.345,1.173,0.722c0.28,0.378,0.369,0.808,0.269,1.288c-0.095,0.459-0.327,0.823-0.7,1.094
				c-0.453,0.333-0.997,0.434-1.634,0.302c-0.522-0.11-0.921-0.327-1.199-0.652C56.712,53.482,56.595,53.101,56.636,52.666z"/>
			<path fill="#044FAA" d="M70.018,56.141l0.704,0.162c-0.043,0.367,0.002,0.658,0.137,0.873c0.131,0.217,0.333,0.372,0.601,0.467
				c0.32,0.114,0.623,0.113,0.911-0.004c0.288-0.117,0.483-0.318,0.587-0.607c0.099-0.274,0.076-0.537-0.063-0.787
				c-0.14-0.251-0.365-0.432-0.68-0.543c-0.129-0.047-0.294-0.081-0.5-0.104l0.263-0.499c0.042,0.021,0.078,0.035,0.106,0.045
				c0.288,0.103,0.57,0.129,0.849,0.078c0.276-0.05,0.466-0.213,0.564-0.491c0.078-0.22,0.059-0.432-0.059-0.634
				c-0.115-0.205-0.307-0.354-0.572-0.448c-0.263-0.093-0.508-0.099-0.734-0.016c-0.228,0.085-0.421,0.264-0.574,0.538l-0.639-0.348
				c0.224-0.371,0.524-0.614,0.896-0.731c0.371-0.115,0.774-0.096,1.212,0.059c0.3,0.108,0.558,0.264,0.768,0.469
				c0.214,0.204,0.353,0.428,0.415,0.673c0.066,0.246,0.057,0.479-0.023,0.699c-0.073,0.212-0.206,0.379-0.394,0.507
				c-0.191,0.127-0.43,0.197-0.714,0.21c0.301,0.183,0.504,0.411,0.609,0.685c0.106,0.273,0.104,0.567-0.009,0.882
				c-0.152,0.425-0.455,0.723-0.912,0.895c-0.454,0.169-0.952,0.16-1.488-0.031c-0.483-0.173-0.84-0.443-1.069-0.813
				C69.983,56.958,69.919,56.562,70.018,56.141z"/>
			<path fill="#044FAA" d="M74.178,56.366c0.229-0.567,0.479-0.998,0.748-1.292c0.272-0.293,0.576-0.482,0.911-0.563
				c0.336-0.083,0.701-0.045,1.097,0.112c0.29,0.117,0.527,0.271,0.705,0.463c0.179,0.192,0.3,0.414,0.366,0.668
				c0.064,0.253,0.079,0.536,0.051,0.849c-0.032,0.313-0.144,0.709-0.333,1.186c-0.228,0.563-0.474,0.99-0.743,1.285
				c-0.271,0.295-0.574,0.483-0.911,0.568c-0.334,0.084-0.703,0.047-1.099-0.112c-0.525-0.211-0.87-0.541-1.036-0.993
				C73.736,57.991,73.817,57.269,74.178,56.366z M74.865,56.641c-0.316,0.789-0.423,1.356-0.318,1.701
				c0.104,0.344,0.309,0.578,0.616,0.701c0.307,0.122,0.617,0.094,0.93-0.084c0.313-0.179,0.629-0.661,0.943-1.448
				c0.316-0.791,0.423-1.358,0.318-1.702c-0.105-0.344-0.313-0.576-0.625-0.701c-0.307-0.124-0.597-0.106-0.87,0.049
				C75.512,55.357,75.18,55.853,74.865,56.641z"/>
			<path fill="#044FAA" d="M87.615,65.534l0.61-1.077l-2.209-1.25l0.288-0.507l3.973-1.604l0.512,0.289l-1.652,2.918l0.688,0.39
				L89.536,65.2l-0.688-0.39l-0.61,1.079L87.615,65.534z M88.514,63.949l1.147-2.029l-2.743,1.128L88.514,63.949z"/>
			<path fill="#044FAA" d="M89.685,65.152l0.67,0.349c-0.121,0.306-0.138,0.582-0.053,0.827c0.089,0.246,0.254,0.444,0.5,0.597
				c0.294,0.182,0.604,0.238,0.929,0.167c0.326-0.07,0.587-0.268,0.788-0.59c0.189-0.31,0.242-0.612,0.155-0.911
				c-0.085-0.299-0.288-0.546-0.606-0.743c-0.195-0.12-0.397-0.191-0.604-0.21c-0.208-0.021-0.396,0.007-0.564,0.075l-0.534-0.419
				l1.878-1.961l2.478,1.529l-0.318,0.516l-1.987-1.228l-0.998,1.017c0.413,0.001,0.782,0.103,1.11,0.305
				c0.436,0.269,0.722,0.629,0.856,1.079c0.134,0.45,0.073,0.885-0.185,1.304c-0.246,0.397-0.591,0.659-1.032,0.788
				c-0.54,0.159-1.084,0.066-1.637-0.274c-0.457-0.279-0.756-0.62-0.903-1.021C89.478,65.946,89.497,65.549,89.685,65.152z"/>
			<path fill="#044FAA" d="M105.591,73.358l-0.584-0.414c0.108-0.233,0.154-0.433,0.136-0.595c-0.039-0.262-0.166-0.483-0.386-0.665
				c-0.176-0.145-0.368-0.229-0.575-0.251c-0.266-0.031-0.539,0.021-0.818,0.156c-0.277,0.133-0.58,0.398-0.912,0.795
				c0.279-0.068,0.554-0.068,0.816,0.001c0.27,0.072,0.506,0.193,0.717,0.368c0.371,0.304,0.591,0.683,0.649,1.138
				c0.066,0.453-0.059,0.873-0.372,1.254c-0.205,0.253-0.457,0.437-0.757,0.551c-0.3,0.115-0.604,0.144-0.911,0.082
				s-0.599-0.202-0.869-0.426c-0.465-0.38-0.719-0.839-0.764-1.38c-0.048-0.542,0.212-1.155,0.777-1.848
				c0.634-0.775,1.257-1.205,1.869-1.292c0.529-0.073,1.035,0.083,1.514,0.475c0.355,0.293,0.578,0.619,0.661,0.982
				C105.863,72.654,105.801,73.011,105.591,73.358z M101.906,73.225c-0.137,0.168-0.229,0.364-0.275,0.586
				c-0.045,0.222-0.025,0.434,0.055,0.634c0.078,0.199,0.197,0.366,0.358,0.498c0.237,0.191,0.506,0.273,0.812,0.245
				c0.309-0.029,0.58-0.188,0.813-0.477c0.228-0.276,0.322-0.563,0.284-0.858c-0.034-0.296-0.182-0.548-0.434-0.754
				s-0.531-0.302-0.836-0.284C102.378,72.829,102.118,72.967,101.906,73.225z"/>
			<path fill="#044FAA" d="M104.971,74.607c0.404-0.458,0.785-0.778,1.139-0.965c0.354-0.186,0.701-0.26,1.048-0.226
				c0.343,0.036,0.675,0.193,0.993,0.477c0.234,0.207,0.404,0.433,0.51,0.672c0.104,0.241,0.143,0.491,0.117,0.751
				c-0.022,0.26-0.103,0.533-0.236,0.816c-0.131,0.284-0.37,0.619-0.709,1.002c-0.4,0.454-0.777,0.771-1.131,0.96
				c-0.354,0.188-0.703,0.263-1.049,0.229c-0.346-0.034-0.68-0.192-0.998-0.478c-0.426-0.374-0.637-0.802-0.641-1.28
				C104.009,75.987,104.327,75.335,104.971,74.607z M105.523,75.097c-0.563,0.637-0.854,1.134-0.869,1.492
				c-0.021,0.36,0.098,0.649,0.344,0.868c0.248,0.219,0.549,0.296,0.904,0.233c0.354-0.063,0.813-0.409,1.375-1.045
				c0.563-0.637,0.853-1.136,0.871-1.492c0.015-0.359-0.103-0.649-0.354-0.871c-0.248-0.22-0.524-0.302-0.839-0.247
				C106.564,74.107,106.087,74.462,105.523,75.097z"/>
			<path fill="#044FAA" d="M114.729,81.206l0.449-0.41l2.557,2.8l-0.366,0.333c-0.511-0.039-1.104,0.001-1.777,0.122
				c-0.677,0.12-1.312,0.313-1.896,0.581c-0.416,0.186-0.828,0.438-1.235,0.754l-0.499-0.547c0.309-0.269,0.73-0.532,1.275-0.792
				c0.541-0.261,1.117-0.452,1.73-0.573s1.18-0.17,1.696-0.146L114.729,81.206z"/>
			<path fill="#044FAA" d="M114.834,85.979l0.532,0.539c-0.212,0.252-0.314,0.51-0.306,0.771c0.006,0.262,0.104,0.501,0.287,0.721
				c0.228,0.263,0.502,0.412,0.834,0.443c0.33,0.034,0.644-0.072,0.932-0.318c0.275-0.233,0.421-0.508,0.431-0.818
				c0.013-0.313-0.104-0.607-0.347-0.893c-0.15-0.177-0.319-0.307-0.512-0.388c-0.191-0.081-0.379-0.114-0.563-0.102l-0.378-0.563
				l2.393-1.288l1.887,2.218l-0.463,0.393l-1.515-1.777l-1.263,0.659c0.392,0.127,0.713,0.338,0.963,0.632
				c0.331,0.389,0.49,0.819,0.479,1.289c-0.012,0.47-0.203,0.864-0.578,1.183c-0.355,0.305-0.766,0.447-1.226,0.436
				c-0.562-0.017-1.053-0.271-1.476-0.766c-0.344-0.404-0.524-0.82-0.543-1.25C114.391,86.671,114.533,86.298,114.834,85.979z"/>
			<path fill="#044FAA" d="M123.105,96.941l0.427,0.547c-0.212,0.206-0.323,0.412-0.343,0.622c-0.021,0.209,0.043,0.421,0.186,0.638
				c0.12,0.186,0.264,0.323,0.43,0.413c0.166,0.091,0.34,0.141,0.523,0.148c0.184,0.008,0.398-0.027,0.65-0.106
				c0.254-0.078,0.486-0.188,0.711-0.332c0.021-0.016,0.058-0.04,0.104-0.073c-0.247-0.01-0.492-0.084-0.734-0.224
				c-0.238-0.143-0.438-0.333-0.598-0.575c-0.264-0.406-0.357-0.834-0.281-1.286c0.077-0.45,0.329-0.813,0.754-1.092
				c0.439-0.285,0.892-0.369,1.351-0.25c0.46,0.119,0.834,0.397,1.118,0.842c0.209,0.319,0.322,0.659,0.344,1.022
				c0.021,0.362-0.064,0.705-0.256,1.023c-0.191,0.321-0.557,0.653-1.088,1c-0.555,0.361-1.037,0.58-1.457,0.657
				c-0.416,0.077-0.797,0.037-1.143-0.119c-0.349-0.157-0.64-0.417-0.873-0.777c-0.25-0.385-0.361-0.759-0.33-1.125
				C122.629,97.529,122.798,97.211,123.105,96.941z M126.625,98.161c0.305-0.199,0.488-0.448,0.548-0.749
				c0.062-0.302,0.004-0.581-0.163-0.84c-0.175-0.269-0.424-0.438-0.744-0.512c-0.322-0.072-0.639-0.01-0.943,0.191
				c-0.276,0.18-0.438,0.42-0.489,0.721c-0.05,0.301,0.017,0.59,0.194,0.866c0.184,0.278,0.418,0.452,0.707,0.52
				C126.023,98.426,126.318,98.36,126.625,98.161z"/>
			<path fill="#044FAA" d="M126.412,99.54c0.521-0.314,0.98-0.507,1.375-0.574c0.393-0.07,0.748-0.036,1.066,0.101
				c0.315,0.138,0.586,0.389,0.806,0.754c0.161,0.27,0.255,0.535,0.28,0.794c0.022,0.262-0.015,0.512-0.114,0.754
				c-0.101,0.24-0.257,0.477-0.474,0.706c-0.213,0.229-0.539,0.479-0.979,0.741c-0.521,0.313-0.976,0.504-1.367,0.572
				c-0.394,0.069-0.749,0.036-1.065-0.1c-0.318-0.139-0.592-0.391-0.81-0.756c-0.292-0.484-0.364-0.957-0.226-1.42
				C125.077,100.564,125.577,100.04,126.412,99.54z M126.791,100.173c-0.729,0.438-1.154,0.824-1.279,1.162
				s-0.104,0.647,0.064,0.931c0.171,0.283,0.434,0.449,0.792,0.496c0.356,0.049,0.897-0.145,1.625-0.578
				c0.729-0.438,1.157-0.826,1.282-1.164c0.123-0.336,0.102-0.646-0.072-0.938c-0.17-0.283-0.411-0.445-0.723-0.486
				C128.082,99.544,127.52,99.737,126.791,100.173z"/>
			<path fill="#044FAA" d="M131.251,114.1l-0.298-0.652l3.684-1.678c-0.205-0.098-0.432-0.242-0.68-0.438
				c-0.25-0.193-0.452-0.379-0.611-0.553l0.561-0.256c0.316,0.297,0.646,0.531,0.986,0.707c0.342,0.176,0.642,0.271,0.896,0.295
				l0.191,0.42L131.251,114.1z"/>
			<path fill="#044FAA" d="M133.895,113.736c0.563-0.236,1.045-0.361,1.44-0.373c0.397-0.014,0.746,0.068,1.041,0.252
				c0.295,0.181,0.524,0.469,0.688,0.859c0.121,0.289,0.178,0.563,0.166,0.825c-0.012,0.265-0.084,0.505-0.217,0.729
				c-0.139,0.225-0.324,0.436-0.57,0.633c-0.243,0.197-0.603,0.396-1.074,0.595c-0.561,0.233-1.037,0.358-1.438,0.372
				c-0.396,0.014-0.742-0.068-1.041-0.25c-0.295-0.18-0.525-0.468-0.691-0.863c-0.219-0.521-0.227-0.998-0.021-1.434
				C132.426,114.561,132.997,114.111,133.895,113.736z M134.18,114.417c-0.783,0.329-1.261,0.651-1.434,0.968
				c-0.171,0.315-0.193,0.627-0.064,0.932c0.127,0.307,0.364,0.506,0.711,0.604c0.35,0.099,0.912-0.017,1.69-0.344
				c0.785-0.329,1.263-0.651,1.435-0.968c0.17-0.315,0.191-0.629,0.063-0.938c-0.127-0.306-0.347-0.499-0.646-0.586
				C135.545,113.979,134.962,114.09,134.18,114.417z"/>
			<path fill="#044FAA" d="M135.408,117.352c0.57-0.217,1.056-0.322,1.455-0.322c0.396,0,0.74,0.097,1.031,0.287
				c0.287,0.188,0.51,0.483,0.66,0.885c0.108,0.295,0.155,0.568,0.139,0.833c-0.021,0.261-0.104,0.501-0.244,0.721
				c-0.143,0.22-0.338,0.425-0.59,0.613s-0.614,0.376-1.096,0.558c-0.563,0.217-1.05,0.323-1.447,0.324s-0.741-0.098-1.03-0.285
				c-0.292-0.188-0.515-0.484-0.665-0.887c-0.2-0.528-0.191-1.008,0.027-1.438C133.914,118.127,134.501,117.697,135.408,117.352z
				 M135.67,118.043c-0.794,0.303-1.279,0.607-1.463,0.917c-0.184,0.312-0.216,0.621-0.098,0.931
				c0.115,0.311,0.348,0.52,0.688,0.627c0.345,0.109,0.91,0.019,1.702-0.285c0.796-0.303,1.283-0.606,1.466-0.92
				c0.185-0.309,0.211-0.621,0.097-0.934c-0.119-0.309-0.328-0.512-0.631-0.609C137.053,117.65,136.464,117.742,135.67,118.043z"/>
			<path fill="#044FAA" d="M137.247,130.921l-0.192-0.692l3.896-1.088c-0.188-0.129-0.389-0.308-0.604-0.539
				c-0.217-0.229-0.39-0.445-0.521-0.642l0.591-0.165c0.271,0.344,0.559,0.627,0.867,0.854c0.313,0.229,0.59,0.369,0.84,0.433
				l0.123,0.444L137.247,130.921z"/>
			<path fill="#044FAA" d="M138.02,133.918l-0.177-0.697l3.927-0.986c-0.185-0.135-0.381-0.315-0.592-0.555
				c-0.209-0.236-0.377-0.455-0.502-0.654l0.598-0.147c0.261,0.351,0.541,0.642,0.846,0.875c0.306,0.231,0.58,0.384,0.826,0.45
				l0.111,0.447L138.02,133.918z"/>
			<path fill="#044FAA" d="M139.497,134.215l0.219,0.727c-0.303,0.125-0.514,0.308-0.628,0.539
				c-0.113,0.234-0.141,0.492-0.079,0.772c0.075,0.337,0.253,0.599,0.529,0.781c0.276,0.182,0.603,0.231,0.972,0.149
				c0.354-0.076,0.608-0.254,0.764-0.521c0.151-0.271,0.188-0.588,0.106-0.951c-0.051-0.227-0.142-0.421-0.271-0.582
				c-0.133-0.163-0.28-0.279-0.448-0.352l-0.069-0.676l2.715-0.022l0.633,2.842l-0.594,0.132l-0.509-2.279l-1.425-0.006
				c0.287,0.295,0.475,0.633,0.561,1.01c0.109,0.5,0.051,0.953-0.178,1.365c-0.229,0.41-0.583,0.668-1.063,0.775
				c-0.457,0.102-0.885,0.039-1.284-0.188c-0.489-0.274-0.806-0.729-0.947-1.365c-0.114-0.52-0.081-0.973,0.103-1.357
				C138.785,134.62,139.083,134.355,139.497,134.215z"/>
			<path fill="#044FAA" d="M140.538,147.338l-0.101-0.713l4.008-0.557c-0.168-0.151-0.346-0.356-0.527-0.614
				c-0.182-0.259-0.326-0.493-0.428-0.705l0.605-0.085c0.223,0.377,0.473,0.695,0.746,0.962c0.276,0.267,0.534,0.444,0.771,0.537
				l0.063,0.46L140.538,147.338z"/>
			<path fill="#044FAA" d="M141.979,147.74l0.166,0.705c-0.35,0.121-0.59,0.291-0.728,0.507c-0.135,0.215-0.187,0.463-0.151,0.747
				c0.037,0.336,0.174,0.607,0.402,0.814c0.232,0.209,0.501,0.295,0.805,0.262c0.291-0.033,0.52-0.168,0.682-0.402
				c0.164-0.236,0.229-0.521,0.188-0.85c-0.016-0.137-0.059-0.301-0.127-0.498l0.563,0.019c0.002,0.047,0.003,0.086,0.007,0.115
				c0.032,0.304,0.136,0.569,0.304,0.798c0.167,0.229,0.396,0.324,0.691,0.291c0.229-0.027,0.41-0.137,0.543-0.332
				c0.132-0.193,0.182-0.432,0.148-0.712c-0.031-0.278-0.138-0.501-0.312-0.668c-0.179-0.168-0.42-0.261-0.735-0.278l0.031-0.729
				c0.434,0.039,0.783,0.201,1.052,0.482c0.271,0.281,0.431,0.653,0.479,1.114c0.037,0.315,0.01,0.617-0.08,0.897
				c-0.09,0.279-0.229,0.504-0.422,0.668c-0.19,0.166-0.405,0.263-0.639,0.287c-0.224,0.025-0.435-0.02-0.631-0.133
				c-0.197-0.113-0.363-0.299-0.505-0.551c-0.028,0.354-0.146,0.635-0.345,0.854c-0.198,0.215-0.467,0.342-0.797,0.379
				c-0.447,0.053-0.852-0.09-1.204-0.426c-0.354-0.336-0.563-0.785-0.628-1.354c-0.061-0.51,0.025-0.949,0.26-1.316
				C141.229,148.068,141.557,147.837,141.979,147.74z"/>
			<path fill="#044FAA" d="M143.59,151.395c0.607-0.053,1.105-0.021,1.488,0.09c0.385,0.107,0.688,0.293,0.916,0.559
				c0.227,0.264,0.355,0.604,0.395,1.029c0.025,0.314-0.007,0.593-0.099,0.84c-0.091,0.244-0.233,0.453-0.433,0.626
				c-0.194,0.171-0.439,0.313-0.734,0.428c-0.293,0.114-0.695,0.19-1.206,0.236c-0.604,0.052-1.101,0.021-1.483-0.087
				c-0.385-0.107-0.688-0.295-0.916-0.557c-0.228-0.264-0.356-0.606-0.394-1.035c-0.051-0.563,0.091-1.021,0.419-1.371
				C141.939,151.729,142.62,151.479,143.59,151.395z M143.652,152.132c-0.848,0.072-1.4,0.231-1.661,0.481
				c-0.261,0.246-0.378,0.535-0.349,0.863c0.026,0.328,0.19,0.594,0.49,0.795c0.305,0.199,0.873,0.264,1.721,0.188
				c0.848-0.071,1.399-0.231,1.66-0.479c0.262-0.248,0.377-0.539,0.348-0.873c-0.028-0.328-0.172-0.58-0.438-0.758
				C145.09,152.132,144.499,152.059,143.652,152.132z"/>
		</g>
	</g>
	
		<linearGradient id="SVGID_3_" gradientUnits="userSpaceOnUse" x1="-166.1743" y1="-246.5469" x2="-176.7472" y2="-364.7792" gradientTransform="matrix(1 0 0 -1 264.0879 -198.9238)">
		<stop  offset="0.0056" style="stop-color:#C7E8F2"/>
		<stop  offset="1" style="stop-color:#62C3DB"/>
	</linearGradient>
	<path display="none" fill="url(#SVGID_3_)" d="M37.59,42.686v0.027c-0.093-0.003-0.188-0.014-0.28-0.014
		c-4.876,0-8.828,4.017-8.828,8.971s3.952,8.971,8.828,8.971c0.093,0,0.188-0.011,0.28-0.014v0.117
		c55.457,0.161,100.438,44.824,101.113,100.16c-0.057,0.408-0.098,0.822-0.098,1.248c0,5.002,4.058,9.061,9.062,9.061
		s9.06-4.059,9.06-9.061h0.053C156.77,96.269,103.438,42.847,37.59,42.686z"/>
</g>
<linearGradient id="SVGID_4_" gradientUnits="userSpaceOnUse" x1="146.7129" y1="-19.7417" x2="136.5075" y2="-133.8664" gradientTransform="matrix(1 0 0 -1 -47.7202 27.9805)">
	<stop  offset="0.0056" style="stop-color:#C7E8F2"/>
	<stop  offset="1" style="stop-color:#62C3DB"/>
</linearGradient>
<path fill="url(#SVGID_4_)" d="M156.518,155.65C154.168,96.096,104.08,45.387,44.066,42.941c-0.364-0.045-2.04-0.072-2.275-0.076
	c0,0-1.245-0.031-1.791-0.031c-4.971,0-9,4.029-9,9s4.029,9,9,9c0.567,0,1.916,0.032,1.916,0.032
	c51.833,2.167,94.625,43.999,96.813,97.688c-0.006,0.051-0.033-0.002,0,0c0.28,4.717,4.233,8.528,9.021,8.528c4.971,0,9-4.028,9-9
	C156.75,157.454,156.543,155.848,156.518,155.65z"/>
</svg>
