<?xml version="1.0" encoding="utf-8"?>
<!--
  - This file is part of StyleBI.
  -
  - Copyright (c) 2024, InetSoft Technology Corp, All Rights Reserved.
  -
  - The software and information contained herein are copyrighted and
  - proprietary to InetSoft Technology Corp. This software is furnished
  - pursuant to a written license agreement and may be used, copied,
  - transmitted, and stored only in accordance with the terms of such
  - license and with the inclusion of the above copyright notice. Please
  - refer to the file "COPYRIGHT" for further copyright and licensing
  - information. This software and information or any other copies
  - thereof may not be provided or otherwise made available to any other
  - person.
  -->

<!-- Generator: Adobe Illustrator 13.0.1, SVG Export Plug-In . SVG Version: 6.00 Build 14948)  -->
<!DOCTYPE svg PUBLIC "-//W3C//DTD SVG 1.0//EN" "http://www.w3.org/TR/2001/REC-SVG-20010904/DTD/svg10.dtd">
<svg version="1.0" id="图层_1" xmlns="http://www.w3.org/2000/svg" xmlns:xlink="http://www.w3.org/1999/xlink" x="0px" y="0px"
	 width="200px" height="200px" viewBox="0 0 200 200" enable-background="new 0 0 200 200" xml:space="preserve">
<g id="Layer_1">
	<rect fill="#FFFFFF" fill-opacity="0" width="200" height="200"/>
	<g>
		<g>
			<path fill="#FFFFFF" d="M49.798,151.494c45.436,45.439,108.536,54.258,129.368,33.422c9.475-9.477,14.191-27.6,8.23-46.813
				l0.002-73.138c5.119-6.383,8.188-14.481,8.188-23.302c0-20.587-16.687-37.276-37.271-37.276c-9.008,0-17.27,3.196-23.711,8.517
				H55.929c-14.302-3.84-41.254-7.264-49.025,14.79C-1.251,50.835,9.988,111.68,49.798,151.494z"/>
		</g>
		<g>
			<path fill="#2B5BA0" d="M48.823,152.471c21.12,21.121,47.61,36.016,74.59,41.938c24.758,5.433,45.965,2.25,56.729-8.518
				c8.937-8.937,15.053-27.306,8.571-48.197l0.062,0.41l0.002-73.138l-0.303,0.864c5.555-6.928,8.492-15.284,8.492-24.166
				c0-21.314-17.338-38.655-38.65-38.655c-8.961,0-17.694,3.136-24.59,8.832l0.879-0.315H55.929l0.357,0.047
				C43.88,8.242,14.107,3.101,5.603,27.236C-3.11,51.959,9.395,113.036,48.823,152.471z M8.205,28.153
				c7.738-21.959,35.702-17.047,47.366-13.915l0.176,0.047h0.182h78.676h0.496l0.381-0.315c6.403-5.289,14.513-8.201,22.834-8.201
				c19.791,0,35.892,16.104,35.892,35.896c0,8.248-2.728,16.007-7.885,22.438l-0.304,0.378v0.485l-0.002,73.138v0.209l0.062,0.199
				c6.139,19.793,0.462,37.076-7.888,45.428c-21.155,21.158-84.107,9.894-127.417-33.422C12.096,111.835-0.272,52.208,8.205,28.153z
				"/>
		</g>
	</g>
	<g display="none">
		<path display="inline" fill="#8BD2E4" d="M50.226,29.979c5.521,0.211,9.657,5.635,10.052,11.902
			c3.104,52.033,44.003,93.129,96.016,96.475c6.263,0.424,11.668,4.586,11.854,10.109l0,0c0.197,5.506-6.096,10.368-13.789,9.865
			C92.573,154.354,43.985,105.536,40.299,43.72C39.83,36.028,44.721,29.756,50.226,29.979L50.226,29.979z"/>
		<path display="inline" fill="none" stroke="#0C52BA" stroke-width="0.9198" d="M50.226,29.979
			c5.521,0.211,9.657,5.635,10.052,11.902c3.104,52.033,44.003,93.129,96.016,96.475c6.263,0.424,11.668,4.586,11.854,10.109l0,0
			c0.197,5.506-6.096,10.368-13.789,9.865C92.573,154.354,43.985,105.536,40.299,43.72C39.83,36.028,44.721,29.756,50.226,29.979
			L50.226,29.979z"/>
	</g>
	<g>
		<path display="none" fill="#DF00D8" d="M50.226,29.979c5.521,0.211,9.657,5.635,10.052,11.902
			c3.104,52.033,44.003,93.129,96.016,96.475c6.263,0.424,11.668,4.586,11.854,10.109l0,0c0.197,5.506-6.096,10.368-13.789,9.865
			C92.573,154.354,43.985,105.536,40.299,43.72C39.83,36.028,44.721,29.756,50.226,29.979L50.226,29.979z"/>
		<path display="none" fill="none" stroke="#0C52BA" stroke-width="0.9198" d="M50.226,29.979
			c5.521,0.211,9.657,5.635,10.052,11.902c3.104,52.033,44.003,93.129,96.016,96.475c6.263,0.424,11.668,4.586,11.854,10.109l0,0
			c0.197,5.506-6.096,10.368-13.789,9.865C92.573,154.354,43.985,105.536,40.299,43.72C39.83,36.028,44.721,29.756,50.226,29.979
			L50.226,29.979z"/>
	</g>
</g>
<path fill="#8BD2E4" stroke="#0C52BA" stroke-width="0.9184" d="M152.788,138.323c-0.351-0.136-1.767-0.323-2.231-0.431
	c-46.951-5.463-83.563-41.809-89.817-89.954c-0.028-0.329-0.074-0.653-0.133-0.972c-0.021-0.177-0.052-0.35-0.072-0.526
	l-0.011,0.001c0.002-0.092,0.014-0.182,0.014-0.275c0-5.454-4.421-9.875-9.875-9.875s-9.875,4.421-9.875,9.875
	c0,0.458,0.042,0.906,0.103,1.348c-0.023,0.183-0.054,0.363-0.067,0.548l-0.038,0.003c0.007,0.085,0.018,0.17,0.025,0.255
	c-0.008,0.165-0.025,0.328-0.025,0.495c0,0.873,0.124,1.715,0.333,2.522c6.416,56.203,51.629,100.471,107.875,106.52
	c0,0-0.005,0.024,0,0c0.271,0.022,2.484,0.185,3.17,0.185c5.453,0,9.875-4.421,9.875-9.875
	C162.037,142.924,158.126,138.854,152.788,138.323z"/>
</svg>
