<?xml version="1.0" encoding="utf-8"?>
<!--
  - This file is part of StyleBI.
  - Copyright (C) 2024  InetSoft Technology
  -
  - This program is free software: you can redistribute it and/or modify
  - it under the terms of the GNU Affero General Public License as published by
  - the Free Software Foundation, either version 3 of the License, or
  - (at your option) any later version.
  -
  - This program is distributed in the hope that it will be useful,
  - but WITHOUT ANY WARRANTY; without even the implied warranty of
  - MERCHANTABILITY or FITNESS FOR A PARTICULAR PURPOSE.  See the
  - GNU Affero General Public License for more details.
  -
  - You should have received a copy of the GNU Affero General Public License
  - along with this program.  If not, see <https://www.gnu.org/licenses/>.
  -->

<!-- Generator: Adobe Illustrator 15.1.0, SVG Export Plug-In . SVG Version: 6.00 Build 0)  -->
<!DOCTYPE svg PUBLIC "-//W3C//DTD SVG 1.1//EN" "http://www.w3.org/Graphics/SVG/1.1/DTD/svg11.dtd">
<svg version="1.1" id="Layer_1" xmlns="http://www.w3.org/2000/svg" xmlns:xlink="http://www.w3.org/1999/xlink" x="0px" y="0px"
	 width="30px" height="30px" viewBox="291 381 30 30" enable-background="new 291 381 30 30" xml:space="preserve">
<path fill="#006EAB" d="M293.731,383.731h24.539v24.539h-24.539V383.731z"/>
<g>
	<path fill="#FFFFFF" d="M296.802,399.262c0-4.617,2.957-7.508,6.604-7.508c3.648,0,6.606,2.904,6.606,6.486
		s-2.958,6.486-6.606,6.486c-2.902,0-5.069-0.919-7.298-3.041c1.281,2.424,3.85,4.102,7.086,4.102c4.908,0,8.153-3.48,8.153-7.775
		c0-4.294-3.08-7.626-8.002-7.626C299.126,390.385,295.435,394.57,296.802,399.262L296.802,399.262z"/>
	<path fill="#FFFFFF" d="M308.182,400.188c-0.985,1.172-2.848,1.853-4.896,1.637c-2.878-0.305-5.03-2.795-4.807-4.909
		c0,0-0.137,2.21,3.486,3.634C305.828,402.067,308.182,400.188,308.182,400.188L308.182,400.188z M314.189,394.419
		c0-3.54-3.251-6.409-7.26-6.409c-1.505,0-2.905,0.406-4.064,1.099c0.798-0.251,1.653-0.396,2.546-0.396
		c4.271,0,7.735,3.132,7.735,6.997c0,1.011-0.243,1.969-0.67,2.837C313.544,397.432,314.189,395.993,314.189,394.419z"/>
	<path fill="#FFFFFF" d="M315.893,391.102c0-2.7-2.479-4.888-5.534-4.888c-1.151,0-2.218,0.309-3.101,0.838
		c0.608-0.193,1.261-0.302,1.941-0.302c3.258,0,5.899,2.389,5.899,5.335c0,0.771-0.185,1.501-0.51,2.164
		C315.4,393.397,315.893,392.3,315.893,391.102L315.893,391.102z"/>
</g>
</svg>
