<?xml version="1.0" encoding="utf-8"?>
<!--
  - This file is part of StyleBI.
  - Copyright (C) 2024  InetSoft Technology
  -
  - This program is free software: you can redistribute it and/or modify
  - it under the terms of the GNU Affero General Public License as published by
  - the Free Software Foundation, either version 3 of the License, or
  - (at your option) any later version.
  -
  - This program is distributed in the hope that it will be useful,
  - but WITHOUT ANY WARRANTY; without even the implied warranty of
  - MERCHANTABILITY or FITNESS FOR A PARTICULAR PURPOSE.  See the
  - GNU Affero General Public License for more details.
  -
  - You should have received a copy of the GNU Affero General Public License
  - along with this program.  If not, see <https://www.gnu.org/licenses/>.
  -->

<!-- Generator: Adobe Illustrator 15.1.0, SVG Export Plug-In . SVG Version: 6.00 Build 0)  -->
<!DOCTYPE svg PUBLIC "-//W3C//DTD SVG 1.1//EN" "http://www.w3.org/Graphics/SVG/1.1/DTD/svg11.dtd">
<svg version="1.1" id="Layer_1" xmlns="http://www.w3.org/2000/svg" xmlns:xlink="http://www.w3.org/1999/xlink" x="0px" y="0px"
	 width="30px" height="30px" viewBox="291 381 30 30" enable-background="new 291 381 30 30" xml:space="preserve">
<g>
	<g>
		<path fill="#1E8CBE" d="M295.849,396c0,4.022,2.34,7.488,5.724,9.136l-4.843-13.267C296.149,393.169,295.849,394.576,295.849,396z
			"/>
		<path fill="#1E8CBE" d="M306,406.152c1.18,0,2.313-0.207,3.375-0.576l-0.072-0.135l-3.124-8.55l-3.041,8.847
			C304.038,406.008,305.001,406.152,306,406.152z"/>
		<path fill="#1E8CBE" d="M307.394,391.239l3.673,10.917l1.018-3.384c0.433-1.404,0.765-2.412,0.765-3.285
			c0-1.261-0.45-2.125-0.828-2.791c-0.522-0.846-0.998-1.557-0.998-2.385c0-0.936,0.701-1.8,1.71-1.8h0.125
			c-1.87-1.717-4.319-2.668-6.857-2.665c-3.416,0-6.603,1.718-8.478,4.572l0.647,0.019c1.063,0,2.7-0.136,2.7-0.136
			c0.559-0.026,0.622,0.774,0.072,0.838c0,0-0.548,0.072-1.169,0.098l3.708,10.999l2.224-6.66l-1.584-4.338
			c-0.355-0.019-0.71-0.049-1.062-0.089c-0.55-0.036-0.487-0.873,0.062-0.847c0,0,1.675,0.136,2.673,0.136
			c1.062,0,2.7-0.136,2.7-0.136c0.549-0.026,0.621,0.774,0.072,0.838C308.564,391.141,308.017,391.203,307.394,391.239z"/>
		<path fill="#1E8CBE" d="M311.103,404.775c3.126-1.817,5.049-5.159,5.049-8.775c0-1.764-0.45-3.42-1.241-4.869
			c0.16,1.594-0.081,3.204-0.703,4.68L311.103,404.775z"/>
	</g>
	<circle fill="none" stroke="#1E8CBE" stroke-miterlimit="10" cx="306" cy="396" r="11.7"/>
	<title>WordPress.com icon &amp; logo.</title>
</g>
</svg>
