<?xml version="1.0" encoding="utf-8"?>
<!--
  - This file is part of StyleBI.
  -
  - Copyright (c) 2024, InetSoft Technology Corp, All Rights Reserved.
  -
  - The software and information contained herein are copyrighted and
  - proprietary to InetSoft Technology Corp. This software is furnished
  - pursuant to a written license agreement and may be used, copied,
  - transmitted, and stored only in accordance with the terms of such
  - license and with the inclusion of the above copyright notice. Please
  - refer to the file "COPYRIGHT" for further copyright and licensing
  - information. This software and information or any other copies
  - thereof may not be provided or otherwise made available to any other
  - person.
  -->

<!-- Generator: Adobe Illustrator 15.1.0, SVG Export Plug-In . SVG Version: 6.00 Build 0)  -->
<!DOCTYPE svg PUBLIC "-//W3C//DTD SVG 1.1//EN" "http://www.w3.org/Graphics/SVG/1.1/DTD/svg11.dtd">
<svg version="1.1" id="Layer_1" xmlns="http://www.w3.org/2000/svg" xmlns:xlink="http://www.w3.org/1999/xlink" x="0px" y="0px"
	 width="225px" height="225px" viewBox="193.5 283.5 225 225" enable-background="new 193.5 283.5 225 225" xml:space="preserve">
<g>
	<path d="M271.453,289.553c-27.716,9.654-50.596,29.7-63.81,55.906c-4.53,8.935-7.831,18.442-9.812,28.262
		c-11.759,58.288,23.807,115.679,81.237,131.089c18.882,4.863,38.662,5.067,57.641,0.599c36.081-7.856,64.829-35.075,74.646-70.674
		c5.507-19.44,6.482-39.884,2.853-59.761H308.178v43.819h61.42c-2.504,14.141-10.636,26.662-22.535,34.7
		c-7.498,4.959-15.949,8.295-24.812,9.793c-8.921,1.65-18.068,1.65-26.989,0c-9.011-1.845-17.543-5.534-25.061-10.834
		c-11.977-8.506-20.952-20.586-25.64-34.508c-4.81-14.203-4.81-29.596,0-43.799c3.392-9.967,8.978-19.046,16.348-26.565
		c17.242-17.813,42.986-24.508,66.721-17.35c9.103,2.784,17.419,7.679,24.271,14.285l20.706-20.686
		c3.644-3.682,7.46-7.268,10.969-11.065c-10.508-9.779-22.826-17.408-36.262-22.459C322.857,281.38,296.081,281.115,271.453,289.553
		z"/>
	<path fill="#EA4335" d="M271.453,289.553c24.621-8.444,51.389-8.213,75.859,0.656c13.445,5.031,25.768,12.663,36.262,22.458
		c-3.509,3.855-7.325,7.384-10.969,11.066L351.9,344.418c-6.869-6.58-15.181-11.465-24.271-14.265
		c-10.73-3.233-22.105-3.69-33.062-1.33c-12.801,2.821-24.5,9.32-33.659,18.699c-7.377,7.505-12.966,16.58-16.348,26.546
		c-12.28-9.639-24.58-19.047-36.917-28.608C220.847,319.246,243.731,299.196,271.453,289.553z"/>
	<path fill="#FBBC05" d="M197.889,373.644c1.977-9.828,5.264-19.347,9.774-28.3c12.313,9.549,24.637,19.085,36.975,28.608
		c-4.857,14.202-4.857,29.616,0,43.818c-12.299,9.563-24.592,19.099-36.879,28.609C196.395,423.93,192.918,398.31,197.889,373.644z"
		/>
	<path fill="#4285F4" d="M308.255,374.801h106.029c3.599,19.878,2.623,40.316-2.854,59.761
		c-5.08,17.874-14.938,34.023-28.512,46.711l-35.78-27.76c11.897-8.038,20.024-20.561,22.517-34.701h-61.458
		C308.262,404.109,308.28,389.439,308.255,374.801z"/>
	<path fill="#34A853" d="M207.663,446.438c12.286-9.485,24.573-19.021,36.859-28.608c4.743,13.946,13.77,26.037,25.794,34.546
		c7.523,5.29,16.054,8.978,25.062,10.835c8.919,1.671,18.07,1.671,26.989,0c8.864-1.507,17.315-4.85,24.812-9.813l35.779,27.778
		c-13.04,11.852-28.938,20.109-46.132,23.963c-18.979,4.46-38.758,4.255-57.642-0.597c-14.921-3.968-28.853-11-40.908-20.646
		C225.488,473.765,215.045,460.985,207.663,446.438z"/>
</g>
</svg>
