<?xml version="1.0" encoding="utf-8"?>
<!--
  - This file is part of StyleBI.
  - Copyright (C) 2024  InetSoft Technology
  -
  - This program is free software: you can redistribute it and/or modify
  - it under the terms of the GNU Affero General Public License as published by
  - the Free Software Foundation, either version 3 of the License, or
  - (at your option) any later version.
  -
  - This program is distributed in the hope that it will be useful,
  - but WITHOUT ANY WARRANTY; without even the implied warranty of
  - MERCHANTABILITY or FITNESS FOR A PARTICULAR PURPOSE.  See the
  - GNU Affero General Public License for more details.
  -
  - You should have received a copy of the GNU Affero General Public License
  - along with this program.  If not, see <https://www.gnu.org/licenses/>.
  -->

<!-- Generator: Adobe Illustrator 15.1.0, SVG Export Plug-In . SVG Version: 6.00 Build 0)  -->
<!DOCTYPE svg PUBLIC "-//W3C//DTD SVG 1.1//EN" "http://www.w3.org/Graphics/SVG/1.1/DTD/svg11.dtd">
<svg version="1.1" id="Layer_1" xmlns="http://www.w3.org/2000/svg" xmlns:xlink="http://www.w3.org/1999/xlink" x="0px" y="0px"
	 width="30px" height="30px" viewBox="272.815 309.165 30 30" enable-background="new 272.815 309.165 30 30" xml:space="preserve">
<g>
	<path fill="#FF6C36" d="M289.65,336.321c-0.339,0-0.675,0-1.014,0c-0.007-0.026-0.028-0.039-0.067-0.033
		c-4.795-0.396-7.723-2.532-9.719-5.67c-1.005-1.581-1.767-3.528-1.823-5.873c-0.061-2.526,0.397-4.476,1.384-6.312
		c1.652-3.073,4.786-5.739,9.079-6.312c3.87-0.516,6.905,0.803,8.978,2.363c0.699,0.527,1.555,1.116,1.924,1.958
		c0.971,2.222-1.525,4.021-3.341,2.97c-0.456-0.263-0.771-0.703-1.147-1.013c-1.145-0.938-2.632-1.727-4.76-1.721
		c-2.74,0.007-4.582,1.327-5.805,2.835c-1.262,1.557-2.117,4.066-1.349,6.717c0.655,2.265,2.027,3.76,3.982,4.691
		c1.473,0.7,3.611,0.962,5.399,0.403c0.33-0.102,1.321-0.677,1.553-0.168c0.247,0.541-0.47,0.772-0.843,0.912
		c-1.282,0.475-3.057,0.658-4.49,0.337c-0.086,0.152,0.139,0.269,0.236,0.405c0.135,0.19,0.164,0.366,0.371,0.438
		c0.331,0.117,0.873,0.052,1.249,0.035c2.636-0.123,4.517-1.083,5.906-2.396c0.28-0.266,0.493-0.547,0.845-0.54
		c0.344,0.007,0.637,0.262,0.641,0.675c0.004,0.399-0.314,0.644-0.574,0.877c-1.809,1.635-4.213,2.823-7.492,2.769
		c0.045,0.27,0.138,0.492,0.203,0.742c0.777,0.073,2.033-0.416,1.99,0.405C290.938,336.364,290.223,336.23,289.65,336.321z"/>
	<path fill="#FF6C36" d="M288.738,321.336c1.413-0.169,2.478,0.609,2.903,1.316c1.156,1.925-0.203,4.179-2.059,4.388
		c-1.94,0.217-3.421-1.199-3.308-3.037C286.363,322.563,287.366,321.501,288.738,321.336z"/>
	<path fill="#FF6C36" d="M297.074,329.03c1.075-0.289,1.089,1.211,0.339,1.317C296.586,330.463,296.292,329.242,297.074,329.03z"/>
	<path fill="#FF6C36" d="M294.847,329.2c0.212-0.034,0.522,0.053,0.54,0.404c0.02,0.395-0.477,0.693-0.776,0.945
		c-0.333,0.281-0.668,0.721-1.113,0.607c-0.171-0.043-0.304-0.221-0.304-0.438c0-0.328,0.504-0.614,0.742-0.811
		C294.245,329.655,294.506,329.254,294.847,329.2z"/>
	<path fill="#FF6C36" d="M297.547,331.765c0.331-0.065,0.605,0.077,0.54,0.54c-0.036,0.251-0.603,0.805-0.811,0.844
		c-0.343,0.065-0.604-0.096-0.606-0.438C296.667,332.387,297.301,331.813,297.547,331.765z"/>
	<path fill="#FF6C36" d="M296.062,333.115c0.296-0.042,0.527,0.132,0.54,0.404c0.02,0.412-0.662,0.734-0.945,0.911
		c-0.8,0.5-1.528,0.883-2.498,1.215c-0.498,0.172-1.872,0.76-1.822-0.134c0.024-0.425,0.692-0.472,1.147-0.608
		c1.409-0.42,2.54-1.219,3.477-1.788C295.98,333.103,296.039,333.118,296.062,333.115z"/>
</g>
</svg>
