<?xml version="1.0" encoding="utf-8"?>
<!--
  - This file is part of StyleBI.
  -
  - Copyright (c) 2024, InetSoft Technology Corp, All Rights Reserved.
  -
  - The software and information contained herein are copyrighted and
  - proprietary to InetSoft Technology Corp. This software is furnished
  - pursuant to a written license agreement and may be used, copied,
  - transmitted, and stored only in accordance with the terms of such
  - license and with the inclusion of the above copyright notice. Please
  - refer to the file "COPYRIGHT" for further copyright and licensing
  - information. This software and information or any other copies
  - thereof may not be provided or otherwise made available to any other
  - person.
  -->

<!-- Generator: Adobe Illustrator 15.1.0, SVG Export Plug-In . SVG Version: 6.00 Build 0)  -->
<!DOCTYPE svg PUBLIC "-//W3C//DTD SVG 1.1//EN" "http://www.w3.org/Graphics/SVG/1.1/DTD/svg11.dtd">
<svg version="1.1" id="Layer_1" shape-rendering="geometricPrecision"
	 xmlns="http://www.w3.org/2000/svg" xmlns:xlink="http://www.w3.org/1999/xlink" x="0px" y="0px" width="30px" height="30px"
	 viewBox="66.6 2.76 30 30" enable-background="new 66.6 2.76 30 30" xml:space="preserve">
<g>
	<path fill="#FCB400" d="M80.238,7.373l-9.498,3.93c-0.528,0.218-0.523,0.969,0.009,1.179l9.538,3.783
		c0.838,0.333,1.771,0.333,2.609,0l9.538-3.783c0.531-0.21,0.537-0.961,0.009-1.179l-9.498-3.931
		C82.078,7.014,81.104,7.014,80.238,7.373"/>
	<path fill="#18BFFF" d="M82.437,18.33v9.448c0,0.45,0.453,0.758,0.871,0.592l10.628-4.125c0.243-0.097,0.401-0.331,0.401-0.592
		v-9.448c0-0.449-0.453-0.757-0.87-0.592l-10.629,4.125C82.596,17.835,82.437,18.07,82.437,18.33"/>
	<path fill="#F82B60" d="M79.955,18.818l-3.154,1.523l-0.321,0.154l-6.658,3.19c-0.422,0.204-0.961-0.104-0.961-0.572v-8.868
		c0-0.17,0.087-0.316,0.204-0.427c0.047-0.047,0.102-0.088,0.161-0.121c0.159-0.096,0.386-0.121,0.579-0.045l10.097,4
		C80.416,17.858,80.456,18.576,79.955,18.818"/>
	<path d="M79.955,18.818l-3.154,1.523l-7.736-6.522c0.047-0.047,0.102-0.088,0.161-0.121c0.159-0.096,0.386-0.121,0.579-0.045
		l10.097,4C80.416,17.858,80.456,18.576,79.955,18.818"/>
</g>
</svg>
