<?xml version="1.0" encoding="utf-8"?>
<!--
  - This file is part of StyleBI.
  -
  - Copyright (c) 2024, InetSoft Technology Corp, All Rights Reserved.
  -
  - The software and information contained herein are copyrighted and
  - proprietary to InetSoft Technology Corp. This software is furnished
  - pursuant to a written license agreement and may be used, copied,
  - transmitted, and stored only in accordance with the terms of such
  - license and with the inclusion of the above copyright notice. Please
  - refer to the file "COPYRIGHT" for further copyright and licensing
  - information. This software and information or any other copies
  - thereof may not be provided or otherwise made available to any other
  - person.
  -->

<!-- Generator: Adobe Illustrator 15.1.0, SVG Export Plug-In . SVG Version: 6.00 Build 0)  -->
<!DOCTYPE svg PUBLIC "-//W3C//DTD SVG 1.1//EN" "http://www.w3.org/Graphics/SVG/1.1/DTD/svg11.dtd">
<svg version="1.1" id="Layer_1" xmlns="http://www.w3.org/2000/svg" xmlns:xlink="http://www.w3.org/1999/xlink" x="0px" y="0px"
	 width="164px" height="30px" viewBox="359.053 89.667 164 30" enable-background="new 359.053 89.667 164 30" xml:space="preserve"
	>
<g id="Old_D" display="none">
	<path display="inline" d="M127.626,50.192c2.797,0.005,5.406,0.535,7.822,1.589c2.418,1.05,4.541,2.498,6.375,4.336
		c1.833,1.839,3.271,3.967,4.316,6.388c1.045,2.419,1.564,5.03,1.559,7.827l-0.108,63.727c-0.004,2.797-0.533,5.404-1.585,7.822
		c-1.053,2.416-2.498,4.527-4.337,6.328c-1.841,1.804-3.969,3.231-6.389,4.274c-2.421,1.045-5.031,1.565-7.827,1.56l-17.72-0.029
		l-0.001,0.05l-21.442-0.035l-0.017,10.7l39.688,0.064c4.254,0.008,8.261-0.787,12.022-2.383c3.761-1.595,7.044-3.789,9.846-6.584
		c2.802-2.791,5.007-6.049,6.617-9.777c1.608-3.729,2.417-7.717,2.423-11.971l0.108-63.728c0.008-4.255-0.788-8.262-2.383-12.023
		c-1.596-3.76-3.791-7.044-6.583-9.847c-2.792-2.801-6.068-5.007-9.824-6.616c-3.756-1.609-7.761-2.418-12.014-2.424l-39.688-0.068
		l-0.019,10.824L127.626,50.192z"/>
	<rect x="88.271" y="39.374" display="inline" width="10.818" height="45.338"/>
	<rect x="71.011" y="95.53" display="inline" width="45.338" height="10.818"/>
	<rect x="88.271" y="117.167" display="inline" width="10.818" height="47.629"/>
</g>
<g id="Guides">
</g>
<g>
	<g id="Layer_1_1_">
		<path fill="#22629A" d="M435.929,110.601l-7.144-0.013l-1.488,5.253l-2.108-0.003l6.646-22.554l1.071,0.002l6.603,22.575
			l-2.094-0.004L435.929,110.601z M429.338,108.654l6.058,0.011l-2.956-10.406l-0.062-0.834l-0.064,0.834L429.338,108.654z"/>
		<path fill="#22629A" d="M446.953,95.245l-0.034,20.629l-2.031-0.004l0.035-20.628l-5.38-0.009l0.003-1.936l12.792,0.022
			l-0.004,1.935L446.953,95.245z"/>
		<path fill="#22629A" d="M463.04,110.647l-7.144-0.013l-1.488,5.252l-2.108-0.003l6.647-22.553l1.068,0.001l6.603,22.576
			l-2.092-0.004L463.04,110.647z M456.451,108.7l6.058,0.011l-2.957-10.407l-0.061-0.834l-0.066,0.834L456.451,108.7z"/>
		<path fill="#22629A" d="M469.645,115.912l0.003-2.423l2.424,0.004l-0.004,2.423L469.645,115.912z"/>
		<path fill="#22629A" d="M487.581,115.945l-0.646-0.001l-1.176-1.811c-0.495,0.648-1.094,1.164-1.797,1.546
			c-0.704,0.383-1.484,0.572-2.346,0.57l-1.181-0.001c-0.765-0.002-1.487-0.147-2.163-0.438c-0.676-0.289-1.266-0.687-1.768-1.19
			s-0.897-1.093-1.186-1.765c-0.287-0.671-0.43-1.391-0.429-2.156l0.021-12.116c0.002-0.767,0.146-1.485,0.437-2.155
			c0.289-0.671,0.687-1.257,1.19-1.76c0.504-0.502,1.096-0.897,1.773-1.185c0.676-0.287,1.397-0.431,2.163-0.43l1.605,0.003
			c0.765,0.001,1.483,0.146,2.155,0.437c0.671,0.29,1.257,0.687,1.76,1.191c0.503,0.504,0.897,1.092,1.185,1.764
			s0.431,1.391,0.429,2.157l-0.001,0.912l-2.03,0.312l0.002-1.227c0.001-0.503-0.093-0.973-0.28-1.409
			c-0.188-0.435-0.445-0.816-0.77-1.142c-0.325-0.326-0.704-0.583-1.14-0.773c-0.435-0.189-0.904-0.285-1.408-0.285l-1.416-0.003
			c-0.504,0-0.973,0.092-1.409,0.281c-0.435,0.188-0.818,0.444-1.148,0.769c-0.332,0.325-0.592,0.705-0.782,1.14
			c-0.189,0.435-0.283,0.905-0.284,1.408l-0.021,12.117c-0.001,0.503,0.093,0.973,0.28,1.408c0.188,0.436,0.447,0.819,0.778,1.149
			c0.329,0.331,0.712,0.592,1.147,0.781c0.435,0.19,0.904,0.285,1.407,0.285l1.417,0.003c0.502,0.001,0.973-0.093,1.408-0.28
			c0.436-0.188,0.815-0.447,1.142-0.777c0.325-0.329,0.583-0.712,0.773-1.147c0.189-0.435,0.283-0.904,0.284-1.408l0.009-4.704
			l-3.603-0.006l0.002-1.936l5.634,0.009L487.581,115.945z"/>
		<path fill="#22629A" d="M503.287,112.905c-0.289,0.671-0.687,1.258-1.19,1.76c-0.505,0.503-1.094,0.898-1.765,1.185
			c-0.672,0.288-1.392,0.432-2.156,0.43l-1.604-0.003c-0.767,0-1.487-0.146-2.163-0.437c-0.677-0.289-1.266-0.686-1.769-1.19
			c-0.503-0.504-0.897-1.093-1.186-1.765c-0.286-0.672-0.431-1.391-0.43-2.156l0.021-12.116c0.001-0.766,0.146-1.484,0.436-2.154
			c0.29-0.671,0.688-1.258,1.191-1.761c0.505-0.502,1.097-0.897,1.772-1.185c0.678-0.288,1.398-0.431,2.165-0.43l1.604,0.003
			c0.767,0.001,1.485,0.147,2.155,0.437c0.672,0.29,1.258,0.687,1.761,1.191c0.502,0.504,0.898,1.092,1.185,1.764
			c0.288,0.671,0.431,1.39,0.43,2.156l-0.021,12.116C503.721,111.515,503.577,112.234,503.287,112.905z M501.714,98.63
			c0-0.503-0.094-0.974-0.281-1.409c-0.188-0.436-0.444-0.816-0.769-1.142c-0.325-0.326-0.705-0.583-1.141-0.773
			c-0.435-0.19-0.903-0.285-1.407-0.286l-1.416-0.002c-0.504-0.001-0.974,0.092-1.409,0.281c-0.437,0.188-0.819,0.444-1.15,0.769
			c-0.33,0.325-0.59,0.705-0.78,1.14c-0.189,0.436-0.284,0.905-0.286,1.408l-0.02,12.116c-0.001,0.504,0.093,0.973,0.281,1.409
			c0.188,0.436,0.446,0.818,0.777,1.149c0.329,0.331,0.711,0.592,1.146,0.781c0.437,0.189,0.905,0.285,1.409,0.285l1.415,0.003
			c0.504,0.001,0.973-0.093,1.41-0.281c0.435-0.188,0.815-0.447,1.142-0.776c0.325-0.33,0.583-0.713,0.773-1.147
			c0.188-0.436,0.284-0.904,0.284-1.408L501.714,98.63z"/>
		<path fill="#22629A" d="M512.938,111.034l0.063,0.834l0.064-0.834l5.033-17.599l2.093,0.003l-6.679,22.553l-1.069-0.002
			l-6.571-22.575l2.108,0.003L512.938,111.034z"/>
	</g>
	<g id="New_D">
		<g id="Layer_9">
			<g>
				<path fill="#22629A" d="M412.417,113.906h5.018c0.503,0,0.973-0.094,1.408-0.282c0.435-0.189,0.818-0.446,1.148-0.771
					c0.33-0.325,0.59-0.706,0.779-1.142c0.188-0.435,0.283-0.904,0.283-1.407V98.837c0-0.503-0.094-0.973-0.283-1.407
					c-0.189-0.436-0.449-0.818-0.779-1.148s-0.713-0.59-1.148-0.779s-0.904-0.283-1.408-0.283h-5.018l-2.029-0.002v-1.933h7.142
					c0.765,0,1.486,0.144,2.163,0.433c0.677,0.288,1.267,0.684,1.77,1.188c0.503,0.503,0.899,1.093,1.188,1.77
					c0.288,0.676,0.432,1.397,0.432,2.163v11.467c0,0.766-0.144,1.483-0.432,2.155c-0.289,0.671-0.685,1.258-1.188,1.762
					c-0.503,0.503-1.093,0.899-1.77,1.188c-0.676,0.288-1.397,0.433-2.163,0.433h-7.142v-1.933"/>
			</g>
		</g>
		<g id="New_bar">
			<rect x="410.388" y="107.607" fill="#22629A" width="2.029" height="8.234"/>
		</g>
		<g id="New_bar_copy_2">
			<rect x="410.388" y="93.285" fill="#22629A" width="2.029" height="8.234"/>
		</g>
		<g id="Bar">
			<rect x="407.286" y="103.548" fill="#22629A" width="8.234" height="2.03"/>
		</g>
		<g display="none">
			<path display="inline" fill="#22629A" d="M422.649,112.458c-0.289,0.672-0.684,1.259-1.188,1.763
				c-0.503,0.503-1.093,0.899-1.77,1.188c-0.677,0.288-1.397,0.433-2.163,0.433h-7.142v-1.933V95.216v-1.932h7.142
				c0.765,0,1.486,0.144,2.163,0.433c0.677,0.288,1.267,0.684,1.77,1.188c0.503,0.503,0.899,1.093,1.188,1.77
				c0.288,0.676,0.432,1.397,0.432,2.163v11.467C423.082,111.07,422.938,111.788,422.649,112.458z M421.053,98.837
				c0-0.503-0.094-0.973-0.283-1.407c-0.189-0.436-0.449-0.818-0.779-1.148s-0.713-0.59-1.148-0.779s-0.904-0.283-1.408-0.283
				h-5.018v18.687h5.018c0.503,0,0.973-0.094,1.408-0.282c0.435-0.189,0.818-0.446,1.148-0.771c0.33-0.325,0.59-0.706,0.779-1.142
				c0.188-0.435,0.283-0.904,0.283-1.407V98.837z"/>
		</g>
	</g>
	<g>
		<g>
			<g>
				<rect id="stripe_63_" x="361.915" y="103.488" fill="#E54520" width="39.33" height="1.848"/>
			</g>
			<g>
				<rect id="stripe_62_" x="361.915" y="93.294" fill="#E54520" width="39.33" height="1.71"/>
			</g>
			<g>
				<rect id="stripe_61_" x="361.915" y="96.715" fill="#E54520" width="39.33" height="1.71"/>
			</g>
			<g>
				<rect id="stripe_60_" x="361.915" y="100.135" fill="#E54520" width="39.33" height="1.71"/>
			</g>
			<g>
				<rect id="stripe_59_" x="361.915" y="106.977" fill="#E54520" width="39.33" height="1.71"/>
			</g>
			<g>
				<rect id="stripe_58_" x="361.915" y="110.398" fill="#E54520" width="39.33" height="1.71"/>
			</g>
			<g>
				<rect id="stripe_57_" x="361.915" y="113.818" fill="#E54520" width="39.33" height="1.711"/>
			</g>
			<rect x="361.915" y="93.294" fill="#22629A" width="18.312" height="12.058"/>
		</g>
	</g>
</g>
</svg>
