<?xml version="1.0" encoding="utf-8"?>
<!--
  - This file is part of StyleBI.
  - Copyright (C) 2024  InetSoft Technology
  -
  - This program is free software: you can redistribute it and/or modify
  - it under the terms of the GNU Affero General Public License as published by
  - the Free Software Foundation, either version 3 of the License, or
  - (at your option) any later version.
  -
  - This program is distributed in the hope that it will be useful,
  - but WITHOUT ANY WARRANTY; without even the implied warranty of
  - MERCHANTABILITY or FITNESS FOR A PARTICULAR PURPOSE.  See the
  - GNU Affero General Public License for more details.
  -
  - You should have received a copy of the GNU Affero General Public License
  - along with this program.  If not, see <https://www.gnu.org/licenses/>.
  -->

<!-- Generator: Adobe Illustrator 15.1.0, SVG Export Plug-In . SVG Version: 6.00 Build 0)  -->
<!DOCTYPE svg PUBLIC "-//W3C//DTD SVG 1.1//EN" "http://www.w3.org/Graphics/SVG/1.1/DTD/svg11.dtd">
<svg version="1.1" id="Layer_1" xmlns="http://www.w3.org/2000/svg" xmlns:xlink="http://www.w3.org/1999/xlink" x="0px" y="0px"
	 width="30px" height="30px" viewBox="0 0 30 30" enable-background="new 0 0 30 30" xml:space="preserve">
<g>
	<path fill="#EB2E44" d="M15.001,1.808c-7.286,0-13.193,5.907-13.193,13.193c0,7.285,5.907,13.191,13.193,13.191
		c7.285,0,13.191-5.906,13.191-13.191C28.192,7.715,22.286,1.808,15.001,1.808z M15.001,24.716c-5.365,0-9.716-4.349-9.716-9.715
		c0-5.365,4.35-9.716,9.716-9.716c5.364,0,9.715,4.35,9.715,9.716C24.716,20.365,20.367,24.716,15.001,24.716L15.001,24.716z"/>
	<circle fill="#EB2E44" cx="18.286" cy="11.716" r="2.743"/>
	<circle fill="#EB2E44" cx="18.286" cy="18.286" r="2.742"/>
	<circle fill="#EB2E44" cx="11.716" cy="18.286" r="2.742"/>
	<circle fill="#EB2E44" cx="11.716" cy="11.716" r="2.743"/>
</g>
</svg>
