<?xml version="1.0" encoding="utf-8"?>
<!--
  - This file is part of StyleBI.
  -
  - Copyright (c) 2024, InetSoft Technology Corp, All Rights Reserved.
  -
  - The software and information contained herein are copyrighted and
  - proprietary to InetSoft Technology Corp. This software is furnished
  - pursuant to a written license agreement and may be used, copied,
  - transmitted, and stored only in accordance with the terms of such
  - license and with the inclusion of the above copyright notice. Please
  - refer to the file "COPYRIGHT" for further copyright and licensing
  - information. This software and information or any other copies
  - thereof may not be provided or otherwise made available to any other
  - person.
  -->

<!-- Generator: Adobe Illustrator 15.1.0, SVG Export Plug-In . SVG Version: 6.00 Build 0)  -->
<!DOCTYPE svg PUBLIC "-//W3C//DTD SVG 1.1//EN" "http://www.w3.org/Graphics/SVG/1.1/DTD/svg11.dtd">
<svg version="1.1" id="Layer_1" xmlns="http://www.w3.org/2000/svg" xmlns:xlink="http://www.w3.org/1999/xlink" x="0px" y="0px"
	 width="30px" height="30px" viewBox="0 0 30 30" enable-background="new 0 0 30 30" xml:space="preserve">
<g>
	<path fill="#EB2E44" d="M15.001,1.808c-7.286,0-13.193,5.907-13.193,13.193c0,7.285,5.907,13.191,13.193,13.191
		c7.285,0,13.191-5.906,13.191-13.191C28.192,7.715,22.286,1.808,15.001,1.808z M15.001,24.716c-5.365,0-9.716-4.349-9.716-9.715
		c0-5.365,4.35-9.716,9.716-9.716c5.364,0,9.715,4.35,9.715,9.716C24.716,20.365,20.367,24.716,15.001,24.716L15.001,24.716z"/>
	<circle fill="#EB2E44" cx="18.286" cy="11.716" r="2.743"/>
	<circle fill="#EB2E44" cx="18.286" cy="18.286" r="2.742"/>
	<circle fill="#EB2E44" cx="11.716" cy="18.286" r="2.742"/>
	<circle fill="#EB2E44" cx="11.716" cy="11.716" r="2.743"/>
</g>
</svg>
