<?xml version="1.0" encoding="utf-8"?>
<!--
  - This file is part of StyleBI.
  - Copyright (C) 2024  InetSoft Technology
  -
  - This program is free software: you can redistribute it and/or modify
  - it under the terms of the GNU Affero General Public License as published by
  - the Free Software Foundation, either version 3 of the License, or
  - (at your option) any later version.
  -
  - This program is distributed in the hope that it will be useful,
  - but WITHOUT ANY WARRANTY; without even the implied warranty of
  - MERCHANTABILITY or FITNESS FOR A PARTICULAR PURPOSE.  See the
  - GNU Affero General Public License for more details.
  -
  - You should have received a copy of the GNU Affero General Public License
  - along with this program.  If not, see <https://www.gnu.org/licenses/>.
  -->

<!-- Generator: Adobe Illustrator 13.0.0, SVG Export Plug-In . SVG Version: 6.00 Build 14948)  -->
<!DOCTYPE svg PUBLIC "-//W3C//DTD SVG 1.1//EN" "http://www.w3.org/Graphics/SVG/1.1/DTD/svg11.dtd">
<svg version="1.1" id="图层_1" xmlns="http://www.w3.org/2000/svg" xmlns:xlink="http://www.w3.org/1999/xlink" x="0px" y="0px"
	 width="200px" height="60.742px" viewBox="0 0 200 60.742" enable-background="new 0 0 200 60.742" xml:space="preserve">
<g>
	<linearGradient id="SVGID_1_" gradientUnits="userSpaceOnUse" x1="99.9995" y1="0" x2="99.9995" y2="60.7422">
		<stop  offset="0" style="stop-color:#FFFFFF"/>
		<stop  offset="1" style="stop-color:#000000"/>
	</linearGradient>
	<path fill="url(#SVGID_1_)" d="M200,55.585c0,2.847-2.309,5.156-5.157,5.156H5.157C2.309,60.742,0,58.432,0,55.585V5.157
		C0,2.31,2.309,0,5.157,0h189.687C197.691,0,200,2.31,200,5.157V55.585z"/>
	<linearGradient id="SVGID_2_" gradientUnits="userSpaceOnUse" x1="100.0005" y1="57.0552" x2="100.0005" y2="3.687">
		<stop  offset="0" style="stop-color:#FFFFFF"/>
		<stop  offset="1" style="stop-color:#000000"/>
	</linearGradient>
	<path fill="url(#SVGID_2_)" d="M196.638,52.524c0,2.502-2.231,4.531-4.983,4.531H8.346c-2.752,0-4.983-2.029-4.983-4.531V8.218
		c0-2.502,2.231-4.531,4.983-4.531h183.309c2.752,0,4.983,2.029,4.983,4.531V52.524z"/>
	<linearGradient id="SVGID_3_" gradientUnits="userSpaceOnUse" x1="100.0005" y1="53.3521" x2="100.0005" y2="7.3901">
		<stop  offset="0" style="stop-color:#8C8C8C"/>
		<stop  offset="1" style="stop-color:#050505"/>
	</linearGradient>
	<path fill="url(#SVGID_3_)" d="M192.168,49.45c0,2.154-2.128,3.902-4.752,3.902H12.585c-2.625,0-4.752-1.748-4.752-3.902V11.292
		c0-2.154,2.128-3.901,4.752-3.901h174.831c2.625,0,4.752,1.747,4.752,3.901V49.45z"/>
	<linearGradient id="SVGID_4_" gradientUnits="userSpaceOnUse" x1="100.481" y1="50.1509" x2="100.481" y2="9.9624">
		<stop  offset="0" style="stop-color:#3A3A3A"/>
		<stop  offset="0.1585" style="stop-color:#3E3E3E"/>
		<stop  offset="0.3116" style="stop-color:#494949"/>
		<stop  offset="0.4627" style="stop-color:#5D5D5D"/>
		<stop  offset="0.6124" style="stop-color:#787878"/>
		<stop  offset="0.7613" style="stop-color:#9B9B9B"/>
		<stop  offset="0.9075" style="stop-color:#C6C6C6"/>
		<stop  offset="1" style="stop-color:#E5E5E5"/>
	</linearGradient>
	<path opacity="0.5" fill="url(#SVGID_4_)" d="M189.579,46.74c0,1.884-2.057,3.411-4.595,3.411H15.978
		c-2.537,0-4.594-1.527-4.594-3.411V13.374c0-1.884,2.058-3.411,4.594-3.411h169.006c2.538,0,4.595,1.527,4.595,3.411V46.74z"/>
	<text transform="matrix(1.1381 0 0 1 17.9775 46.7163)"><tspan x="0" y="0" fill="#E5E5E5" font-family="'Arial-BoldMT'" font-size="8.1047">0         10        20        30         40         50</tspan><tspan x="146.407" y="-0.414" fill="#E5E5E5" font-family="'Arial-BoldMT'" font-size="6.9469"> </tspan></text>
	<g>
		<rect x="19.503" y="23.125" fill="#E5E5E5" width="1.076" height="10.47"/>
		<rect x="34.045" y="23.125" fill="#E5E5E5" width="1.076" height="5.376"/>
		<rect x="27.404" y="23.125" fill="#E5E5E5" width="1.076" height="5.376"/>
		<rect x="41.258" y="23.125" fill="#E5E5E5" width="1.075" height="5.376"/>
		<rect x="65.99" y="23.125" fill="#E5E5E5" width="1.076" height="5.376"/>
		<rect x="57.746" y="23.125" fill="#E5E5E5" width="1.076" height="5.376"/>
		<rect x="74.119" y="23.125" fill="#E5E5E5" width="1.076" height="5.376"/>
		<rect x="95.416" y="23.125" fill="#E5E5E5" width="1.076" height="5.376"/>
		<rect x="103.316" y="23.125" fill="#E5E5E5" width="1.076" height="5.376"/>
		<rect x="88.431" y="23.125" fill="#E5E5E5" width="1.076" height="5.376"/>
		<rect x="129.88" y="23.125" fill="#E5E5E5" width="1.076" height="5.376"/>
		<rect x="121.063" y="23.125" fill="#E5E5E5" width="1.076" height="5.376"/>
		<rect x="138.239" y="23.125" fill="#E5E5E5" width="1.076" height="5.376"/>
		<rect x="163.313" y="23.125" fill="#E5E5E5" width="1.076" height="5.376"/>
		<rect x="155.642" y="23.125" fill="#E5E5E5" width="1.076" height="5.376"/>
		<rect x="171.328" y="23.125" fill="#E5E5E5" width="1.077" height="5.376"/>
		<rect x="179.787" y="23.125" fill="#E5E5E5" width="1.076" height="10.47"/>
		<rect x="80.821" y="23.125" fill="#E5E5E5" width="1.075" height="10.47"/>
		<rect x="111.209" y="23.125" fill="#E5E5E5" width="1.076" height="10.47"/>
		<rect x="146.708" y="23.125" fill="#E5E5E5" width="1.076" height="10.47"/>
		<rect x="49.086" y="23.125" fill="#E5E5E5" width="1.076" height="10.47"/>
	</g>
	<rect x="18.453" y="19.262" fill="#E5E5E5" width="163.147" height="1.278"/>
	<g>
		<linearGradient id="SVGID_5_" gradientUnits="userSpaceOnUse" x1="122.002" y1="36.0728" x2="122.002" y2="13.3989">
			<stop  offset="0" style="stop-color:#4C0303"/>
			<stop  offset="0.4908" style="stop-color:#A20202"/>
			<stop  offset="1" style="stop-color:#FF0000"/>
		</linearGradient>
		<polygon fill="url(#SVGID_5_)" points="122.001,36.073 118.992,24.736 115.982,13.399 122.001,13.399 128.022,13.399 
			125.012,24.736 		"/>
		<linearGradient id="SVGID_6_" gradientUnits="userSpaceOnUse" x1="121.9395" y1="30.3394" x2="121.9395" y2="13.9858">
			<stop  offset="0" style="stop-color:#3A3A3A"/>
			<stop  offset="0.221" style="stop-color:#3D3D3D"/>
			<stop  offset="0.3757" style="stop-color:#464646"/>
			<stop  offset="0.5101" style="stop-color:#555555"/>
			<stop  offset="0.6331" style="stop-color:#6B6B6B"/>
			<stop  offset="0.7482" style="stop-color:#888888"/>
			<stop  offset="0.8574" style="stop-color:#ABABAB"/>
			<stop  offset="0.9601" style="stop-color:#D3D3D3"/>
			<stop  offset="1" style="stop-color:#E5E5E5"/>
		</linearGradient>
		<polygon opacity="0.4" fill="url(#SVGID_6_)" points="121.939,30.339 119.769,22.163 117.598,13.986 121.939,13.986 
			126.281,13.986 124.11,22.163 		"/>
	</g>
</g>
</svg>
