<?xml version="1.0" encoding="utf-8"?>
<!--
  - This file is part of StyleBI.
  -
  - Copyright (c) 2024, InetSoft Technology Corp, All Rights Reserved.
  -
  - The software and information contained herein are copyrighted and
  - proprietary to InetSoft Technology Corp. This software is furnished
  - pursuant to a written license agreement and may be used, copied,
  - transmitted, and stored only in accordance with the terms of such
  - license and with the inclusion of the above copyright notice. Please
  - refer to the file "COPYRIGHT" for further copyright and licensing
  - information. This software and information or any other copies
  - thereof may not be provided or otherwise made available to any other
  - person.
  -->

<!-- Generator: Adobe Illustrator 13.0.0, SVG Export Plug-In . SVG Version: 6.00 Build 14948)  -->
<!DOCTYPE svg PUBLIC "-//W3C//DTD SVG 1.1//EN" "http://www.w3.org/Graphics/SVG/1.1/DTD/svg11.dtd">
<svg version="1.1" id="图层_1" xmlns="http://www.w3.org/2000/svg" xmlns:xlink="http://www.w3.org/1999/xlink" x="0px" y="0px"
	 width="200px" height="60.742px" viewBox="0 0 200 60.742" enable-background="new 0 0 200 60.742" xml:space="preserve">
<linearGradient id="SVGID_1_" gradientUnits="userSpaceOnUse" x1="99.9995" y1="0" x2="99.9995" y2="60.7422">
	<stop  offset="0" style="stop-color:#FFFFFF"/>
	<stop  offset="1" style="stop-color:#000000"/>
</linearGradient>
<path fill="url(#SVGID_1_)" d="M200,55.585c0,2.847-2.309,5.156-5.157,5.156H5.157C2.309,60.742,0,58.432,0,55.585V5.157
	C0,2.31,2.309,0,5.157,0h189.687C197.691,0,200,2.31,200,5.157V55.585z"/>
<linearGradient id="SVGID_2_" gradientUnits="userSpaceOnUse" x1="100.0005" y1="57.0552" x2="100.0005" y2="3.687">
	<stop  offset="0" style="stop-color:#FFFFFF"/>
	<stop  offset="1" style="stop-color:#000000"/>
</linearGradient>
<path fill="url(#SVGID_2_)" d="M196.638,52.524c0,2.502-2.231,4.531-4.983,4.531H8.346c-2.752,0-4.983-2.029-4.983-4.531V8.218
	c0-2.502,2.231-4.531,4.983-4.531h183.309c2.752,0,4.983,2.029,4.983,4.531V52.524z"/>
<linearGradient id="SVGID_3_" gradientUnits="userSpaceOnUse" x1="100.0005" y1="53.3521" x2="100.0005" y2="7.3901">
	<stop  offset="0" style="stop-color:#8C8C8C"/>
	<stop  offset="1" style="stop-color:#050505"/>
</linearGradient>
<path fill="url(#SVGID_3_)" d="M192.168,49.45c0,2.154-2.128,3.902-4.752,3.902H12.585c-2.625,0-4.752-1.748-4.752-3.902V11.292
	c0-2.154,2.128-3.901,4.752-3.901h174.831c2.625,0,4.752,1.747,4.752,3.901V49.45z"/>
<linearGradient id="SVGID_4_" gradientUnits="userSpaceOnUse" x1="100.481" y1="50.1509" x2="100.481" y2="9.9624">
	<stop  offset="0" style="stop-color:#3A3A3A"/>
	<stop  offset="0.1585" style="stop-color:#3E3E3E"/>
	<stop  offset="0.3116" style="stop-color:#494949"/>
	<stop  offset="0.4627" style="stop-color:#5D5D5D"/>
	<stop  offset="0.6124" style="stop-color:#787878"/>
	<stop  offset="0.7613" style="stop-color:#9B9B9B"/>
	<stop  offset="0.9075" style="stop-color:#C6C6C6"/>
	<stop  offset="1" style="stop-color:#E5E5E5"/>
</linearGradient>
<path opacity="0.5" fill="url(#SVGID_4_)" d="M189.579,46.74c0,1.884-2.057,3.411-4.595,3.411H15.978
	c-2.537,0-4.594-1.527-4.594-3.411V13.374c0-1.884,2.058-3.411,4.594-3.411h169.006c2.538,0,4.595,1.527,4.595,3.411V46.74z"/>
<rect x="18.453" y="19.262" fill="#E5E5E5" width="163.147" height="1.278"/>
</svg>
