<?xml version="1.0" encoding="utf-8"?>
<!--
  - This file is part of StyleBI.
  - Copyright (C) 2024  InetSoft Technology
  -
  - This program is free software: you can redistribute it and/or modify
  - it under the terms of the GNU Affero General Public License as published by
  - the Free Software Foundation, either version 3 of the License, or
  - (at your option) any later version.
  -
  - This program is distributed in the hope that it will be useful,
  - but WITHOUT ANY WARRANTY; without even the implied warranty of
  - MERCHANTABILITY or FITNESS FOR A PARTICULAR PURPOSE.  See the
  - GNU Affero General Public License for more details.
  -
  - You should have received a copy of the GNU Affero General Public License
  - along with this program.  If not, see <https://www.gnu.org/licenses/>.
  -->

<!-- Generator: Adobe Illustrator 15.1.0, SVG Export Plug-In . SVG Version: 6.00 Build 0)  -->
<!DOCTYPE svg PUBLIC "-//W3C//DTD SVG 1.1//EN" "http://www.w3.org/Graphics/SVG/1.1/DTD/svg11.dtd">
<svg version="1.1" id="Layer_1" xmlns="http://www.w3.org/2000/svg" xmlns:xlink="http://www.w3.org/1999/xlink" x="0px" y="0px"
	 width="23.182px" height="30px" viewBox="294.409 381 23.182 30" enable-background="new 294.409 381 23.182 30"
	 xml:space="preserve">
<path fill="#3096D5" d="M297.362,398.095l7.139-7.14c0.923-0.915,1.499-2.186,1.499-3.586c0-1.383-0.559-2.637-1.46-3.552
	l-7.139,7.138c-0.927,0.915-1.499,2.182-1.499,3.586C295.902,395.925,296.461,397.18,297.362,398.095z M314.638,393.906l-7.14,7.139
	c-0.922,0.915-1.498,2.187-1.498,3.585c0,1.384,0.559,2.639,1.46,3.554l7.139-7.139c0.923-0.916,1.499-2.188,1.499-3.586
	C316.098,396.075,315.539,394.821,314.638,393.906z M314.595,390.955c0.923-0.915,1.494-2.182,1.494-3.586
	c0-1.383-0.559-2.637-1.46-3.548l-17.228,17.228c-0.923,0.915-1.499,2.188-1.499,3.586c0,1.384,0.559,2.638,1.46,3.549
	L314.595,390.955z"/>
</svg>
