<?xml version="1.0" encoding="UTF-8" standalone="no"?>
<!-- Created with Inkscape (http://www.inkscape.org/) -->

<svg
   version="1.1"
   id="svg2"
   xml:space="preserve"
   width="6666.6665"
   height="3888"
   viewBox="0 0 6666.6665 3888"
   sodipodi:docname="asx9.eps"
   xmlns:inkscape="http://www.inkscape.org/namespaces/inkscape"
   xmlns:sodipodi="http://sodipodi.sourceforge.net/DTD/sodipodi-0.dtd"
   xmlns="http://www.w3.org/2000/svg"
   xmlns:svg="http://www.w3.org/2000/svg"><defs
     id="defs6" /><sodipodi:namedview
     id="namedview4"
     pagecolor="#ffffff"
     bordercolor="#666666"
     borderopacity="1.0"
     inkscape:pageshadow="2"
     inkscape:pageopacity="0.0"
     inkscape:pagecheckerboard="0" /><g
     id="g8"
     inkscape:groupmode="layer"
     inkscape:label="ink_ext_XXXXXX"
     transform="matrix(1.3333333,0,0,-1.3333333,0,3888)"><g
       id="g10"
       transform="scale(0.1)"><path
         d="M 0,29160 H 50000 V 0 H 0 v 29160"
         style="fill:#b3b3b3;fill-opacity:1;fill-rule:evenodd;stroke:none"
         id="path12" /><path
         d="M 6240.16,0 C 9879.28,1623.1 14208.6,4313.9 19369.6,8389.2 13429.6,3926.8 8600.79,1293.4 4669.47,0 h 1.24 C 8632.03,1304.6 13510.4,3978.4 19513,8504.4 c 114,90.2 231.3,186.3 346,277.8 C 11032.1,2424.1 4633.34,21.6016 0,9.5 v 8.1992 C 4649.36,28.8008 11077.3,2447.9 19954.8,8859.2 c 127.3,101.8 255,204.2 383.2,307.7 C 11236.2,2909.4 4697.06,776.203 0,1038.6 v 8 c 4708.29,-263.901 11268.8,1880.6 20408.2,8176.6 135.4,109.4 267.4,213.1 403.9,324.4 C 11446,3433.9 4765.01,1582 0,2106.8 v 8.6 c 4773.43,-526.8 11470.7,1332.5 20866.6,7475.9 132.6,108.2 263.1,212.8 396.8,322.8 C 11652.7,3998.1 4836.73,2445.2 0,3214.3 v 8.3 c 4842.13,-770.9 11669.3,786.5 21300.6,6722.7 123.3,101.5 252.2,212.3 376.4,315.4 C 11857.3,4609.3 4911.53,3359.1 0,4342.8 v 8.4 c 4915.91,-985.5 11870.8,267.6 21708.3,5935.6 130.8,108.6 264.4,221.8 396.3,332.1 C 12083.8,5273.9 5000.47,4324.2 0,5488.1 v 8 c 5004.05,-1165.5 12095.3,-213.6 22131.3,5145.1 136.8,114.5 273.1,228.2 411,344.4 C 12337.6,5996.4 5104.64,5331.8 0,6631.7 v 7.9 c 5107.65,-1301.4 12347.4,-635.4 22565.3,4365.3 141.7,119.5 279.4,232.3 422.2,353.7 C 12619.9,6778 5225.59,6378.4 0,7763.5 v 7.6 c 5228.08,-1386.4 12628.4,-985.7 23007.5,3604.2 139.6,118.8 278.3,235.9 419,356.5 C 12928,7620.9 5362.47,7457.7 0,8870 v 7.6 C 5364.42,7464.2 12934.8,7628 23442.7,11746 c 135.2,115.8 276.1,241.4 412.2,359 C 13264.4,8527.1 5515.47,8560.9 0,9936.9 v 7.4 c 5517.21,-1376.8 13270.4,-1410.4 23869.3,2173.2 139.5,120.5 281.8,245.7 422.5,368 C 13638.9,9496 5688.57,9680.7 0,10955.4 v 7.3 c 5690.12,-1275.4 13644.4,-1459.9 24304.6,1534 143.5,124.8 286.4,248.6 431,375.4 C 14055,10527.4 5881.4,10807.1 0,11913.4 v 7.4 c 5882.94,-1106.9 14060.1,-1386.5 24747.1,961.3 147,128.9 290,250.8 438.1,381.7 C 14512.7,11619.6 6093.58,11933.1 0,12804.7 v 7.3 c 6095.13,-871.9 14517.7,-1185.4 25195.6,460.8 145.9,128.8 290.6,255.6 437.6,386.3 C 15009.2,12770.4 6322.82,13051.2 0,13623.7 v 7.4 c 6324.37,-572.7 15013.9,-853.6 25642.2,36.2 142.3,126.5 290.6,263.4 433.9,391.7 C 15542.3,13977 6567.23,14155.1 0,14367.6 v 7.4 c 6568.86,-212.6 15546.9,-390.7 26084.4,-308.5 145.6,130.4 294.1,265.7 440.8,397.9 C 16117.6,15236 6827.53,15238.8 0,15035.2 v 7.3 c 6829.25,203.7 16122,200.8 26532.7,-571.2 148.8,134.1 297,267.3 446.8,403.3 C 16732.8,16543.8 7102.24,16297.8 0,15626.9 v 7.4 c 7104.03,671 16737.2,916.9 26986.6,-753.4 151.6,137.7 299.2,268.6 451.9,408.1 C 17387.3,17897 7389.61,17329.1 0,16145 v 7.5 c 7391.38,1184.2 17391.5,1752 27445.1,-857.6 151.5,138.5 300.7,273 453.3,413.4 C 18076.4,19291.8 7687.12,18329.9 0,16592.4 v 7.6 c 7688.8,1737.7 18080.4,2699.3 27904.4,-886.1 147.8,136 302,282.8 451,420.8 C 18795.3,20724.2 7992.53,19298 0,16972.4 v 7.5 c 7994.11,2325.9 18798.9,3752 28361.2,-839.8 2162.9,2002 4431.2,4184.6 6826.7,6588.8 2326.2,2334.6 4588.2,4470 6791.5,6431.1 h 11.1 c -2205.1,-1962.5 -4469.1,-4099.6 -6797.4,-6436.3 -2394.7,-2403.4 -4662.4,-4585.4 -6824.8,-6587 73.5,-35.3 146.8,-70.9 220.3,-105.9 2093.5,1873 4286.8,3915.8 6599.4,6165 2637.2,2564.9 5196.2,4876.9 7681.6,6964.2 h 11.4 c -2487.3,-2088.6 -5048.5,-4402.4 -7687.9,-6969.5 -2311.8,-2248.4 -4504.1,-4290.1 -6597.3,-6163.1 73.8,-35.1 147.7,-69.6 221.2,-106.2 2024.5,1745.4 4141.7,3647.2 6371,5741.5 2991.4,2810.2 5887.4,5296.3 8692.6,7497.3 h 12.1 C 41085.3,26957.7 38187,24469.9 35193.1,21657.3 32964.5,19563.8 30848,17662.4 28824.2,15917.6 c 72,-36.1 143.2,-75.7 215,-112.6 1957,1619 4000.5,3382.6 6148.8,5324.6 3402.1,3075.1 6688.3,5733.2 9863.1,8030.4 h 12.6 c -3177.2,-2298.3 -6466,-4958.3 -9870.7,-8035.9 -2147.6,-1941.3 -4190.5,-3704.5 -6146.7,-5322.8 71.9,-37.1 143.3,-76 215.1,-113.5 1889.4,1492.8 3859.3,3118.6 5926.7,4908.7 3885.4,3364.1 7633.8,6196.1 11243.5,8563.5 h 13.8 C 42832.9,26791.5 39081.6,23957.8 35192.9,20590.9 33126.3,18801.5 31157.1,17176.2 29268.6,15684 c 72,-37.7 144,-75.6 215.9,-113.9 1821.4,1366.6 3717.4,2854.9 5703.7,4493.3 4485.3,3699.7 8804.7,6692.1 12953.9,9096.6 h 14.9 c -4152.3,-2405.3 -8475.1,-5399.5 -12964.1,-9102.3 -1985.3,-1637.6 -3880.6,-3125.4 -5701.2,-4491.4 72.3,-38.4 145,-75 217,-114.4 1753,1240.5 3574.9,2591.5 5479.6,4078.4 5130.8,4005.3 10074.4,7104.4 14811.7,9469 v -8.2 C 45264.1,26626.8 40322.1,23528.5 35192.8,19524.5 33289.1,18038.4 31468.1,16688 29716,15448 c 70.8,-38.9 141.3,-79.6 212,-119.2 1686.2,1115.9 3435.5,2331.1 5260.3,3668.4 5097.8,3735.5 10045.9,6602 14811.7,8762.7 v -8.1 c -4764.4,-2160.4 -9711.1,-5026.1 -14807.3,-8760.6 -1823.9,-1336.5 -3572.3,-2551.1 -5257.5,-3666.5 70.3,-39.5 140.1,-81.3 210.3,-121.4 1619.9,992 3297.1,2072.2 5043,3260.8 5059.5,3444.7 10012.8,6065.8 14811.5,8015.8 v -7.9 c -4797.3,-1949.8 -9749.2,-4570.2 -14807.4,-8014 -1744.7,-1187.9 -3420.9,-2267.5 -5039.9,-3258.9 70.6,-40.3 141,-81 211.3,-121.9 1553.3,868.2 3158.2,1813.6 4824.6,2853.8 5016.2,3131.4 9974.4,5484.9 14811.4,7218 v -7.9 c -4835.8,-1732.7 -9792.6,-4085.8 -14807.5,-7216.4 -1665.2,-1039.4 -3268.9,-1984.2 -4821,-2851.8 70.8,-41.1 141.9,-80.7 212.5,-122.7 1486.2,744.7 3018.2,1555.6 4604.7,2447.7 4965.9,2792.5 9930.7,4869.5 14811.3,6379.5 v -7.7 c -4879.5,-1509.8 -9843.1,-3586.4 -14807.7,-6378.2 -1585.1,-891.4 -3115.8,-1701.5 -4600.7,-2445.7 70,-41.6 139.9,-83.3 209.6,-125.7 1419.9,622.1 2880,1299.4 4387.7,2044.8 4907.8,2426.1 9880.7,4215.7 14811.1,5497.2 v -7.7 c -4929.3,-1281.2 -9901.2,-3070.5 -14807.8,-5496.2 -1506.2,-744.5 -2964.9,-1421.3 -4383.5,-2042.8 68.6,-41.9 136.4,-86.6 204.8,-129 1355.1,500.4 2745,1045.5 4175.6,1645.4 4841.4,2030.2 9823.5,3509.1 14810.9,4557.4 v -7.5 C 45013.5,19833.5 40032.4,18354.8 35191.9,16325 c -1428.8,-599.2 -2817,-1143.6 -4170.5,-1643.5 68.7,-42.7 137.3,-86.3 205.9,-129.7 1289.8,379 2609,792.1 3962.1,1246.9 4765.3,1601.9 9758.3,2758.7 14810.6,3570.4 v -7.5 c -5051.5,-811.5 -10043.8,-1968.3 -14808.3,-3569.9 -1351,-454.1 -2668.1,-866.6 -3956.1,-1245.1 69.1,-43.5 138.5,-86.2 207.4,-130.6 1224,258 2471.7,539.4 3746.7,849.6 4678.4,1138.6 9684.3,1958.1 14810.3,2530.7 v -7.4 c -5125.4,-572.5 -10130.7,-1392 -14808.6,-2530.4 -1272.5,-309.7 -2517.8,-590.6 -3739.4,-848.1 69.2,-44.5 138.9,-87.1 207.9,-132.5 1157.7,137.5 2333.6,288.1 3530.1,454.7 4579.3,637.5 9600.8,1102.7 14810,1435.4 v -7.4 c -5208.8,-332.7 -10230,-797.8 -14809,-1435.4 -1193.7,-166.1 -2366.8,-316.4 -3521.9,-453.6 66,-43.8 131.1,-90.8 197,-135 1094.8,18 2202.6,38.7 3324.4,62.8 4466.9,96.2 9505.9,192.4 14809.5,286.2 v -7.4 c -5303.6,-93.8 -10342.5,-190 -14809.4,-286.2 -1118.3,-24 -2222.6,-44.7 -3314,-62.6 66,-44.5 131.7,-90.3 197.5,-135.4 1031.3,-101.2 2070.3,-209.9 3116.9,-327.8 4339.4,-488.6 9399.3,-776.8 14809,-918.7 v -7.4 c -5410,141.9 -10470.2,430.2 -14809.9,918.8 -1042,117.3 -2076.4,225.6 -3103.3,326.5 66.4,-45.4 133,-90.4 199.2,-136.5 966.5,-219.8 1935.5,-457.1 2905.5,-715.9 4195.4,-1119.4 9280,-1806.2 14808.5,-2178.3 v -7.4 c -5529.2,372.2 -10614.4,1059 -14810.4,2178.6 -963.8,257.1 -1926.6,493 -2887,711.6 68.5,-47.3 137.6,-92.5 205.8,-141 898.1,-336.4 1793.5,-699.8 2683.7,-1096.9 4033.1,-1798.8 9146.8,-2896.8 14807.9,-3491 v -7.4 c -5662.2,594.3 -10776.9,1692.4 -14811,3491.7 -880.7,392.8 -1766.5,752.7 -2655.1,1086.1 59.7,-43.2 118.6,-89 178.3,-132.2 835.8,-454.1 1663.8,-944.3 2480.3,-1480.6 C 39043.8,9536.7 44191.4,8016.1 50000,7211 v -7.4 c -5810.1,805.2 -10959.1,2326.1 -14811.5,4856.4 -801.3,526.3 -1613.8,1008 -2433.7,1455 829.3,-602.9 1643.6,-1260.6 2438.2,-1982.3 3650.8,-3316.2 8838.8,-5268.1 14807,-6272.2 v -7.2 C 44029.9,6257.5 38840,8210 35188,11527.2 c -807.9,733.9 -1636.1,1402.3 -2479.9,2013.4 -145.4,79.7 -290.4,160.8 -436.4,237.4 -164.7,60.7 -329.6,120.2 -494.6,178.9 -164.5,36.4 -328.8,71.1 -493.2,106.1 -174.3,16.5 -348.5,32.9 -522.4,49 -183.9,-2.8 -368.4,-5.6 -551.8,-8.2 -187.8,-20.8 -375.6,-41.5 -562.5,-61.5 -200.1,-39.1 -397.9,-76 -596.2,-113.2 -212.6,-57.4 -423.3,-112.6 -633.9,-167.8 -221.1,-74.4 -442.4,-148.9 -662.1,-221.5 -220.6,-87.5 -443.1,-177.3 -662.1,-262.6 -202,-91 -403,-180.6 -602.6,-268.4 -241.3,-120.9 -477.4,-234.3 -714.3,-348.9 -254.5,-138.7 -505.7,-272.6 -756.7,-406.2 -261.8,-153.3 -523.3,-306.4 -783.1,-456.6 -243,-151.4 -487.7,-305.6 -728,-452.8 -214.3,-141.2 -426.6,-279.2 -637.4,-414.6 -260.5,-180.4 -513.6,-349.1 -767.5,-518.9 -290.9,-209.6 -575.5,-408.9 -860.8,-609.3 -297.8,-223 -592.4,-440.7 -886,-656.9 -282.5,-219.7 -565.4,-440.1 -840.4,-647.4 C 14299.4,4364.5 9927.73,1639.4 6257.71,0 Z M 28362.5,16131.3 c -148.8,-137.8 -302.7,-284.4 -450.3,-420.2 76.5,-27.9 152.9,-56 229.4,-83.6 144.7,128.6 295.3,267.5 441.1,398 -73.4,35 -146.8,70.5 -220.2,105.8 z m -456.3,-425.9 c -152.3,-140 -301.3,-274.5 -452.5,-412.7 79.5,-20.6 159,-41.2 238.5,-61.6 147.9,130.6 294.2,258.4 443.3,390.9 -76.5,27.5 -152.9,55.6 -229.3,83.4 z m -459,-418.6 c -152.5,-139.4 -299.9,-270 -451.3,-407.4 82.4,-13.4 164.7,-26.7 247.1,-40 148.4,130.1 293,253.9 442.5,385.8 -79.5,20.4 -158.9,41 -238.3,61.6 z m -458.3,-413.7 c -149.5,-135.7 -297.4,-268.7 -445.9,-402.6 85.2,-6.3 170.2,-12.5 255.3,-18.8 145.7,126.8 290.8,252.8 437.4,381.4 -82.2,13.3 -164.5,26.6 -246.8,40 z m -453.5,-409.4 c -146.4,-132 -294.5,-267 -439.9,-397.2 87.9,0.7 175.5,1.4 263.4,2 142.7,123.4 288,251.3 431.6,376.4 -85.1,6.3 -170,12.5 -255.1,18.8 z m -448.1,-404.6 c -143,-128 -291,-264.5 -433,-390.8 90.6,7.6 180.6,14.7 271.2,22.3 139.4,119.8 284.4,249.1 424.9,370.5 -87.8,-0.7 -175.3,-1.3 -263.1,-2 z m -442,-399 c -146.3,-130.2 -290.7,-256.9 -436,-385.2 92.9,14.3 184.8,27.7 277.7,42.2 143.2,122 284.8,241.4 429.1,365.4 -90.5,-7.6 -180.3,-14.8 -270.8,-22.4 z m -446.3,-394.3 c -147.8,-130.4 -290.2,-251.8 -436.8,-380.4 95.2,20.9 189,40.4 284.4,61.5 144.1,121.9 284.3,237.2 429.6,361.1 -92.7,-14.4 -184.5,-27.8 -277.2,-42.2 z m -448.3,-390.4 c -144.1,-126.4 -286.4,-249.6 -429.5,-374.1 97.4,27.4 192.9,52.5 290.6,80.2 140.8,118.3 280.9,235.3 422.7,355.3 -95.1,-21.1 -188.8,-40.5 -283.8,-61.4 z m -442.4,-385.3 c -140,-121.9 -281.7,-246.4 -420.7,-366.5 99.5,33.6 196.6,64.2 296.5,98.5 136.9,114.1 276.2,232.3 414.2,348.1 -97.4,-27.6 -192.8,-52.8 -290,-80.1 z m -435.1,-379 c -135.5,-117.1 -275.7,-242 -410.2,-357.4 101.7,39.9 200.9,76.5 303.3,117.3 132.1,109.3 269.4,227.3 402.5,338.2 -99.6,-34 -196.4,-64.6 -295.6,-98.1 z m -426.4,-371.5 c -139.2,-119.3 -276.9,-236.2 -415.1,-353.8 102.5,45.4 202.9,87.9 306.1,134.3 137.1,112.4 271.9,221.1 410,335.4 -101.6,-40.4 -199.9,-76.3 -301,-115.9 z m -435,-370.5 c -141.9,-120.6 -278.5,-232.4 -419.2,-351.1 104,50.9 206.4,99.5 311.4,151.8 137.7,112 271.7,217.7 410.5,331.5 -102.3,-45.9 -201.2,-87.3 -302.7,-132.2 z m -442.1,-370.4 c -136.8,-115.3 -271.7,-227.7 -407.4,-341.2 105.8,56.5 210.6,111.6 317.5,169.9 132.1,106.6 263.5,212 396.5,320.1 -103.5,-51.5 -204,-98.5 -306.6,-148.8 z m -434.1,-363.6 c -130.4,-109.1 -262.2,-220.7 -391.7,-328.2 108.3,62.5 216.6,125 326.2,189.7 124.6,99.8 251.1,202.8 376.4,303.9 -104.8,-57 -207,-109.9 -310.9,-165.4 z m -422.9,-354.3 c -122.4,-101.6 -249.1,-210.5 -370.7,-310.6 112.6,69.5 226.9,141.7 341.3,214.1 113.7,90.3 231.7,187.8 346.2,279.5 -106.7,-62.7 -211.4,-122.3 -316.8,-183 z m -407.9,-341.7 c -127.2,-104.8 -252.9,-206.9 -379.2,-310.1 110,72 222.8,148.7 334.8,224 124.6,97.8 245.9,190.1 371.8,289.9 -110,-69.3 -219,-137.1 -327.4,-203.8 z m -433.6,-353.8 c -131.4,-107.2 -258,-206.4 -388.4,-311.8 105.8,73 214.9,151.4 322.8,227.9 122.6,95.5 242,185.7 365.2,282.3 -100.6,-67.2 -200.6,-133.7 -299.6,-198.4 z m -458.6,-368.2 c -116.3,-94 -231.5,-186 -347,-278.7 93.4,67.6 190.6,141.6 285.5,211.6 105.1,81.8 208.5,160.5 313.8,242.6 -84.9,-59.9 -168.8,-118 -252.3,-175.5 z m -453.9,-364.5 c -64.5,-51.6 -130,-104.8 -194.2,-156 95.5,72.4 193.8,149.6 291.2,225.1 -32.8,-23.8 -64.3,-45.5 -97,-69.1 z m 8190.8,6772.1 c 76.7,-27.6 153.5,-54.9 230,-83.9 141.6,121.3 288.7,251.9 431.4,375.1 -73.4,36.6 -147.2,71.1 -221,106.2 -145.6,-130.4 -296,-269 -440.4,-397.4 z m 237.7,-86.9 c 75,-28.6 149.7,-60.2 224.6,-89.3 138.4,113.6 281.9,235.9 421.3,351.4 -71.8,36.8 -143,76.3 -214.9,112.5 -142.5,-123 -289.5,-253.5 -431,-374.6 z m 232.4,-92.4 c 75.2,-29.3 150.1,-59.9 225.2,-89.5 134.8,105.7 274.5,219.4 410.3,326.8 -71.7,37.6 -143.1,76.4 -215,113.4 -139.1,-115.2 -282.4,-237.3 -420.5,-350.7 z m 233.1,-92.7 c 75.3,-29.8 150.6,-59.5 225.9,-89.8 131.3,97.9 267.1,202.9 399.4,302.3 -71.8,38.3 -143.8,76.1 -215.7,113.8 -135.6,-107.2 -275,-220.7 -409.6,-326.3 z m 233.9,-93 c 75.5,-30.2 151.2,-59 226.6,-90.1 127.9,89.8 260,186.2 388.8,277.4 -72,39.4 -144.6,76 -216.8,114.4 -132,-99.2 -267.5,-204 -398.6,-301.7 z m 234.8,-93.3 c 74.1,-30.7 147.9,-63.2 222,-94.4 124.4,81.7 252.5,169.2 377.8,252.2 -70.7,39.6 -141.1,80.2 -211.9,119 -128.6,-91.1 -260.3,-187.2 -387.9,-276.8 z m 230,-97.9 c 73.8,-31.2 147.4,-64 221.1,-95.6 120.6,73.2 244.5,151.6 365.9,226 -70.1,40 -139.8,81.8 -210.1,121.2 -124.9,-82.8 -252.8,-170.1 -376.9,-251.6 z m 229.4,-99.2 c 74,-31.7 147.9,-63.7 221.9,-95.9 116.7,64.6 236.4,133.8 353.9,199.5 -70.3,40.9 -140.6,81.6 -211,121.8 -121,-74.2 -244.6,-152.4 -364.8,-225.4 z m 230.4,-99.6 c 74.2,-32.3 148.7,-63.4 222.9,-96.4 112.9,56 228.5,115.9 342.1,172.9 -70.5,41.9 -141.5,81.4 -212.2,122.5 -117.1,-65.6 -236.5,-134.5 -352.8,-199 z m 231.7,-100.2 c 73.3,-32.7 146.6,-65.7 219.9,-99 109.1,47.3 220.5,97.9 330.3,146 -69.7,42.3 -139.5,83.8 -209.3,125.3 -113.2,-56.8 -228.4,-116.5 -340.9,-172.3 z m 228.7,-103.2 c 72.2,-32.9 144,-68 216.1,-101.3 104.8,38.3 211.7,79.2 317.2,118.2 -68.3,42.2 -136,86.8 -204.3,128.6 -109.3,-48 -220.3,-98.3 -329,-145.5 z m 225.4,-105.7 c 72.4,-33.5 144.6,-67.7 216.8,-101.7 100.7,29.2 203,60.4 304.1,90.2 -68.4,43.1 -136.7,86.6 -205.2,129.2 -104.9,-38.9 -211.3,-79.6 -315.7,-117.7 z m 226.9,-106.4 c 72.6,-34.1 145.5,-67.5 218,-102.3 96.3,20.1 194,41.4 290.8,61.9 -68.6,44.2 -137.7,86.6 -206.6,130 -100.5,-29.6 -202.2,-60.5 -302.2,-89.6 z m 229,-107.5 c 72.7,-34.6 145.6,-68.1 218.1,-103.5 92.2,10.8 185.3,22.3 277.8,33.3 -68.7,45.3 -138.2,87.4 -207.2,131.7 -96,-20.3 -193,-41.5 -288.7,-61.5 z m 229.9,-109.5 c 69.3,-34.2 138.2,-70.8 207.5,-105.2 87.4,1.4 175.5,2.9 263.1,4.4 -65.4,43.8 -129.9,90.4 -195.4,133.8 -91.6,-10.9 -183.9,-22.3 -275.2,-33 z m 221.5,-112.4 c 68.9,-34.4 137.6,-69.9 206.4,-104.7 82.6,-8 165.5,-16.4 248.2,-24.6 -65.1,44.5 -129.9,89.8 -195,133.7 -86.5,-1.5 -173.4,-3 -259.6,-4.4 z m 224.6,-113.9 c 68.6,-34.7 137.2,-69.1 205.7,-104.4 77.2,-17.3 154.5,-35.5 231.8,-53.1 -64.8,45 -129.9,89.1 -194.9,133.5 -80.8,8 -161.9,16.2 -242.6,24 z m 232.9,-118.2 c 70.9,-36.1 142.1,-70.8 212.8,-108 68.3,-25.1 136.5,-51.5 204.7,-77.3 -65.1,46.2 -130.9,89.5 -196.3,134.6 -73.7,16.9 -147.5,34.2 -221.2,50.7 z m 268.4,-136.8 c 112.2,-59.1 223.5,-122.2 335.2,-183.5 -53.6,38.6 -106.8,78.9 -160.5,117.6 -58.2,22 -116.5,44.3 -174.7,65.9 z m -119,52.8 c -59.6,31.1 -119.4,60.6 -179.1,90.8 -65.9,14.8 -132,30.5 -198,45.1 125.8,-44.7 251.4,-89.8 377.1,-135.9 z m -206.3,104.6 c -65.3,33.6 -130.8,66.6 -196.2,99.6 -77.7,7.5 -155.7,15.4 -233.3,22.8 67.9,-23.8 135.8,-47.5 203.6,-71.7 75.3,-16.6 150.6,-33.8 225.9,-50.7 z m -214.4,108.8 c -67.3,34 -134.5,68.8 -201.9,102.5 -84.6,-1.4 -169.6,-2.8 -254,-4.1 70.7,-24.7 141.4,-49.9 212.1,-74.7 81.2,-7.8 162.6,-15.8 243.8,-23.7 z m -216,109.6 c -68.4,34 -136.4,70.2 -204.8,103.9 -90.4,-10.5 -181.3,-21.5 -271.4,-32 72.1,-24.8 144.1,-51.1 216.2,-76.1 86.5,1.4 173.4,2.8 260,4.2 z m -216.6,110 c -72.1,35.1 -144.6,68.1 -216.9,102.5 -95.2,-19.8 -190.9,-40.1 -285.8,-59.7 75.7,-25.1 151.5,-49.5 227.1,-75.2 91.6,10.6 183.8,21.6 275.6,32.4 z m -227.9,107.7 c -72.1,34.5 -144.5,67.7 -216.7,101.7 -100,-29.1 -200.5,-58.7 -300.1,-87.3 75.9,-24.9 151.9,-49.2 227.8,-74.6 96,19.7 192.7,40.1 289,60.2 z m -226.8,106.4 c -71.9,33.8 -143.8,67.8 -215.8,101.2 -104.7,-38.2 -209.8,-77.1 -314,-114.7 75.7,-24.6 151.5,-49.5 227.2,-74.4 100.5,28.8 201.7,58.6 302.6,87.9 z m -225.2,105.6 c -71.8,33.2 -143.4,68.1 -215.4,101 -109.3,-47.4 -219,-95.4 -327.7,-142.1 75.7,-24.2 151.3,-49.8 227,-74.3 104.9,38 210.7,76.9 316.1,115.4 z m -224.2,105.2 c -73.1,33.1 -146.3,66 -219.5,98.6 -113.5,-56.4 -227.2,-113.1 -340.2,-168.6 76.7,-24 153.4,-48.4 230.1,-72.8 109.4,47 219.6,95.1 329.6,142.8 z m -228.3,102.4 c -73.9,32.9 -148.3,63.9 -222.4,96.2 -117.7,-65.2 -235.4,-130.5 -352.4,-194.7 77.7,-23.8 155.4,-46.5 233,-70.7 113.5,55.7 227.7,112.5 341.8,169.2 z m -230.9,99.8 c -73.7,32.2 -147.6,64.2 -221.4,95.8 -121.9,-73.9 -243.6,-147.7 -364.8,-220.6 77.5,-23.3 154.9,-46.8 232.4,-70.5 117.5,64.5 235.6,129.9 353.8,195.3 z m -229.7,99.4 c -73.6,31.5 -147,64.3 -220.8,95.5 -126,-82.7 -251.7,-164.9 -377,-246.4 77.3,-23 154.5,-47.1 231.8,-70.4 121.6,73.2 243.7,147 366,221.3 z m -228.8,99 c -74,31.1 -147.8,63.5 -221.9,94.1 -129.9,-91.3 -259.3,-181.5 -388.5,-271.5 77.4,-22.6 154.8,-46.8 232.2,-69.7 125.7,81.8 251.7,164.1 378.2,247.1 z m -230,97.3 c -75.3,31.1 -151,59.8 -226.4,90 -133.8,-99.6 -266.6,-197.6 -399.5,-295.8 78.7,-22.3 157.5,-43.4 236.3,-66.3 129.6,90.3 259.2,180.6 389.6,272.1 z m -234.4,93.2 c -75.2,30.3 -150.4,60 -225.6,89.7 -137.7,-107.9 -273.9,-213.6 -410.6,-320 78.5,-22 157.1,-43.8 235.6,-66.1 133.4,98.5 266.4,196.5 400.6,296.4 z m -233.5,92.9 c -75,29.6 -150,60.2 -225,89.4 -141.5,-116.2 -281.2,-229.5 -421.8,-344.1 78.4,-21.7 156.8,-44.1 235.2,-66 137.1,106.7 273.5,212.4 411.6,320.7 z m -232.8,92.5 c -74.9,29.1 -149.5,60.6 -224.4,89.2 -145.5,-124.5 -288.6,-245.3 -433,-368.1 78.2,-21.2 156.5,-44.4 234.7,-65.9 140.9,115 280.8,228.2 422.7,344.8 z m -232.1,92.3 c -76.6,29 -153.3,56.1 -230,83.7 -148.7,-132.2 -294.8,-259.9 -442.5,-390.3 79.6,-20.4 159,-40.8 238.5,-62.2 144.8,123.1 288.2,244 434,368.8 z M 31722,13976.3 c -58.9,20.9 -117.8,41.6 -176.8,62.2 -66.6,6.4 -132.7,12.4 -199.2,18.7 125.3,-26.8 250.6,-53.3 376,-80.9 z m -205.5,72.3 c -67.7,23.8 -135.4,48 -203.1,71.5 -81.4,-1.2 -162,-2.3 -243.2,-3.5 71.6,-15.3 143.2,-30.9 214.8,-46.3 77.3,-7.3 154.2,-14.3 231.5,-21.7 z m -223.2,78.6 c -70.6,24.4 -141.2,50.3 -211.8,74.6 -89.7,-10.4 -178.2,-19.9 -267.6,-30.1 74.7,-15.8 149.6,-32.5 224.3,-48.3 85.2,1.3 169.7,2.5 255.1,3.8 z m -227.8,80.2 c -74.9,25.5 -149.9,49.3 -224.9,74.2 -95.5,-19.6 -189.5,-37.8 -284.7,-57.1 78.5,-16 156.8,-31.6 235.4,-48 91.6,10.5 182.4,20.3 274.2,30.9 z m -239.2,78.8 c -75.2,25.2 -150.6,49.3 -225.9,74 -100.7,-28.9 -199.7,-55.8 -300.1,-84.3 79,-15.9 157.9,-31.4 236.9,-47.6 96.7,19.6 192.2,38.1 289.1,57.9 z m -238.4,78.1 c -75.3,24.7 -150.6,49.6 -225.9,74 -105.8,-38.3 -209.5,-73.7 -314.8,-111.4 79,-15.8 158.2,-31.8 237.2,-47.7 101.5,28.7 201.6,55.9 303.5,85.1 z m -237.4,77.7 c -75.3,24.4 -150.6,49.9 -226,74 -110.7,-47.5 -218.9,-91.7 -329,-138.4 79.1,-15.6 158.4,-32.1 237.6,-47.9 106.2,38 210.7,73.8 317.4,112.3 z m -236.7,77.5 c -76.5,24.3 -153,48.5 -229.5,72.4 -115,-56.6 -227.3,-109.1 -341.7,-164.8 80,-15.5 160,-31.2 240,-46.9 110.9,47 219.8,91.5 331.2,139.3 z m -239.9,75.5 c -77.4,24.2 -154.9,46.9 -232.3,70.6 -119.2,-65.4 -235.3,-126.3 -353.8,-190.7 80.9,-15.2 161.7,-29.9 242.6,-45.5 115,55.9 227.9,108.8 343.5,165.6 z m -242.3,73.6 c -77.2,23.6 -154.5,47 -231.7,70.4 -123.3,-74.2 -243.2,-143.3 -365.8,-216.4 80.7,-15.1 161.4,-30.2 242.2,-45.5 119,64.7 235.6,125.8 355.3,191.5 z m -241.3,73.2 c -77.1,23.3 -154.2,47.3 -231.3,70.3 -127.4,-82.9 -251.3,-160.3 -377.9,-242 80.6,-14.8 161.4,-30.3 242,-45.4 123,73.3 243.5,142.7 367.2,217.1 z m -240.6,73.1 c -77.3,22.9 -154.6,46.9 -231.9,69.5 -131.4,-91.5 -258.9,-176.9 -389.5,-267 80.6,-14.6 161.5,-30.4 242.2,-45.2 127.1,81.9 251.4,159.5 379.2,242.7 z m -241.1,72.1 c -78.6,22.8 -157.3,44 -236,66.2 -135,-99.7 -265.9,-192.8 -400,-291.1 81.8,-14.4 163.4,-28.1 245.3,-42.9 131,90.4 258.9,176.1 390.7,267.8 z m -245,68.7 c -78.5,22.3 -156.9,44.2 -235.4,66.1 -138.6,-108 -272.9,-208.7 -410.7,-315.1 81.7,-14.3 163.3,-28.4 245,-42.9 134.5,98.6 265.7,191.9 401.1,291.9 z m -244.3,68.6 c -78.3,21.9 -156.6,44.3 -234.9,65.9 -142.3,-116.1 -280.1,-224.6 -421.5,-339 81.5,-14.1 163.2,-28.6 244.7,-42.8 138.1,106.7 272.7,207.7 411.7,315.9 z m -243.6,68.3 c -78.2,21.6 -156.4,44.7 -234.5,65.9 -146.1,-124.3 -287.4,-240.5 -432.4,-362.9 81.3,-13.8 163,-28.7 244.5,-42.7 141.6,114.7 279.7,223.4 422.4,339.7 z m -243.2,68.3 c -79.4,21.4 -158.9,41.7 -238.3,62.1 -149.3,-131.8 -293.6,-255.2 -441.7,-385.1 82.2,-13.4 164.4,-26.8 246.7,-40.6 145.3,122.7 286.9,239.1 433.3,363.6 z M 31223,14076.1 c -61.9,13.2 -123.8,26.8 -185.6,39.9 -69.3,-1 -138.4,-2 -207.7,-3 131,-12.2 262.1,-24.5 393.3,-36.9 z m -217.6,46.9 c -71.5,15 -143.1,31 -214.5,46.1 -85.1,-9.7 -169.8,-19.1 -254.7,-28.6 75.1,-7 150.6,-14.2 225.7,-21.2 81.1,1.2 162.2,2.4 243.5,3.7 z m -237.2,51 c -77.1,16 -154,31.1 -231,46.8 -92.4,-18.8 -184.4,-37.1 -276.5,-55.5 79.8,-7.2 159.5,-14.2 239.6,-21.5 89.2,10.1 178.4,20 267.9,30.2 z m -249.7,50.5 c -78,16 -155.9,31.4 -233.8,47.1 -98.2,-27.9 -195.8,-55 -293.7,-82.4 81.2,-7.2 162.3,-14.3 243.7,-21.6 94.6,18.9 188.9,37.7 283.8,56.9 z m -249.7,50.3 c -78.4,15.8 -156.8,31.7 -235.2,47.3 -103.4,-36.9 -206.1,-73 -309.1,-109.3 81.9,-7.2 163.8,-14.5 245.8,-21.8 99.5,27.8 198.7,55.5 298.5,83.8 z m -249.2,50.1 c -78.7,15.7 -157.6,32.1 -236.2,47.6 -108.4,-46 -216.1,-90.9 -324,-136.3 82.3,-7.2 165,-14.7 247.4,-21.9 104.2,36.8 208.1,73.3 312.8,110.6 z m -249.1,50.2 c -79.7,15.6 -159.4,31.2 -239.1,46.6 -112.8,-54.9 -224.8,-108.4 -337.1,-162.5 83.1,-7.1 166.3,-14.4 249.4,-21.6 108.9,45.7 217.5,91.1 326.8,137.5 z m -251.3,48.9 c -80.7,15.5 -161.1,30.2 -241.7,45.4 -116.8,-63.5 -232.6,-125.5 -348.8,-188 83.7,-7.1 167.2,-13.8 251.2,-21 113,54.4 225.7,108.4 339.3,163.6 z m -253.2,47.6 c -80.5,15.2 -161,30.3 -241.5,45.3 -120.9,-72 -240.7,-142.4 -360.9,-213.4 83.9,-7 167.7,-13.9 251.6,-21 116.8,62.9 233.3,125.3 350.8,189.1 z m -252.5,47.4 c -80.5,15 -161,30.5 -241.5,45.4 -124.9,-80.6 -248.7,-159.3 -372.9,-238.8 83.8,-6.9 167.9,-14 251.8,-21 120.8,71.3 241.1,142 362.6,214.4 z m -252.1,47.3 c -80.5,14.8 -161.2,30.5 -241.8,45.1 -128.9,-89 -256.6,-176 -384.8,-263.7 83.8,-6.9 168.3,-14.2 252.2,-21.1 124.7,79.8 249,158.8 374.4,239.7 z m -252.2,47 c -81.7,14.7 -163.2,28.4 -244.9,42.7 -132.4,-97 -263.5,-191.8 -395.1,-287.5 84.7,-6.7 169,-13 253.9,-19.9 128.6,88 256.7,175.4 386.1,264.7 z m -255,44.5 c -81.6,14.5 -163.1,28.6 -244.6,42.8 -136,-105.1 -270.5,-207.7 -405.6,-311.3 84.6,-6.6 169.2,-13.2 253.9,-19.9 132,96 263.4,191.1 396.3,288.4 z m -254.5,44.5 c -81.5,14.2 -163,28.7 -244.4,42.7 -139.6,-113 -277.6,-223.4 -416.3,-334.9 84.5,-6.5 169.3,-13.2 254,-19.9 135.4,103.9 270.3,206.8 406.7,312.1 z m -254.1,44.4 c -81.3,14 -163,28.9 -244.2,42.7 -143.3,-120.9 -284.9,-239.2 -427.2,-358.4 84.5,-6.5 169.5,-13.5 254,-20 139.1,111.7 277.5,222.4 417.4,335.7 z m -253.8,44.4 c -82.3,13.8 -164.4,27.2 -246.5,40.5 -146.5,-128.4 -291.2,-254 -436.6,-380.7 84.9,-6.2 169.8,-12.6 255,-19.1 142.6,119.5 284.6,238 428.1,359.3 z m 3201.9,-672.8 c -64.3,5.9 -129,12.2 -193.4,18.1 -71.7,-8 -143.6,-16.2 -215.1,-24.1 135.9,1.9 272.4,4 408.5,6 z m -229.4,21.5 c -76.6,7 -152.8,13.5 -229.2,20.3 -86.6,-17.3 -173.6,-35 -260,-52.1 78,1 155.8,2 234.1,3.1 84.8,9.4 170.1,19.2 255.1,28.7 z m -255.2,22.6 c -79.5,7.2 -158.8,14.1 -238.1,21.1 -94.1,-26.3 -188.7,-53.2 -282.4,-79.2 82.2,1.1 164.1,2.1 246.5,3.2 91,18 182.8,36.7 274,54.9 z m -258.8,23 c -80.9,7.1 -161.8,14.4 -242.6,21.4 -100,-35.3 -200.6,-71.4 -300.2,-106.2 84.1,1.1 168.3,2.2 252.6,3.3 96.3,26.7 193.5,54.4 290.2,81.5 z m -260.3,23 c -81.6,7.2 -163.6,14.6 -245.1,21.7 -105.4,-44.2 -211.5,-89.5 -316.5,-133.1 85.2,1.1 170.9,2.2 256.2,3.4 101.3,35.3 203.7,72.1 305.4,108 z m -260.8,23.1 c -82.7,7.2 -165.4,14.3 -247.9,21.4 -110.1,-53 -221,-107.1 -330.5,-159.3 85.8,1 172.1,2.1 258.1,3.2 106.2,44.1 213.6,89.9 320.3,134.7 z m -262.4,22.6 c -83.6,7.1 -166.7,13.9 -250,20.9 -114.1,-61.4 -229,-124 -342.4,-184.5 86.4,1 172.4,1.9 259.1,2.9 110.4,52.6 222.3,107.3 333.3,160.7 z m -263.5,22 c -83.6,7 -167.1,14 -250.7,20.9 -118,-69.7 -237,-140.9 -354.4,-209.6 86.7,1 173.4,1.9 260.3,2.9 114.2,60.9 230,124 344.8,185.8 z m -263.3,22 c -83.7,7 -167.6,14.1 -251.2,20.9 -122.1,-78 -245.3,-157.7 -366.7,-234.7 87,0.9 174.3,2 261.3,2.9 118.1,69.1 237.9,140.8 356.6,210.9 z m -263.3,22 c -83.7,6.8 -167.9,14.1 -251.6,20.9 -126.2,-86.4 -253.5,-174.6 -378.9,-259.7 87,0.9 174.9,1.9 262,2.9 122,77.3 245.8,157.5 368.5,235.9 z m -263.3,21.9 c -84.7,6.8 -168.8,13.2 -253.3,19.8 -129.7,-94.2 -260.4,-190.3 -389.2,-283.2 87.5,0.9 174.2,1.6 262,2.5 126,85.5 253.8,174.1 380.5,260.9 z m -264.7,20.7 c -84.6,6.7 -169,13.3 -253.4,19.9 -133.1,-102 -267.4,-205.9 -399.6,-306.5 87.5,0.8 174.8,1.6 262.5,2.4 129.3,93.2 260.5,189.7 390.5,284.2 z m -264.5,20.8 c -84.5,6.6 -169.2,13.4 -253.6,19.9 -136.6,-109.7 -274.5,-221.7 -410.2,-329.9 87.6,0.8 175.4,1.6 263,2.4 132.6,101 267.3,205.3 400.8,307.6 z m -264.3,20.8 c -84.5,6.5 -169.4,13.4 -253.7,19.9 -140.2,-117.5 -281.8,-237.4 -421,-353.3 87.5,0.8 175.7,1.7 263.3,2.5 136.1,108.6 274.4,220.8 411.4,330.9 z m -264.3,20.7 c -85,6.5 -169.9,12.9 -254.7,19.1 -143.4,-124.9 -288.2,-252.3 -430.6,-375.5 87.4,0.7 175.3,1.5 263.2,2.2 139.7,116.3 281.6,236.4 422.1,354.2 z m 3078.7,-322.3 c -66.5,-0.9 -132.3,-1.7 -198.4,-2.5 -70.2,-13.9 -141.3,-28.8 -211.3,-42.4 136.2,14.7 273,29.9 409.7,44.9 z m -238.4,-3.1 c -78.5,-1 -156.5,-2 -234.8,-3 -85.8,-23.8 -173.1,-49.2 -258.6,-72.6 81.2,8.5 162.1,16.8 243.7,25.5 82.6,16.2 166.8,33.8 249.7,50.1 z m -263.3,-3.4 c -82.3,-1.1 -164.6,-2.1 -246.7,-3.2 -94.3,-32.9 -190.4,-68.1 -284.3,-100.5 85.7,8.9 171.6,17.9 257.5,26.9 90.4,24.8 182.8,51.7 273.5,76.8 z m -269.6,-3.5 c -84.1,-1.1 -168.7,-2.2 -252.6,-3.3 -100.8,-41.9 -203.8,-86.7 -304.2,-127.9 87.7,9 176.2,18.5 264,27.7 96.7,33.3 195.7,69.6 292.8,103.5 z m -272.2,-3.5 c -85.2,-1.1 -170.5,-2.1 -255.6,-3.2 -106.3,-50.6 -215,-104.7 -320.7,-154.6 88.5,8.9 177.7,18.4 266.4,27.4 102.2,42 207.2,87.7 309.9,130.4 z m -272.9,-3.4 c -86.2,-1 -171.6,-1.9 -257.4,-2.8 -110.4,-58.8 -223.4,-121.6 -333.2,-179.6 88.7,8.7 176.8,17 265.9,25.9 107,50.5 217.1,105.3 324.7,156.5 z m -273.3,-3 c -86.5,-1 -172.8,-1.9 -259.1,-2.9 -114.5,-67 -231.8,-138.4 -345.7,-204.4 89.4,8.6 178.8,17.2 268.5,26.1 110.8,58.4 224.9,121.9 336.3,181.2 z m -273.8,-3.1 c -86.7,-0.9 -173.8,-1.9 -260.3,-2.9 -118.7,-75.1 -240.5,-155.3 -358.4,-229.4 89.9,8.7 180.3,17.6 270.4,26.4 114.6,66.4 232.9,138.5 348.3,205.9 z m -274.3,-3 c -86.8,-0.9 -174.5,-2 -261.3,-2.9 -122.8,-83.4 -249,-172.2 -371.1,-254.4 90.2,8.5 181.6,17.8 271.8,26.5 118.7,74.5 241.3,155.2 360.6,230.8 z m -274.5,-3.1 c -87.6,-0.9 -174.1,-1.6 -261.3,-2.4 -126.3,-91.1 -256.2,-188 -381.8,-277.8 90.1,8.2 179.6,16.1 270.1,24.5 122.6,82.6 249.6,171.9 373,255.7 z m -274,-2.5 c -87.6,-0.9 -174.7,-1.7 -262,-2.5 -129.7,-98.7 -263.3,-203.6 -392.1,-300.9 90.2,8.1 180.2,16.1 270.7,24.4 126.1,90.2 256.6,187.5 383.4,279 z m -274.3,-2.6 c -87.5,-0.8 -175.1,-1.6 -262.5,-2.4 -133.2,-106.3 -270.5,-219.2 -402.7,-324 90.3,8 181,16.2 271.6,24.4 129.4,97.7 263.4,203 393.6,302 z m -274.4,-2.6 c -87.5,-0.7 -175.6,-1.6 -263,-2.4 -136.7,-113.9 -277.7,-234.8 -413.6,-347.1 90.5,7.9 181.8,16.4 272.5,24.5 132.7,105.1 270.4,218.4 404.1,325 z m -274.6,-2.5 c -87.9,-0.8 -175.6,-1.5 -263,-2.2 -140.1,-121.3 -284.6,-249.9 -423.8,-369.5 90.3,7.6 181.2,15.6 271.9,23.5 136.3,112.7 277.7,234 414.9,348.2 z m 2943,-29.5 c -69.3,-7.4 -138.2,-14.5 -207.3,-21.7 -70.7,-19.3 -140.7,-38 -211.2,-57.1 139.3,26 277.9,51.5 418.5,78.8 z m -250.7,-26.3 c -81.8,-8.6 -163.6,-17.2 -245.2,-25.7 -91.4,-31.5 -181.7,-61.7 -272.8,-92.8 83.4,15.6 166.9,31.3 250.5,47.2 89.4,24.1 177.6,46.8 267.5,71.3 z m -276.6,-29 c -85.7,-8.8 -172,-18.2 -257.7,-27 -101.5,-41.7 -201.6,-81.5 -302.7,-122.6 88.4,16.5 177.5,33.6 265.9,50.1 98.5,33.6 195.6,65.4 294.5,99.5 z m -282.9,-29.6 c -87.4,-9 -175.1,-18.1 -262.3,-26.9 -108.7,-51.3 -215.7,-100.1 -323.8,-150.6 89.9,16.5 180.8,33.8 270.9,50.4 105.4,42.8 209.3,83.6 315.2,127.1 z m -283.5,-29 c -88.3,-8.8 -175.6,-17 -263.5,-25.6 -113,-59.6 -224.1,-116.5 -336.4,-175.2 89.6,15.8 178.4,30.9 268.5,47.3 110.8,51.6 220,101 331.4,153.5 z m -282.4,-27.4 c -89.1,-8.8 -177.9,-17.4 -266.8,-26 -117.3,-68 -232.7,-133.1 -349.3,-200.1 91.2,16.1 182.4,32 273.9,48.3 114.4,59.7 227.1,117.1 342.2,177.8 z m -284.1,-27.7 c -89.6,-8.7 -179.6,-17.6 -269.1,-26.2 -121.7,-76.5 -241.3,-149.6 -362.3,-224.9 92.3,16.1 185.1,32.6 277.5,48.9 118.3,67.9 234.9,133.2 353.9,202.2 z m -285.2,-27.8 c -89.9,-8.5 -180.9,-17.8 -270.7,-26.3 -126.2,-85 -250,-166.2 -375.3,-249.8 92.8,16 187,33.2 279.9,49.3 122.4,76.1 243,149.5 366.1,226.8 z m -285.9,-27.8 c -90.2,-8.5 -179.3,-16.2 -269.1,-24.4 -129.7,-92.8 -257.1,-181.8 -386,-273.3 92.2,15.4 183.8,30.3 276.6,46.1 126.4,84.4 251.1,165.9 378.5,251.6 z m -283.4,-25.6 c -90.3,-8.3 -180,-16.3 -270.1,-24.3 -133.1,-100.5 -263.8,-197.1 -396,-296 92.5,15.2 184.6,29.9 277.4,45.5 129.9,92.1 257.9,181.2 388.7,274.8 z m -283.8,-25.6 c -90.4,-8.1 -180.9,-16.3 -271.1,-24.4 -136.6,-108.1 -270.7,-212.2 -406.4,-318.8 92.9,15.2 186,30.5 279.1,45.8 133.2,99.7 264.4,196.2 398.4,297.4 z m -284.4,-25.5 c -90.4,-8.1 -181.7,-16.6 -271.9,-24.5 -140.2,-115.9 -277.9,-227.6 -417,-341.7 93,15 187.1,30.8 280.4,46 136.5,107.2 271.1,211.3 408.5,320.2 z m -284.8,-25.7 c -90.6,-7.9 -181.4,-15.8 -271.4,-23.4 -143.7,-123.5 -284.8,-242.7 -427.4,-364.3 92.7,14.5 186.5,29.8 279.8,44.8 139.9,114.7 278,226.4 419,342.9 z m 2751.3,203.4 c -67.8,-12.8 -135.7,-25.6 -203.5,-38.3 -74.5,-25.4 -147.7,-49.2 -222,-74.3 141.6,37.2 283,74.3 425.5,112.6 z m -256.6,-48.3 c -83.2,-15.6 -167.1,-31.7 -250.3,-47.2 -96.7,-39.3 -191.7,-76.2 -288,-114.9 86,22.6 172.4,45.8 258.3,68.4 93.6,31.5 186.1,61.7 280,93.7 z m -287.9,-54.3 c -87.2,-16 -174.9,-32.5 -261.9,-48.3 -107.2,-50 -212.4,-97 -319,-146.2 90.1,23.2 181.3,47.7 271.5,71.1 103.4,41.5 205.5,81.3 309.4,123.4 z m -290.7,-53.3 c -88.6,-16.1 -176,-31 -264.2,-46.6 -112,-58.5 -221.5,-113.3 -332.9,-170.9 89.5,22.3 178.1,43.6 268.2,66.7 110,50.7 218.4,99.3 328.9,150.8 z m -288.8,-50.9 c -90.6,-16.2 -180.8,-32 -271.1,-47.8 -116.8,-67 -230.7,-129.8 -346.8,-195.8 92.7,23 185.2,45.8 278.3,69.2 113.6,58.7 225.4,114.8 339.6,174.4 z m -292.9,-51.7 c -91.8,-16.1 -183.9,-32.5 -275.4,-48.5 -121.5,-75.6 -239.9,-146.3 -360.6,-220.7 94.4,23.2 189.5,47.2 284.2,70.7 117.7,66.8 233.4,130.6 351.8,198.5 z m -295.3,-52 c -92.4,-16 -186.1,-33.2 -278.4,-49.1 -126.2,-84.1 -248.9,-162.8 -374.3,-245.6 95.5,23.2 192.5,48.2 288.1,71.6 122.1,75.2 241.8,146.8 364.6,223.1 z m -296.8,-52.3 c -92.2,-15.7 -183.3,-30.3 -275,-45.6 -130.2,-92.3 -256.5,-178.4 -385.9,-269.3 94.4,22.3 188.4,44.1 283.3,67.1 126.5,83.5 250.3,162.9 377.6,247.8 z m -291.9,-48.4 c -92.6,-15.4 -184.3,-30.2 -276.5,-45.3 -133.7,-100.1 -263.1,-193.2 -395.9,-291.7 94.7,22 188.8,43.4 284,66 130.2,91.5 257.3,178.1 388.4,271 z m -292.5,-48 c -92.9,-15.2 -185.8,-30.5 -278.4,-45.6 -137.3,-107.9 -270,-208.1 -406.4,-314.3 95.4,22 191,44.3 286.7,66.6 133.5,99.1 263.6,192.7 398.1,293.3 z m -293.8,-48.2 c -93.1,-15.1 -187,-30.9 -279.8,-45.9 -141,-115.6 -277.1,-223 -417.1,-337 95.7,22 192.6,45 288.6,67.1 137,106.8 270.3,207.5 408.3,315.8 z m -294.7,-48.3 c -93.1,-14.9 -186.5,-30.1 -279,-44.5 -144.9,-123.6 -284.5,-238.1 -428.3,-359.9 95.5,21.3 192.4,44.1 288.4,66 140.6,114.4 277.3,222.2 418.9,338.4 z m 2536.6,377.3 c -68.4,-17.9 -137.5,-36.4 -206.2,-54.6 -74.8,-30 -149.5,-59.7 -224.2,-89.4 143.2,47.6 286.9,95.9 430.4,144 z m -265.2,-70.2 c -83.6,-21.6 -167.7,-43.7 -251,-65.1 -99.9,-46 -199.3,-91.4 -298.6,-136.8 86.6,28.4 174.6,58.5 261.4,86.9 95.8,38 192,76.5 288.2,115 z m -289.7,-74.7 c -87.5,-22.3 -173.7,-43.1 -260.7,-64.8 -105.8,-54.6 -211.1,-108.5 -316.5,-162.4 86.9,27.4 172.9,53.7 260.6,82.1 105.3,48 210.9,96.4 316.6,145.1 z m -292,-72.6 c -91.5,-23 -182.5,-45.4 -273.7,-68 -111.4,-63.3 -222.3,-125.7 -333.2,-188.1 93.2,29.3 186.2,58.3 279.9,88.3 108.8,55.6 217.7,111.4 327,167.8 z m -300.5,-74.7 c -93.6,-23.2 -187.7,-46.9 -281.1,-69.8 -116.8,-72 -232.8,-142.7 -349,-213.7 96.3,30.2 193.1,60.9 289.7,91.4 113.2,63.7 226.6,127.5 340.4,192.1 z m -304.9,-75.8 c -94.9,-23.2 -191.1,-47.9 -285.8,-71 -122,-80.6 -243,-159.6 -364.2,-239.1 98,30.4 197.5,62.7 295.6,93.2 117.9,72 235.8,143.9 354.4,216.9 z m -307.5,-76.4 c -94.3,-22.7 -187.3,-44.2 -281,-66.2 -126.4,-88.9 -251.6,-175.8 -377.2,-263.3 96.5,29 192.7,57.8 289.8,87.7 122.6,80.2 245,160.3 368.4,241.8 z m -300.4,-70.7 c -94.7,-22.5 -188.4,-43.8 -282.7,-65.7 -129.9,-96.4 -258.4,-190.5 -387.4,-285.5 96.7,28.6 192.6,56.4 289.8,85.7 126.6,88.3 252.9,175.9 380.3,265.5 z m -301,-70 c -95.3,-22.3 -190.6,-44.4 -285.6,-66.4 -133.5,-104 -265.4,-205.4 -398,-307.9 97.7,28.8 195.5,57.7 293.7,86.9 129.8,95.7 259.2,190.4 389.9,287.4 z m -302.9,-70.5 c -95.8,-22 -192.4,-45 -287.8,-66.9 -137.3,-111.6 -272.8,-220.3 -409.1,-330.4 98.5,28.8 197.9,58.7 296.5,87.7 133.4,103.1 266.1,205.1 400.4,309.6 z m -304.5,-70.7 c -95.7,-21.8 -192.2,-44.3 -287.3,-65.5 -141.4,-119.6 -280.7,-235.9 -421.1,-353.8 98.3,28.1 198.5,58.5 297.3,87.2 137,110.6 273.2,219.9 411.1,332.1 z m 2294.6,493 c -64.9,-21.2 -130.1,-42.7 -194.8,-63.6 -79.1,-36 -159.2,-73.4 -238,-109 143.4,56.4 289.2,115.9 432.8,172.6 z m -251.4,-81.4 c -82.6,-26.7 -163.8,-51.6 -245.6,-77.5 -94.6,-48.3 -190.3,-98.2 -284.4,-145.9 79.7,29.9 158.8,59 239.5,90.2 96,43.3 194,89.3 290.5,133.2 z m -287.5,-90.7 c -91,-29 -181.3,-57.2 -271.9,-85.7 -103.1,-58 -207.4,-117.8 -310.1,-175 92.8,34.9 185.3,69.3 278.7,105.1 100.4,50.7 202.5,104.2 303.3,155.6 z m -305.9,-96.4 c -94.9,-29.9 -190.1,-60.2 -284.7,-89.8 -110.1,-67.2 -221.5,-136.3 -331,-202.5 97.9,36.6 196.2,73.9 294.4,111 106.3,59.2 214.5,121.3 321.3,181.3 z m -313.9,-99 c -96.9,-30.2 -195.4,-62.1 -292.2,-92.1 -116.3,-76.1 -233.8,-154.3 -349.4,-229.3 100.5,37.3 202.4,76.7 303,114.2 112,67.7 226,138.6 338.6,207.2 z m -318.1,-100.3 c -96.1,-29.4 -191,-57.5 -286.3,-86.2 -121.7,-84.7 -244.6,-171.5 -365.6,-255.1 98.7,35.8 197.5,71.7 296.9,108.3 117.3,76.2 236.9,155.7 355,233 z m -308.8,-92.8 c -96.6,-29.1 -192,-56.7 -288.1,-85.2 -125.2,-92.2 -251.6,-186.3 -376.1,-277.2 98.4,35 195.7,68.7 294.8,104.6 122.2,84.4 246.5,172.2 369.4,257.8 z m -308.9,-91.4 c -97.7,-29 -195.1,-57.8 -292.4,-86.5 -129,-99.7 -259.1,-201.2 -387.3,-299.5 100,35.3 199.9,70.6 300.3,106.5 125.5,91.6 253.1,186.5 379.4,279.5 z m -312,-92.3 c -98.3,-28.9 -197.4,-58.8 -295.4,-87.4 -132.9,-107.3 -266.9,-216.4 -398.8,-322.2 101,35.5 202.9,72.1 304.1,107.9 129.1,99 260.2,201.3 390.1,301.7 z m -314.1,-92.9 c -98.5,-28.6 -198.1,-58.6 -295.9,-86.5 -137.4,-115.4 -275.9,-232.7 -412.3,-346.5 101.3,35 205.2,73.2 307,108.9 132.7,106.4 267.5,216.2 401.2,324.1 z m 2082,578.3 c -67.5,-26 -133.8,-50.5 -200.5,-75.6 -66.5,-33.6 -134.8,-69.9 -201.2,-103.2 133.3,58.7 267.2,118.4 401.7,178.8 z m -261.2,-98.5 c -88.1,-33.5 -175.4,-66.1 -263,-99.1 -87.5,-48.7 -177.3,-101.1 -264.3,-149.2 93.9,40.7 187.5,80.8 282.4,122.6 80.6,40.4 164,84.9 244.9,125.7 z m -308.1,-116.1 c -95.4,-35.9 -191,-72.2 -286,-107.8 -99.3,-60 -201.4,-124.4 -300.1,-183.6 100.4,43.4 201.1,87.1 301.9,131 93.5,51.6 190.2,108.2 284.2,160.4 z m -322.8,-121.7 c -98.8,-36.7 -199,-75.5 -297.7,-112.2 -107.8,-69.9 -218.9,-145 -326.2,-214.1 103.5,44.5 208.4,90.8 312,135.4 102.5,61.5 208.8,128.7 311.9,190.9 z m -329.2,-124.1 c -97.7,-35.9 -194.5,-70.6 -291.5,-105.7 -115.5,-79.7 -234.4,-165 -349.2,-243.6 101.7,42.7 204.1,86.4 306.3,129.9 109.9,70.6 223.9,147.8 334.4,219.4 z m -317.8,-115 c -98.3,-35.5 -194.9,-69 -292.5,-103.7 -119.4,-87.2 -242.3,-180.1 -361,-266 99.9,41 198.6,80.3 299.4,122.6 116.4,79.7 237,166.3 354.1,247.1 z m -316.6,-112.2 c -99.7,-35.7 -199.1,-70.8 -298.5,-105.9 -123.5,-94.7 -250.6,-195.4 -373.3,-288.7 102.2,41.7 204.2,83.1 306.8,125.6 120,86.8 244.3,180.8 365,269 z m -320.9,-113.9 c -100.7,-35.6 -202.2,-72.1 -302.7,-107.3 -127.6,-102.3 -259,-210.9 -385.7,-311.7 103.6,42.2 207.9,85.2 311.8,127.8 123.8,94.1 252.1,195.7 376.6,291.2 z m -323.8,-114.8 c -101.3,-35.4 -204.4,-73.1 -305.1,-107.8 -132,-110.2 -268,-226.8 -399.1,-335.4 104.3,41.8 210.8,86.7 315.6,129.2 127.7,101.6 260,211 388.6,314 z m 1859.2,625.5 c -70.1,-30.8 -139.4,-60.7 -209,-90.8 -67.8,-37.4 -133.9,-72.2 -201.5,-109.2 136.4,65.9 272,130.9 410.5,200 z m -279.7,-121.5 c -93.3,-40.5 -186.6,-81.2 -279.6,-121.4 -100.2,-59.9 -197.3,-115.2 -296.8,-174.3 92,44.7 184,89.5 276.2,134.6 100.9,55 198.6,105.2 300.2,161.1 z m -328.5,-142.5 c -100.5,-43.3 -202.3,-88.3 -302.6,-131.4 -114.1,-73.4 -224.4,-140.8 -337.7,-213 100.6,48.8 202.3,98.9 302.9,147.6 113.5,67.2 223.1,128.4 337.4,196.8 z m -342.3,-148.7 c -99.7,-42.3 -198.9,-84.1 -297.9,-125.5 -122.8,-84.1 -241.6,-161.9 -363.5,-244.5 99.6,47.1 200.3,95.8 300.5,143.7 121.4,77.2 238.6,147.8 360.9,226.3 z m -329.1,-138.3 c -99.7,-41.7 -197.3,-80.7 -296.1,-121.2 -125.3,-90.8 -247.1,-175.7 -371.5,-265 97.4,45 193.5,88.1 292,134.5 126.2,85.6 248.4,164.7 375.6,251.7 z m -324.2,-132.8 c -101.8,-42 -203,-83.1 -304.3,-124.6 -128.7,-97.8 -254,-190.3 -381.7,-286.6 101.7,46.8 203,93.1 305.3,140.7 127.8,91.6 252,177.4 380.7,270.5 z m -330,-135.1 c -103.3,-42.2 -207,-85.1 -310,-126.9 -132.3,-105.2 -261.6,-205.5 -392.9,-309 104.3,47.9 209.1,96.3 313.8,144.6 130.4,98.3 257.7,191.4 389.1,291.3 z m -334,-136.7 c -104.2,-42.2 -210.3,-87 -314,-128.6 -136.3,-112.8 -269.6,-220.8 -404.8,-331.7 105.8,48 213.5,98.6 319.7,147.2 133.6,105.4 264.5,206 399.1,313.1 z m 1522.3,584.1 c -65.3,-31.7 -130.8,-63.7 -196.2,-95.6 -70.7,-41.9 -139.7,-81.1 -210.1,-122.5 135.1,72.2 270,144.2 406.3,218.1 z m -285.7,-139.2 c -91.6,-44.1 -184.4,-90.1 -276.2,-134.6 -104.6,-66.5 -206.7,-129 -310.8,-194.7 93.7,50.3 187.8,101.1 281.1,150.9 102.2,59.9 203.1,117.7 305.9,178.4 z m -339,-165.2 c -94.1,-44.8 -187.8,-89.2 -281.2,-133.1 -119.7,-81.2 -236.2,-157.1 -355.2,-237 96.4,50.4 194,102.6 290.9,153.7 115.5,72.7 229.3,142.6 345.5,216.4 z m -324.4,-153.1 c -96.3,-45.2 -190.5,-87.7 -285.8,-131.6 -123.7,-88.6 -243.5,-171.1 -366.3,-258.3 94.6,48 188,94.4 283.8,144.2 123.3,82.8 244.2,161.8 368.3,245.7 z m -323.1,-148.8 c -100.8,-46.8 -200.8,-92.5 -301.1,-138.6 -128.1,-96.6 -251.9,-186.1 -379.2,-281.2 101.7,51.7 202.7,102.5 305,155.1 125.8,89.4 248.6,174 375.3,264.7 z m -334.1,-153.9 c -103.6,-47.7 -207.5,-95.8 -310.7,-143.1 -132.8,-104.6 -260.8,-201.3 -392.6,-304.4 105.5,53.5 211.4,107.4 317.3,161.4 129.5,96.7 255.6,187.9 386,286.1 z m -340.9,-157 c -105.3,-48.1 -212.3,-98.6 -317.2,-146.1 -137.5,-112.8 -269.7,-216.8 -406.1,-327.9 107.8,54.1 217.2,110.7 325.4,165.5 133.5,104.3 263.4,202.5 397.9,308.5 z m 1174.7,494.2 c -64,-34 -128.9,-69.1 -193.5,-104 -69.2,-43.5 -138,-86.4 -207,-129.6 z m -291,-156.3 c -83.7,-43.9 -167,-87.3 -250,-130.2 -109.3,-73.3 -217.8,-145.4 -326.5,-217.7 87.8,50 177.3,102.5 265.5,153.1 103.3,64.4 207.1,129.6 311,194.8 z m -306.3,-158.8 c -92.2,-47.8 -182.4,-92.7 -273.6,-139.1 -114.6,-81.4 -227.9,-160.8 -341.8,-241.1 88.8,49.1 176.6,96.5 266.8,147.6 115.9,77.2 232,154.5 348.6,232.6 z m -319.9,-162.6 c -100,-51.3 -199,-101.3 -298.4,-151.8 -120.3,-89.8 -239.1,-177.2 -358.6,-265.8 100.5,55.5 200.3,110.2 301.6,166.9 118.3,83.4 236.3,166.2 355.4,250.7 z m -338.2,-172 c -104.4,-53.1 -208.8,-106.4 -312.8,-159.1 -125.9,-98.3 -250,-193.7 -375,-290.7 106.4,58.8 212.9,117.5 319.7,176.9 122.6,90.9 244.6,180.7 368.1,272.9 z m -348.3,-177.1 c -106.9,-54 -215.4,-110.3 -322,-163.8 -131.2,-106.7 -260.4,-210.1 -390.8,-315.5 109.7,60.2 220.6,122.2 330.6,183 127.4,98.8 254,196.2 382.2,296.3 z m 804.4,352.1 c -48.4,-27.5 -95.6,-53.4 -142.9,-79.4 -82.7,-55 -166.5,-111.6 -248.9,-166 129.5,80.2 262.1,165 391.8,245.4 z m -221.3,-122.8 c -83.6,-47.2 -165.4,-91.6 -248,-137.2 -98.7,-69.5 -198.3,-140.4 -296.6,-209.2 78.2,46.3 155.8,91.6 235.7,140.3 102,67.3 206.3,138 308.9,206.1 z m -307.8,-170.3 c -97.6,-54.5 -194,-107.4 -290.9,-161 -108.2,-80.1 -217.3,-161.6 -324.9,-240.8 98.7,58.7 196.6,116.2 296.2,176.4 105.7,73.9 213.2,150.6 319.6,225.4 z m -340.2,-188.2 c -104.4,-58 -208.7,-115.7 -312.8,-173.1 -116.1,-90 -232.9,-181.2 -348.3,-270.1 107.2,63.8 214.3,127.2 322,191.8 112.3,82.6 226.2,167.7 339.1,251.4 z m -355.4,-196.7 c -108.3,-59.6 -217.8,-121.1 -325.8,-180.2 -123,-99.4 -246.6,-199.8 -368.9,-297.9 111.7,66.1 224.2,133.5 336.3,200.3 118.7,91.4 239,185.3 358.4,277.8 z m 573.5,268.5 c -65.4,-39.8 -129.2,-77.3 -193.5,-115.2 -63.9,-44.7 -129.5,-92.1 -193.2,-136.3 127.9,82.3 256.9,166.2 386.7,251.5 z m -276.3,-164.6 c -93,-56 -184.5,-109.9 -276.6,-164.7 -86.8,-63.7 -175.8,-131.2 -262.1,-194.3 99.3,62.9 197.9,124.6 298.7,189.7 78.9,54.7 160.7,114 240,169.3 z m -340.1,-202.5 c -103.9,-62.2 -207.4,-123.6 -310.8,-185.1 -100.9,-77.6 -204.4,-159.5 -304.6,-236.1 109.8,69.7 219.1,138.5 329.6,209.4 94,68.5 191.2,142.4 285.8,211.8 z m -363.4,-216.4 c -109.6,-65.1 -219.9,-131.4 -329.1,-195.9 -111.1,-89.2 -225.2,-183.1 -335.7,-271.1 114.9,72.8 229.9,145.7 345.3,219.3 105.1,80.3 213.8,166.4 319.5,247.7 z m 295.9,134.4 c -72.1,-46.4 -143.1,-91.1 -214.4,-136.2 -41.9,-30.5 -84.9,-62.9 -126.6,-93.2 112.9,75.3 225.2,149.5 341,229.4 z m -301.5,-191.5 c -103.7,-66.4 -206.4,-131.2 -309.4,-196.6 -91.7,-69.9 -181.9,-137.4 -273,-206.4 94,63 187.8,125.9 282.5,189.9 101.2,73 197.9,138.8 299.9,213.1 z m -376.8,-239.4 c -111.3,-70.8 -222.7,-141.7 -333.6,-211.8 -111.9,-89.1 -221.3,-173.9 -332.3,-261.4 107.7,72.3 215.3,144.3 323.6,217.7 115.2,86.8 226.2,167 342.3,255.5 z m -178.3,-154.3 c -52.7,-35.4 -105.5,-71 -158.4,-106.5 -56.7,-42.8 -111,-81.7 -167.6,-124.3 108.3,76.3 216.2,152 326,230.8 z m -294.9,-198.4 c -94.3,-63.6 -188.4,-126.7 -282.4,-189.8 -106.2,-83.6 -208,-159.9 -313.6,-242.5 94.6,66.9 189,133.6 284,201.1 104.9,78.6 206.6,151.9 312,231.2 z M 20962,9603 c -49.8,-34.9 -100.2,-70.9 -150.6,-106.7 -53.5,-41.8 -105.6,-81.3 -159.2,-123 103.2,76.4 205.8,151.8 309.8,229.7"
         style="fill:#ffffff;fill-opacity:1;fill-rule:nonzero;stroke:none"
         id="path14" /></g></g></svg>
