<?xml version="1.0" encoding="utf-8"?>
<!--
  - This file is part of StyleBI.
  -
  - Copyright (c) 2024, InetSoft Technology Corp, All Rights Reserved.
  -
  - The software and information contained herein are copyrighted and
  - proprietary to InetSoft Technology Corp. This software is furnished
  - pursuant to a written license agreement and may be used, copied,
  - transmitted, and stored only in accordance with the terms of such
  - license and with the inclusion of the above copyright notice. Please
  - refer to the file "COPYRIGHT" for further copyright and licensing
  - information. This software and information or any other copies
  - thereof may not be provided or otherwise made available to any other
  - person.
  -->

<!-- Generator: Adobe Illustrator 15.1.0, SVG Export Plug-In  -->
<!DOCTYPE svg PUBLIC "-//W3C//DTD SVG 1.1//EN" "http://www.w3.org/Graphics/SVG/1.1/DTD/svg11.dtd" [
	<!ENTITY ns_flows "http://ns.adobe.com/Flows/1.0/">
]>
<svg version="1.1"
	 xmlns="http://www.w3.org/2000/svg" xmlns:xlink="http://www.w3.org/1999/xlink" xmlns:a="http://ns.adobe.com/AdobeSVGViewerExtensions/3.0/"
	 x="0px" y="0px" width="192px" height="192px" viewBox="0 0 192 192" enable-background="new 0 0 192 192" xml:space="preserve">
<defs>
</defs>
<g>
	<defs>
		<rect id="SVGID_1_" width="192" height="192"/>
	</defs>
	<clipPath id="SVGID_2_">
		<use xlink:href="#SVGID_1_"  overflow="visible"/>
	</clipPath>
	<path clip-path="url(#SVGID_2_)" fill="#EE3124" d="M180.322,53.363c-2.024-7.622-7.988-13.624-15.561-15.661
		C151.037,34,96,34,96,34s-55.037,0-68.762,3.702c-7.573,2.037-13.537,8.039-15.561,15.661C8,67.177,8,96,8,96
		s0,28.822,3.677,42.637c2.024,7.622,7.988,13.624,15.561,15.662C40.963,158,96,158,96,158s55.037,0,68.762-3.701
		c7.572-2.038,13.536-8.04,15.561-15.662C184,124.822,184,96,184,96S184,67.177,180.322,53.363"/>
	<polygon clip-path="url(#SVGID_2_)" fill="#FFFFFF" points="78,122.169 78,69.831 124,96.001 	"/>
</g>
</svg>
