<?xml version="1.0" encoding="utf-8"?>
<!--
  - This file is part of StyleBI.
  -
  - Copyright (c) 2024, InetSoft Technology Corp, All Rights Reserved.
  -
  - The software and information contained herein are copyrighted and
  - proprietary to InetSoft Technology Corp. This software is furnished
  - pursuant to a written license agreement and may be used, copied,
  - transmitted, and stored only in accordance with the terms of such
  - license and with the inclusion of the above copyright notice. Please
  - refer to the file "COPYRIGHT" for further copyright and licensing
  - information. This software and information or any other copies
  - thereof may not be provided or otherwise made available to any other
  - person.
  -->

<!-- Generator: Adobe Illustrator 15.1.0, SVG Export Plug-In . SVG Version: 6.00 Build 0)  -->
<!DOCTYPE svg PUBLIC "-//W3C//DTD SVG 1.1//EN" "http://www.w3.org/Graphics/SVG/1.1/DTD/svg11.dtd">
<svg version="1.1" id="Layer_1" xmlns="http://www.w3.org/2000/svg" xmlns:xlink="http://www.w3.org/1999/xlink" x="0px" y="0px"
	 width="36px" height="30px" viewBox="288 381 36 30" enable-background="new 288 381 36 30" xml:space="preserve">
<title>Goldie_Sabaeus_RGB</title>
<path id="_Compound_Path_" fill="#00BD70" d="M317.335,397.394c-0.282,0.001-0.563,0.035-0.837,0.104
	c-1.042-4.098-4.381-7.208-8.542-7.959c-0.186-0.034-0.354-0.059-0.543-0.083l0,0c0.032-1.019,0.077-2.197,1.576-3.256l-0.236-0.597
	c0,0-2.927,0.907-3.258,3.408c-0.145-0.68-1.507-1.533-2.182-1.693l-0.336,0.542c0,0,0.895,0.446,1.113,1.68l0,0
	c-4.16,0.748-7.5,3.856-8.545,7.951c-1.877-0.464-3.774,0.682-4.238,2.557c-0.465,1.876,0.68,3.774,2.556,4.238
	c0.705,0.175,1.447,0.125,2.123-0.141c0.298,0.744,0.68,1.453,1.136,2.113l2.905-1.957l-0.026-0.031
	c-0.767-0.988-1.237-2.441-1.317-3.888c-0.086-1.596,0.303-3.18,1.321-4.111c2.101-1.789,4.391-0.973,5.82,0.742h0.384
	c1.433-1.715,3.726-2.529,5.821-0.742c1.018,0.931,1.408,2.516,1.322,4.111c-0.08,1.446-0.549,2.899-1.318,3.888l-0.025,0.031
	l2.905,1.957c0.457-0.659,0.839-1.369,1.138-2.113c1.797,0.71,3.829-0.171,4.54-1.967c0.71-1.798-0.171-3.83-1.968-4.541
	C318.214,397.477,317.776,397.394,317.335,397.394z M294.644,401.918c-0.57,0-1.032-0.464-1.032-1.033
	c0-0.57,0.462-1.032,1.032-1.032c0.206,0.001,0.408,0.063,0.579,0.179c0.008,0.542,0.045,1.084,0.11,1.622
	c-0.189,0.173-0.437,0.27-0.693,0.271L294.644,401.918z M317.397,401.918c-0.256-0.001-0.499-0.096-0.688-0.268
	c0.063-0.537,0.101-1.078,0.109-1.62c0.472-0.32,1.113-0.198,1.433,0.273c0.115,0.172,0.178,0.375,0.178,0.581
	c0.006,0.568-0.452,1.034-1.021,1.039c-0.004,0-0.006,0-0.01,0L317.397,401.918z"/>
</svg>
