<?xml version="1.0" encoding="utf-8"?>
<!--
  - This file is part of StyleBI.
  -
  - Copyright (c) 2024, InetSoft Technology Corp, All Rights Reserved.
  -
  - The software and information contained herein are copyrighted and
  - proprietary to InetSoft Technology Corp. This software is furnished
  - pursuant to a written license agreement and may be used, copied,
  - transmitted, and stored only in accordance with the terms of such
  - license and with the inclusion of the above copyright notice. Please
  - refer to the file "COPYRIGHT" for further copyright and licensing
  - information. This software and information or any other copies
  - thereof may not be provided or otherwise made available to any other
  - person.
  -->

<!-- Generator: Adobe Illustrator 15.1.0, SVG Export Plug-In . SVG Version: 6.00 Build 0)  -->
<!DOCTYPE svg PUBLIC "-//W3C//DTD SVG 1.1//EN" "http://www.w3.org/Graphics/SVG/1.1/DTD/svg11.dtd">
<svg version="1.1" id="Layer_1" xmlns="http://www.w3.org/2000/svg" xmlns:xlink="http://www.w3.org/1999/xlink" x="0px" y="0px"
	 width="30px" height="30px" viewBox="291 381 30 30" enable-background="new 291 381 30 30" xml:space="preserve">
<title>Symbol Green</title>
<g id="art">
	<path fill="#36A635" d="M313.598,405.462l-2.121,2.149c-0.343,0.374-0.778,0.343-1.121,0l-7.6-7.603v7.072
		c0,0.498-0.281,0.779-0.779,0.779h-3.053c-0.499,0-0.779-0.281-0.779-0.779v-22.182c0-0.499,0.281-0.779,0.779-0.779h3.055
		c0.499,0,0.779,0.281,0.779,0.779v7.261h10.31c0.499,0,0.778,0.281,0.778,0.779v3.083c0,0.499-0.279,0.779-0.778,0.779h-7.01
		l7.54,7.54C313.94,404.683,313.94,405.086,313.598,405.462z"/>
</g>
</svg>
