<?xml version="1.0" encoding="utf-8"?>
<!--
  - This file is part of StyleBI.
  - Copyright (C) 2024  InetSoft Technology
  -
  - This program is free software: you can redistribute it and/or modify
  - it under the terms of the GNU Affero General Public License as published by
  - the Free Software Foundation, either version 3 of the License, or
  - (at your option) any later version.
  -
  - This program is distributed in the hope that it will be useful,
  - but WITHOUT ANY WARRANTY; without even the implied warranty of
  - MERCHANTABILITY or FITNESS FOR A PARTICULAR PURPOSE.  See the
  - GNU Affero General Public License for more details.
  -
  - You should have received a copy of the GNU Affero General Public License
  - along with this program.  If not, see <https://www.gnu.org/licenses/>.
  -->

<!-- Generator: Adobe Illustrator 15.1.0, SVG Export Plug-In . SVG Version: 6.00 Build 0)  -->
<!DOCTYPE svg PUBLIC "-//W3C//DTD SVG 1.1//EN" "http://www.w3.org/Graphics/SVG/1.1/DTD/svg11.dtd">
<svg version="1.1" id="Layer_1" xmlns="http://www.w3.org/2000/svg" xmlns:xlink="http://www.w3.org/1999/xlink" x="0px" y="0px"
	 width="30px" height="30px" viewBox="291 381 30 30" enable-background="new 291 381 30 30" xml:space="preserve">
<title>Symbol Green</title>
<g id="art">
	<path fill="#36A635" d="M313.598,405.462l-2.121,2.149c-0.343,0.374-0.778,0.343-1.121,0l-7.6-7.603v7.072
		c0,0.498-0.281,0.779-0.779,0.779h-3.053c-0.499,0-0.779-0.281-0.779-0.779v-22.182c0-0.499,0.281-0.779,0.779-0.779h3.055
		c0.499,0,0.779,0.281,0.779,0.779v7.261h10.31c0.499,0,0.778,0.281,0.778,0.779v3.083c0,0.499-0.279,0.779-0.778,0.779h-7.01
		l7.54,7.54C313.94,404.683,313.94,405.086,313.598,405.462z"/>
</g>
</svg>
