<?xml version="1.0" encoding="utf-8"?>
<!--
  - This file is part of StyleBI.
  - Copyright (C) 2024  InetSoft Technology
  -
  - This program is free software: you can redistribute it and/or modify
  - it under the terms of the GNU Affero General Public License as published by
  - the Free Software Foundation, either version 3 of the License, or
  - (at your option) any later version.
  -
  - This program is distributed in the hope that it will be useful,
  - but WITHOUT ANY WARRANTY; without even the implied warranty of
  - MERCHANTABILITY or FITNESS FOR A PARTICULAR PURPOSE.  See the
  - GNU Affero General Public License for more details.
  -
  - You should have received a copy of the GNU Affero General Public License
  - along with this program.  If not, see <https://www.gnu.org/licenses/>.
  -->

<!-- Generator: Adobe Illustrator 13.0.1, SVG Export Plug-In . SVG Version: 6.00 Build 14948)  -->
<!DOCTYPE svg PUBLIC "-//W3C//DTD SVG 1.0//EN" "http://www.w3.org/TR/2001/REC-SVG-20010904/DTD/svg10.dtd">
<svg version="1.0" xmlns="http://www.w3.org/2000/svg" xmlns:xlink="http://www.w3.org/1999/xlink" x="0px" y="0px"
	 width="173.355px" height="200px" viewBox="0 0 173.355 200" enable-background="new 0 0 173.355 200" xml:space="preserve">
<g id="Layer_3">
</g>
<g id="Layer_1">
	<rect fill="#A5A5A5" fill-opacity="0" width="173.355" height="200"/>
	<path fill="#999999" stroke="#FFC73C" stroke-width="1.9896" d="M166.351,30.466C155.16,11.406,108.624,4.4,88.488,4.037
		c-0.333-0.043-0.632-0.05-0.89-0.013c-0.313-0.002-0.621-0.003-0.921-0.003c-19-0.048-68.131,6.789-79.672,26.444
		C-0.66,44.736,5.298,63.211,29.313,70.24l38.996,81.045h0.065c-4.813,4.734-7.803,11.323-7.803,18.607
		C60.571,184.312,72.26,196,86.678,196s26.106-11.688,26.106-26.106c0-7.284-2.989-13.873-7.802-18.607h0.92l38.996-81.045
		c0.55-0.205,1.023-0.455,1.453-0.731C168.433,61.999,173.765,44.267,166.351,30.466z"/>
	<g display="none">
		<path display="inline" fill="#FFC73C" d="M145.688,61.615c-1.475,2.892-5.567,3.683-9.23,2.046
			c-31.727-14.24-67.834-14.24-99.56,0c-3.664,1.637-7.756,0.846-9.231-2.046l0,0c-1.473-2.882,0.554-6.943,4.623-8.767
			c34.663-15.558,74.114-15.558,108.777,0C145.134,54.672,147.161,58.733,145.688,61.615L145.688,61.615z"/>
		<path display="inline" fill="#FFC73C" d="M145.688,61.615c-1.475,2.892-5.567,3.683-9.23,2.046
			c-31.727-14.24-67.834-14.24-99.56,0c-3.664,1.637-7.756,0.846-9.231-2.046l0,0c-1.473-2.882,0.554-6.943,4.623-8.767
			c34.663-15.558,74.114-15.558,108.777,0C145.134,54.672,147.161,58.733,145.688,61.615L145.688,61.615z"/>
	</g>
	<path fill="#FFC73C" d="M137.135,51.009c-31.065-12.49-65.73-13.865-100.365-0.061l4.728,10.322
		c29.548-11.79,60.72-11.421,91.048,0.029L137.135,51.009z"/>
	<circle fill="#FFC73C" cx="39.889" cy="55.785" r="5.688"/>
	<circle fill="#FFC73C" cx="134.129" cy="55.858" r="5.656"/>
	<g display="none">
		<line display="inline" fill="none" stroke="#000000" x1="89.429" y1="186.086" x2="193.957" y2="-77.424"/>
		<line display="inline" fill="none" stroke="#000000" x1="89.429" y1="186.086" x2="-22.987" y2="-74.158"/>
	</g>
</g>
</svg>
