<?xml version="1.0" encoding="utf-8"?>
<!--
  - This file is part of StyleBI.
  -
  - Copyright (c) 2024, InetSoft Technology Corp, All Rights Reserved.
  -
  - The software and information contained herein are copyrighted and
  - proprietary to InetSoft Technology Corp. This software is furnished
  - pursuant to a written license agreement and may be used, copied,
  - transmitted, and stored only in accordance with the terms of such
  - license and with the inclusion of the above copyright notice. Please
  - refer to the file "COPYRIGHT" for further copyright and licensing
  - information. This software and information or any other copies
  - thereof may not be provided or otherwise made available to any other
  - person.
  -->

<!-- Generator: Adobe Illustrator 11.0, SVG Export Plug-In . SVG Version: 6.0.0 Build 78)  -->
<!DOCTYPE svg PUBLIC "-//W3C//DTD SVG 1.0//EN"    "http://www.w3.org/TR/2001/REC-SVG-20010904/DTD/svg10.dtd" [
	<!ENTITY ns_flows "http://ns.adobe.com/Flows/1.0/">
	<!ENTITY ns_svg "http://www.w3.org/2000/svg">
	<!ENTITY ns_xlink "http://www.w3.org/1999/xlink">
]>
<svg  xmlns="&ns_svg;" xmlns:xlink="&ns_xlink;" xmlns:a="http://ns.adobe.com/AdobeSVGViewerExtensions/3.0/"
	 width="200" height="200" viewBox="0 0 200 200" overflow="visible" enable-background="new 0 0 200 200" xml:space="preserve">
		<g id="Layer_3">
		</g>
		<g id="Layer_1">
			<rect opacity="0" fill="none" width="200" height="200"/> 
			<g>
				
					<linearGradient id="XMLID_3_" gradientUnits="userSpaceOnUse" x1="-224.0879" y1="-389.1118" x2="-224.0879" y2="-382.77" gradientTransform="matrix(1 -7.000000e-004 -7.000000e-004 -1 347.3395 -286.2573)">
					<stop  offset="0" style="stop-color:#FF881F"/>
					<stop  offset="1" style="stop-color:#DF1800"/>
					<a:midPointStop  offset="0" style="stop-color:#FF881F"/>
					<a:midPointStop  offset="0.5" style="stop-color:#FF881F"/>
					<a:midPointStop  offset="1" style="stop-color:#DF1800"/>
				</linearGradient>
				<path fill="url(#XMLID_3_)" d="M148.057,99.82c0,0.961-0.777,1.74-1.738,1.74l-45.592,1.467c-0.961,0-1.74-2.209-1.74-3.17l0,0
					c-0.002-0.959,0.775-3.17,1.734-3.172l45.596,1.398C147.277,98.084,148.057,98.861,148.057,99.82L148.057,99.82z"/>
				
					<linearGradient id="XMLID_4_" gradientUnits="userSpaceOnUse" x1="-214.6201" y1="-362.3833" x2="-214.6201" y2="-363.9404" gradientTransform="matrix(0.9999 0.0139 0.0139 -0.9999 352.2279 -261.1624)">
					<stop  offset="0" style="stop-color:#FFB30A"/>
					<stop  offset="1" style="stop-color:#EC4E08"/>
					<a:midPointStop  offset="0" style="stop-color:#FFB30A"/>
					<a:midPointStop  offset="0.5" style="stop-color:#FFB30A"/>
					<a:midPointStop  offset="1" style="stop-color:#EC4E08"/>
				</linearGradient>
				<path fill="url(#XMLID_4_)" d="M147.174,99.572c-0.004,0.205-0.172,0.371-0.379,0.369l-28.449-0.381
					c-0.205-0.002-0.369-0.174-0.367-0.379l0.012-0.811c0.002-0.205,0.174-0.369,0.377-0.367l27.572,0.383
					c0.207,0.004,0.371,0.172,0.369,0.379L147.174,99.572z"/>
			</g>
		</g>
	</svg>
