<?xml version="1.0" encoding="utf-8"?>
<!--
  - This file is part of StyleBI.
  -
  - Copyright (c) 2024, InetSoft Technology Corp, All Rights Reserved.
  -
  - The software and information contained herein are copyrighted and
  - proprietary to InetSoft Technology Corp. This software is furnished
  - pursuant to a written license agreement and may be used, copied,
  - transmitted, and stored only in accordance with the terms of such
  - license and with the inclusion of the above copyright notice. Please
  - refer to the file "COPYRIGHT" for further copyright and licensing
  - information. This software and information or any other copies
  - thereof may not be provided or otherwise made available to any other
  - person.
  -->

<!-- Generator: Adobe Illustrator 13.0.1, SVG Export Plug-In . SVG Version: 6.00 Build 14948)  -->
<!DOCTYPE svg PUBLIC "-//W3C//DTD SVG 1.0//EN" "http://www.w3.org/TR/2001/REC-SVG-20010904/DTD/svg10.dtd">
<svg version="1.0" id="图层_1" xmlns="http://www.w3.org/2000/svg" xmlns:xlink="http://www.w3.org/1999/xlink" x="0px" y="0px"
	 width="200px" height="131.45px" viewBox="0 0 200 131.45" enable-background="new 0 0 200 131.45" xml:space="preserve">
<g id="Layer_2">
</g>
<g id="Layer_6">
</g>
<g id="Layer_1">
</g>
<g id="Layer_5">
</g>
<g id="Layer_4">
</g>
<g id="Layer_3">
	<rect fill="#D7D7D7" fill-opacity="0" width="200" height="131.45"/>
	<g>
		<path fill="#D7D7D7" d="M169.689,31.45C146.361,9.286,120.287,3.831,100,3.831c-20.472,0-46.362,5.455-69.689,27.619
			C11.558,49.268,3.929,74.083,3.833,90.409c-0.015,2.61,0.162,5.006,0.518,7.118c0.267,1.585,0.634,3.013,1.095,4.257
			c4.246,11.447,16.169,10.909,24.785,9.069c0.891-0.188,1.748-0.394,2.556-0.601h45.148c1.96,9.887,11.09,17.365,22.064,17.365
			c10.976,0,20.104-7.479,22.063-17.365h45.149c0.808,0.207,1.664,0.41,2.556,0.601c8.616,1.84,20.539,2.378,24.785-9.069
			c0.461-1.244,0.828-2.672,1.096-4.257c0.354-2.112,0.533-4.508,0.518-7.118C196.072,74.083,188.441,49.268,169.689,31.45z"/>
	</g>
	<g>
		<path fill="#FFC73C" d="M170.264,30.847C150.814,12.369,127.174,3,100,3s-50.813,9.369-70.262,27.847
			C10.152,49.455,3.094,74.56,3.001,90.402c-0.015,2.644,0.163,5.086,0.529,7.265c0.276,1.637,0.658,3.119,1.136,4.405
			c3.441,9.277,12.101,12.507,25.738,9.597c0.85-0.183,1.721-0.388,2.588-0.607l-0.206,0.025h45.148l-0.816-0.67
			c2.072,10.449,11.695,18.035,22.88,18.035c11.188,0,20.809-7.586,22.88-18.035l-0.815,0.67h45.148l-0.206-0.025
			c0.868,0.221,1.739,0.426,2.587,0.607c13.639,2.91,22.299-0.318,25.739-9.597c0.479-1.288,0.86-2.771,1.136-4.405
			c0.366-2.182,0.545-4.625,0.529-7.265C196.906,74.561,189.85,49.457,170.264,30.847z M195.336,90.413
			c0.016,2.543-0.156,4.891-0.507,6.978c-0.257,1.53-0.612,2.912-1.056,4.104c-3.107,8.383-11.127,11.258-23.832,8.547
			c-0.827-0.179-1.676-0.377-2.522-0.594l-0.101-0.025h-0.104h-45.149h-0.683l-0.133,0.67c-1.917,9.674-10.854,16.695-21.249,16.695
			c-10.394,0-19.33-7.021-21.249-16.695l-0.133-0.67h-0.683H32.787h-0.104l-0.102,0.025c-0.847,0.217-1.696,0.415-2.524,0.594
			c-12.704,2.711-20.722-0.164-23.832-8.547c-0.441-1.189-0.796-2.57-1.055-4.104c-0.351-2.083-0.521-4.431-0.506-6.978
			c0.099-16.742,8.244-41.281,26.219-58.359C50.013,13.878,73.267,4.663,100,4.663c26.732,0,49.986,9.215,69.117,27.39
			C187.093,49.133,195.238,73.67,195.336,90.413z"/>
	</g>
	<g display="none">
		<g display="inline">
			<path fill="#FFC73C" d="M34.653,93.124c3.65-32.918,31.559-58.521,65.452-58.521s61.801,25.603,65.452,58.521h8.498
				c-3.688-37.595-35.388-66.97-73.95-66.97c-38.563,0-70.263,29.375-73.949,66.97H34.653z"/>
			<path fill="none" stroke="#FFC73C" stroke-width="4" d="M34.653,93.124c3.65-32.918,31.559-58.521,65.452-58.521
				s61.801,25.603,65.452,58.521h8.498c-3.688-37.595-35.388-66.97-73.95-66.97c-38.563,0-70.263,29.375-73.949,66.97H34.653z"/>
		</g>
		<g display="inline">
			<circle fill="#FFC73C" cx="30.207" cy="95.174" r="6.243"/>
		</g>
		<g display="inline">
			<circle fill="#FFC73C" cx="170.207" cy="95.174" r="6.243"/>
		</g>
	</g>
</g>
<g>
	<path fill="#FFC73C" stroke="#FFC73C" stroke-width="4" d="M34.916,89.227c4.25-29.5,31.249-55.035,65.142-55.035
		c33.894,0,60.442,25.285,65.275,54.867l8.25-0.416c-5.918-34.584-35.001-62.417-73.525-62.585
		C61.416,25.89,32.083,54.477,26.583,89.061L34.916,89.227z"/>
	
		<rect x="161.589" y="89.558" transform="matrix(0.9996 -0.0275 0.0275 0.9996 -2.4637 4.7449)" fill="#D7D7D7" width="19.164" height="4.666"/>
	
		<rect x="22.17" y="90.058" transform="matrix(-0.9151 -0.4031 0.4031 -0.9151 21.4854 188.1389)" fill="#D7D7D7" width="16.748" height="3.5"/>
	<circle fill="#FFC73C" cx="30.702" cy="89.288" r="6.16"/>
	<circle fill="#FFC73C" cx="169.619" cy="90.038" r="6.035"/>
</g>
</svg>
