<?xml version="1.0" encoding="utf-8"?>
<!--
  - This file is part of StyleBI.
  -
  - Copyright (c) 2024, InetSoft Technology Corp, All Rights Reserved.
  -
  - The software and information contained herein are copyrighted and
  - proprietary to InetSoft Technology Corp. This software is furnished
  - pursuant to a written license agreement and may be used, copied,
  - transmitted, and stored only in accordance with the terms of such
  - license and with the inclusion of the above copyright notice. Please
  - refer to the file "COPYRIGHT" for further copyright and licensing
  - information. This software and information or any other copies
  - thereof may not be provided or otherwise made available to any other
  - person.
  -->

<!-- Generator: Adobe Illustrator 13.0.1, SVG Export Plug-In . SVG Version: 6.00 Build 14948)  -->
<!DOCTYPE svg PUBLIC "-//W3C//DTD SVG 1.0//EN" "http://www.w3.org/TR/2001/REC-SVG-20010904/DTD/svg10.dtd">
<svg version="1.0" id="图层_1" xmlns="http://www.w3.org/2000/svg" xmlns:xlink="http://www.w3.org/1999/xlink" x="0px" y="0px"
	 width="200px" height="200px" viewBox="0 0 200 200" enable-background="new 0 0 200 200" xml:space="preserve">
<g id="Layer_3">
</g>
<g id="Layer_1">
	<g>
		
			<linearGradient id="SVGID_1_" gradientUnits="userSpaceOnUse" x1="-708.3599" y1="-216.8618" x2="-549.5198" y2="-375.7018" gradientTransform="matrix(-1 0 0 -1 -508.3594 -216.8613)">
			<stop  offset="0.0056" style="stop-color:#E3F1F4"/>
			<stop  offset="0.5337" style="stop-color:#76BDCE"/>
			<stop  offset="1" style="stop-color:#2881FF"/>
		</linearGradient>
		<rect fill="url(#SVGID_1_)" fill-opacity="0" width="200" height="200"/>
		
			<linearGradient id="SVGID_2_" gradientUnits="userSpaceOnUse" x1="-695.3906" y1="-229.6191" x2="-585.9779" y2="-339.0319" gradientTransform="matrix(-1 0 0 -1 -508.3594 -216.8613)">
			<stop  offset="0.0056" style="stop-color:#FFF1E6"/>
			<stop  offset="0.5337" style="stop-color:#FFBD5D"/>
			<stop  offset="1" style="stop-color:#FF7730"/>
		</linearGradient>
		<path fill="url(#SVGID_2_)" stroke="#AF5700" stroke-width="0.4514" d="M5.291,30.469c-8.006,23.081,4.221,85.171,48.614,124.306
			c45.224,43.106,106.377,52.384,126.83,31.601c9.303-9.452,10.317-26.61,4.47-45.774l0.002-77.773
			c0.688-0.596,1.36-1.212,2.012-1.872c13.046-13.259,13.046-34.753,0-48.01c-13.048-13.258-34.202-13.258-47.247-0.001
			c-0.875,0.891-1.688,1.819-2.445,2.776H59.746C45.701,11.889,12.921,8.473,5.291,30.469z"/>
		
			<linearGradient id="SVGID_3_" gradientUnits="userSpaceOnUse" x1="-560.1162" y1="-361.896" x2="-579.7107" y2="-342.3015" gradientTransform="matrix(-1 0 0 -1 -508.3594 -216.8613)">
			<stop  offset="0.0056" style="stop-color:#FFF1E6"/>
			<stop  offset="0.5337" style="stop-color:#FFBD5D"/>
			<stop  offset="1" style="stop-color:#FF7730"/>
		</linearGradient>
		<path fill="url(#SVGID_3_)" d="M159.398,182.314c0,0-129.667,22.026-148.984-140.858
			C10.414,41.456,44.727,178.704,159.398,182.314z"/>
		<g>
			<g>
				<path fill="#044FAA" d="M161.843,150.09c0.044,0.611,0.007,1.107-0.108,1.489c-0.116,0.383-0.308,0.685-0.573,0.905
					c-0.267,0.221-0.612,0.347-1.036,0.375c-0.314,0.021-0.593-0.016-0.836-0.108c-0.246-0.097-0.452-0.243-0.619-0.442
					c-0.171-0.197-0.309-0.445-0.417-0.74c-0.108-0.299-0.183-0.7-0.216-1.213c-0.044-0.604-0.006-1.101,0.107-1.48
					c0.114-0.382,0.306-0.686,0.57-0.906c0.27-0.224,0.614-0.35,1.041-0.378c0.564-0.04,1.018,0.108,1.365,0.442
					C161.534,148.434,161.777,149.12,161.843,150.09z M161.105,150.141c-0.06-0.847-0.211-1.402-0.453-1.668
					c-0.243-0.266-0.531-0.387-0.859-0.361c-0.329,0.021-0.598,0.183-0.803,0.479c-0.205,0.3-0.276,0.869-0.219,1.716
					c0.058,0.85,0.211,1.406,0.453,1.67c0.243,0.266,0.532,0.385,0.866,0.36c0.329-0.022,0.585-0.165,0.767-0.425
					C161.082,151.579,161.165,150.988,161.105,150.141z"/>
				<path fill="#044FAA" d="M144.415,146.135l0.709,0.121l-0.685,3.988c0.193-0.114,0.442-0.219,0.744-0.314
					c0.303-0.097,0.567-0.162,0.803-0.195l-0.104,0.604c-0.423,0.095-0.804,0.235-1.141,0.418c-0.337,0.187-0.585,0.376-0.748,0.575
					l-0.457-0.08L144.415,146.135z"/>
				<path fill="#044FAA" d="M143.364,147.334l-0.753-0.1c0.012-0.328-0.063-0.594-0.232-0.795c-0.165-0.201-0.389-0.332-0.669-0.392
					c-0.341-0.069-0.651-0.019-0.933,0.159c-0.281,0.176-0.463,0.451-0.539,0.824c-0.074,0.354-0.021,0.656,0.164,0.908
					c0.183,0.252,0.457,0.416,0.82,0.49c0.228,0.049,0.439,0.047,0.643-0.007s0.371-0.142,0.506-0.264l0.645,0.213l-1.098,2.483
					l-2.852-0.594l0.123-0.596l2.291,0.477l0.592-1.297c-0.391,0.143-0.771,0.172-1.15,0.094c-0.5-0.104-0.893-0.346-1.173-0.724
					s-0.369-0.808-0.269-1.288c0.095-0.459,0.326-0.822,0.699-1.094c0.452-0.333,0.996-0.434,1.635-0.303
					c0.521,0.109,0.92,0.328,1.197,0.652C143.288,146.518,143.404,146.898,143.364,147.334z"/>
				<path fill="#044FAA" d="M129.982,143.859l-0.705-0.162c0.043-0.367-0.002-0.658-0.137-0.873
					c-0.132-0.217-0.334-0.372-0.602-0.467c-0.32-0.114-0.623-0.113-0.911,0.004c-0.288,0.115-0.481,0.316-0.587,0.605
					c-0.1,0.273-0.076,0.537,0.063,0.787c0.141,0.251,0.364,0.432,0.681,0.543c0.129,0.047,0.294,0.081,0.5,0.104l-0.263,0.5
					c-0.043-0.021-0.078-0.035-0.106-0.047c-0.288-0.103-0.569-0.129-0.849-0.076c-0.276,0.05-0.467,0.213-0.564,0.49
					c-0.078,0.221-0.059,0.433,0.061,0.635c0.113,0.205,0.307,0.354,0.57,0.447s0.508,0.1,0.734,0.016
					c0.229-0.084,0.421-0.264,0.574-0.537l0.639,0.348c-0.225,0.371-0.523,0.614-0.896,0.73c-0.369,0.115-0.772,0.097-1.211-0.059
					c-0.301-0.107-0.559-0.265-0.769-0.47c-0.214-0.204-0.354-0.428-0.415-0.673c-0.066-0.246-0.057-0.479,0.023-0.699
					c0.071-0.212,0.205-0.379,0.394-0.507c0.19-0.127,0.431-0.196,0.714-0.21c-0.301-0.184-0.504-0.411-0.607-0.686
					c-0.106-0.272-0.104-0.566,0.008-0.883c0.152-0.425,0.455-0.723,0.912-0.895c0.455-0.17,0.951-0.16,1.488,0.031
					c0.482,0.172,0.84,0.441,1.068,0.813C130.018,143.042,130.081,143.438,129.982,143.859z"/>
				<path fill="#044FAA" d="M125.822,143.635c-0.229,0.566-0.479,0.997-0.748,1.291c-0.272,0.293-0.576,0.482-0.911,0.565
					c-0.336,0.083-0.701,0.045-1.097-0.112c-0.291-0.117-0.527-0.271-0.705-0.463c-0.18-0.191-0.301-0.414-0.366-0.668
					c-0.063-0.253-0.079-0.536-0.052-0.85c0.031-0.313,0.145-0.709,0.334-1.187c0.228-0.563,0.474-0.989,0.742-1.284
					c0.271-0.296,0.573-0.482,0.91-0.568c0.334-0.084,0.703-0.047,1.1,0.111c0.525,0.211,0.871,0.541,1.037,0.993
					C126.264,142.01,126.184,142.73,125.822,143.635z M125.135,143.359c0.316-0.789,0.424-1.356,0.318-1.701
					c-0.104-0.344-0.311-0.578-0.616-0.701c-0.308-0.122-0.616-0.094-0.93,0.084c-0.313,0.18-0.63,0.661-0.943,1.447
					c-0.315,0.791-0.423,1.357-0.317,1.703c0.104,0.344,0.313,0.574,0.625,0.699c0.308,0.125,0.598,0.106,0.869-0.049
					C124.488,144.643,124.82,144.146,125.135,143.359z"/>
				<path fill="#044FAA" d="M112.385,134.466l-0.609,1.077l2.209,1.25l-0.287,0.507l-3.973,1.604l-0.513-0.289l1.651-2.918
					l-0.688-0.391l0.288-0.508l0.688,0.391l0.609-1.078L112.385,134.466z M111.486,136.051l-1.147,2.029l2.743-1.128
					L111.486,136.051z"/>
				<path fill="#044FAA" d="M110.314,134.848l-0.67-0.349c0.121-0.306,0.139-0.582,0.054-0.827c-0.089-0.246-0.255-0.443-0.5-0.597
					c-0.294-0.183-0.604-0.238-0.929-0.167c-0.326,0.068-0.588,0.268-0.789,0.59c-0.188,0.311-0.241,0.611-0.154,0.911
					c0.085,0.299,0.288,0.546,0.605,0.743c0.195,0.119,0.397,0.189,0.604,0.209c0.208,0.021,0.396-0.006,0.563-0.074l0.534,0.419
					l-1.878,1.961l-2.479-1.528l0.318-0.517l1.987,1.228l0.998-1.017c-0.413-0.001-0.782-0.103-1.11-0.306
					c-0.436-0.27-0.722-0.629-0.855-1.078c-0.135-0.45-0.073-0.885,0.185-1.305c0.246-0.396,0.591-0.658,1.032-0.787
					c0.54-0.16,1.084-0.066,1.637,0.272c0.457,0.279,0.756,0.62,0.903,1.021C110.521,134.055,110.503,134.451,110.314,134.848z"/>
				<path fill="#044FAA" d="M94.409,126.643l0.584,0.414c-0.108,0.232-0.154,0.432-0.135,0.594c0.038,0.263,0.165,0.484,0.385,0.666
					c0.176,0.145,0.369,0.229,0.575,0.25c0.266,0.031,0.54-0.021,0.819-0.155c0.278-0.134,0.581-0.397,0.913-0.796
					c-0.281,0.068-0.554,0.068-0.818,0c-0.268-0.072-0.505-0.193-0.717-0.368c-0.371-0.304-0.589-0.685-0.649-1.138
					c-0.066-0.453,0.059-0.873,0.373-1.256c0.204-0.252,0.456-0.436,0.756-0.549c0.3-0.117,0.604-0.145,0.911-0.082
					c0.307,0.062,0.599,0.201,0.87,0.424c0.464,0.381,0.718,0.84,0.763,1.381c0.048,0.543-0.212,1.156-0.778,1.849
					c-0.633,0.774-1.256,1.205-1.868,1.292c-0.53,0.072-1.036-0.083-1.514-0.475c-0.356-0.293-0.578-0.619-0.661-0.982
					C94.137,127.346,94.199,126.988,94.409,126.643z M98.094,126.775c0.137-0.168,0.229-0.364,0.275-0.586
					c0.045-0.223,0.026-0.435-0.054-0.635c-0.079-0.199-0.198-0.365-0.359-0.498c-0.237-0.191-0.506-0.272-0.812-0.246
					c-0.307,0.03-0.579,0.188-0.813,0.479c-0.228,0.275-0.322,0.563-0.284,0.857c0.034,0.297,0.182,0.549,0.434,0.754
					c0.252,0.207,0.531,0.303,0.836,0.285C97.622,127.171,97.882,127.033,98.094,126.775z"/>
				<path fill="#044FAA" d="M95.03,125.393c-0.405,0.459-0.786,0.778-1.139,0.965c-0.354,0.187-0.702,0.261-1.047,0.227
					c-0.343-0.036-0.675-0.193-0.995-0.479c-0.234-0.205-0.403-0.432-0.508-0.67c-0.104-0.242-0.142-0.492-0.119-0.752
					c0.024-0.26,0.103-0.533,0.238-0.815c0.131-0.284,0.37-0.619,0.709-1.003c0.401-0.453,0.778-0.771,1.131-0.959
					c0.354-0.188,0.703-0.264,1.048-0.229c0.345,0.033,0.679,0.191,0.998,0.477c0.425,0.375,0.637,0.803,0.641,1.281
					C95.991,124.014,95.673,124.665,95.03,125.393z M94.476,124.902c0.563-0.637,0.853-1.135,0.869-1.491
					c0.02-0.36-0.097-0.649-0.343-0.868c-0.248-0.219-0.549-0.296-0.905-0.232c-0.354,0.063-0.813,0.408-1.374,1.043
					c-0.564,0.639-0.853,1.138-0.871,1.494c-0.015,0.358,0.101,0.648,0.353,0.871c0.248,0.219,0.526,0.301,0.839,0.246
					C93.436,125.893,93.913,125.538,94.476,124.902z"/>
				<path fill="#044FAA" d="M85.271,118.794l-0.449,0.41l-2.555-2.8l0.367-0.334c0.51,0.039,1.102,0,1.777-0.121
					c0.677-0.12,1.31-0.314,1.897-0.581c0.416-0.187,0.829-0.438,1.236-0.755l0.499,0.548c-0.308,0.269-0.731,0.532-1.275,0.792
					c-0.542,0.261-1.119,0.451-1.733,0.572c-0.613,0.121-1.178,0.17-1.696,0.146L85.271,118.794z"/>
				<path fill="#044FAA" d="M85.166,114.021l-0.532-0.539c0.212-0.252,0.314-0.51,0.305-0.771c-0.006-0.262-0.103-0.501-0.288-0.722
					c-0.226-0.264-0.502-0.411-0.833-0.442c-0.33-0.034-0.643,0.072-0.932,0.317c-0.276,0.234-0.42,0.509-0.43,0.818
					c-0.012,0.313,0.104,0.607,0.347,0.894c0.15,0.177,0.319,0.307,0.511,0.388s0.378,0.114,0.562,0.102l0.378,0.563l-2.392,1.288
					l-1.886-2.218l0.463-0.394l1.513,1.777l1.263-0.659c-0.392-0.127-0.713-0.338-0.963-0.632c-0.331-0.389-0.492-0.818-0.48-1.289
					c0.011-0.47,0.203-0.863,0.579-1.184c0.356-0.305,0.764-0.446,1.224-0.436c0.562,0.018,1.053,0.271,1.476,0.766
					c0.343,0.404,0.524,0.82,0.543,1.25C85.609,113.329,85.467,113.702,85.166,114.021z"/>
				<path fill="#044FAA" d="M76.894,103.059l-0.426-0.547c0.211-0.205,0.323-0.412,0.342-0.621s-0.043-0.422-0.185-0.639
					c-0.12-0.186-0.263-0.322-0.429-0.413s-0.34-0.142-0.524-0.147c-0.183-0.008-0.399,0.027-0.651,0.105
					c-0.253,0.078-0.488,0.188-0.711,0.332c-0.023,0.016-0.057,0.04-0.103,0.073c0.247,0.01,0.492,0.084,0.734,0.224
					c0.239,0.143,0.44,0.333,0.598,0.575c0.264,0.405,0.357,0.834,0.282,1.286c-0.078,0.449-0.33,0.813-0.755,1.092
					c-0.439,0.285-0.889,0.369-1.348,0.25c-0.46-0.119-0.834-0.398-1.12-0.842c-0.208-0.318-0.322-0.659-0.342-1.021
					c-0.021-0.363,0.065-0.705,0.256-1.023c0.191-0.321,0.554-0.653,1.086-1c0.555-0.361,1.039-0.58,1.457-0.657
					c0.416-0.077,0.797-0.037,1.143,0.119c0.348,0.157,0.639,0.417,0.873,0.776c0.25,0.385,0.361,0.76,0.33,1.125
					C77.371,102.471,77.202,102.789,76.894,103.059z M73.375,101.839c-0.305,0.199-0.488,0.448-0.548,0.749
					c-0.06,0.303-0.004,0.581,0.163,0.84c0.175,0.27,0.424,0.438,0.744,0.512c0.323,0.072,0.639,0.011,0.945-0.19
					c0.277-0.181,0.439-0.42,0.49-0.722c0.05-0.301-0.016-0.59-0.195-0.865c-0.183-0.278-0.418-0.452-0.707-0.52
					C73.978,101.574,73.681,101.641,73.375,101.839z"/>
				<path fill="#044FAA" d="M73.588,100.46c-0.523,0.313-0.981,0.507-1.375,0.574c-0.393,0.069-0.748,0.036-1.067-0.101
					c-0.317-0.139-0.586-0.39-0.805-0.754c-0.162-0.27-0.255-0.535-0.281-0.795c-0.024-0.261,0.013-0.511,0.115-0.753
					c0.1-0.24,0.256-0.476,0.473-0.706c0.213-0.229,0.539-0.479,0.98-0.742c0.52-0.313,0.975-0.503,1.367-0.571
					c0.393-0.071,0.749-0.038,1.067,0.098c0.319,0.137,0.59,0.389,0.808,0.756c0.292,0.484,0.365,0.957,0.225,1.418
					C74.923,99.436,74.423,99.96,73.588,100.46z M73.209,99.827c0.729-0.438,1.155-0.824,1.28-1.162s0.104-0.647-0.065-0.931
					c-0.171-0.283-0.434-0.449-0.792-0.496c-0.357-0.048-0.898,0.145-1.625,0.579c-0.73,0.438-1.157,0.825-1.283,1.163
					c-0.123,0.337-0.101,0.647,0.073,0.938c0.17,0.283,0.411,0.445,0.723,0.486C71.918,100.456,72.481,100.263,73.209,99.827z"/>
				<path fill="#044FAA" d="M68.749,85.9l0.298,0.652l-3.684,1.678c0.205,0.098,0.432,0.243,0.68,0.438
					c0.25,0.195,0.452,0.379,0.612,0.552l-0.559,0.256c-0.319-0.297-0.649-0.532-0.989-0.707c-0.34-0.176-0.639-0.272-0.895-0.295
					l-0.192-0.421L68.749,85.9z"/>
				<path fill="#044FAA" d="M66.106,86.263c-0.562,0.237-1.044,0.362-1.441,0.374c-0.398,0.014-0.746-0.068-1.041-0.252
					c-0.295-0.181-0.525-0.469-0.689-0.859c-0.121-0.289-0.177-0.565-0.166-0.827c0.011-0.263,0.085-0.504,0.217-0.729
					c0.137-0.224,0.325-0.435,0.57-0.632c0.244-0.198,0.601-0.396,1.075-0.595c0.559-0.233,1.037-0.358,1.437-0.372
					c0.397-0.015,0.743,0.067,1.04,0.25c0.296,0.18,0.527,0.468,0.693,0.863c0.219,0.521,0.226,0.999,0.021,1.434
					C67.574,85.439,67.003,85.888,66.106,86.263z M65.821,85.583c0.783-0.329,1.26-0.651,1.433-0.968
					c0.171-0.315,0.193-0.626,0.064-0.932c-0.127-0.305-0.364-0.506-0.71-0.604c-0.348-0.098-0.912,0.017-1.691,0.344
					c-0.785,0.329-1.263,0.651-1.434,0.967c-0.17,0.315-0.192,0.629-0.063,0.938c0.127,0.305,0.345,0.499,0.647,0.586
					C64.455,86.021,65.038,85.91,65.821,85.583z"/>
				<path fill="#044FAA" d="M64.592,82.648c-0.571,0.217-1.056,0.323-1.455,0.322c-0.397,0-0.741-0.095-1.031-0.286
					c-0.289-0.189-0.51-0.484-0.661-0.884c-0.11-0.295-0.157-0.57-0.138-0.833c0.021-0.261,0.103-0.501,0.244-0.721
					c0.141-0.219,0.338-0.424,0.589-0.613c0.252-0.188,0.615-0.376,1.095-0.558c0.565-0.215,1.049-0.323,1.448-0.324
					c0.398-0.001,0.742,0.096,1.031,0.285c0.292,0.189,0.514,0.486,0.665,0.887c0.2,0.528,0.192,1.006-0.028,1.436
					C66.086,81.873,65.499,82.303,64.592,82.648z M64.33,81.957c0.794-0.302,1.279-0.607,1.463-0.917
					c0.183-0.312,0.216-0.621,0.097-0.93c-0.115-0.31-0.347-0.519-0.69-0.628c-0.344-0.109-0.91-0.017-1.702,0.285
					c-0.796,0.304-1.283,0.608-1.466,0.919c-0.182,0.31-0.211,0.622-0.094,0.935c0.119,0.309,0.327,0.512,0.629,0.609
					C62.948,82.35,63.536,82.258,64.33,81.957z"/>
				<path fill="#044FAA" d="M62.753,69.079l0.192,0.693L59.05,70.86c0.187,0.128,0.388,0.307,0.604,0.538
					c0.216,0.232,0.388,0.446,0.519,0.642l-0.591,0.165c-0.27-0.344-0.557-0.627-0.867-0.853c-0.312-0.227-0.59-0.37-0.84-0.431
					l-0.123-0.446L62.753,69.079z"/>
				<path fill="#044FAA" d="M61.98,66.082l0.177,0.697l-3.926,0.988c0.184,0.133,0.381,0.316,0.591,0.554
					c0.209,0.237,0.377,0.454,0.502,0.654l-0.596,0.149c-0.26-0.35-0.542-0.641-0.845-0.875c-0.306-0.232-0.58-0.383-0.827-0.45
					l-0.112-0.449L61.98,66.082z"/>
				<path fill="#044FAA" d="M60.503,65.785l-0.219-0.725c0.303-0.126,0.514-0.307,0.628-0.54c0.114-0.235,0.141-0.493,0.079-0.773
					c-0.075-0.337-0.253-0.598-0.529-0.781c-0.276-0.183-0.602-0.233-0.972-0.15c-0.354,0.077-0.608,0.253-0.762,0.522
					c-0.153,0.271-0.19,0.588-0.108,0.951c0.051,0.227,0.141,0.421,0.272,0.582c0.131,0.163,0.28,0.279,0.448,0.351l0.069,0.675
					l-2.714,0.024l-0.633-2.842l0.593-0.132l0.509,2.279l1.425,0.007c-0.287-0.296-0.475-0.633-0.56-1.01
					c-0.11-0.499-0.051-0.954,0.177-1.365c0.229-0.41,0.583-0.669,1.062-0.776c0.457-0.102,0.885-0.039,1.285,0.188
					c0.489,0.275,0.805,0.73,0.947,1.365c0.115,0.519,0.081,0.973-0.102,1.358C61.215,65.38,60.917,65.644,60.503,65.785z"/>
				<path fill="#044FAA" d="M59.462,52.662l0.1,0.713l-4.007,0.557c0.167,0.151,0.344,0.356,0.527,0.614
					c0.181,0.259,0.326,0.493,0.428,0.705l-0.607,0.085c-0.221-0.377-0.471-0.695-0.747-0.962c-0.276-0.266-0.534-0.444-0.771-0.537
					l-0.063-0.46L59.462,52.662z"/>
				<path fill="#044FAA" d="M58.021,52.26l-0.166-0.706c0.35-0.121,0.591-0.29,0.728-0.506c0.135-0.215,0.187-0.463,0.152-0.747
					c-0.037-0.336-0.173-0.609-0.403-0.816c-0.233-0.209-0.501-0.295-0.805-0.26c-0.291,0.033-0.517,0.168-0.68,0.402
					c-0.165,0.236-0.229,0.52-0.189,0.85c0.016,0.135,0.059,0.3,0.127,0.497l-0.563-0.018c-0.001-0.047-0.002-0.086-0.006-0.115
					c-0.033-0.304-0.136-0.57-0.304-0.798c-0.167-0.228-0.396-0.325-0.691-0.291c-0.229,0.027-0.411,0.137-0.543,0.332
					c-0.132,0.194-0.182,0.432-0.15,0.712c0.032,0.278,0.137,0.501,0.311,0.668c0.177,0.168,0.42,0.261,0.735,0.278l-0.031,0.728
					c-0.432-0.039-0.783-0.201-1.052-0.482c-0.268-0.283-0.428-0.655-0.479-1.116c-0.037-0.317-0.009-0.617,0.081-0.898
					c0.089-0.281,0.229-0.504,0.421-0.668c0.191-0.166,0.406-0.262,0.638-0.288c0.223-0.026,0.434,0.019,0.63,0.132
					c0.198,0.115,0.365,0.299,0.505,0.551c0.03-0.352,0.145-0.635,0.345-0.852c0.198-0.215,0.465-0.342,0.796-0.38
					c0.448-0.051,0.85,0.09,1.205,0.426c0.354,0.335,0.563,0.786,0.627,1.353c0.059,0.51-0.027,0.95-0.259,1.317
					C58.771,51.931,58.444,52.163,58.021,52.26z"/>
				<path fill="#044FAA" d="M56.41,48.606c-0.608,0.052-1.105,0.022-1.488-0.089c-0.385-0.109-0.689-0.294-0.916-0.558
					c-0.226-0.263-0.356-0.606-0.394-1.031c-0.026-0.312,0.006-0.591,0.098-0.838c0.091-0.245,0.234-0.454,0.432-0.626
					c0.195-0.171,0.44-0.313,0.735-0.428c0.293-0.114,0.696-0.191,1.206-0.236c0.605-0.052,1.101-0.023,1.483,0.085
					c0.385,0.109,0.689,0.295,0.917,0.557c0.227,0.263,0.358,0.608,0.393,1.035c0.051,0.562-0.091,1.02-0.419,1.371
					C58.06,48.271,57.38,48.521,56.41,48.606z M56.347,47.868c0.848-0.072,1.401-0.231,1.662-0.481
					c0.26-0.246,0.378-0.536,0.348-0.864c-0.028-0.329-0.192-0.594-0.492-0.795c-0.302-0.199-0.873-0.263-1.718-0.19
					c-0.848,0.073-1.402,0.233-1.662,0.482c-0.26,0.248-0.377,0.539-0.347,0.872c0.029,0.329,0.173,0.581,0.438,0.757
					C54.91,47.868,55.501,47.942,56.347,47.868z"/>
			</g>
		</g>
		
			<linearGradient id="SVGID_4_" gradientUnits="userSpaceOnUse" x1="-610.4458" y1="-369.2388" x2="-621.0187" y2="-251.006" gradientTransform="matrix(-1 0 0 -1 -508.3594 -216.8613)">
			<stop  offset="0.0056" style="stop-color:#FFEBB8"/>
			<stop  offset="1" style="stop-color:#F5C362"/>
		</linearGradient>
		<path display="none" fill="url(#SVGID_4_)" d="M162.41,157.314v-0.027c0.093,0.003,0.188,0.014,0.279,0.014
			c4.877,0,8.828-4.017,8.828-8.971s-3.951-8.971-8.828-8.971c-0.094,0-0.188,0.011-0.279,0.014v-0.117
			c-55.457-0.16-100.437-44.825-101.113-100.16c0.056-0.409,0.097-0.823,0.097-1.249c0-5.002-4.057-9.06-9.061-9.06
			s-9.06,4.058-9.06,9.06h-0.052C43.23,103.73,96.563,157.152,162.41,157.314z"/>
	</g>
</g>
<linearGradient id="SVGID_5_" gradientUnits="userSpaceOnUse" x1="111.3027" y1="161.5352" x2="99.7191" y2="32.0003">
	<stop  offset="0.0056" style="stop-color:#FFEBB8"/>
	<stop  offset="1" style="stop-color:#F5C362"/>
</linearGradient>
<path fill="url(#SVGID_5_)" d="M158.99,140.172c-0.184,0-2.326-0.129-2.518-0.117l0,0c-50.943-2.726-94.107-44.923-95.702-95.825
	v-0.188c0-0.05,0.111-0.231-0.063-0.375c-0.25-2.75-3.799-7.379-8.563-7.375c-4.765,0.004-8.5,3.563-8.612,7.8
	c0,0.15,0.013,0.301,0.022,0.449l-0.048,0.003C46.87,105.012,95.19,153.457,155.57,157.064c0.488,0.086,3.053,0.172,3.42,0.172
	c4.712,0,8.532-3.82,8.532-8.532S163.702,140.172,158.99,140.172z"/>
</svg>
