<?xml version="1.0" encoding="utf-8"?>
<!--
  - This file is part of StyleBI.
  - Copyright (C) 2024  InetSoft Technology
  -
  - This program is free software: you can redistribute it and/or modify
  - it under the terms of the GNU Affero General Public License as published by
  - the Free Software Foundation, either version 3 of the License, or
  - (at your option) any later version.
  -
  - This program is distributed in the hope that it will be useful,
  - but WITHOUT ANY WARRANTY; without even the implied warranty of
  - MERCHANTABILITY or FITNESS FOR A PARTICULAR PURPOSE.  See the
  - GNU Affero General Public License for more details.
  -
  - You should have received a copy of the GNU Affero General Public License
  - along with this program.  If not, see <https://www.gnu.org/licenses/>.
  -->

<!-- Generator: Adobe Illustrator 15.1.0, SVG Export Plug-In . SVG Version: 6.00 Build 0)  -->
<!DOCTYPE svg PUBLIC "-//W3C//DTD SVG 1.1//EN" "http://www.w3.org/Graphics/SVG/1.1/DTD/svg11.dtd">
<svg version="1.1" id="Layer_1" xmlns="http://www.w3.org/2000/svg" xmlns:xlink="http://www.w3.org/1999/xlink" x="0px" y="0px"
	 width="30px" height="30px" viewBox="291 381 30 30" enable-background="new 291 381 30 30" xml:space="preserve">
<title>Artboard 1</title>
<g>
	<rect id="Rectangle" x="293.377" y="383.76" fill="#356AE6" width="24.48" height="24.48"/>
	<g id="Layer_1_1_">
		<path fill="#FFFFFF" d="M305.85,396.569c0.221,0,0.443-0.085,0.68-0.261c0.278-0.194,0.527-0.36,0.527-0.36l0.086-0.057
			l-0.086-0.058c-0.037-0.026-3.734-2.593-4.118-2.838c-0.151-0.125-0.361-0.154-0.541-0.073c-0.157,0.086-0.25,0.256-0.238,0.435
			v0.871l0.03,0.021c0.026,0.018,2.567,1.785,3.06,2.116C305.425,396.493,305.634,396.563,305.85,396.569z"/>
		<path fill="#FFFFFF" d="M310.809,395.034c-0.222-0.166-8.154-5.695-8.492-5.929l-0.11-0.075v1.36c0,0.433,0.226,0.595,0.51,0.803
			c0,0,6.084,4.241,6.839,4.76c-0.761,0.526-6.486,4.497-6.847,4.729c-0.434,0.289-0.477,0.477-0.477,0.865v1.459l8.571-6.134l0,0
			c0.291-0.196,0.469-0.521,0.478-0.872v-0.157C311.281,395.526,311.121,395.253,310.809,395.034z"/>
	</g>
</g>
</svg>
