<?xml version="1.0" encoding="utf-8"?>
<!--
  - This file is part of StyleBI.
  - Copyright (C) 2024  InetSoft Technology
  -
  - This program is free software: you can redistribute it and/or modify
  - it under the terms of the GNU Affero General Public License as published by
  - the Free Software Foundation, either version 3 of the License, or
  - (at your option) any later version.
  -
  - This program is distributed in the hope that it will be useful,
  - but WITHOUT ANY WARRANTY; without even the implied warranty of
  - MERCHANTABILITY or FITNESS FOR A PARTICULAR PURPOSE.  See the
  - GNU Affero General Public License for more details.
  -
  - You should have received a copy of the GNU Affero General Public License
  - along with this program.  If not, see <https://www.gnu.org/licenses/>.
  -->

<!-- Generator: Adobe Illustrator 15.1.0, SVG Export Plug-In . SVG Version: 6.00 Build 0)  -->
<!DOCTYPE svg PUBLIC "-//W3C//DTD SVG 1.1//EN" "http://www.w3.org/Graphics/SVG/1.1/DTD/svg11.dtd">
<svg version="1.1" id="Layer_1" xmlns="http://www.w3.org/2000/svg" xmlns:xlink="http://www.w3.org/1999/xlink" x="0px" y="0px"
	 width="30px" height="30px" viewBox="29 -4 30 30" enable-background="new 29 -4 30 30" xml:space="preserve">
<g>
	<path fill="#3E4348" d="M35.943-1.1h16.112c1.073,0,2.103,0.425,2.86,1.184c0.759,0.758,1.184,1.787,1.184,2.86v16.111
		c0,2.234-1.811,4.045-4.044,4.045H35.943c-2.234,0-4.044-1.811-4.044-4.045V2.944C31.899,0.71,33.71-1.1,35.943-1.1z M50.427,18.7
		c0.706,0,1.277-0.571,1.277-1.276L51.7,4.577c0-0.705-0.571-1.276-1.276-1.276H37.578c-0.339,0-0.664,0.135-0.903,0.375
		c-0.239,0.24-0.374,0.564-0.374,0.903v12.846c0,0.705,0.571,1.276,1.276,1.276H50.427z"/>
	<path fill="#3E4348" d="M41.432,14.28c-0.402-0.002-0.727-0.329-0.727-0.732V8.42c-0.001-0.195,0.076-0.382,0.213-0.52
		c0.138-0.139,0.325-0.216,0.52-0.216h5.136c0.195,0,0.381,0.078,0.519,0.216c0.138,0.138,0.214,0.325,0.214,0.52v5.127
		c0,0.194-0.076,0.383-0.214,0.521c-0.138,0.137-0.323,0.215-0.519,0.215L41.432,14.28z"/>
</g>
</svg>
