<?xml version="1.0" encoding="utf-8"?>
<!--
  - This file is part of StyleBI.
  - Copyright (C) 2024  InetSoft Technology
  -
  - This program is free software: you can redistribute it and/or modify
  - it under the terms of the GNU Affero General Public License as published by
  - the Free Software Foundation, either version 3 of the License, or
  - (at your option) any later version.
  -
  - This program is distributed in the hope that it will be useful,
  - but WITHOUT ANY WARRANTY; without even the implied warranty of
  - MERCHANTABILITY or FITNESS FOR A PARTICULAR PURPOSE.  See the
  - GNU Affero General Public License for more details.
  -
  - You should have received a copy of the GNU Affero General Public License
  - along with this program.  If not, see <https://www.gnu.org/licenses/>.
  -->

<!-- Generator: Adobe Illustrator 15.1.0, SVG Export Plug-In . SVG Version: 6.00 Build 0)  -->
<!DOCTYPE svg PUBLIC "-//W3C//DTD SVG 1.1//EN" "http://www.w3.org/Graphics/SVG/1.1/DTD/svg11.dtd">
<svg version="1.1" id="Layer_1" xmlns="http://www.w3.org/2000/svg" xmlns:xlink="http://www.w3.org/1999/xlink" x="0px" y="0px"
	 width="30px" height="30px" viewBox="291 381 30 30" enable-background="new 291 381 30 30" xml:space="preserve">
<path fill="#08C7FB" d="M306,407.934c-6.588,0-11.934-5.346-11.934-11.934s5.346-11.934,11.934-11.934h8.95
	c1.646,0,2.983,1.336,2.983,2.983V396C317.934,402.588,312.588,407.934,306,407.934z"/>
<path fill="#FFFFFF" d="M305.833,401.896c0.143,0.096,0.358,0.071,0.453-0.072l3.771-5.227l0.883-1.218
	c0.215-0.286,0-0.692-0.357-0.692h-5.681l1.384-4.225c0.048-0.143,0-0.287-0.119-0.382c-0.144-0.096-0.358-0.072-0.453,0.071
	l-3.771,5.251l-0.883,1.217c-0.215,0.286,0,0.692,0.358,0.692h5.681l-1.384,4.225C305.666,401.657,305.714,401.823,305.833,401.896z
	"/>
</svg>
