<?xml version="1.0" encoding="utf-8"?>
<!--
  - This file is part of StyleBI.
  -
  - Copyright (c) 2024, InetSoft Technology Corp, All Rights Reserved.
  -
  - The software and information contained herein are copyrighted and
  - proprietary to InetSoft Technology Corp. This software is furnished
  - pursuant to a written license agreement and may be used, copied,
  - transmitted, and stored only in accordance with the terms of such
  - license and with the inclusion of the above copyright notice. Please
  - refer to the file "COPYRIGHT" for further copyright and licensing
  - information. This software and information or any other copies
  - thereof may not be provided or otherwise made available to any other
  - person.
  -->

<!-- Generator: Adobe Illustrator 15.1.0, SVG Export Plug-In . SVG Version: 6.00 Build 0)  -->
<!DOCTYPE svg PUBLIC "-//W3C//DTD SVG 1.1//EN" "http://www.w3.org/Graphics/SVG/1.1/DTD/svg11.dtd">
<svg version="1.1" id="Layer_1" xmlns="http://www.w3.org/2000/svg" xmlns:xlink="http://www.w3.org/1999/xlink" x="0px" y="0px"
	 width="30px" height="30px" viewBox="291 381 30 30" enable-background="new 291 381 30 30" xml:space="preserve">
<g>
	<g id="Dark_Blue">
		<circle fill="#1DA1F2" cx="306" cy="396" r="12.24"/>
	</g>
	<g id="Logo__x2014__FIXED">
		<path fill="#FFFFFF" d="M303.76,402.456c5.429,0,8.396-4.497,8.396-8.396c0-0.128,0-0.257-0.006-0.379
			c0.575-0.417,1.077-0.937,1.475-1.53c-0.525,0.232-1.096,0.392-1.694,0.465c0.611-0.367,1.076-0.943,1.297-1.634
			c-0.569,0.336-1.199,0.582-1.873,0.716c-0.538-0.576-1.303-0.931-2.153-0.931c-1.629,0-2.95,1.322-2.95,2.95
			c0,0.232,0.024,0.459,0.08,0.673c-2.455-0.122-4.627-1.297-6.083-3.084c-0.251,0.435-0.398,0.943-0.398,1.481
			c0,1.022,0.521,1.928,1.316,2.455c-0.483-0.012-0.937-0.147-1.334-0.367c0,0.012,0,0.024,0,0.037c0,1.432,1.016,2.619,2.368,2.895
			c-0.245,0.067-0.508,0.104-0.777,0.104c-0.19,0-0.374-0.019-0.557-0.056c0.374,1.176,1.462,2.026,2.754,2.051
			c-1.01,0.789-2.283,1.261-3.666,1.261c-0.239,0-0.471-0.012-0.704-0.042C300.541,401.967,302.095,402.456,303.76,402.456"/>
	</g>
</g>
</svg>
