<?xml version="1.0" encoding="utf-8"?>
<!--
  - This file is part of StyleBI.
  - Copyright (C) 2024  InetSoft Technology
  -
  - This program is free software: you can redistribute it and/or modify
  - it under the terms of the GNU Affero General Public License as published by
  - the Free Software Foundation, either version 3 of the License, or
  - (at your option) any later version.
  -
  - This program is distributed in the hope that it will be useful,
  - but WITHOUT ANY WARRANTY; without even the implied warranty of
  - MERCHANTABILITY or FITNESS FOR A PARTICULAR PURPOSE.  See the
  - GNU Affero General Public License for more details.
  -
  - You should have received a copy of the GNU Affero General Public License
  - along with this program.  If not, see <https://www.gnu.org/licenses/>.
  -->

<!-- Generator: Adobe Illustrator 15.1.0, SVG Export Plug-In . SVG Version: 6.00 Build 0)  -->
<!DOCTYPE svg PUBLIC "-//W3C//DTD SVG 1.1//EN" "http://www.w3.org/Graphics/SVG/1.1/DTD/svg11.dtd">
<svg version="1.1" id="Layer_1" xmlns="http://www.w3.org/2000/svg" xmlns:xlink="http://www.w3.org/1999/xlink" x="0px" y="0px"
	 width="30px" height="30px" viewBox="45.385 43.89 30 30" enable-background="new 45.385 43.89 30 30" xml:space="preserve">
<g>
	<path fill="#191717" d="M60.385,46.522c-7.003,0-12.682,5.679-12.682,12.682c0,5.603,3.633,10.357,8.673,12.033
		c0.634,0.118,0.868-0.275,0.868-0.61c0-0.303-0.012-1.303-0.017-2.36c-3.527,0.766-4.271-1.497-4.271-1.497
		c-0.578-1.467-1.409-1.857-1.409-1.857c-1.151-0.787,0.086-0.771,0.086-0.771c1.272,0.091,1.944,1.306,1.944,1.306
		c1.132,1.939,2.968,1.378,3.69,1.055c0.114-0.819,0.443-1.38,0.805-1.697c-2.816-0.321-5.778-1.408-5.778-6.266
		c0-1.383,0.496-2.516,1.307-3.404c-0.132-0.318-0.565-1.608,0.122-3.355c0,0,1.065-0.34,3.488,1.3
		c1.013-0.281,2.096-0.421,3.175-0.426c1.077,0.005,2.163,0.145,3.178,0.426c2.421-1.64,3.483-1.3,3.483-1.3
		c0.691,1.747,0.256,3.037,0.124,3.355c0.813,0.889,1.304,2.021,1.304,3.404c0,4.87-2.967,5.943-5.789,6.258
		c0.455,0.393,0.86,1.166,0.86,2.348c0,1.696-0.015,3.062-0.015,3.48c0,0.337,0.229,0.732,0.872,0.608
		c5.035-1.678,8.664-6.431,8.664-12.031C73.067,52.199,67.389,46.522,60.385,46.522z"/>
	<path fill="#191717" d="M52.508,64.729c-0.027,0.063-0.128,0.082-0.219,0.038c-0.092-0.042-0.143-0.129-0.113-0.191
		c0.027-0.065,0.126-0.081,0.219-0.04C52.487,64.581,52.539,64.667,52.508,64.729L52.508,64.729z"/>
	<path fill="#191717" d="M53.02,65.302c-0.061,0.057-0.179,0.029-0.259-0.059c-0.084-0.088-0.098-0.206-0.038-0.263
		c0.063-0.057,0.177-0.029,0.261,0.059C53.069,65.128,53.086,65.246,53.02,65.302L53.02,65.302z"/>
	<path fill="#191717" d="M53.523,66.033c-0.078,0.055-0.207,0.005-0.284-0.109c-0.078-0.112-0.078-0.247,0.002-0.302
		c0.078-0.055,0.204-0.006,0.284,0.107C53.6,65.842,53.6,65.979,53.523,66.033L53.523,66.033z"/>
	<path fill="#191717" d="M54.207,66.739c-0.069,0.078-0.219,0.057-0.325-0.048c-0.112-0.104-0.141-0.248-0.072-0.323
		c0.072-0.078,0.219-0.055,0.328,0.048C54.246,66.516,54.281,66.664,54.207,66.739L54.207,66.739z"/>
	<path fill="#191717" d="M55.152,67.148c-0.032,0.1-0.174,0.146-0.316,0.104c-0.143-0.044-0.238-0.16-0.208-0.261
		c0.029-0.101,0.172-0.146,0.317-0.103C55.087,66.932,55.181,67.047,55.152,67.148L55.152,67.148z"/>
	<path fill="#191717" d="M56.189,67.224c0.004,0.105-0.118,0.191-0.269,0.193c-0.151,0.004-0.275-0.082-0.275-0.186
		c0-0.104,0.12-0.19,0.271-0.192C56.066,67.038,56.189,67.122,56.189,67.224L56.189,67.224z"/>
	<path fill="#191717" d="M57.155,67.06c0.019,0.103-0.086,0.205-0.237,0.235c-0.147,0.027-0.284-0.036-0.303-0.137
		c-0.019-0.105,0.088-0.21,0.236-0.237C57.002,66.894,57.136,66.956,57.155,67.06L57.155,67.06z"/>
</g>
</svg>
