<?xml version="1.0" encoding="utf-8"?>
<!-- Generator: Adobe Illustrator 15.1.0, SVG Export Plug-In . SVG Version: 6.00 Build 0)  -->
<!DOCTYPE svg PUBLIC "-//W3C//DTD SVG 1.1//EN" "http://www.w3.org/Graphics/SVG/1.1/DTD/svg11.dtd">
<svg version="1.1" id="Layer_1" xmlns="http://www.w3.org/2000/svg" xmlns:xlink="http://www.w3.org/1999/xlink" x="0px" y="0px"
	 width="60px" height="40px" viewBox="-17.5 -8.5 60 40" enable-background="new -17.5 -8.5 60 40" xml:space="preserve">
<path fill="#62A640" d="M13.497-0.824c0-0.009-0.003-0.018-0.003-0.026c0-0.013,0-0.025-0.007-0.042c0-0.019-0.003-0.041-0.005-0.06
	c0,0,0,0,0-0.001c-0.086-0.31-0.469-0.546-0.928-0.546H5.005c-0.288,0-0.541,0.09-0.718,0.238L0.789,1.237
	c-0.003,0-0.003,0.001-0.003,0.001C0.763,1.255,0.744,1.27,0.725,1.287C0.712,1.293,0.706,1.304,0.696,1.311
	c-0.007,0.009-0.02,0.019-0.027,0.028c-0.006,0.007-0.018,0.02-0.026,0.03c-0.005,0.008-0.017,0.02-0.023,0.025
	C0.613,1.406,0.606,1.416,0.598,1.426c-0.006,0.009-0.013,0.02-0.018,0.03c-0.007,0.01-0.012,0.019-0.014,0.029
	C0.561,1.496,0.556,1.507,0.549,1.52C0.546,1.53,0.542,1.538,0.54,1.55C0.536,1.56,0.53,1.571,0.528,1.582
	C0.522,1.595,0.521,1.608,0.516,1.621c0,0.007,0,0.017-0.005,0.027C0.51,1.669,0.51,1.691,0.51,1.714v22.108
	c0,0.378,0.418,0.677,0.944,0.677h7.548c0.027,0,0.061,0,0.091-0.003c0.015,0,0.028-0.006,0.045-0.006
	c0.015-0.003,0.034-0.003,0.052-0.003c0.014-0.008,0.029-0.013,0.045-0.016c0.019,0,0.031-0.002,0.044-0.005
	c0.017,0,0.03-0.008,0.047-0.015c0.017-0.007,0.031-0.01,0.042-0.012c0.013-0.001,0.027-0.008,0.041-0.02
	c0.014-0.007,0.027-0.01,0.042-0.013c0.013-0.011,0.026-0.014,0.041-0.022c0.016-0.003,0.029-0.007,0.04-0.021
	c0.015-0.008,0.027-0.01,0.043-0.022c0.011-0.011,0.023-0.015,0.034-0.021c0.018-0.018,0.039-0.028,0.056-0.037
	c0.006-0.006,0.008-0.006,0.013-0.009l3.555-2.534c0.188-0.132,0.277-0.299,0.277-0.472c0,0,0,0,0-0.007v-22.1L13.497-0.824
	L13.497-0.824z"/>
<rect x="2.46" y="3.7" fill="#62A640" width="3.9" height="18.2"/>
<polygon fill="#62A640" points="4.41,1.1 6.541,-0.2 9.61,-0.2 7.479,1.1 "/>
<polygon fill="#62A640" points="8.688,21.9 8.635,3.234 11.832,1.1 11.885,19.765 "/>
<path fill="#FC8F2A" d="M26.5,2.257c0-0.007-0.003-0.014-0.003-0.02c0-0.009,0-0.02-0.005-0.031
	c-0.003-0.015-0.003-0.029-0.005-0.046c0,0,0,0,0-0.001c-0.068-0.233-0.376-0.409-0.741-0.409h-6.041
	c-0.229,0-0.432,0.067-0.568,0.178l-2.804,1.876c-0.004,0-0.004,0.001-0.004,0.001c-0.016,0.011-0.031,0.022-0.048,0.035
	c-0.009,0.005-0.016,0.014-0.024,0.018c-0.005,0.008-0.013,0.015-0.02,0.021c-0.012,0.006-0.022,0.015-0.028,0.024
	c-0.004,0.006-0.018,0.014-0.022,0.019c-0.006,0.008-0.011,0.016-0.019,0.023c-0.001,0.008-0.002,0.015-0.006,0.022
	c-0.007,0.008-0.011,0.013-0.011,0.023c-0.006,0.006-0.011,0.014-0.016,0.024c-0.003,0.008-0.006,0.015-0.008,0.021
	c-0.003,0.009-0.013,0.018-0.016,0.025c-0.002,0.009-0.002,0.02-0.006,0.028c0,0.004-0.002,0.014-0.006,0.021
	c0,0.017,0,0.031,0,0.049v16.582c0,0.283,0.336,0.509,0.756,0.509h6.04c0.023,0,0.046,0,0.071-0.002
	c0.016,0,0.025-0.004,0.038-0.004c0.013-0.003,0.026-0.003,0.037-0.003c0.012-0.004,0.026-0.01,0.031-0.01
	c0.02,0,0.028-0.003,0.036-0.003c0.013,0,0.027-0.005,0.034-0.01c0.015-0.005,0.026-0.005,0.031-0.015
	c0.013-0.001,0.024-0.005,0.031-0.011c0.011-0.005,0.025-0.007,0.027-0.008c0.014-0.01,0.025-0.016,0.03-0.022
	c0.016-0.003,0.028-0.006,0.031-0.013c0.014-0.008,0.025-0.01,0.031-0.017c0.014-0.007,0.021-0.009,0.028-0.015
	c0.015-0.013,0.029-0.019,0.044-0.029c0.005-0.002,0.008-0.002,0.014-0.005l2.846-1.901c0.145-0.101,0.224-0.229,0.224-0.356
	c0,0,0,0,0-0.006L26.5,2.257L26.5,2.257z"/>
<rect x="17.67" y="5.738" fill="#FC8F2A" width="3.119" height="13.473"/>
<polygon fill="#FC8F2A" points="19.23,3.7 20.935,2.725 23.39,2.725 21.686,3.7 "/>
<polygon fill="#FC8F2A" points="25.21,18.046 22.61,19.438 22.61,5.716 25.21,4.323 "/>
<g>
	<path fill="none" stroke="#F0F0F0" stroke-width="1.0648" d="M41.5,28.37c0,1.172-0.958,2.13-2.13,2.13h-53.741
		c-1.171,0-2.129-0.958-2.129-2.13V-5.371c0-1.171,0.958-2.129,2.129-2.129H39.37c1.172,0,2.13,0.958,2.13,2.129V28.37z"/>
</g>
</svg>
