<?xml version="1.0" encoding="utf-8"?>
<!-- Generator: Adobe Illustrator 15.1.0, SVG Export Plug-In . SVG Version: 6.00 Build 0)  -->
<!DOCTYPE svg PUBLIC "-//W3C//DTD SVG 1.1//EN" "http://www.w3.org/Graphics/SVG/1.1/DTD/svg11.dtd">
<svg version="1.1" id="Layer_1" xmlns="http://www.w3.org/2000/svg" xmlns:xlink="http://www.w3.org/1999/xlink" x="0px" y="0px"
	 width="60px" height="40px" viewBox="-18.5 -8.5 60 40" enable-background="new -18.5 -8.5 60 40" xml:space="preserve">
<path fill="#FC8F2A" d="M-1.042,12.354l-1.087,0.265c-0.111,0.007-0.222,0.047-0.319,0.119c-0.168,0.121-0.255,0.315-0.254,0.508
	v7.474c0,0.223,0.119,0.431,0.312,0.54c0.158,0.092,3.915,2.229,6.85,2.229c0.055,0,0.109-0.01,0.161-0.024
	c0.013-0.005,0.025-0.008,0.038-0.011c0.051-0.021,0.099-0.038,0.144-0.068c0.001-0.003,0.003-0.003,0.004-0.003
	c0.033-0.026,0.065-0.048,0.096-0.082c0.008-0.01,0.016-0.022,0.025-0.031c0.008-0.008,0.018-0.022,0.026-0.029
	c0.033-0.046,0.064-0.092,0.086-0.146c0,0,0,0,0-0.002l4.879-12.178c0.022-0.054,0.032-0.107,0.037-0.162
	c0.091-0.185,0.091-0.405-0.015-0.59C9.801,9.922,9.522,9.802,9.254,9.867L0.202,12.05v-0.013l-1.245,0.312V12.354z"/>
<path fill="#62A640" d="M24.703,7.986c0-4.192-5.654-7.475-12.872-7.475c-7.068,0-12.634,3.148-12.863,7.215h-0.011v4.062v0.561
	l1.245-0.31v-0.561v-1.24L11.065,8.72l-1.154,6.464H9.905v0.034l-0.03,0.167l0.03,0.001l0.031,7.2l0.585,0.033
	c0.417,0.022,0.84,0.029,1.251,0.029c7.219,0,12.874-3.282,12.874-7.471V8.732h-0.008C24.682,8.488,24.703,8.239,24.703,7.986z"/>
<path fill="#FAAB5F" d="M3.804,16.16l0.031,6.048c-2.045-0.222-4.446-1.411-5.291-1.857v-5.648
	C-0.421,15.492,1.329,16.379,3.804,16.16z"/>
<path fill="#FAAB5F" d="M-0.854,13.589c0.908,0.742,2.669,1.719,5.308,1.221l3.055-3.233L-0.854,13.589z"/>
<path fill="#62A640" d="M11.833,1.757c-6.303,0-11.627,2.852-11.627,6.229c0,0.325,0.05,0.651,0.148,0.974l12.242-1.709
	l-1.241,6.955c6.521,0.15,12.104-2.758,12.106-6.221C23.458,4.609,18.134,1.757,11.833,1.757z"/>
<g>
	<path fill="none" stroke="#F0F0F0" stroke-width="1.0648" d="M40.5,28.37c0,1.172-0.958,2.13-2.13,2.13h-53.741
		c-1.171,0-2.129-0.958-2.129-2.13V-5.371c0-1.171,0.958-2.129,2.129-2.129H38.37c1.172,0,2.13,0.958,2.13,2.129V28.37z"/>
</g>
</svg>
