<?xml version="1.0" encoding="utf-8"?>
<!-- Generator: Adobe Illustrator 15.1.0, SVG Export Plug-In . SVG Version: 6.00 Build 0)  -->
<!DOCTYPE svg PUBLIC "-//W3C//DTD SVG 1.1//EN" "http://www.w3.org/Graphics/SVG/1.1/DTD/svg11.dtd">
<svg version="1.1" id="Layer_1" xmlns="http://www.w3.org/2000/svg" xmlns:xlink="http://www.w3.org/1999/xlink" x="0px" y="0px"
	 width="60px" height="40px" viewBox="-0.5 -0.5 60 40" enable-background="new -0.5 -0.5 60 40" xml:space="preserve">
<polygon fill="#CDF7F6" points="34.372,13.809 34.152,13.809 34.311,13.874 "/>
<polygon fill="#FC8F2A" points="36.252,13.115 36.169,13.199 35.956,13.115 25.73,13.115 25.73,20.424 15.5,20.424 15.5,31.15 
	25.73,31.15 28.262,31.15 42.5,31.15 42.5,13.115 "/>
<polygon fill="#FC8F2A" points="36.169,13.199 27.72,9.877 19.33,18.123 15.5,16.867 15.5,23.137 23.938,24.516 29,16.224 
	35.75,19.541 42.5,14.234 42.5,6.85 "/>
<g>
	<path fill="none" stroke="#F0F0F0" stroke-width="1.0648" d="M58.5,36.37c0,1.172-0.958,2.13-2.13,2.13H2.629
		c-1.171,0-2.129-0.958-2.129-2.13V2.629C0.5,1.458,1.458,0.5,2.629,0.5H56.37c1.172,0,2.13,0.958,2.13,2.129V36.37z"/>
</g>
</svg>
