<?xml version="1.0" encoding="utf-8"?>
<!-- Generator: Adobe Illustrator 15.1.0, SVG Export Plug-In . SVG Version: 6.00 Build 0)  -->
<!DOCTYPE svg PUBLIC "-//W3C//DTD SVG 1.1//EN" "http://www.w3.org/Graphics/SVG/1.1/DTD/svg11.dtd">
<svg version="1.1" id="Layer_1" xmlns="http://www.w3.org/2000/svg" xmlns:xlink="http://www.w3.org/1999/xlink" x="0px" y="0px"
	 width="60px" height="40px" viewBox="-18.5 -8.5 60 40" enable-background="new -18.5 -8.5 60 40" xml:space="preserve">
<circle fill="#B9DBF4" cx="3.509" cy="18.906" r="5.6"/>
<circle fill="#FC8F2A" cx="18.209" cy="18.206" r="3.5"/>
<circle fill="#518DB9" cx="4.909" cy="6.306" r="2.8"/>
<polygon fill="#646464" points="13.542,7.874 12.912,9.412 11.373,10.044 12.912,10.674 13.542,12.212 14.173,10.674 15.712,10.044 
	14.173,9.412 "/>
<polygon fill="#646464" points="23.343,0.944 22.923,1.924 21.942,2.344 22.923,2.764 23.343,3.744 23.762,2.764 24.742,2.344 
	23.762,1.924 "/>
<g>
	<path fill="#646464" d="M23.623,12.284l1.258-1.26c0.28-0.279,0.28-0.7,0-0.979l-5.95-5.95l-2.239,2.24l6.02,6.02
		C22.923,12.563,23.343,12.563,23.623,12.284z"/>
</g>
<path fill="#646464" d="M14.102,3.744c-0.279-0.28-0.279-0.7,0-0.98l1.259-1.26c0.28-0.28,0.7-0.28,0.98,0l2.59,2.59l1.261-1.05
	l-1.543-1.26l0.211-1.96l-1.961,0.21l-1.258-1.54l-1.258,1.54l-1.96-0.21l0.21,1.96l-1.542,1.26l1.542,1.26l-0.21,1.958l1.96-0.208
	l1.258,1.542l1.051-1.26L14.102,3.744z"/>
<g>
	<path fill="none" stroke="#F0F0F0" stroke-width="1.0648" d="M40.5,28.37c0,1.172-0.958,2.13-2.13,2.13h-53.741
		c-1.171,0-2.129-0.958-2.129-2.13V-5.371c0-1.171,0.958-2.129,2.129-2.129H38.37c1.172,0,2.13,0.958,2.13,2.129V28.37z"/>
</g>
</svg>
