<?xml version="1.0" encoding="utf-8"?>
<!-- Generator: Adobe Illustrator 15.1.0, SVG Export Plug-In . SVG Version: 6.00 Build 0)  -->
<!DOCTYPE svg PUBLIC "-//W3C//DTD SVG 1.1//EN" "http://www.w3.org/Graphics/SVG/1.1/DTD/svg11.dtd">
<svg version="1.1" id="Layer_1" xmlns="http://www.w3.org/2000/svg" xmlns:xlink="http://www.w3.org/1999/xlink" x="0px" y="0px"
	 width="60px" height="40px" viewBox="0 0 60 40" enable-background="new 0 0 60 40" xml:space="preserve">
<circle fill="#D64541" cx="39.5" cy="7.5" r="2"/>
<path fill="#518DB9" d="M42.833,12.5h-6.666c-1.001,0-1.667,0.742-1.667,1.857v9.283c0,1.118,0.666,1.86,1.667,1.86h6.666
	c1,0,1.667-0.742,1.667-1.86v-9.283C44.5,13.242,43.833,12.5,42.833,12.5z M42,23.001h-5v-8h5V23.001z"/>
<rect x="38" y="25.375" fill="#518DB9" width="3" height="3"/>
<rect x="36.084" y="18.375" fill="#518DB9" width="6.416" height="2"/>
<rect x="34.5" y="28.375" fill="#FC8F2A" width="10" height="3"/>
<path fill="#62A640" d="M24.333,14.5h-6.667C16.666,14.5,16,15.242,16,16.357v9.283c0,1.118,0.666,1.86,1.667,1.86h6.667
	c0.999,0,1.667-0.742,1.667-1.86v-9.283C26,15.242,25.333,14.5,24.333,14.5z M23.5,25.001h-5v-8h5V25.001z"/>
<rect x="19.5" y="26.5" fill="#62A640" width="3" height="5"/>
<rect x="17.584" y="21.375" fill="#62A640" width="6.416" height="2"/>
<rect x="16" y="30.5" fill="#FC8F2A" width="10" height="3"/>
<rect x="19.5" y="10.375" fill="#62A640" width="3" height="6"/>
<rect x="16" y="8.375" fill="#FC8F2A" width="10" height="3"/>
<g>
	<path fill="none" stroke="#F0F0F0" stroke-width="1.0648" d="M59,36.87c0,1.172-0.958,2.13-2.13,2.13H3.129
		C1.958,39,1,38.042,1,36.87V3.129C1,1.958,1.958,1,3.129,1H56.87C58.042,1,59,1.958,59,3.129V36.87z"/>
</g>
</svg>
