<?xml version="1.0" encoding="utf-8"?>
<!-- Generator: Adobe Illustrator 15.1.0, SVG Export Plug-In . SVG Version: 6.00 Build 0)  -->
<!DOCTYPE svg PUBLIC "-//W3C//DTD SVG 1.1//EN" "http://www.w3.org/Graphics/SVG/1.1/DTD/svg11.dtd">
<svg version="1.1" id="Layer_1" xmlns="http://www.w3.org/2000/svg" xmlns:xlink="http://www.w3.org/1999/xlink" x="0px" y="0px"
	 width="60px" height="40px" viewBox="-18.5 -8.5 60 40" enable-background="new -18.5 -8.5 60 40" xml:space="preserve">
<g>
	<path fill="#D64541" d="M3.5,12.25V16H1v-3.75H3.5 M4.75,9.75h-5C-1,9.75-1.5,10.25-1.5,11v6.25C-1.5,18-1,18.5-0.25,18.5h5
		C5.5,18.5,6,18,6,17.25V11C6,10.25,5.5,9.75,4.75,9.75L4.75,9.75z"/>
</g>
<rect x="1" y="17.25" fill="#D64541" width="2.5" height="3.75"/>
<rect x="1" y="7.25" fill="#D64541" width="2.5" height="2.5"/>
<g>
	<path fill="#62A640" d="M9.75,1h5C15.5,1,16,1.5,16,2.25V8.5c0,0.75-0.5,1.25-1.25,1.25h-5C9,9.75,8.5,9.25,8.5,8.5V2.25
		C8.5,1.5,9,1,9.75,1z"/>
</g>
<rect x="11" y="8.5" fill="#62A640" width="2.5" height="3.75"/>
<rect x="11" y="-1.5" fill="#62A640" width="2.5" height="2.5"/>
<g>
	<path fill="#FC8F2A" d="M17.25,12.25h5c0.75,0,1.25,0.5,1.25,1.25v6.25C23.5,20.5,23,21,22.25,21h-5C16.5,21,16,20.5,16,19.75V13.5
		C16,12.75,16.5,12.25,17.25,12.25z"/>
</g>
<rect x="18.5" y="18.5" fill="#FC8F2A" width="2.5" height="5"/>
<rect x="18.5" y="9.75" fill="#FC8F2A" width="2.5" height="2.5"/>
<g>
	<path fill="none" stroke="#F0F0F0" stroke-width="1.0648" d="M40.5,28.37c0,1.172-0.958,2.13-2.13,2.13h-53.741
		c-1.171,0-2.129-0.958-2.129-2.13V-5.371c0-1.171,0.958-2.129,2.129-2.129H38.37c1.172,0,2.13,0.958,2.13,2.129V28.37z"/>
</g>
</svg>
