<?xml version="1.0" encoding="utf-8"?>
<!-- Generator: Adobe Illustrator 15.1.0, SVG Export Plug-In . SVG Version: 6.00 Build 0)  -->
<!DOCTYPE svg PUBLIC "-//W3C//DTD SVG 1.1//EN" "http://www.w3.org/Graphics/SVG/1.1/DTD/svg11.dtd">
<svg version="1.1" id="Layer_1" xmlns="http://www.w3.org/2000/svg" xmlns:xlink="http://www.w3.org/1999/xlink" x="0px" y="0px"
	 width="60px" height="40px" viewBox="0 0 60 40" enable-background="new 0 0 60 40" xml:space="preserve">
<g>
	<path fill="none" stroke="#F0F0F0" stroke-width="1.0648" d="M59,36.87c0,1.172-0.958,2.13-2.13,2.13H3.129
		C1.958,39,1,38.042,1,36.87V3.129C1,1.958,1.958,1,3.129,1H56.87C58.042,1,59,1.958,59,3.129V36.87z"/>
</g>
<g>
	<path fill="#62A640" d="M30,9c-6.07,0-11,4.93-11,11c0,6.07,4.93,11,11,11c6.07,0,11-4.93,11-11C41,13.93,36.07,9,30,9z"/>
	<path fill="#FFFFFF" d="M30,28.8c-4.85,0-8.8-3.95-8.8-8.8s3.95-8.8,8.8-8.8s8.8,3.95,8.8,8.8S34.85,28.8,30,28.8z"/>
	<path fill="none" d="M16.8,6.8h26.4v26.4H16.8V6.8z"/>
	<path fill="none" stroke="#518DB9" stroke-miterlimit="10" d="M30,11.2c0,3.875,3.936,7.012,8.8,7.012"/>
	<path fill="none" stroke="#000000" stroke-miterlimit="10" d="M38.112,18.969"/>
	<path fill="none" stroke="#000000" stroke-miterlimit="10" d="M21.2,17.181"/>
	<path fill="none" stroke="#518DB9" stroke-miterlimit="10" d="M22.825,15.975c0,6.992,14.462,1.787,17.599,1.787"/>
	<path fill="none" stroke="#000000" stroke-miterlimit="10" d="M38.8,18.969"/>
	<path fill="none" stroke="#000000" stroke-miterlimit="10" d="M22.438,26.119"/>
	<path fill="none" stroke="#518DB9" stroke-miterlimit="10" d="M22.484,17.181c0,3.122,2.748,5.873,6.935,7.502
		c2.527,0.983,5.58,1.559,8.867,1.559"/>
	<path fill="none" stroke="#518DB9" stroke-miterlimit="10" d="M22.438,25.676c2.583,2.558,9.692-0.442,15.895-6.708"/>
	<path fill="#FC8F2A" d="M39.557,15.05c-1.521,0-2.75,1.228-2.75,2.75c0,1.522,1.229,2.75,2.75,2.75c1.521,0,2.75-1.228,2.75-2.75
		C42.307,16.278,41.077,15.05,39.557,15.05z"/>
	<path fill="#FC8F2A" d="M30,7.419c-1.521,0-2.75,1.228-2.75,2.75s1.229,2.75,2.75,2.75c1.521,0,2.75-1.228,2.75-2.75
		S31.521,7.419,30,7.419z"/>
	<path fill="#FC8F2A" d="M20.856,14.431c-1.521,0-2.75,1.228-2.75,2.75c0,1.523,1.229,2.75,2.75,2.75c1.521,0,2.75-1.227,2.75-2.75
		C23.606,15.659,22.377,14.431,20.856,14.431z"/>
	<path fill="#FC8F2A" d="M22.438,23.85c-1.521,0-2.75,1.228-2.75,2.75c0,1.523,1.229,2.75,2.75,2.75s2.75-1.227,2.75-2.75
		C25.188,25.077,23.958,23.85,22.438,23.85z"/>
	<path fill="#FC8F2A" d="M37.356,24.513c-1.384,0-2.5,1.115-2.5,2.5c0,1.384,1.116,2.5,2.5,2.5c1.383,0,2.5-1.116,2.5-2.5
		C39.856,25.628,38.739,24.513,37.356,24.513z"/>
</g>
<g>
	<title>background</title>
	<rect id="canvas_background" x="-3.401" y="5.4" fill="none" width="20.201" height="20.201"/>
</g>
<title>Layer 1</title>
</svg>
