<svg width="60" height="40" xmlns="http://www.w3.org/2000/svg">
 <metadata id="metadata875">image/svg+xml</metadata>

 <g>
  <title>background</title>
  <rect fill="none" id="canvas_background" height="402" width="582" y="-1" x="-1"/>
 </g>
 <g>
  <title>Layer 1</title>
  <g id="g852">
   <path fill="#518db9" id="path850" d="m37.558559,15.958558c2.876,0 5.2,1.716 5.2,3.84c0,2.123 -2.324,3.839 -5.2,3.839c-2.875,0 -5.2,-1.716 -5.2,-3.839c0,-2.124 2.325,-3.84 5.2,-3.84"/>
  </g>
  <g id="g856">
   <path fill="#fc8f2a" id="path854" d="m32.438559,23.158558c1.811,0 3.279,1.076 3.279,2.4c0,1.324 -1.468,2.4 -3.279,2.4c-1.811,0 -3.28,-1.076 -3.28,-2.4c0,-1.324 1.469,-2.4 3.28,-2.4"/>
  </g>
  <g id="g860">
   <path fill="#b9dbf4" id="path858" d="m23.159559,14.038558c4.64,0 8.399,2.58 8.399,5.76l0,0c0,3.181 -3.764,5.76 -8.399,5.76c-4.641,0 -8.4,-2.577 -8.4,-5.76l0,0c-0.001,-3.18 3.761,-5.76 8.4,-5.76z"/>
  </g>
  <g id="g864">
   <path fill="#c8c8c8" id="path862" d="m29.559559,32.458558c-10.202,0 -18.501,-5.787 -18.501,-12.9c0,-7.113 8.299,-12.9 18.501,-12.9c10.2,0 18.499,5.787 18.499,12.9c0,7.113 -8.299,12.9 -18.499,12.9zm0,-24.8c-9.65,0 -17.501,5.338 -17.501,11.9c0,6.562 7.851,11.9 17.501,11.9c9.649,0 17.499,-5.338 17.499,-11.9c0,-6.562 -7.85,-11.9 -17.499,-11.9z"/>
  </g>
  <g id="g868">
   <path fill="#62a640" id="path866" d="m32.438559,12.358558c1.449,0 2.624,0.717 2.624,1.6c0,0.883 -1.175,1.6 -2.624,1.6c-1.448,0 -2.624,-0.717 -2.624,-1.6c0,-0.883 1.176,-1.6 2.624,-1.6"/>
  </g>
  <path stroke="#f0f0f0" fill="none" stroke-width="1.0648" d="m59.2317,37.062504c0,1.193568 -0.969551,2.169198 -2.155681,2.169198l-54.38895,0c-1.185119,0 -2.154669,-0.97563 -2.154669,-2.169198l0,-34.361924c0,-1.19255 0.969551,-2.168179 2.154669,-2.168179l54.38895,0c1.186131,0 2.155681,0.97563 2.155681,2.168179l0,34.361924z" id="path854-1"/>
 </g>
</svg>