<?xml version="1.0" encoding="utf-8"?>
<!-- Generator: Adobe Illustrator 15.1.0, SVG Export Plug-In . SVG Version: 6.00 Build 0)  -->
<!DOCTYPE svg PUBLIC "-//W3C//DTD SVG 1.1//EN" "http://www.w3.org/Graphics/SVG/1.1/DTD/svg11.dtd">
<svg version="1.1" id="Layer_1" xmlns="http://www.w3.org/2000/svg" xmlns:xlink="http://www.w3.org/1999/xlink" x="0px" y="0px"
	 width="60px" height="40px" viewBox="0 0 60 40" enable-background="new 0 0 60 40" xml:space="preserve">
<g>
	<path fill="none" stroke="#F0F0F0" stroke-width="1.0648" d="M59,36.87c0,1.172-0.958,2.13-2.13,2.13H3.129
		C1.958,39,1,38.042,1,36.87V3.129C1,1.958,1.958,1,3.129,1H56.87C58.042,1,59,1.958,59,3.129V36.87z"/>
</g>
<path fill="#518DB9" d="M29.8,16.592V8C23.8,8.6,19,13.748,19,20s4.8,11.4,10.8,12v-8.592c-1.2-0.492-2.4-1.824-2.4-3.408
	S28.6,17.084,29.8,16.592z"/>
<path fill="#B9DBF4" d="M34.432,18.8H43C42.424,13.1,38.2,8.563,32.2,8v8.592C33.4,16.952,34.023,17.768,34.432,18.8z"/>
<path fill="#FC8F2A" d="M32.2,23.408V32c6-0.563,10.224-5.1,10.8-10.8h-8.568C34.023,22.231,33.4,23.048,32.2,23.408z"/>
<path fill="none" d="M16.6,5.6h28.8v28.8H16.6V5.6z"/>
</svg>
