<?xml version="1.0" encoding="utf-8"?>
<!-- Generator: Adobe Illustrator 15.1.0, SVG Export Plug-In . SVG Version: 6.00 Build 0)  -->
<!DOCTYPE svg PUBLIC "-//W3C//DTD SVG 1.1//EN" "http://www.w3.org/Graphics/SVG/1.1/DTD/svg11.dtd">
<svg version="1.1" id="Layer_1" xmlns="http://www.w3.org/2000/svg" xmlns:xlink="http://www.w3.org/1999/xlink" x="0px" y="0px"
	 width="60px" height="40px" viewBox="-18.5 -8.5 60 40" enable-background="new -18.5 -8.5 60 40" xml:space="preserve">
<rect x="-4.432" y="10.846" transform="matrix(0.5382 0.8428 -0.8428 0.5382 14.2751 -3.061)" fill="#C8C8C8" width="28.725" height="1.3"/>
<rect x="9.35" y="-2.806" transform="matrix(0.8394 0.5436 -0.5436 0.8394 7.8844 -3.5805)" fill="#C8C8C8" width="1.301" height="28.711"/>
<rect x="-3" y="10.602" fill="#C8C8C8" width="26" height="1.3"/>
<g>
	<polygon id="XMLID_1_" fill="#518DB9" points="6.1,16.451 3.555,11.252 6.1,6.052 13.9,6.052 16.5,11.252 13.9,16.451 	"/>
	<path fill="#518DB9" d="M14.301,17.102H5.694l-2.864-5.85l2.864-5.85h8.606l2.926,5.85L14.301,17.102z M6.506,15.803h6.993
		l2.274-4.551l-2.274-4.55H6.506l-2.227,4.55L6.506,15.803z"/>
</g>
<path id="XMLID_112_" fill="#FC8F2A" d="M15.151,2.802l4.485,8.396l-5.006,8.504H5.038l-4.646-8.449l4.646-8.45H15.2 M16.658,0.202
	H3.5l-6.075,11.05L3.5,22.303h12.62l6.474-11.051L16.658,0.202L16.658,0.202z"/>
<g>
	<path fill="none" stroke="#F0F0F0" stroke-width="1.0648" d="M40.5,28.37c0,1.172-0.958,2.13-2.13,2.13h-53.741
		c-1.171,0-2.129-0.958-2.129-2.13V-5.371c0-1.171,0.958-2.129,2.129-2.129H38.37c1.172,0,2.13,0.958,2.13,2.129V28.37z"/>
</g>
</svg>
