<?xml version="1.0" encoding="utf-8"?>
<!-- Generator: Adobe Illustrator 15.1.0, SVG Export Plug-In . SVG Version: 6.00 Build 0)  -->
<!DOCTYPE svg PUBLIC "-//W3C//DTD SVG 1.1//EN" "http://www.w3.org/Graphics/SVG/1.1/DTD/svg11.dtd">
<svg version="1.1" id="Layer_1" xmlns="http://www.w3.org/2000/svg" xmlns:xlink="http://www.w3.org/1999/xlink" x="0px" y="0px"
	 width="60px" height="40px" viewBox="0 0 60 40" enable-background="new 0 0 60 40" xml:space="preserve">
<g>
	<path fill="none" stroke="#F0F0F0" stroke-width="1.0648" d="M59,36.87c0,1.172-0.958,2.13-2.13,2.13H3.129
		C1.958,39,1,38.042,1,36.87V3.129C1,1.958,1.958,1,3.129,1H56.87C58.042,1,59,1.958,59,3.129V36.87z"/>
</g>
<g>
	<title>background</title>
	<rect id="canvas_background" x="-3.401" y="5.4" fill="none" width="20.201" height="20.202"/>
</g>
<title>Layer 1</title>
<g>
	<polygon fill="#518DB9" points="40.692,14.25 19.307,14.25 16.933,9.75 43.067,9.75 	"/>
	<polygon fill="#62A640" points="37.127,20.25 22.872,20.25 20.496,15.75 39.504,15.75 	"/>
	<polygon fill="#D64541" points="29.973,32.25 27.652,27.75 32.346,27.75 	"/>
	<polygon fill="#FC8F2A" points="33.491,26.25 26.436,26.25 24.06,21.75 35.939,21.75 	"/>
</g>
</svg>
