<?xml version="1.0" encoding="utf-8"?>
<!-- Generator: Adobe Illustrator 15.1.0, SVG Export Plug-In . SVG Version: 6.00 Build 0)  -->
<!DOCTYPE svg PUBLIC "-//W3C//DTD SVG 1.1//EN" "http://www.w3.org/Graphics/SVG/1.1/DTD/svg11.dtd">
<svg version="1.1" id="Layer_1" xmlns="http://www.w3.org/2000/svg" xmlns:xlink="http://www.w3.org/1999/xlink" x="0px" y="0px"
	 width="60px" height="40px" viewBox="0 0 60 40" enable-background="new 0 0 60 40" xml:space="preserve">
<g>
	<path fill="none" stroke="#F0F0F0" stroke-width="1.0648" d="M59,36.87c0,1.172-0.958,2.13-2.13,2.13H3.129
		C1.958,39,1,38.042,1,36.87V3.129C1,1.958,1.958,1,3.129,1H56.87C58.042,1,59,1.958,59,3.129V36.87z"/>
</g>
<g>
	<title>background</title>
	<rect id="canvas_background" x="-3.401" y="5.4" fill="none" width="20.201" height="20.202"/>
</g>
<title>Layer 1</title>
<g>
	<rect id="svg_2" x="22.851" y="9.6" fill="#518DB9" width="6.5" height="3.9"/>
	<rect id="svg_3" x="17.65" y="9.6" fill="#FC8F2A" width="3.899" height="3.9"/>
	<rect id="svg_2_1_" x="29.351" y="14.8" fill="#518DB9" width="6.499" height="3.9"/>
	<g>
		<rect id="svg_2_2_" x="31.95" y="12.2" fill="#518DB9" width="1.3" height="3.899"/>
		<rect id="svg_2_3_" x="29.351" y="10.899" fill="#518DB9" width="3.899" height="1.301"/>
	</g>
	<rect id="svg_2_6_" x="37.149" y="20" fill="#518DB9" width="5.2" height="3.9"/>
	<rect id="svg_2_7_" x="25.45" y="21.3" fill="#62A640" width="5.2" height="3.9"/>
	<rect id="svg_2_8_" x="30.65" y="26.5" fill="#62A640" width="10.399" height="3.9"/>
	<rect id="svg_3_1_" x="17.65" y="21.3" fill="#FC8F2A" width="3.899" height="3.9"/>
	<g>
		<rect id="svg_2_5_" x="38.45" y="17.399" fill="#518DB9" width="1.3" height="3.9"/>
		<rect id="svg_2_4_" x="35.85" y="16.1" fill="#518DB9" width="3.9" height="1.3"/>
	</g>
	<g>
		<rect id="svg_2_10_" x="33.25" y="23.9" fill="#62A640" width="1.3" height="3.899"/>
		<rect id="svg_2_9_" x="30.65" y="22.6" fill="#62A640" width="3.899" height="1.301"/>
	</g>
</g>
</svg>
