<?xml version="1.0" encoding="utf-8"?>
<!-- Generator: Adobe Illustrator 15.1.0, SVG Export Plug-In . SVG Version: 6.00 Build 0)  -->
<!DOCTYPE svg PUBLIC "-//W3C//DTD SVG 1.1//EN" "http://www.w3.org/Graphics/SVG/1.1/DTD/svg11.dtd">
<svg version="1.1" id="Layer_1" xmlns="http://www.w3.org/2000/svg" xmlns:xlink="http://www.w3.org/1999/xlink" x="0px" y="0px"
	 width="60px" height="40px" viewBox="0 0 60 40" enable-background="new 0 0 60 40" xml:space="preserve">
<g>
	<path fill="none" stroke="#F0F0F0" stroke-width="1.0648" d="M59,36.87c0,1.172-0.958,2.13-2.13,2.13H3.129
		C1.958,39,1,38.042,1,36.87V3.129C1,1.958,1.958,1,3.129,1H56.87C58.042,1,59,1.958,59,3.129V36.87z"/>
</g>
<g>
	<rect x="17.5" y="8.5" fill="#C8C8C8" width="8" height="23"/>
	<rect x="26.5" y="8.5" fill="#518DB9" width="7" height="9"/>
	<rect x="34.5" y="8.5" fill="#518DB9" width="7" height="5"/>
	<rect x="26.5" y="19.5" fill="#FC8F2A" width="7" height="7"/>
	<rect x="34.5" y="16.5" fill="#518DB9" width="7" height="1"/>
	<rect x="34.5" y="28.5" fill="#62A640" width="7" height="1"/>
	<rect x="26.5" y="28.5" fill="#62A640" width="7" height="3"/>
	<rect x="34.5" y="14.5" fill="#518DB9" width="7" height="1"/>
	<rect x="34.5" y="19.5" fill="#FC8F2A" width="7" height="3"/>
	<rect x="34.5" y="30.5" fill="#62A640" width="7" height="1"/>
</g>
</svg>
