<?xml version="1.0" encoding="utf-8"?>
<!-- Generator: Adobe Illustrator 15.1.0, SVG Export Plug-In . SVG Version: 6.00 Build 0)  -->
<!DOCTYPE svg PUBLIC "-//W3C//DTD SVG 1.1//EN" "http://www.w3.org/Graphics/SVG/1.1/DTD/svg11.dtd">
<svg version="1.1"
	 id="Layer_1" xmlns:sodipodi="http://sodipodi.sourceforge.net/DTD/sodipodi-0.dtd" xmlns:rdf="http://www.w3.org/1999/02/22-rdf-syntax-ns#" xmlns:inkscape="http://www.inkscape.org/namespaces/inkscape" xmlns:dc="http://purl.org/dc/elements/1.1/" xmlns:svg="http://www.w3.org/2000/svg" xmlns:cc="http://creativecommons.org/ns#" sodipodi:docname="jump.svg" inkscape:version="1.0.2 (e86c870879, 2021-01-15, custom)"
	 xmlns="http://www.w3.org/2000/svg" xmlns:xlink="http://www.w3.org/1999/xlink" x="0px" y="0px" width="60px" height="40px"
	 viewBox="0 0 60 40" enable-background="new 0 0 60 40" xml:space="preserve">
<sodipodi:namedview  id="namedview87" inkscape:cy="20" bordercolor="#666666" showgrid="false" pagecolor="#ffffff" inkscape:zoom="28.025" borderopacity="1" objecttolerance="10" guidetolerance="10" inkscape:cx="30" gridtolerance="10" inkscape:window-maximized="1" inkscape:current-layer="Layer_1" inkscape:window-y="455" inkscape:window-x="3191" inkscape:window-height="1051" inkscape:window-width="1920" inkscape:pageshadow="2" inkscape:pageopacity="0">
	</sodipodi:namedview>
<g id="g70">
	<path id="path68" fill="none" stroke="#F0F0F0" stroke-width="1.0648" d="M59,36.87c0,1.172-0.958,2.13-2.13,2.13H3.129
		C1.958,39,1,38.042,1,36.87V3.129C1,1.958,1.958,1,3.129,1H56.87C58.042,1,59,1.958,59,3.129V36.87z"/>
</g>
<g>
	<polyline id="polyline72" fill="#468EBA" points="18.5,26 25.5,26 25.5,30 18.5,30 18.5,26 	"/>
	<polyline id="polyline74" fill="#468EBA" points="25.5,18 34.5,18 34.5,22 25.5,22 25.5,18 	"/>
	<polyline id="polyline80" fill="#468EBA" points="34.5,10 41.5,10 41.5,14 34.5,14 34.5,10 	"/>
</g>
</svg>
