<?xml version="1.0" encoding="utf-8"?>
<!-- Generator: Adobe Illustrator 15.1.0, SVG Export Plug-In . SVG Version: 6.00 Build 0)  -->
<!DOCTYPE svg PUBLIC "-//W3C//DTD SVG 1.1//EN" "http://www.w3.org/Graphics/SVG/1.1/DTD/svg11.dtd">
<svg version="1.1" id="Layer_1" xmlns="http://www.w3.org/2000/svg" xmlns:xlink="http://www.w3.org/1999/xlink" x="0px" y="0px"
	 width="60px" height="40px" viewBox="-0.5 -0.5 60 40" enable-background="new -0.5 -0.5 60 40" xml:space="preserve">
<path fill="#518DB9" d="M37.1,25.27c-0.345,0-0.679-0.117-0.949-0.332l-8.885-7.109l-12.546,3.584
	c-0.804,0.223-1.649-0.237-1.879-1.044c-0.232-0.808,0.237-1.648,1.042-1.879l13.3-3.8c0.469-0.139,0.98-0.037,1.366,0.274l8.3,6.64
	l6.465-8.288c0.515-0.661,1.463-0.78,2.133-0.264c0.664,0.517,0.775,1.472,0.265,2.134l-7.41,9.5
	c-0.251,0.32-0.616,0.524-1.022,0.575C37.219,25.266,37.159,25.27,37.1,25.27z"/>
<circle fill="#FC8F2A" stroke="#FC8F2A" cx="44.7" cy="14.25" r="3.8"/>
<circle fill="#FC8F2A" stroke="#FC8F2A" cx="37.1" cy="23.75" r="3.8"/>
<circle fill="#FC8F2A" stroke="#FC8F2A" cx="27.6" cy="16.15" r="3.8"/>
<circle fill="#FC8F2A" stroke="#FC8F2A" cx="14.8" cy="20.45" r="3.8"/>
<g>
	<path fill="none" stroke="#F0F0F0" stroke-width="1.0648" d="M58.5,36.37c0,1.172-0.958,2.13-2.13,2.13H2.629
		c-1.171,0-2.129-0.958-2.129-2.13V2.629C0.5,1.458,1.458,0.5,2.629,0.5H56.37c1.172,0,2.13,0.958,2.13,2.129V36.37z"/>
</g>
</svg>
