<?xml version="1.0" encoding="utf-8"?>
<!-- Generator: Adobe Illustrator 15.1.0, SVG Export Plug-In . SVG Version: 6.00 Build 0)  -->
<!DOCTYPE svg PUBLIC "-//W3C//DTD SVG 1.1//EN" "http://www.w3.org/Graphics/SVG/1.1/DTD/svg11.dtd">
<svg version="1.1"
	 id="svg2" xmlns:dc="http://purl.org/dc/elements/1.1/" xmlns:rdf="http://www.w3.org/1999/02/22-rdf-syntax-ns#" xmlns:cc="http://creativecommons.org/ns#" xmlns:svg="http://www.w3.org/2000/svg"
	 xmlns="http://www.w3.org/2000/svg" xmlns:xlink="http://www.w3.org/1999/xlink" x="0px" y="0px" width="217.797px"
	 height="96.879px" viewBox="0 0 217.797 96.879" enable-background="new 0 0 217.797 96.879" xml:space="preserve">
<path id="path2996" fill="#F4AE3D" d="M217.291,9.295c0,4.66-3.777,8.437-8.438,8.437s-8.438-3.777-8.438-8.437
	s3.777-8.437,8.438-8.437S217.291,4.636,217.291,9.295L217.291,9.295z"/>
<path id="path3803" fill="#F4AE3D" d="M167.316,12.164c0,6.416-9.885,11.617-22.078,11.617s-22.079-5.201-22.079-11.617
	c0-6.416,9.886-11.617,22.079-11.617S167.316,5.749,167.316,12.164z"/>
<path fill="#F4AE3D" d="M169.03,68.018c-2.276-4.178-25.649,12.536-51.972,12.149C94.109,79.829,83.31,52.83,60.699,52.83
	C38.762,53.168-2.073,76.117,0.627,80.504c2.7,4.388,18.586-9.928,52.31-10.461c24.317-0.385,30.039,25.816,59.06,26.322
	C132.244,96.719,172.877,75.072,169.03,68.018z"/>
<path id="path3805-1" fill="#F4AE3D" d="M73.291,27.349c22.611,0,33.411,26.999,56.36,27.336
	c26.322,0.388,49.695-16.326,51.972-12.149c3.847,7.055-36.786,28.702-57.034,28.349c-29.021-0.506-34.743-26.708-59.06-26.323
	c-33.723,0.533-49.61,14.85-52.31,10.462S51.354,27.686,73.291,27.349z"/>
<path id="path3805-7" fill="#F4AE3D" d="M84.09,3.05c22.611,0,33.411,26.999,56.359,27.336
	c26.323,0.387,49.695-16.327,51.973-12.149c3.846,7.055-36.786,28.702-57.035,28.348c-29.021-0.506-34.742-26.708-59.059-26.323
	c-33.723,0.533-49.61,14.849-52.31,10.462C21.318,26.336,62.154,3.388,84.09,3.05z"/>
<polygon fill="#F4AE3D" points="162.618,31.907 126.508,38.319 126.508,80.167 155.929,80.167 162.618,76.305 "/>
</svg>
