<?xml version="1.0" encoding="utf-8"?>
<!-- Generator: Adobe Illustrator 15.1.0, SVG Export Plug-In . SVG Version: 6.00 Build 0)  -->
<!DOCTYPE svg PUBLIC "-//W3C//DTD SVG 1.1//EN" "http://www.w3.org/Graphics/SVG/1.1/DTD/svg11.dtd">
<svg version="1.1" id="Layer_1" xmlns="http://www.w3.org/2000/svg" xmlns:xlink="http://www.w3.org/1999/xlink" x="0px" y="0px"
	 width="60px" height="40px" viewBox="0 0 60 40" enable-background="new 0 0 60 40" xml:space="preserve">
<path fill="#518DB9" d="M38.141,21.9l-1.439,1.56l-1.439-1.56c-0.141-0.176-0.317-0.401-0.51-0.65
	c-0.325,0.568-0.586,1.198-1.075,1.604c-0.154,0.128-0.355,0.231-0.575,0.318v5.688L26.98,25.74l-1.08-0.48V10.14l0.12-0.12
	l4.08,1.32c0.12-0.84,0.36-1.56,0.718-2.28L25.9,7.5l-8.4,3.96V30.9c0,0.119,0,0.24,0.12,0.24c0,0,0,0,0,0.118l0.12,0.121
	c0,0,0,0,0.12,0c0,0,0.12,0,0.24,0.119c0,0,0,0,0.12,0c0.12,0,0.24,0,0.24-0.119L25.9,27.9l7.2,3.6l8.4-3.96V17.1
	C40.3,19.14,38.74,21.061,38.141,21.9z"/>
<g>
	<path fill="none" stroke="#F0F0F0" stroke-width="1.0648" d="M56.87,1H3.129C1.958,1,1,1.958,1,3.129V36.87
		C1,38.042,1.958,39,3.129,39H56.87c1.172,0,2.13-0.958,2.13-2.13V3.129C59,1.958,58.042,1,56.87,1z"/>
</g>
<g>
	<path fill="#FC8F2A" d="M35.965,9.782c1.435-0.142,2.94,0.636,3.188,1.749c0.144,0.641-0.064,1.312-0.349,1.633
		c-0.423,0.473-1.488,0.731-2.061,1.049c-0.864,0.48-1.637,1.201-2.063,2.139c-0.434,0.967-0.545,2.63-1.36,3.15
		c-0.666,0.426-1.801,0.244-2.293-0.193c-1.956-1.738-0.5-5.454,0.7-7.04C32.73,10.94,34.082,9.965,35.965,9.782z M31.104,17.753
		c0.192,0.601,0.937,0.665,1.437,0.273c0.555-0.434,1.297-2.039,0.545-2.722c-0.16-0.149-0.336-0.168-0.545-0.156
		C31.652,15.204,30.741,16.632,31.104,17.753z"/>
	<path fill="#D64541" d="M32.541,15.148c0.209-0.015,0.383,0.007,0.545,0.153c0.752,0.687,0.01,2.291-0.545,2.722
		c-0.5,0.395-1.244,0.332-1.437-0.273C30.741,16.632,31.652,15.204,32.541,15.148z"/>
	<path fill="#62A640" d="M37.209,15.964c-0.227,0.191-0.432,0.397-0.624,0.623c-0.437,0.546-1.196,2.195-1.206,2.059
		c-0.395,0.616-0.65,1.37-1.205,1.829c-0.75,0.622-2.442,0.783-3.381,0.273c-1.239-0.675-1.805-2.257-1.79-3.888
		c0.019-2.209,1.307-4.494,2.684-5.95c1.481-1.567,3.528-2.688,5.948-2.684c1.216,0.003,2.207,0.467,2.839,0.972
		c0.57,0.46,1.403,1.216,1.515,2.333C42.223,13.823,37.614,15.724,37.209,15.964z M31.726,12.269
		c-1.198,1.585-2.655,5.301-0.698,7.04c0.492,0.438,1.627,0.619,2.293,0.193c0.815-0.52,0.922-2.183,1.36-3.15
		c0.423-0.938,1.194-1.659,2.063-2.139c0.572-0.315,1.638-0.576,2.061-1.049c0.284-0.323,0.487-0.992,0.349-1.633
		c-0.247-1.113-1.755-1.891-3.189-1.749C34.082,9.965,32.73,10.94,31.726,12.269z"/>
</g>
</svg>
