<?xml version="1.0" encoding="utf-8"?>
<!-- Generator: Adobe Illustrator 15.1.0, SVG Export Plug-In . SVG Version: 6.00 Build 0)  -->
<!DOCTYPE svg PUBLIC "-//W3C//DTD SVG 1.1//EN" "http://www.w3.org/Graphics/SVG/1.1/DTD/svg11.dtd">
<svg version="1.1" id="Layer_1" xmlns="http://www.w3.org/2000/svg" xmlns:xlink="http://www.w3.org/1999/xlink" x="0px" y="0px"
	 width="60px" height="40px" viewBox="-18.5 -8.5 60 40" enable-background="new -18.5 -8.5 60 40" xml:space="preserve">
<path fill="#FC8F2A" d="M18.2-1c-2.641,0-4.8,2.16-4.8,4.8c0,2.641,4.8,8.4,4.8,8.4S23,6.44,23,3.8C23,1.16,20.84-1,18.2-1z
	 M18.2,5.6c-0.96,0-1.8-0.84-1.8-1.8c0-0.959,0.84-1.8,1.8-1.8S20,2.84,20,3.8C20,4.76,19.16,5.6,18.2,5.6z"/>
<path fill="#518DB9" d="M19.641,13.4l-1.44,1.56l-1.44-1.56c-0.479-0.601-1.319-1.68-2.16-2.88v9.839L8.48,17.24L7.4,16.76l0,0V1.64
	l0.12-0.12l4.08,1.32C11.72,2,11.96,1.28,12.319,0.56L7.4-1L-1,2.96V22.4c0,0.119,0,0.24,0.12,0.24c0,0,0,0,0,0.119l0.12,0.121
	c0,0,0,0,0.12,0c0,0,0.12,0,0.24,0.119c0,0,0,0,0.12,0l0,0c0.12,0,0.24,0,0.24-0.119L7.4,19.4l7.2,3.6l8.4-3.96V8.6
	C21.8,10.64,20.24,12.56,19.641,13.4z"/>
<g>
	<path fill="none" stroke="#F0F0F0" stroke-width="1.0648" d="M40.5,28.37c0,1.172-0.958,2.13-2.13,2.13h-53.741
		c-1.171,0-2.129-0.958-2.129-2.13V-5.371c0-1.171,0.958-2.129,2.129-2.129H38.37c1.172,0,2.13,0.958,2.13,2.129V28.37z"/>
</g>
</svg>
