<?xml version="1.0" encoding="utf-8"?>
<!-- Generator: Adobe Illustrator 15.1.0, SVG Export Plug-In . SVG Version: 6.00 Build 0)  -->
<!DOCTYPE svg PUBLIC "-//W3C//DTD SVG 1.1//EN" "http://www.w3.org/Graphics/SVG/1.1/DTD/svg11.dtd">
<svg version="1.1" id="Layer_1" xmlns="http://www.w3.org/2000/svg" xmlns:xlink="http://www.w3.org/1999/xlink" x="0px" y="0px"
	 width="60px" height="40px" viewBox="0 0 60 40" enable-background="new 0 0 60 40" xml:space="preserve">
<g>
	<path fill="none" stroke="#F0F0F0" stroke-width="1.0648" d="M59,36.87c0,1.172-0.958,2.13-2.13,2.13H3.129
		C1.958,39,1,38.042,1,36.87V3.129C1,1.958,1.958,1,3.129,1H56.87C58.042,1,59,1.958,59,3.129V36.87z"/>
</g>
<g>
	<rect x="30.5" y="18.7" fill="#C8C8C8" width="1.201" height="12.8"/>
	<rect x="18.5" y="8.5" fill="#518DB9" width="8" height="9"/>
	<rect x="18.5" y="18.5" fill="#62A640" width="8" height="5"/>
	<rect x="18.5" y="24.5" fill="#FC8F2A" width="8" height="7"/>
	<rect x="28.5" y="8.5" fill="#518DB9" width="4" height="7"/>
	<rect x="28.5" y="16.5" fill="#62A640" width="4" height="9"/>
	<rect x="28.5" y="26.5" fill="#FC8F2A" width="4" height="5"/>
	<rect x="34.5" y="18.5" fill="#FC8F2A" width="6" height="13"/>
	<rect x="34.5" y="12.5" fill="#62A640" width="6" height="5"/>
	<rect x="34.5" y="8.5" fill="#518DB9" width="6" height="3"/>
</g>
</svg>
