<?xml version="1.0" encoding="utf-8"?>
<!-- Generator: Adobe Illustrator 15.1.0, SVG Export Plug-In . SVG Version: 6.00 Build 0)  -->
<!DOCTYPE svg PUBLIC "-//W3C//DTD SVG 1.1//EN" "http://www.w3.org/Graphics/SVG/1.1/DTD/svg11.dtd">
<svg version="1.1" id="Layer_1" xmlns="http://www.w3.org/2000/svg" xmlns:xlink="http://www.w3.org/1999/xlink" x="0px" y="0px"
	 width="60px" height="40px" viewBox="0 0 60 40" enable-background="new 0 0 60 40" xml:space="preserve">
<g>
	<path fill="#FC8F2A" d="M36.289,19.242h-0.24c-2.227,0-4.033,1.804-4.033,4.033c0,2.227,1.807,4.031,4.033,4.031h0.24
		c-1.692,1.603-3.959,2.472-6.289,2.419c-1.783,0.02-3.529-0.474-5.04-1.411l-1.25,1.25c1.884,1.181,4.061,1.773,6.289,1.773
		c5.546,0,10.081-3.608,10.081-8.063C40.08,21.137,38.417,19.374,36.289,19.242z M38.064,23.476
		c-0.102,1.038-0.98,1.815-2.016,1.815c-1.117,0-2.018-0.902-2.018-2.017c0-1.118,0.927-2.016,2.018-2.016
		c1.047,0,1.914,0.784,2.016,1.813C38.064,23.204,38.064,23.343,38.064,23.476z"/>
	<path fill="#D64541" d="M36.146,19.241c-0.174-2-0.86-3.928-2.012-5.588c-3.098-4.597-8.623-6.344-12.318-3.856
		c-1.772,1.195-2.307,3.558-1.228,5.397l0.134,0.2c1.244,1.848,3.75,2.335,5.597,1.092c1.847-1.243,2.335-3.75,1.091-5.596
		l-0.134-0.202c2.274,0.51,4.259,1.909,5.517,3.868c1.015,1.466,1.58,3.188,1.648,4.966l0.094,0.018
		c0.467-0.19,0.977-0.299,1.512-0.299L36.146,19.241L36.146,19.241z M25.194,14.814c-0.927,0.624-2.19,0.356-2.798-0.546
		c-0.585-0.871-0.417-2.028,0.377-2.685c0.11-0.075,0.226-0.152,0.334-0.225c0.918-0.496,2.052-0.203,2.633,0.658
		C26.362,12.939,26.118,14.194,25.194,14.814z"/>
	<path fill="#62A640" d="M24.96,28.313c0.486,0.302,1,0.552,1.527,0.759c0.906-0.739,1.497-1.851,1.497-3.111
		c0-2.227-1.805-4.031-4.032-4.031H23.71c1.693-1.604,3.962-2.47,6.29-2.419c1.209-0.014,2.399,0.213,3.513,0.65
		c0.595-0.486,1.324-0.799,2.13-0.88c-1.727-0.93-3.668-1.412-5.643-1.384c-5.544,0-10.08,3.61-10.08,8.064
		c0,2.138,1.664,3.901,3.79,4.031h0.242c0.147,0,0.285-0.028,0.429-0.043c-0.228-0.122-0.451-0.25-0.67-0.387L24.96,28.313z
		 M21.936,26.163c0-0.131,0-0.271,0-0.403c0.101-1.037,0.979-1.813,2.016-1.813c1.113,0,2.016,0.901,2.016,2.016
		c0,1.117-0.927,2.016-2.016,2.016C22.903,27.978,22.037,27.192,21.936,26.163z"/>
	<path fill="#62A640" d="M24.96,28.313l-1.25,1.25c0.219,0.138,0.443,0.265,0.67,0.386c0.797-0.084,1.518-0.396,2.106-0.877
		C25.959,28.865,25.446,28.615,24.96,28.313z"/>
</g>
<g>
	<path fill="none" stroke="#F0F0F0" stroke-width="1.0648" d="M59,36.87c0,1.172-0.958,2.13-2.13,2.13H3.129
		C1.958,39,1,38.042,1,36.87V3.129C1,1.958,1.958,1,3.129,1H56.87C58.042,1,59,1.958,59,3.129V36.87z"/>
</g>
</svg>
