<?xml version="1.0" encoding="utf-8"?>
<!-- Generator: Adobe Illustrator 15.1.0, SVG Export Plug-In . SVG Version: 6.00 Build 0)  -->
<!DOCTYPE svg PUBLIC "-//W3C//DTD SVG 1.1//EN" "http://www.w3.org/Graphics/SVG/1.1/DTD/svg11.dtd">
<svg version="1.1" id="Layer_1" xmlns="http://www.w3.org/2000/svg" xmlns:xlink="http://www.w3.org/1999/xlink" x="0px" y="0px"
	 width="60px" height="40px" viewBox="-18.5 -8.5 60 40" enable-background="new -18.5 -8.5 60 40" xml:space="preserve">
<rect x="-1.5" y="16.9" fill="#62A640" width="4.8" height="7.199"/>
<rect x="16.5" y="15.7" fill="#D64541" width="4.8" height="8.399"/>
<rect x="10.5" y="12.101" fill="#FC8F2A" width="4.8" height="11.999"/>
<rect x="4.5" y="18.1" fill="#ADE095" width="4.8" height="6"/>
<rect x="0.712" y="10.006" transform="matrix(0.9276 -0.3737 0.3737 0.9276 -3.7691 2.2678)" fill="#B9DBF4" width="6.505" height="1.698"/>
<rect x="5.99" y="5.728" transform="matrix(0.7011 -0.7131 0.7131 0.7011 -1.6274 9.275)" fill="#B9DBF4" width="8.518" height="1.7"/>
<rect x="12.95" y="1.675" transform="matrix(0.9575 -0.2885 0.2885 0.9575 -0.0206 4.9083)" fill="#B9DBF4" width="7.387" height="1.698"/>
<circle fill="#518DB9" cx="0.9" cy="12.1" r="2.4"/>
<circle fill="#518DB9" cx="6.9" cy="9.7" r="2.4"/>
<circle fill="#518DB9" cx="12.9" cy="3.7" r="2.4"/>
<circle fill="#518DB9" cx="20.1" cy="1.3" r="2.4"/>
<g>
	<path fill="none" stroke="#F0F0F0" stroke-width="1.0648" d="M40.5,28.37c0,1.172-0.958,2.13-2.13,2.13h-53.741
		c-1.171,0-2.129-0.958-2.129-2.13V-5.371c0-1.171,0.958-2.129,2.129-2.129H38.37c1.172,0,2.13,0.958,2.13,2.129V28.37z"/>
</g>
</svg>
