<?xml version="1.0" encoding="utf-8"?>
<!-- Generator: Adobe Illustrator 15.1.0, SVG Export Plug-In . SVG Version: 6.00 Build 0)  -->
<!DOCTYPE svg PUBLIC "-//W3C//DTD SVG 1.1//EN" "http://www.w3.org/Graphics/SVG/1.1/DTD/svg11.dtd">
<svg version="1.1" id="Layer_1" xmlns="http://www.w3.org/2000/svg" xmlns:xlink="http://www.w3.org/1999/xlink" x="0px" y="0px"
	 width="60px" height="40px" viewBox="-18.5 -8.5 60 40" enable-background="new -18.5 -8.5 60 40" xml:space="preserve">
<path fill="#62A640" d="M23.15,9.65h-10.8v-10.8C18.314-1.15,23.15,3.686,23.15,9.65"/>
<path fill="#FC8F2A" d="M20.45,12.35c0,3.753-1.917,7.061-4.82,9.004l-5.197-9.004H20.45"/>
<path fill="#518DB9" d="M9.65,23.15c-3.753,0-7.061-1.917-9.004-4.82l8.761-5.063l5.05,8.762C13.025,22.745,11.377,23.15,9.65,23.15
	"/>
<path fill="#B9DBF4" d="M-1.15,12.35c0-5.964,4.835-10.8,10.8-10.8v10.017l-9.679,5.589C-0.746,15.725-1.15,14.078-1.15,12.35z"/>
<g>
	<path fill="none" stroke="#F0F0F0" stroke-width="1.0648" d="M40.5,28.37c0,1.172-0.958,2.13-2.13,2.13h-53.741
		c-1.171,0-2.129-0.958-2.129-2.13V-5.371c0-1.171,0.958-2.129,2.129-2.129H38.37c1.172,0,2.13,0.958,2.13,2.129V28.37z"/>
</g>
</svg>
