<?xml version="1.0" encoding="utf-8"?>
<!-- Generator: Adobe Illustrator 15.1.0, SVG Export Plug-In . SVG Version: 6.00 Build 0)  -->
<!DOCTYPE svg PUBLIC "-//W3C//DTD SVG 1.1//EN" "http://www.w3.org/Graphics/SVG/1.1/DTD/svg11.dtd">
<svg version="1.1" id="Layer_1" xmlns="http://www.w3.org/2000/svg" xmlns:xlink="http://www.w3.org/1999/xlink" x="0px" y="0px"
	 width="60px" height="40px" viewBox="-18.5 -8.5 60 40" enable-background="new -18.5 -8.5 60 40" xml:space="preserve">
<path fill="#518DB9" d="M4.3,10.3c2.655,0,4.799,2.145,4.799,4.8c0,2.654-2.145,4.799-4.799,4.799s-4.8-2.145-4.8-4.799
	C-0.5,12.445,1.646,10.3,4.3,10.3"/>
<path fill="#FC8F2A" d="M15.699,17.5c1.657,0,3,1.345,3,3s-1.343,3-3,3c-1.656,0-3-1.345-3-3S14.043,17.5,15.699,17.5"/>
<path fill="#62A640" d="M16.301-0.5c3.977,0,7.199,3.224,7.199,7.2l0,0c0,3.976-3.226,7.2-7.199,7.2c-3.978,0-7.201-3.221-7.201-7.2
	l0,0C9.1,2.725,12.325-0.5,16.301-0.5z"/>
<g>
	<path fill="none" stroke="#F0F0F0" stroke-width="1.0648" d="M40.5,28.37c0,1.172-0.958,2.13-2.13,2.13h-53.741
		c-1.171,0-2.129-0.958-2.129-2.13V-5.371c0-1.171,0.958-2.129,2.129-2.129H38.37c1.172,0,2.13,0.958,2.13,2.129V28.37z"/>
</g>
</svg>
