<?xml version="1.0" encoding="utf-8"?>
<!-- Generator: Adobe Illustrator 15.1.0, SVG Export Plug-In . SVG Version: 6.00 Build 0)  -->
<!DOCTYPE svg PUBLIC "-//W3C//DTD SVG 1.1//EN" "http://www.w3.org/Graphics/SVG/1.1/DTD/svg11.dtd">
<svg version="1.1" id="Layer_1" xmlns="http://www.w3.org/2000/svg" xmlns:xlink="http://www.w3.org/1999/xlink" x="0px" y="0px"
	 width="60px" height="40px" viewBox="0 0 60 40" enable-background="new 0 0 60 40" xml:space="preserve">
<g>
	<path fill="none" stroke="#F0F0F0" stroke-width="1.0648" d="M59,36.87c0,1.172-0.958,2.13-2.13,2.13H3.129
		C1.958,39,1,38.042,1,36.87V3.129C1,1.958,1.958,1,3.129,1H56.87C58.042,1,59,1.958,59,3.129V36.87z"/>
</g>
<g>
	<path fill="#FC8F2A" d="M32.895,11.63c2.766-0.271,5.677,1.229,6.15,3.375c0.271,1.236-0.123,2.529-0.674,3.15
		c-0.813,0.913-2.873,1.413-3.977,2.025c-1.668,0.925-3.157,2.317-3.974,4.126c-0.842,1.865-1.051,5.072-2.625,6.074
		c-1.285,0.82-3.474,0.469-4.425-0.375c-3.775-3.349-0.961-10.517,1.35-13.575C26.659,13.865,29.266,11.986,32.895,11.63z
		 M23.52,27.006c0.374,1.16,1.805,1.283,2.774,0.527c1.065-0.834,2.502-3.932,1.05-5.25c-0.313-0.285-0.652-0.325-1.05-0.301
		C24.578,22.09,22.822,24.844,23.52,27.006z"/>
	<path fill="#D64541" d="M26.294,21.981c0.398-0.026,0.735,0.015,1.05,0.299c1.453,1.321,0.016,4.418-1.05,5.25
		c-0.969,0.759-2.401,0.636-2.774-0.526C22.822,24.844,24.578,22.09,26.294,21.981z"/>
	<path fill="#518DB9" d="M35.291,23.557c-0.429,0.369-0.828,0.769-1.197,1.199c-0.846,1.058-2.311,4.236-2.325,3.976
		c-0.763,1.189-1.258,2.64-2.325,3.524c-1.447,1.201-4.713,1.512-6.525,0.527c-2.389-1.299-3.477-4.351-3.45-7.5
		c0.036-4.26,2.519-8.665,5.175-11.477c2.855-3.021,6.809-5.186,11.474-5.175c2.348,0.004,4.256,0.898,5.473,1.875
		c1.106,0.887,2.711,2.344,2.926,4.5C44.965,19.426,36.078,23.092,35.291,23.557z M24.72,16.431
		c-2.312,3.059-5.125,10.224-1.35,13.575c0.95,0.844,3.139,1.195,4.424,0.375c1.574-1.002,1.784-4.209,2.625-6.074
		c0.816-1.809,2.305-3.201,3.975-4.126c1.102-0.611,3.162-1.112,3.975-2.025c0.553-0.623,0.946-1.914,0.672-3.15
		c-0.47-2.146-3.383-3.646-6.148-3.375C29.266,11.986,26.659,13.865,24.72,16.431z"/>
</g>
</svg>
