<?xml version="1.0" encoding="utf-8"?>
<!-- Generator: Adobe Illustrator 15.1.0, SVG Export Plug-In . SVG Version: 6.00 Build 0)  -->
<!DOCTYPE svg PUBLIC "-//W3C//DTD SVG 1.1//EN" "http://www.w3.org/Graphics/SVG/1.1/DTD/svg11.dtd">
<svg version="1.1" id="Layer_1" xmlns="http://www.w3.org/2000/svg" xmlns:xlink="http://www.w3.org/1999/xlink" x="0px" y="0px"
	 width="60px" height="40px" viewBox="-18.5 -8.5 60 40" enable-background="new -18.5 -8.5 60 40" xml:space="preserve">
<path fill="#ADE095" d="M1.12,8.283c-0.362,0-0.711-0.2-0.884-0.545c-0.244-0.49-0.046-1.083,0.442-1.325l7.41-3.705
	c0.279-0.14,0.605-0.14,0.884,0l6.695,3.347l4.441-5.551c0.34-0.423,0.962-0.495,1.389-0.154c0.427,0.34,0.495,0.961,0.155,1.389
	l-4.94,6.175c-0.292,0.363-0.801,0.473-1.213,0.265L8.53,4.695L1.562,8.178C1.42,8.25,1.27,8.283,1.12,8.283z"/>
<circle fill="#62A640" cx="1.12" cy="7.295" r="2.47"/>
<circle fill="#62A640" cx="8.53" cy="3.59" r="2.47"/>
<circle fill="#62A640" cx="15.94" cy="7.295" r="2.47"/>
<circle fill="#62A640" cx="20.88" cy="1.12" r="2.47"/>
<path fill="#518DB9" d="M15.94,21.867c-0.225,0-0.441-0.076-0.618-0.215L9.547,17.03l-8.155,2.33
	c-0.523,0.146-1.072-0.154-1.222-0.679c-0.15-0.525,0.155-1.069,0.678-1.222l8.645-2.471c0.306-0.085,0.638-0.021,0.889,0.181
	l5.395,4.316l4.201-5.387c0.334-0.431,0.952-0.507,1.387-0.172c0.431,0.336,0.505,0.956,0.172,1.387L16.72,21.49
	c-0.163,0.208-0.401,0.34-0.665,0.373C16.018,21.865,15.979,21.867,15.94,21.867z"/>
<circle fill="#FC8F2A" cx="20.88" cy="14.705" r="2.47"/>
<circle fill="#FC8F2A" cx="15.94" cy="20.88" r="2.47"/>
<circle fill="#FC8F2A" cx="9.765" cy="15.94" r="2.47"/>
<circle fill="#FC8F2A" cx="1.12" cy="18.41" r="2.47"/>
<g>
	<path fill="none" stroke="#F0F0F0" stroke-width="1.0648" d="M40.5,28.37c0,1.172-0.958,2.13-2.13,2.13h-53.741
		c-1.171,0-2.129-0.958-2.129-2.13V-5.371c0-1.171,0.958-2.129,2.129-2.129H38.37c1.172,0,2.13,0.958,2.13,2.129V28.37z"/>
</g>
</svg>
