<?xml version="1.0" encoding="utf-8"?>
<!-- Generator: Adobe Illustrator 15.1.0, SVG Export Plug-In . SVG Version: 6.00 Build 0)  -->
<!DOCTYPE svg PUBLIC "-//W3C//DTD SVG 1.1//EN" "http://www.w3.org/Graphics/SVG/1.1/DTD/svg11.dtd">
<svg version="1.1" id="Layer_1" xmlns="http://www.w3.org/2000/svg" xmlns:xlink="http://www.w3.org/1999/xlink" x="0px" y="0px"
	 width="60px" height="40px" viewBox="-18.5 -8.5 60 40" enable-background="new -18.5 -8.5 60 40" xml:space="preserve">
<polyline fill="#B9DBF4" points="18,13.8 25,13.8 25,16.6 18,16.6 18,13.8 "/>
<polyline fill="#D64541" points="7.5,-1.6 14.5,-1.6 14.5,1.2 7.5,1.2 7.5,-1.6 "/>
<polyline fill="#B9DBF4" points="14.5,15.2 7.5,15.2 7.5,8.2 14.5,8.2 14.5,15.2 "/>
<polyline fill="#FC8F2A" points="-3,6.8 4,6.8 4,11 -3,11 -3,6.8 "/>
<rect x="-3" y="11" fill="#B9DBF4" width="7" height="5.6"/>
<rect x="-3" y="16.6" fill="#518DB9" width="7" height="7"/>
<rect x="7.5" y="15.2" fill="#518DB9" width="7" height="8.399"/>
<rect x="18" y="16.6" fill="#518DB9" width="7" height="7"/>
<polyline fill="#FC8F2A" points="7.5,1.2 14.5,1.2 14.5,8.2 7.5,8.2 7.5,1.2 "/>
<g>
	<path fill="none" stroke="#F0F0F0" d="M40.5,28.37c0,1.172-0.958,2.13-2.13,2.13h-53.741c-1.171,0-2.129-0.958-2.129-2.13V-5.371
		c0-1.171,0.958-2.129,2.129-2.129H38.37c1.172,0,2.13,0.958,2.13,2.129V28.37z"/>
</g>
</svg>
