<?xml version="1.0" encoding="utf-8"?>
<!-- Generator: Adobe Illustrator 15.1.0, SVG Export Plug-In . SVG Version: 6.00 Build 0)  -->
<!DOCTYPE svg PUBLIC "-//W3C//DTD SVG 1.1//EN" "http://www.w3.org/Graphics/SVG/1.1/DTD/svg11.dtd">
<svg version="1.1" id="Layer_1" xmlns="http://www.w3.org/2000/svg" xmlns:xlink="http://www.w3.org/1999/xlink" x="0px" y="0px"
	 width="60px" height="40px" viewBox="-18.5 -8.5 60 40" enable-background="new -18.5 -8.5 60 40" xml:space="preserve">
<path fill="#518DB9" d="M12.009-0.352h-0.012v0.001c0-0.008-0.003-0.017-0.003-0.025c0-0.012,0-0.025-0.007-0.041
	c0-0.018-0.003-0.04-0.005-0.057c0,0,0,0,0-0.001C11.9-0.772,11.531-1,11.091-1h-7.26c-0.276,0-0.52,0.086-0.69,0.229l-3.363,2.402
	c-0.004,0-0.004,0.001-0.004,0.001c-0.021,0.015-0.04,0.03-0.059,0.046c-0.012,0.006-0.018,0.017-0.027,0.023
	C-0.32,1.71-0.332,1.72-0.339,1.729c-0.006,0.006-0.018,0.019-0.025,0.029C-0.369,1.766-0.38,1.777-0.386,1.783
	c-0.006,0.011-0.012,0.02-0.02,0.03c-0.006,0.009-0.013,0.019-0.018,0.029C-0.43,1.851-0.435,1.859-0.437,1.871
	c-0.006,0.01-0.011,0.02-0.018,0.033C-0.457,1.913-0.46,1.92-0.463,1.932c-0.003,0.01-0.01,0.021-0.011,0.031
	C-0.479,1.976-0.48,1.988-0.485,2c0,0.007,0,0.017-0.005,0.026c-0.001,0.02-0.001,0.042-0.001,0.063v14.723h1.875V4h3.75v12.813
	h2.225L7.321,3.552L10.395,1.5l0.039,13.487l1.575-1.01V-0.352z M6.21,1.5H3.259l2.049-1.25h2.951L6.21,1.5z"/>
<path fill="#D64541" d="M10.439,16.588l0.007,2.857L7.373,21.5l-0.01-3.541H5.134V21.5h-3.75v-3.541h-1.875v5.389
	c0,0.363,0.402,0.652,0.907,0.652h7.258c0.026,0,0.059,0,0.087-0.004c0.015,0,0.027-0.006,0.044-0.006
	c0.015-0.002,0.032-0.002,0.049-0.002c0.014-0.006,0.028-0.012,0.044-0.014c0.018,0,0.03-0.002,0.043-0.004
	c0.016,0,0.028-0.006,0.045-0.014c0.016-0.006,0.03-0.01,0.04-0.012c0.013,0,0.026-0.008,0.039-0.018
	c0.013-0.006,0.026-0.01,0.041-0.012c0.013-0.01,0.025-0.012,0.039-0.02c0.015-0.004,0.028-0.008,0.039-0.02
	c0.014-0.008,0.026-0.01,0.042-0.02c0.011-0.01,0.022-0.014,0.032-0.02c0.018-0.018,0.038-0.027,0.054-0.037
	c0.006-0.006,0.007-0.006,0.012-0.008l3.418-2.436c0.183-0.127,0.268-0.291,0.268-0.457c0,0,0,0,0-0.004v-5.318L10.439,16.588z"/>
<polygon fill="#D64541" points="12.009,13.977 10.434,14.986 10.439,16.588 12.009,15.582 "/>
<rect x="-0.491" y="16.813" fill="#D64541" width="1.875" height="1.146"/>
<rect x="5.135" y="16.813" fill="#D64541" width="2.225" height="1.146"/>
<rect x="0.759" y="14.938" fill="#518DB9" width="6.25" height="1.875"/>
<polygon fill="#518DB9" points="10.935,12.434 5.631,15.744 6.299,16.813 7.461,16.813 11.929,14.025 "/>
<polygon fill="#D64541" points="7.461,16.813 6.299,16.813 6.624,17.334 "/>
<rect x="15.134" y="5.718" fill="#ADE095" width="5" height="6.133"/>
<polygon fill="#ADE095" points="21.806,5.122 17.78,7.318 20.256,11.856 20.629,11.856 21.037,11.631 24.323,9.734 "/>
<polygon fill="#FC8F2A" points="24.323,9.734 21.037,11.631 24.367,9.815 "/>
<polygon fill="#FC8F2A" points="20.629,11.856 20.256,11.856 20.341,12.012 "/>
<rect x="21.853" y="4.156" fill="#ADE095" width="1.875" height="3.854"/>
<path fill="#ADE095" d="M24.5,2.612L24.5,2.612c-0.001-0.006-0.004-0.013-0.004-0.019c0-0.009,0-0.019-0.005-0.03
	c-0.002-0.014-0.002-0.028-0.005-0.044c0,0,0,0,0-0.001c-0.065-0.224-0.361-0.394-0.713-0.394h-5.808
	c-0.221,0-0.415,0.064-0.547,0.171L14.724,4.1c-0.004,0-0.004,0.001-0.004,0.001c-0.016,0.01-0.03,0.021-0.046,0.034
	c-0.009,0.005-0.015,0.013-0.023,0.017c-0.005,0.007-0.013,0.015-0.02,0.021c-0.009,0.005-0.019,0.013-0.024,0.022
	c-0.004,0.006-0.015,0.013-0.02,0.018c-0.005,0.007-0.01,0.015-0.018,0.023c-0.006,0.007-0.007,0.014-0.011,0.021
	c-0.006,0.007-0.01,0.012-0.01,0.023c-0.006,0.006-0.011,0.013-0.016,0.023c-0.003,0.007-0.005,0.014-0.008,0.021
	c-0.002,0.008-0.01,0.016-0.012,0.024c-0.004,0.009-0.004,0.019-0.008,0.027c0,0.004-0.001,0.013-0.005,0.02c0,0.015,0,0.03,0,0.046
	v7.414h1.508V5.959h2.999v5.896h1.751V5.938l2.5-1.339v5.75L24.5,9.633V2.612z M19.87,4h-2.361l1.639-0.938h2.36L19.87,4z"/>
<path fill="#62A640" d="M23.259,11.311v6.484l-2.5,1.336v-6.373h-1.751v6.156h-2.999v-6.156h-1.504v7.629
	c0,0.273,0.322,0.49,0.727,0.49h5.808c0.022,0,0.047,0,0.068-0.002c0.014,0,0.023-0.004,0.037-0.004
	c0.012-0.002,0.025-0.002,0.036-0.002c0.013-0.004,0.024-0.012,0.034-0.012c0.015,0,0.027-0.002,0.032-0.002
	c0.012,0,0.025-0.006,0.034-0.01c0.015-0.006,0.024-0.006,0.031-0.01c0.012-0.002,0.022-0.006,0.031-0.012
	c0.011-0.004,0.022-0.006,0.03-0.008c0.01-0.006,0.021-0.01,0.026-0.018c0.015-0.002,0.027-0.006,0.032-0.012
	c0.012-0.01,0.021-0.01,0.031-0.018c0.012-0.006,0.019-0.008,0.026-0.016c0.016-0.012,0.027-0.016,0.044-0.025
	c0.005-0.004,0.007-0.004,0.012-0.006l2.735-1.828c0.142-0.096,0.213-0.221,0.213-0.342c0,0,0,0,0-0.006v-7.954L23.259,11.311z"/>
<polygon fill="#62A640" points="24.5,9.633 23.259,10.35 23.259,11.311 24.5,10.593 "/>
<rect x="14.505" y="11.856" fill="#62A640" width="1.504" height="0.902"/>
<rect x="19.008" y="11.856" fill="#62A640" width="1.751" height="0.902"/>
<rect x="17.737" y="2.75" fill="#ADE095" width="3.699" height="2.135"/>
<rect x="15.343" y="11.849" fill="#62A640" width="4.531" height="7.271"/>
<polygon fill="#62A640" points="24.417,17.129 20.106,19.561 18.928,12.799 23.234,10.367 "/>
<rect x="0.186" y="16.789" fill="#D64541" width="7.084" height="5.469"/>
<rect x="5.776" y="16.224" transform="matrix(-0.8504 0.5261 -0.5261 -0.8504 25.2239 27.6254)" fill="#D64541" width="5.817" height="2.35"/>
<rect x="5.307" y="18.567" transform="matrix(-0.8504 0.5261 -0.5261 -0.8504 25.5896 32.2089)" fill="#D64541" width="5.817" height="2.35"/>
<rect x="3.467" y="-0.323" fill="#518DB9" width="7.5" height="13.542"/>
<rect x="0.862" y="3.375" fill="#518DB9" width="4.844" height="9.532"/>
<rect x="0.03" y="12.281" fill="#518DB9" width="9.948" height="1.616"/>
<rect x="-0.388" y="13.584" fill="#518DB9" width="9.167" height="1.354"/>
<g>
	<path fill="none" stroke="#F0F0F0" stroke-width="1.0648" d="M40.5,28.37c0,1.172-0.958,2.13-2.13,2.13h-53.741
		c-1.171,0-2.129-0.958-2.129-2.13V-5.371c0-1.171,0.958-2.129,2.129-2.129H38.37c1.172,0,2.13,0.958,2.13,2.129V28.37z"/>
</g>
</svg>
