<?xml version="1.0" encoding="utf-8"?>
<!-- Generator: Adobe Illustrator 15.1.0, SVG Export Plug-In . SVG Version: 6.00 Build 0)  -->
<!DOCTYPE svg PUBLIC "-//W3C//DTD SVG 1.1//EN" "http://www.w3.org/Graphics/SVG/1.1/DTD/svg11.dtd">
<svg version="1.1" id="Layer_1" xmlns="http://www.w3.org/2000/svg" xmlns:xlink="http://www.w3.org/1999/xlink" x="0px" y="0px"
	 width="60px" height="40px" viewBox="0 0 60 40" enable-background="new 0 0 60 40" xml:space="preserve">
<g>
	<path fill="none" stroke="#F0F0F0" stroke-width="1.0648" d="M59,36.87c0,1.172-0.958,2.13-2.13,2.13H3.129
		C1.958,39,1,38.042,1,36.87V3.129C1,1.958,1.958,1,3.129,1H56.87C58.042,1,59,1.958,59,3.129V36.87z"/>
</g>
<title>Layer 1</title>
<g>
	<rect x="18.969" y="16.403" fill="#518DB9" width="5.217" height="12.872"/>
	<rect x="23.648" y="10.432" fill="#518DB9" width="8.189" height="19.135"/>
	<rect x="31.436" y="17.867" fill="#518DB9" width="4.353" height="11.7"/>
	<rect x="35.348" y="13.355" fill="#518DB9" width="5.684" height="16.211"/>
	<rect x="18.969" y="20.207" fill="#FC8F2A" width="4.68" height="9.362"/>
	<rect x="23.648" y="24.791" fill="#FC8F2A" width="8.189" height="4.777"/>
	<rect x="31.838" y="27.229" fill="#FC8F2A" width="4.098" height="2.34"/>
	<rect x="35.348" y="22.256" fill="#FC8F2A" width="5.684" height="7.313"/>
</g>
</svg>
