<?xml version="1.0" encoding="utf-8"?>
<!-- Generator: Adobe Illustrator 15.1.0, SVG Export Plug-In . SVG Version: 6.00 Build 0)  -->
<!DOCTYPE svg PUBLIC "-//W3C//DTD SVG 1.1//EN" "http://www.w3.org/Graphics/SVG/1.1/DTD/svg11.dtd">
<svg version="1.1" id="Layer_1" xmlns="http://www.w3.org/2000/svg" xmlns:xlink="http://www.w3.org/1999/xlink" x="0px" y="0px"
	 width="60px" height="40px" viewBox="-18.5 -8.5 60 40" enable-background="new -18.5 -8.5 60 40" xml:space="preserve">
<polygon fill="#CDF7F6" points="16.372,5.809 16.152,5.809 16.311,5.874 "/>
<polygon fill="#62A640" points="18.252,5.115 18.169,5.199 17.956,5.115 7.73,5.115 7.73,12.424 -2.5,12.424 -2.5,23.15 7.73,23.15 
	10.262,23.15 24.5,23.15 24.5,5.115 "/>
<polygon fill="#FC8F2A" points="18.169,5.199 9.72,1.877 1.33,10.123 -2.5,8.867 -2.5,15.137 5.938,16.516 11,8.224 17.75,11.541 
	24.5,6.234 24.5,-1.15 "/>
<g>
	<path fill="none" stroke="#F0F0F0" stroke-width="1.0648" d="M40.5,28.37c0,1.172-0.958,2.13-2.13,2.13h-53.741
		c-1.171,0-2.129-0.958-2.129-2.13V-5.371c0-1.171,0.958-2.129,2.129-2.129H38.37c1.172,0,2.13,0.958,2.13,2.129V28.37z"/>
</g>
</svg>
