<?xml version="1.0" encoding="utf-8"?>
<!-- Generator: Adobe Illustrator 15.1.0, SVG Export Plug-In . SVG Version: 6.00 Build 0)  -->
<!DOCTYPE svg PUBLIC "-//W3C//DTD SVG 1.1//EN" "http://www.w3.org/Graphics/SVG/1.1/DTD/svg11.dtd">
<svg version="1.1" id="Layer_1" xmlns="http://www.w3.org/2000/svg" xmlns:xlink="http://www.w3.org/1999/xlink" x="0px" y="0px"
	 width="60px" height="40px" viewBox="0 0 60 40" enable-background="new 0 0 60 40" xml:space="preserve">
<g>
	<g>
		<path fill="none" stroke="#F0F0F0" stroke-width="1.0648" d="M59,36.87c0,1.172-0.958,2.13-2.13,2.13H3.129
			C1.958,39,1,38.042,1,36.87V3.129C1,1.958,1.958,1,3.129,1H56.87C58.042,1,59,1.958,59,3.129V36.87z"/>
	</g>
	<g>
		<polyline fill="#468EBA" points="22.5,16.75 28.5,16.75 28.5,18.75 22.5,18.75 22.5,16.75 		"/>
		<polyline fill="#468EBA" points="18.5,10.75 24.5,10.75 24.5,12.75 18.5,12.75 18.5,10.75 		"/>
		<polyline fill="#468EBA" points="22.5,16.75 22.5,12.75 24.5,12.75 24.5,16.75 22.5,16.75 		"/>
		<polyline fill="#468EBA" points="27.5,18.75 27.5,13.75 29.5,13.75 29.5,18.75 27.5,18.75 		"/>
		<polyline fill="#468EBA" points="27.5,11.75 34.5,11.75 34.5,13.75 27.5,13.75 27.5,11.75 		"/>
		<polyline fill="#468EBA" points="32.5,19.75 32.5,11.75 34.5,11.75 34.5,19.75 32.5,19.75 		"/>
		<polyline fill="#468EBA" points="33.5,17.75 39.5,17.75 39.5,19.75 33.5,19.75 33.5,17.75 		"/>
		<polyline fill="#FC8F2A" points="22.5,22.25 28.5,22.25 28.5,24.25 22.5,24.25 22.5,22.25 		"/>
		<polyline fill="#FC8F2A" points="18.5,27.25 24.5,27.25 24.5,29.25 18.5,29.25 18.5,27.25 		"/>
		<polyline fill="#FC8F2A" points="22.5,27.25 22.5,24.25 24.5,24.25 24.5,27.25 22.5,27.25 		"/>
		<polyline fill="#FC8F2A" points="28.5,27.25 28.5,22.25 30.5,22.25 30.5,27.25 28.5,27.25 		"/>
		<polyline fill="#FC8F2A" points="28.5,27.25 34.5,27.25 34.5,29.25 28.5,29.25 28.5,27.25 		"/>
		<polyline fill="#FC8F2A" points="34.5,29.25 34.5,23.25 36.5,23.25 36.5,29.25 34.5,29.25 		"/>
		<polyline fill="#FC8F2A" points="36.5,23.25 41.5,23.25 41.5,25.25 36.5,25.25 36.5,23.25 		"/>
		<polyline fill="#468EBA" points="39.5,19.75 39.5,12.75 41.5,12.75 41.5,19.75 39.5,19.75 		"/>
	</g>
</g>
</svg>
