<?xml version="1.0" encoding="utf-8"?>
<!-- Generator: Adobe Illustrator 15.1.0, SVG Export Plug-In . SVG Version: 6.00 Build 0)  -->
<!DOCTYPE svg PUBLIC "-//W3C//DTD SVG 1.1//EN" "http://www.w3.org/Graphics/SVG/1.1/DTD/svg11.dtd">
<svg version="1.1" id="Layer_1" xmlns="http://www.w3.org/2000/svg" xmlns:xlink="http://www.w3.org/1999/xlink" x="0px" y="0px"
	 width="60px" height="40px" viewBox="0 0 60 40" enable-background="new 0 0 60 40" xml:space="preserve">
<g>
	<g>
		<path fill="none" stroke="#F0F0F0" stroke-width="1.0648" d="M59,36.87c0,1.172-0.958,2.13-2.13,2.13H3.129
			C1.958,39,1,38.042,1,36.87V3.129C1,1.958,1.958,1,3.129,1H56.87C58.042,1,59,1.958,59,3.129V36.87z"/>
	</g>
	<polyline fill="#468EBA" points="21.5,25.5 30.123,25.5 30.123,27.57 21.5,27.57 21.5,25.5 	"/>
	<polyline fill="#468EBA" points="18.434,15.188 23.628,15.188 23.628,17.259 18.434,17.259 18.434,15.188 	"/>
	<polyline fill="#468EBA" points="21.708,26.656 21.708,15.189 23.78,15.189 23.78,26.656 21.708,26.656 	"/>
	<polyline fill="#468EBA" points="28.261,26.658 28.261,13.231 30.331,13.231 30.331,26.658 28.261,26.658 	"/>
	<polyline fill="#468EBA" points="28.5,11.5 36.688,11.5 36.688,13.572 28.5,13.572 28.5,11.5 	"/>
	<polyline fill="#468EBA" points="35.429,21.5 35.429,11.5 37.5,11.5 37.5,21.5 35.429,21.5 	"/>
	<polyline fill="#468EBA" points="35.5,21.428 42.05,21.428 42.05,23.5 35.5,23.5 35.5,21.428 	"/>
</g>
</svg>
