<?xml version="1.0" encoding="utf-8"?>
<!-- Generator: Adobe Illustrator 15.1.0, SVG Export Plug-In . SVG Version: 6.00 Build 0)  -->
<!DOCTYPE svg PUBLIC "-//W3C//DTD SVG 1.1//EN" "http://www.w3.org/Graphics/SVG/1.1/DTD/svg11.dtd">
<svg version="1.1" id="Layer_1" xmlns="http://www.w3.org/2000/svg" xmlns:xlink="http://www.w3.org/1999/xlink" x="0px" y="0px"
	 width="60px" height="40px" viewBox="-17.5 -7.5 60 40" enable-background="new -17.5 -7.5 60 40" xml:space="preserve">
<polyline fill="#D64541" points="7.95,3.225 12,3.225 12,5.925 7.95,5.925 7.95,3.225 "/>
<rect x="3.9" y="-0.15" fill="#518DB9" width="4.05" height="18.9"/>
<polyline fill="#FC8F2A" points="-0.15,12.675 3.9,12.675 3.9,15.375 -0.15,15.375 -0.15,12.675 "/>
<rect x="16.05" y="5.25" fill="#62A640" width="4.05" height="18.9"/>
<polyline fill="#D64541" points="20.1,7.275 24.15,7.275 24.15,9.975 20.1,9.975 20.1,7.275 "/>
<polyline fill="#FC8F2A" points="12,20.1 16.05,20.1 16.05,22.8 12,22.8 12,20.1 "/>
<g>
	<path fill="none" stroke="#F0F0F0" stroke-width="1.0648" d="M41.5,29.37c0,1.172-0.958,2.13-2.13,2.13h-53.741
		c-1.171,0-2.129-0.958-2.129-2.13V-4.371c0-1.171,0.958-2.129,2.129-2.129H39.37c1.172,0,2.13,0.958,2.13,2.129V29.37z"/>
</g>
</svg>
