<?xml version="1.0" encoding="utf-8"?>
<!-- Generator: Adobe Illustrator 15.1.0, SVG Export Plug-In . SVG Version: 6.00 Build 0)  -->
<!DOCTYPE svg PUBLIC "-//W3C//DTD SVG 1.1//EN" "http://www.w3.org/Graphics/SVG/1.1/DTD/svg11.dtd">
<svg version="1.1" id="Layer_1" xmlns="http://www.w3.org/2000/svg" xmlns:xlink="http://www.w3.org/1999/xlink" x="0px" y="0px"
	 width="60px" height="40px" viewBox="0 0 60 40" enable-background="new 0 0 60 40" xml:space="preserve">
<g>
	<path fill="none" stroke="#F0F0F0" stroke-width="1.0648" d="M59,36.87c0,1.172-0.958,2.13-2.13,2.13H3.129
		C1.958,39,1,38.042,1,36.87V3.129C1,1.958,1.958,1,3.129,1H56.87C58.042,1,59,1.958,59,3.129V36.87z"/>
</g>
<g>
	<g>
		<path fill="#62A640" d="M24.868,29.646c-1.616-0.789-3.011-1.988-4.037-3.471l2.302-1.594c0.753,1.088,1.778,1.969,2.963,2.548
			L24.868,29.646z"/>
	</g>
	<g>
		<path fill="none" stroke="#000000" stroke-width="2.8" d="M25.482,28.389"/>
	</g>
	<g>
		<path fill="#518DB9" d="M29.472,30.707c-0.593,0-1.191-0.051-1.776-0.15l0.468-2.76c0.431,0.073,0.871,0.11,1.308,0.11
			c4.245,0,7.699-3.454,7.699-7.7c0-0.465-0.041-0.927-0.122-1.373l2.756-0.499c0.11,0.61,0.166,1.24,0.166,1.872
			C39.971,25.997,35.262,30.707,29.472,30.707z"/>
	</g>
	<g>
		<path fill="#9368BE" d="M36.413,16.871c-0.815-1.693-2.218-3.028-3.944-3.758l1.09-2.579c2.355,0.996,4.265,2.814,5.377,5.12
			L36.413,16.871z"/>
	</g>
	<g>
		<path fill="none" stroke="#9368BE" stroke-width="2.8" d="M33.014,11.823"/>
	</g>
	<g>
		<path fill="none" stroke="#000000" stroke-width="2.8" d="M31.089,11.251"/>
	</g>
	<g>
		<path fill="#FC8F2A" d="M19.531,23.598c-0.371-1.089-0.56-2.229-0.56-3.39c0-5.79,4.71-10.5,10.5-10.5
			c0.3,0,0.598,0.013,0.893,0.038l-0.24,2.79c-0.216-0.019-0.434-0.028-0.653-0.028c-4.246,0-7.7,3.455-7.7,7.7
			c0,0.853,0.138,1.688,0.41,2.485L19.531,23.598z"/>
	</g>
	<g>
		<path fill="#62A640" d="M27.05,24.545c-0.712-0.398-1.321-0.971-1.763-1.656l2.355-1.516c0.194,0.302,0.461,0.553,0.773,0.729
			L27.05,24.545z"/>
	</g>
	<g>
		<path fill="none" stroke="#000000" stroke-width="2.8" d="M27.733,23.323"/>
	</g>
	<g>
		<path fill="#518DB9" d="M29.564,25.092c-0.089,0-0.179-0.002-0.268-0.007c-0.172-0.01-0.335-0.026-0.495-0.052l0.432-2.768
			c0.071,0.012,0.143,0.02,0.217,0.022c0.569,0.036,1.127-0.166,1.557-0.554c0.431-0.387,0.685-0.918,0.714-1.497
			c0.004-0.082,0.004-0.156,0.002-0.23l2.799-0.094c0.004,0.158,0.004,0.317-0.006,0.479c-0.068,1.318-0.65,2.537-1.637,3.423
			C31.96,24.645,30.792,25.092,29.564,25.092z"/>
	</g>
	<g>
		<path fill="#9368BE" d="M31.357,19.142c-0.231-0.409-0.596-0.737-1.025-0.924l1.118-2.568c0.981,0.427,1.815,1.177,2.344,2.11
			L31.357,19.142z"/>
	</g>
	<g>
		<path fill="none" stroke="#000000" stroke-width="2.8" d="M30.891,16.934"/>
	</g>
	<g>
		<path fill="#FC8F2A" d="M24.668,21.479c-0.11-0.414-0.165-0.84-0.165-1.271c0-2.739,2.229-4.967,4.968-4.967v2.8
			c-1.196,0-2.168,0.972-2.168,2.167c0,0.188,0.024,0.375,0.071,0.553L24.668,21.479z"/>
	</g>
	<g>
		<path fill="#62A640" d="M22.916,34.163c-2.433-1.146-4.535-2.919-6.08-5.126l2.294-1.605c1.265,1.809,2.987,3.26,4.979,4.198
			L22.916,34.163z"/>
	</g>
	<g>
		<path fill="#9368BE" d="M40.625,14.314c-1.294-2.443-3.389-4.423-5.895-5.576l1.17-2.544c3.062,1.408,5.619,3.826,7.199,6.809
			L40.625,14.314z"/>
	</g>
</g>
</svg>
