<?xml version="1.0" encoding="utf-8"?>
<!-- Generator: Adobe Illustrator 15.1.0, SVG Export Plug-In . SVG Version: 6.00 Build 0)  -->
<!DOCTYPE svg PUBLIC "-//W3C//DTD SVG 1.1//EN" "http://www.w3.org/Graphics/SVG/1.1/DTD/svg11.dtd">
<svg version="1.1" id="Layer_1" xmlns="http://www.w3.org/2000/svg" xmlns:xlink="http://www.w3.org/1999/xlink" x="0px" y="0px"
	 width="60px" height="40px" viewBox="0 0 60 40" enable-background="new 0 0 60 40" xml:space="preserve">
<g>
	<path fill="none" stroke="#F0F0F0" stroke-width="1.0648" d="M59,36.87c0,1.172-0.958,2.13-2.13,2.13H3.129
		C1.958,39,1,38.042,1,36.87V3.129C1,1.958,1.958,1,3.129,1H56.87C58.042,1,59,1.958,59,3.129V36.87z"/>
</g>
<g>
	<path fill="#D64541" d="M27.381,9.605v6.237h2.08v3.119h-6.237c-1.154,0-2.08,0.925-2.08,2.08v3.116h-2.079v6.237h6.237v-6.237
		h-2.079v-3.116h6.237v3.116h-2.08v6.237h6.238v-6.237h-2.078v-3.116h6.235v3.116h-2.078v6.237h6.237v-6.237h-2.08v-3.116
		c0-1.155-0.925-2.08-2.079-2.08h-6.235v-3.119h2.078V9.605H27.381z"/>
	<rect x="25.475" y="9.605" fill="#D64541" width="9.964" height="6.237"/>
	<rect x="19.066" y="24.157" fill="#518DB9" width="6.237" height="6.237"/>
	<rect x="27.381" y="24.157" fill="#FC8F2A" width="6.238" height="6.237"/>
	<rect x="35.698" y="24.157" fill="#62A640" width="6.237" height="6.237"/>
</g>
</svg>
