<?xml version="1.0" encoding="utf-8"?>
<!--
  - This file is part of StyleBI.
  - Copyright (C) 2024  InetSoft Technology
  -
  - This program is free software: you can redistribute it and/or modify
  - it under the terms of the GNU Affero General Public License as published by
  - the Free Software Foundation, either version 3 of the License, or
  - (at your option) any later version.
  -
  - This program is distributed in the hope that it will be useful,
  - but WITHOUT ANY WARRANTY; without even the implied warranty of
  - MERCHANTABILITY or FITNESS FOR A PARTICULAR PURPOSE.  See the
  - GNU Affero General Public License for more details.
  -
  - You should have received a copy of the GNU Affero General Public License
  - along with this program.  If not, see <https://www.gnu.org/licenses/>.
  -->

<!-- Generator: Adobe Illustrator 15.1.0, SVG Export Plug-In . SVG Version: 6.00 Build 0)  -->
<!DOCTYPE svg PUBLIC "-//W3C//DTD SVG 1.1//EN" "http://www.w3.org/Graphics/SVG/1.1/DTD/svg11.dtd">
<svg version="1.1" id="Layer_1" xmlns="http://www.w3.org/2000/svg" xmlns:xlink="http://www.w3.org/1999/xlink" x="0px" y="0px"
	 width="30px" height="30px" viewBox="1235 316 30 30" enable-background="new 1235 316 30 30" xml:space="preserve">
<g>
	<path fill="#006699" d="M1238.159,320.791c0-0.942,0.784-1.707,1.75-1.707h20.182c0.967,0,1.75,0.765,1.75,1.707v20.418
		c0,0.942-0.783,1.707-1.75,1.707h-20.182c-0.966,0-1.75-0.765-1.75-1.707V320.791L1238.159,320.791z"/>
	<path fill="#FFFFFF" d="M1245.338,339.033v-10.761h-3.577v10.761H1245.338L1245.338,339.033z M1243.55,326.803
		c1.247,0,2.023-0.827,2.023-1.859c-0.023-1.056-0.776-1.859-2-1.859s-2.023,0.803-2.023,1.859c0,1.033,0.776,1.859,1.977,1.859
		H1243.55L1243.55,326.803z M1247.317,339.033h3.576v-6.008c0-0.322,0.024-0.644,0.118-0.873c0.259-0.644,0.848-1.309,1.836-1.309
		c1.294,0,1.812,0.987,1.812,2.434v5.756h3.576v-6.17c0-3.305-1.764-4.843-4.117-4.843c-1.93,0-2.777,1.078-3.247,1.813h0.023
		v-1.561h-3.577C1247.364,329.282,1247.317,339.034,1247.317,339.033L1247.317,339.033z"/>
</g>
</svg>
