<!--
  - This file is part of StyleBI.
  - Copyright (C) 2024  InetSoft Technology
  -
  - This program is free software: you can redistribute it and/or modify
  - it under the terms of the GNU Affero General Public License as published by
  - the Free Software Foundation, either version 3 of the License, or
  - (at your option) any later version.
  -
  - This program is distributed in the hope that it will be useful,
  - but WITHOUT ANY WARRANTY; without even the implied warranty of
  - MERCHANTABILITY or FITNESS FOR A PARTICULAR PURPOSE.  See the
  - GNU Affero General Public License for more details.
  -
  - You should have received a copy of the GNU Affero General Public License
  - along with this program.  If not, see <https://www.gnu.org/licenses/>.
  -->

<svg xmlns="http://www.w3.org/2000/svg" width="40" height="30" viewBox="730 257.5 40 30"><path fill="#139cd8" d="M747.094 263.13c2.294-2.4 6.1-2.488 8.5-.194.448.43.827.924 1.125 1.47a7.25 7.25 0 0 1 2.986-.631c4.116 0 7.453 3.337 7.453 7.453s-3.337 7.452-7.453 7.452a7.31 7.31 0 0 1-1.453-.149c-.956 1.705-2.758 2.763-4.713 2.766a5.23 5.23 0 0 1-2.355-.548c-1.336 3.132-4.958 4.59-8.1 3.253-1.558-.665-2.773-1.94-3.362-3.526a5.55 5.55 0 0 1-1.178.123 5.79 5.79 0 0 1-5.713-5.861c.026-2.028 1.11-3.894 2.86-4.92a6.51 6.51 0 0 1-.547-2.653 6.65 6.65 0 0 1 11.934-4.042"/><g fill="#fff"><path d="M737.813 272.953c-.015.027-.01.062.014.083l.2.123a2.04 2.04 0 0 0 1.028.232c.7 0 1.136-.37 1.136-.972v-.015c0-.56-.493-.754-.96-.904l-.052-.02c-.343-.108-.643-.205-.643-.438v-.014c0-.2.18-.343.452-.343a1.91 1.91 0 0 1 .89.232c.03.02.068.013.088-.015v-.014l.138-.384a.08.08 0 0 0-.027-.083c-.307-.182-.657-.276-1.014-.273h-.067c-.644 0-1.096.384-1.096.945v.015c0 .6.493.78.96.904l.067.027c.344.1.63.2.63.425v.015c0 .22-.2.385-.493.385-.32.002-.635-.088-.904-.262-.056-.027-.083-.055-.1-.068-.03-.02-.068-.013-.088.015v.014l-.143.4zm10.274 0c-.015.027-.01.062.014.083l.2.123a2.04 2.04 0 0 0 1.028.232c.7 0 1.136-.37 1.136-.972v-.015c0-.56-.493-.754-.96-.904l-.05-.02c-.343-.108-.644-.205-.644-.438v-.014c0-.2.18-.343.452-.343a1.91 1.91 0 0 1 .89.232c.028.02.067.013.088-.015v-.014l.138-.384a.08.08 0 0 0-.027-.083 1.97 1.97 0 0 0-1.013-.273h-.068c-.644 0-1.095.384-1.095.945v.015c0 .6.493.78.96.904l.068.027c.343.1.63.2.63.425v.015c0 .22-.2.385-.493.385-.32.002-.635-.088-.904-.262-.055-.027-.082-.055-.1-.068-.03-.02-.068-.013-.1.015v.014l-.144.4zm7.613-1.81a1.48 1.48 0 0 0-.261-.508 1.42 1.42 0 0 0-.452-.343c-.404-.164-.855-.164-1.26 0-.173.083-.326.2-.452.343a1.27 1.27 0 0 0-.261.508 2.47 2.47 0 0 0 0 1.26 1.48 1.48 0 0 0 .261.508 1.42 1.42 0 0 0 .452.343c.404.164.855.164 1.26 0a1.21 1.21 0 0 0 .452-.343c.125-.147.214-.32.26-.508.057-.205.084-.418.083-.63a2.35 2.35 0 0 0-.083-.63m-.6.63a1.37 1.37 0 0 1-.2.795c-.126.2-.348.296-.575.273a.66.66 0 0 1-.576-.273 1.74 1.74 0 0 1 0-1.589.62.62 0 0 1 .576-.273.66.66 0 0 1 .575.273c.14.24.207.517.2.795m5.42.987c-.006-.03-.036-.048-.064-.04h0c-.1.035-.18.063-.273.082a2.22 2.22 0 0 1-.315.026c-.248.015-.492-.075-.672-.247-.185-.226-.273-.516-.246-.808-.01-.272.065-.54.22-.767a.75.75 0 0 1 .657-.288 2.11 2.11 0 0 1 .617.082c.03.005.06-.012.067-.04l.15-.396c.008-.03-.01-.06-.038-.068h0a2.2 2.2 0 0 0-.396-.097c-.146-.017-.292-.026-.438-.026a1.66 1.66 0 0 0-.657.123c-.184.078-.347.195-.48.343a1.52 1.52 0 0 0-.289.508 1.93 1.93 0 0 0-.096.631 1.72 1.72 0 0 0 .385 1.166 1.49 1.49 0 0 0 1.165.438 2.28 2.28 0 0 0 .837-.15c.02-.016.032-.042.026-.068l-.16-.402z"/><path d="M763.52 271.035a1.21 1.21 0 0 0-.262-.466 1.04 1.04 0 0 0-.384-.288 1.54 1.54 0 0 0-.575-.11c-.227-.005-.45.037-.66.124-.174.08-.328.196-.45.343-.123.154-.216.33-.273.52a2.32 2.32 0 0 0-.083.631 1.86 1.86 0 0 0 .097.631 1.16 1.16 0 0 0 .29.508c.14.143.3.252.492.33a1.67 1.67 0 0 0 .727.109c.344.02.688-.045 1-.2.027-.015.04-.027.015-.097l-.138-.37c-.006-.024-.03-.04-.055-.034h-.015a1.86 1.86 0 0 1-.822.15 1.01 1.01 0 0 1-.686-.232.92.92 0 0 1-.23-.658h1.987c.03.001.055-.022.056-.052h0c.04-.013.108-.4-.03-.848m-1.97.4a1.1 1.1 0 0 1 .164-.467.62.62 0 0 1 .562-.288.64.64 0 0 1 .562.288c.084.142.132.302.138.467h-1.426zm-13.936-.41c-.052-.172-.14-.332-.26-.466a1.04 1.04 0 0 0-.384-.288 1.49 1.49 0 0 0-.575-.109 1.61 1.61 0 0 0-.658.124 1.28 1.28 0 0 0-.452.343c-.123.154-.216.33-.273.52a2.36 2.36 0 0 0-.082.631c-.005.214.028.427.097.63.05.2.15.366.288.508a1.56 1.56 0 0 0 .493.329c.23.1.48.127.726.1a2.07 2.07 0 0 0 1.001-.191c.026-.015.04-.027.014-.097l-.154-.366c-.006-.024-.03-.04-.055-.033h-.015c-.26.112-.54.163-.822.15-.25.01-.493-.072-.685-.232a.93.93 0 0 1-.232-.657h1.988c.03 0 .054-.022.055-.052h0c.04-.014.1-.4-.027-.85m-1.975.4a1.1 1.1 0 0 1 .165-.467c.12-.2.335-.302.56-.287a.64.64 0 0 1 .561.287c.084.142.132.302.138.467h-1.425zm-3.493-.09c-.083 0-.18-.015-.315-.015a2.05 2.05 0 0 0-.493.068 1.26 1.26 0 0 0-.412.191c-.123.082-.222.196-.288.33a1 1 0 0 0-.109.452c-.006.157.027.312.097.453a.83.83 0 0 0 .261.314c.124.087.264.147.4.18a2.02 2.02 0 0 0 .52.055c.202.003.404-.016.602-.055l.508-.097a.94.94 0 0 0 .137-.042c.03-.007.047-.036.042-.065v-1.82c.028-.324-.087-.645-.315-.877a1.39 1.39 0 0 0-.918-.273 2.4 2.4 0 0 0-.535.055c-.216.04-.425.113-.617.22-.025.02-.03.055-.014.083l.138.384c.006.024.03.04.055.033h.015c.01-.002.02-.007.027-.015a2.09 2.09 0 0 1 .857-.206.81.81 0 0 1 .493.124c.1.082.165.206.165.48v.082l-.315-.027m-.78 1.396a.39.39 0 0 1-.109-.123.51.51 0 0 1 .109-.644.84.84 0 0 1 .575-.138 3.65 3.65 0 0 1 .534.04v.905c-.176.036-.354.058-.534.067a.88.88 0 0 1-.575-.108m16.814-2.435c.012-.024.002-.054-.022-.065h0c-.106-.034-.218-.052-.33-.056-.174-.018-.35.01-.508.083a.86.86 0 0 0-.329.246v-.246c-.002-.03-.025-.054-.055-.056h-.535c-.03.002-.054.026-.055.056v2.972c.001.03.025.054.055.056h.52c.03-.002.054-.025.056-.056v-1.48c-.003-.176.02-.35.068-.52a.63.63 0 0 1 .179-.288c.068-.07.152-.122.247-.15a1.04 1.04 0 0 1 .261-.042c.074.001.147.01.22.027.033.003.063-.02.067-.054h0l.165-.425"/><path d="M753.258 268.953l-.2-.04c-.1-.018-.182-.026-.273-.027a1.1 1.1 0 0 0-.837.302 1.73 1.73 0 0 0-.396.904l-.026.138h-.452c-.032.001-.06.023-.067.055l-.068.412a.06.06 0 0 0 .047.067h.46l-.452 2.48c-.024.167-.065.333-.124.492a.92.92 0 0 1-.137.288.35.35 0 0 1-.18.138c-.075.023-.153.032-.23.027-.042 0-.1-.015-.165-.015-.038-.008-.075-.02-.108-.04-.026-.01-.055.003-.068.026l-.15.396c-.015.03-.003.067.026.083l.18.055a1.11 1.11 0 0 0 .288.026 1.36 1.36 0 0 0 .493-.081.95.95 0 0 0 .37-.262 1.39 1.39 0 0 0 .261-.438 4.72 4.72 0 0 0 .179-.672l.453-2.535h.648c.033-.001.06-.023.068-.055l.067-.412c.006-.03-.016-.062-.047-.067h-.65a2.04 2.04 0 0 1 .108-.452.49.49 0 0 1 .138-.206.59.59 0 0 1 .165-.109c.072-.016.146-.025.22-.026.056 0 .123.014.164.014.033.003.066.012.097.027.068.015.068 0 .082-.027l.15-.4c.012-.023-.03-.038-.042-.052m-8.862 4.298a.06.06 0 0 1-.055.056h-.52c-.03-.002-.054-.025-.055-.056v-4.242c.001-.03.025-.054.055-.056h.508c.03.002.053.025.055.056v4.246l.013-.004z"/></g></svg>