<?xml version="1.0" encoding="utf-8"?>
<!--
  - This file is part of StyleBI.
  - Copyright (C) 2024  InetSoft Technology
  -
  - This program is free software: you can redistribute it and/or modify
  - it under the terms of the GNU Affero General Public License as published by
  - the Free Software Foundation, either version 3 of the License, or
  - (at your option) any later version.
  -
  - This program is distributed in the hope that it will be useful,
  - but WITHOUT ANY WARRANTY; without even the implied warranty of
  - MERCHANTABILITY or FITNESS FOR A PARTICULAR PURPOSE.  See the
  - GNU Affero General Public License for more details.
  -
  - You should have received a copy of the GNU Affero General Public License
  - along with this program.  If not, see <https://www.gnu.org/licenses/>.
  -->

<!-- Generator: Adobe Illustrator 15.1.0, SVG Export Plug-In . SVG Version: 6.00 Build 0)  -->
<!DOCTYPE svg PUBLIC "-//W3C//DTD SVG 1.1//EN" "http://www.w3.org/Graphics/SVG/1.1/DTD/svg11.dtd">
<svg version="1.1" id="Layer_1" xmlns="http://www.w3.org/2000/svg" xmlns:xlink="http://www.w3.org/1999/xlink" x="0px" y="0px"
	 width="30px" height="30px" viewBox="291 381 30 30" enable-background="new 291 381 30 30" xml:space="preserve">
<g>
	<path fill="#3D4145" d="M293.882,383.883h24.235v24.234h-24.235V383.883z"/>
	<path fill="#FFFFFF" d="M307.772,386.771c-2.026,0-3.196,0.95-3.762,1.578c-0.067-0.54-0.422-1.2-1.813-1.2h-3.393v3.029h1.608
		c0.209,0,0.286,0.116,0.286,0.326v14.443h3.787v-5.826c0.561,0.518,1.487,1.229,3.165,1.229c3.521,0,5.82-2.792,5.82-6.79
		C313.471,389.499,311.249,386.771,307.772,386.771z M307.088,389.958c1.702,0,2.844,1.467,2.844,3.651
		c0,2.488-1.452,3.602-2.893,3.602c-1.938,0-2.82-1.854-2.82-3.578C304.219,390.923,305.701,389.958,307.088,389.958
		L307.088,389.958z"/>
</g>
</svg>
