<?xml version="1.0" encoding="utf-8"?>
<!--
  - This file is part of StyleBI.
  - Copyright (C) 2024  InetSoft Technology
  -
  - This program is free software: you can redistribute it and/or modify
  - it under the terms of the GNU Affero General Public License as published by
  - the Free Software Foundation, either version 3 of the License, or
  - (at your option) any later version.
  -
  - This program is distributed in the hope that it will be useful,
  - but WITHOUT ANY WARRANTY; without even the implied warranty of
  - MERCHANTABILITY or FITNESS FOR A PARTICULAR PURPOSE.  See the
  - GNU Affero General Public License for more details.
  -
  - You should have received a copy of the GNU Affero General Public License
  - along with this program.  If not, see <https://www.gnu.org/licenses/>.
  -->

<!-- Generator: Adobe Illustrator 15.1.0, SVG Export Plug-In . SVG Version: 6.00 Build 0)  -->
<!DOCTYPE svg PUBLIC "-//W3C//DTD SVG 1.1//EN" "http://www.w3.org/Graphics/SVG/1.1/DTD/svg11.dtd">
<svg version="1.1" id="Layer_1" xmlns="http://www.w3.org/2000/svg" xmlns:xlink="http://www.w3.org/1999/xlink" x="0px" y="0px"
	 width="40px" height="30px" viewBox="0 0 40 30" enable-background="new 0 0 40 30" xml:space="preserve">
<g>
	<path fill="#57AFD3" d="M30.99,13.826c2.203,1.018,4.123,2.475,4.157,5.522c0.031,3.15-2.045,5.687-5.348,5.939
		c-2.905,0.225-6.395,0-9.8,0c-3.315,0-6.78,0.23-9.742,0c-3.046-0.233-5.405-2.671-5.405-5.88c0-2.713,1.56-4.444,3.92-5.404
		c-1.224-4.396,3.119-8.119,7.068-6.178c0.629,0.31,1.088,0.775,1.605,1.307c1.181-2.283,3.006-4.369,6.177-4.515
		C28.54,4.391,31.902,8.516,30.99,13.826z M21.367,20.002c3.496,0.704,6.013-2.221,5.761-5.108c-0.212-2.407-2.255-4.481-4.99-4.394
		c-3.303,0.104-5.715,3.912-4.04,7.068c-0.529,0.619-1.27,1.271-1.96,1.96c-0.635,0.635-1.665,1.392-1.723,2.199
		c-0.061,0.854,0.524,1.469,1.188,1.543c1.187,0.133,1.833-1.12,2.436-1.723c0.769-0.769,1.39-1.401,2.139-2.02
		C20.65,19.76,20.961,19.921,21.367,20.002z"/>
	<path fill="#57AFD3" d="M21.841,12.459c1.947-0.324,3.536,0.871,3.505,2.91c-0.024,1.709-1.922,3.545-4.098,2.672
		c-1.316-0.528-2.469-2.597-1.367-4.336C20.284,13.072,21.035,12.592,21.841,12.459z"/>
</g>
</svg>
