<?xml version="1.0" encoding="utf-8"?>
<!--
  - This file is part of StyleBI.
  -
  - Copyright (c) 2024, InetSoft Technology Corp, All Rights Reserved.
  -
  - The software and information contained herein are copyrighted and
  - proprietary to InetSoft Technology Corp. This software is furnished
  - pursuant to a written license agreement and may be used, copied,
  - transmitted, and stored only in accordance with the terms of such
  - license and with the inclusion of the above copyright notice. Please
  - refer to the file "COPYRIGHT" for further copyright and licensing
  - information. This software and information or any other copies
  - thereof may not be provided or otherwise made available to any other
  - person.
  -->

<!-- Generator: Adobe Illustrator 15.1.0, SVG Export Plug-In . SVG Version: 6.00 Build 0)  -->
<!DOCTYPE svg PUBLIC "-//W3C//DTD SVG 1.1//EN" "http://www.w3.org/Graphics/SVG/1.1/DTD/svg11.dtd">
<svg version="1.1" id="Layer_1" xmlns="http://www.w3.org/2000/svg" xmlns:xlink="http://www.w3.org/1999/xlink" x="0px" y="0px"
	 width="30px" height="30px" viewBox="1081 1235 30 30" enable-background="new 1081 1235 30 30" xml:space="preserve">
<g>
	<path fill="#95BF46" d="M1104.221,1242.407c-0.018-0.125-0.127-0.194-0.218-0.202c-0.09-0.008-2.002-0.149-2.002-0.149
		s-1.327-1.318-1.474-1.464c-0.146-0.146-0.43-0.102-0.541-0.069c-0.016,0.005-0.29,0.089-0.742,0.229
		c-0.444-1.276-1.227-2.449-2.604-2.449c-0.038,0-0.077,0.001-0.116,0.004c-0.392-0.518-0.877-0.743-1.296-0.743
		c-3.208,0-4.74,4.01-5.221,6.047c-1.246,0.386-2.132,0.661-2.245,0.696c-0.695,0.218-0.718,0.24-0.809,0.896
		c-0.069,0.497-1.89,14.575-1.89,14.575l14.186,2.657l7.686-1.663C1106.936,1260.772,1104.237,1242.532,1104.221,1242.407
		L1104.221,1242.407z M1098.459,1240.995l-1.2,0.372c0.001-0.084,0.001-0.168,0.001-0.259c0-0.793-0.109-1.432-0.286-1.938
		C1097.683,1239.258,1098.155,1240.066,1098.459,1240.995z M1096.093,1239.327c0.197,0.494,0.326,1.204,0.326,2.161
		c0,0.049-0.001,0.094-0.001,0.139c-0.78,0.242-1.629,0.504-2.479,0.768C1094.416,1240.552,1095.311,1239.662,1096.093,1239.327
		L1096.093,1239.327z M1095.141,1238.425c0.138,0,0.277,0.047,0.411,0.139c-1.028,0.484-2.13,1.702-2.596,4.135l-1.959,0.607
		C1091.542,1241.45,1092.836,1238.425,1095.141,1238.425L1095.141,1238.425z"/>
	<path fill="#5E8E3E" d="M1104.003,1242.205c-0.09-0.008-2.002-0.149-2.002-0.149s-1.327-1.318-1.474-1.464
		c-0.054-0.054-0.128-0.082-0.204-0.094l-1.073,21.938l7.686-1.663c0,0-2.698-18.241-2.715-18.366
		C1104.203,1242.282,1104.094,1242.212,1104.003,1242.205"/>
	<path fill="#FFFFFF" d="M1096.641,1246.452l-0.948,2.819c0,0-0.83-0.443-1.848-0.443c-1.492,0-1.567,0.937-1.567,1.172
		c0,1.287,3.356,1.78,3.356,4.797c0,2.372-1.505,3.9-3.534,3.9c-2.436,0-3.681-1.516-3.681-1.516l0.652-2.154
		c0,0,1.28,1.099,2.36,1.099c0.705,0,0.992-0.556,0.992-0.961c0-1.68-2.753-1.755-2.753-4.515c0-2.322,1.667-4.57,5.032-4.57
		C1096,1246.08,1096.641,1246.452,1096.641,1246.452"/>
</g>
</svg>
