<?xml version="1.0" encoding="utf-8"?>
<!--
  - This file is part of StyleBI.
  -
  - Copyright (c) 2024, InetSoft Technology Corp, All Rights Reserved.
  -
  - The software and information contained herein are copyrighted and
  - proprietary to InetSoft Technology Corp. This software is furnished
  - pursuant to a written license agreement and may be used, copied,
  - transmitted, and stored only in accordance with the terms of such
  - license and with the inclusion of the above copyright notice. Please
  - refer to the file "COPYRIGHT" for further copyright and licensing
  - information. This software and information or any other copies
  - thereof may not be provided or otherwise made available to any other
  - person.
  -->

<!-- Generator: Adobe Illustrator 15.1.0, SVG Export Plug-In . SVG Version: 6.00 Build 0)  -->
<!DOCTYPE svg PUBLIC "-//W3C//DTD SVG 1.1//EN" "http://www.w3.org/Graphics/SVG/1.1/DTD/svg11.dtd">
<svg version="1.1" id="Layer_1" xmlns="http://www.w3.org/2000/svg" xmlns:xlink="http://www.w3.org/1999/xlink" x="0px" y="0px"
	 width="30px" height="30px" viewBox="35 36.567 30 30" enable-background="new 35 36.567 30 30" xml:space="preserve">
<title>Swagger-Icon-Color</title>
<path fill="#6D9A40" d="M49.906,63.845c-6.761-0.099-12.189-5.609-12.184-12.372c0.052-6.781,5.592-12.235,12.373-12.183
	s12.236,5.591,12.182,12.372C62.226,58.443,56.687,63.896,49.906,63.845z M49.906,63.845c-6.761-0.099-12.189-5.609-12.184-12.372
	c0.052-6.781,5.592-12.235,12.373-12.183s12.236,5.591,12.182,12.372C62.226,58.443,56.687,63.896,49.906,63.845z"/>
<path fill="#FFFFFF" d="M45.562,57.24c-0.514,0-0.703-0.137-0.753-0.635c-0.069-0.635-0.043-1.277-0.086-1.92
	c-0.077-1.183-0.205-2.355-1.362-3.118c0.588-0.383,1.006-0.978,1.165-1.663c0.096-0.484,0.162-0.973,0.197-1.465
	c0-0.497,0-0.994,0-1.491c0.068-0.789,0.12-1.105,1.062-1.08c0.137,0,0.283,0,0.438,0v-1.576c-0.377,0-0.711,0-1.037,0
	c-1.03-0.063-1.931,0.689-2.056,1.713c-0.138,0.789-0.112,1.594-0.172,2.391c-0.012,0.411-0.055,0.82-0.128,1.225
	c-0.042,0.59-0.554,1.034-1.145,0.992c-0.021-0.001-0.042-0.004-0.063-0.007c-0.098,0.012-0.195,0.03-0.291,0.052v1.713
	c1.336,0.068,1.516,0.54,1.627,1.937c0,0.505,0,1.019,0,1.524c0.019,0.502,0.082,1.001,0.189,1.49
	c0.309,1.277,1.542,1.715,3.05,1.449v-1.525L45.562,57.24z"/>
<path fill="#FFFFFF" d="M57.223,49.802c-0.099-0.387-0.158-0.783-0.179-1.183c-0.044-0.737,0-1.474-0.086-2.202
	c-0.103-1.705-1.38-2.348-3.205-2.047v1.516h0.737c0.394,0,0.685,0.154,0.729,0.591c0.042,0.438,0,0.797,0.076,1.2
	c0.078,0.797,0.12,1.593,0.257,2.382c0.159,0.63,0.559,1.172,1.114,1.508c-0.853,0.594-1.345,1.583-1.301,2.622
	c0,0.72-0.053,1.439-0.087,2.167c-0.034,0.729-0.265,0.857-0.925,0.857h-0.574v1.551c0.385,0,0.745,0,1.096,0
	c1.014,0.042,1.886-0.706,1.996-1.714c0.094-0.592,0.148-1.19,0.164-1.791c0-0.548,0-1.096,0.085-1.636
	c-0.025-0.668,0.492-1.229,1.159-1.256c0.054-0.001,0.108,0,0.16,0.005c0.082-0.013,0.163-0.033,0.241-0.061v-1.602h-0.352
	c-0.557,0.055-1.052-0.352-1.106-0.907C57.223,49.803,57.223,49.802,57.223,49.802z"/>
<path fill="#FFFFFF" d="M48.245,42.849c0.426-0.072,1.052-0.122,1.765-0.122c0.869,0,1.479,0.13,1.895,0.458
	c0.356,0.278,0.549,0.696,0.549,1.235c0,0.739-0.53,1.253-1.033,1.435v0.027c0.408,0.164,0.633,0.55,0.78,1.087
	c0.185,0.669,0.356,1.436,0.47,1.66h-1.355c-0.087-0.174-0.235-0.643-0.4-1.366c-0.165-0.736-0.416-0.93-0.965-0.938h-0.392v2.305
	h-1.313V42.849z M49.558,45.369h0.522c0.66,0,1.051-0.33,1.051-0.842c0-0.532-0.366-0.811-0.975-0.811
	c-0.322,0-0.503,0.018-0.599,0.045V45.369L49.558,45.369z"/>
<path fill="#FFFFFF" d="M49.866,52.057h1.98v5.56c0,2.498-1.203,3.375-3.12,3.375c-0.472,0-1.068-0.081-1.462-0.209l0.223-1.604
	c0.277,0.088,0.627,0.155,1.018,0.155c0.835,0,1.354-0.386,1.354-1.733v-5.544H49.866z"/>
</svg>
