<?xml version="1.0" encoding="utf-8"?>
<!--
  - This file is part of StyleBI.
  - Copyright (C) 2024  InetSoft Technology
  -
  - This program is free software: you can redistribute it and/or modify
  - it under the terms of the GNU Affero General Public License as published by
  - the Free Software Foundation, either version 3 of the License, or
  - (at your option) any later version.
  -
  - This program is distributed in the hope that it will be useful,
  - but WITHOUT ANY WARRANTY; without even the implied warranty of
  - MERCHANTABILITY or FITNESS FOR A PARTICULAR PURPOSE.  See the
  - GNU Affero General Public License for more details.
  -
  - You should have received a copy of the GNU Affero General Public License
  - along with this program.  If not, see <https://www.gnu.org/licenses/>.
  -->

<!-- Generator: Adobe Illustrator 15.1.0, SVG Export Plug-In . SVG Version: 6.00 Build 0)  -->
<!DOCTYPE svg PUBLIC "-//W3C//DTD SVG 1.1//EN" "http://www.w3.org/Graphics/SVG/1.1/DTD/svg11.dtd">
<svg version="1.1" id="Layer_1" xmlns="http://www.w3.org/2000/svg" xmlns:xlink="http://www.w3.org/1999/xlink" x="0px" y="0px"
	 width="30px" height="30px" viewBox="291 291 30 30" enable-background="new 291 291 30 30" xml:space="preserve">
<g>
	<circle fill="#5CC5C3" cx="306" cy="306" r="11.934"/>
	<path fill="#FFFFFF" d="M308.991,312.952c-1.506,0-2.73,1.225-2.73,2.73c0,0.888,0.425,1.676,1.083,2.175
		c1.516-0.169,2.945-0.623,4.233-1.307c0.093-0.272,0.143-0.564,0.143-0.868C311.722,314.177,310.496,312.952,308.991,312.952z
		 M308.991,317.438c-0.968,0-1.755-0.787-1.755-1.755c0-0.969,0.787-1.756,1.755-1.756c0.967,0,1.756,0.787,1.756,1.756
		C310.747,316.65,309.958,317.438,308.991,317.438z"/>
	<path fill="#FFFFFF" d="M310.875,309.091c-0.871,0-1.579,0.709-1.579,1.58c0,0.87,0.708,1.579,1.579,1.579s1.579-0.709,1.579-1.579
		C312.454,309.8,311.746,309.091,310.875,309.091z M310.875,311.314c-0.355,0-0.644-0.288-0.644-0.644
		c0-0.354,0.288-0.645,0.644-0.645c0.354,0,0.644,0.29,0.644,0.645C311.519,311.026,311.229,311.314,310.875,311.314z"/>
	<path fill="#FFFFFF" d="M315.106,304.333c-0.893,0-1.619,0.726-1.619,1.619c0,0.892,0.727,1.619,1.619,1.619
		s1.618-0.727,1.618-1.619C316.725,305.059,315.999,304.333,315.106,304.333z M315.106,306.635c-0.376,0-0.684-0.306-0.684-0.683
		c0-0.376,0.308-0.682,0.684-0.682s0.683,0.306,0.683,0.682C315.789,306.329,315.482,306.635,315.106,306.635z"/>
	<path fill="#FFFFFF" d="M295.821,305.952c0-0.909-0.728-1.652-1.63-1.676c-0.044,0.309-0.078,0.622-0.098,0.937
		c0.017-0.001,0.035-0.002,0.051-0.002c0.409,0,0.742,0.333,0.742,0.741s-0.333,0.74-0.742,0.74c-0.019,0-0.038-0.001-0.057-0.002
		c0.018,0.315,0.048,0.63,0.09,0.938C295.087,307.609,295.821,306.864,295.821,305.952z"/>
	<path fill="#FFFFFF" d="M309.002,296.56c0.916,0,1.696-0.586,1.986-1.404c-0.283-0.13-0.573-0.25-0.867-0.358
		c-0.147,0.478-0.593,0.827-1.119,0.827c-0.645,0-1.169-0.525-1.169-1.17c0-0.084,0.009-0.165,0.025-0.244
		c-0.308-0.047-0.618-0.084-0.932-0.108c-0.02,0.114-0.03,0.232-0.03,0.352C306.896,295.615,307.842,296.56,309.002,296.56z"/>
	<path fill="#FFFFFF" d="M305.981,302.383c-1.989,0-3.608,1.619-3.608,3.608c0,1.988,1.619,3.606,3.608,3.606
		c1.988,0,3.607-1.618,3.607-3.606C309.588,304.001,307.969,302.383,305.981,302.383z M305.981,308.662
		c-1.474,0-2.672-1.198-2.672-2.671c0-1.474,1.198-2.672,2.672-2.672c1.472,0,2.671,1.198,2.671,2.672
		C308.652,307.464,307.453,308.662,305.981,308.662z"/>
	<path fill="#FFFFFF" d="M311.964,299.968c-1.598-1.6-3.724-2.479-5.983-2.479c-2.261,0-4.386,0.88-5.985,2.479
		c-1.598,1.599-2.478,3.724-2.478,5.983c0,2.261,0.88,4.386,2.478,5.985c1.599,1.598,3.724,2.478,5.985,2.478
		c2.259,0,4.385-0.88,5.983-2.478c1.599-1.599,2.479-3.724,2.479-5.985C314.443,303.692,313.563,301.567,311.964,299.968z
		 M305.981,313.479c-4.15,0-7.527-3.377-7.527-7.527s3.377-7.527,7.527-7.527c4.15,0,7.526,3.377,7.526,7.527
		S310.131,313.479,305.981,313.479z"/>
	<path fill="#FFFFFF" d="M300.481,305.543c2.795,0,5.07-2.275,5.07-5.071c0-2.787-2.261-5.055-5.044-5.069
		c-0.988,0.513-1.894,1.159-2.696,1.916c0.721-0.611,1.653-0.98,2.67-0.98c2.28,0,4.135,1.854,4.135,4.133
		c0,2.28-1.855,4.134-4.135,4.134c-2.279,0-4.134-1.854-4.134-4.134c0-1.021,0.372-1.955,0.986-2.677
		c-0.759,0.802-1.408,1.709-1.922,2.696C295.422,303.278,297.692,305.543,300.481,305.543z"/>
</g>
</svg>
