<?xml version="1.0" encoding="utf-8"?>
<!--
  - This file is part of StyleBI.
  - Copyright (C) 2024  InetSoft Technology
  -
  - This program is free software: you can redistribute it and/or modify
  - it under the terms of the GNU Affero General Public License as published by
  - the Free Software Foundation, either version 3 of the License, or
  - (at your option) any later version.
  -
  - This program is distributed in the hope that it will be useful,
  - but WITHOUT ANY WARRANTY; without even the implied warranty of
  - MERCHANTABILITY or FITNESS FOR A PARTICULAR PURPOSE.  See the
  - GNU Affero General Public License for more details.
  -
  - You should have received a copy of the GNU Affero General Public License
  - along with this program.  If not, see <https://www.gnu.org/licenses/>.
  -->

<!-- Generator: Adobe Illustrator 15.1.0, SVG Export Plug-In . SVG Version: 6.00 Build 0)  -->
<!DOCTYPE svg PUBLIC "-//W3C//DTD SVG 1.1//EN" "http://www.w3.org/Graphics/SVG/1.1/DTD/svg11.dtd">
<svg version="1.1"
	 id="Layer_1" xmlns:dc="http://purl.org/dc/elements/1.1/" xmlns:rdf="http://www.w3.org/1999/02/22-rdf-syntax-ns#" xmlns:cc="http://creativecommons.org/ns#"
	 xmlns="http://www.w3.org/2000/svg" xmlns:xlink="http://www.w3.org/1999/xlink" x="0px" y="0px" width="30px" height="30px"
	 viewBox="485 435 30 30" enable-background="new 485 435 30 30" xml:space="preserve">
<g>
	<g transform="translate(-.53268 66.8)">
		<path fill="#FDEE21" d="M502.408,374.014c-0.228-0.623-8.056-3.667-8.157-3.333c-1.437,0.375-2.022,2.031-3.011,3.082
			l-2.196-0.126c-0.967,1.244-1.475,2.516-1.129,3.835c1.24,1.68,2.679,3.11,3.576,5.22c0.071,0.994,4.304,0.104,5.212-0.093
			c-1.239,0.888-2.319,2.263-1.854,6.224c0.423,1.861,0.713,3.938,4.469,6.041c0.495,0.277,1.517,0.597,2.151,0.829
			c0.604,0.279,1.312,0.393,3.307-0.217c1.155-0.498,2.402-0.798,3.532-1.297l-1.357,0.063c-1.871,0.043-3.315,0.182-3.762-0.34
			l-1.72-2.972l1.002-1.951c1.389,0.145,1.851,1.271,3.074,1.698l1.444-1.068c4.191,2.474,5.857-1.569,6.337-4.716
			c-0.052-1.282-2.773,0.4-2.608-0.198c0.064-1.377-1.059-3.178-1.784-4.583l0.838-3.247c0.383-0.339-1.762-3.951-3.512-4.402
			C504.722,372.069,502.408,374.014,502.408,374.014L502.408,374.014z"/>
	</g>
	<g>
		<g transform="translate(-.53268 66.8)">
			<path fill="#C8C037" d="M509.293,380.915c0.016,0.349,0.014,0.774,0.047,1.038c-0.005,0.202-0.156,0.21-0.281,0.252l0.814,0.299
				c0.162,0.273,0.293,0.545,0.424,0.817c0.152,0.671,0.038,0.688-0.063,0.739c-0.296,0.003-0.592,0.003-0.866-0.056
				c0.123,0.065,0.149,0.113,0.164,0.197c0.023,0.152-0.076,0.363-0.239,0.564c0.241,0.136,0.681,0.266,1.009,0.39l0.373-0.828
				C510.505,383.109,509.994,381.986,509.293,380.915L509.293,380.915z"/>
			<path fill="#C8C037" d="M510.815,385.002c0.453,0.188,1.077,0.133,1.945-0.312c0.128-0.093,0.248-0.038,0.018,0.112
				C511.642,385.823,511.098,385.312,510.815,385.002L510.815,385.002z"/>
			<path fill="#C8C037" d="M512.846,384.556c0.135,0.256,0.054,0.465,0.009,0.683c-0.14,1.105-0.485,1.979-1.162,2.893
				c-2.197,3.535-4.417,1.323-6.188-0.116l-0.731,1.834c-0.038,0.161-0.2,0.286,0.943,0.79l1.166-0.823
				C511.323,393.196,514.47,385.086,512.846,384.556L512.846,384.556z"/>
			<path fill="#C8C037" d="M506.042,387.714c-0.301,0.021-1.191,0.325-1.231,0.499l0.411-0.61L506.042,387.714z"/>
			<path fill="#C8C037" d="M505.459,383.966c0.054,0,0.318,0.071,0.288,0.055c-0.039-0.022-0.003,0.369,0.08,0.573l-0.322,0.7
				c0.615-0.71,1.591-0.662,2.495-0.754l-0.432-0.269c0.075-0.248-0.015-0.447-0.055-0.659L505.459,383.966z"/>
			<path fill="#C8C037" d="M506.972,381.859c-0.66,0.203-1.294,0.533-1.718,1.239c0.323-1.162,0.39-1.119,0.493-1.177
				C506.203,381.72,506.574,381.846,506.972,381.859L506.972,381.859z"/>
		</g>
		<g transform="translate(-.53268 66.8)">
			<path fill="#FCF6A0" d="M503.443,395.489c-0.799,0.881-2.582-0.067-4.062-0.55c-3.763-2.393-4.498-4.646-4.549-6.854
				c-0.193-3.165,0.779-5.004,2.008-5.439c-0.814,1.568-1.193,4.384-0.816,6.479c0.305,1.164,0.311,3.127,2.26,4.18
				c0.955,0.536,0.695,0.955,1.34,1.457C500.332,395.312,502.303,395.837,503.443,395.489L503.443,395.489z"/>
			<path fill="#FCF6A0" d="M504.636,380.863c-1.353-1.919-3.255-2.639-5.401-2.718c0.43-0.14,0.86-0.213,1.29-0.42
				c0.106-0.111,0.071-0.306,0.032-0.503c-2.065-0.54-3.369-1.206-5.019-1.824l4.454,1.069
				C502.999,376.581,502.743,377.324,504.636,380.863L504.636,380.863z"/>
			<path fill="#FCF6A0" d="M506.085,379.937c-1-1.427-1.97-3.16-3.285-4.262c-3.178-1.434-6.321-2.499-10.005-3.468l1.176-1.512
				c3.909,0.893,7.582,2.385,10.87,4.847C505.397,376.95,505.767,378.358,506.085,379.937L506.085,379.937z"/>
			<path fill="#FCF6A0" d="M508.1,377.415c0,0-0.559-1.258-0.832-1.738c-0.633-0.701-0.954-2.009-2.25-2.625
				c0.41,0.111,0.69-0.021,1.527,0.738l1.318,2.501L508.1,377.415z"/>
			<path fill="#FCF6A0" d="M508.798,379.593c0.129-1.089,0.375-2.836,0.093-3.527c-0.783-1.052-1.573-2.139-2.362-3.148
				c-0.131-0.122-0.225-0.286-0.329-0.415c1.113,0.288,2.27,1.059,3.832,4.106L508.798,379.593z"/>
		</g>
		<g transform="translate(-.53268 66.8)">
			<path d="M504.13,379.722c-0.442-0.348-0.835-1.58-1.506-1.834c-0.62-0.052-0.847-0.248-1.663-0.082
				c0.296-0.148,0.575-0.337,0.89-0.439c0.213-0.05,0.413,0.006,0.615,0.033c0.051-0.023,0.083-0.052,0.071-0.097
				c-0.82-0.507-2.506-0.514-3.642-0.804c1.319,0.044,2.781-0.029,3.771,0.289C503.463,377.495,503.724,378.828,504.13,379.722
				L504.13,379.722z"/>
			<path d="M506.548,373.786c0.184,0.016,1.167,1.575,1.216,1.834c0.081,0.567,0.283,1.202,0.336,1.795
				c-0.161-0.569-0.336-1.138-0.559-1.707c-0.064-0.156-0.228-0.51-0.681-1.011C506.648,374.345,506.602,374.068,506.548,373.786
				L506.548,373.786z"/>
			<path d="M509.886,382.274h-0.42l0.464,0.121L509.886,382.274z"/>
			<path d="M507.011,381.853c-0.424-0.053-0.859-0.06-1.282,0.034c-0.173,0.233-0.186,0.469-0.261,0.687
				C505.985,382.005,506.189,381.971,507.011,381.853L507.011,381.853z"/>
			<path d="M512.792,384.783c-0.235,0.188-0.26,0.366-0.956,0.578c-0.51,0.121-0.797-0.083-1.035-0.358
				c0.362,0.104,0.419,0.379,1.393,0.072L512.792,384.783z"/>
			<path d="M510.678,384.902c-0.171,0.467-0.352,0.937-0.536,1.374c-0.44,0.516-0.254,0.223-0.911,1.022
				c0.211-0.324,0.484-0.637,0.628-0.975c0.102-0.224,0.226-0.459,0.281-0.657c-0.175-0.086-0.531-0.093-0.58-0.063
				c-0.584,0.345-0.691,0.71-1.035,1.065c0.25-0.398,0.465-0.836,0.753-1.195c0.033-0.047,0.246-0.055,0.38-0.083
				c-0.206-0.034-0.586-0.108-0.615-0.105c-0.382,0.092-0.595,0.424-0.879,0.644c0.207-0.298,0.397-0.607,0.659-0.863
				c0.027-0.029,0.735,0.033,1.103,0.178l0.006,0.146l0.211,0.084l0.155-0.393L510.678,384.902z"/>
			<path d="M506.05,387.714c-0.092-0.03-0.925-0.138-0.925-0.112c-0.319,0.227-0.367,0.444-0.361,0.631
				C505.295,387.712,505.276,387.71,506.05,387.714L506.05,387.714z"/>
			<path d="M505.419,383.959c0,0,0.601-0.088,0.589-0.032c-0.044,0.209,0.074,0.714,0.086,0.644l-0.338,0.276
				c0.706-0.354,1.45-0.284,2.204-0.338c0,0-0.636-0.176-0.596-0.181c0.142-0.021-0.039-0.663-0.086-0.677
				c0.12-0.041,0.238-0.072,0.359-0.102C506.731,383.311,506.207,383.452,505.419,383.959L505.419,383.959z"/>
			<path d="M510.61,384.406l-0.131,0.067c-0.02-0.392-0.439-0.362-0.793-0.366l-0.291-0.07c0.089,0.082,0.362,0.074,0.252,0.251
				c-0.093,0.049-0.135,0.262-0.188,0.441l-0.156,0.007c0.277,0.107,0.533,0.203,0.84,0.33l0.179,0.026l0.431-0.23L510.61,384.406z"
				/>
		</g>
		<g transform="translate(-.53268 66.8)">
			<path fill="#FFFFFF" d="M506.635,384.143c-0.067-0.135-0.406-0.115-0.481-0.028c-0.059,0.07-0.002,0.52,0.074,0.444
				c0.108-0.097,0.254-0.138,0.428-0.13C506.678,384.346,506.669,384.258,506.635,384.143L506.635,384.143z"/>
			<path fill="#FFFFFF" d="M509.893,384.813c0.032-0.022,0.099-0.248,0.076-0.316c-0.044-0.16-0.359-0.127-0.359-0.127
				c-0.076,0.045-0.144,0.296-0.116,0.377C509.508,384.817,509.841,384.839,509.893,384.813L509.893,384.813z"/>
		</g>
		<g transform="translate(-.53268 66.8)">
			<path d="M496.386,392.608l0.199,0.02c1.183,0.58,3.13,1.44,5.951,0.979l0.441,0.695c-1.24,0.604-2.576,0.465-3.829,0.508
				L496.386,392.608z"/>
			<path d="M494.687,388.016l0.593,2.488c1.586,0.992,4.296,2.128,6.557,2.034l-0.5-1.145
				C496.62,390.393,496.222,389.128,494.687,388.016L494.687,388.016z"/>
			<path d="M496.162,382.921c0.289,1.928,0.676,3.389,2.352,4.613c1.028,0.738,2.047,1.475,3.289,2.084c0,0-0.108,0.564-0.2,0.554
				c-3.691-0.409-6.394-3.47-6.721-4.868C495.198,384.231,495.653,383.561,496.162,382.921L496.162,382.921z"/>
			<path d="M497.936,381.829c0.491,2.136,1.664,4.301,2.831,6.264c0.427,0.542,0.54,0.782,1.198,1.111
				c0.889,0.281,1.52,0.21,2.165,0.168c-0.176-0.328-0.335-0.671-0.538-0.979c-1.445-1.145-0.778-2.186-0.393-2.844
				c-0.805-0.205-1.871-0.639-2.018-1.205c-0.237-1.839-0.116-2.423,0.119-3.366C500.212,381.208,499.107,381.435,497.936,381.829
				L497.936,381.829z"/>
			<path stroke="#000000" stroke-width="0.114" d="M493.939,370.481c-0.357,0.233-0.703,0.569-1.074,0.949
				c-0.615,0.637-1.024,1.258-1.651,1.718c-0.125,0.109-0.476,0.282-0.918,0.308c-0.208,0.011-0.344,0.045-0.726-0.003
				c-0.338-0.182-0.658-0.063-0.971,0.311c-0.342,0.493-0.777,1.429-0.958,2.019c-0.373,1.503,0.577,2.743,1.488,3.697
				c0.809,0.791,1.276,1.286,1.609,2.01c0.251,0.471,0.438,1.117,0.64,1.569c0.073,0.144,0.058,0.143,0.254,0.186
				c0.422,0.091,1.009,0.091,1.532,0.137c0.227,0.003,0.537-0.005,0.831-0.036c0.406-0.077,0.882-0.152,1.281-0.289
				c0.391-0.097,0.738-0.23,1.051-0.352c-0.041,0.137-0.338,0.269-0.451,0.442c-1.062,1.52-1.352,2.871-1.168,5.008
				c0.104,0.944,0.322,1.729,0.649,2.627c0.15,0.41,0.468,1.06,0.774,1.491c0.908,1.285,2.942,2.934,5.773,3.569
				c0.493,0.067,1.053,0.03,1.581-0.109c1.396-0.424,4.243-1.426,4.243-1.426s-2.526,0.21-3.684,0.096
				c-0.27-0.043-0.563-0.058-0.75-0.238c-0.032-0.041-0.147-0.271-0.071-0.272c0.099-0.003,0.387-0.124,0.832-0.162
				c-0.949-0.103-0.936-0.102-1.004-0.274c-0.109-0.269-0.274-0.635-0.443-0.956c0.418,0.037,1.342,0.09,1.653-0.235
				c0,0-0.547,0.063-1.029,0.007c-0.161-0.02-0.438-0.117-0.522-0.148c-0.216-0.083-0.395-0.11-0.437-0.166
				c-0.075-0.19-0.126-0.256-0.217-0.513c-0.123-0.339-0.132-0.718-0.156-1.064c0.315,0.389,0.718,0.717,1.251,0.884
				c0.007-0.015,0.69,0.298,1.188,0.137l0.104-0.033c0,0.01-0.331,0.029-0.451-0.03c-1.01-0.43-1.161-0.806-1.325-0.992
				l-0.436-0.653c0.132-0.264,0.208-0.274,0.383-0.276c0.531,0.059,0.763,0.104,1.086,0.025c0.219,0.45,0.278,0.902,0.775,1.229
				c1.658,0.492,2.019-0.145,2.42-0.709c1.193,0.874,3.136,1.145,4.484,0.015c1.714-1.983,2.257-5.111,2.105-5.291
				c-0.214-0.362-0.495-0.737-0.735-0.686c-0.86,0.234-1.178,0.672-2.029,0.571c0.103-0.006,0.272-0.008,0.273-0.019
				c0.065-0.72-0.005-1.07-0.036-1.129c-0.259-0.57-0.6-1.171-0.836-1.62c-0.062-0.094-0.239-0.802-0.54-1.082
				c-0.129-0.111-0.445-0.4-0.445-0.4l-0.025,0.308c0,0,0.124,0.019,0.17,0.21c0.178,0.723,1.082,2.435,1.148,2.516
				c0.322,0.52,0.034,1.164,0.278,1.526c0.022,0.046,0.496-0.004,0.864,0.018c0.605-0.131,0.577-0.396,1.103-0.438
				c0.351-0.025,0.387,0.633,0.379,0.687c-0.064,0.729-0.286,1.577-0.625,2.352c-0.705,1.359-1.495,2.58-2.617,2.751
				c-1.367,0.239-2.078-0.358-2.819-0.738l-0.283,0.24c-0.965,0.96-2.107,0.874-2.576-0.379c-0.232-0.486-0.536-0.784-0.796-1.202
				l-1.379,0.992c-0.114,0.236-0.255,0.607-0.426,1.022c-0.12,0.287-0.22,0.782-0.213,1.193c-0.177,0.301,0.611,1.522,1.109,2.264
				c0.146,0.22,0.422,0.601,0.432,0.627c0.098,0.256,0.316,0.482,0.327,0.51c0.925,1.206-1.167,0.929-1.599,0.855
				c-0.853-0.135-1.686-0.492-2.47-0.969c-0.045-0.025-0.09-0.056-0.135-0.083c-0.932-0.587-1.789-1.337-2.517-2.078
				c-0.435-0.492-0.849-1.502-1.153-2.216c-0.459-1.72-1.116-4.7,0.664-6.957c0.114-0.129,0.235-0.344,0.338-0.386
				c0.529-0.358,1.104-0.601,1.722-0.737l-0.063-0.4c-0.309,0.07-1.347,0.45-1.641,0.609c-0.668,0.193-1.222,0.396-2.073,0.609
				c-0.277,0.034-0.549,0.034-0.815-0.001c-0.612-0.083-1.655-0.009-1.722-0.071c-0.415-0.577-0.529-1.614-0.907-2.168l-0.004-0.006
				l-0.005-0.005c-0.22-0.296-0.477-0.538-0.73-0.79c-0.907-0.9-1.683-1.771-1.899-2.694c-0.055-0.272-0.196-0.554-0.121-1.361
				l0.001-0.004l0.001-0.004c0.218-0.753,0.573-1.367,1.175-1.982c0.626,0.01,1.247,0.023,1.73,0.116
				c0.222,0.038,0.682,0.098,1.159,0.274c1.205,0.449,2.797,1.188,2.797,1.188c-1.196-0.656-2.532-1.509-3.376-1.681
				c-0.125-0.018-0.203-0.075-0.24-0.175c1.269-0.746,1.501-1.625,2.336-2.412c0.381-0.166,0.53-0.251,0.854-0.286
				c2.999,0.474,4.887,1.668,6.379,2.466c0.606,0.329,1.157,0.579,1.684,0.879c0.461,0.152,1.853,1.202,2.26,1.77
				c0.414,0.873,0.716,1.816,0.991,2.727c0.198,0.927,0.37,1.302,0.37,1.302s-0.168-0.775-0.14-0.914
				c0.176,0.065,0.587,0.193,0.757,0.173c0,0-0.763-0.393-0.861-0.742c-0.32-1.118-0.643-2.857-0.729-2.947
				c-0.243-0.308-1.263-1.086-1.887-1.448c-0.237-0.136-0.364-0.22-0.374-0.281c0.198-0.202,0.446-0.468,0.667-0.637
				c0.211-0.163,0.405-0.346,0.699-0.456c1.298-0.584,2.041,0.225,2.216,0.061c0,0-0.277-0.32-0.154-0.267
				c0.127,0.069,0.541,0.15,0.586,0.192c0.473,0.37,1.711,1.722,2.454,3.149c0.181,0.349,0.253,0.58,0.169,1
				c-0.083,0.421-0.147,0.652-0.238,0.934c-0.081,0.188-0.545,1.476-0.544,1.648c-0.094,0.707,0.304,1.591,0.304,1.591
				c0.003-0.24-0.016-0.368,0.006-0.54l0.026-0.307c0,0-0.016-0.082-0.012-0.114c0.021-0.213,0.071-0.391,0.086-0.513
				c0.149-0.922,0.409-1.587,0.702-2.396c0.086-0.204,0.201-0.318,0.195-0.474c0.005-0.276-0.242-0.646-0.42-1.008
				c-0.179-0.366-0.395-0.773-0.677-1.204c-0.646-0.926-1.194-1.65-2.2-2.104c-0.281-0.123-1.388-0.244-1.771-0.173
				c-0.463,0.097-0.862,0.192-1.181,0.396c-0.499,0.321-0.893,0.817-1.354,1.109c-1.021-0.511-1.513-0.892-1.605-0.944
				c-0.607-0.325-1.334-0.702-2.118-1.06C498.406,371.486,496.075,370.648,493.939,370.481L493.939,370.481z M506.99,389.51
				c-0.631-0.492-1.158-0.998-1.507-1.519c-0.114,0.611-0.528,1.05-0.849,1.479c-0.063,0.1-0.109,0.236,0.204,0.675
				c0.085,0.115,0.391,0.136,0.598,0.126c-0.211-0.16-0.53-0.326-0.58-0.472c0.368,0.252,0.709,0.324,1.019,0.283
				c0.07-0.009,0.157-0.085,0.226-0.198c0.138-0.297,0.245-0.367,0.355-0.446l0.251,0.313L506.99,389.51z"/>
		</g>
	</g>
</g>
</svg>
