<?xml version="1.0" encoding="utf-8"?>
<!--
  - This file is part of StyleBI.
  -
  - Copyright (c) 2024, InetSoft Technology Corp, All Rights Reserved.
  -
  - The software and information contained herein are copyrighted and
  - proprietary to InetSoft Technology Corp. This software is furnished
  - pursuant to a written license agreement and may be used, copied,
  - transmitted, and stored only in accordance with the terms of such
  - license and with the inclusion of the above copyright notice. Please
  - refer to the file "COPYRIGHT" for further copyright and licensing
  - information. This software and information or any other copies
  - thereof may not be provided or otherwise made available to any other
  - person.
  -->

<!-- Generator: Adobe Illustrator 15.1.0, SVG Export Plug-In . SVG Version: 6.00 Build 0)  -->
<!DOCTYPE svg PUBLIC "-//W3C//DTD SVG 1.1//EN" "http://www.w3.org/Graphics/SVG/1.1/DTD/svg11.dtd">
<svg version="1.1" id="Layer_1" xmlns="http://www.w3.org/2000/svg" xmlns:xlink="http://www.w3.org/1999/xlink" x="0px" y="0px"
	 width="26px" height="30px" viewBox="293 381 26 30" enable-background="new 293 381 26 30" xml:space="preserve">
<path d="M312.613,394.317c0.177-0.021,0.344-0.021,0.5,0c0.089-0.203,0.104-0.562,0.025-0.947c-0.119-0.572-0.28-0.921-0.618-0.864
	c-0.333,0.052-0.349,0.468-0.229,1.041C312.358,393.87,312.478,394.146,312.613,394.317L312.613,394.317z M309.737,394.77
	c0.239,0.104,0.385,0.177,0.441,0.115c0.036-0.037,0.026-0.109-0.03-0.203c-0.12-0.192-0.36-0.39-0.62-0.499
	c-0.525-0.229-1.154-0.151-1.644,0.197c-0.16,0.12-0.312,0.281-0.291,0.38c0.005,0.031,0.031,0.057,0.088,0.063
	c0.131,0.015,0.594-0.219,1.124-0.25C309.19,394.546,309.498,394.666,309.737,394.77z M309.258,395.046
	c-0.312,0.046-0.483,0.15-0.593,0.25c-0.094,0.083-0.15,0.171-0.15,0.239c0,0.032,0.016,0.047,0.025,0.057
	c0.016,0.011,0.031,0.021,0.053,0.021c0.072,0,0.229-0.063,0.229-0.063c0.432-0.156,0.724-0.135,1.004-0.104
	c0.156,0.016,0.229,0.026,0.266-0.026c0.01-0.016,0.021-0.047-0.011-0.099C310.002,395.196,309.685,394.994,309.258,395.046z
	 M311.641,396.055c0.213,0.104,0.447,0.063,0.521-0.094c0.078-0.156-0.037-0.364-0.244-0.468c-0.214-0.104-0.447-0.062-0.521,0.094
	C311.323,395.743,311.433,395.951,311.641,396.055z M313.004,394.864c-0.172-0.006-0.317,0.187-0.317,0.421
	c-0.005,0.235,0.13,0.432,0.307,0.432c0.172,0.005,0.317-0.188,0.317-0.421C313.315,395.061,313.175,394.869,313.004,394.864z
	 M301.445,399.118c-0.042-0.051-0.114-0.036-0.182-0.021c-0.047,0.011-0.104,0.026-0.161,0.021c-0.125,0-0.234-0.057-0.296-0.149
	c-0.078-0.121-0.073-0.303,0.01-0.505c0.01-0.026,0.026-0.058,0.042-0.094c0.141-0.313,0.369-0.828,0.109-1.322
	c-0.198-0.369-0.515-0.603-0.895-0.649c-0.37-0.047-0.744,0.088-0.989,0.354c-0.38,0.421-0.442,0.993-0.364,1.191
	c0.026,0.073,0.067,0.094,0.099,0.099c0.063,0.011,0.161-0.036,0.219-0.197c0.005-0.011,0.01-0.032,0.015-0.053
	c0.026-0.083,0.078-0.244,0.156-0.369c0.099-0.156,0.25-0.26,0.432-0.297c0.182-0.041,0.369-0.005,0.525,0.1
	c0.266,0.177,0.369,0.499,0.255,0.812c-0.058,0.161-0.156,0.468-0.135,0.723c0.042,0.515,0.359,0.718,0.639,0.739
	c0.276,0.01,0.468-0.146,0.515-0.255C301.481,399.181,301.46,399.14,301.445,399.118L301.445,399.118z"/>
<path d="M316.461,399.207c-0.011-0.036-0.078-0.286-0.172-0.588s-0.192-0.515-0.192-0.515c0.374-0.563,0.385-1.067,0.332-1.353
	c-0.052-0.354-0.202-0.655-0.499-0.967c-0.297-0.313-0.905-0.63-1.759-0.869c-0.099-0.026-0.42-0.115-0.447-0.125
	c0-0.021-0.025-1.056-0.041-1.503c-0.016-0.322-0.042-0.827-0.197-1.321c-0.188-0.671-0.51-1.259-0.916-1.633
	c1.113-1.155,1.811-2.43,1.811-3.522c0-2.102-2.581-2.736-5.765-1.42c-0.005,0-0.67,0.287-0.676,0.287
	c-0.005-0.005-1.217-1.197-1.238-1.212c-3.625-3.163-14.966,9.441-11.34,12.5l0.791,0.671c-0.208,0.53-0.286,1.145-0.218,1.8
	c0.083,0.844,0.52,1.649,1.223,2.273c0.671,0.593,1.55,0.968,2.403,0.968c1.41,3.251,4.635,5.244,8.412,5.357
	c4.053,0.12,7.46-1.783,8.885-5.196c0.094-0.239,0.489-1.321,0.489-2.273C317.35,399.603,316.809,399.207,316.461,399.207
	L316.461,399.207z M299.876,401.767c-0.125,0.021-0.25,0.03-0.375,0.025c-1.223-0.03-2.549-1.134-2.679-2.444
	c-0.146-1.446,0.593-2.56,1.899-2.819c0.156-0.031,0.343-0.053,0.551-0.042c0.733,0.042,1.81,0.604,2.06,2.2
	C301.546,400.102,301.198,401.542,299.876,401.767z M298.508,395.665c-0.812,0.156-1.53,0.619-1.972,1.258
	c-0.26-0.218-0.749-0.639-0.837-0.806c-0.702-1.332,0.765-3.917,1.79-5.374c2.528-3.61,6.487-6.341,8.318-5.847
	c0.296,0.083,1.285,1.228,1.285,1.228s-1.832,1.014-3.533,2.435C301.271,390.322,299.543,392.887,298.508,395.665L298.508,395.665z
	 M311.357,401.226c0.025-0.011,0.047-0.042,0.041-0.073c-0.005-0.036-0.036-0.063-0.072-0.063c0,0-1.92,0.286-3.729-0.379
	c0.197-0.641,0.723-0.411,1.514-0.344c1.431,0.083,2.71-0.125,3.656-0.396c0.822-0.234,1.899-0.702,2.737-1.363
	c0.28,0.62,0.379,1.301,0.379,1.301s0.219-0.042,0.401,0.072c0.171,0.104,0.301,0.328,0.212,0.901
	c-0.177,1.065-0.629,1.93-1.389,2.73c-0.463,0.499-1.024,0.931-1.669,1.249c-0.344,0.182-0.708,0.332-1.093,0.462
	c-2.872,0.937-5.812-0.093-6.763-2.31c-0.078-0.167-0.14-0.344-0.193-0.525c-0.405-1.462-0.062-3.21,1.01-4.313
	c0.067-0.067,0.134-0.15,0.134-0.254c0-0.089-0.057-0.178-0.104-0.245c-0.374-0.547-1.675-1.472-1.415-3.267
	c0.187-1.29,1.316-2.195,2.367-2.143l0.266,0.016c0.458,0.026,0.853,0.083,1.227,0.099c0.631,0.026,1.192-0.063,1.858-0.619
	c0.223-0.187,0.405-0.348,0.712-0.4c0.031-0.005,0.114-0.037,0.271-0.026c0.161,0.01,0.317,0.052,0.458,0.146
	c0.536,0.359,0.614,1.217,0.641,1.852c0.015,0.359,0.057,1.233,0.072,1.482c0.036,0.572,0.183,0.655,0.488,0.754
	c0.172,0.057,0.328,0.099,0.567,0.167c0.708,0.197,1.129,0.4,1.395,0.661c0.156,0.161,0.234,0.333,0.255,0.499
	c0.083,0.608-0.474,1.362-1.951,2.049c-1.612,0.75-3.568,0.937-4.921,0.786c-0.104-0.011-0.474-0.052-0.474-0.052
	c-1.081-0.146-1.695,1.253-1.051,2.21c0.417,0.619,1.556,1.021,2.695,1.021c2.611,0,4.619-1.114,5.368-2.081
	c0.021-0.031,0.025-0.031,0.058-0.083c0.036-0.058,0.005-0.089-0.042-0.052c-0.608,0.415-3.319,2.075-6.222,1.576
	c0,0-0.354-0.058-0.676-0.183c-0.255-0.099-0.791-0.343-0.854-0.895C309.885,401.912,311.357,401.226,311.357,401.226
	L311.357,401.226z M303.174,390.723c0.9-1.041,2.008-1.941,2.996-2.45c0.037-0.016,0.073,0.021,0.053,0.052
	c-0.078,0.14-0.229,0.447-0.276,0.681c-0.005,0.037,0.032,0.063,0.063,0.042c0.619-0.421,1.69-0.869,2.632-0.931
	c0.042,0,0.063,0.047,0.026,0.073c-0.146,0.109-0.302,0.26-0.417,0.416c-0.021,0.026,0,0.063,0.032,0.063
	c0.66,0.005,1.592,0.234,2.2,0.577c0.041,0.021,0.01,0.104-0.036,0.094c-0.921-0.208-2.424-0.369-3.985,0.01
	c-1.395,0.338-2.461,0.863-3.236,1.43C303.19,390.812,303.144,390.759,303.174,390.723L303.174,390.723z"/>
</svg>
