<?xml version="1.0" encoding="utf-8"?>
<!--
  - This file is part of StyleBI.
  - Copyright (C) 2024  InetSoft Technology
  -
  - This program is free software: you can redistribute it and/or modify
  - it under the terms of the GNU Affero General Public License as published by
  - the Free Software Foundation, either version 3 of the License, or
  - (at your option) any later version.
  -
  - This program is distributed in the hope that it will be useful,
  - but WITHOUT ANY WARRANTY; without even the implied warranty of
  - MERCHANTABILITY or FITNESS FOR A PARTICULAR PURPOSE.  See the
  - GNU Affero General Public License for more details.
  -
  - You should have received a copy of the GNU Affero General Public License
  - along with this program.  If not, see <https://www.gnu.org/licenses/>.
  -->

<!-- Generator: Adobe Illustrator 13.0.0, SVG Export Plug-In . SVG Version: 6.00 Build 14948)  -->
<!DOCTYPE svg PUBLIC "-//W3C//DTD SVG 1.1//EN" "http://www.w3.org/Graphics/SVG/1.1/DTD/svg11.dtd">
<svg version="1.1" id="图层_1" xmlns="http://www.w3.org/2000/svg" xmlns:xlink="http://www.w3.org/1999/xlink" x="0px" y="0px"
	 width="200px" height="200px" viewBox="0 98.666 200 200" enable-background="new 0 98.666 200 200" xml:space="preserve">
<linearGradient id="SVGID_1_" gradientUnits="userSpaceOnUse" x1="-147.7034" y1="10.0332" x2="-83.4202" y2="10.0332" gradientTransform="matrix(1 0 0 -1 214.3999 260.7061)">
	<stop  offset="0" style="stop-color:#043CA0"/>
	<stop  offset="0.989" style="stop-color:#04183F"/>
</linearGradient>
<path fill="url(#SVGID_1_)" d="M130.98,259.165c0,0.767-0.63,1.388-1.407,1.388H68.104c-0.776,0-1.407-0.622-1.407-1.388V242.18
	c0-0.767,0.63-1.387,1.407-1.387h61.469c0.776,0,1.407,0.621,1.407,1.387V259.165z"/>
<linearGradient id="SVGID_2_" gradientUnits="userSpaceOnUse" x1="-115.5618" y1="1.2188" x2="-115.5618" y2="18.9131" gradientTransform="matrix(1 0 0 -1 214.3999 260.7061)">
	<stop  offset="0" style="stop-color:#EFEFEF"/>
	<stop  offset="1" style="stop-color:#E1E4EF"/>
</linearGradient>
<path fill="url(#SVGID_2_)" d="M129.91,258.245c0,0.686-0.609,1.242-1.361,1.242H69.127c-0.751,0-1.36-0.557-1.36-1.242v-15.211
	c0-0.686,0.609-1.241,1.36-1.241h59.423c0.751,0,1.361,0.556,1.361,1.241V258.245z"/>
</svg>
