<?xml version="1.0" encoding="utf-8"?>
<!--
  - This file is part of StyleBI.
  -
  - Copyright (c) 2024, InetSoft Technology Corp, All Rights Reserved.
  -
  - The software and information contained herein are copyrighted and
  - proprietary to InetSoft Technology Corp. This software is furnished
  - pursuant to a written license agreement and may be used, copied,
  - transmitted, and stored only in accordance with the terms of such
  - license and with the inclusion of the above copyright notice. Please
  - refer to the file "COPYRIGHT" for further copyright and licensing
  - information. This software and information or any other copies
  - thereof may not be provided or otherwise made available to any other
  - person.
  -->

<!-- Generator: Adobe Illustrator 15.0.0, SVG Export Plug-In . SVG Version: 6.00 Build 0)  -->
<!DOCTYPE svg PUBLIC "-//W3C//DTD SVG 1.1//EN" "http://www.w3.org/Graphics/SVG/1.1/DTD/svg11.dtd">
<svg version="1.1" id="图层_1" xmlns="http://www.w3.org/2000/svg" xmlns:xlink="http://www.w3.org/1999/xlink" x="0px" y="0px"
	 width="200px" height="200px" viewBox="0 0 200 200" enable-background="new 0 0 200 200" xml:space="preserve">
<path fill="#3fb1fe" d="M199,192.855c0,3.393-2.752,6.145-6.145,6.145H7.145C3.751,199,1,196.248,1,192.855V7.145
	C1,3.751,3.751,1,7.145,1h185.71C196.248,1,199,3.751,199,7.145V192.855z"/>
<path fill="#FFFFFF" d="M194.05,188.213c0,3.223-2.614,5.837-5.837,5.837H11.787c-3.223,0-5.837-2.614-5.837-5.837V11.787
	c0-3.223,2.614-5.837,5.837-5.837h176.426c3.223,0,5.837,2.614,5.837,5.837V188.213z"/>
</svg>
