<?xml version="1.0" encoding="utf-8"?>
<!--
  - This file is part of StyleBI.
  - Copyright (C) 2024  InetSoft Technology
  -
  - This program is free software: you can redistribute it and/or modify
  - it under the terms of the GNU Affero General Public License as published by
  - the Free Software Foundation, either version 3 of the License, or
  - (at your option) any later version.
  -
  - This program is distributed in the hope that it will be useful,
  - but WITHOUT ANY WARRANTY; without even the implied warranty of
  - MERCHANTABILITY or FITNESS FOR A PARTICULAR PURPOSE.  See the
  - GNU Affero General Public License for more details.
  -
  - You should have received a copy of the GNU Affero General Public License
  - along with this program.  If not, see <https://www.gnu.org/licenses/>.
  -->

<!-- Generator: Adobe Illustrator 15.0.0, SVG Export Plug-In . SVG Version: 6.00 Build 0)  -->
<!DOCTYPE svg PUBLIC "-//W3C//DTD SVG 1.1//EN" "http://www.w3.org/Graphics/SVG/1.1/DTD/svg11.dtd">
<svg version="1.1" id="图层_1" xmlns="http://www.w3.org/2000/svg" xmlns:xlink="http://www.w3.org/1999/xlink" x="0px" y="0px"
	 width="200px" height="200px" viewBox="0 0 200 200" enable-background="new 0 0 200 200" xml:space="preserve">
<g>
	<path fill="#42BCF4" d="M199,192.855c0,3.393-2.752,6.145-6.145,6.145H7.145C3.751,199,1,196.248,1,192.855V7.145
		C1,3.751,3.751,1,7.145,1h185.71C196.248,1,199,3.751,199,7.145V192.855z"/>
	<path fill="#FFFFFF" d="M194.05,188.213c0,3.223-2.614,5.837-5.837,5.837H11.787c-3.223,0-5.837-2.614-5.837-5.837V11.787
		c0-3.223,2.614-5.837,5.837-5.837h176.426c3.223,0,5.837,2.614,5.837,5.837V188.213z"/>
	<g>
		<g>
			<path fill="#AFAFAF" d="M38.563,77.077l-4.042-2.329c-0.08,0.133-0.155,0.271-0.234,0.405l4.044,2.334
				C38.404,77.342,38.484,77.217,38.563,77.077z"/>
			<path fill="#AFAFAF" d="M36.357,81.219l-4.193-2.045c-0.069,0.145-0.137,0.282-0.203,0.426l4.191,2.045
				C36.223,81.5,36.29,81.369,36.357,81.219z"/>
			<path fill="#AFAFAF" d="M35.366,83.346l-4.265-1.897c-0.063,0.146-0.125,0.286-0.193,0.424l4.267,1.901
				C35.237,83.631,35.302,83.488,35.366,83.346z"/>
			<path fill="#AFAFAF" d="M55.819,57.371l-2.875-3.675c-0.123,0.098-0.245,0.194-0.37,0.292l2.875,3.675
				C55.575,57.567,55.696,57.47,55.819,57.371z"/>
			<path fill="#AFAFAF" d="M37.424,79.131l-4.122-2.189c-0.076,0.136-0.151,0.275-0.223,0.412l4.12,2.193
				C37.273,79.405,37.348,79.268,37.424,79.131z"/>
			<path fill="#AFAFAF" d="M31.557,94.426l-4.527-1.125c-0.04,0.149-0.08,0.301-0.117,0.455l4.529,1.127
				C31.48,94.725,31.52,94.577,31.557,94.426z"/>
			<path fill="#AFAFAF" d="M32.166,92.159l-4.487-1.29c-0.042,0.154-0.088,0.305-0.127,0.457l4.485,1.286
				C32.079,92.458,32.119,92.307,32.166,92.159z"/>
			<path fill="#AFAFAF" d="M33.61,87.697l-4.386-1.594c-0.053,0.144-0.107,0.293-0.161,0.438l4.388,1.597
				C33.501,87.987,33.557,87.842,33.61,87.697z"/>
			<path fill="#AFAFAF" d="M31.032,96.709l-4.567-0.969c-0.034,0.158-0.062,0.311-0.094,0.463l4.567,0.969
				C30.968,97.02,30.999,96.863,31.032,96.709z"/>
			<path fill="#AFAFAF" d="M32.845,89.913l-4.442-1.442c-0.045,0.148-0.093,0.301-0.141,0.449l4.44,1.438
				C32.752,90.21,32.796,90.063,32.845,89.913z"/>
			<path fill="#AFAFAF" d="M47.184,65.314l-3.469-3.123c-0.105,0.116-0.209,0.232-0.316,0.35l3.47,3.121
				C46.973,65.547,47.077,65.431,47.184,65.314z"/>
			<path fill="#AFAFAF" d="M50.473,61.956l-3.241-3.351c-0.114,0.106-0.229,0.214-0.34,0.323l3.241,3.356
				C50.247,62.178,50.36,62.068,50.473,61.956z"/>
			<path fill="#AFAFAF" d="M48.798,63.604L45.44,60.37c-0.109,0.109-0.221,0.224-0.328,0.336l3.358,3.235
				C48.581,63.828,48.688,63.717,48.798,63.604z"/>
			<path fill="#AFAFAF" d="M30.589,99.016l-4.595-0.807c-0.026,0.154-0.056,0.307-0.083,0.465l4.595,0.809
				C30.531,99.326,30.559,99.174,30.589,99.016z"/>
			<path fill="#AFAFAF" d="M52.201,60.37l-3.124-3.47c-0.117,0.103-0.231,0.208-0.346,0.315l3.122,3.465
				C51.966,60.578,52.083,60.471,52.201,60.37z"/>
			<path fill="#AFAFAF" d="M53.986,58.847l-2.998-3.579c-0.124,0.102-0.243,0.199-0.362,0.3l3,3.571
				C53.746,59.037,53.867,58.942,53.986,58.847z"/>
			<path fill="#AFAFAF" d="M44.132,68.893l-3.679-2.87c-0.095,0.119-0.192,0.244-0.288,0.367l3.678,2.87
				C43.938,69.14,44.035,69.017,44.132,68.893z"/>
			<path fill="#AFAFAF" d="M42.704,70.761l-3.778-2.743c-0.092,0.127-0.187,0.252-0.281,0.378l3.778,2.74
				C42.514,71.012,42.61,70.888,42.704,70.761z"/>
			<path fill="#AFAFAF" d="M41.337,72.677l-3.869-2.608c-0.092,0.131-0.175,0.263-0.265,0.388l3.871,2.611
				C41.163,72.937,41.249,72.806,41.337,72.677z"/>
			<path fill="#AFAFAF" d="M45.627,67.077l-3.574-3c-0.102,0.12-0.205,0.239-0.307,0.359l3.577,2.999
				C45.423,67.314,45.526,67.195,45.627,67.077z"/>
			<path fill="#AFAFAF" d="M39.771,75.068l-3.96-2.471c-0.082,0.131-0.167,0.268-0.247,0.396l3.957,2.476
				C39.601,75.334,39.688,75.198,39.771,75.068z"/>
			<path fill="#AFAFAF" d="M34.447,85.502l-4.328-1.746c-0.06,0.147-0.113,0.291-0.173,0.44l4.328,1.747
				C34.335,85.793,34.388,85.648,34.447,85.502z"/>
			<path fill="#AFAFAF" d="M30.219,101.336l-4.617-0.648c-0.024,0.154-0.046,0.31-0.064,0.467l4.621,0.646
				C30.181,101.645,30.199,101.491,30.219,101.336z"/>
			<path fill="#AFAFAF" d="M29.609,108.387c0-0.015,0-0.023,0.002-0.035l-4.665-0.162c0,0.012-0.002,0.022-0.002,0.037
				c-0.004,0.143-0.004,0.289-0.01,0.435l4.665,0.161C29.601,108.676,29.604,108.532,29.609,108.387z"/>
			<path fill="#AFAFAF" d="M29.573,110.701h-4.669c0,0.156,0.002,0.313,0.002,0.475l4.667-0.002
				C29.573,111.016,29.57,110.855,29.573,110.701z"/>
			<path fill="#AFAFAF" d="M29.735,106.006l-4.652-0.322c-0.012,0.154-0.026,0.313-0.036,0.467l4.657,0.324
				C29.712,106.316,29.726,106.161,29.735,106.006z"/>
			<path fill="#AFAFAF" d="M29.938,103.664l-4.641-0.484c-0.016,0.155-0.03,0.313-0.045,0.471l4.638,0.484
				C29.908,103.98,29.923,103.825,29.938,103.664z"/>
			<path fill="#AFAFAF" d="M151.314,71.105l3.773-2.746c-0.094-0.125-0.186-0.248-0.279-0.375l-3.774,2.74
				C151.128,70.852,151.227,70.979,151.314,71.105z"/>
			<path fill="#AFAFAF" d="M157.593,81.609l4.195-2.047c-0.07-0.139-0.14-0.283-0.207-0.42l-4.19,2.047
				C157.458,81.326,157.527,81.473,157.593,81.609z"/>
			<path fill="#AFAFAF" d="M156.313,79.074l4.115-2.191c-0.07-0.141-0.146-0.275-0.221-0.414l-4.121,2.189
				C156.161,78.799,156.236,78.928,156.313,79.074z"/>
			<path fill="#AFAFAF" d="M159.479,85.904l4.322-1.748c-0.059-0.146-0.115-0.293-0.172-0.436l-4.328,1.748
				C159.361,85.609,159.419,85.764,159.479,85.904z"/>
			<path fill="#AFAFAF" d="M158.577,83.745l4.26-1.903c-0.062-0.143-0.127-0.289-0.19-0.428l-4.26,1.895
				C158.445,83.458,158.512,83.596,158.577,83.745z"/>
			<path fill="#AFAFAF" d="M160.309,88.1l4.387-1.596c-0.057-0.15-0.111-0.296-0.166-0.443l-4.383,1.597
				C160.197,87.809,160.253,87.952,160.309,88.1z"/>
			<path fill="#AFAFAF" d="M155.163,77.016l4.043-2.324c-0.082-0.143-0.16-0.281-0.233-0.414l-4.043,2.33
				C155.012,76.745,155.087,76.883,155.163,77.016z"/>
			<path fill="#AFAFAF" d="M149.895,69.23l3.676-2.872c-0.098-0.125-0.189-0.249-0.289-0.373l-3.674,2.874
				C149.697,68.982,149.798,69.105,149.895,69.23z"/>
			<path fill="#AFAFAF" d="M148.413,67.402l3.569-2.999c-0.1-0.123-0.198-0.238-0.305-0.356l-3.568,3
				C148.212,67.158,148.314,67.281,148.413,67.402z"/>
			<path fill="#AFAFAF" d="M146.87,65.63l3.465-3.119c-0.106-0.117-0.215-0.232-0.315-0.349l-3.47,3.125
				C146.654,65.405,146.77,65.515,146.87,65.63z"/>
			<path fill="#AFAFAF" d="M152.661,73.032l3.868-2.609c-0.088-0.13-0.176-0.266-0.266-0.39l-3.865,2.612
				C152.488,72.77,152.579,72.903,152.661,73.032z"/>
			<path fill="#AFAFAF" d="M153.95,75l3.959-2.473c-0.087-0.136-0.171-0.265-0.255-0.395l-3.954,2.471
				C153.782,74.739,153.868,74.865,153.95,75z"/>
			<path fill="#AFAFAF" d="M164.068,106.428l4.65-0.324c-0.006-0.152-0.018-0.311-0.027-0.465l-4.653,0.326
				C164.048,106.12,164.061,106.275,164.068,106.428z"/>
			<path fill="#AFAFAF" d="M163.611,101.762l4.613-0.65c-0.018-0.155-0.037-0.313-0.061-0.467l-4.617,0.647
				C163.568,101.448,163.585,101.605,163.611,101.762z"/>
			<path fill="#AFAFAF" d="M161.053,90.322l4.438-1.439c-0.05-0.154-0.097-0.301-0.144-0.449l-4.438,1.441
				C160.962,90.02,161.007,90.176,161.053,90.322z"/>
			<path fill="#AFAFAF" d="M164.171,108.777l4.66-0.164c0-0.154-0.006-0.314-0.011-0.469l-4.663,0.164
				C164.165,108.467,164.167,108.623,164.171,108.777z"/>
			<path fill="#AFAFAF" d="M164.2,111.125h4.661c0.002-0.156,0-0.313,0-0.469l-4.666,0.002
				C164.195,110.813,164.2,110.969,164.2,111.125z"/>
			<path fill="#AFAFAF" d="M163.878,104.094l4.64-0.494c-0.017-0.154-0.027-0.31-0.047-0.463l-4.64,0.487
				C163.848,103.779,163.863,103.938,163.878,104.094z"/>
			<path fill="#AFAFAF" d="M163.266,99.438l4.596-0.812c-0.029-0.155-0.057-0.308-0.086-0.46l-4.594,0.809
				C163.208,99.128,163.234,99.285,163.266,99.438z"/>
			<path fill="#AFAFAF" d="M162.32,94.84l4.521-1.13c-0.037-0.149-0.07-0.301-0.107-0.458l-4.526,1.131
				C162.245,94.536,162.279,94.689,162.32,94.84z"/>
			<path fill="#AFAFAF" d="M161.727,92.571l4.483-1.288c-0.043-0.148-0.088-0.301-0.131-0.453l-4.483,1.288
				C161.641,92.27,161.688,92.42,161.727,92.571z"/>
			<path fill="#AFAFAF" d="M162.831,97.135l4.56-0.974c-0.029-0.153-0.062-0.31-0.095-0.461l-4.563,0.972
				C162.768,96.823,162.794,96.979,162.831,97.135z"/>
			<path fill="#AFAFAF" d="M130.516,52.392l2.33-4.042c-0.133-0.079-0.271-0.157-0.406-0.234l-2.332,4.041
				C130.242,52.238,130.381,52.316,130.516,52.392z"/>
			<path fill="#AFAFAF" d="M72.082,48.121l-1.749-4.327c-0.147,0.059-0.292,0.115-0.438,0.175l1.749,4.325
				C71.79,48.235,71.937,48.181,72.082,48.121z"/>
			<path fill="#AFAFAF" d="M145.266,63.914l3.354-3.242c-0.108-0.112-0.222-0.229-0.328-0.341l-3.353,3.244
				C145.05,63.688,145.157,63.803,145.266,63.914z"/>
			<path fill="#AFAFAF" d="M123.838,43.95c-0.145-0.058-0.293-0.111-0.439-0.169l-1.748,4.327c0.148,0.057,0.293,0.113,0.439,0.171
				L123.838,43.95z"/>
			<path fill="#AFAFAF" d="M76.5,46.544l-1.443-4.437c-0.151,0.047-0.3,0.089-0.447,0.14l1.441,4.438
				C76.196,46.638,76.35,46.594,76.5,46.544z"/>
			<path fill="#AFAFAF" d="M67.787,50.003l-2.048-4.193c-0.141,0.065-0.282,0.136-0.423,0.205l2.046,4.192
				C67.502,50.14,67.644,50.069,67.787,50.003z"/>
			<path fill="#AFAFAF" d="M74.274,47.29l-1.595-4.384c-0.151,0.052-0.296,0.108-0.443,0.164l1.596,4.384
				C73.98,47.399,74.127,47.343,74.274,47.29z"/>
			<path fill="#AFAFAF" d="M59.634,54.641l-2.61-3.87c-0.131,0.089-0.258,0.178-0.386,0.264l2.609,3.869
				C59.376,54.815,59.504,54.726,59.634,54.641z"/>
			<path fill="#AFAFAF" d="M65.688,51.054l-2.193-4.12c-0.137,0.069-0.276,0.146-0.414,0.22l2.189,4.119
				C65.408,51.197,65.55,51.127,65.688,51.054z"/>
			<path fill="#AFAFAF" d="M61.611,53.373l-2.475-3.955c-0.132,0.083-0.267,0.16-0.402,0.243l2.478,3.958
				C61.342,53.536,61.479,53.455,61.611,53.373z"/>
			<path fill="#AFAFAF" d="M63.627,52.18l-2.333-4.042c-0.137,0.078-0.272,0.156-0.41,0.236l2.336,4.039
				C63.359,52.335,63.494,52.257,63.627,52.18z"/>
			<path fill="#AFAFAF" d="M69.913,49.022l-1.899-4.264c-0.143,0.063-0.284,0.126-0.427,0.19l1.899,4.262
				C69.628,49.149,69.769,49.083,69.913,49.022z"/>
			<path fill="#AFAFAF" d="M140.111,59.113l2.998-3.576c-0.118-0.101-0.241-0.197-0.362-0.3l-2.998,3.577
				C139.868,58.911,139.993,59.014,140.111,59.113z"/>
			<path fill="#AFAFAF" d="M136.415,56.223l2.742-3.777c-0.13-0.091-0.259-0.181-0.384-0.271l-2.744,3.774
				C136.159,56.04,136.294,56.13,136.415,56.223z"/>
			<path fill="#AFAFAF" d="M138.286,57.64l2.873-3.676c-0.123-0.099-0.244-0.197-0.371-0.292l-2.869,3.676
				C138.044,57.443,138.161,57.543,138.286,57.64z"/>
			<path fill="#AFAFAF" d="M141.884,60.657l3.123-3.47c-0.118-0.106-0.229-0.211-0.35-0.315l-3.123,3.467
				C141.654,60.441,141.771,60.548,141.884,60.657z"/>
			<path fill="#AFAFAF" d="M143.604,62.252l3.239-3.354c-0.11-0.113-0.227-0.218-0.342-0.326l-3.237,3.356
				C143.376,62.039,143.488,62.146,143.604,62.252z"/>
			<path fill="#AFAFAF" d="M132.523,53.598l2.476-3.957c-0.136-0.083-0.271-0.164-0.399-0.245l-2.473,3.958
				C132.258,53.433,132.395,53.514,132.523,53.598z"/>
			<path fill="#AFAFAF" d="M134.491,54.878l2.606-3.867c-0.129-0.087-0.26-0.176-0.391-0.265l-2.609,3.87
				C134.232,54.702,134.359,54.791,134.491,54.878z"/>
			<path fill="#AFAFAF" d="M57.707,55.975l-2.743-3.772c-0.13,0.091-0.257,0.179-0.384,0.272l2.744,3.773
				C57.45,56.154,57.575,56.064,57.707,55.975z"/>
			<path fill="#AFAFAF" d="M128.465,51.255l2.188-4.12c-0.137-0.075-0.272-0.15-0.409-0.224l-2.193,4.122
				C128.189,51.105,128.326,51.182,128.465,51.255z"/>
			<path fill="#AFAFAF" d="M126.377,50.188l2.043-4.195c-0.143-0.065-0.283-0.134-0.426-0.204l-2.049,4.197
				C126.092,50.054,126.232,50.119,126.377,50.188z"/>
			<path fill="#AFAFAF" d="M126.146,44.935c-0.146-0.064-0.285-0.129-0.435-0.195l-1.894,4.267c0.146,0.062,0.283,0.13,0.429,0.19
				L126.146,44.935z"/>
			<path fill="#AFAFAF" d="M116.721,41.508c-0.15-0.042-0.301-0.083-0.453-0.126l-1.281,4.488c0.15,0.041,0.304,0.082,0.451,0.126
				L116.721,41.508z"/>
			<path fill="#AFAFAF" d="M114.295,40.862c-0.15-0.039-0.301-0.08-0.455-0.117l-1.127,4.528c0.158,0.036,0.307,0.078,0.455,0.116
				L114.295,40.862z"/>
			<path fill="#AFAFAF" d="M119.123,42.238c-0.148-0.048-0.301-0.095-0.447-0.142l-1.445,4.438c0.154,0.046,0.304,0.092,0.449,0.143
				L119.123,42.238z"/>
			<path fill="#AFAFAF" d="M121.49,43.058c-0.141-0.053-0.293-0.108-0.438-0.16l-1.598,4.385c0.147,0.053,0.297,0.106,0.44,0.159
				L121.49,43.058z"/>
			<path fill="#AFAFAF" d="M77.006,41.517l1.288,4.486c0.149-0.044,0.3-0.089,0.449-0.133l-1.284-4.482
				C77.306,41.431,77.157,41.475,77.006,41.517z"/>
			<path fill="#AFAFAF" d="M81.877,40.302l0.97,4.565c0.154-0.034,0.305-0.065,0.459-0.098l-0.974-4.563
				C82.183,40.238,82.03,40.271,81.877,40.302z"/>
			<path fill="#AFAFAF" d="M111.848,40.299c-0.15-0.033-0.305-0.063-0.453-0.094l-0.973,4.564c0.152,0.031,0.305,0.06,0.463,0.093
				L111.848,40.299z"/>
			<path fill="#AFAFAF" d="M79.429,40.864l1.131,4.527c0.153-0.038,0.302-0.074,0.457-0.111l-1.131-4.528
				C79.732,40.788,79.583,40.826,79.429,40.864z"/>
			<path fill="#AFAFAF" d="M104.416,39.131c-0.156-0.018-0.32-0.03-0.471-0.048l-0.484,4.641c0.152,0.017,0.311,0.029,0.465,0.048
				L104.416,39.131z"/>
			<path fill="#AFAFAF" d="M99.342,38.775l-0.169,4.663c0.019,0,0.026,0,0.037,0c0.146,0.005,0.294,0.015,0.438,0.02l0.162-4.66
				c-0.146-0.008-0.299-0.017-0.439-0.021C99.36,38.775,99.35,38.775,99.342,38.775z"/>
			<path fill="#AFAFAF" d="M101.91,38.913c-0.152-0.01-0.309-0.024-0.467-0.033l-0.324,4.653c0.156,0.01,0.316,0.023,0.471,0.035
				L101.91,38.913z"/>
			<path fill="#AFAFAF" d="M109.387,39.824c-0.152-0.027-0.313-0.056-0.465-0.081l-0.809,4.597c0.156,0.024,0.307,0.053,0.463,0.08
				L109.387,39.824z"/>
			<path fill="#AFAFAF" d="M106.906,39.432c-0.152-0.021-0.311-0.041-0.465-0.063l-0.648,4.623c0.154,0.021,0.311,0.042,0.467,0.063
				L106.906,39.432z"/>
			<path fill="#AFAFAF" d="M89.309,39.131l0.489,4.639c0.157-0.017,0.313-0.032,0.469-0.05l-0.491-4.64
				C89.622,39.097,89.464,39.113,89.309,39.131z"/>
			<path fill="#AFAFAF" d="M84.338,39.822l0.813,4.598c0.151-0.027,0.306-0.058,0.461-0.084l-0.813-4.597
				C84.647,39.766,84.493,39.797,84.338,39.822z"/>
			<path fill="#AFAFAF" d="M86.819,39.432l0.648,4.622c0.155-0.022,0.312-0.042,0.465-0.062l-0.65-4.622
				C87.13,39.392,86.971,39.409,86.819,39.432z"/>
			<path fill="#AFAFAF" d="M96.831,38.738l0.004,4.664c0.153,0,0.311-0.001,0.47-0.001L97.3,38.737
				C97.144,38.736,96.985,38.738,96.831,38.738z"/>
			<path fill="#AFAFAF" d="M94.323,38.781l0.162,4.662c0.155-0.006,0.312-0.007,0.467-0.012l-0.165-4.663
				C94.633,38.771,94.478,38.773,94.323,38.781z"/>
			<path fill="#AFAFAF" d="M91.811,38.909l0.328,4.655c0.155-0.012,0.312-0.021,0.467-0.031l-0.326-4.655
				C92.123,38.89,91.969,38.896,91.811,38.909z"/>
			<path fill="#AFAFAF" d="M53.986,58.847L43.701,46.59c-0.119,0.101-0.245,0.198-0.36,0.302L53.626,59.14
				C53.746,59.037,53.867,58.942,53.986,58.847z"/>
			<path fill="#AFAFAF" d="M74.274,47.29l-5.478-15.031c-0.147,0.052-0.294,0.108-0.442,0.16l5.478,15.035
				C73.98,47.399,74.127,47.343,74.274,47.29z"/>
			<path fill="#AFAFAF" d="M38.563,77.077l-13.86-7.992c-0.075,0.135-0.153,0.272-0.231,0.405l13.858,7.998
				C38.404,77.342,38.484,77.217,38.563,77.077z"/>
			<path fill="#AFAFAF" d="M163.266,99.438l15.75-2.783c-0.023-0.153-0.058-0.307-0.084-0.463l-15.75,2.781
				C163.208,99.128,163.234,99.285,163.266,99.438z"/>
			<path fill="#AFAFAF" d="M30.589,99.016l-15.757-2.772c-0.03,0.155-0.058,0.31-0.082,0.461l15.755,2.776
				C30.531,99.326,30.559,99.174,30.589,99.016z"/>
			<path fill="#AFAFAF" d="M168.779,68.608l-13.852,7.999c0.082,0.137,0.156,0.277,0.234,0.408l13.85-7.998
				C168.938,68.881,168.857,68.746,168.779,68.608z"/>
			<path fill="#AFAFAF" d="M150.027,46.557l-10.276,12.258c0.117,0.097,0.242,0.198,0.36,0.299l10.277-12.258
				C150.271,46.755,150.148,46.656,150.027,46.557z"/>
			<path fill="#AFAFAF" d="M124.924,32.244l-5.467,15.038c0.148,0.053,0.295,0.106,0.439,0.159l5.469-15.037
				C125.219,32.352,125.072,32.298,124.924,32.244z"/>
			<path fill="#AFAFAF" d="M96.826,27.407l0.008,15.998c0.153-0.003,0.311-0.004,0.47-0.004l-0.01-15.996
				C97.141,27.404,96.982,27.407,96.826,27.407z"/>
			<path fill="#AFAFAF" d="M83.76,36.541l1.392,7.879c0.151-0.027,0.306-0.058,0.461-0.084l-1.392-7.878
				C84.068,36.483,83.912,36.515,83.76,36.541z"/>
			<path fill="#AFAFAF" d="M45.627,67.077l-6.129-5.14c-0.101,0.121-0.205,0.24-0.306,0.355l6.132,5.143
				C45.423,67.314,45.526,67.195,45.627,67.077z"/>
			<path fill="#AFAFAF" d="M63.627,52.18l-4-6.928c-0.135,0.078-0.27,0.158-0.406,0.235l4,6.925
				C63.359,52.335,63.494,52.257,63.627,52.18z"/>
			<path fill="#AFAFAF" d="M164.2,111.125l7.991-0.003c0.004-0.153,0-0.312-0.002-0.468l-7.989,0.004
				C164.195,110.813,164.202,110.969,164.2,111.125z"/>
			<path fill="#AFAFAF" d="M33.61,87.699l-7.52-2.736c-0.053,0.145-0.105,0.295-0.159,0.44l7.52,2.735
				C33.504,87.987,33.557,87.842,33.61,87.699z"/>
			<path fill="#AFAFAF" d="M29.573,110.701l-7.999,0.002c0,0.156,0,0.313,0.002,0.473l7.997-0.002
				C29.573,111.016,29.573,110.855,29.573,110.701z"/>
			<path fill="#AFAFAF" d="M167.659,84.922l-7.517,2.734c0.055,0.15,0.109,0.296,0.162,0.443l7.516-2.738
				C167.771,85.215,167.714,85.068,167.659,84.922z"/>
			<path fill="#AFAFAF" d="M154.234,61.897l-6.125,5.149c0.103,0.111,0.203,0.233,0.304,0.354l6.125-5.139
				C154.438,62.14,154.341,62.019,154.234,61.897z"/>
			<path fill="#AFAFAF" d="M108.113,44.34c0.156,0.024,0.311,0.055,0.463,0.08l1.389-7.879c-0.154-0.026-0.311-0.054-0.465-0.081
				L108.113,44.34z"/>
			<path fill="#AFAFAF" d="M130.107,52.157c0.135,0.081,0.272,0.159,0.408,0.234l3.996-6.93c-0.137-0.077-0.271-0.155-0.408-0.232
				L130.107,52.157z"/>
			<path fill="#AFAFAF" d="M38.33,144.398l-4.044,2.334c0.08,0.134,0.155,0.271,0.234,0.403l4.042-2.327
				C38.484,144.672,38.404,144.544,38.33,144.398z"/>
			<path fill="#AFAFAF" d="M36.152,140.241l-4.191,2.044c0.066,0.145,0.134,0.283,0.203,0.428l4.193-2.045
				C36.29,140.518,36.223,140.387,36.152,140.241z"/>
			<path fill="#AFAFAF" d="M35.175,138.111l-4.267,1.902c0.068,0.137,0.13,0.276,0.193,0.424l4.265-1.897
				C35.302,138.398,35.237,138.256,35.175,138.111z"/>
			<path fill="#AFAFAF" d="M37.199,142.34l-4.12,2.194c0.072,0.138,0.146,0.276,0.223,0.409l4.122-2.188
				C37.348,142.619,37.273,142.48,37.199,142.34z"/>
			<path fill="#AFAFAF" d="M31.442,127.006l-4.529,1.127c0.038,0.153,0.078,0.305,0.117,0.453l4.527-1.125
				C31.52,127.309,31.48,127.161,31.442,127.006z"/>
			<path fill="#AFAFAF" d="M32.037,129.273l-4.485,1.287c0.039,0.149,0.085,0.301,0.127,0.457l4.487-1.291
				C32.119,129.579,32.079,129.428,32.037,129.273z"/>
			<path fill="#AFAFAF" d="M33.451,133.748l-4.388,1.598c0.054,0.146,0.107,0.295,0.161,0.438l4.386-1.595
				C33.557,134.045,33.501,133.898,33.451,133.748z"/>
			<path fill="#AFAFAF" d="M30.939,124.715l-4.567,0.969c0.032,0.151,0.06,0.307,0.094,0.463l4.567-0.969
				C30.999,125.021,30.968,124.866,30.939,124.715z"/>
			<path fill="#AFAFAF" d="M32.702,131.527l-4.44,1.438c0.048,0.147,0.096,0.3,0.141,0.447l4.442-1.44
				C32.796,131.823,32.752,131.676,32.702,131.527z"/>
			<path fill="#AFAFAF" d="M30.505,122.404l-4.595,0.809c0.028,0.158,0.058,0.311,0.083,0.465l4.595-0.807
				C30.559,122.713,30.531,122.561,30.505,122.404z"/>
			<path fill="#AFAFAF" d="M34.275,135.943l-4.328,1.746c0.06,0.147,0.113,0.293,0.173,0.44l4.328-1.746
				C34.388,136.236,34.335,136.094,34.275,135.943z"/>
			<path fill="#AFAFAF" d="M30.159,120.085l-4.621,0.646c0.018,0.16,0.04,0.314,0.064,0.469l4.617-0.647
				C30.199,120.395,30.181,120.24,30.159,120.085z"/>
			<path fill="#AFAFAF" d="M29.599,113.064l-4.665,0.16c0.006,0.146,0.006,0.293,0.01,0.434c0,0.016,0.002,0.027,0.002,0.037
				l4.665-0.16c-0.002-0.01-0.002-0.021-0.002-0.035C29.604,113.354,29.601,113.209,29.599,113.064z"/>
			<path fill="#AFAFAF" d="M29.705,115.41l-4.657,0.324c0.01,0.156,0.024,0.313,0.036,0.468l4.652-0.321
				C29.726,115.725,29.712,115.57,29.705,115.41z"/>
			<path fill="#AFAFAF" d="M29.89,117.751l-4.638,0.483c0.016,0.158,0.03,0.315,0.045,0.473l4.641-0.484
				C29.923,118.061,29.908,117.904,29.89,117.751z"/>
			<path fill="#AFAFAF" d="M157.391,140.697l4.19,2.047c0.067-0.137,0.137-0.281,0.207-0.419l-4.195-2.048
				C157.527,140.414,157.458,140.561,157.391,140.697z"/>
			<path fill="#AFAFAF" d="M156.087,143.227l4.121,2.19c0.074-0.14,0.147-0.274,0.222-0.415l-4.115-2.189
				C156.236,142.958,156.161,143.088,156.087,143.227z"/>
			<path fill="#AFAFAF" d="M159.303,136.419l4.327,1.745c0.058-0.143,0.113-0.291,0.173-0.436l-4.322-1.746
				C159.419,136.124,159.361,136.277,159.303,136.419z"/>
			<path fill="#AFAFAF" d="M158.387,138.577l4.26,1.896c0.063-0.14,0.133-0.285,0.19-0.426l-4.26-1.904
				C158.512,138.29,158.445,138.43,158.387,138.577z"/>
			<path fill="#AFAFAF" d="M160.146,134.23l4.383,1.595c0.055-0.147,0.109-0.292,0.166-0.442l-4.387-1.596
				C160.253,133.934,160.197,134.078,160.146,134.23z"/>
			<path fill="#AFAFAF" d="M154.93,145.277l4.043,2.332c0.073-0.135,0.151-0.271,0.233-0.416l-4.043-2.323
				C155.087,145.003,155.012,145.141,154.93,145.277z"/>
			<path fill="#AFAFAF" d="M164.036,115.924l4.655,0.324c0.011-0.156,0.021-0.313,0.025-0.466l-4.648-0.324
				C164.061,115.611,164.048,115.766,164.036,115.924z"/>
			<path fill="#AFAFAF" d="M163.55,120.596l4.617,0.646c0.021-0.152,0.041-0.311,0.06-0.467l-4.613-0.65
				C163.585,120.281,163.568,120.438,163.55,120.596z"/>
			<path fill="#AFAFAF" d="M160.911,132.012l4.438,1.442c0.047-0.149,0.094-0.297,0.143-0.448l-4.439-1.441
				C161.007,131.711,160.962,131.867,160.911,132.012z"/>
			<path fill="#AFAFAF" d="M164.157,113.578l4.663,0.163c0.005-0.153,0.011-0.313,0.011-0.47l-4.66-0.164
				C164.167,113.264,164.165,113.419,164.157,113.578z"/>
			<path fill="#AFAFAF" d="M163.831,118.262l4.64,0.488c0.02-0.154,0.03-0.311,0.047-0.464l-4.64-0.494
				C163.863,117.948,163.848,118.107,163.831,118.262z"/>
			<path fill="#AFAFAF" d="M163.182,122.912l4.594,0.809c0.029-0.154,0.057-0.306,0.086-0.461l-4.596-0.813
				C163.234,122.602,163.208,122.758,163.182,122.912z"/>
			<path fill="#AFAFAF" d="M162.208,127.504l4.526,1.131c0.037-0.156,0.07-0.309,0.107-0.457l-4.521-1.129
				C162.279,127.197,162.245,127.35,162.208,127.504z"/>
			<path fill="#AFAFAF" d="M161.596,129.768l4.483,1.287c0.043-0.149,0.088-0.304,0.131-0.451l-4.483-1.289
				C161.688,129.467,161.641,129.616,161.596,129.768z"/>
			<path fill="#AFAFAF" d="M162.732,125.215l4.563,0.973c0.035-0.151,0.063-0.31,0.095-0.463l-4.56-0.972
				C162.794,124.908,162.768,125.063,162.732,125.215z"/>
			<path fill="#AFAFAF" d="M38.33,144.398l-13.858,7.998c0.078,0.133,0.156,0.27,0.231,0.403l13.86-7.991
				C38.484,144.672,38.404,144.544,38.33,144.398z"/>
			<path fill="#AFAFAF" d="M163.182,122.912l15.75,2.781c0.026-0.154,0.061-0.312,0.084-0.463l-15.75-2.783
				C163.234,122.602,163.208,122.758,163.182,122.912z"/>
			<path fill="#AFAFAF" d="M30.505,122.404l-15.755,2.777c0.024,0.151,0.052,0.307,0.082,0.461l15.756-2.771
				C30.559,122.713,30.531,122.561,30.505,122.404z"/>
			<path fill="#AFAFAF" d="M169.014,152.87l-13.851-7.998c-0.076,0.131-0.151,0.271-0.233,0.405l13.852,8
				C168.857,153.141,168.938,153.006,169.014,152.87z"/>
			<path fill="#AFAFAF" d="M33.451,133.748l-7.52,2.734c0.054,0.146,0.106,0.297,0.159,0.44l7.52-2.735
				C33.557,134.045,33.504,133.898,33.451,133.748z"/>
			<path fill="#AFAFAF" d="M167.82,136.525l-7.516-2.738c-0.053,0.146-0.107,0.292-0.162,0.443l7.517,2.733
				C167.714,136.818,167.771,136.672,167.82,136.525z"/>
		</g>
		<path fill="#055B75" d="M12.45,109.741c-1.996,0-3.43,1.798-3.43,5.11c0.028,3.25,1.346,5.049,3.265,5.049
			c2.162,0,3.417-1.844,3.417-5.187C15.702,111.585,14.507,109.741,12.45,109.741z M12.36,118.873c-1.209,0-1.994-1.451-1.994-4.008
			c0-2.674,0.847-4.098,1.994-4.098c1.392,0,1.994,1.588,1.994,4.006C14.355,117.285,13.705,118.873,12.36,118.873z M12.29,89.206
			l0.771-0.726c2.072-1.998,3.388-3.463,3.388-5.277c0-1.406-0.893-2.857-3.011-2.857c-1.119,0-2.102,0.439-2.765,0.998l0.421,0.938
			c0.455-0.377,1.195-0.831,2.088-0.831c1.467,0,1.936,0.922,1.936,1.92c0,1.481-1.149,2.752-3.66,5.142l-1.044,1.012v0.818h6.275
			v-1.104h-4.4L12.29,89.206L12.29,89.206z M21.464,80.346c-1.996,0-3.43,1.801-3.43,5.11c0.03,3.252,1.346,5.05,3.264,5.05
			c2.162,0,3.416-1.844,3.416-5.187C24.715,82.189,23.523,80.346,21.464,80.346z M21.375,89.479c-1.209,0-1.994-1.453-1.994-4.006
			c0-2.676,0.845-4.099,1.994-4.099c1.39,0,1.996,1.586,1.996,4.007C23.372,87.891,22.721,89.479,21.375,89.479z M12.29,144.021
			l0.771-0.728c2.072-1.994,3.388-3.462,3.388-5.274c0-1.405-0.893-2.857-3.011-2.857c-1.119,0-2.102,0.439-2.765,0.998l0.421,0.938
			c0.455-0.377,1.195-0.832,2.088-0.832c1.467,0,1.936,0.922,1.936,1.92c0,1.482-1.149,2.754-3.66,5.144l-1.044,1.014v0.816h6.275
			v-1.104h-4.4L12.29,144.021L12.29,144.021z M21.464,135.162c-1.996,0-3.43,1.801-3.43,5.109c0.03,3.252,1.346,5.049,3.264,5.049
			c2.162,0,3.416-1.842,3.416-5.185C24.715,137.008,23.523,135.162,21.464,135.162z M21.375,144.295
			c-1.209,0-1.994-1.451-1.994-4.007c0-2.677,0.845-4.099,1.994-4.099c1.39,0,1.996,1.586,1.996,4.008
			C23.372,142.705,22.721,144.295,21.375,144.295z M36.165,51.371c-1.996,0-3.432,1.801-3.432,5.111
			c0.028,3.25,1.344,5.049,3.265,5.049c2.161,0,3.417-1.844,3.417-5.186C39.415,53.218,38.219,51.371,36.165,51.371z M36.072,60.506
			c-1.211,0-1.997-1.453-1.997-4.008c0-2.674,0.847-4.098,1.997-4.098c1.392,0,1.996,1.588,1.996,4.006
			C38.069,58.916,37.417,60.506,36.072,60.506z M30.481,51.538h-1.439l-4.384,6.273v0.863h4.567v2.689h1.256v-2.689h1.374v-1.028
			h-1.374V51.538z M29.224,54.365v3.282h-3.219v-0.03l2.404-3.342c0.272-0.451,0.513-0.876,0.815-1.45h0.046
			C29.238,53.337,29.224,53.852,29.224,54.365z"/>
		<path fill="#055B75" d="M58.42,31.216c-1.998,0-3.434,1.8-3.434,5.11c0.031,3.25,1.348,5.049,3.264,5.049
			c2.163,0,3.42-1.843,3.42-5.186C61.671,33.062,60.476,31.216,58.42,31.216z M58.326,40.349c-1.207,0-1.992-1.453-1.992-4.006
			c0-2.678,0.847-4.099,1.992-4.099c1.39,0,1.999,1.588,1.999,4.007C60.325,38.761,59.673,40.349,58.326,40.349z M50.982,34.725
			c-1.09,0-1.921,0.513-2.39,1.147h-0.03c0.229-1.632,1.316-3.144,3.418-3.478c0.377-0.062,0.723-0.09,0.996-0.075v-1.088
			c-0.241,0-0.574,0.015-0.966,0.076c-1.241,0.149-2.329,0.648-3.146,1.451c-0.984,0.968-1.662,2.494-1.662,4.43
			c0,2.555,1.375,4.187,3.459,4.187c2.058,0,3.283-1.661,3.283-3.476C53.944,35.993,52.719,34.725,50.982,34.725z M50.694,40.349
			c-1.404,0-2.163-1.209-2.175-2.828c0-0.241,0.059-0.423,0.133-0.575c0.366-0.725,1.12-1.209,1.923-1.209
			c1.225,0,2.024,0.847,2.024,2.253C52.598,39.396,51.827,40.349,50.694,40.349z M79.197,25.48v-0.046
			c1.21-0.561,1.632-1.465,1.632-2.297c0-1.24-0.966-2.42-2.869-2.42c-1.74,0-3.056,1.06-3.056,2.615
			c0,0.847,0.469,1.694,1.572,2.208l0.016,0.046c-1.211,0.514-1.951,1.406-1.951,2.646c0,1.436,1.239,2.645,3.295,2.645
			c1.877,0,3.342-1.134,3.342-2.855C81.179,26.842,80.423,25.964,79.197,25.48z M76.175,23.244c0-0.848,0.603-1.572,1.709-1.572
			c1.195,0,1.664,0.815,1.664,1.602c0,0.892-0.65,1.498-1.499,1.784C76.915,24.756,76.159,24.226,76.175,23.244z M77.866,29.911
			c-1.254,0-2.01-0.877-1.964-1.86c0-0.937,0.622-1.708,1.767-2.04c1.334,0.377,2.164,0.967,2.164,2.146
			C79.833,29.169,79.061,29.911,77.866,29.911z M85.713,20.718c-1.995,0-3.43,1.799-3.43,5.109c0.03,3.25,1.344,5.05,3.265,5.05
			c2.164,0,3.416-1.844,3.416-5.186C88.963,22.563,87.771,20.718,85.713,20.718z M85.624,29.85c-1.209,0-1.996-1.452-1.996-4.007
			c0-2.677,0.845-4.097,1.996-4.097c1.39,0,1.997,1.586,1.997,4.006C87.619,28.264,86.971,29.85,85.624,29.85z"/>
		<path fill="#055B75" d="M103.719,22.103l0.189,0.759l1.283-0.692h0.021v6.443h0.966V21.24h-0.853L103.719,22.103z M110.27,27.763
			l0.58-0.545c1.553-1.498,2.539-2.599,2.539-3.958c0-1.056-0.668-2.143-2.254-2.143c-0.842,0-1.58,0.328-2.076,0.747l0.316,0.703
			c0.342-0.282,0.895-0.624,1.564-0.624c1.102,0,1.451,0.69,1.451,1.441c0,1.109-0.863,2.063-2.742,3.854L108.865,28v0.612h4.703
			v-0.829h-3.301v-0.021L110.27,27.763L110.27,27.763z M117.152,21.116c-1.498,0-2.572,1.349-2.572,3.832
			c0.021,2.439,1.008,3.788,2.445,3.788c1.623,0,2.563-1.383,2.563-3.89C119.59,22.497,118.697,21.116,117.152,21.116z
			 M117.086,27.965c-0.908,0-1.498-1.088-1.498-3.007c0-2.006,0.637-3.071,1.498-3.071c1.043,0,1.498,1.189,1.498,3.006
			C118.584,26.775,118.094,27.965,117.086,27.965z M149.907,33.293c-1.498,0-2.576,1.35-2.576,3.833
			c0.024,2.438,1.012,3.788,2.451,3.788c1.622,0,2.563-1.385,2.563-3.89C152.348,34.677,151.45,33.293,149.907,33.293z
			 M149.839,40.143c-0.907,0-1.496-1.087-1.496-3.004c0-2.008,0.634-3.074,1.496-3.074c1.045,0,1.498,1.19,1.498,3.005
			C151.337,38.953,150.85,40.143,149.839,40.143z M145.646,33.418h-1.076l-3.291,4.706v0.646h3.426v2.018h0.941V38.77h1.03V38h-1.03
			V33.418L145.646,33.418z M144.704,35.537V38h-2.418v-0.023l1.805-2.505c0.205-0.341,0.386-0.658,0.613-1.09h0.032
			C144.716,34.769,144.704,35.152,144.704,35.537z M136.473,34.279l0.192,0.761l1.28-0.69h0.021v6.439h0.966v-7.37h-0.853
			L136.473,34.279z M171.325,54.288c-1.498,0-2.574,1.35-2.574,3.833c0.021,2.438,1.008,3.79,2.446,3.79
			c1.621,0,2.564-1.386,2.564-3.891C173.762,55.673,172.863,54.288,171.325,54.288z M171.255,61.139
			c-0.905,0-1.496-1.088-1.496-3.004c0-2.01,0.638-3.074,1.496-3.074c1.045,0,1.498,1.189,1.498,3.004
			C172.753,59.949,172.266,61.139,171.255,61.139z M157.889,55.274l0.19,0.761l1.282-0.69h0.021v6.44h0.963v-7.371h-0.85
			L157.889,55.274z M165.745,56.919c-0.815,0-1.438,0.388-1.793,0.863h-0.022c0.172-1.226,0.987-2.36,2.565-2.608
			c0.282-0.047,0.543-0.067,0.746-0.057V54.3c-0.181,0-0.433,0.012-0.728,0.057c-0.93,0.113-1.748,0.487-2.356,1.089
			c-0.736,0.727-1.25,1.871-1.25,3.324c0,1.916,1.032,3.142,2.6,3.142c1.546,0,2.464-1.249,2.464-2.611
			C167.971,57.872,167.053,56.919,165.745,56.919z M165.527,61.139c-1.055,0-1.62-0.908-1.633-2.12c0-0.184,0.045-0.319,0.103-0.433
			c0.271-0.545,0.84-0.906,1.438-0.906c0.92,0,1.521,0.634,1.521,1.69C166.958,60.425,166.38,61.139,165.527,61.139z"/>
		<path fill="#055B75" d="M184.339,80.744c-1.493,0-2.571,1.348-2.571,3.833c0.021,2.438,1.01,3.788,2.448,3.788
			c1.623,0,2.563-1.383,2.563-3.891C186.777,82.126,185.884,80.744,184.339,80.744z M184.271,87.594
			c-0.908,0-1.496-1.088-1.496-3.004c0-2.009,0.636-3.076,1.496-3.076c1.043,0,1.498,1.192,1.498,3.006
			C185.771,86.403,185.282,87.594,184.271,87.594z M180.839,80.867h-4.647v0.829h3.604v0.022l-3.199,6.521h1.033l3.211-6.714
			L180.839,80.867L180.839,80.867z M170.902,81.73l0.195,0.761l1.277-0.692h0.027v6.441h0.961v-7.373h-0.852L170.902,81.73z
			 M175.104,109.445l0.191,0.76l1.281-0.691h0.025v6.441h0.963v-7.371h-0.853L175.104,109.445z M188.542,108.459
			c-1.498,0-2.576,1.35-2.576,3.833c0.022,2.438,1.013,3.787,2.449,3.787c1.625,0,2.563-1.384,2.563-3.89
			C190.979,109.844,190.083,108.459,188.542,108.459z M188.473,115.309c-0.906,0-1.494-1.09-1.494-3.006
			c0-2.009,0.633-3.072,1.494-3.072c1.045,0,1.498,1.188,1.498,3.004C189.971,114.117,189.482,115.309,188.473,115.309z
			 M183.654,112.031v-0.034c0.906-0.42,1.226-1.101,1.226-1.726c0-0.929-0.729-1.813-2.155-1.813c-1.306,0-2.287,0.793-2.287,1.96
			c0,0.637,0.35,1.271,1.178,1.656l0.01,0.033c-0.906,0.387-1.463,1.057-1.463,1.984c0,1.078,0.932,1.984,2.473,1.984
			c1.406,0,2.508-0.852,2.508-2.145C185.141,113.053,184.57,112.393,183.654,112.031z M181.384,110.354
			c0-0.637,0.453-1.18,1.283-1.18c0.896,0,1.248,0.612,1.248,1.199c0,0.672-0.487,1.124-1.123,1.339
			C181.941,111.486,181.374,111.09,181.384,110.354z M182.654,115.354c-0.938,0-1.508-0.656-1.475-1.396
			c0-0.702,0.467-1.28,1.326-1.53c1,0.283,1.623,0.727,1.623,1.609C184.13,114.799,183.553,115.354,182.654,115.354z
			 M167.391,136.482l0.192,0.759l1.278-0.69h0.025v6.441h0.963v-7.371H169L167.391,136.482z M180.827,135.496
			c-1.498,0-2.576,1.35-2.576,3.834c0.022,2.438,1.013,3.787,2.449,3.787c1.625,0,2.563-1.385,2.563-3.889
			C183.266,136.881,182.368,135.496,180.827,135.496z M180.759,142.346c-0.907,0-1.495-1.088-1.495-3.006
			c0-2.008,0.633-3.072,1.495-3.072c1.044,0,1.496,1.189,1.496,3.006C182.255,141.154,181.77,142.346,180.759,142.346z
			 M175.939,139.068v-0.034c0.906-0.42,1.226-1.101,1.226-1.726c0-0.931-0.728-1.813-2.153-1.813c-1.306,0-2.289,0.793-2.289,1.961
			c0,0.637,0.35,1.271,1.178,1.655l0.012,0.033c-0.908,0.388-1.463,1.057-1.463,1.984c0,1.078,0.932,1.985,2.473,1.985
			c1.404,0,2.508-0.854,2.508-2.146C177.428,140.09,176.857,139.432,175.939,139.068z M173.671,137.391
			c0-0.638,0.453-1.181,1.281-1.181c0.896,0,1.25,0.613,1.25,1.201c0,0.672-0.49,1.124-1.125,1.339
			C174.229,138.523,173.661,138.125,173.671,137.391z M174.941,142.391c-0.938,0-1.51-0.658-1.475-1.395
			c0-0.703,0.465-1.279,1.326-1.529c1,0.282,1.621,0.725,1.621,1.608C176.415,141.836,175.837,142.391,174.941,142.391z"/>
		<rect x="39.755" y="164.293" opacity="0.2" fill="#00BECC" enable-background="new    " width="114.861" height="20.988"/>
		<g enable-background="new    ">
			<text transform="matrix(1 0 0 1 55.5747 180.5293)" fill="#020202" font-family="'ArialMT'" font-size="14">00000000.00</text>
		</g>
		<g>
			<path fill="#F48E8E" d="M54.206,136.086c-4.138-7.195-6.515-15.523-6.515-24.404c0-27.092,22.043-49.137,49.137-49.137
				c27.095,0,49.135,22.045,49.135,49.137c0,8.881-2.377,17.209-6.514,24.406l3.74,2.158c4.506-7.83,7.092-16.898,7.092-26.564
				c0-29.472-23.979-53.45-53.453-53.45c-29.473,0-53.452,23.979-53.452,53.45c0,9.666,2.583,18.734,7.088,26.564L54.206,136.086z"
				/>
			<path fill="#8DD0FC" d="M110.826,60.104l-1.113,4.167c20.859,5.678,36.249,24.775,36.249,47.411
				c0,8.881-2.379,17.209-6.517,24.405l3.742,2.158c4.506-7.83,7.09-16.897,7.09-26.563
				C150.277,87.055,133.527,66.275,110.826,60.104z"/>
		</g>
	</g>
	<polygon fill="#42BCF4" points="100,117.5 100,102.5 160.527,110 	"/>
	<g>
		<circle fill="#42BCF4" cx="100" cy="110" r="7.5"/>
		<circle fill="#FFFFFF" cx="100" cy="110" r="4.5"/>
	</g>
</g>
</svg>
