<?xml version="1.0" encoding="utf-8"?>
<!--
  - This file is part of StyleBI.
  -
  - Copyright (c) 2024, InetSoft Technology Corp, All Rights Reserved.
  -
  - The software and information contained herein are copyrighted and
  - proprietary to InetSoft Technology Corp. This software is furnished
  - pursuant to a written license agreement and may be used, copied,
  - transmitted, and stored only in accordance with the terms of such
  - license and with the inclusion of the above copyright notice. Please
  - refer to the file "COPYRIGHT" for further copyright and licensing
  - information. This software and information or any other copies
  - thereof may not be provided or otherwise made available to any other
  - person.
  -->

<!-- Generator: Adobe Illustrator 15.1.0, SVG Export Plug-In . SVG Version: 6.00 Build 0)  -->
<!DOCTYPE svg PUBLIC "-//W3C//DTD SVG 1.1//EN" "http://www.w3.org/Graphics/SVG/1.1/DTD/svg11.dtd">
<svg version="1.1"
	 id="svg4443" xmlns:inkscape="http://www.inkscape.org/namespaces/inkscape" xmlns:svg="http://www.w3.org/2000/svg" xmlns:sodipodi="http://sodipodi.sourceforge.net/DTD/sodipodi-0.dtd" xmlns:dc="http://purl.org/dc/elements/1.1/" xmlns:cc="http://creativecommons.org/ns#" xmlns:rdf="http://www.w3.org/1999/02/22-rdf-syntax-ns#" inkscape:version="0.92.0 r15299" sodipodi:docname="xero.svg"
	 xmlns="http://www.w3.org/2000/svg" xmlns:xlink="http://www.w3.org/1999/xlink" x="0px" y="0px" width="30px" height="30px"
	 viewBox="378.41 378.41 30 30" enable-background="new 378.41 378.41 30 30" xml:space="preserve">
<defs>
	
	
		<inkscape:perspective  id="perspective87" inkscape:vp_z="744.09449 : 526.18106 : 1" inkscape:vp_y="0 : 999.99994 : 0" sodipodi:type="inkscape:persp3d" inkscape:vp_x="0 : 526.18106 : 1" inkscape:persp3d-origin="372.04723 : 350.78736 : 1">
		</inkscape:perspective>
</defs>
<sodipodi:namedview  units="px" fit-margin-top="0" fit-margin-left="0" id="base" showgrid="false" bordercolor="#666666" borderopacity="1.0" pagecolor="#ffffff" inkscape:zoom="0.68000308" inkscape:cy="391.90999" inkscape:cx="391.90999" inkscape:window-maximized="1" inkscape:window-height="744" inkscape:window-width="1280" inkscape:pageopacity="0.0" inkscape:window-y="-4" inkscape:current-layer="layer1" inkscape:window-x="-4" inkscape:pageshadow="2" fit-margin-bottom="0" fit-margin-right="0" inkscape:document-units="mm">
	</sodipodi:namedview>
<g id="g14">
	<path id="path20" inkscape:connector-curvature="0" fill="#1AB4D7" d="M393.41,405.167c6.493,0,11.757-5.264,11.757-11.757
		c0-6.494-5.264-11.757-11.757-11.757c-6.494,0-11.757,5.264-11.757,11.757C381.653,399.903,386.917,405.167,393.41,405.167"/>
	<path id="path22" inkscape:connector-curvature="0" fill="#FFFFFF" d="M387.281,393.376l2.006-2.011
		c0.067-0.068,0.104-0.158,0.104-0.253c0-0.198-0.162-0.359-0.36-0.359c-0.097,0-0.188,0.038-0.255,0.107
		c0,0-2.005,2.004-2.005,2.004l-2.014-2.007c-0.068-0.067-0.158-0.104-0.254-0.104c-0.198,0-0.359,0.161-0.359,0.359
		c0,0.097,0.039,0.188,0.108,0.256l2.006,2.006l-2.005,2.009c-0.07,0.069-0.109,0.161-0.109,0.258c0,0.198,0.161,0.359,0.359,0.359
		c0.096,0,0.186-0.037,0.254-0.105l2.011-2.007l2.002,2c0.071,0.073,0.163,0.112,0.261,0.112c0.198,0,0.359-0.161,0.359-0.359
		c0-0.096-0.037-0.186-0.104-0.254L387.281,393.376z"/>
	<path id="path24" inkscape:connector-curvature="0" fill="#FFFFFF" d="M399.209,393.375c0,0.36,0.293,0.653,0.653,0.653
		s0.653-0.292,0.653-0.653s-0.293-0.653-0.653-0.653S399.209,393.015,399.209,393.375"/>
	<path id="path26" inkscape:connector-curvature="0" fill="#FFFFFF" d="M397.97,393.376c0-1.043,0.849-1.892,1.893-1.892
		c1.042,0,1.892,0.849,1.892,1.892c0,1.043-0.85,1.892-1.892,1.892C398.818,395.268,397.97,394.419,397.97,393.376 M397.226,393.376
		c0,1.453,1.183,2.636,2.637,2.636c1.453,0,2.637-1.183,2.637-2.636c0-1.454-1.184-2.637-2.637-2.637
		C398.408,390.739,397.226,391.922,397.226,393.376"/>
	<path id="path28" inkscape:connector-curvature="0" fill="#FFFFFF" d="M397.038,390.785l-0.11,0c-0.332,0-0.652,0.105-0.92,0.311
		c-0.035-0.162-0.179-0.283-0.351-0.283c-0.198,0-0.356,0.158-0.356,0.356c0,0,0.001,4.439,0.001,4.439
		c0.001,0.198,0.162,0.358,0.359,0.358c0.198,0,0.359-0.16,0.359-0.358c0-0.001,0-2.73,0-2.73c0-0.91,0.084-1.277,0.863-1.375
		c0.072-0.009,0.15-0.007,0.15-0.007c0.214-0.007,0.365-0.154,0.365-0.352S397.237,390.785,397.038,390.785"/>
	<path id="path30" inkscape:connector-curvature="0" fill="#FFFFFF" d="M390.136,392.942c0-0.01,0-0.02,0.001-0.03
		c0.209-0.825,0.956-1.436,1.846-1.436c0.9,0,1.655,0.625,1.853,1.466H390.136z M394.571,392.874
		c-0.154-0.733-0.556-1.336-1.167-1.723c-0.894-0.567-2.074-0.536-2.938,0.078c-0.704,0.501-1.111,1.32-1.111,2.165
		c0,0.212,0.025,0.425,0.079,0.636c0.266,1.046,1.165,1.838,2.237,1.97c0.318,0.038,0.628,0.02,0.949-0.063
		c0.275-0.067,0.542-0.179,0.788-0.336c0.255-0.164,0.468-0.38,0.674-0.639c0.004-0.005,0.009-0.01,0.013-0.015
		c0.144-0.178,0.116-0.43-0.041-0.551c-0.133-0.102-0.355-0.143-0.53,0.082c-0.038,0.054-0.08,0.108-0.126,0.164
		c-0.139,0.154-0.312,0.304-0.52,0.419c-0.264,0.141-0.564,0.222-0.884,0.224c-1.045-0.012-1.605-0.742-1.804-1.263
		c-0.035-0.098-0.062-0.198-0.08-0.302c-0.002-0.02-0.004-0.038-0.005-0.056c0.216,0,3.752,0,3.752,0
		C394.371,393.652,394.648,393.289,394.571,392.874"/>
</g>
</svg>
