<?xml version="1.0" encoding="utf-8"?>
<!--
  - This file is part of StyleBI.
  -
  - Copyright (c) 2024, InetSoft Technology Corp, All Rights Reserved.
  -
  - The software and information contained herein are copyrighted and
  - proprietary to InetSoft Technology Corp. This software is furnished
  - pursuant to a written license agreement and may be used, copied,
  - transmitted, and stored only in accordance with the terms of such
  - license and with the inclusion of the above copyright notice. Please
  - refer to the file "COPYRIGHT" for further copyright and licensing
  - information. This software and information or any other copies
  - thereof may not be provided or otherwise made available to any other
  - person.
  -->

<!-- Generator: Adobe Illustrator 13.0.0, SVG Export Plug-In . SVG Version: 6.00 Build 14948)  -->
<!DOCTYPE svg PUBLIC "-//W3C//DTD SVG 1.1//EN" "http://www.w3.org/Graphics/SVG/1.1/DTD/svg11.dtd">
<svg version="1.1" id="图层_1" xmlns="http://www.w3.org/2000/svg" xmlns:xlink="http://www.w3.org/1999/xlink" x="0px" y="0px"
	 width="201px" height="201px" viewBox="0 0 201 201" enable-background="new 0 0 201 201" xml:space="preserve">
<g>
	<circle fill="#688463" cx="100.5" cy="98.572" r="18.767"/>
	<circle fill="#6B8666" cx="100.5" cy="98.572" r="18.497"/>
	<circle fill="#6D8869" cx="100.5" cy="98.572" r="18.228"/>
	<circle fill="#708B6B" cx="100.5" cy="98.572" r="17.959"/>
	<circle fill="#738D6E" cx="100.5" cy="98.572" r="17.689"/>
	<circle fill="#758F71" cx="100.5" cy="98.572" r="17.42"/>
	<circle fill="#789174" cx="100.5" cy="98.572" r="17.15"/>
	<circle fill="#7B9376" cx="100.5" cy="98.572" r="16.881"/>
	<circle fill="#7D9679" cx="100.5" cy="98.572" r="16.612"/>
	<circle fill="#80987C" cx="100.5" cy="98.572" r="16.343"/>
	<circle fill="#839A7F" cx="100.5" cy="98.572" r="16.073"/>
	<circle fill="#859C81" cx="100.5" cy="98.572" r="15.804"/>
	<circle fill="#889E84" cx="100.5" cy="98.572" r="15.534"/>
	<circle fill="#8BA087" cx="100.5" cy="98.572" r="15.265"/>
	<circle fill="#8DA38A" cx="100.5" cy="98.572" r="14.996"/>
	<circle fill="#90A58C" cx="100.5" cy="98.572" r="14.727"/>
	<circle fill="#93A78F" cx="100.5" cy="98.572" r="14.457"/>
	<circle fill="#95A992" cx="100.5" cy="98.572" r="14.188"/>
	<circle fill="#98AB95" cx="100.5" cy="98.572" r="13.918"/>
	<circle fill="#9BAE97" cx="100.5" cy="98.572" r="13.649"/>
	<circle fill="#9DB09A" cx="100.5" cy="98.572" r="13.38"/>
	<circle fill="#A0B29D" cx="100.5" cy="98.572" r="13.11"/>
</g>
<linearGradient id="SVGID_1_" gradientUnits="userSpaceOnUse" x1="89.873" y1="98.5996" x2="111.127" y2="98.5996">
	<stop  offset="0" style="stop-color:#C2D8BC"/>
	<stop  offset="0.3243" style="stop-color:#AFC6AA"/>
	<stop  offset="0.6998" style="stop-color:#9FB79B"/>
	<stop  offset="1" style="stop-color:#9AB296"/>
</linearGradient>
<circle fill="url(#SVGID_1_)" cx="100.5" cy="98.6" r="10.627"/>
<linearGradient id="SVGID_2_" gradientUnits="userSpaceOnUse" x1="109.1553" y1="107.2266" x2="91.845" y2="89.9163">
	<stop  offset="0" style="stop-color:#80997F"/>
	<stop  offset="0.2339" style="stop-color:#687F67"/>
	<stop  offset="0.5295" style="stop-color:#4F654F"/>
	<stop  offset="0.7942" style="stop-color:#405540"/>
	<stop  offset="1" style="stop-color:#3B4F3B"/>
</linearGradient>
<circle fill="url(#SVGID_2_)" cx="100.5" cy="98.572" r="12.24"/>
</svg>
