<?xml version="1.0" encoding="utf-8"?>
<!--
  - This file is part of StyleBI.
  -
  - Copyright (c) 2024, InetSoft Technology Corp, All Rights Reserved.
  -
  - The software and information contained herein are copyrighted and
  - proprietary to InetSoft Technology Corp. This software is furnished
  - pursuant to a written license agreement and may be used, copied,
  - transmitted, and stored only in accordance with the terms of such
  - license and with the inclusion of the above copyright notice. Please
  - refer to the file "COPYRIGHT" for further copyright and licensing
  - information. This software and information or any other copies
  - thereof may not be provided or otherwise made available to any other
  - person.
  -->

<!-- Generator: Adobe Illustrator 13.0.0, SVG Export Plug-In . SVG Version: 6.00 Build 14948)  -->
<!DOCTYPE svg PUBLIC "-//W3C//DTD SVG 1.1//EN" "http://www.w3.org/Graphics/SVG/1.1/DTD/svg11.dtd">
<svg version="1.1" id="图层_1" xmlns="http://www.w3.org/2000/svg" xmlns:xlink="http://www.w3.org/1999/xlink" x="0px" y="0px"
	 width="201px" height="201px" viewBox="0 0 201 201" enable-background="new 0 0 201 201" xml:space="preserve">
<g>
	<g>
		<g>
			
				<linearGradient id="SVGID_1_" gradientUnits="userSpaceOnUse" x1="-827.3994" y1="1316.3516" x2="-686.4622" y2="1457.2889" gradientTransform="matrix(1 0 0 1 857.5996 -1283.8398)">
				<stop  offset="0" style="stop-color:#D6EDD7"/>
				<stop  offset="1" style="stop-color:#5D8459"/>
			</linearGradient>
			<path fill="url(#SVGID_1_)" d="M199.192,93.699h-1.65c-0.934-10.09-3.402-19.737-7.184-28.699l2.207-1.298
				c0.621-0.366,0.828-1.167,0.461-1.789l-8.295-14.041c-0.367-0.622-1.168-0.829-1.791-0.462l-1.604,0.944
				c-5.517-8.165-12.239-15.445-19.913-21.597l0.954-1.485c0.39-0.607,0.212-1.415-0.396-1.805l-13.75-8.796
				c-0.606-0.39-1.416-0.213-1.81,0.395l-0.854,1.328c-10.961-5.733-23.146-9.448-36.063-10.652V4.186
				c0-0.722-0.585-1.306-1.311-1.306H91.865c-0.723,0-1.308,0.584-1.308,1.306V5.79C77.27,7.105,64.765,11.077,53.583,17.168
				l-1.148-1.524c-0.435-0.577-1.254-0.691-1.833-0.26l-13.055,9.796c-0.578,0.435-0.694,1.252-0.26,1.829l0.605,0.804
				c-7.434,6.172-13.932,13.426-19.258,21.517l-1.223-0.642c-0.638-0.335-1.43-0.09-1.767,0.549L8.042,63.663
				c-0.336,0.639-0.09,1.428,0.548,1.764l1.228,0.645c-3.533,8.666-5.851,17.952-6.747,27.651H1.805
				c-0.721,0-1.305,0.583-1.305,1.302v16.259c0,0.723,0.584,1.306,1.305,1.306h1.334c1.038,10.373,3.709,20.26,7.746,29.415
				l-1.438,0.849c-0.62,0.366-0.826,1.163-0.461,1.783l8.272,14.007c0.366,0.617,1.166,0.822,1.787,0.462l1.098-0.646
				c4.953,7.092,10.825,13.493,17.445,19.035l-0.723,1.01c-0.419,0.587-0.283,1.4,0.305,1.821l13.29,9.476
				c0.588,0.42,1.405,0.283,1.825-0.306l0.936-1.306c11.139,6.131,23.604,10.155,36.859,11.532v1.476
				c0,0.724,0.586,1.309,1.308,1.309h16.334c0.721,0,1.307-0.585,1.307-1.309v-1.337c11.728-1.035,22.854-4.138,33.025-8.944
				l0.531,0.991c0.346,0.637,1.139,0.873,1.771,0.531l14.387-7.72c0.636-0.344,0.873-1.135,0.531-1.767l-0.949-1.766
				c8.167-6.031,15.355-13.301,21.294-21.533l2.478,1.452c0.623,0.365,1.424,0.156,1.791-0.466l8.271-14.055
				c0.363-0.62,0.154-1.422-0.467-1.788l-2.549-1.493c4.361-9.505,7.237-19.838,8.328-30.691h1.719c0.725,0,1.31-0.585,1.31-1.307
				V95.004C200.501,94.283,199.916,93.699,199.192,93.699z"/>
		</g>
		<g>
			<path fill="none" stroke="#717A6F" d="M199.192,93.699h-1.65c-0.934-10.09-3.402-19.737-7.184-28.699l2.207-1.298
				c0.621-0.366,0.828-1.167,0.461-1.789l-8.295-14.041c-0.367-0.622-1.168-0.829-1.791-0.462l-1.604,0.944
				c-5.517-8.165-12.239-15.445-19.913-21.597l0.954-1.485c0.39-0.607,0.212-1.415-0.396-1.805l-13.75-8.796
				c-0.606-0.39-1.416-0.213-1.81,0.395l-0.854,1.328c-10.961-5.733-23.146-9.448-36.063-10.652V4.186
				c0-0.722-0.585-1.306-1.311-1.306H91.865c-0.723,0-1.308,0.584-1.308,1.306V5.79C77.27,7.105,64.765,11.077,53.583,17.168
				l-1.148-1.524c-0.435-0.577-1.254-0.691-1.833-0.26l-13.055,9.796c-0.578,0.435-0.694,1.252-0.26,1.829l0.605,0.804
				c-7.434,6.172-13.932,13.426-19.258,21.517l-1.223-0.642c-0.638-0.335-1.43-0.09-1.767,0.549L8.042,63.663
				c-0.336,0.639-0.09,1.428,0.548,1.764l1.228,0.645c-3.533,8.666-5.851,17.952-6.747,27.651H1.805
				c-0.721,0-1.305,0.583-1.305,1.302v16.259c0,0.723,0.584,1.306,1.305,1.306h1.334c1.038,10.373,3.709,20.26,7.746,29.415
				l-1.438,0.849c-0.62,0.366-0.826,1.163-0.461,1.783l8.272,14.007c0.366,0.617,1.166,0.822,1.787,0.462l1.098-0.646
				c4.953,7.092,10.825,13.493,17.445,19.035l-0.723,1.01c-0.419,0.587-0.283,1.4,0.305,1.821l13.29,9.476
				c0.588,0.42,1.405,0.283,1.825-0.306l0.936-1.306c11.139,6.131,23.604,10.155,36.859,11.532v1.476
				c0,0.724,0.586,1.309,1.308,1.309h16.334c0.721,0,1.307-0.585,1.307-1.309v-1.337c11.728-1.035,22.854-4.138,33.025-8.944
				l0.531,0.991c0.346,0.637,1.139,0.873,1.771,0.531l14.387-7.72c0.636-0.344,0.873-1.135,0.531-1.767l-0.949-1.766
				c8.167-6.031,15.355-13.301,21.294-21.533l2.478,1.452c0.623,0.365,1.424,0.156,1.791-0.466l8.271-14.055
				c0.363-0.62,0.154-1.422-0.467-1.788l-2.549-1.493c4.361-9.505,7.237-19.838,8.328-30.691h1.719c0.725,0,1.31-0.585,1.31-1.307
				V95.004C200.501,94.283,199.916,93.699,199.192,93.699z"/>
		</g>
	</g>
	
		<linearGradient id="SVGID_2_" gradientUnits="userSpaceOnUse" x1="-697.7656" y1="1445.8643" x2="-816.4318" y2="1327.198" gradientTransform="matrix(1 0 0 1 857.5996 -1283.8398)">
		<stop  offset="0" style="stop-color:#FFFFFF"/>
		<stop  offset="1" style="stop-color:#3B4C3B"/>
	</linearGradient>
	<ellipse fill="url(#SVGID_2_)" cx="100.5" cy="102.69" rx="83.989" ry="83.83"/>
	
		<linearGradient id="SVGID_3_" gradientUnits="userSpaceOnUse" x1="-757.0991" y1="1467.3711" x2="-757.0991" y2="1305.6895" gradientTransform="matrix(1 0 0 1 857.5996 -1283.8398)">
		<stop  offset="0" style="stop-color:#E4F4E4"/>
		<stop  offset="0.1232" style="stop-color:#D9EBD9"/>
		<stop  offset="0.4047" style="stop-color:#C6DBC6"/>
		<stop  offset="0.6939" style="stop-color:#BBD1BB"/>
		<stop  offset="1" style="stop-color:#B7CEB7"/>
	</linearGradient>
	<ellipse fill="url(#SVGID_3_)" cx="100.5" cy="102.69" rx="80.995" ry="80.841"/>
	<path fill="#FFFFFF" d="M35.185,43.562c-6.887,7.125-16.9,22.657-18.766,18.787c-1.866-3.871,5.112-14.333,15.499-25.288
		C42.73,25.656,49.423,23.673,51.688,26.386C53.954,29.099,43.13,35.343,35.185,43.562z"/>
	<g opacity="0.5">
		<g>
			<path fill="#31512D" d="M164.206,100.979c0-34.684-28.521-62.8-63.706-62.8s-63.707,28.115-63.707,62.8
				c0,14.419,4.941,27.694,13.23,38.296l0.062-0.051c0.871,1.146,2.238,1.898,3.793,1.898c2.633,0,4.771-2.132,4.771-4.761
				c0-1.202-0.462-2.292-1.199-3.131l0.017-0.015c-6.915-8.953-11.027-20.122-11.027-32.246c0-29.432,24.205-53.29,54.061-53.29
				c29.857,0,54.06,23.858,54.06,53.29c0,12.17-4.146,23.379-11.106,32.348l0.06,0.045c-0.686,0.825-1.109,1.868-1.109,3.018
				c0,2.636,2.14,4.767,4.775,4.767c1.555,0,2.92-0.752,3.789-1.896l0.018,0.014C159.267,128.672,164.206,115.396,164.206,100.979z"
				/>
		</g>
	</g>
	
		<linearGradient id="SVGID_4_" gradientUnits="userSpaceOnUse" x1="-113.8989" y1="138.7549" x2="-113.8989" y2="18.0562" gradientTransform="matrix(1 0 0 -1 214.3999 163.04)">
		<stop  offset="0" style="stop-color:#FFFFFF"/>
		<stop  offset="1" style="stop-color:#C6DBCE"/>
	</linearGradient>
	<ellipse opacity="0.4" fill="url(#SVGID_4_)" enable-background="new    " cx="100.5" cy="84.635" rx="70.696" ry="60.35"/>
</g>
</svg>
