<?xml version="1.0" encoding="utf-8"?>
<!--
  - This file is part of StyleBI.
  - Copyright (C) 2024  InetSoft Technology
  -
  - This program is free software: you can redistribute it and/or modify
  - it under the terms of the GNU Affero General Public License as published by
  - the Free Software Foundation, either version 3 of the License, or
  - (at your option) any later version.
  -
  - This program is distributed in the hope that it will be useful,
  - but WITHOUT ANY WARRANTY; without even the implied warranty of
  - MERCHANTABILITY or FITNESS FOR A PARTICULAR PURPOSE.  See the
  - GNU Affero General Public License for more details.
  -
  - You should have received a copy of the GNU Affero General Public License
  - along with this program.  If not, see <https://www.gnu.org/licenses/>.
  -->

<!-- Generator: Adobe Illustrator 15.1.0, SVG Export Plug-In . SVG Version: 6.00 Build 0)  -->
<!DOCTYPE svg PUBLIC "-//W3C//DTD SVG 1.1//EN" "http://www.w3.org/Graphics/SVG/1.1/DTD/svg11.dtd">
<svg version="1.1" id="Layer_1" xmlns="http://www.w3.org/2000/svg" xmlns:xlink="http://www.w3.org/1999/xlink" x="0px" y="0px"
	 width="30px" height="30px" viewBox="291 381 30 30" enable-background="new 291 381 30 30" xml:space="preserve">
<path fill="#334750" d="M294.066,384.066h23.868v23.868h-23.868V384.066z"/>
<path fill="#47C486" d="M309.059,395.802c0.327,0.001,0.595-0.265,0.597-0.593c0-0.001,0-0.002,0-0.004v-6.279
	c0-0.251-0.304-0.434-0.527-0.313l-6.261,3.398c-0.326,0.173-0.528,0.513-0.527,0.881v2.928c0,0.265,0.289,0.028,0.518-0.103
	l3.1-1.994c0.165-0.095,0.375-0.039,0.472,0.125c0.03,0.053,0.046,0.112,0.047,0.173v1.184c-0.001,0.328,0.264,0.596,0.593,0.597
	c0.001,0,0.002,0,0.004,0H309.059L309.059,395.802z"/>
<path fill="#2196F3" d="M302.941,396.203c-0.328-0.001-0.595,0.265-0.597,0.593c0,0.001,0,0.003,0,0.004v6.273
	c0,0.252,0.303,0.434,0.527,0.313l6.26-3.398c0.322-0.178,0.523-0.514,0.526-0.881v-2.158c-0.005-0.76-0.326-0.652-0.559-0.517
	l-3.058,1.85c-0.165,0.095-0.376,0.039-0.472-0.126c-0.03-0.052-0.046-0.111-0.048-0.173V396.8c0.001-0.329-0.265-0.596-0.593-0.597
	c-0.001,0-0.002,0-0.004,0h-1.986H302.941z"/>
</svg>
