<?xml version="1.0" encoding="utf-8"?>
<!--
  - This file is part of StyleBI.
  - Copyright (C) 2024  InetSoft Technology
  -
  - This program is free software: you can redistribute it and/or modify
  - it under the terms of the GNU Affero General Public License as published by
  - the Free Software Foundation, either version 3 of the License, or
  - (at your option) any later version.
  -
  - This program is distributed in the hope that it will be useful,
  - but WITHOUT ANY WARRANTY; without even the implied warranty of
  - MERCHANTABILITY or FITNESS FOR A PARTICULAR PURPOSE.  See the
  - GNU Affero General Public License for more details.
  -
  - You should have received a copy of the GNU Affero General Public License
  - along with this program.  If not, see <https://www.gnu.org/licenses/>.
  -->

<!-- Generator: Adobe Illustrator 15.0.0, SVG Export Plug-In . SVG Version: 6.00 Build 0)  -->
<!DOCTYPE svg PUBLIC "-//W3C//DTD SVG 1.1//EN" "http://www.w3.org/Graphics/SVG/1.1/DTD/svg11.dtd">
<svg version="1.1" id="图层_1" xmlns="http://www.w3.org/2000/svg" xmlns:xlink="http://www.w3.org/1999/xlink" x="0px" y="0px"
	 width="200px" height="200px" viewBox="0 0 200 200" enable-background="new 0 0 200 200" xml:space="preserve">
<path fill="#42BCF4" d="M25,5C18.232,5,11.561,5.408,5,6.177V175c0,11.046,8.955,20,20,20h168.823
	c0.769-6.561,1.177-13.232,1.177-20C195,81.112,118.889,5,25,5z"/>
<path fill="#FFFFFF" d="M25,10c-5.058,0-10.058,0.24-14.999,0.686L10,174.998c0-0.205,0.022-0.405,0.031-0.609
	C10.022,174.594,10,174.794,10,175c0,8.284,6.717,15,15,15h37.667l126.647-0.001C189.76,185.058,190,180.057,190,175
	C190,83.874,116.128,10,25,10z"/>
<path fill="#8DD0FC" d="M25,85v6c46.317,0,84,37.682,84,84h6C115,125.294,74.707,85,25,85z"/>
<polygon fill="#42BCF4" points="25,184.968 25,164.968 135,174.968 "/>
<g>
	<path fill="#AFAFAF" d="M114.868,106.939l6.194-4.509c-0.154-0.205-0.306-0.407-0.459-0.616l-6.197,4.496
		C114.561,106.521,114.721,106.73,114.868,106.939z"/>
	<path fill="#AFAFAF" d="M125.173,124.183l6.889-3.36c-0.117-0.228-0.229-0.465-0.342-0.689l-6.878,3.359
		C124.952,123.717,125.066,123.958,125.173,124.183z"/>
	<path fill="#AFAFAF" d="M123.073,120.021l6.756-3.595c-0.118-0.232-0.241-0.453-0.362-0.683l-6.767,3.595
		C122.826,119.568,122.949,119.779,123.073,120.021z"/>
	<path fill="#AFAFAF" d="M128.269,131.233l7.097-2.868c-0.096-0.236-0.19-0.481-0.281-0.713l-7.104,2.865
		C128.079,130.748,128.171,131.002,128.269,131.233z"/>
	<path fill="#AFAFAF" d="M126.792,127.688l6.99-3.124c-0.098-0.234-0.206-0.473-0.313-0.703l-6.992,3.113
		C126.574,127.219,126.682,127.443,126.792,127.688z"/>
	<path fill="#AFAFAF" d="M129.63,134.836l7.199-2.618c-0.091-0.247-0.181-0.484-0.271-0.728l-7.196,2.619
		C129.449,134.359,129.54,134.598,129.63,134.836z"/>
	<path fill="#AFAFAF" d="M121.188,116.642l6.634-3.814c-0.132-0.235-0.26-0.463-0.383-0.681l-6.635,3.824
		C120.937,116.198,121.059,116.426,121.188,116.642z"/>
	<path fill="#AFAFAF" d="M112.533,103.861l6.034-4.716c-0.16-0.205-0.311-0.408-0.476-0.612l-6.031,4.719
		C112.214,103.453,112.376,103.656,112.533,103.861z"/>
	<path fill="#AFAFAF" d="M110.105,100.859l5.858-4.923c-0.159-0.202-0.323-0.39-0.496-0.585l-5.86,4.925
		C109.773,100.458,109.94,100.661,110.105,100.859z"/>
	<path fill="#AFAFAF" d="M107.572,97.949l5.687-5.12c-0.176-0.192-0.35-0.381-0.518-0.572l-5.694,5.13
		C107.221,97.581,107.403,97.76,107.572,97.949z"/>
	<path fill="#AFAFAF" d="M117.08,110.102l6.349-4.285c-0.144-0.211-0.288-0.434-0.435-0.638l-6.346,4.286
		C116.797,109.67,116.944,109.891,117.08,110.102z"/>
	<path fill="#AFAFAF" d="M119.196,113.336l6.499-4.063c-0.142-0.221-0.28-0.435-0.42-0.647l-6.49,4.057
		C118.917,112.904,119.062,113.111,119.196,113.336z"/>
	<path fill="#AFAFAF" d="M135.805,164.926l7.636-0.533c-0.012-0.25-0.03-0.51-0.047-0.763l-7.64,0.536
		C135.771,164.422,135.789,164.675,135.805,164.926z"/>
	<path fill="#AFAFAF" d="M135.054,157.266l7.576-1.068c-0.031-0.256-0.061-0.513-0.098-0.766l-7.58,1.061
		C134.985,156.752,135.011,157.009,135.054,157.266z"/>
	<path fill="#AFAFAF" d="M130.854,138.486l7.284-2.363c-0.078-0.25-0.157-0.494-0.232-0.738l-7.285,2.367
		C130.704,137.988,130.777,138.246,130.854,138.486z"/>
	<path fill="#AFAFAF" d="M135.973,168.785l7.648-0.272c0-0.249-0.008-0.516-0.017-0.769l-7.656,0.269
		C135.962,168.275,135.966,168.529,135.973,168.785z"/>
	<path fill="#AFAFAF" d="M136.023,172.637h7.65c0.003-0.256,0-0.514,0-0.771l-7.658,0.004
		C136.016,172.123,136.023,172.381,136.023,172.637z"/>
	<path fill="#AFAFAF" d="M135.491,161.094l7.615-0.811c-0.026-0.252-0.045-0.507-0.076-0.761l-7.616,0.802
		C135.439,160.577,135.468,160.837,135.491,161.094z"/>
	<path fill="#AFAFAF" d="M134.484,153.453l7.542-1.334c-0.046-0.257-0.092-0.507-0.141-0.757l-7.539,1.328
		C134.391,152.943,134.438,153.199,134.484,153.453z"/>
	<path fill="#AFAFAF" d="M132.936,145.902l7.426-1.854c-0.062-0.247-0.119-0.497-0.18-0.754l-7.432,1.857
		C132.813,145.404,132.87,145.655,132.936,145.902z"/>
	<path fill="#AFAFAF" d="M131.958,142.178l7.362-2.114c-0.072-0.243-0.146-0.493-0.216-0.744l-7.359,2.114
		C131.816,141.684,131.891,141.93,131.958,142.178z"/>
	<path fill="#AFAFAF" d="M133.773,149.669l7.484-1.597c-0.05-0.25-0.099-0.506-0.154-0.758l-7.491,1.596
		C133.666,149.159,133.712,149.413,133.773,149.669z"/>
	<path fill="#AFAFAF" d="M80.724,76.218l3.823-6.635c-0.219-0.129-0.443-0.257-0.666-0.383l-3.828,6.633
		C80.274,75.965,80.499,76.095,80.724,76.218z"/>
	<path fill="#AFAFAF" d="M104.935,95.136l5.509-5.325c-0.18-0.184-0.362-0.374-0.539-0.558l-5.503,5.325
		C104.582,94.763,104.759,94.95,104.935,95.136z"/>
	<path fill="#AFAFAF" d="M69.759,62.36c-0.235-0.096-0.481-0.184-0.719-0.277l-2.87,7.104c0.241,0.094,0.479,0.185,0.721,0.28
		L69.759,62.36z"/>
	<path fill="#AFAFAF" d="M96.477,87.254l4.923-5.872c-0.194-0.166-0.396-0.324-0.599-0.492l-4.92,5.873
		C96.075,86.92,96.283,87.087,96.477,87.254z"/>
	<path fill="#AFAFAF" d="M90.406,82.506l4.502-6.201c-0.21-0.149-0.423-0.297-0.627-0.444l-4.505,6.197
		C89.99,82.209,90.208,82.354,90.406,82.506z"/>
	<path fill="#AFAFAF" d="M93.479,84.832l4.716-6.034c-0.198-0.161-0.399-0.324-0.605-0.479l-4.71,6.034
		C93.081,84.51,93.275,84.677,93.479,84.832z"/>
	<path fill="#AFAFAF" d="M99.386,89.787l5.125-5.697c-0.193-0.173-0.38-0.346-0.573-0.517l-5.127,5.691
		C99.011,89.434,99.197,89.608,99.386,89.787z"/>
	<path fill="#AFAFAF" d="M102.207,92.407l5.318-5.506c-0.186-0.186-0.372-0.358-0.56-0.536l-5.317,5.509
		C101.834,92.055,102.021,92.23,102.207,92.407z"/>
	<path fill="#AFAFAF" d="M84.02,78.197l4.063-6.497c-0.221-0.136-0.441-0.269-0.656-0.402l-4.057,6.498
		C83.584,77.927,83.806,78.059,84.02,78.197z"/>
	<path fill="#AFAFAF" d="M87.253,80.3l4.278-6.35c-0.211-0.143-0.43-0.287-0.641-0.434l-4.283,6.354
		C86.823,80.011,87.033,80.157,87.253,80.3z"/>
	<path fill="#AFAFAF" d="M77.354,74.351l3.593-6.764c-0.223-0.123-0.447-0.246-0.672-0.366l-3.6,6.767
		C76.903,74.108,77.129,74.23,77.354,74.351z"/>
	<path fill="#AFAFAF" d="M73.928,72.601l3.355-6.887c-0.234-0.108-0.465-0.22-0.7-0.335l-3.361,6.89
		C73.459,72.378,73.691,72.487,73.928,72.601z"/>
	<path fill="#AFAFAF" d="M73.552,63.975c-0.242-0.104-0.471-0.211-0.712-0.319l-3.107,7.003c0.232,0.102,0.465,0.213,0.702,0.313
		L73.552,63.975z"/>
	<path fill="#AFAFAF" d="M58.078,58.351c-0.249-0.069-0.494-0.136-0.744-0.206l-2.105,7.368c0.248,0.068,0.495,0.136,0.741,0.207
		L58.078,58.351z"/>
	<path fill="#AFAFAF" d="M54.097,57.292c-0.251-0.064-0.494-0.132-0.748-0.192l-1.854,7.434c0.264,0.058,0.506,0.127,0.747,0.19
		L54.097,57.292z"/>
	<path fill="#AFAFAF" d="M62.021,59.549c-0.242-0.079-0.493-0.156-0.735-0.233l-2.37,7.287c0.253,0.076,0.495,0.151,0.737,0.233
		L62.021,59.549z"/>
	<path fill="#AFAFAF" d="M65.907,60.894c-0.231-0.086-0.479-0.177-0.719-0.262l-2.622,7.198c0.244,0.088,0.487,0.174,0.725,0.261
		L65.907,60.894z"/>
	<path fill="#AFAFAF" d="M50.078,56.367c-0.25-0.055-0.501-0.102-0.744-0.153l-1.597,7.492c0.25,0.051,0.499,0.099,0.759,0.153
		L50.078,56.367z"/>
	<path fill="#AFAFAF" d="M37.878,54.449c-0.257-0.028-0.526-0.05-0.773-0.078l-0.795,7.617c0.252,0.028,0.513,0.049,0.763,0.079
		L37.878,54.449z"/>
	<path fill="#AFAFAF" d="M29.547,53.866l-0.278,7.655c0.03,0,0.045,0,0.062,0c0.239,0.007,0.484,0.023,0.722,0.033l0.264-7.652
		c-0.239-0.011-0.489-0.026-0.72-0.034C29.576,53.866,29.561,53.866,29.547,53.866z"/>
	<path fill="#AFAFAF" d="M33.764,54.092c-0.248-0.016-0.506-0.041-0.766-0.055l-0.533,7.64c0.258,0.017,0.52,0.037,0.772,0.057
		L33.764,54.092z"/>
	<path fill="#AFAFAF" d="M46.037,55.586c-0.251-0.046-0.513-0.092-0.762-0.133l-1.329,7.545c0.257,0.041,0.504,0.086,0.762,0.132
		L46.037,55.586z"/>
	<path fill="#AFAFAF" d="M41.966,54.941c-0.25-0.033-0.508-0.067-0.764-0.104l-1.063,7.59c0.256,0.033,0.511,0.069,0.766,0.102
		L41.966,54.941z"/>
	<path fill="#AFAFAF" d="M134.484,153.453l25.855-4.57c-0.038-0.252-0.094-0.506-0.136-0.759l-25.857,4.566
		C134.391,152.943,134.438,153.199,134.484,153.453z"/>
	<path fill="#AFAFAF" d="M143.54,102.84l-22.739,13.131c0.136,0.225,0.258,0.452,0.383,0.667l22.739-13.13
		C143.798,103.287,143.667,103.065,143.54,102.84z"/>
	<path fill="#AFAFAF" d="M112.754,66.638L95.883,86.761c0.192,0.159,0.4,0.325,0.594,0.491l16.872-20.123
		C113.152,66.963,112.953,66.802,112.754,66.638z"/>
	<path fill="#AFAFAF" d="M71.545,43.143L62.566,67.83c0.244,0.088,0.487,0.174,0.725,0.261l8.976-24.686
		C72.026,43.32,71.792,43.23,71.545,43.143z"/>
	<path fill="#AFAFAF" d="M25.419,35.202l0.013,26.263c0.252-0.005,0.51-0.007,0.772-0.007l-0.018-26.259
		C25.936,35.197,25.673,35.202,25.419,35.202z"/>
	<path fill="#AFAFAF" d="M136.023,172.637l13.119-0.004c0.005-0.252,0-0.513-0.003-0.77l-13.116,0.007
		C136.016,172.123,136.026,172.381,136.023,172.637z"/>
	<path fill="#AFAFAF" d="M141.702,129.621l-12.34,4.488c0.087,0.247,0.178,0.488,0.268,0.727l12.334-4.494
		C141.88,130.104,141.787,129.86,141.702,129.621z"/>
	<path fill="#AFAFAF" d="M119.662,91.822l-10.055,8.454c0.169,0.181,0.333,0.384,0.498,0.581l10.054-8.437
		C119.995,92.219,119.834,92.021,119.662,91.822z"/>
	<path fill="#AFAFAF" d="M43.948,63c0.257,0.041,0.511,0.09,0.76,0.133l2.278-12.934c-0.252-0.044-0.51-0.089-0.763-0.133L43.948,63
		z"/>
	<path fill="#AFAFAF" d="M80.053,75.833c0.222,0.133,0.446,0.261,0.671,0.384l6.56-11.375c-0.224-0.128-0.444-0.256-0.67-0.383
		L80.053,75.833z"/>
</g>
<path fill="#055B75" d="M29.73,21.493l0.313,1.246l2.104-1.136h0.037V32.18h1.584V20.079h-1.398L29.73,21.493z M40.485,30.785
	l0.954-0.894c2.55-2.459,4.168-4.265,4.168-6.498c0-1.732-1.098-3.517-3.701-3.517c-1.385,0-2.593,0.539-3.41,1.227l0.519,1.155
	c0.565-0.464,1.471-1.025,2.571-1.025c1.806,0,2.383,1.133,2.383,2.365c0,1.822-1.418,3.387-4.503,6.329l-1.284,1.25v1.004h7.722
	v-1.361h-5.42v-0.034H40.485z M51.785,19.875c-2.458,0-4.222,2.213-4.222,6.291c0.035,4.003,1.654,6.219,4.016,6.219
	c2.664,0,4.209-2.271,4.209-6.386C55.788,22.144,54.322,19.875,51.785,19.875z M51.674,31.118c-1.488,0-2.456-1.784-2.456-4.935
	c0-3.293,1.044-5.043,2.456-5.043c1.712,0,2.459,1.954,2.459,4.935C54.133,29.165,53.331,31.118,51.674,31.118z M105.556,39.865
	c-2.456,0-4.225,2.214-4.225,6.293c0.038,4.002,1.658,6.217,4.022,6.217c2.663,0,4.208-2.273,4.208-6.385
	C109.562,42.135,108.088,39.865,105.556,39.865z M105.443,51.108c-1.49,0-2.455-1.784-2.455-4.931c0-3.297,1.04-5.046,2.455-5.046
	c1.716,0,2.459,1.953,2.459,4.933C107.902,49.156,107.104,51.108,105.443,51.108z M98.558,40.072h-1.764l-5.403,7.726v1.06h5.624
	v3.313h1.543v-3.313h1.695v-1.264h-1.695V40.072z M97.015,43.55v4.043h-3.971v-0.04l2.967-4.112c0.334-0.56,0.63-1.08,1.004-1.789
	h0.055C97.034,42.286,97.015,42.917,97.015,43.55z M83.502,41.483l0.314,1.25l2.102-1.135h0.034V52.17h1.583V40.072h-1.397
	L83.502,41.483z M140.717,74.333c-2.459,0-4.223,2.215-4.223,6.292c0.032,4.002,1.655,6.222,4.017,6.222
	c2.658,0,4.206-2.274,4.206-6.388C144.716,76.604,143.245,74.333,140.717,74.333z M140.602,85.576c-1.488,0-2.455-1.786-2.455-4.932
	c0-3.297,1.042-5.046,2.455-5.046c1.717,0,2.459,1.954,2.459,4.932C143.061,83.624,142.259,85.576,140.602,85.576z M118.657,75.952
	l0.314,1.249l2.105-1.134h0.035V86.64h1.582v-12.1h-1.396L118.657,75.952z M131.557,78.652c-1.34,0-2.362,0.635-2.944,1.417h-0.035
	c0.282-2.012,1.622-3.875,4.21-4.283c0.466-0.075,0.892-0.109,1.229-0.092v-1.343c-0.298,0-0.711,0.019-1.193,0.094
	c-1.529,0.185-2.869,0.799-3.873,1.788c-1.209,1.191-2.049,3.072-2.049,5.456c0,3.146,1.695,5.158,4.264,5.158
	c2.538,0,4.046-2.051,4.046-4.288C135.208,80.217,133.7,78.652,131.557,78.652z M131.199,85.576c-1.729,0-2.658-1.49-2.678-3.48
	c0-0.301,0.074-0.524,0.169-0.709c0.442-0.894,1.374-1.489,2.361-1.489c1.509,0,2.496,1.041,2.496,2.776
	C133.548,84.406,132.598,85.576,131.199,85.576z"/>
<path fill="#055B75" d="M169.08,117.762c-2.452,0-4.224,2.213-4.224,6.293c0.036,4.004,1.659,6.219,4.021,6.219
	c2.667,0,4.208-2.271,4.208-6.388C173.085,120.032,171.616,117.762,169.08,117.762z M168.97,129.006
	c-1.489,0-2.454-1.785-2.454-4.934c0-3.298,1.042-5.047,2.454-5.047c1.714,0,2.46,1.956,2.46,4.935
	C171.43,127.053,170.629,129.006,168.97,129.006z M163.334,117.964h-7.633v1.362h5.918v0.035l-5.25,10.705h1.694l5.271-11.023
	V117.964z M147.023,119.381l0.322,1.249l2.1-1.137h0.041v10.575h1.579v-12.104h-1.396L147.023,119.381z M153.92,161.598l0.315,1.246
	l2.104-1.136h0.041v10.574h1.58v-12.097h-1.396L153.92,161.598z M175.98,159.979c-2.459,0-4.229,2.216-4.229,6.291
	c0.037,4.005,1.66,6.218,4.021,6.218c2.668,0,4.209-2.271,4.209-6.385C179.981,162.25,178.511,159.979,175.98,159.979z
	 M175.866,171.221c-1.489,0-2.455-1.785-2.455-4.932c0-3.299,1.038-5.043,2.455-5.043c1.714,0,2.459,1.949,2.459,4.932
	C178.325,169.266,177.525,171.221,175.866,171.221z M167.957,165.842v-0.056c1.49-0.688,2.011-1.808,2.011-2.831
	c0-1.526-1.194-2.976-3.536-2.976c-2.142,0-3.756,1.302-3.756,3.216c0,1.046,0.572,2.088,1.932,2.719l0.02,0.059
	c-1.49,0.631-2.405,1.73-2.405,3.258c0,1.77,1.533,3.256,4.061,3.256c2.308,0,4.116-1.4,4.116-3.522
	C170.396,167.518,169.464,166.438,167.957,165.842z M164.23,163.087c0-1.046,0.742-1.937,2.105-1.937
	c1.47,0,2.049,1.004,2.049,1.972c0,1.103-0.802,1.842-1.844,2.196C165.145,164.945,164.213,164.295,164.23,163.087z
	 M166.316,171.295c-1.539,0-2.475-1.077-2.418-2.289c0-1.154,0.764-2.101,2.178-2.511c1.639,0.465,2.662,1.188,2.662,2.64
	C168.738,170.385,167.788,171.295,166.316,171.295z"/>
<circle fill="#42BCF4" cx="25" cy="175" r="10"/>
<circle fill="#FFFFFF" cx="25" cy="175" r="6"/>
</svg>
