<?xml version="1.0" encoding="utf-8"?>
<!-- Generator: Adobe Illustrator 15.1.0, SVG Export Plug-In . SVG Version: 6.00 Build 0)  -->
<!DOCTYPE svg PUBLIC "-//W3C//DTD SVG 1.1//EN" "http://www.w3.org/Graphics/SVG/1.1/DTD/svg11.dtd">
<svg version="1.1" id="Layer_1" xmlns="http://www.w3.org/2000/svg" xmlns:xlink="http://www.w3.org/1999/xlink" x="0px" y="0px"
	 width="24px" height="24px" viewBox="18 8 24 24" enable-background="new 18 8 24 24" xml:space="preserve">
<rect x="21" y="24.451" fill="#62A640" width="3.6" height="5.398"/>
<rect x="34.5" y="23.551" fill="#D64541" width="3.6" height="6.299"/>
<rect x="30" y="20.852" fill="#FC8F2A" width="3.6" height="8.998"/>
<rect x="25.5" y="25.35" fill="#ADE095" width="3.6" height="4.5"/>
<rect x="22.659" y="19.28" transform="matrix(-0.9276 0.3736 -0.3736 -0.9276 55.8206 29.0151)" fill="#B9DBF4" width="4.879" height="1.273"/>
<rect x="26.617" y="16.072" transform="matrix(-0.7011 0.7131 -0.7131 -0.7011 62.6273 7.1656)" fill="#B9DBF4" width="6.389" height="1.275"/>
<rect x="31.838" y="13.031" transform="matrix(-0.9575 0.2885 -0.2885 -0.9575 71.6874 16.7718)" fill="#B9DBF4" width="5.54" height="1.274"/>
<circle fill="#518DB9" cx="22.8" cy="20.851" r="1.8"/>
<circle fill="#518DB9" cx="27.3" cy="19.05" r="1.8"/>
<circle fill="#518DB9" cx="31.801" cy="14.55" r="1.8"/>
<circle fill="#518DB9" cx="37.199" cy="12.75" r="1.8"/>
</svg>
