<?xml version="1.0" encoding="utf-8"?>
<!-- Generator: Adobe Illustrator 15.1.0, SVG Export Plug-In . SVG Version: 6.00 Build 0)  -->
<!DOCTYPE svg PUBLIC "-//W3C//DTD SVG 1.1//EN" "http://www.w3.org/Graphics/SVG/1.1/DTD/svg11.dtd">
<svg version="1.1" id="Layer_1" xmlns="http://www.w3.org/2000/svg" xmlns:xlink="http://www.w3.org/1999/xlink" x="0px" y="0px"
	 width="24px" height="24px" viewBox="0 0 24 24" enable-background="new 0 0 24 24" xml:space="preserve">
<g>
	<circle fill="#D64541" cx="18" cy="3.843" r="1.4"/>
	<path fill="#518DB9" d="M20.333,7.343h-4.666c-0.701,0-1.167,0.52-1.167,1.3v6.5c0,0.781,0.466,1.301,1.167,1.301h4.666
		c0.7,0,1.167-0.52,1.167-1.301v-6.5C21.5,7.863,21.033,7.343,20.333,7.343z M19.75,14.693h-3.5V9.094h3.5V14.693z"/>
	<rect x="16.949" y="16.355" fill="#518DB9" width="2.101" height="2.1"/>
	<rect x="15.608" y="11.456" fill="#518DB9" width="4.491" height="1.399"/>
	<rect x="14.5" y="18.455" fill="#FC8F2A" width="7" height="2.102"/>
</g>
<g>
	<path fill="#62A640" d="M10.333,8.199H5.666c-0.7,0-1.166,0.52-1.166,1.3v6.499c0,0.781,0.466,1.301,1.167,1.301h4.667
		c0.7,0,1.167-0.52,1.167-1.301V9.5C11.5,8.719,11.033,8.199,10.333,8.199z M9.75,15.551h-3.5V9.95h3.5V15.551z"/>
	<rect x="6.949" y="16.6" fill="#62A640" width="2.1" height="3.5"/>
	<rect x="5.608" y="13.012" fill="#62A640" width="4.491" height="1.4"/>
	<rect x="4.5" y="19.398" fill="#FC8F2A" width="7" height="2.102"/>
	<rect x="6.949" y="5.312" fill="#62A640" width="2.1" height="4.2"/>
	<rect x="4.5" y="3.912" fill="#FC8F2A" width="7" height="2.1"/>
</g>
</svg>
