<?xml version="1.0" encoding="utf-8"?>
<!-- Generator: Adobe Illustrator 15.1.0, SVG Export Plug-In . SVG Version: 6.00 Build 0)  -->
<!DOCTYPE svg PUBLIC "-//W3C//DTD SVG 1.1//EN" "http://www.w3.org/Graphics/SVG/1.1/DTD/svg11.dtd">
<svg version="1.1" id="Layer_1" xmlns="http://www.w3.org/2000/svg" xmlns:xlink="http://www.w3.org/1999/xlink" x="0px" y="0px"
	 width="24px" height="24px" viewBox="18 8 24 24" enable-background="new 18 8 24 24" xml:space="preserve">
<path fill="#62A640" d="M39.871,18.77H31.23v-8.64C36.002,10.129,39.871,13.999,39.871,18.77"/>
<path fill="#FC8F2A" d="M37.711,20.93c0,3.003-1.534,5.648-3.856,7.203l-4.158-7.203H37.711"/>
<path fill="#518DB9" d="M29.07,29.57c-3.002,0-5.649-1.535-7.203-3.856l7.009-4.05l4.04,7.009
	C31.771,29.246,30.452,29.57,29.07,29.57"/>
<path fill="#B9DBF4" d="M20.431,20.93c0-4.771,3.868-8.64,8.64-8.64v8.014l-7.743,4.471C20.753,23.629,20.431,22.313,20.431,20.93z"
	/>
</svg>
