<?xml version="1.0" encoding="utf-8"?>
<!-- Generator: Adobe Illustrator 15.1.0, SVG Export Plug-In . SVG Version: 6.00 Build 0)  -->
<!DOCTYPE svg PUBLIC "-//W3C//DTD SVG 1.1//EN" "http://www.w3.org/Graphics/SVG/1.1/DTD/svg11.dtd">
<svg version="1.1" id="Layer_1" xmlns="http://www.w3.org/2000/svg" xmlns:xlink="http://www.w3.org/1999/xlink" x="0px" y="0px"
	 width="24px" height="24px" viewBox="0 0 24 24" enable-background="new 0 0 24 24" xml:space="preserve">
<g>
	<polyline fill="#468EBA" points="5.5,17.281 13.3,17.281 13.3,19.719 5.5,19.719 5.5,17.281 	"/>
	<polyline fill="#468EBA" points="2.9,8.181 8.101,8.181 8.101,10.619 2.9,10.619 2.9,8.181 	"/>
	<polyline fill="#468EBA" points="5.5,17.281 5.5,8.182 7.938,8.182 7.938,17.281 5.5,17.281 	"/>
	<polyline fill="#468EBA" points="10.7,17.282 10.7,6.882 13.138,6.882 13.138,17.282 10.7,17.282 	"/>
	<polyline fill="#468EBA" points="10.7,4.281 17.2,4.281 17.2,6.719 10.7,6.719 10.7,4.281 	"/>
	<polyline fill="#468EBA" points="16.063,13.381 16.063,4.281 18.5,4.281 18.5,13.381 16.063,13.381 	"/>
	<polyline fill="#468EBA" points="15.9,13.381 21.1,13.381 21.1,15.818 15.9,15.818 15.9,13.381 	"/>
</g>
</svg>
