<?xml version="1.0" encoding="utf-8"?>
<!-- Generator: Adobe Illustrator 15.1.0, SVG Export Plug-In . SVG Version: 6.00 Build 0)  -->
<!DOCTYPE svg PUBLIC "-//W3C//DTD SVG 1.1//EN" "http://www.w3.org/Graphics/SVG/1.1/DTD/svg11.dtd">
<svg version="1.1" id="Layer_1" xmlns="http://www.w3.org/2000/svg" xmlns:xlink="http://www.w3.org/1999/xlink" x="0px" y="0px"
	 width="24px" height="24px" viewBox="18 8 24 24" enable-background="new 18 8 24 24" xml:space="preserve">
<path fill="#FC8F2A" d="M35.544,11.01c-2.034,0-3.697,1.663-3.697,3.696s3.697,6.468,3.697,6.468s3.695-4.435,3.695-6.468
	C39.239,12.673,37.576,11.01,35.544,11.01z M35.544,16.092c-0.739,0-1.387-0.647-1.387-1.386s0.647-1.386,1.387-1.386
	s1.386,0.646,1.386,1.386C36.93,15.445,36.283,16.092,35.544,16.092z"/>
<path fill="#518DB9" d="M36.652,22.098l-1.108,1.201l-1.108-1.201c-0.369-0.463-1.017-1.293-1.663-2.217v7.577l-4.713-2.402
	l-0.832-0.369l0,0V13.043l0.092-0.093l3.142,1.016c0.092-0.646,0.277-1.2,0.554-1.755l-3.788-1.201l-6.468,3.049v14.968
	c0,0.094,0,0.186,0.092,0.186c0,0,0,0,0,0.09l0.092,0.094c0,0,0,0,0.092,0c0,0,0.093,0,0.185,0.092c0,0,0,0,0.092,0l0,0
	c0.092,0,0.185,0,0.185-0.092l5.729-2.678l5.544,2.771l6.468-3.049v-8.04C38.315,19.973,37.114,21.451,36.652,22.098z"/>
</svg>
