<?xml version="1.0" encoding="utf-8"?>
<!-- Generator: Adobe Illustrator 15.1.0, SVG Export Plug-In . SVG Version: 6.00 Build 0)  -->
<!DOCTYPE svg PUBLIC "-//W3C//DTD SVG 1.1//EN" "http://www.w3.org/Graphics/SVG/1.1/DTD/svg11.dtd">
<svg version="1.1" id="Layer_1" xmlns="http://www.w3.org/2000/svg" xmlns:xlink="http://www.w3.org/1999/xlink" x="0px" y="0px"
	 width="24px" height="24px" viewBox="3 3 24 24" enable-background="new 3 3 24 24" xml:space="preserve">
<title>background</title>
<title>Layer 1</title>
<path id="svg_2" fill="none" stroke="#62A640" stroke-width="2.24" d="M11.824,21.618c-1.127-0.551-2.091-1.384-2.8-2.408"/>
<path id="svg_3" fill="none" stroke="#000000" stroke-width="2.24" d="M11.824,21.618"/>
<path id="svg_4" fill="none" stroke="#518DB9" stroke-width="2.24" d="M21.866,13.775c0.076,0.42,0.115,0.854,0.115,1.297
	c0,4.021-3.259,7.28-7.279,7.28c-0.42,0-0.833-0.036-1.233-0.104"/>
<path id="svg_5" fill="none" stroke="#9368BE" stroke-width="2.24" d="M17.849,8.365c1.633,0.69,2.962,1.961,3.729,3.551"/>
<path id="svg_6" fill="none" stroke="#9368BE" stroke-width="2.24" d="M17.849,8.365"/>
<path id="svg_7" fill="none" stroke="#000000" stroke-width="2.24" d="M16.31,7.908"/>
<path id="svg_8" fill="none" stroke="#FC8F2A" stroke-width="2.24" d="M8.124,17.424c-0.251-0.737-0.388-1.528-0.388-2.351
	c0-4.02,3.259-7.28,7.28-7.28c0.208,0,0.414,0.009,0.618,0.026"/>
<path id="svg_9" fill="none" stroke="#62A640" stroke-width="2.24" d="M13.625,17.565c-0.412-0.23-0.76-0.559-1.015-0.953"/>
<path id="svg_10" fill="none" stroke="#000000" stroke-width="2.24" d="M13.625,17.565"/>
<path id="svg_11" fill="none" stroke="#518DB9" stroke-width="2.24" d="M17.937,14.876c0.003,0.092,0.003,0.186-0.003,0.281
	c-0.083,1.573-1.426,2.783-2.999,2.699c-0.096-0.006-0.19-0.015-0.282-0.029"/>
<path id="svg_12" fill="none" stroke="#9368BE" stroke-width="2.24" d="M16.152,12.454c0.57,0.248,1.043,0.677,1.348,1.213"/>
<path id="svg_13" fill="none" stroke="#000000" stroke-width="2.24" d="M16.152,12.454"/>
<path id="svg_14" fill="none" stroke="#FC8F2A" stroke-width="2.24" d="M12.255,15.802c-0.062-0.232-0.095-0.478-0.095-0.729
	c0-1.576,1.279-2.854,2.855-2.854"/>
<path id="svg_15" fill="none" stroke="#62A640" stroke-width="2.24" d="M10.249,25.224c-1.781-0.838-3.305-2.131-4.424-3.729"/>
<path id="svg_16" fill="none" stroke="#9368BE" stroke-width="2.24" d="M19.691,4.88c2.242,1.031,4.086,2.781,5.237,4.954"/>
<path id="svg_18" fill="none" stroke="#FC8F2A" stroke-width="2.24" d="M12.255,15.802c-0.062-0.232-0.095-0.478-0.095-0.729
	c0-1.576,1.279-2.854,2.855-2.854"/>
</svg>
