<?xml version="1.0" encoding="utf-8"?>
<!-- Generator: Adobe Illustrator 15.1.0, SVG Export Plug-In . SVG Version: 6.00 Build 0)  -->
<!DOCTYPE svg PUBLIC "-//W3C//DTD SVG 1.1//EN" "http://www.w3.org/Graphics/SVG/1.1/DTD/svg11.dtd">
<svg version="1.1" id="Layer_1" xmlns="http://www.w3.org/2000/svg" xmlns:xlink="http://www.w3.org/1999/xlink" x="0px" y="0px"
	 width="24px" height="24px" viewBox="0 0 24 24" enable-background="new 0 0 24 24" xml:space="preserve">
<path fill="none" d="M0,0h24v24H0V0z"/>
<text transform="matrix(1 0 0 1 4.3345 14.168)" fill="#518DB9" font-family="'MyriadPro-Bold'" font-size="9">Abc</text>
<text transform="matrix(1 0 0 1 10.333 17.917)" fill="#FC8F2A" font-family="'MyriadPro-Bold'" font-size="4">xyz</text>
<path fill-rule="evenodd" clip-rule="evenodd" fill="#B9DBF4" d="M23.063,13.473c0,0.374,0,0.749,0,1.123
	c-0.469,1.794-1.534,2.989-3.804,2.981c-1.277,2.06-3.438,4.052-6.913,3.803c-1.938-0.139-3.253-1.019-4.408-2.031
	c-2.713,0.966-5.25-0.957-4.84-3.802c-1.053-0.905-1.895-2.023-2.16-3.716c0-0.447,0-0.894,0-1.34
	c0.504-2.594,2.03-4.164,4.623-4.667c0.745-1.788,2.807-3.45,5.445-2.722c1.256,0.346,2.047,1.206,2.766,2.16
	c3.731-1.177,7.25,1.615,7.087,5.445C21.946,11.274,22.771,12.106,23.063,13.473z M9.58,3.836C7.725,3.917,6.74,5.202,6.209,6.688
	c-2.447,0.206-4.37,1.775-4.407,4.364c-0.028,1.98,1.062,3.161,2.29,4.104c-0.936,2.589,1.959,4.481,4.062,3.112
	c1.148,1.237,2.671,2.255,4.841,2.246c2.972-0.012,4.726-1.945,5.703-3.932c1.903,0.426,3.438-0.688,3.5-2.42
	c0.056-1.542-0.999-2.437-2.333-2.809c0.715-4.069-3.115-6.574-6.611-4.97C12.651,4.941,11.467,3.755,9.58,3.836z"/>
</svg>
