<?xml version="1.0" encoding="utf-8"?>
<!-- Generator: Adobe Illustrator 15.1.0, SVG Export Plug-In . SVG Version: 6.00 Build 0)  -->
<!DOCTYPE svg PUBLIC "-//W3C//DTD SVG 1.1//EN" "http://www.w3.org/Graphics/SVG/1.1/DTD/svg11.dtd">
<svg version="1.1" id="Layer_1" xmlns="http://www.w3.org/2000/svg" xmlns:xlink="http://www.w3.org/1999/xlink" x="0px" y="0px"
	 width="24px" height="24px" viewBox="88 88 24 24" enable-background="new 88 88 24 24" xml:space="preserve">
<title>background</title>
<title>Layer 1</title>
<ellipse id="svg_6" fill="#FFFFFF" stroke="#000000" stroke-width="0.1755" cx="100.093" cy="102.611" rx="0" ry="0"/>
<line id="svg_7" fill="none" stroke="#518DB9" stroke-width="1.755" x1="91.217" y1="108.58" x2="97.175" y2="104.244"/>
<line id="svg_8" fill="none" stroke="#518DB9" stroke-width="1.755" x1="98.027" y1="103.195" x2="104.695" y2="108.461"/>
<line id="svg_9" fill="none" stroke="#518DB9" stroke-width="1.755" x1="103.914" y1="107.586" x2="108.898" y2="103.598"/>
<ellipse id="svg_1" fill="#FFFFFF" stroke="#000000" stroke-width="0.1755" cx="100.093" cy="102.611" rx="0" ry="0"/>
<ellipse id="svg_39" fill="#EB8E25" cx="103.828" cy="107.254" rx="1.988" ry="1.988"/>
<ellipse id="svg_40" fill="#FFFFFF" stroke="#000000" stroke-width="0.1755" cx="99.633" cy="94.479" rx="0" ry="0"/>
<ellipse id="svg_45" fill="#EB8E25" cx="97.92" cy="94.633" rx="1.989" ry="1.989"/>
<ellipse id="svg_46" fill="#FFFFFF" stroke="#000000" stroke-width="0.1755" cx="99.633" cy="94.479" rx="0" ry="0"/>
<ellipse id="svg_48" fill="#EB8E25" cx="108.66" cy="93.981" rx="1.989" ry="1.989"/>
<line id="svg_49" fill="none" stroke="#AEDE98" stroke-width="1.755" x1="91.223" y1="99.274" x2="97.19" y2="94.945"/>
<line id="svg_50" fill="none" stroke="#AEDE98" stroke-width="1.755" x1="98.009" y1="93.893" x2="104.678" y2="99.157"/>
<line id="svg_51" fill="none" stroke="#AEDE98" stroke-width="1.755" x1="103.859" y1="98.338" x2="108.891" y2="94.36"/>
<ellipse id="svg_52" fill="#62A640" cx="91.925" cy="98.923" rx="1.989" ry="1.989"/>
<ellipse id="svg_53" fill="#62A640" cx="97.92" cy="94.633" rx="1.989" ry="1.989"/>
<ellipse id="svg_55" fill="#62A640" cx="108.66" cy="93.981" rx="1.989" ry="1.989"/>
<ellipse id="svg_56" fill="#62A640" cx="104.096" cy="98.392" rx="1.989" ry="1.989"/>
<ellipse id="svg_57" fill="#EB8E25" cx="108.656" cy="103.253" rx="1.989" ry="1.989"/>
<ellipse id="svg_58" fill="#EB8E25" cx="91.886" cy="108.205" rx="1.988" ry="1.988"/>
<ellipse id="svg_59" fill="#EB8E25" cx="97.909" cy="103.954" rx="1.989" ry="1.989"/>
</svg>
