<?xml version="1.0" encoding="utf-8"?>
<!-- Generator: Adobe Illustrator 15.1.0, SVG Export Plug-In . SVG Version: 6.00 Build 0)  -->
<!DOCTYPE svg PUBLIC "-//W3C//DTD SVG 1.1//EN" "http://www.w3.org/Graphics/SVG/1.1/DTD/svg11.dtd">
<svg version="1.1" id="Layer_1" xmlns="http://www.w3.org/2000/svg" xmlns:xlink="http://www.w3.org/1999/xlink" x="0px" y="0px"
	 width="24px" height="24px" viewBox="88 88 24 24" enable-background="new 88 88 24 24" xml:space="preserve">
<g>
	<title>background</title>
	<rect id="canvas_background" x="87.88" y="87.88" fill="none" width="24.241" height="24.241"/>
</g>
<g>
	<title>Layer 1</title>
	<path id="svg_5" fill="none" stroke="#AAAAAA" stroke-width="0.12" d="M100.032,91.032c6.448,0,11.67,4,11.67,8.935l0,0
		c0,4.933-5.229,8.934-11.67,8.934c-6.447,0-11.671-3.996-11.671-8.934l0,0C88.36,95.034,93.588,91.032,100.032,91.032z"/>
	<path id="svg_2" fill="#518DB9" d="M105.902,96.977c2.127,0,3.847,1.269,3.847,2.84c0,1.57-1.72,2.839-3.847,2.839
		s-3.846-1.269-3.846-2.839C102.057,98.246,103.775,96.977,105.902,96.977"/>
	<path id="svg_3" fill="#FC8F2A" d="M101.977,102.508c1.912,0,3.461,1.136,3.461,2.532c0,1.397-1.549,2.532-3.461,2.532
		c-1.91,0-3.46-1.135-3.46-2.532C98.517,103.644,100.066,102.508,101.977,102.508"/>
	<path id="svg_4" fill="#B9DBF4" d="M95.53,95.769c3.208,0,5.808,1.784,5.808,3.982l0,0c0,2.2-2.603,3.983-5.808,3.983
		c-3.209,0-5.808-1.782-5.808-3.983l0,0C89.722,97.553,92.322,95.769,95.53,95.769z"/>
	<path id="svg_6" fill="#62A640" d="M101.888,93.123c1.696,0,3.07,0.839,3.07,1.872s-1.374,1.872-3.07,1.872
		c-1.694,0-3.07-0.839-3.07-1.872S100.193,93.123,101.888,93.123"/>
</g>
</svg>
