<?xml version="1.0" encoding="utf-8"?>
<!-- Generator: Adobe Illustrator 15.1.0, SVG Export Plug-In . SVG Version: 6.00 Build 0)  -->
<!DOCTYPE svg PUBLIC "-//W3C//DTD SVG 1.1//EN" "http://www.w3.org/Graphics/SVG/1.1/DTD/svg11.dtd">
<svg version="1.1" id="Layer_1" xmlns="http://www.w3.org/2000/svg" xmlns:xlink="http://www.w3.org/1999/xlink" x="0px" y="0px"
	 width="24px" height="24px" viewBox="18 8 24 24" enable-background="new 18 8 24 24" xml:space="preserve">
<path fill="#518DB9" d="M33.979,23.698c-0.189,0-0.373-0.064-0.521-0.183l-4.886-3.909l-6.9,1.971
	c-0.442,0.122-0.907-0.13-1.034-0.574c-0.128-0.444,0.13-0.906,0.573-1.033l7.315-2.09c0.257-0.077,0.539-0.021,0.751,0.151
	l4.565,3.651l3.556-4.558c0.283-0.363,0.805-0.429,1.173-0.145c0.365,0.284,0.427,0.81,0.146,1.174l-4.075,5.225
	c-0.138,0.176-0.338,0.288-0.562,0.316C34.046,23.696,34.013,23.698,33.979,23.698z"/>
<circle fill="#FC8F2A" stroke="#FC8F2A" stroke-width="0.55" cx="38.16" cy="17.637" r="2.09"/>
<circle fill="#FC8F2A" stroke="#FC8F2A" stroke-width="0.55" cx="33.979" cy="22.862" r="2.09"/>
<circle fill="#FC8F2A" stroke="#FC8F2A" stroke-width="0.55" cx="28.756" cy="18.682" r="2.09"/>
<circle fill="#FC8F2A" stroke="#FC8F2A" stroke-width="0.55" cx="21.715" cy="21.048" r="2.09"/>
</svg>
