<?xml version="1.0" encoding="utf-8"?>
<!-- Generator: Adobe Illustrator 15.1.0, SVG Export Plug-In . SVG Version: 6.00 Build 0)  -->
<!DOCTYPE svg PUBLIC "-//W3C//DTD SVG 1.1//EN" "http://www.w3.org/Graphics/SVG/1.1/DTD/svg11.dtd">
<svg version="1.1" id="Layer_1" xmlns="http://www.w3.org/2000/svg" xmlns:xlink="http://www.w3.org/1999/xlink" x="0px" y="0px"
	 width="24px" height="24px" viewBox="18 8 24 24" enable-background="new 18 8 24 24" xml:space="preserve">
<rect x="18.454" y="19.935" transform="matrix(-0.5382 -0.8428 0.8428 -0.5382 28.8202 56.7027)" fill="#C8C8C8" width="22.981" height="1.04"/>
<rect x="29.48" y="9.014" transform="matrix(-0.8393 -0.5436 0.5436 -0.8393 44.0379 54.0131)" fill="#C8C8C8" width="1.04" height="22.97"/>
<rect x="19.6" y="19.74" fill="#C8C8C8" width="20.8" height="1.04"/>
<path fill="#D64541" d="M33.44,24.939h-6.885l-2.291-4.679l2.291-4.68h6.884l2.342,4.68L33.44,24.939z M27.205,23.899h5.594
	l1.82-3.639l-1.82-3.64h-5.594l-1.782,3.64L27.205,23.899z"/>
<path id="XMLID_112_" fill="#518DB9" d="M34.12,13.5l3.589,6.717l-4.005,6.803H26.03l-3.717-6.76l3.717-6.76h8.13 M35.327,11.42
	H24.8l-4.86,8.84L24.8,29.1h10.097l5.179-8.839L35.327,11.42L35.327,11.42z"/>
</svg>
