<?xml version="1.0" encoding="utf-8"?>
<!-- Generator: Adobe Illustrator 15.1.0, SVG Export Plug-In . SVG Version: 6.00 Build 0)  -->
<!DOCTYPE svg PUBLIC "-//W3C//DTD SVG 1.1//EN" "http://www.w3.org/Graphics/SVG/1.1/DTD/svg11.dtd">
<svg version="1.1" id="Layer_1" xmlns="http://www.w3.org/2000/svg" xmlns:xlink="http://www.w3.org/1999/xlink" x="0px" y="0px"
	 width="24px" height="24px" viewBox="0 0 24 24" enable-background="new 0 0 24 24" xml:space="preserve">
<polyline fill="#468EBA" points="5.5,8.5 11.5,8.5 11.5,10.5 5.5,10.5 5.5,8.5 "/>
<polyline fill="#468EBA" points="3.5,4.5 7.5,4.5 7.5,6.5 3.5,6.5 3.5,4.5 "/>
<polyline fill="#468EBA" points="11.5,10.5 11.5,5.5 13.5,5.5 13.5,10.5 11.5,10.5 "/>
<polyline fill="#468EBA" points="11.5,3.5 17.5,3.5 17.5,5.5 11.5,5.5 11.5,3.5 "/>
<polyline fill="#468EBA" points="15.5,8.5 15.5,5.5 17.5,5.5 17.5,8.5 15.5,8.5 "/>
<polyline fill="#468EBA" points="15.5,8.625 20.5,8.625 20.5,10.5 15.5,10.5 15.5,8.625 "/>
<polyline fill="#468EBA" points="5.5,8.5 5.5,6.5 7.5,6.5 7.5,8.5 5.5,8.5 "/>
<polyline fill="#FC8F2A" points="6.5,13.5 12.5,13.5 12.5,15.5 6.5,15.5 6.5,13.5 "/>
<polyline fill="#FC8F2A" points="3.5,18.5 6.5,18.5 6.5,20.5 3.5,20.5 3.5,18.5 "/>
<polyline fill="#FC8F2A" points="10.5,20.5 10.5,15.5 12.5,15.5 12.5,20.5 10.5,20.5 "/>
<polyline fill="#FC8F2A" points="18.5,18.5 18.5,14.5 20.5,14.5 20.5,18.5 18.5,18.5 "/>
<polyline fill="#FC8F2A" points="12.5,18.625 20.5,18.625 20.5,20.5 12.5,20.5 12.5,18.625 "/>
<polyline fill="#FC8F2A" points="6.5,20.5 6.5,15.5 8.5,15.5 8.5,20.5 6.5,20.5 "/>
</svg>
