<?xml version="1.0" encoding="utf-8"?>
<!-- Generator: Adobe Illustrator 15.1.0, SVG Export Plug-In . SVG Version: 6.00 Build 0)  -->
<!DOCTYPE svg PUBLIC "-//W3C//DTD SVG 1.1//EN" "http://www.w3.org/Graphics/SVG/1.1/DTD/svg11.dtd">
<svg version="1.1" id="Layer_1" xmlns="http://www.w3.org/2000/svg" xmlns:xlink="http://www.w3.org/1999/xlink" x="0px" y="0px"
	 width="24px" height="24px" viewBox="0 0 24 24" enable-background="new 0 0 24 24" xml:space="preserve">
<path fill="#518DB9" d="M12,2C6.477,2,2,6.477,2,12s4.477,10,10,10s10-4.477,10-10S17.523,2,12,2z M12,20c-4.419,0-8-3.582-8-8
	c0-4.419,3.581-8,8-8s8,3.581,8,8C20,16.418,16.419,20,12,20z"/>
<path fill="#FC8F2A" d="M12.75,9.681c-0.66-0.27-1.42-0.15-1.98,0.28l-0.27-0.11l-3.2-1.32c-0.14-0.03-0.26-0.06-0.39-0.06
	c-0.41-0.01-0.78,0.24-0.94,0.62c-0.2,0.52,0.03,1.1,0.56,1.31l0.02,0.01l3.22,1.3l0.23,0.1c0.12,0.72,0.59,1.31,1.25,1.57
	c1.02,0.42,2.189-0.08,2.6-1.1C14.27,11.261,13.77,10.091,12.75,9.681z"/>
<circle fill="#464646" cx="14" cy="7" r="1"/>
<circle fill="#464646" cx="10" cy="7" r="1"/>
<circle fill="#464646" cx="17" cy="10" r="1"/>
<text transform="matrix(1 0 0 1 8.5 18.75)" fill="#646464" font-family="'MyriadPro-Bold'" font-size="6">10</text>
</svg>
