<?xml version="1.0" encoding="utf-8"?>
<!-- Generator: Adobe Illustrator 15.1.0, SVG Export Plug-In . SVG Version: 6.00 Build 0)  -->
<!DOCTYPE svg PUBLIC "-//W3C//DTD SVG 1.1//EN" "http://www.w3.org/Graphics/SVG/1.1/DTD/svg11.dtd">
<svg version="1.1" id="Layer_1" xmlns="http://www.w3.org/2000/svg" xmlns:xlink="http://www.w3.org/1999/xlink" x="0px" y="0px"
	 width="24px" height="24px" viewBox="0 0 24 24" enable-background="new 0 0 24 24" xml:space="preserve">
<path fill="#518DB9" d="M12.001,4.999c-3.867,0-7.001,3.135-7.001,7c0,3.867,3.134,7,7.001,7c3.865,0,6.999-3.134,6.999-7
	C19,8.134,15.866,4.999,12.001,4.999z M12.001,16.898c-2.707,0-4.901-2.192-4.901-4.9c0-2.706,2.194-4.9,4.901-4.9
	c2.705,0,4.899,2.194,4.899,4.9C16.9,14.706,14.706,16.898,12.001,16.898z"/>
<path fill="#FC8F2A" d="M12.7,4.992v2.121c2.373,0.343,4.2,2.373,4.2,4.844c0,0.63-0.126,1.225-0.351,1.778l1.834,1.07
	C18.775,13.938,19,12.972,19,11.957C19,8.331,16.235,5.342,12.7,4.992"/>
<text transform="matrix(1 0 0 1 9.5024 14.6406)" fill="#646464" font-family="'MyriadPro-Bold'" font-size="9">8</text>
<circle fill="#464646" cx="12" cy="3" r="1"/>
<circle fill="#464646" cx="5.5" cy="19" r="1"/>
<circle fill="#464646" cx="18.5" cy="19" r="1"/>
<circle fill="#464646" cx="20.5" cy="8.75" r="1"/>
<circle fill="#464646" cx="3.5" cy="8.75" r="1"/>
</svg>
