<?xml version="1.0" encoding="utf-8"?>
<!-- Generator: Adobe Illustrator 15.1.0, SVG Export Plug-In . SVG Version: 6.00 Build 0)  -->
<!DOCTYPE svg PUBLIC "-//W3C//DTD SVG 1.1//EN" "http://www.w3.org/Graphics/SVG/1.1/DTD/svg11.dtd">
<svg version="1.1" id="Layer_1" xmlns="http://www.w3.org/2000/svg" xmlns:xlink="http://www.w3.org/1999/xlink" x="0px" y="0px"
	 width="24px" height="24px" viewBox="0 0 24 24" enable-background="new 0 0 24 24" xml:space="preserve">
<path fill="#518DB9" d="M12.001,2C6.477,2,2,6.479,2,12c0,5.524,4.477,10,10.001,10C17.523,22,22,17.524,22,12
	C22,6.479,17.523,2,12.001,2z M12.001,19C8.134,19,5,15.867,5,12c0-3.865,3.134-7,7.001-7C15.866,5,19,8.135,19,12
	C19,15.867,15.866,19,12.001,19z"/>
<path fill="#FC8F2A" d="M13,1.99v3.03c3.391,0.49,6,3.39,6,6.92c0,0.899-0.18,1.749-0.5,2.54l2.62,1.529
	C21.68,14.77,22,13.391,22,11.94C22,6.76,18.05,2.49,13,1.99"/>
<text transform="matrix(1 0 0 1 9.0835 15.334)" fill="#646464" font-family="'MyriadPro-Bold'" font-size="11">8</text>
</svg>
