<?xml version="1.0" encoding="utf-8"?>
<!-- Generator: Adobe Illustrator 15.1.0, SVG Export Plug-In . SVG Version: 6.00 Build 0)  -->
<!DOCTYPE svg PUBLIC "-//W3C//DTD SVG 1.1//EN" "http://www.w3.org/Graphics/SVG/1.1/DTD/svg11.dtd">
<svg version="1.1" id="Layer_1" xmlns="http://www.w3.org/2000/svg" xmlns:xlink="http://www.w3.org/1999/xlink" x="0px" y="0px"
	 width="24px" height="24px" viewBox="0 0 24 24" enable-background="new 0 0 24 24" xml:space="preserve">
<g>
	<rect x="2.333" y="16" fill="#518DB9" width="19.333" height="2"/>
	<path fill="#518DB9" d="M4,16c0-4.419,3.581-8,8-8s8,3.581,8,8c0,0.691-0.097,1.359-0.262,2h2.061C21.931,17.354,22,16.686,22,16
		c0-5.523-4.477-10-10-10S2,10.477,2,16c0,0.686,0.069,1.354,0.201,2h2.062C4.097,17.359,4,16.691,4,16z"/>
	<path fill="#FC8F2A" d="M12.75,13.681c-0.66-0.271-1.42-0.149-1.98,0.28l-0.27-0.11l-3.2-1.319c-0.14-0.031-0.26-0.061-0.39-0.061
		c-0.41-0.01-0.78,0.24-0.94,0.62C5.77,13.611,6,14.191,6.53,14.4l0.02,0.01l3.22,1.301l0.23,0.1c0.12,0.721,0.59,1.311,1.25,1.57
		c1.02,0.42,2.189-0.08,2.6-1.1C14.27,15.261,13.77,14.091,12.75,13.681z"/>
	<circle fill="#464646" cx="14" cy="11" r="1"/>
	<circle fill="#464646" cx="10" cy="11" r="1"/>
	<circle fill="#464646" cx="17" cy="14" r="1"/>
</g>
</svg>
