<?xml version="1.0" encoding="UTF-8" standalone="no"?>
<svg
   xmlns:dc="http://purl.org/dc/elements/1.1/"
   xmlns:cc="http://creativecommons.org/ns#"
   xmlns:rdf="http://www.w3.org/1999/02/22-rdf-syntax-ns#"
   xmlns:svg="http://www.w3.org/2000/svg"
   xmlns="http://www.w3.org/2000/svg"
   xmlns:sodipodi="http://sodipodi.sourceforge.net/DTD/sodipodi-0.dtd"
   xmlns:inkscape="http://www.inkscape.org/namespaces/inkscape"
   width="64"
   height="64"
   class="icon"
   version="1.1"
   id="svg175"
   sodipodi:docname="plus.svg"
   inkscape:version="0.92.4 (5da689c313, 2019-01-14)">
  <metadata
     id="metadata179">
    <rdf:RDF>
      <cc:Work
         rdf:about="">
        <dc:format>image/svg+xml</dc:format>
        <dc:type
           rdf:resource="http://purl.org/dc/dcmitype/StillImage" />
      </cc:Work>
    </rdf:RDF>
  </metadata>
  <sodipodi:namedview
     pagecolor="#ffffff"
     bordercolor="#666666"
     borderopacity="1"
     objecttolerance="10"
     gridtolerance="10"
     guidetolerance="10"
     inkscape:pageopacity="0"
     inkscape:pageshadow="2"
     inkscape:window-width="1920"
     inkscape:window-height="1057"
     id="namedview177"
     showgrid="false"
     inkscape:zoom="13.875"
     inkscape:cx="30.27027"
     inkscape:cy="32"
     inkscape:window-x="-8"
     inkscape:window-y="-8"
     inkscape:window-maximized="1"
     inkscape:current-layer="svg175" />
  <defs
     id="defs145">
    <style
       type="text/css"
       id="style143" />
    <defs
       id="defs156">
      <style
         id="style154"
         type="text/css" />
    </defs>
    <defs
       id="defs160">
      <style
         id="style158"
         type="text/css" />
    </defs>
    <defs
       id="defs164">
      <style
         id="style162"
         type="text/css" />
    </defs>
    <defs
       id="defs168">
      <style
         id="style166"
         type="text/css" />
    </defs>
  </defs>
  <g
     id="g150">
    <title
       id="title147">background</title>
    <rect
       x="-1"
       y="-1"
       width="66"
       height="66"
       id="canvas_background"
       fill="none" />
  </g>
  <ellipse
     style="fill:#ed711c;stroke:#f7f7f7;fill-opacity:1"
     stroke-width="null"
     stroke-opacity="null"
     cx="32.072071"
     cy="32.432434"
     id="svg_2"
     rx="31.813122"
     ry="31.868744" />
  <path
     style="fill:#ed711c;stroke-width:0.07207207;fill-opacity:0"
     d="M 29.974775,63.27502 C 25.557475,62.918438 21.72542,61.882809 18.082883,60.061187 9.2280216,55.632894 3.0065382,47.341013 1.2246183,37.592793 0.84844009,35.534862 0.78542806,34.718831 0.78774696,31.935135 0.79012211,29.083912 0.8652252,28.241085 1.3262336,25.892094 3.177995,16.456755 9.37808,8.3061859 17.974775,4.0060915 21.351913,2.3168362 24.562312,1.3529896 28.461261,0.85777132 29.725539,0.69719129 33.981756,0.67391368 35.236036,0.82071951 43.859583,1.8300533 51.273522,5.9227467 56.5449,12.583784 c 5.193813,6.563024 7.572564,15.179072 6.470709,23.437487 -1.089784,8.167951 -5.178629,15.420607 -11.560015,20.504769 -4.907152,3.909613 -10.821026,6.228312 -17.148943,6.723721 -0.843984,0.06607 -3.625339,0.08229 -4.331876,0.02526 z m 2.991074,-20.042588 c 4.6e-5,-1.853153 0.02155,-4.901801 0.0478,-6.774774 l 0.04771,-3.405406 h 6.763013 6.763013 v -0.999954 -0.999954 l -6.784761,-0.05384 -6.784763,-0.05384 0.0534,-6.766023 0.0534,-6.766023 H 32.072245 31.01982 v 5.357779 c 0,2.946779 -0.02151,6.000011 -0.0478,6.78496 l -0.0478,1.42718 -6.763012,-0.03549 -6.763014,-0.0355 v 1.034319 1.034319 l 5.531532,2.16e-4 c 3.042342,1.45e-4 6.096099,0.02164 6.786126,0.04781 l 1.254594,0.04759 -0.04202,6.763003 -0.04202,6.763001 h 1.039676 1.039676 l 7.2e-5,-3.369369 z"
     id="path181"
     inkscape:connector-curvature="0" />
  <path
     style="fill:#ed711c;fill-opacity:0;stroke-width:0.07207207"
     d="M 29.585586,63.248285 C 24.554615,62.80586 19.936621,61.315893 15.809474,58.803509 8.1883121,54.164158 2.9101444,46.545227 1.2651119,37.809009 0.58989133,34.223139 0.55261876,30.339369 1.1593017,26.783676 2.2412951,20.442249 5.1560917,14.709514 9.6207697,10.141915 12.114639,7.5905556 14.547712,5.7775348 17.621622,4.1800266 20.895204,2.4787484 24.28072,1.424835 28.18018,0.89314017 29.232363,0.74967415 29.672445,0.73099316 32,0.73099316 c 2.316515,0 2.770146,0.0190701 3.799032,0.15970686 5.02156,0.68638878 9.335019,2.27145728 13.3493,4.90547148 3.831956,2.5143813 7.23523,6.0507695 9.616944,9.9931015 1.121719,1.856726 2.368965,4.585803 2.998186,6.560277 1.835012,5.75821 1.998672,11.862888 0.473383,17.657657 -0.546248,2.075265 -1.189644,3.782138 -2.200537,5.837838 -1.526286,3.103772 -3.224696,5.518605 -5.621798,7.993179 -5.037827,5.200643 -11.669004,8.457623 -18.955051,9.309993 -1.139298,0.133282 -4.789125,0.195462 -5.873873,0.100068 z m 3.375598,-19.187024 c 0.02618,-1.397297 0.04765,-4.445946 0.04771,-6.774775 l 1.11e-4,-4.234234 h 6.810811 6.810811 v -1.009009 -1.009009 l -1.783784,-5.7e-5 c -0.981081,-3.1e-5 -4.037838,-0.0215 -6.792793,-0.0477 l -5.009009,-0.04765 0.02551,-6.763109 0.02551,-6.763108 h -1.004826 -1.004826 l -0.04771,2.498262 c -0.02624,1.374045 -0.04771,4.427188 -0.04771,6.784765 v 4.286502 l -6.792793,-0.02801 -6.792793,-0.02801 -0.02,1.027027 -0.02,1.027027 h 5.503939 c 3.027166,0 6.084813,0.02104 6.794771,0.04675 l 1.290833,0.04675 -0.02528,6.764061 -0.02528,6.76406 h 1.004589 1.004589 z"
     id="path4691"
     inkscape:connector-curvature="0" />
  <path
     style="fill:#ed711c;fill-opacity:0;stroke-width:0.07207207"
     d="M 29.585586,63.248285 C 24.554615,62.80586 19.936621,61.315893 15.809474,58.803509 8.1883121,54.164158 2.9101444,46.545227 1.2651119,37.809009 0.58989133,34.223139 0.55261876,30.339369 1.1593017,26.783676 2.2412951,20.442249 5.1560917,14.709514 9.6207697,10.141915 12.114639,7.5905556 14.547712,5.7775348 17.621622,4.1800266 20.895204,2.4787484 24.28072,1.424835 28.18018,0.89314017 29.232363,0.74967415 29.672445,0.73099316 32,0.73099316 c 2.316515,0 2.770146,0.0190701 3.799032,0.15970686 5.02156,0.68638878 9.335019,2.27145728 13.3493,4.90547148 3.831956,2.5143813 7.23523,6.0507695 9.616944,9.9931015 1.121719,1.856726 2.368965,4.585803 2.998186,6.560277 1.835012,5.75821 1.998672,11.862888 0.473383,17.657657 -0.546248,2.075265 -1.189644,3.782138 -2.200537,5.837838 -1.526286,3.103772 -3.224696,5.518605 -5.621798,7.993179 -5.037827,5.200643 -11.669004,8.457623 -18.955051,9.309993 -1.139298,0.133282 -4.789125,0.195462 -5.873873,0.100068 z m 3.375598,-19.187024 c 0.02618,-1.397297 0.04765,-4.445946 0.04771,-6.774775 l 1.11e-4,-4.234234 h 6.810811 6.810811 v -1.009009 -1.009009 l -1.783784,-5.7e-5 c -0.981081,-3.1e-5 -4.037838,-0.0215 -6.792793,-0.0477 l -5.009009,-0.04765 0.02551,-6.763109 0.02551,-6.763108 h -1.004826 -1.004826 l -0.04771,2.498262 c -0.02624,1.374045 -0.04771,4.427188 -0.04771,6.784765 v 4.286502 l -6.792793,-0.02801 -6.792793,-0.02801 -0.02,1.027027 -0.02,1.027027 h 5.503939 c 3.027166,0 6.084813,0.02104 6.794771,0.04675 l 1.290833,0.04675 -0.02528,6.764061 -0.02528,6.76406 h 1.004589 1.004589 z"
     id="path4693"
     inkscape:connector-curvature="0" />
  <path
     style="fill:#ed711c;fill-opacity:0;stroke-width:0.07207207"
     d="M 29.585586,63.248285 C 24.554615,62.80586 19.936621,61.315893 15.809474,58.803509 8.1883121,54.164158 2.9101444,46.545227 1.2651119,37.809009 0.58989133,34.223139 0.55261876,30.339369 1.1593017,26.783676 2.2412951,20.442249 5.1560917,14.709514 9.6207697,10.141915 12.114639,7.5905556 14.547712,5.7775348 17.621622,4.1800266 20.895204,2.4787484 24.28072,1.424835 28.18018,0.89314017 29.232363,0.74967415 29.672445,0.73099316 32,0.73099316 c 2.316515,0 2.770146,0.0190701 3.799032,0.15970686 5.02156,0.68638878 9.335019,2.27145728 13.3493,4.90547148 3.831956,2.5143813 7.23523,6.0507695 9.616944,9.9931015 1.121719,1.856726 2.368965,4.585803 2.998186,6.560277 1.835012,5.75821 1.998672,11.862888 0.473383,17.657657 -0.546248,2.075265 -1.189644,3.782138 -2.200537,5.837838 -1.526286,3.103772 -3.224696,5.518605 -5.621798,7.993179 -5.037827,5.200643 -11.669004,8.457623 -18.955051,9.309993 -1.139298,0.133282 -4.789125,0.195462 -5.873873,0.100068 z m 3.375598,-19.187024 c 0.02618,-1.397297 0.04765,-4.445946 0.04771,-6.774775 l 1.11e-4,-4.234234 h 6.810811 6.810811 v -1.009009 -1.009009 l -1.783784,-5.7e-5 c -0.981081,-3.1e-5 -4.037838,-0.0215 -6.792793,-0.0477 l -5.009009,-0.04765 0.02551,-6.763109 0.02551,-6.763108 h -1.004826 -1.004826 l -0.04771,2.498262 c -0.02624,1.374045 -0.04771,4.427188 -0.04771,6.784765 v 4.286502 l -6.792793,-0.02801 -6.792793,-0.02801 -0.02,1.027027 -0.02,1.027027 h 5.503939 c 3.027166,0 6.084813,0.02104 6.794771,0.04675 l 1.290833,0.04675 -0.02528,6.764061 -0.02528,6.76406 h 1.004589 1.004589 z"
     id="path4695"
     inkscape:connector-curvature="0" />
  <path
     style="fill:#ed711c;fill-opacity:1;stroke-width:0.07207207"
     d="M 29.585586,63.248285 C 24.554615,62.80586 19.936621,61.315893 15.809474,58.803509 8.1883121,54.164158 2.9101444,46.545227 1.2651119,37.809009 0.58989133,34.223139 0.55261876,30.339369 1.1593017,26.783676 2.2412951,20.442249 5.1560917,14.709514 9.6207697,10.141915 12.114639,7.5905556 14.547712,5.7775348 17.621622,4.1800266 20.895204,2.4787484 24.28072,1.424835 28.18018,0.89314017 29.232363,0.74967415 29.672445,0.73099316 32,0.73099316 c 2.316515,0 2.770146,0.0190701 3.799032,0.15970686 5.02156,0.68638878 9.335019,2.27145728 13.3493,4.90547148 3.831956,2.5143813 7.23523,6.0507695 9.616944,9.9931015 1.121719,1.856726 2.368965,4.585803 2.998186,6.560277 1.835012,5.75821 1.998672,11.862888 0.473383,17.657657 -0.546248,2.075265 -1.189644,3.782138 -2.200537,5.837838 -1.526286,3.103772 -3.224696,5.518605 -5.621798,7.993179 -5.037827,5.200643 -11.669004,8.457623 -18.955051,9.309993 -1.139298,0.133282 -4.789125,0.195462 -5.873873,0.100068 z m 3.375598,-19.187024 c 0.02618,-1.397297 0.04765,-4.445946 0.04771,-6.774775 l 1.11e-4,-4.234234 h 6.810811 6.810811 v -1.009009 -1.009009 l -1.783784,-5.7e-5 c -0.981081,-3.1e-5 -4.037838,-0.0215 -6.792793,-0.0477 l -5.009009,-0.04765 0.02551,-6.763109 0.02551,-6.763108 h -1.004826 -1.004826 l -0.04771,2.498262 c -0.02624,1.374045 -0.04771,4.427188 -0.04771,6.784765 v 4.286502 l -6.792793,-0.02801 -6.792793,-0.02801 -0.02,1.027027 -0.02,1.027027 h 5.503939 c 3.027166,0 6.084813,0.02104 6.794771,0.04675 l 1.290833,0.04675 -0.02528,6.764061 -0.02528,6.76406 h 1.004589 1.004589 z"
     id="path4697"
     inkscape:connector-curvature="0" />
  <rect
     style="opacity:1;fill:#ffffff;fill-opacity:1;stroke:none;stroke-width:0.99876899;stroke-opacity:1"
     id="rect4561"
     width="42"
     height="10"
     x="11"
     y="27" />
  <rect
     style="opacity:1;fill:#ffffff;fill-opacity:1;stroke:none;stroke-width:0.99876899;stroke-opacity:1"
     id="rect4561-8"
     width="42"
     height="10"
     x="11"
     y="-37"
     transform="rotate(90)" />
</svg>
