<?xml version="1.0" encoding="utf-8"?>
<!--
  - This file is part of StyleBI.
  - Copyright (C) 2024  InetSoft Technology
  -
  - This program is free software: you can redistribute it and/or modify
  - it under the terms of the GNU Affero General Public License as published by
  - the Free Software Foundation, either version 3 of the License, or
  - (at your option) any later version.
  -
  - This program is distributed in the hope that it will be useful,
  - but WITHOUT ANY WARRANTY; without even the implied warranty of
  - MERCHANTABILITY or FITNESS FOR A PARTICULAR PURPOSE.  See the
  - GNU Affero General Public License for more details.
  -
  - You should have received a copy of the GNU Affero General Public License
  - along with this program.  If not, see <https://www.gnu.org/licenses/>.
  -->

<!-- Generator: Adobe Illustrator 13.0.1, SVG Export Plug-In . SVG Version: 6.00 Build 14948)  -->
<!DOCTYPE svg PUBLIC "-//W3C//DTD SVG 1.0//EN" "http://www.w3.org/TR/2001/REC-SVG-20010904/DTD/svg10.dtd">
<svg version="1.0" id="图层_1" xmlns="http://www.w3.org/2000/svg" xmlns:xlink="http://www.w3.org/1999/xlink" x="0px" y="0px"
	 width="99.652px" height="165px" viewBox="0 0 99.652 165" enable-background="new 0 0 99.652 165" xml:space="preserve">
<g id="Layer_1">
</g>
<g id="_x3F__x3F__x3F__x5F_1_x5F__x3F__x3F__x3F__x3F__x5F_2">
</g>
<g id="Layer_5">
</g>
<g id="_x3F__x3F__x3F__x5F_1_x5F__x3F__x3F__x3F__x3F__x5F_3">
	<path fill="#020202" d="M98.295,142.195c0.295,0.33,1.104,0.881,1.302,1.222c0.365,0.633-1.742,3.542-1.742,4.202
		c0,7.076-21.688,12.813-48.445,12.813c-26.76,0-48.449-5.734-48.449-12.813c0-0.813-1.082-3.82-0.534-4.592
		c0.266-0.371,0.876-0.68,1.257-1.039"/>
	
		<linearGradient id="SVGID_1_" gradientUnits="userSpaceOnUse" x1="-203.9529" y1="368.3623" x2="-300.5525" y2="368.3623" gradientTransform="matrix(1 0 0 1 302.207 -222.4346)">
		<stop  offset="0.0056" style="stop-color:#C4C4C4"/>
		<stop  offset="0.0213" style="stop-color:#B5B5B5"/>
		<stop  offset="0.0488" style="stop-color:#A2A2A2"/>
		<stop  offset="0.0805" style="stop-color:#949494"/>
		<stop  offset="0.1199" style="stop-color:#8C8C8C"/>
		<stop  offset="0.191" style="stop-color:#8A8A8A"/>
		<stop  offset="0.3315" style="stop-color:#D6D6D6"/>
		<stop  offset="0.4205" style="stop-color:#D2D2D2"/>
		<stop  offset="0.5193" style="stop-color:#C4C4C4"/>
		<stop  offset="0.6227" style="stop-color:#AEAEAE"/>
		<stop  offset="0.7288" style="stop-color:#8F8F8F"/>
		<stop  offset="0.7303" style="stop-color:#8F8F8F"/>
		<stop  offset="0.753" style="stop-color:#989898"/>
		<stop  offset="0.843" style="stop-color:#B7B7B7"/>
		<stop  offset="0.9191" style="stop-color:#CACACA"/>
		<stop  offset="0.9719" style="stop-color:#D1D1D1"/>
	</linearGradient>
	<path fill="url(#SVGID_1_)" d="M49.422,148.919c-23.56,0-41.979-5.085-47.768-12.332l0,0l0.167,5.363
		c5.362,7.709,22.391,13.532,47.601,13.532c25.004,0,44.328-5.773,48.603-13.7l0.229-5.408H98.14
		C92.331,143.609,72.959,148.919,49.422,148.919z"/>
	
		<linearGradient id="SVGID_2_" gradientUnits="userSpaceOnUse" x1="-204.0095" y1="365.9902" x2="-300.4949" y2="365.9901" gradientTransform="matrix(1 0 0 1 302.207 -222.4346)">
		<stop  offset="0.0056" style="stop-color:#C4C4C4"/>
		<stop  offset="0.0589" style="stop-color:#D8D8D8"/>
		<stop  offset="0.1207" style="stop-color:#E5E5E5"/>
		<stop  offset="0.1979" style="stop-color:#EDEDED"/>
		<stop  offset="0.3371" style="stop-color:#F0F0F0"/>
		<stop  offset="0.3785" style="stop-color:#EBEBEB"/>
		<stop  offset="0.4245" style="stop-color:#DEDEDE"/>
		<stop  offset="0.4725" style="stop-color:#C8C8C8"/>
		<stop  offset="0.4831" style="stop-color:#C2C2C2"/>
		<stop  offset="0.7528" style="stop-color:#C4C4C4"/>
		<stop  offset="0.8225" style="stop-color:#B0B0B0"/>
		<stop  offset="0.9107" style="stop-color:#9D9D9D"/>
		<stop  offset="0.9719" style="stop-color:#969696"/>
	</linearGradient>
	<path fill="url(#SVGID_2_)" d="M49.479,148.919c-23.559,0-41.979-5.755-47.767-13.002l0,0v0.67
		c4.034,8.021,22.557,14.608,47.767,14.608c25.004,0,44.444-6.896,48.719-14.821l-0.617,0.045l0.617-0.045
		C92.388,143.609,73.015,148.919,49.479,148.919z"/>
	
		<linearGradient id="SVGID_3_" gradientUnits="userSpaceOnUse" x1="-206.0017" y1="365.4697" x2="-298.5017" y2="365.4697" gradientTransform="matrix(1 0 0 1 302.207 -222.4346)">
		<stop  offset="0.0056" style="stop-color:#363637"/>
		<stop  offset="0.0214" style="stop-color:#3D3D3F"/>
		<stop  offset="0.1136" style="stop-color:#6A6A6B"/>
		<stop  offset="0.1997" style="stop-color:#88898A"/>
		<stop  offset="0.2768" style="stop-color:#B3B4B5"/>
		<stop  offset="0.3371" style="stop-color:#DADADA"/>
		<stop  offset="0.7247" style="stop-color:#535354"/>
		<stop  offset="0.9719" style="stop-color:#252426"/>
	</linearGradient>
	<path fill="url(#SVGID_3_)" d="M3.705,136.863h0.172c1.952,6.912,21.801,12.345,46.015,12.345c24.215,0,44.063-5.433,46.017-12.345
		h0.297"/>
	
		<linearGradient id="SVGID_4_" gradientUnits="userSpaceOnUse" x1="-202.5544" y1="375.1572" x2="-302.2068" y2="375.1572" gradientTransform="matrix(1 0 0 1 302.207 -222.4346)">
		<stop  offset="0.0056" style="stop-color:#919191"/>
		<stop  offset="0.0701" style="stop-color:#A3A3A3"/>
		<stop  offset="0.1677" style="stop-color:#B6B6B6"/>
		<stop  offset="0.2806" style="stop-color:#C4C4C4"/>
		<stop  offset="0.4211" style="stop-color:#CCCCCC"/>
		<stop  offset="0.6742" style="stop-color:#CFCFCF"/>
		<stop  offset="0.8278" style="stop-color:#CACACA"/>
		<stop  offset="0.9719" style="stop-color:#BFBFBF"/>
	</linearGradient>
	<path fill="url(#SVGID_4_)" d="M50.168,156.909C24.107,156.781,6.578,151.092,0,142.712l0,0l1.313,7.196
		c4.006,8.173,23.827,12.826,48.854,12.826c42.073,0,50.558-17.123,49.383-14.887l0.087-4.463l0,0
		C93.87,150.762,76.694,156.909,50.168,156.909z"/>
	
		<linearGradient id="SVGID_5_" gradientUnits="userSpaceOnUse" x1="-300.7" y1="304.3516" x2="-203.8064" y2="304.3516" gradientTransform="matrix(1 0 0 1 302.207 -222.4346)">
		<stop  offset="0.0056" style="stop-color:#A8A8A8"/>
		<stop  offset="0.0833" style="stop-color:#B0B0B0"/>
		<stop  offset="0.2013" style="stop-color:#C5C5C5"/>
		<stop  offset="0.3315" style="stop-color:#E3E3E3"/>
		<stop  offset="0.7135" style="stop-color:#A4A4A4"/>
		<stop  offset="0.9719" style="stop-color:#747474"/>
	</linearGradient>
	<path opacity="0.45" fill="url(#SVGID_5_)" enable-background="new    " d="M98.401,7.924H1.507v131.813h0.106
		c-0.063,0.322-0.106,0.646-0.106,0.972c0,8.396,21.689,15.203,48.447,15.203c26.757,0,48.446-6.81,48.446-15.203
		c0-0.325-0.045-0.647-0.106-0.972h0.106V7.924z"/>
	
		<linearGradient id="SVGID_6_" gradientUnits="userSpaceOnUse" x1="-252.2527" y1="228.7305" x2="-252.2527" y2="228.7305" gradientTransform="matrix(1 0 0 1 302.207 -222.4346)">
		<stop  offset="0.0056" style="stop-color:#C4C4C4"/>
		<stop  offset="0.0556" style="stop-color:#CCCCCC"/>
		<stop  offset="0.1314" style="stop-color:#E1E1E1"/>
		<stop  offset="0.1742" style="stop-color:#F0F0F0"/>
		<stop  offset="0.5843" style="stop-color:#FFFFFF"/>
		<stop  offset="0.6402" style="stop-color:#FAFAFA"/>
		<stop  offset="0.7022" style="stop-color:#EDEDED"/>
		<stop  offset="0.7672" style="stop-color:#D7D7D7"/>
		<stop  offset="0.8342" style="stop-color:#B8B8B8"/>
		<stop  offset="0.9021" style="stop-color:#909090"/>
		<stop  offset="0.9045" style="stop-color:#8F8F8F"/>
		<stop  offset="0.9135" style="stop-color:#989898"/>
		<stop  offset="0.949" style="stop-color:#B7B7B7"/>
		<stop  offset="0.9791" style="stop-color:#CACACA"/>
		<stop  offset="1" style="stop-color:#D1D1D1"/>
	</linearGradient>
	<path fill="url(#SVGID_6_)" d="M49.954,6.296"/>
	
		<linearGradient id="SVGID_7_" gradientUnits="userSpaceOnUse" x1="-300.7" y1="230.8525" x2="-203.8044" y2="230.8525" gradientTransform="matrix(1 0 0 1 302.207 -222.4346)">
		<stop  offset="0.0056" style="stop-color:#C7C7C7"/>
		<stop  offset="0.0786" style="stop-color:#CFCFCF"/>
		<stop  offset="0.189" style="stop-color:#E3E3E3"/>
		<stop  offset="0.2809" style="stop-color:#FAFAFA"/>
		<stop  offset="0.7135" style="stop-color:#D1D1D1"/>
		<stop  offset="0.9719" style="stop-color:#CFCFCF"/>
	</linearGradient>
	<ellipse fill="url(#SVGID_7_)" cx="49.955" cy="8.418" rx="48.447" ry="8.419"/>
	
		<linearGradient id="SVGID_8_" gradientUnits="userSpaceOnUse" x1="-298.7302" y1="230.0566" x2="-205.7761" y2="230.0566" gradientTransform="matrix(1 0 0 1 302.207 -222.4346)">
		<stop  offset="0.0056" style="stop-color:#A8A8A8"/>
		<stop  offset="0.0833" style="stop-color:#B0B0B0"/>
		<stop  offset="0.2013" style="stop-color:#C5C5C5"/>
		<stop  offset="0.3315" style="stop-color:#E3E3E3"/>
		<stop  offset="0.7135" style="stop-color:#A4A4A4"/>
		<stop  offset="0.9719" style="stop-color:#747474"/>
	</linearGradient>
	<ellipse fill="url(#SVGID_8_)" cx="49.954" cy="7.622" rx="46.477" ry="7.279"/>
	
		<linearGradient id="SVGID_9_" gradientUnits="userSpaceOnUse" x1="-202.5906" y1="376.4463" x2="-301.9158" y2="376.4463" gradientTransform="matrix(1 0 0 1 302.207 -222.4346)">
		<stop  offset="0.0056" style="stop-color:#A8A8A8"/>
		<stop  offset="0.03" style="stop-color:#A1A1A1"/>
		<stop  offset="0.067" style="stop-color:#8C8C8C"/>
		<stop  offset="0.0843" style="stop-color:#808080"/>
		<stop  offset="0.1397" style="stop-color:#9D9D9D"/>
		<stop  offset="0.2198" style="stop-color:#C1C1C1"/>
		<stop  offset="0.295" style="stop-color:#DBDBDB"/>
		<stop  offset="0.3625" style="stop-color:#EAEAEA"/>
		<stop  offset="0.4157" style="stop-color:#F0F0F0"/>
		<stop  offset="0.7247" style="stop-color:#737373"/>
		<stop  offset="0.8427" style="stop-color:#737373"/>
		<stop  offset="0.9326" style="stop-color:#D2D2D2"/>
		<stop  offset="1" style="stop-color:#747474"/>
	</linearGradient>
	<path fill="url(#SVGID_9_)" d="M50.085,158.02c45.44,0.117,49.531-14.845,49.531-14.845l-0.031,8.448
		C96.374,157.176,75.191,165,50.604,165c-24.787,0-46.345-7.583-50.313-13.182l0.027-8.795
		C0.321,143.023,6.163,158.137,50.085,158.02z"/>
	
		<linearGradient id="SVGID_10_" gradientUnits="userSpaceOnUse" x1="-203.8162" y1="243.3232" x2="-300.6882" y2="243.3233" gradientTransform="matrix(1 0 0 1 302.207 -222.4346)">
		<stop  offset="0.0843" style="stop-color:#808080"/>
		<stop  offset="0.1397" style="stop-color:#9D9D9D"/>
		<stop  offset="0.2198" style="stop-color:#C1C1C1"/>
		<stop  offset="0.295" style="stop-color:#DBDBDB"/>
		<stop  offset="0.3625" style="stop-color:#EAEAEA"/>
		<stop  offset="0.4157" style="stop-color:#F0F0F0"/>
		<stop  offset="0.5899" style="stop-color:#737373"/>
		<stop  offset="0.7978" style="stop-color:#737373"/>
		<stop  offset="0.9326" style="stop-color:#BDBDBD"/>
		<stop  offset="1" style="stop-color:#747474"/>
	</linearGradient>
	<path fill="url(#SVGID_10_)" d="M1.519,15.844v2.206c5.977,4.354,25.535,8.087,48.438,8.087c22.761,0,42.319-3.94,48.434-8.29
		v-2.206c-6.112,4.35-25.673,8.29-48.434,8.29C27.054,23.931,7.493,20.197,1.519,15.844z"/>
</g>
<g id="Layer_2">
</g>
<g id="_x3F__x3F__x3F__x5F_1">
</g>
</svg>
