<?xml version="1.0" encoding="utf-8"?>
<!--
  - This file is part of StyleBI.
  -
  - Copyright (c) 2024, InetSoft Technology Corp, All Rights Reserved.
  -
  - The software and information contained herein are copyrighted and
  - proprietary to InetSoft Technology Corp. This software is furnished
  - pursuant to a written license agreement and may be used, copied,
  - transmitted, and stored only in accordance with the terms of such
  - license and with the inclusion of the above copyright notice. Please
  - refer to the file "COPYRIGHT" for further copyright and licensing
  - information. This software and information or any other copies
  - thereof may not be provided or otherwise made available to any other
  - person.
  -->

<!-- Generator: Adobe Illustrator 15.1.0, SVG Export Plug-In . SVG Version: 6.00 Build 0)  -->
<!DOCTYPE svg PUBLIC "-//W3C//DTD SVG 1.1//EN" "http://www.w3.org/Graphics/SVG/1.1/DTD/svg11.dtd">
<svg version="1.1" id="Layer_1" xmlns="http://www.w3.org/2000/svg" xmlns:xlink="http://www.w3.org/1999/xlink" x="0px" y="0px"
	 width="54px" height="30px" viewBox="118.005 35 54 30" enable-background="new 118.005 35 54 30" xml:space="preserve">
<g transform="matrix(1.3333 0 0 -1.3333 0 100.08)">
	<g transform="matrix(.29378 0 0 .29378 0 .042373)">
		<g transform="translate(740.38 200.84)">
			<path fill="#E79224" d="M-307.996-60.865v-29.503l-4.076-3.974v28.848L-307.996-60.865"/>
		</g>
		
			<linearGradient id="SVGID_1_" gradientUnits="userSpaceOnUse" x1="-395.4773" y1="-887.4821" x2="-395.3093" y2="-887.4821" gradientTransform="matrix(-2.741878e-006 -64.3558 -64.3558 2.741878e-006 -56699.6602 -25316.3984)">
			<stop  offset="0" style="stop-color:#FFE500"/>
			<stop  offset="1" style="stop-color:#FCB822"/>
		</linearGradient>
		<path fill="url(#SVGID_1_)" d="M428.375,135.346h-26.978v-28.886h26.978V135.346z"/>
		<g transform="translate(581.1 200.72)">
			<path fill="#FEF26F" d="M-175.478-60.766l-4.226-4.607h26.978l4.004,4.627L-175.478-60.766"/>
		</g>
		<g transform="translate(382.23 193.19)">
			<path fill="#91C9ED" d="M-10.019-54.502l26.535,3.689l-2.219-6.361l-25.139-3.988l0.107,4.549L-10.019-54.502"/>
		</g>
		
			<linearGradient id="SVGID_2_" gradientUnits="userSpaceOnUse" x1="-398.8842" y1="-878.9555" x2="-398.7162" y2="-878.9555" gradientTransform="matrix(63.0945 -50.6699 -50.6699 -63.0945 -18997.2832 -75536.4922)">
			<stop  offset="0" style="stop-color:#168CCC"/>
			<stop  offset="1" style="stop-color:#00649E"/>
		</linearGradient>
		<path fill="url(#SVGID_2_)" d="M396.527,136.017l3.675-25.879l-26.163-3.677l-3.534,25.019l1.53,1.194l24.495,3.342"/>
		<g transform="translate(540.18 215.15)">
			<path fill="#0B9AD6" d="M-141.432-72.773l0.022-0.155l3.441-26.5l-2.009-5.585l-3.672,25.879"/>
		</g>
		<g>
			<defs>
				<polyline id="SVGID_3_" points="349.8,140.896 373.291,130.296 362.694,106.236 339.202,116.835 349.8,140.896 				"/>
			</defs>
			<clipPath id="SVGID_4_">
				<use xlink:href="#SVGID_3_"  overflow="visible"/>
			</clipPath>
			<g clip-path="url(#SVGID_4_)">
				
					<linearGradient id="SVGID_5_" gradientUnits="userSpaceOnUse" x1="-393.7844" y1="-893.2936" x2="-393.6162" y2="-893.2936" gradientTransform="matrix(-2.350181e-006 -56.3809 -56.3809 2.350181e-006 -49994.3945 -22070.623)">
					<stop  offset="0" style="stop-color:#25A149"/>
					<stop  offset="1" style="stop-color:#008A52"/>
				</linearGradient>
				<path fill="url(#SVGID_5_)" d="M307.997,149.135h124.386v-42.891H307.997V149.135z"/>
			</g>
		</g>
		<g transform="translate(234.31 255.36)">
			<path fill="#98D0A0" d="M113.052-106.225l2.438-8.239l23.491-10.6l-1.975,7.87L113.052-106.225"/>
		</g>
		<g transform="translate(234.31 255.36)">
			<path fill="#68BF6B" d="M113.052-106.225l-9.454-22.44l1.293-9.86l10.6,24.061L113.052-106.225"/>
		</g>
		
			<linearGradient id="SVGID_6_" gradientUnits="userSpaceOnUse" x1="-392.7884" y1="-892.8947" x2="-392.6202" y2="-892.8947" gradientTransform="matrix(9.6961 -58.5352 -58.5352 -9.6961 -48135.9492 -31515.8711)">
			<stop  offset="0" style="stop-color:#D92231"/>
			<stop  offset="1" style="stop-color:#BA2234"/>
		</linearGradient>
		<path fill="url(#SVGID_6_)" d="M334.257,136.053l3.871-25.466l-25.961-4.069l-4.169,25.512l26.259,4.021"/>
		<g transform="translate(0 153.57)">
			<path fill="#EF463D" d="M307.997-21.537l1.824,9.091l26.212,4.202l-1.775-9.273L307.997-21.537"/>
		</g>
		<g transform="translate(166.88 232.7)">
			<path fill="#761116" d="M169.153-87.374l3.843-25.709l-1.749-9.028l-3.869,25.464L169.153-87.374"/>
		</g>
		<g transform="translate(500.47 147.76)">
			<path fill="#FFFFFF" d="M-108.393-16.703c-0.12,0.803-0.391,1.417-0.838,1.819c-0.357,0.322-0.798,0.481-1.304,0.481
				c-0.132,0-0.264-0.01-0.401-0.031c-0.681-0.097-1.199-0.411-1.518-0.93c-0.232-0.375-0.344-0.829-0.344-1.35
				c0-0.198,0.015-0.409,0.05-0.63l0.952-6.735l-7.522-1.102l-0.955,6.732c-0.117,0.783-0.386,1.39-0.825,1.803
				c-0.357,0.335-0.795,0.506-1.296,0.505c-0.117,0-0.237-0.009-0.359-0.027c-0.708-0.103-1.247-0.411-1.576-0.922
				c-0.237-0.368-0.352-0.824-0.352-1.353c0-0.203,0.015-0.419,0.052-0.644l2.573-17.513c0.117-0.805,0.401-1.419,0.86-1.813
				c0.364-0.309,0.815-0.464,1.331-0.464c0.142,0,0.292,0.012,0.441,0.035c0.648,0.095,1.149,0.404,1.451,0.925
				c0.217,0.369,0.322,0.815,0.322,1.319c0,0.204-0.017,0.416-0.05,0.638l-1.052,6.921l7.524,1.102l1.052-6.916
				c0.115-0.795,0.394-1.404,0.85-1.805c0.362-0.319,0.81-0.479,1.319-0.479c0.132,0,0.264,0.012,0.404,0.03
				c0.676,0.1,1.194,0.409,1.501,0.925c0.224,0.369,0.334,0.815,0.334,1.326c0,0.202-0.02,0.419-0.052,0.643L-108.393-16.703z
				 M-138.989-26.39c-0.885-2.087-2.054-3.513-3.499-4.306c-0.775-0.429-1.569-0.638-2.391-0.638c-0.713,0-1.447,0.162-2.209,0.484
				c-1.644,0.698-2.668,1.827-3.11,3.416c-0.15,0.534-0.223,1.094-0.223,1.68c0,1.167,0.292,2.448,0.883,3.839
				c0.905,2.133,2.087,3.589,3.534,4.388c0.773,0.426,1.566,0.637,2.39,0.637c0.723,0,1.47-0.162,2.241-0.49
				c1.633-0.696,2.646-1.825,3.082-3.421c0.142-0.521,0.212-1.07,0.212-1.648C-138.081-23.638-138.38-24.952-138.989-26.39z
				 M-136.415-15.908c-0.925,0.974-2.046,1.739-3.36,2.297c-1.305,0.553-2.624,0.83-3.954,0.83h-0.061
				c-1.351-0.009-2.685-0.309-4-0.9v0.001c-1.376-0.6-2.575-1.439-3.595-2.514c-1.018-1.077-1.847-2.371-2.487-3.879
				c-0.632-1.488-0.981-2.979-1.046-4.473c-0.009-0.17-0.012-0.337-0.012-0.506c0-1.316,0.227-2.605,0.677-3.864
				c0.479-1.331,1.184-2.481,2.115-3.453c0.929-0.97,2.073-1.74,3.427-2.316l0,0c1.295-0.548,2.609-0.823,3.94-0.823h0.034
				c1.344,0.007,2.675,0.294,3.992,0.86h0.001h0.001c1.385,0.618,2.594,1.468,3.624,2.546c1.028,1.077,1.862,2.366,2.499,3.864
				c0.635,1.501,0.981,2.992,1.04,4.48c0.004,0.14,0.007,0.284,0.007,0.424c0,1.339-0.237,2.645-0.709,3.925
				C-134.782-18.048-135.494-16.881-136.415-15.908L-136.415-15.908z M-169.003-33.117c-0.203,0.242-0.48,0.421-0.815,0.541
				c-0.345,0.12-0.763,0.18-1.254,0.18c-0.464,0-0.994-0.052-1.589-0.155l-6.854-1.169c0.074,0.526,0.335,1.224,0.799,2.067
				c0.516,0.947,1.278,2.084,2.282,3.411h0.003c0.344,0.461,0.607,0.813,0.789,1.057c0.132,0.16,0.313,0.399,0.551,0.718
				c1.566,2.054,2.537,3.73,2.908,5.041c0.213,0.745,0.342,1.496,0.39,2.251c0.011,0.208,0.017,0.414,0.017,0.618
				c0,0.541-0.045,1.076-0.133,1.599c-0.082,0.479-0.199,0.876-0.357,1.197c-0.16,0.318-0.359,0.561-0.606,0.713
				c-0.28,0.171-0.672,0.243-1.187,0.244c-0.424,0-0.932-0.052-1.527-0.155l-7.92-1.354c-0.959-0.165-1.667-0.448-2.118-0.874
				c-0.359-0.334-0.545-0.772-0.544-1.273c0-0.13,0.012-0.266,0.037-0.405c0.111-0.673,0.461-1.167,1.026-1.416
				c0.334-0.152,0.737-0.223,1.208-0.223c0.322,0,0.673,0.032,1.057,0.098l6.628,1.117c0.011-0.117,0.019-0.233,0.019-0.349
				c0-0.414-0.071-0.819-0.216-1.217c-0.196-0.548-0.688-1.334-1.471-2.331c-0.222-0.272-0.562-0.693-1.02-1.272
				c-1.788-2.167-3.068-4.009-3.843-5.542c0,0,0,0,0-0.005l0,0c-0.55-1.057-0.931-2.097-1.141-3.121
				c-0.122-0.598-0.184-1.174-0.184-1.725c0-0.391,0.031-0.773,0.096-1.144c0.09-0.531,0.221-0.967,0.398-1.314
				c0.177-0.344,0.401-0.601,0.679-0.753c0.257-0.142,0.637-0.194,1.159-0.199c0.664,0,1.557,0.1,2.686,0.292l7.187,1.229
				c1.272,0.219,2.157,0.521,2.67,0.945c0.413,0.337,0.625,0.8,0.622,1.346c0,0.137-0.012,0.282-0.039,0.429
				C-168.667-33.663-168.799-33.361-169.003-33.117L-169.003-33.117z M-175.092-26.468L-175.092-26.468L-175.092-26.468h-0.001
				H-175.092z M-81.759-32.324c-1.032-1.249-2.423-1.87-4.223-1.87c-1.805,0-3.206,0.621-4.243,1.865
				c-1.037,1.242-1.561,2.952-1.563,5.146c0.002,2.236,0.524,3.972,1.553,5.226c1.035,1.253,2.436,1.875,4.253,1.876
				c1.8-0.001,3.191-0.622,4.223-1.876c1.032-1.254,1.556-2.989,1.556-5.226C-80.203-29.367-80.727-31.075-81.759-32.324z
				 M-76.214-22.803c-0.534,1.339-1.324,2.542-2.371,3.604c-0.997,1.018-2.122,1.789-3.363,2.305
				c-1.244,0.519-2.588,0.775-4.029,0.775c-1.456,0-2.81-0.257-4.064-0.775c-1.252-0.516-2.376-1.286-3.363-2.306
				c-1.047-1.05-1.832-2.249-2.354-3.588c-0.524-1.344-0.785-2.807-0.785-4.39c0-1.563,0.262-3.024,0.793-4.373
				c0.529-1.354,1.311-2.565,2.346-3.635c0.967-1.002,2.079-1.76,3.323-2.271c1.249-0.511,2.615-0.765,4.104-0.765
				c1.431,0,2.772,0.254,4.019,0.765c1.247,0.511,2.373,1.269,3.373,2.271c1.047,1.07,1.837,2.279,2.371,3.625
				c0.534,1.346,0.8,2.81,0.8,4.383C-75.414-25.607-75.681-24.146-76.214-22.803"/>
		</g>
	</g>
</g>
</svg>
