<?xml version="1.0" encoding="utf-8"?>
<!--
  - This file is part of StyleBI.
  - Copyright (C) 2024  InetSoft Technology
  -
  - This program is free software: you can redistribute it and/or modify
  - it under the terms of the GNU Affero General Public License as published by
  - the Free Software Foundation, either version 3 of the License, or
  - (at your option) any later version.
  -
  - This program is distributed in the hope that it will be useful,
  - but WITHOUT ANY WARRANTY; without even the implied warranty of
  - MERCHANTABILITY or FITNESS FOR A PARTICULAR PURPOSE.  See the
  - GNU Affero General Public License for more details.
  -
  - You should have received a copy of the GNU Affero General Public License
  - along with this program.  If not, see <https://www.gnu.org/licenses/>.
  -->

<!-- Generator: Adobe Illustrator 15.1.0, SVG Export Plug-In . SVG Version: 6.00 Build 0)  -->
<!DOCTYPE svg PUBLIC "-//W3C//DTD SVG 1.1//EN" "http://www.w3.org/Graphics/SVG/1.1/DTD/svg11.dtd">
<svg version="1.1"
	 id="svg8" xmlns:dc="http://purl.org/dc/elements/1.1/" xmlns:cc="http://creativecommons.org/ns#" xmlns:rdf="http://www.w3.org/1999/02/22-rdf-syntax-ns#" xmlns:svg="http://www.w3.org/2000/svg"
	 xmlns="http://www.w3.org/2000/svg" xmlns:xlink="http://www.w3.org/1999/xlink" x="0px" y="0px" width="30px" height="30px"
	 viewBox="0 0 30 30" enable-background="new 0 0 30 30" xml:space="preserve">
<g id="layer2" transform="translate(0,4.2333333)">
	<path id="rect987" fill="#FF8C00" d="M4.632,0.399v20.735h20.735V0.399H4.632z M6.536,1.871h7.775v1.944H6.536V1.871z
		 M15.689,1.871h7.776v1.944h-7.776V1.871z M6.536,5.647h7.775V7.59H6.536V5.647z M15.689,5.647h7.776V7.59h-7.776V5.647z
		 M6.536,9.422h7.775v1.944H6.536V9.422z M15.689,9.422h7.776v1.944h-7.776V9.422z M10.423,12.486c1.928,0,3.489,1.607,3.489,3.587
		v0.002c0,1.979-1.562,3.586-3.489,3.586c-1.927,0-3.488-1.606-3.488-3.586C6.935,14.094,8.496,12.486,10.423,12.486z
		 M15.689,13.197h7.776v1.944h-7.776V13.197z"/>
</g>
</svg>
