<?xml version="1.0" encoding="utf-8"?>
<!--
  - This file is part of StyleBI.
  - Copyright (C) 2024  InetSoft Technology
  -
  - This program is free software: you can redistribute it and/or modify
  - it under the terms of the GNU Affero General Public License as published by
  - the Free Software Foundation, either version 3 of the License, or
  - (at your option) any later version.
  -
  - This program is distributed in the hope that it will be useful,
  - but WITHOUT ANY WARRANTY; without even the implied warranty of
  - MERCHANTABILITY or FITNESS FOR A PARTICULAR PURPOSE.  See the
  - GNU Affero General Public License for more details.
  -
  - You should have received a copy of the GNU Affero General Public License
  - along with this program.  If not, see <https://www.gnu.org/licenses/>.
  -->

<!-- Generator: Adobe Illustrator 15.1.0, SVG Export Plug-In . SVG Version: 6.00 Build 0)  -->
<!DOCTYPE svg PUBLIC "-//W3C//DTD SVG 1.1//EN" "http://www.w3.org/Graphics/SVG/1.1/DTD/svg11.dtd">
<svg version="1.1"
	 id="svg2" xmlns:dc="http://purl.org/dc/elements/1.1/" xmlns:svg="http://www.w3.org/2000/svg" xmlns:rdf="http://www.w3.org/1999/02/22-rdf-syntax-ns#" xmlns:inkscape="http://www.inkscape.org/namespaces/inkscape" xmlns:cc="http://creativecommons.org/ns#" xmlns:sodipodi="http://sodipodi.sourceforge.net/DTD/sodipodi-0.dtd" inkscape:version="0.91 r13725" sodipodi:docname="Microsoft_Office_2013_logo_and_wordmark.svg"
	 xmlns="http://www.w3.org/2000/svg" xmlns:xlink="http://www.w3.org/1999/xlink" x="0px" y="0px" width="34px" height="34px"
	 viewBox="33 33 34 34" enable-background="new 33 33 34 34" xml:space="preserve">
<title  id="title4310">Microsoft Office logos</title>
<sodipodi:namedview  inkscape:pageopacity="0" id="namedview24" objecttolerance="10" guidetolerance="10" gridtolerance="10" pagecolor="#ffffff" showgrid="false" inkscape:cx="84.207061" borderopacity="1" inkscape:cy="23.817222" bordercolor="#666666" inkscape:zoom="1" inkscape:window-x="-8" inkscape:window-height="705" inkscape:window-y="-8" inkscape:window-width="1366" inkscape:current-layer="svg2" inkscape:pageshadow="2" inkscape:showpageshadow="false" inkscape:window-maximized="1">
	</sodipodi:namedview>
<g>
	<g>
		<path id="path6" inkscape:connector-curvature="0" fill="#2A5699" d="M46.042,37.904h1.428c0,0.546,0,1.092,0,1.639
			c2.562,0,5.125-0.042,7.644,0c0.546-0.042,0.967,0.335,0.924,0.798c0.043,4.032,0,8.063,0.043,12.096
			c-0.043,0.42,0.041,0.882-0.253,1.218c-0.335,0.209-0.797,0.168-1.219,0.209c-2.394,0-4.787,0-7.181,0c0,0.547,0,1.093,0,1.639
			h-1.512c-3.654-0.588-7.266-1.092-10.92-1.639c0-4.788,0-9.534,0-14.321C38.734,38.996,42.388,38.492,46.042,37.904L46.042,37.904
			z"/>
		<path id="path46" inkscape:connector-curvature="0" fill="#FFFFFF" d="M47.469,40.172c2.646,0,5.25,0,7.896,0
			c0,4.368,0,8.736,0,13.062c-2.646,0-5.25,0-7.896,0c0-0.546,0-1.091,0-1.638c2.059,0,4.158,0,6.215,0c0-0.252,0-0.546,0-0.797
			c-2.058,0-4.157,0-6.215,0c0-0.337,0-0.673,0-1.009c2.059,0,4.158,0,6.215,0c0-0.252,0-0.546,0-0.798c-2.058,0-4.157,0-6.215,0
			c0-0.336,0-0.672,0-1.008c2.059,0,4.158,0,6.215,0c0-0.252,0-0.546,0-0.798c-2.058,0-4.157,0-6.215,0c0-0.335,0-0.672,0-1.007
			c2.059,0,4.158,0,6.215,0c0-0.252,0-0.546,0-0.799c-2.058,0-4.157,0-6.215,0c0-0.335,0-0.671,0-1.007c2.059,0,4.158,0,6.215,0
			c0-0.252,0-0.546,0-0.798c-2.058,0-4.157,0-6.215,0c0-0.336,0-0.672,0-1.008c2.059,0,4.158,0,6.215,0c0-0.252,0-0.545,0-0.798
			c-2.058,0-4.157,0-6.215,0C47.469,41.138,47.469,40.634,47.469,40.172z"/>
		<g>
			<g>
				<path fill="#FFFFFF" d="M40.498,44.75l-1.848,0.084V43.7l5.208-0.42v1.302l-1.848,0.084v5.25l-1.512-0.126V44.75z"/>
			</g>
		</g>
	</g>
	<g>
		<path id="path10" inkscape:connector-curvature="0" fill="#207245" d="M54.902,44.456h1.429c0,0.546,0,1.092,0,1.638
			c2.395,0,4.788,0,7.183,0c0.419,0,0.839,0,1.218,0.21c0.252,0.294,0.211,0.672,0.252,1.05c0,3.528,0,7.097,0,10.626
			c0,0.588,0.084,1.218-0.084,1.806c-0.085,0.42-0.673,0.42-1.092,0.462c-2.478,0-4.956,0-7.434,0c0,0.631,0,1.217,0,1.848h-1.472
			c-3.652-0.546-7.265-1.091-10.918-1.638c0-4.788,0-9.534,0-14.322C47.553,45.548,51.25,45.002,54.902,44.456L54.902,44.456z"/>
		<path id="path48" inkscape:connector-curvature="0" fill="#FFFFFF" d="M56.289,46.724c2.646,0,5.25,0,7.896,0
			c0,4.284,0,8.568,0,12.894c-2.646,0-5.25,0-7.896,0c0-0.42,0-0.799,0-1.218c0.63,0,1.261,0,1.891,0c0-0.463,0-0.967,0-1.428
			c-0.63,0-1.261,0-1.891,0c0-0.253,0-0.547,0-0.799c0.63,0,1.261,0,1.891,0c0-0.462,0-0.966,0-1.429c-0.63,0-1.261,0-1.891,0
			c0-0.251,0-0.545,0-0.797c0.63,0,1.261,0,1.891,0c0-0.462,0-0.967,0-1.429c-0.63,0-1.261,0-1.891,0c0-0.251,0-0.545,0-0.797
			c0.63,0,1.261,0,1.891,0c0-0.462,0-0.967,0-1.429c-0.63,0-1.261,0-1.891,0c0-0.251,0-0.546,0-0.798c0.63,0,1.261,0,1.891,0
			c0-0.461,0-0.965,0-1.427c-0.63,0-1.261,0-1.891,0C56.289,47.522,56.289,47.102,56.289,46.724z"/>
		<path id="path58" inkscape:connector-curvature="0" fill="#207245" d="M59.188,47.942c1.134,0,2.226,0,3.36,0
			c0,0.461,0,0.966,0,1.427c-1.135,0-2.227,0-3.36,0C59.188,48.908,59.188,48.404,59.188,47.942z"/>
		<path id="path72" inkscape:connector-curvature="0" fill="#FFFFFF" d="M50.956,49.832c0.545-0.042,1.092-0.042,1.638-0.084
			c-0.631,1.134-1.261,2.227-1.932,3.36c0.671,1.135,1.344,2.269,1.973,3.444c-0.587-0.041-1.134-0.041-1.722-0.084
			c-0.419-0.839-0.882-1.68-1.176-2.562c-0.336,0.839-0.798,1.596-1.176,2.437c-0.504,0-1.05-0.043-1.554-0.043
			c0.63-1.008,1.218-2.058,1.848-3.066c-0.545-1.05-1.133-2.1-1.68-3.149c0.546-0.042,1.05-0.042,1.596-0.084
			c0.336,0.799,0.756,1.596,1.05,2.394C50.116,51.512,50.577,50.672,50.956,49.832L50.956,49.832z"/>
		<path id="path90" inkscape:connector-curvature="0" fill="#207245" d="M59.188,50.168c1.134,0,2.226,0,3.36,0
			c0,0.462,0,0.966,0,1.428c-1.135,0-2.227,0-3.36,0C59.188,51.134,59.188,50.672,59.188,50.168z"/>
		<path id="path108" inkscape:connector-curvature="0" fill="#207245" d="M59.188,52.437c1.134,0,2.226,0,3.36,0
			c0,0.462,0,0.965,0,1.427c-1.135,0-2.227,0-3.36,0C59.188,53.401,59.188,52.898,59.188,52.437z"/>
		<path id="path114" inkscape:connector-curvature="0" fill="#207245" d="M59.188,54.662c1.134,0,2.226,0,3.36,0
			c0,0.462,0,0.967,0,1.428c-1.135,0-2.227,0-3.36,0C59.188,55.629,59.188,55.165,59.188,54.662z"/>
		<path id="path120" inkscape:connector-curvature="0" fill="#207245" d="M59.188,56.931c1.134,0,2.226,0,3.36,0
			c0,0.462,0,0.965,0,1.427c-1.135,0-2.227,0-3.36,0C59.188,57.896,59.188,57.393,59.188,56.931z"/>
	</g>
</g>
</svg>
