<?xml version="1.0" standalone="no"?>
<!DOCTYPE svg PUBLIC "-//W3C//DTD SVG 1.1//EN" "http://www.w3.org/Graphics/SVG/1.1/DTD/svg11.dtd" >
<svg xmlns="http://www.w3.org/2000/svg">
<defs>
  <font id="InetSoft-Icons" horiz-adv-x="5625">
    <font-face font-family="InetSoft-Icons"
      units-per-em="5000" ascent="5000"
      descent="0" />
    <missing-glyph horiz-adv-x="0" />
    <glyph glyph-name="account-key"
      unicode="&#xEA01;"
      horiz-adv-x="5000" d="M2291.666666666667 2916.6666666666665V2500H2083.3333333333335V2083.333333333333H1666.6666666666667V2500H1214.5833333333335C1129.1666666666667 2256.25 897.9166666666666 2083.333333333333 625 2083.333333333333C279.1666666666667 2083.333333333333 0 2362.5 0 2708.333333333333C0 3054.1666666666665 279.1666666666667 3333.333333333333 625 3333.333333333333C897.9166666666666 3333.333333333333 1129.1666666666667 3160.4166666666665 1214.5833333333335 2916.6666666666665H2291.666666666667M625 2916.6666666666665C510.4166666666667 2916.6666666666665 416.6666666666667 2822.9166666666665 416.6666666666667 2708.333333333333C416.6666666666667 2593.7499999999995 510.4166666666667 2500 625 2500C739.5833333333334 2500 833.3333333333334 2593.7499999999995 833.3333333333334 2708.333333333333C833.3333333333334 2822.9166666666665 739.5833333333334 2916.6666666666665 625 2916.6666666666665M3333.3333333333335 2083.333333333333C3889.5833333333335 2083.333333333333 5000 1804.1666666666663 5000 1250V833.333333333333H1666.6666666666667V1250C1666.6666666666667 1804.1666666666663 2777.0833333333335 2083.333333333333 3333.3333333333335 2083.333333333333M3333.3333333333335 2500C2872.9166666666665 2500 2500 2872.9166666666665 2500 3333.333333333333C2500 3793.75 2872.9166666666665 4166.666666666667 3333.3333333333335 4166.666666666667C3793.750000000001 4166.666666666667 4166.666666666667 3793.75 4166.666666666667 3333.333333333333C4166.666666666667 2872.9166666666665 3793.750000000001 2500 3333.3333333333335 2500z" />
    <glyph glyph-name="account"
      unicode="&#xEA02;"
      horiz-adv-x="5000" d="M2500 1000C1979.1666666666667 1000 1518.75 1266.666666666666 1250 1666.6666666666665C1256.25 2083.333333333333 2083.3333333333335 2312.5 2500 2312.5C2916.666666666667 2312.5 3743.75 2083.333333333333 3750 1666.6666666666665C3481.2500000000005 1266.666666666666 3020.8333333333335 1000 2500 1000M2500 3958.3333333333326A625.0000000000001 625.0000000000001 0 0 0 3125 3333.333333333333A625.0000000000001 625.0000000000001 0 0 0 2500 2708.333333333333A625.0000000000001 625.0000000000001 0 0 0 1875 3333.333333333333A625.0000000000001 625.0000000000001 0 0 0 2500 3958.3333333333326M2500 4583.333333333333A2083.333333333333 2083.333333333333 0 0 1 416.6666666666667 2500A2083.333333333333 2083.333333333333 0 0 1 2500 416.6666666666661A2083.333333333333 2083.333333333333 0 0 1 4583.333333333334 2500C4583.333333333334 3652.0833333333326 3645.8333333333335 4583.333333333333 2500 4583.333333333333z" />
    <glyph glyph-name="add"
      unicode="&#xEA03;"
      horiz-adv-x="5000" d="M2500 833.333333333333C1581.25 833.333333333333 833.3333333333334 1581.25 833.3333333333334 2500C833.3333333333334 3418.75 1581.25 4166.666666666667 2500 4166.666666666667C3418.75 4166.666666666667 4166.666666666667 3418.75 4166.666666666667 2500C4166.666666666667 1581.25 3418.75 833.333333333333 2500 833.333333333333M2500 4583.333333333333A2083.333333333333 2083.333333333333 0 0 1 416.6666666666667 2500A2083.333333333333 2083.333333333333 0 0 1 2500 416.6666666666661A2083.333333333333 2083.333333333333 0 0 1 4583.333333333334 2500A2083.333333333333 2083.333333333333 0 0 1 2500 4583.333333333333M2708.3333333333335 3541.6666666666665H2291.666666666667V2708.333333333333H1458.3333333333335V2291.6666666666665H2291.666666666667V1458.333333333333H2708.3333333333335V2291.6666666666665H3541.666666666667V2708.333333333333H2708.3333333333335V3541.6666666666665z" />
    <glyph glyph-name="adhoc"
      unicode="&#xEA04;"
      horiz-adv-x="5000" d="M2541.666666666667 3666.6666666666665A750.0000000000001 750.0000000000001 0 0 1 4041.6666666666674 3666.6666666666665A750.0000000000001 750.0000000000001 0 0 1 2541.666666666667 3666.6666666666665M3103.9583333333335 1604.1666666666665V2166.666666666666H3479.1666666666665V1604.1666666666665L3291.6666666666665 1418.333333333333H4791.666666666667V1791.666666666667C4791.666666666667 1791.666666666667 4470.416666666667 2457.7083333333335 3479.1666666666665 2533.9583333333335V2354.1666666666665H3103.9583333333335V2533.9583333333335C2112.9166666666665 2457.7083333333335 1791.6666666666667 1791.666666666667 1791.6666666666667 1791.666666666667V1418.5416666666665L3291.666666666667 1416.6666666666665L3103.9583333333335 1604.1666666666665zM1583.541666666667 3711.0416666666665L1583.541666666667 3211.041666666667C1583.541666666667 3211.041666666667 1435.2083333333337 3114.375 1250.2083333333337 3112.7083333333335C1065.2083333333337 3114.375 916.8750000000005 3211.041666666667 916.8750000000005 3211.041666666667V3711.0416666666674C893.3333333333334 3704.375 416.6666666666667 3279.375 416.6666666666667 3044.375C416.6666666666667 2932.708333333333 455.0000000000001 2869.375 525 2779.3749999999995C635.4166666666666 2653.75 765 2584.3749999999995 853.5416666666666 2536.25C855.2083333333333 2536.25 855.2083333333333 2536.25 856.875 2534.3749999999995C976.6666666666666 2471.0416666666665 1083.3333333333333 2414.3749999999995 1083.5416666666667 2377.708333333333C1083.5416666666667 1912.291666666666 962.9166666666669 1049.791666666666 927.0833333333331 788.958333333333C920.8333333333334 764.1666666666661 916.6666666666669 738.125 916.6666666666669 711.041666666667C916.6666666666669 527.708333333333 1066.8750000000002 377.7083333333331 1250.2083333333335 377.5C1433.3333333333335 377.5 1583.541666666667 527.708333333333 1583.541666666667 710.8333333333339C1583.541666666667 737.916666666667 1579.791666666667 763.7500000000009 1573.541666666667 788.75C1537.5000000000002 1050.208333333333 1416.6666666666667 1920.4166666666663 1416.6666666666667 2377.7083333333335C1416.6666666666667 2412.708333333333 1526.6666666666665 2469.375 1646.6666666666667 2536.25C1651.6666666666667 2537.916666666666 1877.7083333333337 2651.2499999999995 1983.3333333333333 2789.3749999999995C2049.166666666667 2875.833333333333 2083.3333333333335 2937.708333333333 2083.3333333333335 3044.583333333333C2083.5416666666665 3279.375 1606.6666666666667 3704.375 1583.541666666667 3711.0416666666665z" />
    <glyph glyph-name="alert-circle"
      unicode="&#xEA05;"
      horiz-adv-x="5000" d="M2708.3333333333335 2291.6666666666665H2291.666666666667V3541.6666666666665H2708.3333333333335M2708.3333333333335 1458.333333333333H2291.666666666667V1875H2708.3333333333335M2500 4583.333333333333A2083.333333333333 2083.333333333333 0 0 1 416.6666666666667 2500A2083.333333333333 2083.333333333333 0 0 1 2500 416.6666666666661A2083.333333333333 2083.333333333333 0 0 1 4583.333333333334 2500A2083.333333333333 2083.333333333333 0 0 1 2500 4583.333333333333z" />
    <glyph glyph-name="alert"
      unicode="&#xEA06;"
      horiz-adv-x="5000" d="M3541.666666666667 4166.666666666667A416.6666666666667 416.6666666666667 0 0 1 4375 4166.666666666667A416.6666666666667 416.6666666666667 0 0 1 3541.666666666667 4166.666666666667M2916.666666666667 1250C2916.666666666667 904.7916666666666 2637.0833333333335 625 2292.083333333333 625C1946.4583333333337 625 1666.6666666666667 904.7916666666666 1666.6666666666667 1250S1946.4583333333337 1875 2292.083333333333 1875C2637.0833333333335 1875 2916.666666666667 1595.208333333333 2916.666666666667 1250zM4126.875 1997.4999999999995C4139.375 2413.1249999999995 4859.583333333334 3619.7916666666665 3771.6666666666665 4138.125L3771.6666666666665 4138.125C2617.291666666667 4697.291666666667 2166.666666666667 3420.833333333333 1837.2916666666667 3167.083333333333C1558.3333333333335 2951.875 745.8333333333334 2992.2916666666665 649.1666666666667 2499.375C1040 2642.0833333333335 1788.541666666667 2609.1666666666665 2728.9583333333335 2097.5C2742.291666666667 2090.208333333333 2715 2103.958333333333 2728.9583333333335 2097.5C3694.5833333333335 1635.208333333333 4052.9166666666674 1025.4166666666665 4166.25 625C4509.583333333334 992.4999999999995 4115.833333333334 1645 4126.875 1997.4999999999995zM2767.7083333333335 2142.9166666666665C2161.4583333333335 2490.625 1565.4166666666667 2682.5 1172.7083333333335 2682.5C963.9583333333334 2682.5 714.1666666666667 2613.7499999999995 649.3750000000001 2500C510.4166666666667 2109.375 970.4166666666669 1574.7916666666665 1899.3750000000005 1041.6666666666665C2505.6250000000005 693.958333333333 3292.7083333333335 416.6666666666661 3685.2083333333335 416.6666666666661C3893.9583333333335 416.6666666666661 4101.458333333334 511.25 4166.666666666667 625C4353.125 952.916666666667 3696.6666666666674 1609.7916666666665 2767.7083333333335 2142.9166666666665zM3745.625 770.208333333333C3667.0833333333335 634.166666666667 3007.5 868.1249999999991 2271.875 1292.708333333333C1622.9166666666665 1667.4999999999995 1132.4999999999998 2064.9999999999995 1080.2083333333333 2246.8749999999995C1078.3333333333333 2250.208333333333 1075.2083333333333 2254.583333333333 1073.5416666666665 2257.9166666666665C1075 2258.1249999999995 1076.875 2258.1249999999995 1078.3333333333333 2258.333333333333C1074.7916666666665 2277.5 1075 2294.583333333333 1082.4999999999998 2307.708333333333C1161.0416666666665 2443.75 1820.8333333333333 2209.7916666666665 2556.25 1785C3291.666666666667 1360.6249999999995 3823.9583333333335 906.25 3745.625 770.208333333333z" />
    <glyph glyph-name="align-bottom"
      unicode="&#xEA07;"
      horiz-adv-x="5000" d="M416.6666666666667 833.333333333333H4583.333333333334V416.6666666666661H416.6666666666667V833.333333333333zM416.6666666666667 3750H1875V1458.333333333333H416.6666666666667V3750zM3125 1826.25V4215.416666666667H4166.666666666667V1826.0416666666663H3125M2708.3333333333335 1458.333333333333H4583.333333333334V4583.333333333333H2708.3333333333335V1458.333333333333L2708.3333333333335 1458.333333333333z" />
    <glyph glyph-name="align-center"
      unicode="&#xEA08;"
      horiz-adv-x="5000" d="M2291.666666666667 4791.666666666667H2708.3333333333335V208.333333333333H2291.666666666667V4791.666666666667zM1041.6666666666667 1979.1666666666663H3958.3333333333335V520.833333333333H1041.6666666666667V1979.1666666666663zM3933.9583333333335 3136.458333333333H1066.2499999999998V3946.6666666666665H3933.9583333333335V3136.458333333333M4375 2812.5V4270.833333333333H625V2812.5H4375L4375 2812.5z" />
    <glyph glyph-name="align-left"
      unicode="&#xEA09;"
      horiz-adv-x="5000" d="M416.6666666666667 4583.333333333333H833.3333333333334V416.6666666666661H416.6666666666667V4583.333333333333zM1458.3333333333335 4583.333333333333H3750V3125H1458.3333333333335V4583.333333333333zM1826.25 1875H4215.416666666667V833.333333333333H1826.25V1875M1458.3333333333335 2291.6666666666665V416.6666666666661H4583.333333333334V2291.6666666666665H1458.3333333333335L1458.3333333333335 2291.6666666666665z" />
    <glyph glyph-name="align-middle"
      unicode="&#xEA0A;"
      horiz-adv-x="5000" d="M208.3333333333334 2708.333333333333H4791.666666666667V2291.6666666666665H208.3333333333334V2708.333333333333zM520.8333333333334 3958.3333333333326H1979.1666666666667V1041.6666666666665H520.8333333333334V3958.3333333333326zM3136.4583333333335 1066.0416666666665V3933.75H3946.6666666666665V1066.0416666666665H3136.4583333333335M2812.5 625H4270.833333333334V4375H2812.5V625L2812.5 625z" />
    <glyph glyph-name="align-right"
      unicode="&#xEA0B;"
      horiz-adv-x="5000" d="M4166.666666666667 4583.333333333333H4583.333333333334V416.6666666666661H4166.666666666667V4583.333333333333zM1250 1875H3541.666666666667V416.6666666666661H1250V1875zM3173.75 3125H784.5833333333334V4166.666666666667H3173.9583333333335V3125M3541.666666666667 2708.333333333333V4583.333333333333H416.6666666666667V2708.333333333333H3541.666666666667L3541.666666666667 2708.333333333333z" />
    <glyph glyph-name="align-text-bottom"
      unicode="&#xEA0C;"
      horiz-adv-x="5000" d="M625 1875L4375 1875L4375 1458.333333333333L625 1458.333333333333L625 1875M625 1041.6666666666665L4375 1041.6666666666665L4375 625L625 625L625 1041.6666666666665M625 2708.333333333333L4375 2708.333333333333L4375 2291.6666666666665L625 2291.6666666666665L625 2708.333333333333" />
    <glyph glyph-name="align-text-center"
      unicode="&#xEA0D;"
      horiz-adv-x="5000" d="M625 4375H4375V3958.3333333333326H625V4375M1458.3333333333335 3541.6666666666665H3541.666666666667V3125H1458.3333333333335V3541.6666666666665M625 2708.333333333333H4375V2291.6666666666665H625V2708.333333333333M1458.3333333333335 1875H3541.666666666667V1458.333333333333H1458.3333333333335V1875M625 1041.6666666666665H4375V625H625V1041.6666666666665z" />
    <glyph glyph-name="align-text-left"
      unicode="&#xEA0E;"
      horiz-adv-x="5000" d="M625 4375H4375V3958.3333333333326H625V4375M625 3541.6666666666665H3125V3125H625V3541.6666666666665M625 2708.333333333333H4375V2291.6666666666665H625V2708.333333333333M625 1875H3125V1458.333333333333H625V1875M625 1041.6666666666665H4375V625H625V1041.6666666666665z" />
    <glyph glyph-name="align-text-middle"
      unicode="&#xEA0F;"
      horiz-adv-x="5000" d="M625 1875L4375 1875L4375 1458.333333333333L625 1458.333333333333L625 1875M625 3541.6666666666665L4375 3541.6666666666665L4375 3125L625 3125L625 3541.6666666666665M625 2708.333333333333L4375 2708.333333333333L4375 2291.6666666666665L625 2291.6666666666665L625 2708.333333333333" />
    <glyph glyph-name="align-text-right"
      unicode="&#xEA10;"
      horiz-adv-x="5000" d="M625 4375H4375V3958.3333333333326H625V4375M1875 3541.6666666666665H4375V3125H1875V3541.6666666666665M625 2708.333333333333H4375V2291.6666666666665H625V2708.333333333333M1875 1875H4375V1458.333333333333H1875V1875M625 1041.6666666666665H4375V625H625V1041.6666666666665z" />
    <glyph glyph-name="align-text-top"
      unicode="&#xEA11;"
      horiz-adv-x="5000" d="M625 4375L4375 4375L4375 3958.3333333333326L625 3958.3333333333326L625 4375M625 3541.6666666666665L4375 3541.6666666666665L4375 3125L625 3125L625 3541.6666666666665M625 2708.333333333333L4375 2708.333333333333L4375 2291.6666666666665L625 2291.6666666666665L625 2708.333333333333" />
    <glyph glyph-name="align-top"
      unicode="&#xEA12;"
      horiz-adv-x="5000" d="M416.6666666666667 4583.333333333333H4583.333333333334V4166.666666666667H416.6666666666667V4583.333333333333zM3125 3541.6666666666665H4583.333333333334V1250H3125V3541.6666666666665zM1875 3173.75V784.583333333333H833.3333333333334V3173.75H1875M2291.666666666667 3541.6666666666665H416.6666666666667V416.6666666666661H2291.666666666667V3541.6666666666665L2291.666666666667 3541.6666666666665z" />
    <glyph glyph-name="annotation-empty"
      unicode="&#xEA13;"
      horiz-adv-x="5000" d="M4166.666666666667 4583.333333333333H833.3333333333334A416.6666666666667 416.6666666666667 0 0 1 416.6666666666667 4166.666666666667V416.6666666666661L1250 1250H4166.666666666667A416.6666666666667 416.6666666666667 0 0 1 4583.333333333334 1666.6666666666665V4166.666666666667A416.6666666666667 416.6666666666667 0 0 1 4166.666666666667 4583.333333333333M4166.666666666667 1666.6666666666665H1250L833.3333333333334 1250V4166.666666666667H4166.666666666667" />
    <glyph glyph-name="annotation-no"
      unicode="&#xEA14;"
      horiz-adv-x="5000" d="M264.5833333333334 4639.583333333333L0 4375L416.6666666666667 3958.3333333333326V416.6666666666661L1250 1250H3125L4318.75 56.25L4583.333333333334 320.8333333333331L264.5833333333334 4639.583333333333M1666.6666666666667 2083.333333333333H1250V2500H1666.6666666666667V2083.333333333333M1250 2708.333333333333V3125L1666.6666666666667 2708.333333333333H1250M4166.666666666667 4583.333333333333H850L2083.3333333333335 3350V3750H3750V3333.333333333333H2100L2308.3333333333335 3125H3750V2708.333333333333H2725L4181.25 1250C4404.166666666667 1260.4166666666665 4583.333333333334 1441.666666666667 4583.333333333334 1666.6666666666665V4166.666666666667A416.6666666666667 416.6666666666667 0 0 1 4166.666666666667 4583.333333333333z" />
    <glyph glyph-name="annotation"
      unicode="&#xEA15;"
      horiz-adv-x="5000" d="M4166.666666666667 4583.333333333333H833.3333333333334A416.6666666666667 416.6666666666667 0 0 1 416.6666666666667 4166.666666666667V416.6666666666661L1250 1250H4166.666666666667A416.6666666666667 416.6666666666667 0 0 1 4583.333333333334 1666.6666666666665V4166.666666666667A416.6666666666667 416.6666666666667 0 0 1 4166.666666666667 4583.333333333333M1250 3125H3750V2708.333333333333H1250M2916.666666666667 2083.333333333333H1250V2500H2916.666666666667M3750 3333.333333333333H1250V3750H3750" />
    <glyph glyph-name="archive-open"
      unicode="&#xEA16;"
      horiz-adv-x="5000" d="M4541.666666666667 3208.333333333333L4083.3333333333335 3958.3333333333326C4000.2083333333335 4083.3333333333326 3875.000000000001 4166.666666666667 3729.375 4166.666666666667H3020.8333333333335L3458.333333333334 3750H3770.8333333333335L4125 3125H3958.3333333333335H1041.6666666666667H875.0000000000001L1229.1666666666667 3750H1541.6666666666667L1979.1666666666667 4166.666666666667H1270.8333333333333C1125 4166.666666666667 1000 4083.3333333333326 916.6666666666666 3958.3333333333326L458.3333333333334 3208.333333333333C437.5000000000001 3166.6666666666665 416.6666666666667 3083.3333333333335 416.6666666666667 3020.833333333333V833.333333333333C416.6666666666667 604.1666666666661 604.1666666666666 416.6666666666661 833.3333333333334 416.6666666666661H4166.666666666667C4395.833333333334 416.6666666666661 4583.333333333334 604.1666666666661 4583.333333333334 833.333333333333V1666.6666666666665V3020.833333333333C4583.333333333334 3083.3333333333335 4562.5 3166.6666666666665 4541.666666666667 3208.333333333333zM3125 2291.6666666666665C3083.3333333333335 2291.6666666666665 1916.6666666666663 2291.6666666666665 1875 2291.6666666666665C1750.0000000000002 2291.6666666666665 1666.6666666666667 2375 1666.6666666666667 2500C1666.6666666666667 2625 1750.0000000000002 2708.333333333333 1875 2708.333333333333C1916.6666666666663 2708.333333333333 3083.3333333333335 2708.333333333333 3125 2708.333333333333C3250 2708.333333333333 3333.3333333333335 2625 3333.3333333333335 2500C3333.3333333333335 2375 3250 2291.6666666666665 3125 2291.6666666666665zM3437.5 3333.333333333333L2625 4104.166666666667C2541.875 4187.5 2437.7083333333335 4187.5 2354.1666666666665 4104.166666666667L1562.5 3333.333333333333H3437.5z" />
    <glyph glyph-name="archive"
      unicode="&#xEA17;"
      horiz-adv-x="5000" d="M4541.666666666667 3208.333333333333L4083.3333333333335 3958.3333333333326C4000.2083333333335 4083.3333333333326 3875.000000000001 4166.666666666667 3729.375 4166.666666666667H1270.8333333333333C1125 4166.666666666667 1000 4083.3333333333326 916.6666666666666 3958.3333333333326L458.3333333333334 3208.333333333333C437.5000000000001 3166.6666666666665 416.6666666666667 3083.3333333333335 416.6666666666667 3020.833333333333V833.333333333333C416.6666666666667 604.1666666666661 604.1666666666666 416.6666666666661 833.3333333333334 416.6666666666661H4166.666666666667C4395.833333333334 416.6666666666661 4583.333333333334 604.1666666666661 4583.333333333334 833.333333333333V1666.6666666666665V3020.833333333333C4583.333333333334 3083.3333333333335 4562.5 3166.6666666666665 4541.666666666667 3208.333333333333zM3125 2291.6666666666665C3083.3333333333335 2291.6666666666665 1916.6666666666663 2291.6666666666665 1875 2291.6666666666665C1750.0000000000002 2291.6666666666665 1666.6666666666667 2375 1666.6666666666667 2500C1666.6666666666667 2625 1750.0000000000002 2708.333333333333 1875 2708.333333333333C1916.6666666666663 2708.333333333333 3083.3333333333335 2708.333333333333 3125 2708.333333333333C3250 2708.333333333333 3333.3333333333335 2625 3333.3333333333335 2500C3333.3333333333335 2375 3250 2291.6666666666665 3125 2291.6666666666665zM875.0000000000001 3125L1229.1666666666667 3750H3770.8333333333335L4125 3125H875.0000000000001z" />
    <glyph glyph-name="arrow-left-circle-outline-skip"
      unicode="&#xEA18;"
      horiz-adv-x="5000" d="M2500 4583.333333333333A2083.333333333333 2083.333333333333 0 0 0 4583.333333333334 2500A2083.333333333333 2083.333333333333 0 0 0 2500 416.6666666666661A2083.333333333333 2083.333333333333 0 0 0 416.6666666666667 2500A2083.333333333333 2083.333333333333 0 0 0 2500 4583.333333333333M2500 4166.666666666667C1581.25 4166.666666666667 833.3333333333334 3418.75 833.3333333333334 2500C833.3333333333334 1581.25 1581.25 833.333333333333 2500 833.333333333333C3418.75 833.333333333333 4166.666666666667 1581.25 4166.666666666667 2500C4166.666666666667 3418.75 3418.75 4166.666666666667 2500 4166.666666666667M3333.3333333333335 3333.333333333333V1666.6666666666665L2291.666666666667 2500M2083.3333333333335 3333.333333333333V1666.6666666666665H1666.6666666666667V3333.333333333333" />
    <glyph glyph-name="arrow-left-circle-outline"
      unicode="&#xEA19;"
      horiz-adv-x="5000" d="M4583.333333333334 2500A2083.333333333333 2083.333333333333 0 0 1 2500 4583.333333333333A2083.333333333333 2083.333333333333 0 0 1 416.6666666666667 2500A2083.333333333333 2083.333333333333 0 0 1 2500 416.6666666666661A2083.333333333333 2083.333333333333 0 0 1 4583.333333333334 2500M4166.666666666667 2500A1666.6666666666667 1666.6666666666667 0 0 0 2500 833.333333333333A1666.6666666666667 1666.6666666666667 0 0 0 833.3333333333334 2500A1666.6666666666667 1666.6666666666667 0 0 0 2500 4166.666666666667A1666.6666666666667 1666.6666666666667 0 0 0 4166.666666666667 2500M2916.666666666667 3541.6666666666665L1875 2500L2916.666666666667 1458.333333333333V3541.6666666666665z" />
    <glyph glyph-name="arrow-right-circle-outline-skip"
      unicode="&#xEA1A;"
      horiz-adv-x="5000" d="M2500 4583.333333333333A2083.333333333333 2083.333333333333 0 0 1 416.6666666666667 2500A2083.333333333333 2083.333333333333 0 0 1 2500 416.6666666666661A2083.333333333333 2083.333333333333 0 0 1 4583.333333333334 2500A2083.333333333333 2083.333333333333 0 0 1 2500 4583.333333333333M2500 4166.666666666667C3418.75 4166.666666666667 4166.666666666667 3418.75 4166.666666666667 2500C4166.666666666667 1581.25 3418.75 833.333333333333 2500 833.333333333333C1581.25 833.333333333333 833.3333333333334 1581.25 833.3333333333334 2500C833.3333333333334 3418.75 1581.25 4166.666666666667 2500 4166.666666666667M1666.6666666666667 3333.333333333333V1666.6666666666665L2708.3333333333335 2500M2916.666666666667 3333.333333333333V1666.6666666666665H3333.3333333333335V3333.333333333333" />
    <glyph glyph-name="arrow-right-circle-outline"
      unicode="&#xEA1B;"
      horiz-adv-x="5000" d="M416.6666666666667 2500A2083.333333333333 2083.333333333333 0 0 1 2500 416.6666666666661A2083.333333333333 2083.333333333333 0 0 1 4583.333333333334 2500A2083.333333333333 2083.333333333333 0 0 1 2500 4583.333333333333A2083.333333333333 2083.333333333333 0 0 1 416.6666666666667 2500M833.3333333333334 2500A1666.6666666666667 1666.6666666666667 0 0 0 2500 4166.666666666667A1666.6666666666667 1666.6666666666667 0 0 0 4166.666666666667 2500A1666.6666666666667 1666.6666666666667 0 0 0 2500 833.333333333333A1666.6666666666667 1666.6666666666667 0 0 0 833.3333333333334 2500M2083.3333333333335 1458.333333333333L3125 2500L2083.3333333333335 3541.6666666666665V1458.333333333333z" />
    <glyph glyph-name="assets"
      unicode="&#xEA1C;"
      horiz-adv-x="5000" d="M3303.1250000000005 3437.5C3280 3403.75 3252.291666666667 3368.333333333333 3216.4583333333335 3328.958333333333C3099.5833333333335 3197.708333333333 2909.791666666667 3031.0416666666665 2737.9166666666665 2874.7916666666665H2886.458333333333V1937.2916666666663H2663.1249999999995H2649.166666666666C2651.4583333333326 1920.2083333333333 2653.7499999999995 1902.5 2653.7499999999995 1885C2653.7499999999995 1760 2594.583333333333 1646.875 2499.9999999999995 1562.291666666666H3333.333333333333V3437.291666666666L3303.1250000000005 3437.5L3303.1250000000005 3437.5zM2291.666666666667 1145.833333333333H3333.3333333333335V104.1666666666661H2291.666666666667V1145.833333333333zM3854.1666666666674 1979.1666666666663H4895.833333333334V104.1666666666661H3854.1666666666674V1979.1666666666663zM3854.1666666666674 3437.5H4895.833333333334V2395.833333333333H3854.1666666666674V3437.5zM1666.6666666666667 2250C1618.1250000000002 2250 1572.9166666666667 2274.1666666666665 1545.8333333333335 2314.5833333333335L670.8333333333333 3612.2916666666674C625.8333333333333 3678.9583333333335 643.5416666666666 3769.7916666666674 710.2083333333334 3814.7916666666674C776.875 3859.7916666666674 867.5 3842.0833333333335 912.7083333333334 3775.4166666666674L1666.2500000000002 2657.7083333333335L2420.416666666667 3789.1666666666674C2465.2083333333335 3856.25 2555.2083333333335 3874.375 2622.7083333333335 3829.5833333333335C2690.0000000000005 3785 2707.916666666667 3694.375 2663.1250000000005 3627.2916666666674L1788.1250000000005 2314.7916666666665C1761.0416666666665 2274.375 1715.625 2250 1667.0833333333335 2250C1667.0833333333335 2250 1666.875 2250 1666.6666666666667 2250zM1958.3333333333337 1666.6666666666665H1375C1214.5833333333335 1666.6666666666665 1083.3333333333333 1797.708333333333 1083.3333333333333 1958.3333333333337V2395.833333333333C1083.3333333333333 2556.25 1214.5833333333333 2687.5 1375 2687.5H1958.3333333333333C2118.7499999999995 2687.5 2249.7916666666665 2556.0416666666665 2249.7916666666665 2395.833333333333V1958.3333333333337C2250.0000000000005 1797.708333333333 2118.75 1666.6666666666665 1958.3333333333337 1666.6666666666665zM1083.3333333333335 3562.5H500C339.5833333333333 3562.5 208.3333333333334 3693.75 208.3333333333334 3854.1666666666665V4291.666666666667C208.3333333333334 4452.083333333333 339.5833333333333 4583.333333333333 500 4583.333333333333H1083.3333333333333C1243.7499999999998 4583.333333333333 1375 4452.083333333333 1375 4291.666666666667V3854.1666666666665C1375 3693.75 1243.75 3562.5 1083.3333333333335 3562.5zM2833.3333333333335 3562.5H2250.0000000000005C2089.5833333333335 3562.5 1958.3333333333337 3693.75 1958.3333333333337 3854.1666666666665V4291.666666666667C1958.3333333333337 4452.083333333333 2089.5833333333335 4583.333333333333 2249.7916666666665 4583.333333333333H2833.125C2993.7500000000005 4583.333333333333 3124.791666666667 4452.083333333333 3124.791666666667 4291.666666666667V3854.1666666666665C3125 3693.75 2993.75 3562.5 2833.3333333333335 3562.5z" />
    <glyph glyph-name="auditing"
      unicode="&#xEA1D;"
      horiz-adv-x="5000" d="M3229.166666666667 4583.333333333333C2708.333958333333 4583.333333333333 2291.666666666667 4166.666145833333 2291.666666666667 3645.8333333333326C2291.666666666667 3125.000520833333 2708.333958333333 2708.333333333333 3229.166666666667 2708.333333333333C3416.6664583333336 2708.333333333333 3583.4147916666666 2770.670625 3729.248125 2854.0039583333332L4375 2208.251875L4666.748125 2500L4020.9960416666663 3145.7519583333333C4104.329375 3291.5851458333336 4166.666666666667 3458.3335208333333 4166.666666666667 3645.8333333333326C4166.666666666667 4166.666145833333 3749.999375 4583.333333333333 3229.166666666667 4583.333333333333zM833.3333333333334 4166.666666666667A416.6666666666667 416.6666666666667 0 0 1 416.6666666666667 3750L416.6666666666667 833.333333333333A416.6666666666667 416.6666666666667 0 0 1 833.3333333333334 416.6666666666661L3750 416.6666666666661A416.6666666666667 416.6666666666667 0 0 1 4166.666666666667 833.333333333333L4166.666666666667 1875L3666.5852083333334 2375.0814583333336C3541.585416666667 2312.581458333333 3395.833125 2291.6666666666665 3229.166666666667 2291.6666666666665C2479.1675 2291.6666666666665 1875 2895.8341666666665 1875 3645.8333333333326C1875 3833.3331458333337 1916.6667291666663 4000.0001666666662 1979.1666666666667 4166.666666666667L833.3333333333334 4166.666666666667zM3229.166666666667 4166.666666666667C3520.8331250000006 4166.666666666667 3750 3937.4997083333337 3750 3645.8333333333326C3750 3354.1669583333332 3520.8331250000006 3125 3229.166666666667 3125C2937.500208333334 3125 2708.3333333333335 3354.1669583333332 2708.3333333333335 3645.8333333333326C2708.3333333333335 3937.4997083333337 2937.500208333334 4166.666666666667 3229.166666666667 4166.666666666667zM2147.6237499999997 2233.0729166666665L2376.3020833333335 1962.48375L1403.4016875 810.9537499999997L835.7747499999999 1482.7474999999995L1064.453125 1753.3366666666666L1403.4016875 1354.1666666666665L2147.6237499999997 2233.0729166666665z" />
    <glyph glyph-name="auto-chart-type"
      unicode="&#xEA1E;"
      horiz-adv-x="5000" d="M1458.3333333333335 1666.6666666666665A416.6666666666667 416.6666666666667 0 0 1 2291.666666666667 1666.6666666666665A416.6666666666667 416.6666666666667 0 0 1 1458.3333333333335 1666.6666666666665M3125 1875A416.6666666666667 416.6666666666667 0 0 1 3958.3333333333335 1875A416.6666666666667 416.6666666666667 0 0 1 3125 1875M1250 3541.6666666666665A416.6666666666667 416.6666666666667 0 0 1 2083.3333333333335 3541.6666666666665A416.6666666666667 416.6666666666667 0 0 1 1250 3541.6666666666665M4583.333333333334 416.6666666666661L416.6666666666667 416.6666666666661L416.6666666666667 4583.333333333333L833.3333333333334 4583.333333333333L833.3333333333334 833.333333333333L4583.333333333334 833.333333333333zM2951.4583333333335 3308.3333333333335L2857.7083333333335 3079.375L2628.541666666667 2985.4166666666665L2857.7083333333335 2891.6666666666665L2951.4583333333335 2662.7083333333335L3045.2083333333335 2891.6666666666665L3274.3750000000005 2985.4166666666665L3045.2083333333335 3079.375zM4409.791666666667 4339.583333333333L4347.291666666667 4193.75L4201.458333333334 4131.25L4347.291666666667 4068.75L4409.791666666667 3922.9166666666674L4472.291666666667 4068.75L4618.125000000001 4131.25L4472.291666666667 4193.75zM4451.458333333334 2652.0833333333335L4638.750000000001 2839.5833333333335C4680.416666666667 2881.0416666666665 4680.416666666667 2943.75 4638.750000000001 2985.2083333333335L3753.3333333333335 3870.625L3420.0000000000005 3537.291666666667L4315.833333333334 2641.4583333333335C4347.291666666667 2610.625 4409.791666666667 2610.625 4451.458333333334 2652.0833333333335zM3034.5833333333335 3922.9166666666674C2993.1250000000005 3964.5833333333326 2993.1250000000005 4027.0833333333326 3034.5833333333335 4068.75L3222.0833333333335 4256.25C3263.75 4297.916666666667 3326.2500000000005 4297.916666666667 3367.916666666667 4256.25L3753.3333333333335 3870.8333333333326L3940.8333333333335 4027.0833333333326L3711.4583333333335 4214.583333333333L3742.7083333333335 4506.25L3451.041666666667 4475L3263.75 4704.166666666667L3076.4583333333335 4475L2784.7916666666665 4506.25L2816.0416666666665 4214.583333333333L2586.666666666667 4027.0833333333326L2816.0416666666665 3839.5833333333326L2784.7916666666665 3548.125L3076.4583333333335 3579.1666666666665L3263.75 3349.7916666666665L3420.0000000000005 3537.2916666666665L3034.5833333333335 3922.9166666666674z" />
    <glyph glyph-name="auto-complete-click"
      unicode="&#xEA1F;"
      horiz-adv-x="5000" d="M1258.536875 2064.9591666666665A307.6662291666667 307.6662291666667 0 0 1 950.8706458333332 1757.2927083333334V526.6279166666664H1258.536875V1141.9604166666668H1566.2030625000002V526.6279166666664H1873.8692916666669V1757.2927083333334A307.6662291666667 307.6662291666667 0 0 1 1566.2030625000002 2064.9591666666665H1258.536875M1258.536875 1757.2927083333334H1566.2030625000002V1449.626666666666H1258.536875zM2560.736666666667 2503.674791666667H4296.753541666667A248.0024166666667 248.0024166666667 0 0 0 4544.7560416666665 2255.6725V519.6554166666665A248.0024166666667 248.0024166666667 0 0 0 4296.753541666667 271.6529166666669H2560.736666666667A248.0024166666667 248.0024166666667 0 0 0 2312.734166666667 519.6554166666665V2255.6724999999997A248.0024166666667 248.0024166666667 0 0 0 2560.736666666667 2503.6747916666664M3800.7485416666673 1573.6656249999992V1759.6674999999996A248.0024166666667 248.0024166666667 0 0 1 3552.746041666667 2007.6699999999996H3056.741458333334V767.6579166666661H3552.746041666667A248.0024166666667 248.0024166666667 0 0 1 3800.7485416666673 1015.6604166666656V1201.6620833333322C3800.7485416666673 1300.8633333333323 3713.9479166666674 1387.664166666666 3614.7468750000007 1387.664166666666C3713.9479166666674 1387.664166666666 3800.7485416666673 1474.4649999999992 3800.7485416666673 1573.6656249999992M3552.746041666667 1015.6604166666656H3304.743958333334V1263.6629166666658H3552.746041666667V1015.6604166666656M3552.746041666667 1511.6649999999995H3304.743958333334V1759.6674999999996H3552.746041666667zM877.9634583333333 4463.814854166667L548.5199583333333 4279.326729166667L733.0081666666667 4608.770166666666L548.5199583333333 4938.212589583333L877.9634583333333 4753.7245L1207.4062708333333 4938.212589583333L1022.9180625000002 4608.770166666666L1207.4062708333333 4279.326729166667L877.9634583333333 4463.814854166667M2459.289583333333 3172.3980416666664L2788.733125 3356.8858124999997L2604.244791666667 3027.4430625L2788.733125 2697.9995833333332L2459.289583333333 2882.4875L2129.8470833333336 2697.9995833333332L2314.3352083333334 3027.4430625L2129.8470833333336 3356.8858124999997L2459.289583333333 3172.3980416666664M2788.733125 4938.212589583333L2604.244791666667 4608.770166666666L2788.733125 4279.326729166667L2459.289583333333 4463.814854166667L2129.8470833333336 4279.326729166667L2314.3352083333334 4608.770166666666L2129.8470833333336 4938.212589583333L2459.289583333333 4753.7245L2788.733125 4938.212589583333M1647.5422291666669 3517.6544583333334L1969.0787291666668 3839.1904375L1689.7110625 4118.55875L1368.1748750000002 3797.0217916666666L1647.5422291666669 3517.6544583333334M1783.2729375000001 4241.111208333334L2091.6316666666667 3932.7526875C2143.024166666667 3883.9961458333337 2143.024166666667 3798.339708333333 2091.6316666666667 3746.946375L553.7913958333334 2209.106875C502.3983125 2157.71375 416.7427500000001 2157.71375 367.98525 2209.106875L59.62645 2517.4649999999997C8.2333979166667 2566.2216666666664 8.2333979166667 2651.8774999999996 59.62645 2703.270833333333L1597.4671250000001 4241.111208333334C1648.8598541666668 4292.5039375 1734.5150625000003 4292.5039375 1783.2729375000001 4241.111208333334zM4207.792291666668 2708.40875C4151.612916666667 2681.4427083333335 4084.1977083333336 2705.0379166666667 4058.355416666667 2761.217291666667L3813.41375 3293.7965000000004L3531.394166666667 3066.832354166667C3512.294166666667 3051.1021458333335 3488.697916666667 3042.1134791666664 3461.7318750000004 3042.1134791666664A112.3584958333334 112.3584958333334 0 0 0 3349.3733333333334 3154.4719791666666V4839.84945625A112.3584958333334 112.3584958333334 0 0 0 3461.7318750000004 4952.207954166666C3488.697916666667 4952.207954166666 3514.540416666667 4942.095704166667 3533.641041666667 4926.3655L3534.7660416666677 4927.489041666667L4825.7664583333335 3844.3531041666665C4874.080833333334 3803.9039791666664 4879.6987500000005 3733.1181458333326 4840.372708333334 3685.9275625C4823.518541666667 3665.7029791666664 4799.923750000001 3652.220020833334 4776.328541666668 3647.7256875L4421.275625000001 3578.0633958333333L4668.464375000001 3046.6077291666666C4697.677500000001 2990.428479166667 4670.710208333335 2924.136916666667 4614.532291666668 2898.2947916666667z" />
    <glyph glyph-name="auto-complete"
      unicode="&#xEA20;"
      horiz-adv-x="5000" d="M1258.536875 2064.9591666666665A307.6662291666667 307.6662291666667 0 0 1 950.8706458333332 1757.2927083333334V526.6279166666664H1258.536875V1141.9604166666668H1566.2030625000002V526.6279166666664H1873.8692916666669V1757.2927083333334A307.6662291666667 307.6662291666667 0 0 1 1566.2030625000002 2064.9591666666665H1258.536875M1258.536875 1757.2927083333334H1566.2030625000002V1449.626666666666H1258.536875zM2560.736666666667 2503.674791666667H4296.753541666667A248.0024166666667 248.0024166666667 0 0 0 4544.7560416666665 2255.6725V519.6554166666665A248.0024166666667 248.0024166666667 0 0 0 4296.753541666667 271.6529166666669H2560.736666666667A248.0024166666667 248.0024166666667 0 0 0 2312.734166666667 519.6554166666665V2255.6724999999997A248.0024166666667 248.0024166666667 0 0 0 2560.736666666667 2503.6747916666664M3800.7485416666673 1573.6656249999992V1759.6674999999996A248.0024166666667 248.0024166666667 0 0 1 3552.746041666667 2007.6699999999996H3056.741458333334V767.6579166666661H3552.746041666667A248.0024166666667 248.0024166666667 0 0 1 3800.7485416666673 1015.6604166666656V1201.6620833333322C3800.7485416666673 1300.8633333333323 3713.9479166666674 1387.664166666666 3614.7468750000007 1387.664166666666C3713.9479166666674 1387.664166666666 3800.7485416666673 1474.4649999999992 3800.7485416666673 1573.6656249999992M3552.746041666667 1015.6604166666656H3304.743958333334V1263.6629166666658H3552.746041666667V1015.6604166666656M3552.746041666667 1511.6649999999995H3304.743958333334V1759.6674999999996H3552.746041666667zM877.9634583333333 4463.814854166667L548.5199583333333 4279.326729166667L733.0081666666667 4608.770166666666L548.5199583333333 4938.212589583333L877.9634583333333 4753.7245L1207.4062708333333 4938.212589583333L1022.9180625000002 4608.770166666666L1207.4062708333333 4279.326729166667L877.9634583333333 4463.814854166667M2459.289583333333 3172.3980416666664L2788.733125 3356.8858124999997L2604.244791666667 3027.4430625L2788.733125 2697.9995833333332L2459.289583333333 2882.4875L2129.8470833333336 2697.9995833333332L2314.3352083333334 3027.4430625L2129.8470833333336 3356.8858124999997L2459.289583333333 3172.3980416666664M2788.733125 4938.212589583333L2604.244791666667 4608.770166666666L2788.733125 4279.326729166667L2459.289583333333 4463.814854166667L2129.8470833333336 4279.326729166667L2314.3352083333334 4608.770166666666L2129.8470833333336 4938.212589583333L2459.289583333333 4753.7245L2788.733125 4938.212589583333M1647.5422291666669 3517.6544583333334L1969.0787291666668 3839.1904375L1689.7110625 4118.55875L1368.1748750000002 3797.0217916666666L1647.5422291666669 3517.6544583333334M1783.2729375000001 4241.111208333334L2091.6316666666667 3932.7526875C2143.024166666667 3883.9961458333337 2143.024166666667 3798.339708333333 2091.6316666666667 3746.946375L553.7913958333334 2209.106875C502.3983125 2157.71375 416.7427500000001 2157.71375 367.98525 2209.106875L59.62645 2517.4649999999997C8.2333979166667 2566.2216666666664 8.2333979166667 2651.8774999999996 59.62645 2703.270833333333L1597.4671250000001 4241.111208333334C1648.8598541666668 4292.5039375 1734.5150625000003 4292.5039375 1783.2729375000001 4241.111208333334z" />
    <glyph glyph-name="auto-fix"
      unicode="&#xEA21;"
      horiz-adv-x="5000" d="M1562.5 3833.3333333333326L1041.6666666666667 3541.6666666666665L1333.3333333333335 4062.5L1041.6666666666667 4583.333333333333L1562.5 4291.666666666667L2083.3333333333335 4583.333333333333L1791.6666666666667 4062.5L2083.3333333333335 3541.6666666666665L1562.5 3833.3333333333326M4062.5 1791.6666666666665L4583.333333333334 2083.333333333333L4291.666666666667 1562.5L4583.333333333334 1041.6666666666665L4062.5 1333.333333333333L3541.666666666667 1041.6666666666665L3833.3333333333326 1562.5L3541.666666666667 2083.333333333333L4062.5 1791.6666666666665M4583.333333333334 4583.333333333333L4291.666666666667 4062.5L4583.333333333334 3541.6666666666665L4062.5 3833.3333333333326L3541.666666666667 3541.6666666666665L3833.3333333333326 4062.5L3541.666666666667 4583.333333333333L4062.5 4291.666666666667L4583.333333333334 4583.333333333333M2779.166666666667 2337.5L3287.5 2845.8333333333335L2845.8333333333335 3287.5L2337.5000000000005 2779.1666666666665L2779.166666666667 2337.5M2993.75 3481.25L3481.2500000000005 2993.75C3562.5000000000005 2916.6666666666665 3562.5000000000005 2781.25 3481.2500000000005 2700L1050 268.75C968.7500000000002 187.4999999999991 833.3333333333334 187.4999999999991 756.25 268.75L268.75 756.25C187.5 833.333333333333 187.5 968.7499999999995 268.75 1049.9999999999995L2700.0000000000005 3481.25C2781.25 3562.5 2916.666666666667 3562.5 2993.75 3481.25z" />
    <glyph glyph-name="auto-join"
      unicode="&#xEA22;"
      horiz-adv-x="5000" d="M2762.5529166666665 2486.6785416666667A1179.1470208333333 1179.1470208333333 0 0 1 1583.4056666666668 1307.5318750000001A1179.1470208333333 1179.1470208333333 0 0 1 2762.5529166666665 128.3847916666664C2937.7404166666665 128.3847916666664 3109.558958333333 168.8125 3267.9014583333333 242.9304166666671C3426.244166666667 168.8125 3598.0627083333334 128.3847916666664 3773.2502083333334 128.3847916666664A1179.1470208333333 1179.1470208333333 0 0 1 4952.397291666667 1307.5318750000001A1179.1470208333333 1179.1470208333333 0 0 1 3773.2502083333334 2486.678541666667C3598.0627083333334 2486.678541666667 3426.244166666667 2446.250625 3267.9014583333333 2372.1331250000003C3109.558958333333 2446.250625 2937.7404166666665 2486.678541666667 2762.5529166666665 2486.678541666667M2762.5529166666665 2149.7795833333334C2819.825625 2149.7795833333334 2875.414166666667 2144.7254166666667 2931.0025 2132.93375C2715.387083333333 1912.2647916666667 2594.103125 1615.7933333333335 2594.103125 1307.5306250000003C2594.103125 999.2681250000006 2715.387083333333 702.7966666666662 2931.0025 483.8122916666671C2875.414166666667 472.022708333333 2819.825625 465.2831249999999 2762.5529166666665 465.2831249999999A842.2478750000001 842.2478750000001 0 0 0 1920.3048333333331 1307.5318750000001A842.2478750000001 842.2478750000001 0 0 0 2762.5529166666665 2149.779583333333M3773.2502083333334 2149.779583333333A842.2478750000001 842.2478750000001 0 0 0 4615.498333333334 1307.5318750000001A842.2478750000001 842.2478750000001 0 0 0 3773.2502083333334 465.2837499999996C3715.9775 465.2837499999996 3660.388958333333 470.3379166666664 3604.800625 482.1295833333334C3820.4160416666664 702.7983333333332 3941.6997916666664 999.2697916666666 3941.6997916666664 1307.5324999999998C3941.6997916666664 1615.7949999999996 3820.4160416666664 1912.26625 3604.800625 2131.2510416666664C3660.388958333333 2143.040625 3715.9775 2149.780208333333 3773.2502083333334 2149.780208333333M3267.9014583333333 1981.3308333333327C3480.1479166666663 1821.3037499999996 3604.800625 1571.9981249999996 3604.800625 1307.5322916666664C3604.800625 1043.0664583333332 3480.1479166666663 793.7612499999996 3267.9014583333333 633.7341666666662C3055.6552083333336 793.7612499999996 2931.0025 1043.0664583333323 2931.0025 1307.5322916666664C2931.0025 1571.9981249999996 3055.6552083333336 1821.3037499999996 3267.9014583333333 1981.3308333333327zM909.1467916666666 4488.047729166667L566.9994166666668 4296.445104166667L758.6019375000001 4638.592645833333L566.9994166666668 4980.740172916667L909.1467916666666 4789.1375625L1251.2945 4980.740172916667L1059.6916666666668 4638.592645833333L1251.2945 4296.445104166667L909.1467916666666 4488.047729166667M2551.4552083333333 3146.8293541666662L2893.603333333333 3338.431958333333L2702.0004166666663 2996.2844375L2893.603333333333 2654.136875L2551.4552083333333 2845.7395833333335L2209.3077083333333 2654.136875L2400.910625 2996.2844375L2209.3077083333333 3338.4319583333336L2551.4552083333333 3146.829354166667M2893.6033333333335 4980.740172916667L2702.0004166666668 4638.592645833333L2893.6033333333335 4296.445104166667L2551.4552083333338 4488.047729166667L2209.3077083333337 4296.445104166667L2400.910625 4638.592645833333L2209.3077083333337 4980.740172916667L2551.4552083333338 4789.1375625L2893.6033333333335 4980.740172916667M1708.4038333333333 3505.3999791666665L2042.3396458333332 3839.336L1752.1986666666667 4129.477104166666L1418.2625416666667 3795.541125L1708.4038333333333 3505.3999791666665M1849.3685 4256.756L2169.6185416666667 3936.5059166666665C2222.99375 3885.8680833333337 2222.99375 3796.9097291666662 2169.6185416666667 3743.5347083333336L572.4738125 2146.3897916666665C519.0988125 2093.0147916666665 430.1405208333333 2093.0147916666665 379.50275 2146.3897916666665L59.25228125 2466.64C5.8772604166667 2517.2777083333335 5.8772604166667 2606.2364583333333 59.25228125 2659.6110416666666L1656.3973958333333 4256.756C1709.7724375000003 4310.131020833333 1798.7306875000002 4310.131020833333 1849.3685 4256.756z" />
    <glyph glyph-name="auto-reload"
      unicode="&#xEA23;"
      horiz-adv-x="5000" d="M3719.5833333333335 3927.9166666666674C3380.833333333334 4267.916666666667 2912.9166666666665 4479.166666666667 2395.8333333333335 4479.166666666667C1361.875 4479.166666666667 520.8333333333334 3637.9166666666665 520.8333333333334 2604.1666666666665H937.5C937.5 3408.333333333333 1591.875 4062.5 2395.8333333333335 4062.5C2798.1250000000005 4062.5 3159.5833333333335 3896.0416666666665 3423.1250000000005 3631.4583333333326L2812.5 3020.833333333333H4270.833333333334V4479.166666666667L3719.5833333333335 3927.9166666666674zM3854.1666666666674 2604.1666666666665C3854.1666666666674 1800.208333333333 3199.791666666667 1145.833333333333 2395.8333333333335 1145.833333333333C1993.5416666666663 1145.833333333333 1632.0833333333333 1312.2916666666665 1368.3333333333333 1576.666666666667L1979.1666666666667 2187.5H520.8333333333334V729.1666666666661L1072.0833333333333 1280.4166666666665C1411.0416666666667 940.4166666666666 1878.7500000000005 729.1666666666661 2395.8333333333335 729.1666666666661C3429.791666666667 729.1666666666661 4270.833333333334 1570.208333333333 4270.833333333334 2604.1666666666665H3854.1666666666674zM2187.5 3416.666666666667L2187.5 2352.2916666666665L3168.7500000000005 1770.833333333333L3333.3333333333335 2037.4999999999995L2500 2531.25L2500 3416.666666666667" />
    <glyph glyph-name="axis-dimension"
      unicode="&#xEA24;"
      horiz-adv-x="5000" d="M2604.166666666667 2395.833333333333L3645.8333333333335 2395.833333333333L3645.8333333333335 1979.1666666666663L3020.8333333333335 1979.1666666666663L3020.8333333333335 1354.1666666666665L2604.166666666667 1354.1666666666665L2604.166666666667 2395.833333333333M1145.8333333333335 2395.833333333333L2187.5 2395.833333333333L2187.5 1354.1666666666665L1770.8333333333335 1354.1666666666665L1770.8333333333335 1979.1666666666663L1145.8333333333335 1979.1666666666663L1145.8333333333335 2395.833333333333M1770.8333333333335 3854.1666666666665L2187.5 3854.1666666666665L2187.5 2812.5L1145.8333333333335 2812.5L1145.8333333333335 3229.1666666666665L1770.8333333333335 3229.1666666666665L1770.8333333333335 3854.1666666666665M3645.8333333333335 3229.1666666666665L3645.8333333333335 2812.5L2604.166666666667 2812.5L2604.166666666667 3854.1666666666665L3020.8333333333335 3854.1666666666665L3020.8333333333335 3229.1666666666665zM937.5 520.833333333333C1284.7916666666667 520.833333333333 1562.5 798.75 1562.5 1145.833333333333S1284.7916666666667 1770.833333333333 937.5 1770.833333333333S312.5 1492.9166666666665 312.5 1145.833333333333S590.2083333333334 520.833333333333 937.5 520.833333333333zM3854.1666666666674 1770.833333333333L3229.166666666667 520.833333333333L4479.166666666667 520.833333333333zM312.5 4687.5H1562.5V3437.5H312.5V4687.5zM3229.166666666667 4687.5V3437.5H4479.166666666667V4687.5H3229.166666666667zM4062.5 3854.1666666666665H3645.8333333333335V4270.833333333333H4062.5V3854.1666666666665z" />
    <glyph glyph-name="axis"
      unicode="&#xEA25;"
      horiz-adv-x="5000" d="M1250 4791.666666666667V208.333333333333H3750V4791.666666666667H1250zM3333.3333333333335 4218.75H2708.3333333333335V3906.25H3333.3333333333335V3541.6666666666665H2291.666666666667V3125H3333.3333333333335V2760.4166666666665H2708.3333333333335V2447.9166666666665H3333.3333333333335V2083.333333333333H2291.666666666667V1666.6666666666665H3333.3333333333335V1302.083333333333H2708.3333333333335V989.583333333333H3333.3333333333335V625H1666.6666666666667V4375H3333.3333333333335V4218.75z" />
    <glyph glyph-name="backward-fast"
      unicode="&#xEA26;"
      horiz-adv-x="5000" d="M3835.4166666666674 3456.25L3541.666666666667 3750L2291.666666666667 2500L3541.666666666667 1250L3835.4166666666674 1543.75L2881.25 2500L3835.4166666666674 3456.25M2585.416666666667 3456.25L2291.666666666667 3750L1041.6666666666667 2500L2291.666666666667 1250L2585.416666666667 1543.75L1631.25 2500L2585.416666666667 3456.25z" />
    <glyph glyph-name="backward"
      unicode="&#xEA27;"
      horiz-adv-x="5000" d="M3210.416666666667 1545.8333333333335L2256.25 2500L3210.416666666667 3456.25L2916.666666666667 3750L1666.6666666666667 2500L2916.666666666667 1250L3210.416666666667 1545.8333333333335z" />
    <glyph glyph-name="bare-arrow-down"
      unicode="&#xEA28;"
      horiz-adv-x="5000" d="M625 3750L2500 1250L4375 3750z" />
    <glyph glyph-name="bare-arrow-left"
      unicode="&#xEA29;"
      horiz-adv-x="5000" d="M3645.8333333333335 4375L1145.8333333333335 2500L3645.8333333333335 625z" />
    <glyph glyph-name="bare-arrow-right"
      unicode="&#xEA2A;"
      horiz-adv-x="5000" d="M1250 625L3750 2500L1250 4375V625z" />
    <glyph glyph-name="bare-arrow-up"
      unicode="&#xEA2B;"
      horiz-adv-x="5000" d="M4270.833333333334 1354.1666666666665L2395.8333333333335 3854.1666666666665L520.8333333333334 1354.1666666666665z" />
    <glyph glyph-name="book"
      unicode="&#xEA2C;"
      horiz-adv-x="5000" d="M4185.416666666667 4002.9166666666674C3975.8333333333335 4110.833333333333 3712.0833333333335 4166.666666666667 3425.8333333333335 4166.666666666667S2876.0416666666665 4110.833333333333 2666.2499999999995 4002.9166666666674C2602.2916666666665 3970 2555.625 3915.8333333333326 2500 3868.9583333333326C2444.375 3915.625 2397.7083333333335 3970 2333.541666666667 4002.9166666666665C2123.9583333333335 4110.833333333333 1860.2083333333337 4166.666666666667 1574.1666666666667 4166.666666666667S1024.1666666666667 4110.833333333333 814.5833333333334 4002.9166666666674C604.7916666666667 3895.2083333333326 416.6666666666667 3713.125 416.6666666666667 3452.2916666666665V1071.2499999999995V833.333333333333H648.125H2083.3333333333335C2083.3333333333335 718.333333333333 2269.7916666666665 625 2500 625S2916.666666666667 718.333333333333 2916.666666666667 833.333333333333H4351.875H4583.333333333334V1071.4583333333335V3452.2916666666665C4583.333333333334 3713.125 4395.208333333334 3895.2083333333326 4185.416666666667 4002.9166666666674zM1565.625 1430.833333333333C1272.7083333333335 1430.833333333333 1012.7083333333334 1362.291666666666 833.3333333333333 1253.3333333333326V3496.25C833.3333333333334 3497.2916666666665 853.125 3563.125 985.8333333333334 3633.3333333333326C1118.75 3703.5416666666674 1330.4166666666667 3754.375 1565.625 3754.375S2012.5000000000005 3703.5416666666674 2145.2083333333335 3633.3333333333326C2277.916666666667 3563.125 2297.7083333333335 3497.291666666667 2297.7083333333335 3496.25V1253.3333333333326C2118.541666666667 1362.291666666667 1858.5416666666663 1430.833333333333 1565.625 1430.833333333333zM4168.333333333333 1240.208333333333C3989.1666666666674 1349.7916666666665 3729.375 1418.5416666666665 3436.6666666666665 1418.5416666666665S2884.1666666666665 1349.5833333333335 2704.9999999999995 1240.208333333333V3494.791666666667C2704.9999999999995 3496.041666666667 2724.7916666666665 3562.0833333333335 2857.4999999999995 3632.7083333333326C2990.208333333333 3703.3333333333335 3201.666666666666 3754.375 3436.6666666666665 3754.375S3883.125 3703.3333333333326 4015.8333333333335 3632.7083333333326C4148.541666666667 3562.083333333333 4168.333333333333 3496.041666666667 4168.333333333333 3494.791666666667V1240.208333333333z" />
    <glyph glyph-name="bookmark-default"
      unicode="&#xEA2D;"
      horiz-adv-x="5000" d="M3958.3333333333335 4583.333333333333H1875C1645 4583.333333333333 1458.3333333333335 4376.041666666667 1458.3333333333335 4120.208333333333V3333.333333333333H1875V4120.208333333333H3958.3333333333335V1111.2499999999995L2916.666666666667 1615.833333333333L1875 1111.2499999999995V1875H1458.3333333333335V416.6666666666661L2916.666666666667 1111.2499999999995L4375 416.6666666666661V4120.208333333333C4375 4377.291666666667 4187.500000000001 4583.333333333333 3958.3333333333335 4583.333333333333zM2261.875 1614.583333333333L2261.875 2227.083333333333L833.3333333333334 2227.083333333333L833.3333333333334 2981.25L2261.875 2981.25L2261.875 3593.75L3333.3333333333335 2604.1666666666665L2261.875 1614.583333333333" />
    <glyph glyph-name="bookmark-folder"
      unicode="&#xEA2E;"
      horiz-adv-x="5000" d="M4166.666666666667 3750H2500L2083.3333333333335 4166.666666666667H833.3333333333334C602.0833333333333 4166.666666666667 416.6666666666667 3981.25 416.6666666666667 3750V1250C416.6666666666667 1020 603.3333333333334 833.333333333333 833.3333333333334 833.333333333333H4166.666666666667C4396.666666666667 833.333333333333 4583.333333333334 1020 4583.333333333334 1250V3333.333333333333C4583.333333333334 3564.583333333333 4395.833333333334 3750 4166.666666666667 3750zM3229.166666666667 1250L2500 1562.5L1770.8333333333335 1250V2916.6666666666665C1770.8333333333335 3031.6666666666665 1864.1666666666667 3125 1979.1666666666667 3125H3020.8333333333335C3135.416666666667 3125 3229.166666666667 3032.2916666666665 3229.166666666667 2916.6666666666665V1250z" />
    <glyph glyph-name="bookmark-home"
      unicode="&#xEA2F;"
      horiz-adv-x="5000" d="M2395.8333333333335 4687.5L122.9166666666667 2831.458333333333H560.8333333333333V1145.833333333333H1354.1666666666667V520.833333333333L2395.8333333333335 937.5L3437.5 520.833333333333V1145.833333333333H4230.625V2831.458333333333H4668.958333333333L2395.8333333333335 4687.5zM3771.875000000001 1520.416666666666H3437.5V2742.916666666666C3437.5 2897.291666666666 3303.1250000000005 3020.833333333333 3139.5833333333335 3020.833333333333H1651.8750000000002C1487.5 3020.833333333333 1354.1666666666667 2896.4583333333335 1354.1666666666667 2742.9166666666665V1520.416666666667H1019.7916666666666V3035.416666666667L2395.8333333333335 4159.166666666667L3771.875000000001 3035.416666666667V1520.416666666666z" />
    <glyph glyph-name="bookmark-set-default"
      unicode="&#xEA30;"
      horiz-adv-x="5000" d="M1488.3333333333335 1718.75L1488.3333333333335 2266.6666666666665L416.6666666666667 2266.6666666666665L416.6666666666667 2941.6666666666665L1488.3333333333335 2941.6666666666665L1488.3333333333335 3489.583333333333L2291.666666666667 2604.1666666666665L1488.3333333333335 1718.75M2976.041666666667 1111.2499999999995L2083.3333333333335 1615.833333333333L1190.4166666666667 1111.2499999999995V1875H833.3333333333334V416.6666666666661L2083.3333333333335 1111.2499999999995L3333.3333333333335 416.6666666666661V1583.5416666666665C3203.541666666667 1609.9999999999995 3083.541666666667 1661.6666666666665 2976.041666666667 1731.2499999999995V1111.2499999999995zM3333.3333333333335 4120.208333333333C3333.3333333333335 4377.291666666667 3172.7083333333335 4583.333333333333 2976.041666666667 4583.333333333333H1190.4166666666667C993.3333333333334 4583.333333333333 833.3333333333334 4376.041666666667 833.3333333333334 4120.208333333333V3333.333333333333H1190.4166666666667V4120.208333333333H2976.041666666667V3477.083333333333C3083.541666666667 3546.6666666666665 3203.541666666667 3598.541666666667 3333.3333333333335 3624.7916666666665V4120.208333333333zM3541.666666666667 3645.8333333333326C3470.2083333333335 3645.8333333333326 3400.6250000000005 3638.5416666666665 3333.3333333333335 3624.7916666666665C3203.541666666667 3598.5416666666665 3083.541666666667 3546.6666666666665 2976.041666666667 3477.083333333333C2690.0000000000005 3291.458333333333 2500 2970.625 2500 2604.1666666666665S2690.0000000000005 1916.875 2976.041666666667 1731.2499999999995C3083.541666666667 1661.6666666666665 3203.541666666667 1609.9999999999995 3333.3333333333335 1583.5416666666665C3400.6250000000005 1569.9999999999995 3470.2083333333335 1562.5 3541.666666666667 1562.5C4117.083333333334 1562.5 4583.333333333334 2028.7499999999995 4583.333333333334 2604.1666666666665C4583.333333333334 3179.375 4117.083333333334 3645.8333333333326 3541.666666666667 3645.8333333333326zM3389.791666666667 2042.7083333333333L3333.3333333333335 2099.1666666666665L3235.4166666666665 2197.0833333333335L2826.25 2606.0416666666665L2976.0416666666665 2755.833333333333L3047.2916666666665 2827.0833333333335L3333.333333333333 2541.041666666667L3400.4166666666665 2473.9583333333335L4165.416666666667 3165.8333333333335L4375 2933.9583333333335L3389.791666666667 2042.7083333333333z" />
    <glyph glyph-name="bookmark"
      unicode="&#xEA31;"
      horiz-adv-x="5000" d="M3541.666666666667 1250L2500 1704.1666666666665L1458.3333333333335 1250V3958.3333333333326H3541.666666666667M3541.666666666667 4375H1458.3333333333335A416.6666666666667 416.6666666666667 0 0 1 1041.6666666666667 3958.3333333333326V625L2500 1250L3958.3333333333335 625V3958.3333333333326C3958.3333333333335 4189.583333333333 3770.8333333333335 4375 3541.666666666667 4375z" />
    <glyph glyph-name="books"
      unicode="&#xEA32;"
      horiz-adv-x="5625" d="M1093.75 4375H156.25C70.3125 4375 0 4304.6875 0 4218.75V781.25C0 695.3125 70.3125 625 156.25 625H1093.75C1179.6875 625 1250 695.3125 1250 781.25V4218.75C1250 4304.6875 1179.6875 4375 1093.75 4375zM937.5 3437.5H312.5V3750H937.5V3437.5zM2656.25 4375H1718.75C1632.8125 4375 1562.5 4304.6875 1562.5 4218.75V781.25C1562.5 695.3125 1632.8125 625 1718.75 625H2656.25C2742.1875 625 2812.5 695.3125 2812.5 781.25V4218.75C2812.5 4304.6875 2742.1875 4375 2656.25 4375zM2500 3437.5H1875V3750H2500V3437.5zM3735.78125 4133.4375L2898.5937499999995 3711.5625C2821.875 3672.96875 2790.625 3578.4375 2829.3749999999995 3501.71875L4235.46875 710.9375C4274.0625 634.21875 4368.59375 602.96875 4445.3125 641.7187499999991L5282.5 1063.593749999999C5359.21875 1102.187499999999 5390.46875 1196.718749999999 5351.71875 1273.437499999999L3945.624999999999 4064.218749999999C3907.031249999999 4140.937499999999 3812.499999999999 4172.187499999999 3735.781249999999 4133.437499999999z" />
    <glyph glyph-name="boolean-field"
      unicode="&#xEA33;"
      horiz-adv-x="5000" d="M971.4583333333334 1666.6666666666665V2356.25L439.1666666666667 3350.625H876.4583333333335L1046.25 2945.8333333333335C1098.75 2823.3333333333335 1136.2500000000002 2733.3333333333335 1176.25 2623.5416666666665H1181.25C1218.75 2728.5416666666665 1258.75 2826.0416666666665 1308.75 2945.8333333333335L1478.5416666666667 3350.625H1905.8333333333333L1351.0416666666667 2368.7499999999995V1666.6666666666665H971.4583333333334zM3127.5000000000005 1666.6666666666665V3350.625H3572.2916666666665L3922.2916666666665 2733.5416666666665C4022.0833333333326 2556.0416666666665 4119.583333333333 2346.25 4197.083333333333 2156.25H4202.083333333333C4179.583333333333 2378.541666666667 4171.875 2606.0416666666665 4171.875 2860.8333333333335V3350.625H4521.875V1666.6666666666665H4121.874999999999L3762.0833333333326 2316.25C3662.2916666666665 2496.25 3549.583333333333 2713.5416666666665 3469.7916666666665 2910.8333333333335H3459.7916666666665C3472.5 2686.0416666666665 3477.2916666666665 2448.541666666667 3477.2916666666665 2173.75V1666.6666666666665H3127.5000000000005zM2291.666666666667 3958.3333333333326H2708.3333333333335V1041.6666666666665H2291.666666666667V3958.3333333333326z" />
    <glyph glyph-name="border-bottom"
      unicode="&#xEA34;"
      horiz-adv-x="5000" d="M1041.6666666666667 1875H625V1458.333333333333H1041.6666666666667M625 625H4375V1041.6666666666665H625M1041.6666666666667 2708.333333333333H625V2291.6666666666665H1041.6666666666667M3958.3333333333335 3125H4375V3541.6666666666665H3958.3333333333335M3958.3333333333335 3958.3333333333326H4375V4375H3958.3333333333335M1041.6666666666667 3541.6666666666665H625V3125H1041.6666666666667M3958.3333333333335 1458.333333333333H4375V1875H3958.3333333333335M3958.3333333333335 2291.6666666666665H4375V2708.333333333333H3958.3333333333335M3541.666666666667 4375H3125V3958.3333333333326H3541.666666666667M2708.3333333333335 4375H2291.666666666667V3958.3333333333326H2708.3333333333335M3541.666666666667 2708.333333333333H3125V2291.6666666666665H3541.666666666667M2708.3333333333335 3541.6666666666665H2291.666666666667V3125H2708.3333333333335M1041.6666666666667 4375H625V3958.3333333333326H1041.6666666666667M2708.3333333333335 2708.333333333333H2291.666666666667V2291.6666666666665H2708.3333333333335M1875 4375H1458.3333333333335V3958.3333333333326H1875M2708.3333333333335 1875H2291.666666666667V1458.333333333333H2708.3333333333335M1875 2708.333333333333H1458.3333333333335V2291.6666666666665H1875V2708.333333333333z" />
    <glyph glyph-name="border-left"
      unicode="&#xEA35;"
      horiz-adv-x="5000" d="M3125 3958.3333333333326H3541.666666666667V4375H3125M3125 2291.6666666666665H3541.666666666667V2708.333333333333H3125M3958.3333333333335 625H4375V1041.6666666666665H3958.3333333333335M3958.3333333333335 2291.6666666666665H4375V2708.333333333333H3958.3333333333335M3958.3333333333335 3958.3333333333326H4375V4375H3958.3333333333335M3958.3333333333335 1458.333333333333H4375V1875H3958.3333333333335M3125 625H3541.666666666667V1041.6666666666665H3125M3958.3333333333335 3125H4375V3541.6666666666665H3958.3333333333335M625 625H1041.6666666666667V4375H625M1458.3333333333335 2291.6666666666665H1875V2708.333333333333H1458.3333333333335M1458.3333333333335 3958.3333333333326H1875V4375H1458.3333333333335M1458.3333333333335 625H1875V1041.6666666666665H1458.3333333333335M2291.666666666667 2291.6666666666665H2708.3333333333335V2708.333333333333H2291.666666666667M2291.666666666667 3125H2708.3333333333335V3541.6666666666665H2291.666666666667M2291.666666666667 3958.3333333333326H2708.3333333333335V4375H2291.666666666667M2291.666666666667 1458.333333333333H2708.3333333333335V1875H2291.666666666667M2291.666666666667 625H2708.3333333333335V1041.6666666666665H2291.666666666667V625z" />
    <glyph glyph-name="border-right"
      unicode="&#xEA36;"
      horiz-adv-x="5000" d="M2291.666666666667 3125H2708.3333333333335V3541.6666666666665H2291.666666666667M2291.666666666667 3958.3333333333326H2708.3333333333335V4375H2291.666666666667M2291.666666666667 2291.6666666666665H2708.3333333333335V2708.333333333333H2291.666666666667M3125 3958.3333333333326H3541.666666666667V4375H3125M3125 625H3541.666666666667V1041.6666666666665H3125M3958.3333333333335 625H4375V4375H3958.3333333333335M3125 2291.6666666666665H3541.666666666667V2708.333333333333H3125M2291.666666666667 1458.333333333333H2708.3333333333335V1875H2291.666666666667M625 3125H1041.6666666666667V3541.6666666666665H625M625 1458.333333333333H1041.6666666666667V1875H625M625 2291.6666666666665H1041.6666666666667V2708.333333333333H625M2291.666666666667 625H2708.3333333333335V1041.6666666666665H2291.666666666667M625 625H1041.6666666666667V1041.6666666666665H625M1458.3333333333335 2291.6666666666665H1875V2708.333333333333H1458.3333333333335M1458.3333333333335 3958.3333333333326H1875V4375H1458.3333333333335M625 3958.3333333333326H1041.6666666666667V4375H625M1458.3333333333335 625H1875V1041.6666666666665H1458.3333333333335V625z" />
    <glyph glyph-name="border-top"
      unicode="&#xEA37;"
      horiz-adv-x="5000" d="M3125 2291.6666666666665H3541.666666666667V2708.333333333333H3125M3958.3333333333335 625H4375V1041.6666666666665H3958.3333333333335M2291.666666666667 3125H2708.3333333333335V3541.6666666666665H2291.666666666667M3125 625H3541.666666666667V1041.6666666666665H3125M3958.3333333333335 1458.333333333333H4375V1875H3958.3333333333335M625 3958.3333333333326H4375V4375H625M3958.3333333333335 2291.6666666666665H4375V2708.333333333333H3958.3333333333335M3958.3333333333335 3125H4375V3541.6666666666665H3958.3333333333335M2291.666666666667 1458.333333333333H2708.3333333333335V1875H2291.666666666667M625 3125H1041.6666666666667V3541.6666666666665H625M625 2291.6666666666665H1041.6666666666667V2708.333333333333H625M625 625H1041.6666666666667V1041.6666666666665H625M625 1458.333333333333H1041.6666666666667V1875H625M2291.666666666667 625H2708.3333333333335V1041.6666666666665H2291.666666666667M2291.666666666667 2291.6666666666665H2708.3333333333335V2708.333333333333H2291.666666666667M1458.3333333333335 2291.6666666666665H1875V2708.333333333333H1458.3333333333335M1458.3333333333335 625H1875V1041.6666666666665H1458.3333333333335V625z" />
    <glyph glyph-name="brush-no"
      unicode="&#xEA38;"
      horiz-adv-x="5000" d="M4210.208333333333 4243.541666666667L3931.0416666666674 4522.708333333333C3853.9583333333326 4603.958333333333 3718.3333333333335 4603.958333333333 3637.2916666666674 4522.708333333333L1770.6249999999998 2656.0416666666665L2343.5416666666665 2083.1249999999995L4210.208333333333 3949.5833333333326C4291.458333333334 4031.0416666666665 4291.458333333334 4166.458333333333 4210.208333333333 4243.541666666667M1353.9583333333333 2291.4583333333335C1008.75 2291.4583333333335 728.9583333333333 2011.4583333333337 728.9583333333333 1666.4583333333335C728.9583333333333 1393.3333333333335 487.2916666666666 1249.791666666667 312.2916666666667 1249.791666666667C503.9583333333333 995.6250000000005 833.125 833.125 1145.625 833.125C1605.8333333333335 833.125 1978.9583333333333 1206.2500000000005 1978.9583333333333 1666.4583333333335C1978.9583333333337 2011.4583333333333 1699.166666666667 2291.4583333333335 1353.9583333333333 2291.4583333333335zM4185.416666666667 2291.6666666666665L3645.8333333333335 1752.083333333333L3106.25 2291.6666666666665L2812.5 1997.9166666666663L3352.0833333333335 1458.333333333333L2812.5 918.75L3106.25 625L3645.8333333333335 1164.583333333333L4185.416666666667 625L4479.166666666667 918.75L3939.5833333333335 1458.333333333333L4479.166666666667 1997.9166666666663z" />
    <glyph glyph-name="brush"
      unicode="&#xEA39;"
      horiz-adv-x="5000" d="M4314.583333333334 4035.4166666666665L4035.4166666666674 4314.583333333333C3958.3333333333335 4395.833333333333 3822.9166666666674 4395.833333333333 3741.6666666666674 4314.583333333333L1875 2447.9166666666665L2447.916666666667 1875L4314.583333333334 3741.6666666666665C4395.833333333334 3822.9166666666665 4395.833333333334 3958.3333333333326 4314.583333333334 4035.4166666666665M1458.3333333333335 2083.333333333333A625.0000000000001 625.0000000000001 0 0 1 833.3333333333334 1458.333333333333C833.3333333333334 1185.416666666667 591.6666666666666 1041.6666666666665 416.6666666666667 1041.6666666666665C608.3333333333334 787.5 937.5 625 1250 625A833.3333333333334 833.3333333333334 0 0 1 2083.3333333333335 1458.333333333333A625.0000000000001 625.0000000000001 0 0 1 1458.3333333333335 2083.333333333333z" />
    <glyph glyph-name="button"
      unicode="&#xEA3A;"
      horiz-adv-x="5000" d="M4166.666666666667 3958.3333333333326C4396.785208333334 3958.3333333333326 4583.333333333334 3771.7853125 4583.333333333334 3541.6666666666665V1458.333333333333C4583.333333333334 1228.2147916666663 4396.785208333334 1041.6666666666665 4166.666666666667 1041.6666666666665H833.3333333333334C602.0833333333334 1041.6666666666665 416.6666666666667 1229.166666666666 416.6666666666667 1458.333333333333V3541.6666666666665C416.6666666666667 3772.9166666666674 602.0833333333334 3958.3333333333326 833.3333333333334 3958.3333333333326H4166.666666666667M1041.6666666666667 1666.6666666666665C347.2222291666667 555.555625 694.4444375 1111.1110416666666 1041.6666666666667 1666.6666666666665z" />
    <glyph glyph-name="calculated-detail-field"
      unicode="&#xEA3B;"
      horiz-adv-x="5000" d="M2341.041666666667 3802.0833333333326C2180.8333333333335 3818.9583333333326 2039.375 3681.6666666666665 2025.0000000000005 3493.125L1988.3333333333337 3002.708333333333H2399.5833333333335V2663.3333333333335H1962.0833333333337L1898.1250000000005 1802.7083333333337C1870.625 1429.1666666666665 1587.5 1152.291666666666 1266.6666666666667 1186.458333333333C1075.625 1205.208333333333 915.2083333333334 1329.1666666666665 820.4166666666667 1503.75L1039.1666666666667 1758.333333333333C1074.1666666666667 1632.708333333333 1170.4166666666667 1536.0416666666665 1291.4583333333335 1524.375C1451.8750000000002 1507.0833333333335 1593.3333333333335 1644.583333333333 1608.1250000000002 1832.7083333333337L1670.8333333333337 2662.9166666666665H1233.3333333333337V3002.708333333333H1695.6250000000002L1735.0000000000002 3523.75C1762.708333333334 3897.0833333333326 2045.8333333333337 4173.958333333333 2366.458333333334 4140C2557.7083333333335 4121.25 2718.1250000000005 3997.5 2812.9166666666674 3822.7083333333326L2593.958333333334 3567.916666666667C2558.541666666667 3693.5416666666665 2462.0833333333335 3790.2083333333326 2341.041666666667 3802.0833333333326zM4212.708333333334 2332.708333333333L3677.0833333333326 1637.4999999999995L4212.708333333334 942.5L4048.125000000001 729.1666666666661L3512.5 1424.166666666666L2976.875 729.1666666666661L2812.5 942.5L3347.916666666667 1637.4999999999995L2812.5 2332.708333333333L2976.875 2546.0416666666665L3512.5 1851.0416666666663L4048.125000000001 2546.0416666666665L4212.708333333334 2332.708333333333" />
    <glyph glyph-name="calculated-sum-field"
      unicode="&#xEA3C;"
      horiz-adv-x="5000" d="M2341.25 3802.0833333333326C2181.0416666666665 3818.9583333333326 2039.5833333333333 3681.6666666666665 2025.0000000000005 3493.125L1988.5416666666667 3002.708333333333H2399.791666666667V2663.3333333333335H1962.2916666666667L1898.3333333333337 1802.9166666666663C1870.625 1429.1666666666665 1587.5 1152.5 1266.6666666666667 1186.458333333333C1075.625 1205.208333333333 915.2083333333334 1329.1666666666665 820.4166666666667 1503.541666666666L1039.1666666666667 1758.333333333333C1074.1666666666667 1632.708333333333 1170.4166666666667 1536.0416666666665 1291.4583333333335 1524.375C1451.8750000000002 1507.0833333333335 1593.3333333333335 1644.583333333333 1608.1250000000002 1832.7083333333337L1670.8333333333337 2662.9166666666665H1233.3333333333337V3002.708333333333H1695.6250000000002L1735.0000000000002 3523.75C1762.708333333334 3897.0833333333326 2045.8333333333337 4173.958333333333 2366.666666666667 4140C2557.7083333333335 4121.25 2718.1250000000005 3997.5 2812.916666666667 3822.7083333333326L2594.166666666667 3567.916666666667C2558.75 3693.5416666666665 2462.291666666667 3790.2083333333326 2341.25 3802.0833333333326zM2916.666666666667 2604.1666666666665H4270.833333333334V2083.333333333333H4166.666666666667L4062.5 2395.833333333333H3443.541666666667L3817.7083333333335 1861.6666666666663L3389.5833333333335 1250H4062.5L4166.666666666667 1458.333333333333H4270.833333333334V937.5H2916.666666666667L3500.0000000000005 1770.833333333333L2916.666666666667 2604.1666666666665z" />
    <glyph glyph-name="calendar-double"
      unicode="&#xEA3D;"
      horiz-adv-x="5000" d="M3738.5416666666674 3958.3333333333326C3745.4166666666674 3931.4583333333335 3750 3903.9583333333326 3750 3875.2083333333326V3958.3333333333326H3738.5416666666674zM4213.125 3604.1666666666665H4166.666666666667V2718.75H4213.125V771.041666666667H1620.2083333333333V833.333333333333H1250V771.041666666667C1250 575.208333333333 1415.8333333333335 416.6666666666661 1620.2083333333335 416.6666666666661H4212.916666666667C4417.291666666668 416.6666666666661 4583.125000000001 575.208333333333 4583.125000000001 771.041666666667V3250.2083333333335C4583.333333333334 3445.625 4417.5 3604.1666666666665 4213.125 3604.1666666666665zM3379.7916666666665 4229.166666666667H3194.5833333333335V4583.333333333333H2823.9583333333335V4229.166666666667H1342.7083333333333V4583.333333333333H972.2916666666666V4229.166666666667H786.875C581.6666666666666 4229.166666666667 416.6666666666667 4069.7916666666665 416.6666666666667 3875.2083333333326V1396.25C416.6666666666667 1200.4166666666665 582.5000000000001 1041.875 786.8750000000001 1041.875H3379.583333333334C3583.958333333334 1041.875 3749.7916666666674 1200.4166666666665 3749.7916666666674 1396.25V3875.2083333333326C3750 4070.625 3584.166666666667 4229.166666666667 3379.7916666666665 4229.166666666667zM3379.7916666666665 1396.0416666666665H786.8750000000001V3343.75H3379.583333333334V1396.0416666666665zM1250 2916.6666666666665H1875V2291.6666666666665H1250V2916.6666666666665z" />
    <glyph glyph-name="calendar-minus"
      unicode="&#xEA3E;"
      horiz-adv-x="5000" d="M3958.3333333333335 4375H3750V4791.666666666667H3333.3333333333335V4375H1666.6666666666667V4791.666666666667H1250V4375H1041.6666666666667C810.4166666666666 4375 625 4189.583333333333 625 3958.3333333333326V1041.6666666666665C625 812.4999999999991 810.4166666666667 625 1041.6666666666667 625H3958.3333333333335C4188.333333333333 625 4375 811.666666666667 4375 1041.6666666666665V3958.3333333333326C4375 4188.333333333333 4188.333333333333 4375 3958.3333333333335 4375zM3958.3333333333335 1041.6666666666665H1041.6666666666667V3541.6666666666665H3958.3333333333335V1041.6666666666665zM2500 2385.4166666666665L1562.5 1739.5833333333335L1750.0000000000002 1458.333333333333L2500 1968.7499999999995L3250.0000000000005 1458.333333333333L3437.5 1739.5833333333335zM2500 3125L1562.5 2479.1666666666665L1750.0000000000002 2197.9166666666665L2500 2708.333333333333L3250.0000000000005 2197.9166666666665L3437.5 2479.1666666666665z" />
    <glyph glyph-name="calendar-plus"
      unicode="&#xEA3F;"
      horiz-adv-x="5000" d="M3958.3333333333335 4375H3750V4791.666666666667H3333.3333333333335V4375H1666.6666666666667V4791.666666666667H1250V4375H1041.6666666666667C810.4166666666666 4375 625 4189.583333333333 625 3958.3333333333326V1041.6666666666665C625 812.4999999999991 810.4166666666667 625 1041.6666666666667 625H3958.3333333333335C4188.333333333333 625 4375 811.666666666667 4375 1041.6666666666665V3958.3333333333326C4375 4188.333333333333 4188.333333333333 4375 3958.3333333333335 4375zM3958.3333333333335 1041.6666666666665H1041.6666666666667V3541.6666666666665H3958.3333333333335V1041.6666666666665zM3437.5 2843.75L3250.0000000000005 3125L2500 2614.5833333333335L1750.0000000000002 3125L1562.5 2843.75L2500 2197.9166666666665zM3437.5 2104.1666666666665L3250.0000000000005 2385.4166666666665L2500 1875L1750.0000000000002 2385.4166666666665L1562.5 2104.1666666666665L2500 1458.333333333333z" />
    <glyph glyph-name="calendar"
      unicode="&#xEA40;"
      horiz-adv-x="5000" d="M1458.3333333333335 2916.6666666666665H2500V1875H1458.3333333333335M3958.3333333333335 1041.6666666666665H1041.6666666666667V3333.333333333333H3958.3333333333335M3958.3333333333335 4375H3750V4791.666666666667H3333.3333333333335V4375H1666.6666666666667V4791.666666666667H1250V4375H1041.6666666666667C810.4166666666667 4375 625 4187.5 625 3958.3333333333326V1041.6666666666665C625 812.4999999999991 812.5 625 1041.6666666666667 625H3958.3333333333335C4187.500000000001 625 4375 812.4999999999991 4375 1041.6666666666665V3958.3333333333326C4375 4187.5 4187.500000000001 4375 3958.3333333333335 4375z" />
    <glyph glyph-name="cancel"
      unicode="&#xEA41;"
      horiz-adv-x="5000" d="M2500 4583.333333333333A2083.333333333333 2083.333333333333 0 0 0 4583.333333333334 2500A2083.333333333333 2083.333333333333 0 0 0 2500 416.6666666666661A2083.333333333333 2083.333333333333 0 0 0 416.6666666666667 2500A2083.333333333333 2083.333333333333 0 0 0 2500 4583.333333333333M2500 4166.666666666667A1666.6666666666667 1666.6666666666667 0 0 1 833.3333333333334 2500C833.3333333333334 2114.5833333333335 964.5833333333334 1760.4166666666665 1183.3333333333333 1477.083333333333L3522.916666666667 3816.6666666666674C3239.5833333333335 4035.4166666666665 2885.4166666666665 4166.666666666667 2500 4166.666666666667M2500 833.333333333333A1666.6666666666667 1666.6666666666667 0 0 1 4166.666666666667 2500C4166.666666666667 2885.4166666666665 4035.4166666666674 3239.5833333333335 3816.6666666666674 3522.916666666667L1477.0833333333333 1183.333333333333C1760.4166666666665 964.583333333333 2114.5833333333335 833.333333333333 2500 833.333333333333z" />
    <glyph glyph-name="card-text-outline"
      unicode="&#xEA42;"
      horiz-adv-x="5000" d="M4166.666666666667 833.333333333333H833.3333333333334A416.6666666666667 416.6666666666667 0 0 0 416.6666666666667 1250V3750A416.6666666666667 416.6666666666667 0 0 0 833.3333333333334 4166.666666666667H4166.666666666667A416.6666666666667 416.6666666666667 0 0 0 4583.333333333334 3750V1250A416.6666666666667 416.6666666666667 0 0 0 4166.666666666667 833.333333333333M833.3333333333334 3750V1250H4166.666666666667V3750H833.3333333333334M1250 3125H3750V2708.333333333333H1250V3125M1250 2291.6666666666665H3333.3333333333335V1875H1250V2291.6666666666665z" />
    <glyph glyph-name="chart-3D-bar-stacked"
      unicode="&#xEA43;"
      horiz-adv-x="5000" d="M2602.0833333333335 4370.833333333333C2602.0833333333335 4372.291666666667 2601.6666666666665 4373.541666666667 2601.6666666666665 4375C2601.6666666666665 4377.083333333333 2601.6666666666665 4379.166666666667 2600.4166666666665 4381.666666666667C2600.4166666666665 4384.791666666667 2600 4388.333333333333 2599.5833333333335 4391.25C2599.5833333333335 4391.25 2599.5833333333335 4391.25 2599.5833333333335 4391.458333333333C2586.041666666667 4441.041666666667 2524.5833333333335 4478.958333333333 2451.25 4478.958333333333H1241.25C1195.2083333333335 4478.958333333333 1154.5833333333333 4464.583333333333 1126.2500000000002 4440.833333333333L565.625 4040.4166666666665C565 4040.4166666666665 565 4040.2083333333326 565 4040.2083333333326C561.4583333333334 4037.7083333333335 558.3333333333334 4035.2083333333326 555.2083333333334 4032.5C553.3333333333334 4031.4583333333326 552.2916666666666 4029.7916666666665 550.625 4028.75C549.375 4027.2916666666674 547.5 4025.625 546.25 4024.1666666666665C545.2083333333334 4023.125 543.3333333333334 4021.0416666666665 542.0833333333334 4019.375C541.25 4018.125 539.375 4016.25 538.3333333333334 4015.2083333333335C537.2916666666667 4013.3333333333335 536.2500000000001 4011.875 535 4010.2083333333335C533.9583333333334 4008.75 532.9166666666667 4007.0833333333335 532.0833333333334 4005.4166666666674C531.0416666666667 4003.9583333333335 530.2083333333335 4002.5 530.0000000000001 4000.625C528.9583333333334 3998.9583333333335 528.125 3997.2916666666665 527.0833333333334 3995.2083333333326C526.6666666666667 3993.5416666666665 526.0416666666666 3992.2916666666665 525.625 3990.4166666666665C525 3988.75 523.9583333333334 3986.875 523.75 3985.2083333333326C522.9166666666666 3983.125 522.7083333333334 3981.0416666666665 521.875 3978.9583333333326C521.875 3977.9166666666665 521.875 3976.25 521.0416666666666 3974.5833333333326C520.8333333333334 3971.25 520.8333333333334 3967.7083333333326 520.8333333333334 3964.1666666666665V421.2499999999991C520.8333333333334 360.416666666667 587.9166666666667 312.5 672.0833333333334 312.5H1881.6666666666667C1886.0416666666667 312.5 1891.4583333333337 312.5 1896.2500000000005 312.9166666666661C1898.7500000000005 312.9166666666661 1900.8333333333337 313.9583333333331 1903.5416666666667 313.9583333333331C1906.0416666666667 314.3749999999991 1908.9583333333337 314.3749999999991 1911.875 314.3749999999991C1914.1666666666663 315.4166666666652 1916.4583333333337 316.2499999999991 1919.1666666666667 316.6666666666661C1922.0833333333333 316.6666666666661 1924.1666666666663 317.0833333333321 1926.2500000000005 317.4999999999991C1928.9583333333337 317.4999999999991 1931.0416666666667 318.3333333333331 1933.75 319.3749999999991C1936.4583333333337 320.4166666666661 1938.75 320.8333333333331 1940.4166666666667 321.2499999999991C1942.5 321.4583333333331 1944.7916666666667 322.4999999999991 1946.8750000000005 323.7499999999991C1949.1666666666667 324.9999999999991 1951.2500000000005 325.4166666666661 1953.75 325.8333333333331C1955.8333333333337 327.5 1957.9166666666667 327.916666666667 1960.2083333333337 329.375C1962.7083333333337 329.7916666666661 1964.7916666666667 330.4166666666661 1966.6666666666667 332.5C1968.9583333333337 333.75 1971.0416666666672 334.1666666666661 1973.5416666666667 335.8333333333331C1975.4166666666667 337.2916666666661 1977.2916666666667 337.9166666666661 1978.9583333333337 338.9583333333331C1981.875 341.4583333333331 1985.2083333333337 342.9166666666661 1987.9166666666667 344.7916666666661C1988.9583333333337 345.8333333333321 1989.1666666666667 345.8333333333321 1990 346.25L2559.5833333333335 752.4999999999991C2590 773.541666666667 2604.166666666667 800.833333333333 2604.166666666667 828.541666666667C2604.166666666667 828.541666666667 2604.166666666667 828.541666666667 2604.166666666667 829.375V4371.041666666667H2602.0833333333335zM1458.3333333333335 729.1666666666661H833.3333333333334V3645.8333333333326H1458.3333333333335V729.1666666666661zM1145.8333333333335 4062.5L1487.2916666666667 4270.833333333333H1979.1666666666667L1637.7083333333335 4062.5H1145.8333333333335zM1831.4583333333337 729.1666666666661L1822.9166666666667 3720.4166666666665L2335.2083333333335 4062.5L2343.75 1071.2499999999995L1831.4583333333337 729.1666666666661zM4685.833333333334 3877.0833333333326C4685.833333333334 3878.125 4685.416666666667 3879.1666666666674 4685.416666666667 3880.2083333333326C4685.416666666667 3881.6666666666665 4685.416666666667 3883.3333333333326 4684.583333333334 3885.2083333333326C4684.166666666667 3887.5 4684.166666666667 3890 4683.75 3892.5C4683.75 3892.5 4683.75 3892.5 4683.75 3892.7083333333335C4672.916666666667 3930 4623.541666666667 3958.3333333333326 4565 3958.3333333333326H3597.083333333333C3560.208333333333 3958.3333333333326 3527.9166666666665 3947.5 3505.625 3929.7916666666665L3056.666666666667 3629.1666666666665C3056.041666666667 3629.1666666666665 3056.041666666667 3628.9583333333326 3056.041666666667 3628.9583333333326C3053.3333333333335 3627.2916666666665 3051.041666666667 3625.4166666666665 3048.3333333333335 3623.3333333333326C3046.875 3622.5 3045.8333333333335 3621.25 3044.375 3620.625C3043.541666666667 3619.375 3042.291666666667 3618.125 3041.0416666666665 3617.0833333333326C3040 3616.25 3038.3333333333335 3614.7916666666665 3037.2916666666665 3613.3333333333326C3036.6666666666665 3612.2916666666665 3035.2083333333335 3611.0416666666665 3034.375 3610.2083333333326C3033.541666666667 3608.9583333333326 3032.7083333333335 3607.7083333333326 3031.4583333333335 3606.4583333333326C3030.4166666666665 3605.2083333333326 3030.2083333333335 3604.1666666666665 3029.5833333333335 3602.9166666666665C3028.5416666666665 3601.6666666666665 3027.916666666667 3600.833333333333 3027.916666666667 3599.1666666666665C3026.875 3598.125 3026.041666666667 3596.875 3025.2083333333335 3595.208333333333C3024.791666666667 3593.958333333333 3024.3750000000005 3592.9166666666665 3023.9583333333335 3591.6666666666665C3023.541666666667 3590.4166666666665 3022.7083333333335 3588.958333333333 3022.291666666667 3587.708333333333C3021.666666666667 3586.25 3021.666666666667 3584.583333333333 3021.041666666667 3583.125C3021.041666666667 3582.5 3020.833333333334 3581.0416666666665 3020.208333333334 3579.791666666666C3020.208333333334 3577.2916666666665 3020.208333333334 3574.791666666666 3020.208333333334 3572.083333333333V914.791666666666C3020.208333333334 869.3749999999991 3073.958333333334 833.125 3141.2500000000005 833.125H4109.166666666667C4112.916666666667 833.125 4116.875 833.125 4120.833333333334 833.5416666666661C4122.916666666667 833.5416666666661 4124.583333333334 834.1666666666661 4126.666666666667 834.1666666666661C4128.750000000001 834.5833333333321 4131.041666666667 834.5833333333321 4133.125 834.5833333333321C4134.791666666666 835.2083333333321 4136.875 836.2499999999991 4138.75 836.2499999999991C4141.25 836.2499999999991 4142.916666666667 836.6666666666652 4144.375 836.6666666666652C4146.458333333334 836.6666666666652 4148.333333333333 837.4999999999991 4150.000000000001 838.3333333333321C4152.500000000001 839.1666666666652 4154.166666666667 839.1666666666652 4155.416666666667 839.7916666666652C4157.083333333334 839.9999999999991 4158.958333333334 840.6249999999991 4160.416666666667 841.6666666666652C4162.083333333334 842.4999999999991 4164.166666666668 842.7083333333321 4165.625 842.9166666666661C4167.291666666667 844.1666666666661 4168.958333333333 844.5833333333321 4170.416666666667 845.8333333333321C4172.708333333334 846.2499999999982 4174.583333333334 846.6666666666661 4175.625 847.9166666666661C4177.708333333334 849.1666666666661 4179.375 849.3749999999991 4181.041666666667 850.6249999999991C4182.708333333333 851.6666666666661 4183.958333333333 852.083333333333 4185.416666666667 852.9166666666661C4187.916666666667 855 4190.416666666667 855.8333333333321 4192.708333333334 857.4999999999991C4193.541666666667 857.9166666666652 4193.958333333334 857.9166666666652 4194.791666666667 858.333333333333L4650.416666666668 1163.1249999999995C4674.166666666668 1179.1666666666665 4686.041666666667 1199.7916666666656 4686.041666666667 1220.208333333333C4686.041666666667 1220.208333333333 4686.041666666667 1220.208333333333 4686.041666666667 1221.0416666666665V3877.0833333333326H4685.833333333334zM3770.8333333333335 1160H3270.8333333333335V3319.166666666667H3770.8333333333335V1160zM3520.833333333333 3645.8333333333326L3793.9583333333326 3802.0833333333326H4187.500000000001L3914.375000000001 3645.8333333333326H3520.833333333333zM4479.166666666667 1346.875L4062.5 1123.958333333333V3322.708333333333L4479.166666666667 3545.833333333333V1346.875zM729.1666666666667 1822.9166666666663H1770.8333333333335V1510.4166666666665H729.1666666666667V1822.9166666666663zM1541.323375 1688.3751874999994L2425.2501250000005 2239.8396249999996L2590.6563750000005 1974.7146249999996L1706.7296250000002 1423.2501874999994L1541.3233750000002 1688.3751874999994zM3125 3359.375H3958.3333333333335V2343.75H3125V3359.375zM3566.12175 3092.6619166666665L4237.090125 3458.7975416666663L4663.998874999999 2676.4582916666664L3993.0305 2310.3226666666665L3566.12175 3092.6619166666665zM4244.791666666667 3619.7916666666665H4557.291666666667V2977.5H4244.791666666667V3619.7916666666665z" />
    <glyph glyph-name="chart-3D-bar"
      unicode="&#xEA44;"
      horiz-adv-x="5000" d="M2602.0833333333335 4370.833333333333C2602.0833333333335 4372.291666666667 2601.6666666666665 4373.541666666667 2601.6666666666665 4375C2601.6666666666665 4377.083333333333 2601.6666666666665 4379.166666666667 2600.4166666666665 4381.666666666667C2600.4166666666665 4384.791666666667 2600 4388.333333333333 2599.5833333333335 4391.25C2599.5833333333335 4391.25 2599.5833333333335 4391.25 2599.5833333333335 4391.458333333333C2586.041666666667 4441.041666666667 2524.5833333333335 4478.958333333333 2451.25 4478.958333333333H1241.25C1195.2083333333335 4478.958333333333 1154.5833333333333 4464.583333333333 1126.2500000000002 4440.833333333333L565.625 4040.4166666666665C565 4040.4166666666665 565 4040.2083333333326 565 4040.2083333333326C561.4583333333334 4037.7083333333335 558.3333333333334 4035.2083333333326 555.2083333333334 4032.5C553.3333333333334 4031.4583333333326 552.2916666666666 4029.7916666666665 550.625 4028.75C549.375 4027.2916666666674 547.5 4025.625 546.25 4024.1666666666665C545.2083333333334 4023.125 543.3333333333334 4021.0416666666665 542.0833333333334 4019.375C541.25 4018.125 539.375 4016.25 538.3333333333334 4015.2083333333335C537.2916666666667 4013.3333333333335 536.2500000000001 4011.875 535 4010.2083333333335C533.9583333333334 4008.75 532.9166666666667 4007.0833333333335 532.0833333333334 4005.4166666666674C531.0416666666667 4003.9583333333335 530.2083333333335 4002.5 530.0000000000001 4000.625C528.9583333333334 3998.9583333333335 528.125 3997.2916666666665 527.0833333333334 3995.2083333333326C526.6666666666667 3993.5416666666665 526.0416666666666 3992.2916666666665 525.625 3990.4166666666665C525 3988.75 523.9583333333334 3986.875 523.75 3985.2083333333326C522.9166666666666 3983.125 522.7083333333334 3981.0416666666665 521.875 3978.9583333333326C521.875 3977.9166666666665 521.875 3976.25 521.0416666666666 3974.5833333333326C520.8333333333334 3971.25 520.8333333333334 3967.7083333333326 520.8333333333334 3964.1666666666665V421.2499999999991C520.8333333333334 360.416666666667 587.9166666666667 312.5 672.0833333333334 312.5H1881.6666666666667C1886.0416666666667 312.5 1891.4583333333337 312.5 1896.2500000000005 312.9166666666661C1898.7500000000005 312.9166666666661 1900.8333333333337 313.9583333333331 1903.5416666666667 313.9583333333331C1906.0416666666667 314.3749999999991 1908.9583333333337 314.3749999999991 1911.875 314.3749999999991C1914.1666666666663 315.4166666666652 1916.4583333333337 316.2499999999991 1919.1666666666667 316.6666666666661C1922.0833333333333 316.6666666666661 1924.1666666666663 317.0833333333321 1926.2500000000005 317.4999999999991C1928.9583333333337 317.4999999999991 1931.0416666666667 318.3333333333331 1933.75 319.3749999999991C1936.4583333333337 320.4166666666661 1938.75 320.8333333333331 1940.4166666666667 321.2499999999991C1942.5 321.4583333333331 1944.7916666666667 322.4999999999991 1946.8750000000005 323.7499999999991C1949.1666666666667 324.9999999999991 1951.2500000000005 325.4166666666661 1953.75 325.8333333333331C1955.8333333333337 327.5 1957.9166666666667 327.916666666667 1960.2083333333337 329.375C1962.7083333333337 329.7916666666661 1964.7916666666667 330.4166666666661 1966.6666666666667 332.5C1968.9583333333337 333.75 1971.0416666666672 334.1666666666661 1973.5416666666667 335.8333333333331C1975.4166666666667 337.2916666666661 1977.2916666666667 337.9166666666661 1978.9583333333337 338.9583333333331C1981.875 341.4583333333331 1985.2083333333337 342.9166666666661 1987.9166666666667 344.7916666666661C1988.9583333333337 345.8333333333321 1989.1666666666667 345.8333333333321 1990 346.25L2559.5833333333335 752.4999999999991C2590 773.541666666667 2604.166666666667 800.833333333333 2604.166666666667 828.541666666667C2604.166666666667 828.541666666667 2604.166666666667 828.541666666667 2604.166666666667 829.375V4371.041666666667H2602.0833333333335zM1458.3333333333335 729.1666666666661H833.3333333333334V3645.8333333333326H1458.3333333333335V729.1666666666661zM1145.8333333333335 4062.5L1487.2916666666667 4270.833333333333H1979.1666666666667L1637.7083333333335 4062.5H1145.8333333333335zM1831.4583333333337 729.1666666666661L1822.9166666666667 3720.4166666666665L2335.2083333333335 4062.5L2343.75 1071.2499999999995L1831.4583333333337 729.1666666666661zM4685.833333333334 3877.0833333333326C4685.833333333334 3878.125 4685.416666666667 3879.1666666666674 4685.416666666667 3880.2083333333326C4685.416666666667 3881.6666666666665 4685.416666666667 3883.3333333333326 4684.583333333334 3885.2083333333326C4684.166666666667 3887.5 4684.166666666667 3890 4683.75 3892.5C4683.75 3892.5 4683.75 3892.5 4683.75 3892.7083333333335C4672.916666666667 3930 4623.541666666667 3958.3333333333326 4565 3958.3333333333326H3597.083333333333C3560.208333333333 3958.3333333333326 3527.9166666666665 3947.5 3505.625 3929.7916666666665L3056.666666666667 3629.1666666666665C3056.041666666667 3629.1666666666665 3056.041666666667 3628.9583333333326 3056.041666666667 3628.9583333333326C3053.3333333333335 3627.2916666666665 3051.041666666667 3625.4166666666665 3048.3333333333335 3623.3333333333326C3046.875 3622.5 3045.8333333333335 3621.25 3044.375 3620.625C3043.541666666667 3619.375 3042.291666666667 3618.125 3041.0416666666665 3617.0833333333326C3040 3616.25 3038.3333333333335 3614.7916666666665 3037.2916666666665 3613.3333333333326C3036.6666666666665 3612.2916666666665 3035.2083333333335 3611.0416666666665 3034.375 3610.2083333333326C3033.541666666667 3608.9583333333326 3032.7083333333335 3607.7083333333326 3031.4583333333335 3606.4583333333326C3030.4166666666665 3605.2083333333326 3030.2083333333335 3604.1666666666665 3029.5833333333335 3602.9166666666665C3028.5416666666665 3601.6666666666665 3027.916666666667 3600.833333333333 3027.916666666667 3599.1666666666665C3026.875 3598.125 3026.041666666667 3596.875 3025.2083333333335 3595.208333333333C3024.791666666667 3593.958333333333 3024.3750000000005 3592.9166666666665 3023.9583333333335 3591.6666666666665C3023.541666666667 3590.4166666666665 3022.7083333333335 3588.958333333333 3022.291666666667 3587.708333333333C3021.666666666667 3586.25 3021.666666666667 3584.583333333333 3021.041666666667 3583.125C3021.041666666667 3582.5 3020.833333333334 3581.0416666666665 3020.208333333334 3579.791666666666C3020.208333333334 3577.2916666666665 3020.208333333334 3574.791666666666 3020.208333333334 3572.083333333333V914.791666666666C3020.208333333334 869.3749999999991 3073.958333333334 833.125 3141.2500000000005 833.125H4109.166666666667C4112.916666666667 833.125 4116.875 833.125 4120.833333333334 833.5416666666661C4122.916666666667 833.5416666666661 4124.583333333334 834.1666666666661 4126.666666666667 834.1666666666661C4128.750000000001 834.5833333333321 4131.041666666667 834.5833333333321 4133.125 834.5833333333321C4134.791666666666 835.2083333333321 4136.875 836.2499999999991 4138.75 836.2499999999991C4141.25 836.2499999999991 4142.916666666667 836.6666666666652 4144.375 836.6666666666652C4146.458333333334 836.6666666666652 4148.333333333333 837.4999999999991 4150.000000000001 838.3333333333321C4152.500000000001 839.1666666666652 4154.166666666667 839.1666666666652 4155.416666666667 839.7916666666652C4157.083333333334 839.9999999999991 4158.958333333334 840.6249999999991 4160.416666666667 841.6666666666652C4162.083333333334 842.4999999999991 4164.166666666668 842.7083333333321 4165.625 842.9166666666661C4167.291666666667 844.1666666666661 4168.958333333333 844.5833333333321 4170.416666666667 845.8333333333321C4172.708333333334 846.2499999999982 4174.583333333334 846.6666666666661 4175.625 847.9166666666661C4177.708333333334 849.1666666666661 4179.375 849.3749999999991 4181.041666666667 850.6249999999991C4182.708333333333 851.6666666666661 4183.958333333333 852.083333333333 4185.416666666667 852.9166666666661C4187.916666666667 855 4190.416666666667 855.8333333333321 4192.708333333334 857.4999999999991C4193.541666666667 857.9166666666652 4193.958333333334 857.9166666666652 4194.791666666667 858.333333333333L4650.416666666668 1163.1249999999995C4674.166666666668 1179.1666666666665 4686.041666666667 1199.7916666666656 4686.041666666667 1220.208333333333C4686.041666666667 1220.208333333333 4686.041666666667 1220.208333333333 4686.041666666667 1221.0416666666665V3877.0833333333326H4685.833333333334zM3770.8333333333335 1160H3270.8333333333335V3319.166666666667H3770.8333333333335V1160zM3520.833333333333 3645.8333333333326L3793.9583333333326 3802.0833333333326H4187.500000000001L3914.375000000001 3645.8333333333326H3520.833333333333zM4479.166666666667 1346.875L4062.5 1123.958333333333V3322.708333333333L4479.166666666667 3545.833333333333V1346.875z" />
    <glyph glyph-name="chart-3D-pie"
      unicode="&#xEA45;"
      horiz-adv-x="5000" d="M4468.75 2868.3333333333335C4468.75 3470.625 3656.4583333333326 3942.2916666666674 2619.375 3942.2916666666674C1603.7499999999998 3942.2916666666674 804.1666666666666 3490 771.2499999999997 2905.625H769.7916666666666V2240.833333333333L613.5416666666666 2202.7083333333335C597.5 2201.6666666666665 581.6666666666666 2196.0416666666665 567.7083333333333 2185.625C543.5416666666666 2168.125 531.0416666666666 2140.4166666666665 531.25 2112.5V1038.75C531.25 1006.875 548.3333333333333 977.0833333333334 576.0416666666666 961.25C598.75 948.125 1138.5416666666667 641.041666666667 1560.2083333333335 641.041666666667L1560.2083333333335 641.041666666667C1560.2083333333335 641.041666666667 1560.2083333333335 641.041666666667 1560.2083333333335 641.041666666667C1568.125 641.041666666667 1575.8333333333335 642.5000000000009 1583.3333333333333 644.583333333333C1585.2083333333335 645.208333333333 1586.875 645.833333333333 1588.75 646.25C1596.0416666666667 648.75 1602.9166666666665 651.6666666666661 1609.375 656.041666666667C1609.5833333333335 656.25 1609.7916666666665 656.25 1610 656.25C1614.7916666666665 659.791666666667 1619.375 663.333333333333 1623.75 667.7083333333339C1625 669.166666666667 1626.0416666666667 670.625 1627.2916666666667 672.0833333333339C1628.5416666666667 673.541666666667 1629.7916666666667 675.2083333333339 1631.0416666666667 676.666666666667C1635.8333333333333 683.125 1640.2083333333333 690 1643.3333333333335 697.5C1643.3333333333335 697.5 1643.3333333333335 697.5 1643.3333333333335 697.7083333333339L2344.375 2447.708333333334C2347.5000000000005 2455.4166666666674 2348.9583333333335 2463.125000000001 2349.791666666667 2471.0416666666674C2362.916666666667 2497.500000000001 2362.916666666667 2529.1666666666674 2347.5000000000005 2555.833333333334C2327.7083333333335 2590.000000000001 2287.7083333333335 2607.2916666666674 2249.166666666667 2597.9166666666674L948.5416666666669 2284.3750000000005V2545.0000000000005L2509.3750000000005 2763.1250000000005L2343.5416666666674 1834.583333333334H2342.708333333334V1829.5833333333344L2338.333333333334 1805.625000000001L2342.708333333334 1805.416666666668L2347.0833333333344 770.8333333333348L2431.250000000001 766.2500000000018C2491.250000000001 762.9166666666688 2551.875000000001 761.4583333333348 2611.0416666666674 761.4583333333348C3648.3333333333344 761.4583333333348 4460.625000000001 1233.1250000000014 4460.625000000001 1835.2083333333348V2761.458333333335H4459.583333333334C4465.625 2796.25 4468.75 2832.083333333333 4468.75 2868.3333333333335zM710.2083333333334 1091.8749999999995V1903.5416666666663C858.9583333333333 1790 1110.4166666666667 1662.5 1466.0416666666667 1693.958333333333L1470.4166666666667 825C1176.6666666666667 856.875 831.6666666666667 1027.9166666666665 710.2083333333334 1091.8749999999995zM1998.5416666666667 2352.9166666666665L1559.5833333333333 1887.9166666666667C1180.4166666666665 1816.8750000000005 927.2916666666666 1956.875 796.875 2063.3333333333335L1998.5416666666667 2352.9166666666665zM2550.625 1974.5833333333333L2729.1666666666665 2973.958333333333L970.2083333333334 2728.333333333333C956.25 2774.7916666666665 948.9583333333334 2821.6666666666665 948.9583333333334 2868.3333333333335C948.9583333333334 3353.541666666667 1713.9583333333335 3763.3333333333335 2619.5833333333335 3763.3333333333335C3525.0000000000005 3763.3333333333335 4290 3353.541666666667 4290 2868.3333333333335C4289.791666666667 2371.0416666666665 3487.5 1953.125 2550.625 1974.5833333333333z" />
    <glyph glyph-name="chart-area-stacked"
      unicode="&#xEA46;"
      horiz-adv-x="5000" d="M4583.333333333334 416.6666666666661H416.6666666666667V3205.625L1193.7500000000002 2946.6666666666665L2241.4583333333335 3994.375L3281.666666666667 3578.333333333333L4266.666666666667 4583.333333333333H4562.5L4583.333333333334 4375V416.6666666666661zM833.3333333333334 833.333333333333H4166.666666666667V3886.0416666666665L3385.0000000000005 3088.333333333333L2341.8750000000005 3505.625L1306.25 2470L833.3333333333334 2627.708333333333V833.333333333333zM625 2916.6666666666665L1250 2708.333333333333L2291.666666666667 3750L3333.3333333333335 3333.333333333333L4354.166666666667 4375L4375 4375L4375 3125L3333.3333333333335 2291.6666666666665L2500 2708.333333333333L1875 1666.6666666666665L625 1875z" />
    <glyph glyph-name="chart-area"
      unicode="&#xEA47;"
      horiz-adv-x="5000" d="M4270.833333333334 4270.833333333333V3224.7916666666665V3135.6249999999995H4183.333333333333L4070.8333333333335 3020.833333333333L3386.041666666667 2321.875L2345.625 2738.333333333333L1297.9166666666667 1690.4166666666665L1102.5000000000002 1755.625H954.7916666666669V1756.041666666667V1770.833333333333H937.5V2812.5H520.8333333333334V312.5H4687.5V4270.833333333333H4270.833333333334zM4062.5 2395.833333333333H4041.6666666666665L4062.5 2417.0833333333335V2395.833333333333z" />
    </font>
</defs>
</svg>
