<?xml version="1.0" encoding="utf-8"?>
<!--
  - This file is part of StyleBI.
  - Copyright (C) 2024  InetSoft Technology
  -
  - This program is free software: you can redistribute it and/or modify
  - it under the terms of the GNU Affero General Public License as published by
  - the Free Software Foundation, either version 3 of the License, or
  - (at your option) any later version.
  -
  - This program is distributed in the hope that it will be useful,
  - but WITHOUT ANY WARRANTY; without even the implied warranty of
  - MERCHANTABILITY or FITNESS FOR A PARTICULAR PURPOSE.  See the
  - GNU Affero General Public License for more details.
  -
  - You should have received a copy of the GNU Affero General Public License
  - along with this program.  If not, see <https://www.gnu.org/licenses/>.
  -->

<!-- Generator: Adobe Illustrator 13.0.1, SVG Export Plug-In . SVG Version: 6.00 Build 14948)  -->
<!DOCTYPE svg PUBLIC "-//W3C//DTD SVG 1.0//EN" "http://www.w3.org/TR/2001/REC-SVG-20010904/DTD/svg10.dtd">
<svg version="1.0" xmlns="http://www.w3.org/2000/svg" xmlns:xlink="http://www.w3.org/1999/xlink" x="0px" y="0px"
	 width="173.355px" height="200px" viewBox="0 0 173.355 200" enable-background="new 0 0 173.355 200" xml:space="preserve">
<g id="Layer_3">
</g>
<g id="Layer_1">
	<rect fill="#A5A5A5" fill-opacity="0" width="173.355" height="200"/>
	<path fill="#FFFFFF" stroke="#0B7F01" stroke-width="1.5398" d="M167.181,29.741C155.873,10.483,108.853,3.404,88.507,3.037
		c-0.336-0.043-0.638-0.05-0.898-0.013c-0.317-0.002-0.628-0.003-0.931-0.003C67.48,2.973,17.837,9.881,6.176,29.741
		c-7.746,14.42-1.725,33.088,22.54,40.19l39.402,81.89h0.066c-4.864,4.783-7.884,11.439-7.884,18.802
		C60.3,185.19,72.11,197,86.678,197c14.568,0,26.378-11.81,26.378-26.378c0-7.361-3.02-14.019-7.883-18.802h0.93l39.402-81.891
		c0.556-0.208,1.034-0.46,1.468-0.739C169.284,61.604,174.672,43.686,167.181,29.741z"/>
	<g display="none">
		<g display="inline">
			<path fill="#BAFFB6" d="M146.303,61.216c-1.489,2.921-5.625,3.721-9.326,2.066c-32.057-14.389-68.541-14.389-100.597,0
				c-3.702,1.655-7.837,0.855-9.327-2.066l0,0c-1.488-2.913,0.559-7.016,4.67-8.858c35.024-15.72,74.885-15.72,109.91,0
				C145.743,54.2,147.791,58.303,146.303,61.216L146.303,61.216z"/>
			<path fill="#BAFFB6" d="M146.303,61.216c-1.489,2.921-5.625,3.721-9.326,2.066c-32.057-14.389-68.541-14.389-100.597,0
				c-3.702,1.655-7.837,0.855-9.327-2.066l0,0c-1.488-2.913,0.559-7.016,4.67-8.858c35.024-15.72,74.885-15.72,109.91,0
				C145.743,54.2,147.791,58.303,146.303,61.216L146.303,61.216z"/>
		</g>
	</g>
	<g display="none">
		<g display="inline">
			<path fill="#ED1FFF" d="M146.303,61.216c-1.489,2.921-5.625,3.721-9.326,2.066c-32.057-14.389-68.541-14.389-100.597,0
				c-3.702,1.655-7.837,0.855-9.327-2.066l0,0c-1.488-2.913,0.559-7.016,4.67-8.858c35.024-15.72,74.885-15.72,109.91,0
				C145.743,54.2,147.791,58.303,146.303,61.216L146.303,61.216z"/>
		</g>
	</g>
	<g display="none">
		<line display="inline" fill="none" stroke="#000000" x1="89.029" y1="185.625" x2="193.558" y2="-77.885"/>
		<line display="inline" fill="none" stroke="#000000" x1="89.029" y1="185.625" x2="-23.386" y2="-74.618"/>
	</g>
	<path display="none" fill="#BAFFB6" d="M34.252,51.366c36.125-15.125,72.375-13.625,104.625-0.125l-4.25,10.375
		c-31.875-12.625-64.75-13-95.75,0.125"/>
	<circle display="none" fill="#BAFFB6" cx="36.564" cy="56.554" r="5.688"/>
	<circle display="none" fill="#BAFFB6" cx="136.877" cy="56.491" r="5.625"/>
	<path fill="#BAFFB6" d="M138.819,51.218c-32.104-13.423-68.168-14.95-104.125-0.03c-2.221,0.774-3.817,2.881-3.817,5.366
		c0,3.141,2.546,5.688,5.688,5.688c0.854,0,1.661-0.194,2.388-0.531c30.883-13.052,63.624-12.708,95.381-0.207
		c0.764,0.389,1.627,0.612,2.543,0.612c3.106,0,5.625-2.519,5.625-5.625C142.502,54.068,140.967,52.01,138.819,51.218z"/>
</g>
</svg>
