<?xml version="1.0" encoding="utf-8"?>
<!--
  - This file is part of StyleBI.
  -
  - Copyright (c) 2024, InetSoft Technology Corp, All Rights Reserved.
  -
  - The software and information contained herein are copyrighted and
  - proprietary to InetSoft Technology Corp. This software is furnished
  - pursuant to a written license agreement and may be used, copied,
  - transmitted, and stored only in accordance with the terms of such
  - license and with the inclusion of the above copyright notice. Please
  - refer to the file "COPYRIGHT" for further copyright and licensing
  - information. This software and information or any other copies
  - thereof may not be provided or otherwise made available to any other
  - person.
  -->

<!-- Generator: Adobe Illustrator 13.0.1, SVG Export Plug-In . SVG Version: 6.00 Build 14948)  -->
<!DOCTYPE svg PUBLIC "-//W3C//DTD SVG 1.0//EN" "http://www.w3.org/TR/2001/REC-SVG-20010904/DTD/svg10.dtd">
<svg version="1.0" xmlns="http://www.w3.org/2000/svg" xmlns:xlink="http://www.w3.org/1999/xlink" x="0px" y="0px" width="200px"
	 height="131.451px" viewBox="0 0 200 131.451" enable-background="new 0 0 200 131.451" xml:space="preserve">
<g id="图层_1">
	<g id="Layer_2">
	</g>
	<g id="Layer_6">
	</g>
	<g id="Layer_1">
	</g>
	<g id="Layer_5">
	</g>
	<g id="Layer_4">
	</g>
	<g id="Layer_3">
		<rect fill="#FFFFFF" fill-opacity="0" width="200" height="131.451"/>
		<g>
			<g>
				<path fill="#FFFFFF" d="M169.356,31.95C146.028,9.787,119.954,4.332,99.668,4.332c-20.473,0-46.362,5.455-69.689,27.619
					C11.226,49.768,3.596,74.584,3.5,90.908c-0.015,2.61,0.162,5.006,0.518,7.118c0.267,1.586,0.633,3.014,1.095,4.257
					c4.247,11.448,16.169,10.909,24.785,9.071c0.892-0.19,1.748-0.395,2.556-0.602h45.148c1.96,9.887,11.091,17.365,22.065,17.365
					c10.975,0,20.104-7.479,22.064-17.365h45.147c0.81,0.207,1.664,0.41,2.556,0.602c8.616,1.838,20.541,2.377,24.785-9.071
					c0.463-1.243,0.829-2.671,1.096-4.257c0.354-2.112,0.533-4.508,0.519-7.118C195.739,74.584,188.108,49.768,169.356,31.95z"/>
			</g>
			<g>
				<path fill="#6EB068" d="M170.264,30.847C150.813,12.369,127.175,3,100.001,3s-50.814,9.369-70.263,27.847
					C10.152,49.456,3.094,74.56,3.001,90.403c-0.016,2.642,0.163,5.084,0.529,7.263c0.275,1.638,0.658,3.119,1.135,4.405
					c3.441,9.279,12.101,12.507,25.739,9.597c0.85-0.183,1.72-0.388,2.588-0.606l-0.206,0.024h45.148l-0.815-0.67
					c2.072,10.451,11.695,18.035,22.881,18.035c11.186,0,20.809-7.584,22.879-18.035l-0.814,0.67h45.148l-0.205-0.024
					c0.867,0.221,1.738,0.426,2.586,0.606c13.639,2.91,22.299-0.317,25.74-9.597c0.479-1.288,0.859-2.77,1.137-4.405
					c0.364-2.181,0.543-4.624,0.527-7.263C196.907,74.562,189.848,49.457,170.264,30.847z M195.335,90.413
					c0.015,2.543-0.155,4.891-0.507,6.977c-0.258,1.531-0.611,2.914-1.055,4.104c-3.108,8.383-11.127,11.258-23.832,8.547
					c-0.827-0.177-1.676-0.377-2.522-0.593l-0.103-0.026h-0.104h-45.148h-0.684l-0.133,0.671
					c-1.918,9.674-10.854,16.695-21.248,16.695c-10.394,0-19.331-7.021-21.25-16.696l-0.132-0.67h-0.684H32.787h-0.104l-0.101,0.026
					c-0.847,0.216-1.696,0.414-2.524,0.593c-12.704,2.711-20.722-0.164-23.832-8.547c-0.441-1.188-0.796-2.57-1.055-4.104
					c-0.351-2.082-0.521-4.431-0.506-6.977c0.098-16.743,8.244-41.281,26.219-58.36c19.128-18.174,42.383-27.39,69.117-27.39
					c26.731,0,49.985,9.215,69.116,27.39C187.092,49.134,195.238,73.672,195.335,90.413z"/>
			</g>
		</g>
		<g display="none">
			<path display="inline" fill="#FF3FBB" stroke="#FF1FA8" stroke-width="4" d="M34.607,94.194
				c3.65-32.918,31.559-58.521,65.452-58.521s61.8,25.603,65.451,58.521h8.498c-3.688-37.594-35.386-66.97-73.949-66.97
				S29.796,56.6,26.11,94.194H34.607z"/>
			<circle display="inline" fill="#DB3FFF" cx="30.161" cy="96.246" r="6.243"/>
			<circle display="inline" fill="#9500DF" cx="170.161" cy="96.246" r="6.243"/>
		</g>
	</g>
</g>
<g id="图层_2">
	<g id="图层_2_1_" display="none">
		<line display="inline" fill="none" stroke="#000000" x1="-26.5" y1="94.226" x2="231.5" y2="94.226"/>
	</g>
	<g>
		<path fill="#B8F6A1" stroke="#B8F6A1" stroke-width="4" d="M34.917,90.393c4.25-29.5,31.249-55.034,65.142-55.034
			s60.442,25.285,65.275,54.867l8.25-0.416c-5.918-34.584-35.001-62.417-73.525-62.585c-38.642-0.168-67.975,28.418-73.475,63.002
			L34.917,90.393z"/>
		
			<rect x="161.584" y="90.726" transform="matrix(-0.9996 0.0275 -0.0275 -0.9996 344.8297 181.3732)" fill="#FFFFFF" width="19.165" height="4.667"/>
		
			<rect x="22.167" y="91.225" transform="matrix(0.9151 0.4032 -0.4032 0.9151 40.0843 -4.4214)" fill="#FFFFFF" width="16.749" height="3.5"/>
		<circle fill="#B8F6A1" cx="30.703" cy="90.455" r="6.16"/>
		<circle fill="#B8F6A1" cx="169.62" cy="91.205" r="6.035"/>
	</g>
</g>
</svg>
