<?xml version="1.0" encoding="utf-8"?>
<!--
  - This file is part of StyleBI.
  - Copyright (C) 2024  InetSoft Technology
  -
  - This program is free software: you can redistribute it and/or modify
  - it under the terms of the GNU Affero General Public License as published by
  - the Free Software Foundation, either version 3 of the License, or
  - (at your option) any later version.
  -
  - This program is distributed in the hope that it will be useful,
  - but WITHOUT ANY WARRANTY; without even the implied warranty of
  - MERCHANTABILITY or FITNESS FOR A PARTICULAR PURPOSE.  See the
  - GNU Affero General Public License for more details.
  -
  - You should have received a copy of the GNU Affero General Public License
  - along with this program.  If not, see <https://www.gnu.org/licenses/>.
  -->

<!-- Generator: Adobe Illustrator 13.0.1, SVG Export Plug-In . SVG Version: 6.00 Build 14948)  -->
<!DOCTYPE svg PUBLIC "-//W3C//DTD SVG 1.0//EN" "http://www.w3.org/TR/2001/REC-SVG-20010904/DTD/svg10.dtd">
<svg version="1.0" xmlns="http://www.w3.org/2000/svg" xmlns:xlink="http://www.w3.org/1999/xlink" x="0px" y="0px"
	 width="200.301px" height="131.139px" viewBox="0 0 200.301 131.139" enable-background="new 0 0 200.301 131.139"
	 xml:space="preserve">
<g id="图层_1">
	<g id="Layer_3">
	</g>
	<g id="Layer_1">
		
			<linearGradient id="SVGID_1_" gradientUnits="userSpaceOnUse" x1="-23.0747" y1="-124.9558" x2="-23.0747" y2="5.8821" gradientTransform="matrix(1 0 0 -1 123.2246 6.0317)">
			<stop  offset="0" style="stop-color:#EAFFBF"/>
			<stop  offset="0.5112" style="stop-color:#5BD963"/>
			<stop  offset="1" style="stop-color:#42BD17"/>
		</linearGradient>
		<rect x="0.15" y="0.15" fill="url(#SVGID_1_)" fill-opacity="0" width="200" height="130.838"/>
		
			<linearGradient id="SVGID_2_" gradientUnits="userSpaceOnUse" x1="-23.0737" y1="-121.4548" x2="-23.0737" y2="2.3811" gradientTransform="matrix(1 0 0 -1 123.2246 6.0317)">
			<stop  offset="0" style="stop-color:#EAFFBF"/>
			<stop  offset="0.5112" style="stop-color:#5BD963"/>
			<stop  offset="1" style="stop-color:#42BD17"/>
		</linearGradient>
		<path fill="url(#SVGID_2_)" stroke="#127C00" stroke-width="0.3" d="M169.027,32.071c-22.94-21.863-48.52-28.42-68.876-28.42
			c-20.543,0-45.616,6.314-69.023,28.486C12.373,50.452,3.749,73.931,3.652,90.261c-0.016,2.612,0.163,5.008,0.52,7.123
			c0.268,1.585,0.636,3.014,1.099,4.257c4.262,11.453,16.226,10.914,24.871,9.074c0.895-0.189,1.753-0.395,2.564-0.601H78.01
			c1.967,9.89,11.129,17.372,22.141,17.372c11.012,0,20.175-7.482,22.141-17.372h45.306c0.811,0.206,1.67,0.41,2.563,0.601
			c8.646,1.84,20.608,2.379,24.871-9.074c0.463-1.243,0.829-2.672,1.098-4.257c0.356-2.115,0.535-4.511,0.521-7.123
			C196.553,73.931,187.221,50.009,169.027,32.071z"/>
		
			<linearGradient id="SVGID_3_" gradientUnits="userSpaceOnUse" x1="-21.6655" y1="-0.9104" x2="-21.6655" y2="-30.0554" gradientTransform="matrix(1 0 0 -1 123.2246 6.0317)">
			<stop  offset="0" style="stop-color:#EAFFBF"/>
			<stop  offset="0.0842" style="stop-color:#CFF7AA"/>
			<stop  offset="0.2639" style="stop-color:#8AE276"/>
			<stop  offset="0.3989" style="stop-color:#53D14B"/>
			<stop  offset="0.9944" style="stop-color:#50CD41"/>
		</linearGradient>
		<path fill="url(#SVGID_3_)" d="M37.927,29.565c0,0,66.335-55.004,127.265,6.522C165.191,36.088,140.549,5.467,37.927,29.565z"/>
		
			<linearGradient id="SVGID_4_" gradientUnits="userSpaceOnUse" x1="-110.5913" y1="-95.3347" x2="-97.7952" y2="-80.0849" gradientTransform="matrix(1 0 0 -1 123.2246 6.0317)">
			<stop  offset="0" style="stop-color:#EAFFBF"/>
			<stop  offset="0.9831" style="stop-color:#5BD963"/>
		</linearGradient>
		<path opacity="0.5" fill="url(#SVGID_4_)" enable-background="new    " d="M12.075,74.91c0,0-13.668,39.48,21.702,28.38
			C33.777,103.29,9.848,103.847,12.075,74.91z"/>
		
			<linearGradient id="SVGID_5_" gradientUnits="userSpaceOnUse" x1="-314.8257" y1="-95.1477" x2="-302.0302" y2="-79.8986" gradientTransform="matrix(-1 0 0 -1 -126.3564 6.0317)">
			<stop  offset="0" style="stop-color:#EAFFBF"/>
			<stop  offset="1" style="stop-color:#5BD963"/>
		</linearGradient>
		<path opacity="0.5" fill="url(#SVGID_5_)" enable-background="new    " d="M189.029,74.725c0,0,13.666,39.481-21.702,28.38
			C167.327,103.104,191.254,103.661,189.029,74.725z"/>
		
			<linearGradient id="SVGID_6_" gradientUnits="userSpaceOnUse" x1="-23.0244" y1="-21.4519" x2="-23.0244" y2="-84.9021" gradientTransform="matrix(1 0 0 -1 123.2246 6.0317)">
			<stop  offset="0.191" style="stop-color:#79EB5D"/>
			<stop  offset="0.8146" style="stop-color:#C9F1AB"/>
			<stop  offset="1" style="stop-color:#8DED71"/>
		</linearGradient>
		
			<path display="none" opacity="0.6" fill="url(#SVGID_6_)" stroke="#267501" stroke-width="0.1669" enable-background="new    " d="
			M171.602,83.99c-0.104-0.442-0.229-0.879-0.342-1.317c-0.059-0.32-0.139-0.631-0.24-0.935
			c-8.412-31.245-36.914-54.255-70.817-54.255c-33.716,0-62.095,22.75-70.686,53.729c-0.268,0.629-0.447,1.307-0.52,2.015
			c-0.063,0.256-0.137,0.507-0.197,0.763h0.162c0.023,3.84,3.14,6.943,6.983,6.943c3.843,0,6.96-3.104,6.983-6.943h0.064
			c7.277-24.724,30.128-42.777,57.209-42.777c27.079,0,49.93,18.055,57.209,42.777h0.004c0.022,3.84,3.142,6.943,6.983,6.943
			c3.843,0,6.959-3.104,6.982-6.943H171.602z"/>
	</g>
</g>
<g id="图层_2">
	<g>
		
			<linearGradient id="SVGID_7_" gradientUnits="userSpaceOnUse" x1="-23.0718" y1="-21.4519" x2="-23.0718" y2="-75.5759" gradientTransform="matrix(1 0 0 -1 123.2246 6.0317)">
			<stop  offset="0.191" style="stop-color:#79EB5D"/>
			<stop  offset="0.8146" style="stop-color:#C9F1AB"/>
			<stop  offset="1" style="stop-color:#8DED71"/>
		</linearGradient>
		
			<path display="none" opacity="0.6" fill="url(#SVGID_7_)" stroke="#267501" stroke-width="0.1669" enable-background="new    " d="
			M100.033,40.32c26.228,0,48.579,16.925,57.145,40.654l12.346-4.107c-9.938-28.736-37.206-49.383-69.321-49.383
			c-32.213,0-59.554,20.767-69.42,49.636l12,4.154C51.267,57.387,73.695,40.32,100.033,40.32z"/>
	</g>
	<g id="图层_2_1_" display="none">
		<g display="inline">
			<line fill="none" stroke="#000000" x1="99.68" y1="102.937" x2="296.037" y2="40.652"/>
			<line fill="none" stroke="#000000" x1="99.68" y1="102.937" x2="-96.893" y2="41.333"/>
		</g>
	</g>
	<linearGradient id="SVGID_8_" gradientUnits="userSpaceOnUse" x1="100.0874" y1="27.4836" x2="100.0874" y2="85.3201">
		<stop  offset="0.191" style="stop-color:#79EB5D"/>
		<stop  offset="0.8146" style="stop-color:#C9F1AB"/>
		<stop  offset="1" style="stop-color:#8DED71"/>
	</linearGradient>
	<path opacity="0.6" fill="url(#SVGID_8_)" stroke="#267501" stroke-width="0.1669" enable-background="new    " d="M169.457,76.889
		l0.066-0.022c-9.938-28.736-37.206-49.383-69.321-49.383c-31.601,0-58.501,19.99-68.827,48.004
		c-0.614,0.986-0.975,2.146-0.975,3.395c0,3.556,2.882,6.438,6.438,6.438c2.961,0,5.448-2.001,6.2-4.724
		c8.667-23.528,30.909-40.276,56.996-40.276c26.228,0,48.579,16.925,57.145,40.654l0.068-0.022c0.862,2.538,3.261,4.367,6.091,4.367
		c3.556,0,6.438-2.882,6.438-6.438C169.774,78.185,169.661,77.517,169.457,76.889z"/>
	<linearGradient id="SVGID_9_" gradientUnits="userSpaceOnUse" x1="30.4004" y1="78.8821" x2="43.2754" y2="78.8821">
		<stop  offset="0.191" style="stop-color:#79EB5D"/>
		<stop  offset="0.8146" style="stop-color:#C9F1AB"/>
		<stop  offset="1" style="stop-color:#8DED71"/>
	</linearGradient>
	
		<circle display="none" opacity="0.6" fill="url(#SVGID_9_)" stroke="#267501" stroke-width="0.1672" enable-background="new    " cx="36.838" cy="78.882" r="6.438"/>
	<linearGradient id="SVGID_10_" gradientUnits="userSpaceOnUse" x1="156.8994" y1="78.8811" x2="169.7744" y2="78.8811">
		<stop  offset="0.191" style="stop-color:#79EB5D"/>
		<stop  offset="0.8146" style="stop-color:#C9F1AB"/>
		<stop  offset="1" style="stop-color:#8DED71"/>
	</linearGradient>
	
		<circle display="none" opacity="0.6" fill="url(#SVGID_10_)" stroke="#267501" stroke-width="0.1672" enable-background="new    " cx="163.337" cy="78.881" r="6.438"/>
</g>
</svg>
