<?xml version="1.0" encoding="utf-8"?>
<!--
  - This file is part of StyleBI.
  - Copyright (C) 2024  InetSoft Technology
  -
  - This program is free software: you can redistribute it and/or modify
  - it under the terms of the GNU Affero General Public License as published by
  - the Free Software Foundation, either version 3 of the License, or
  - (at your option) any later version.
  -
  - This program is distributed in the hope that it will be useful,
  - but WITHOUT ANY WARRANTY; without even the implied warranty of
  - MERCHANTABILITY or FITNESS FOR A PARTICULAR PURPOSE.  See the
  - GNU Affero General Public License for more details.
  -
  - You should have received a copy of the GNU Affero General Public License
  - along with this program.  If not, see <https://www.gnu.org/licenses/>.
  -->

<!-- Generator: Adobe Illustrator 13.0.1, SVG Export Plug-In . SVG Version: 6.00 Build 14948)  -->
<!DOCTYPE svg PUBLIC "-//W3C//DTD SVG 1.0//EN" "http://www.w3.org/TR/2001/REC-SVG-20010904/DTD/svg10.dtd">
<svg version="1.0" id="图层_1" xmlns="http://www.w3.org/2000/svg" xmlns:xlink="http://www.w3.org/1999/xlink" x="0px" y="0px"
	 width="200px" height="200px" viewBox="0 0 200 200" enable-background="new 0 0 200 200" xml:space="preserve">
<g id="Layer_1">
	
		<linearGradient id="SVGID_1_" gradientUnits="userSpaceOnUse" x1="-318.0752" y1="-371.5913" x2="-208.6633" y2="-262.1794" gradientTransform="matrix(1 0 0 -1 331.0459 -184.3496)">
		<stop  offset="0" style="stop-color:#EAFFBF"/>
		<stop  offset="0.5112" style="stop-color:#5BC763"/>
		<stop  offset="1" style="stop-color:#26C017"/>
	</linearGradient>
	<path fill="url(#SVGID_1_)" stroke="#4C7291" stroke-width="0.4515" d="M194.709,169.529c8.007-23.08-4.22-85.17-48.613-124.304
		C100.873,2.118,39.72-7.157,19.267,13.626c-9.303,9.452-10.32,26.61-4.469,45.775l-0.001,77.773
		c-0.688,0.596-1.363,1.211-2.012,1.872c-13.048,13.259-13.048,34.751,0,48.009c13.046,13.26,34.2,13.26,47.247,0.002
		c0.875-0.892,1.688-1.818,2.446-2.775h77.78C154.3,188.111,187.081,191.525,194.709,169.529z"/>
	
		<linearGradient id="SVGID_2_" gradientUnits="userSpaceOnUse" x1="-182.8018" y1="-239.3135" x2="-202.3963" y2="-258.9079" gradientTransform="matrix(1 0 0 -1 331.0459 -184.3496)">
		<stop  offset="0" style="stop-color:#EAFFBF"/>
		<stop  offset="0.5112" style="stop-color:#5BC763"/>
		<stop  offset="1" style="stop-color:#26C017"/>
	</linearGradient>
	<path fill="url(#SVGID_2_)" d="M40.602,17.685c0,0,129.666-22.026,148.985,140.858C189.586,158.543,155.275,21.296,40.602,17.685z"
		/>
	<g>
		<g>
			<path fill="#044FAA" d="M38.157,49.91c-0.042-0.61-0.005-1.106,0.111-1.488c0.116-0.383,0.307-0.685,0.573-0.906
				c0.267-0.221,0.612-0.347,1.037-0.376c0.314-0.021,0.593,0.017,0.836,0.11c0.245,0.095,0.452,0.242,0.619,0.441
				c0.169,0.198,0.309,0.447,0.416,0.741c0.109,0.298,0.182,0.7,0.217,1.213c0.042,0.604,0.005,1.1-0.109,1.48
				c-0.114,0.383-0.305,0.684-0.571,0.906c-0.266,0.222-0.614,0.35-1.041,0.378c-0.564,0.04-1.018-0.108-1.365-0.442
				C38.466,51.565,38.224,50.88,38.157,49.91z M38.895,49.858c0.058,0.848,0.209,1.403,0.453,1.669
				c0.245,0.266,0.533,0.386,0.86,0.362c0.33-0.022,0.596-0.183,0.803-0.479c0.205-0.299,0.277-0.869,0.219-1.715
				c-0.059-0.851-0.21-1.407-0.455-1.67c-0.244-0.266-0.533-0.386-0.866-0.361c-0.33,0.022-0.585,0.165-0.765,0.425
				C38.919,48.422,38.836,49.011,38.895,49.858z"/>
			<path fill="#044FAA" d="M55.586,53.865l-0.709-0.121l0.684-3.988c-0.196,0.114-0.444,0.22-0.746,0.315
				c-0.3,0.096-0.568,0.161-0.801,0.194l0.104-0.604c0.423-0.095,0.804-0.235,1.141-0.418c0.337-0.186,0.585-0.376,0.748-0.575
				l0.457,0.08L55.586,53.865z"/>
			<path fill="#044FAA" d="M56.637,52.665l0.751,0.1c-0.011,0.328,0.065,0.594,0.233,0.795c0.166,0.202,0.39,0.332,0.67,0.392
				c0.34,0.07,0.651,0.018,0.931-0.159c0.282-0.176,0.462-0.451,0.54-0.824c0.074-0.354,0.02-0.656-0.164-0.909
				c-0.182-0.252-0.457-0.416-0.822-0.491c-0.226-0.047-0.441-0.045-0.642,0.009c-0.201,0.053-0.371,0.141-0.504,0.264l-0.646-0.214
				l1.097-2.484l2.852,0.595l-0.124,0.595l-2.289-0.477l-0.593,1.296c0.39-0.141,0.772-0.171,1.15-0.092
				c0.501,0.104,0.893,0.346,1.173,0.723c0.28,0.378,0.37,0.808,0.27,1.288c-0.095,0.459-0.328,0.822-0.7,1.094
				c-0.454,0.333-0.999,0.434-1.635,0.302c-0.522-0.108-0.921-0.326-1.198-0.653C56.713,53.482,56.595,53.101,56.637,52.665z"/>
			<path fill="#044FAA" d="M70.018,56.141l0.705,0.162c-0.044,0.367,0.002,0.658,0.136,0.873c0.132,0.217,0.333,0.372,0.601,0.467
				c0.319,0.114,0.623,0.113,0.912-0.004c0.288-0.116,0.483-0.317,0.587-0.606c0.097-0.274,0.076-0.537-0.063-0.787
				c-0.139-0.251-0.365-0.432-0.679-0.544c-0.129-0.046-0.295-0.08-0.501-0.104l0.263-0.499c0.042,0.021,0.078,0.035,0.106,0.047
				c0.289,0.102,0.571,0.128,0.85,0.076c0.277-0.05,0.465-0.214,0.564-0.49c0.078-0.221,0.059-0.432-0.058-0.635
				c-0.116-0.205-0.309-0.354-0.573-0.447c-0.263-0.095-0.508-0.1-0.735-0.017c-0.228,0.085-0.419,0.265-0.573,0.538l-0.638-0.348
				c0.224-0.371,0.524-0.614,0.896-0.731c0.37-0.115,0.774-0.096,1.211,0.061c0.3,0.106,0.557,0.263,0.769,0.467
				c0.213,0.205,0.351,0.429,0.415,0.674c0.065,0.245,0.056,0.479-0.023,0.699c-0.074,0.211-0.207,0.38-0.395,0.508
				c-0.191,0.127-0.429,0.196-0.714,0.209c0.301,0.182,0.504,0.41,0.61,0.685c0.106,0.273,0.104,0.567-0.009,0.883
				c-0.151,0.425-0.455,0.723-0.912,0.895c-0.455,0.169-0.952,0.16-1.488-0.031c-0.483-0.173-0.839-0.442-1.069-0.813
				C69.984,56.958,69.919,56.563,70.018,56.141z"/>
			<path fill="#044FAA" d="M74.18,56.366c0.227-0.567,0.478-0.998,0.748-1.293c0.271-0.292,0.575-0.481,0.91-0.563
				c0.336-0.083,0.702-0.046,1.097,0.112c0.291,0.117,0.527,0.271,0.706,0.463c0.178,0.192,0.3,0.415,0.365,0.668
				s0.082,0.536,0.051,0.849c-0.032,0.314-0.143,0.709-0.333,1.187c-0.226,0.563-0.473,0.991-0.743,1.285
				c-0.27,0.295-0.573,0.482-0.91,0.567c-0.335,0.084-0.704,0.048-1.1-0.112c-0.524-0.21-0.87-0.54-1.036-0.992
				C73.737,57.991,73.818,57.269,74.18,56.366z M74.865,56.641c-0.315,0.789-0.421,1.356-0.317,1.701
				c0.104,0.345,0.309,0.578,0.616,0.7c0.307,0.123,0.617,0.095,0.931-0.083c0.312-0.179,0.628-0.662,0.943-1.448
				c0.316-0.791,0.421-1.357,0.317-1.702c-0.104-0.344-0.312-0.575-0.624-0.7c-0.307-0.124-0.598-0.106-0.871,0.049
				C75.513,55.357,75.181,55.853,74.865,56.641z"/>
			<path fill="#044FAA" d="M87.616,65.535l0.61-1.078l-2.208-1.25l0.288-0.507l3.973-1.604l0.512,0.29l-1.653,2.918l0.688,0.39
				L89.538,65.2l-0.688-0.39l-0.61,1.079L87.616,65.535z M88.514,63.949l1.15-2.029l-2.744,1.128L88.514,63.949z"/>
			<path fill="#044FAA" d="M89.685,65.153l0.672,0.348c-0.122,0.306-0.139,0.581-0.053,0.827c0.088,0.246,0.254,0.444,0.499,0.597
				c0.294,0.183,0.605,0.238,0.929,0.167c0.325-0.069,0.587-0.267,0.789-0.591c0.188-0.309,0.241-0.611,0.155-0.91
				c-0.086-0.299-0.29-0.546-0.607-0.743c-0.196-0.12-0.398-0.19-0.605-0.21c-0.208-0.02-0.395,0.008-0.564,0.075l-0.534-0.42
				l1.878-1.961l2.478,1.53l-0.319,0.516l-1.987-1.228l-0.998,1.016c0.413,0.001,0.783,0.104,1.111,0.306
				c0.436,0.27,0.721,0.629,0.855,1.079C93.52,66,93.458,66.437,93.2,66.855c-0.245,0.396-0.591,0.658-1.032,0.787
				c-0.54,0.158-1.084,0.066-1.638-0.273c-0.455-0.279-0.755-0.62-0.903-1.021C89.478,65.946,89.498,65.549,89.685,65.153z"/>
			<path fill="#044FAA" d="M105.592,73.358l-0.584-0.415c0.108-0.232,0.154-0.431,0.135-0.594c-0.037-0.263-0.164-0.483-0.385-0.663
				c-0.177-0.146-0.369-0.229-0.574-0.253c-0.267-0.029-0.541,0.021-0.817,0.155c-0.278,0.134-0.582,0.399-0.914,0.797
				c0.28-0.07,0.554-0.07,0.817,0c0.268,0.072,0.504,0.193,0.715,0.368c0.373,0.304,0.591,0.683,0.65,1.138
				c0.065,0.453-0.06,0.873-0.373,1.255c-0.205,0.252-0.457,0.436-0.758,0.55c-0.3,0.115-0.604,0.143-0.91,0.082
				c-0.309-0.062-0.6-0.202-0.871-0.426c-0.464-0.379-0.719-0.839-0.764-1.38c-0.046-0.542,0.213-1.156,0.779-1.849
				c0.633-0.773,1.255-1.204,1.867-1.291c0.53-0.073,1.037,0.083,1.516,0.475c0.355,0.293,0.577,0.619,0.66,0.982
				C105.863,72.652,105.802,73.011,105.592,73.358z M101.908,73.224c-0.139,0.17-0.229,0.365-0.275,0.588
				c-0.046,0.221-0.027,0.432,0.053,0.633c0.08,0.199,0.199,0.367,0.36,0.498c0.236,0.191,0.506,0.272,0.812,0.245
				c0.308-0.029,0.578-0.188,0.813-0.477c0.228-0.276,0.321-0.563,0.284-0.858c-0.036-0.296-0.184-0.548-0.436-0.755
				c-0.252-0.205-0.531-0.301-0.836-0.283C102.378,72.829,102.119,72.967,101.908,73.224z"/>
			<path fill="#044FAA" d="M104.971,74.607c0.405-0.458,0.785-0.778,1.137-0.965c0.354-0.185,0.705-0.26,1.05-0.226
				c0.344,0.035,0.675,0.194,0.993,0.477c0.234,0.207,0.404,0.433,0.51,0.673c0.104,0.24,0.143,0.49,0.119,0.751
				c-0.023,0.259-0.102,0.531-0.237,0.815c-0.132,0.284-0.371,0.619-0.709,1.002c-0.401,0.455-0.78,0.774-1.132,0.96
				c-0.354,0.188-0.702,0.263-1.049,0.229c-0.344-0.033-0.676-0.192-0.997-0.478c-0.425-0.373-0.638-0.802-0.642-1.28
				C104.01,75.987,104.327,75.335,104.971,74.607z M105.525,75.097c-0.563,0.637-0.854,1.134-0.871,1.492
				c-0.018,0.359,0.098,0.649,0.345,0.867c0.247,0.219,0.549,0.297,0.905,0.235c0.354-0.063,0.813-0.41,1.373-1.044
				c0.563-0.639,0.854-1.137,0.871-1.494c0.017-0.358-0.102-0.649-0.354-0.871c-0.247-0.219-0.525-0.301-0.838-0.247
				C106.564,74.107,106.087,74.461,105.525,75.097z"/>
			<path fill="#044FAA" d="M114.73,81.206l0.451-0.411l2.553,2.801l-0.366,0.332c-0.509-0.039-1.103,0.001-1.777,0.123
				c-0.677,0.119-1.309,0.313-1.896,0.58c-0.418,0.186-0.832,0.438-1.238,0.754l-0.498-0.546c0.307-0.269,0.73-0.533,1.273-0.793
				c0.543-0.26,1.119-0.451,1.731-0.572c0.614-0.121,1.179-0.171,1.697-0.147L114.73,81.206z"/>
			<path fill="#044FAA" d="M114.835,85.979l0.533,0.538c-0.212,0.253-0.313,0.51-0.306,0.771c0.008,0.261,0.103,0.501,0.289,0.72
				c0.225,0.265,0.502,0.413,0.834,0.444c0.33,0.033,0.642-0.073,0.931-0.319c0.276-0.233,0.419-0.508,0.43-0.818
				c0.011-0.312-0.106-0.607-0.347-0.892c-0.15-0.177-0.319-0.307-0.512-0.389c-0.192-0.081-0.377-0.114-0.563-0.102l-0.377-0.563
				l2.393-1.288l1.885,2.218l-0.463,0.394l-1.514-1.778l-1.263,0.659c0.394,0.127,0.712,0.339,0.963,0.633
				c0.332,0.389,0.492,0.818,0.479,1.289c-0.012,0.47-0.203,0.863-0.58,1.182c-0.354,0.305-0.764,0.448-1.224,0.436
				c-0.561-0.017-1.053-0.271-1.474-0.765c-0.344-0.405-0.525-0.821-0.543-1.25C114.393,86.67,114.536,86.297,114.835,85.979z"/>
			<path fill="#044FAA" d="M123.107,96.94l0.426,0.547c-0.21,0.206-0.323,0.413-0.342,0.622c-0.02,0.209,0.043,0.422,0.186,0.639
				c0.12,0.185,0.264,0.322,0.428,0.413c0.166,0.091,0.34,0.141,0.523,0.147c0.184,0.009,0.4-0.026,0.652-0.105
				c0.252-0.078,0.487-0.189,0.711-0.333c0.021-0.015,0.057-0.039,0.102-0.073c-0.247-0.01-0.492-0.084-0.732-0.224
				c-0.24-0.142-0.44-0.332-0.599-0.575c-0.264-0.406-0.358-0.834-0.282-1.285c0.077-0.451,0.329-0.814,0.754-1.092
				c0.439-0.286,0.891-0.369,1.35-0.25c0.46,0.118,0.834,0.397,1.119,0.841c0.207,0.319,0.322,0.659,0.343,1.022
				c0.021,0.362-0.063,0.706-0.256,1.024c-0.192,0.32-0.556,0.653-1.087,0.999c-0.555,0.361-1.038,0.581-1.457,0.658
				c-0.416,0.077-0.797,0.037-1.143-0.12c-0.348-0.156-0.639-0.416-0.873-0.777c-0.25-0.385-0.361-0.759-0.33-1.123
				C122.63,97.529,122.8,97.211,123.107,96.94z M126.626,98.16c0.306-0.199,0.489-0.447,0.548-0.749
				c0.059-0.301,0.004-0.58-0.164-0.84c-0.175-0.269-0.423-0.438-0.744-0.51c-0.324-0.073-0.639-0.011-0.945,0.189
				c-0.276,0.181-0.438,0.42-0.489,0.721c-0.049,0.302,0.017,0.591,0.194,0.867c0.184,0.278,0.418,0.451,0.709,0.52
				C126.023,98.425,126.32,98.359,126.626,98.16z"/>
			<path fill="#044FAA" d="M126.413,99.54c0.524-0.314,0.981-0.507,1.375-0.575c0.394-0.068,0.748-0.036,1.067,0.102
				c0.316,0.138,0.584,0.388,0.804,0.754c0.163,0.269,0.256,0.534,0.282,0.794c0.023,0.262-0.012,0.512-0.115,0.754
				c-0.1,0.238-0.258,0.477-0.473,0.706c-0.213,0.229-0.539,0.478-0.98,0.741c-0.52,0.313-0.975,0.502-1.368,0.572
				c-0.392,0.068-0.748,0.036-1.067-0.101c-0.317-0.138-0.588-0.39-0.808-0.757c-0.291-0.483-0.364-0.956-0.224-1.418
				C125.078,100.564,125.579,100.039,126.413,99.54z M126.792,100.173c-0.729,0.438-1.155,0.823-1.28,1.161
				s-0.104,0.648,0.065,0.932c0.171,0.282,0.435,0.448,0.792,0.496c0.357,0.049,0.898-0.146,1.626-0.58
				c0.729-0.438,1.157-0.824,1.282-1.16c0.123-0.338,0.1-0.648-0.072-0.938c-0.169-0.283-0.411-0.445-0.723-0.487
				C128.083,99.544,127.52,99.737,126.792,100.173z"/>
			<path fill="#044FAA" d="M131.252,114.1l-0.298-0.652l3.685-1.678c-0.205-0.099-0.433-0.244-0.682-0.438
				c-0.249-0.195-0.451-0.38-0.611-0.555l0.559-0.254c0.318,0.297,0.648,0.531,0.988,0.707c0.34,0.174,0.64,0.271,0.896,0.293
				l0.19,0.422L131.252,114.1z"/>
			<path fill="#044FAA" d="M133.895,113.736c0.563-0.236,1.043-0.361,1.442-0.375c0.397-0.014,0.746,0.07,1.041,0.252
				c0.294,0.182,0.524,0.47,0.688,0.861c0.123,0.289,0.177,0.563,0.166,0.825c-0.01,0.265-0.084,0.505-0.217,0.729
				c-0.137,0.226-0.324,0.436-0.57,0.634c-0.244,0.196-0.602,0.396-1.075,0.594c-0.56,0.233-1.037,0.358-1.437,0.373
				c-0.398,0.015-0.744-0.067-1.041-0.25c-0.295-0.18-0.526-0.469-0.692-0.864c-0.22-0.521-0.226-0.998-0.021-1.433
				C132.426,114.561,132.998,114.111,133.895,113.736z M134.18,114.417c-0.783,0.328-1.26,0.649-1.433,0.968
				c-0.171,0.314-0.194,0.627-0.065,0.932c0.127,0.306,0.365,0.506,0.711,0.604c0.349,0.099,0.912-0.019,1.69-0.345
				c0.785-0.328,1.263-0.65,1.435-0.967c0.168-0.315,0.191-0.629,0.063-0.938c-0.127-0.307-0.346-0.5-0.646-0.586
				C135.546,113.979,134.962,114.089,134.18,114.417z"/>
			<path fill="#044FAA" d="M135.409,117.352c0.571-0.217,1.056-0.324,1.455-0.322c0.399,0,0.743,0.097,1.032,0.287
				c0.289,0.188,0.51,0.483,0.662,0.885c0.109,0.294,0.155,0.57,0.137,0.83c-0.021,0.263-0.104,0.504-0.243,0.724
				c-0.142,0.22-0.339,0.425-0.589,0.612c-0.252,0.188-0.616,0.376-1.096,0.559c-0.565,0.217-1.05,0.322-1.447,0.323
				c-0.398,0.001-0.742-0.097-1.031-0.284c-0.291-0.188-0.514-0.484-0.665-0.888c-0.201-0.528-0.192-1.007,0.028-1.437
				C133.915,118.126,134.502,117.697,135.409,117.352z M135.671,118.043c-0.793,0.303-1.28,0.607-1.464,0.917
				c-0.182,0.312-0.215,0.621-0.098,0.931c0.117,0.311,0.349,0.52,0.69,0.627c0.345,0.108,0.91,0.018,1.702-0.285
				c0.795-0.305,1.284-0.606,1.465-0.918c0.184-0.312,0.213-0.623,0.094-0.937c-0.117-0.31-0.326-0.513-0.627-0.606
				C137.052,117.648,136.465,117.74,135.671,118.043z"/>
			<path fill="#044FAA" d="M137.248,130.919l-0.191-0.69l3.896-1.09c-0.188-0.127-0.389-0.307-0.604-0.535
				c-0.216-0.231-0.389-0.447-0.52-0.645l0.591-0.165c0.271,0.345,0.558,0.627,0.868,0.854c0.311,0.227,0.589,0.367,0.839,0.43
				l0.124,0.445L137.248,130.919z"/>
			<path fill="#044FAA" d="M138.021,133.916l-0.179-0.695l3.927-0.988c-0.184-0.133-0.381-0.314-0.59-0.553
				c-0.212-0.238-0.379-0.455-0.504-0.654l0.598-0.148c0.259,0.352,0.541,0.643,0.845,0.875c0.305,0.23,0.58,0.385,0.827,0.45
				l0.113,0.448L138.021,133.916z"/>
			<path fill="#044FAA" d="M139.498,134.215l0.219,0.727c-0.303,0.125-0.513,0.306-0.628,0.539c-0.114,0.233-0.141,0.49-0.079,0.771
				c0.076,0.338,0.252,0.6,0.529,0.782s0.602,0.231,0.972,0.149c0.354-0.078,0.608-0.254,0.763-0.521
				c0.152-0.271,0.189-0.59,0.108-0.951c-0.051-0.229-0.141-0.421-0.272-0.582c-0.131-0.162-0.279-0.277-0.447-0.352l-0.07-0.676
				l2.715-0.022l0.633,2.842l-0.592,0.134l-0.509-2.279l-1.425-0.008c0.288,0.297,0.477,0.633,0.561,1.012
				c0.109,0.498,0.051,0.953-0.178,1.363s-0.584,0.672-1.063,0.775c-0.457,0.104-0.885,0.039-1.284-0.188
				c-0.489-0.274-0.806-0.729-0.947-1.365c-0.114-0.52-0.081-0.973,0.104-1.356C138.786,134.62,139.084,134.355,139.498,134.215z"/>
			<path fill="#044FAA" d="M140.539,147.337l-0.1-0.712l4.008-0.559c-0.168-0.15-0.344-0.355-0.527-0.612
				c-0.182-0.261-0.326-0.494-0.429-0.706l0.608-0.084c0.221,0.375,0.469,0.695,0.746,0.961c0.275,0.266,0.532,0.443,0.771,0.537
				l0.063,0.461L140.539,147.337z"/>
			<path fill="#044FAA" d="M141.979,147.738l0.166,0.705c-0.35,0.123-0.59,0.291-0.727,0.508c-0.136,0.215-0.188,0.463-0.152,0.746
				c0.036,0.337,0.172,0.607,0.403,0.816c0.233,0.207,0.501,0.295,0.804,0.26c0.291-0.033,0.519-0.168,0.683-0.401
				c0.163-0.235,0.228-0.521,0.188-0.851c-0.016-0.135-0.058-0.301-0.127-0.496l0.563,0.017c0.002,0.048,0.003,0.087,0.007,0.116
				c0.034,0.304,0.136,0.568,0.304,0.798c0.168,0.228,0.396,0.323,0.691,0.291c0.229-0.026,0.41-0.138,0.543-0.332
				c0.132-0.192,0.182-0.433,0.15-0.712c-0.033-0.278-0.138-0.501-0.313-0.669c-0.178-0.167-0.419-0.261-0.735-0.277l0.032-0.728
				c0.434,0.039,0.783,0.201,1.051,0.482c0.27,0.281,0.43,0.652,0.479,1.113c0.036,0.316,0.009,0.615-0.081,0.896
				c-0.092,0.279-0.229,0.504-0.422,0.67c-0.191,0.164-0.405,0.262-0.639,0.287c-0.223,0.023-0.433-0.021-0.63-0.135
				c-0.198-0.113-0.364-0.298-0.504-0.55c-0.03,0.353-0.146,0.636-0.344,0.853c-0.199,0.217-0.466,0.344-0.797,0.381
				c-0.448,0.052-0.851-0.092-1.205-0.426c-0.354-0.336-0.563-0.785-0.627-1.354c-0.06-0.512,0.028-0.949,0.259-1.316
				C141.23,148.068,141.557,147.836,141.979,147.738z"/>
			<path fill="#044FAA" d="M143.591,151.395c0.608-0.054,1.106-0.021,1.488,0.088c0.385,0.108,0.69,0.295,0.916,0.56
				s0.356,0.604,0.394,1.03c0.026,0.314-0.006,0.593-0.098,0.839c-0.092,0.243-0.234,0.452-0.432,0.626
				c-0.196,0.171-0.441,0.313-0.735,0.428c-0.293,0.113-0.697,0.191-1.207,0.236c-0.604,0.052-1.101,0.021-1.483-0.088
				c-0.385-0.106-0.688-0.293-0.916-0.557c-0.227-0.263-0.357-0.605-0.395-1.033c-0.049-0.563,0.092-1.021,0.42-1.371
				C141.941,151.729,142.622,151.479,143.591,151.395z M143.654,152.131c-0.848,0.072-1.401,0.23-1.662,0.48
				c-0.26,0.246-0.377,0.537-0.348,0.863c0.027,0.33,0.191,0.596,0.491,0.797c0.304,0.197,0.873,0.263,1.72,0.188
				c0.849-0.072,1.4-0.232,1.662-0.479c0.26-0.25,0.375-0.541,0.347-0.873c-0.028-0.33-0.173-0.582-0.438-0.758
				C145.09,152.131,144.5,152.059,143.654,152.131z"/>
		</g>
	</g>
	
		<linearGradient id="SVGID_3_" gradientUnits="userSpaceOnUse" x1="-233.1313" y1="-231.9727" x2="-243.704" y2="-350.203" gradientTransform="matrix(1 0 0 -1 331.0459 -184.3496)">
		<stop  offset="0.0056" style="stop-color:#90DC85"/>
		<stop  offset="0.2865" style="stop-color:#5BC763"/>
		<stop  offset="1" style="stop-color:#26C017"/>
	</linearGradient>
	<path display="none" fill="url(#SVGID_3_)" stroke="#0A6B00" stroke-width="0.2709" d="M37.591,42.687v0.026
		c-0.095-0.003-0.187-0.014-0.281-0.014c-4.875,0-8.828,4.017-8.828,8.971s3.952,8.971,8.828,8.971c0.094,0,0.187-0.011,0.281-0.014
		v0.117c55.457,0.16,100.437,44.824,101.113,100.158c-0.058,0.408-0.097,0.822-0.097,1.248c0,5.004,4.056,9.062,9.062,9.062
		c5.003,0,9.06-4.058,9.06-9.062h0.051C156.771,96.269,103.438,42.847,37.591,42.687z"/>
	
		<linearGradient id="SVGID_4_" gradientUnits="userSpaceOnUse" x1="-331.0454" y1="-384.3491" x2="-172.2054" y2="-225.5091" gradientTransform="matrix(1 0 0 -1 331.0459 -184.3496)">
		<stop  offset="0" style="stop-color:#EAFFBF"/>
		<stop  offset="0.5112" style="stop-color:#5BC763"/>
		<stop  offset="1" style="stop-color:#26C017"/>
	</linearGradient>
	<rect fill="url(#SVGID_4_)" fill-opacity="0" width="200" height="200"/>
</g>
<g id="Layer_3">
	
		<linearGradient id="SVGID_5_" gradientUnits="userSpaceOnUse" x1="-226.4927" y1="-232.5664" x2="-235.7719" y2="-336.335" gradientTransform="matrix(1 0 0 -1 331.0459 -184.3496)">
		<stop  offset="0.0056" style="stop-color:#90DC85"/>
		<stop  offset="0.2865" style="stop-color:#5BC763"/>
		<stop  offset="1" style="stop-color:#26C017"/>
	</linearGradient>
	<path display="none" fill="url(#SVGID_5_)" stroke="#0A6B00" stroke-width="0.2709" d="M156.598,155.533
		C153.266,94.647,104.35,45.903,43.393,42.839l0.342,18.105c50.926,3.193,91.654,43.965,94.785,94.908L156.598,155.533z"/>
	<g id="Layer_3_2_" display="none">
		<g display="inline">
			<line fill="none" stroke="#000000" x1="40.07" y1="169.898" x2="271.438" y2="152.787"/>
			<line fill="none" stroke="#000000" x1="40.07" y1="169.898" x2="35.09" y2="-62.047"/>
		</g>
		<g display="inline">
			<line fill="none" stroke="#000000" x1="40.07" y1="169.898" x2="271.438" y2="152.787"/>
			<line fill="none" stroke="#000000" x1="40.07" y1="169.898" x2="35.09" y2="-62.047"/>
		</g>
	</g>
	<g>
		
			<linearGradient id="SVGID_6_" gradientUnits="userSpaceOnUse" x1="-226.4927" y1="-232.5659" x2="-235.766" y2="-336.2683" gradientTransform="matrix(1 0 0 -1 331.0459 -184.3496)">
			<stop  offset="0.0056" style="stop-color:#90DC85"/>
			<stop  offset="0.2865" style="stop-color:#5BC763"/>
			<stop  offset="1" style="stop-color:#26C017"/>
		</linearGradient>
		<path display="none" fill="url(#SVGID_6_)" stroke="#0A6B00" stroke-width="0.2709" d="M139.146,155.841l17.451-0.308
			C153.266,94.647,104.35,45.903,43.393,42.839l0.322,17.085C94.655,62.692,137.596,104.936,139.146,155.841z"/>
	</g>
	
		<linearGradient id="SVGID_7_" gradientUnits="userSpaceOnUse" x1="-145.8896" y1="691.6328" x2="-155.8736" y2="803.2791" gradientTransform="matrix(1 0 0 1 246.4492 -643.7656)">
		<stop  offset="0.0056" style="stop-color:#90DC85"/>
		<stop  offset="0.2865" style="stop-color:#5BC763"/>
		<stop  offset="1" style="stop-color:#26C017"/>
	</linearGradient>
	<path display="none" fill="url(#SVGID_7_)" stroke="#0A6B00" stroke-width="0.2709" d="M156.598,155.533
		C153.289,95.062,105.01,46.575,44.633,42.916c-0.488-0.087-0.988-0.14-1.5-0.14c-4.729,0-8.563,3.834-8.563,8.563
		c0,4.73,3.833,8.563,8.563,8.563c0.196,0,0.389-0.017,0.582-0.029l0.001,0.051c50.94,2.769,93.882,45.012,95.431,95.917
		l0.183-0.003c0,0.049-0.009,0.098-0.009,0.146c0,4.765,3.861,8.625,8.625,8.625c4.766,0,8.625-3.86,8.625-8.625
		c0-0.151-0.014-0.301-0.021-0.449L156.598,155.533z"/>
	
		<linearGradient id="SVGID_8_" gradientUnits="userSpaceOnUse" x1="98.564" y1="48.0254" x2="88.3027" y2="154.7628" gradientTransform="matrix(1 0.0054 -0.0054 1 0.2707 -0.1564)">
		<stop  offset="0.0056" style="stop-color:#90DC85"/>
		<stop  offset="0.2865" style="stop-color:#5BC763"/>
		<stop  offset="1" style="stop-color:#26C017"/>
	</linearGradient>
	<path fill="url(#SVGID_8_)" stroke="#0A6B00" stroke-width="0.2709" d="M155.595,150.386C149.922,92.624,103.074,46.855,44.672,43
		c-0.487-0.09-4.811-0.166-5.5-0.17c-4.729-0.025-8.583,3.788-8.609,8.517c-0.025,4.729,3.788,8.583,8.517,8.609
		c0.69,0.003,4.391,0.058,4.584,0.046l0,0c49.695,2.971,91.569,43.487,94.748,92.755l0,0c0.148,4.611,4.12,8.295,8.772,8.32
		c4.764,0.025,8.233-3.829,8.563-8.581C155.773,152.113,155.691,151.324,155.595,150.386z"/>
</g>
</svg>
