<?xml version="1.0" encoding="utf-8"?>
<!--
  - This file is part of StyleBI.
  - Copyright (C) 2024  InetSoft Technology
  -
  - This program is free software: you can redistribute it and/or modify
  - it under the terms of the GNU Affero General Public License as published by
  - the Free Software Foundation, either version 3 of the License, or
  - (at your option) any later version.
  -
  - This program is distributed in the hope that it will be useful,
  - but WITHOUT ANY WARRANTY; without even the implied warranty of
  - MERCHANTABILITY or FITNESS FOR A PARTICULAR PURPOSE.  See the
  - GNU Affero General Public License for more details.
  -
  - You should have received a copy of the GNU Affero General Public License
  - along with this program.  If not, see <https://www.gnu.org/licenses/>.
  -->

<!-- Generator: Adobe Illustrator 13.0.1, SVG Export Plug-In . SVG Version: 6.00 Build 14948)  -->
<!DOCTYPE svg PUBLIC "-//W3C//DTD SVG 1.0//EN" "http://www.w3.org/TR/2001/REC-SVG-20010904/DTD/svg10.dtd">
<svg version="1.0" id="图层_1" xmlns="http://www.w3.org/2000/svg" xmlns:xlink="http://www.w3.org/1999/xlink" x="0px" y="0px"
	 width="200px" height="200px" viewBox="0 0 200 200" enable-background="new 0 0 200 200" xml:space="preserve">
<g id="Layer_2">
</g>
<g id="Layer_6">
</g>
<g id="Layer_1">
	<rect fill="#FFFFFF" fill-opacity="0" width="200" height="200"/>
	<g>
		<g>
			<path fill="none" stroke="#15B820" stroke-width="1.9897" d="M49.086,152.199c21.011,21.014,47.364,35.83,74.206,41.722
				c24.63,5.404,45.728,2.238,56.437-8.472c8.891-8.893,14.976-27.165,8.527-47.949l0.063,0.408l0.002-72.761l-0.303,0.86
				c5.527-6.892,8.449-15.206,8.449-24.042c0-21.205-17.249-38.456-38.451-38.456c-8.914,0-17.604,3.12-24.463,8.787l0.873-0.314
				H57.15l0.356,0.047C45.165,8.715,14.549,3.6,6.089,27.611C-2.579,52.207,9.862,112.969,49.086,152.199z"/>
		</g>
	</g>
	<path display="none" fill="#B1F3A1" stroke="#139B00" d="M53.226,29.979c5.521,0.211,10.052,5.622,10.052,11.902
		c0,54.566,41.003,93.129,93.016,96.477c6.263,0.424,11.668,4.586,11.854,10.107l0,0c0.197,5.506-6.097,10.368-13.789,9.865
		C92.573,154.355,43.299,106.885,43.299,43.72C43.298,36.014,47.721,29.756,53.226,29.979L53.226,29.979z"/>
</g>
<g id="Layer_5">
</g>
<g id="Layer_4">
</g>
<path fill="#B1F3A1" stroke="#139B00" d="M155.834,139.833c-1.667-0.208-5.059-0.53-5.159-0.55
	c-52.454-8.064-85.124-43.698-87.917-92.694l0,0c-0.137-5.106-4.316-9.218-9.46-9.241c-5.247-0.025-9.604,4.171-9.626,9.417
	c0,0.113,0.003,0.267,0.006,0.378l0,0c1.475,59.838,47.438,105.045,105.861,111.191c0.453,0.067,4.503,0.541,6.295,0.498
	c5.247-0.126,9.501-4.253,9.501-9.499C165.335,144.086,161.042,140.482,155.834,139.833z"/>
</svg>
