<?xml version="1.0" encoding="utf-8"?>
<!--
  - This file is part of StyleBI.
  - Copyright (C) 2024  InetSoft Technology
  -
  - This program is free software: you can redistribute it and/or modify
  - it under the terms of the GNU Affero General Public License as published by
  - the Free Software Foundation, either version 3 of the License, or
  - (at your option) any later version.
  -
  - This program is distributed in the hope that it will be useful,
  - but WITHOUT ANY WARRANTY; without even the implied warranty of
  - MERCHANTABILITY or FITNESS FOR A PARTICULAR PURPOSE.  See the
  - GNU Affero General Public License for more details.
  -
  - You should have received a copy of the GNU Affero General Public License
  - along with this program.  If not, see <https://www.gnu.org/licenses/>.
  -->

<!-- Generator: Adobe Illustrator 13.0.1, SVG Export Plug-In . SVG Version: 6.00 Build 14948)  -->
<!DOCTYPE svg PUBLIC "-//W3C//DTD SVG 1.0//EN" "http://www.w3.org/TR/2001/REC-SVG-20010904/DTD/svg10.dtd">
<svg version="1.0" id="图层_1" xmlns="http://www.w3.org/2000/svg" xmlns:xlink="http://www.w3.org/1999/xlink" x="0px" y="0px"
	 width="200px" height="200px" viewBox="0 0 200 200" enable-background="new 0 0 200 200" xml:space="preserve">
<g id="Layer_3">
</g>
<g id="Layer_1">
	
		<linearGradient id="SVGID_1_" gradientUnits="userSpaceOnUse" x1="-507.6729" y1="22.1592" x2="-398.2612" y2="-87.2524" gradientTransform="matrix(-1 0 0 -1 -320.6436 34.916)">
		<stop  offset="0" style="stop-color:#EAFFBF"/>
		<stop  offset="0.5112" style="stop-color:#5BC763"/>
		<stop  offset="1" style="stop-color:#26C017"/>
	</linearGradient>
	<path fill="url(#SVGID_1_)" stroke="#4C7291" stroke-width="0.4515" d="M5.291,30.47c-8.007,23.081,4.22,85.17,48.614,124.303
		c45.223,43.108,106.376,52.385,126.83,31.602c9.303-9.452,10.32-26.609,4.469-45.775l0.001-77.773
		c0.688-0.595,1.362-1.211,2.012-1.872c13.048-13.258,13.048-34.751,0-48.009c-13.046-13.258-34.2-13.258-47.247-0.001
		c-0.875,0.891-1.688,1.819-2.445,2.776h-77.78C45.7,11.889,12.919,8.474,5.291,30.47z"/>
	
		<linearGradient id="SVGID_2_" gradientUnits="userSpaceOnUse" x1="-372.3989" y1="-110.1182" x2="-391.9934" y2="-90.5236" gradientTransform="matrix(-1 0 0 -1 -320.6436 34.916)">
		<stop  offset="0" style="stop-color:#EAFFBF"/>
		<stop  offset="0.5112" style="stop-color:#5BC763"/>
		<stop  offset="1" style="stop-color:#26C017"/>
	</linearGradient>
	<path fill="url(#SVGID_2_)" d="M159.398,182.314c0,0-129.666,22.026-148.985-140.857C10.414,41.457,44.725,178.704,159.398,182.314
		z"/>
	<g>
		<g>
			<path fill="#044FAA" d="M161.843,150.09c0.042,0.61,0.005,1.105-0.11,1.488c-0.116,0.383-0.308,0.686-0.573,0.906
				c-0.267,0.221-0.612,0.347-1.037,0.375c-0.313,0.021-0.593-0.016-0.836-0.109c-0.245-0.096-0.452-0.242-0.619-0.441
				c-0.169-0.199-0.31-0.447-0.416-0.742c-0.108-0.297-0.183-0.699-0.217-1.211c-0.042-0.605-0.005-1.101,0.108-1.481
				c0.114-0.383,0.306-0.685,0.571-0.905c0.267-0.224,0.614-0.351,1.041-0.379c0.563-0.04,1.019,0.107,1.365,0.441
				C161.534,148.436,161.775,149.12,161.843,150.09z M161.105,150.143c-0.059-0.849-0.209-1.404-0.453-1.67
				c-0.245-0.266-0.533-0.386-0.86-0.363c-0.33,0.023-0.597,0.184-0.803,0.479c-0.205,0.3-0.277,0.869-0.22,1.716
				c0.06,0.85,0.211,1.406,0.455,1.67s0.533,0.385,0.866,0.36c0.33-0.022,0.585-0.165,0.765-0.425
				C161.081,151.578,161.164,150.988,161.105,150.143z"/>
			<path fill="#044FAA" d="M144.414,146.135l0.709,0.121l-0.684,3.988c0.195-0.114,0.443-0.221,0.746-0.314
				c0.299-0.097,0.567-0.162,0.801-0.195l-0.104,0.604c-0.423,0.095-0.804,0.235-1.141,0.418c-0.337,0.185-0.585,0.376-0.748,0.575
				l-0.457-0.08L144.414,146.135z"/>
			<path fill="#044FAA" d="M143.363,147.335l-0.752-0.101c0.012-0.328-0.064-0.592-0.232-0.795c-0.166-0.201-0.39-0.332-0.67-0.391
				c-0.34-0.07-0.65-0.018-0.932,0.159c-0.281,0.176-0.461,0.451-0.539,0.823c-0.074,0.355-0.021,0.658,0.164,0.91
				c0.182,0.252,0.457,0.416,0.822,0.492c0.226,0.047,0.44,0.045,0.642-0.01c0.2-0.053,0.37-0.141,0.504-0.264l0.646,0.214
				l-1.097,2.483l-2.853-0.594l0.125-0.595l2.289,0.478l0.593-1.297c-0.39,0.141-0.772,0.172-1.15,0.092
				c-0.501-0.104-0.894-0.346-1.173-0.723c-0.279-0.378-0.37-0.808-0.27-1.287c0.095-0.459,0.328-0.824,0.699-1.095
				c0.454-0.333,1-0.435,1.635-0.302c0.522,0.109,0.922,0.326,1.199,0.652C143.287,146.518,143.404,146.898,143.363,147.335z"/>
			<path fill="#044FAA" d="M129.982,143.859l-0.705-0.162c0.043-0.367-0.002-0.658-0.137-0.873
				c-0.132-0.217-0.332-0.372-0.601-0.467c-0.319-0.114-0.623-0.113-0.912,0.004c-0.288,0.117-0.483,0.318-0.587,0.607
				c-0.098,0.273-0.076,0.536,0.063,0.786c0.14,0.251,0.365,0.433,0.68,0.544c0.129,0.047,0.295,0.08,0.501,0.104l-0.263,0.498
				c-0.043-0.021-0.078-0.035-0.106-0.045c-0.289-0.103-0.571-0.129-0.851-0.078c-0.276,0.051-0.465,0.215-0.563,0.492
				c-0.078,0.219-0.06,0.43,0.058,0.633c0.116,0.205,0.31,0.354,0.573,0.449c0.263,0.094,0.509,0.098,0.735,0.016
				c0.229-0.086,0.419-0.264,0.572-0.538l0.639,0.349c-0.225,0.37-0.523,0.613-0.896,0.73c-0.369,0.115-0.773,0.096-1.211-0.061
				c-0.3-0.106-0.557-0.263-0.769-0.467c-0.214-0.205-0.351-0.429-0.415-0.674s-0.057-0.479,0.023-0.699
				c0.073-0.211,0.207-0.38,0.395-0.508c0.191-0.127,0.429-0.195,0.714-0.209c-0.301-0.182-0.504-0.41-0.61-0.686
				c-0.105-0.272-0.104-0.566,0.01-0.881c0.15-0.426,0.455-0.724,0.912-0.896c0.455-0.169,0.951-0.16,1.487,0.03
				c0.483,0.174,0.839,0.443,1.069,0.813C130.016,143.042,130.081,143.438,129.982,143.859z"/>
			<path fill="#044FAA" d="M125.82,143.635c-0.228,0.566-0.479,0.997-0.748,1.293c-0.271,0.291-0.575,0.48-0.91,0.563
				c-0.336,0.084-0.702,0.047-1.098-0.111c-0.291-0.117-0.526-0.271-0.705-0.463c-0.178-0.191-0.301-0.415-0.365-0.668
				s-0.082-0.536-0.051-0.85s0.143-0.709,0.332-1.186c0.227-0.563,0.474-0.99,0.744-1.285c0.27-0.295,0.572-0.482,0.91-0.568
				c0.334-0.084,0.703-0.047,1.1,0.113c0.523,0.211,0.869,0.541,1.035,0.992C126.264,142.01,126.182,142.73,125.82,143.635z
				 M125.135,143.359c0.315-0.789,0.422-1.356,0.317-1.701c-0.104-0.344-0.31-0.578-0.616-0.7c-0.307-0.123-0.617-0.095-0.932,0.083
				c-0.312,0.18-0.627,0.662-0.942,1.447c-0.315,0.791-0.421,1.359-0.317,1.703c0.104,0.344,0.313,0.576,0.625,0.701
				c0.307,0.123,0.598,0.105,0.871-0.049C124.486,144.643,124.818,144.146,125.135,143.359z"/>
			<path fill="#044FAA" d="M112.384,134.465l-0.61,1.078l2.209,1.25l-0.289,0.507l-3.973,1.604l-0.512-0.291l1.652-2.918
				l-0.688-0.389l0.288-0.508l0.688,0.391l0.609-1.08L112.384,134.465z M111.486,136.051l-1.15,2.029l2.744-1.128L111.486,136.051z"
				/>
			<path fill="#044FAA" d="M110.314,134.848l-0.672-0.349c0.123-0.306,0.14-0.581,0.053-0.827c-0.088-0.246-0.254-0.443-0.498-0.597
				c-0.295-0.183-0.605-0.238-0.93-0.167c-0.324,0.07-0.586,0.267-0.789,0.591c-0.188,0.31-0.24,0.61-0.154,0.91
				c0.086,0.299,0.29,0.546,0.607,0.743c0.195,0.119,0.397,0.191,0.604,0.209c0.208,0.021,0.396-0.006,0.563-0.074l0.534,0.42
				l-1.878,1.961l-2.479-1.529l0.32-0.517l1.986,1.228l0.998-1.016c-0.413-0.001-0.783-0.104-1.111-0.307
				c-0.436-0.269-0.721-0.629-0.854-1.078c-0.136-0.449-0.074-0.885,0.184-1.305c0.245-0.396,0.591-0.658,1.032-0.787
				c0.54-0.158,1.084-0.066,1.639,0.273c0.454,0.279,0.754,0.62,0.902,1.021C110.521,134.055,110.502,134.451,110.314,134.848z"/>
			<path fill="#044FAA" d="M94.408,126.643l0.584,0.414c-0.108,0.232-0.154,0.43-0.134,0.594c0.037,0.263,0.164,0.484,0.384,0.664
				c0.177,0.146,0.369,0.229,0.575,0.252c0.266,0.029,0.54-0.021,0.818-0.155c0.278-0.134,0.582-0.399,0.914-0.798
				c-0.281,0.072-0.554,0.072-0.818,0c-0.267-0.071-0.504-0.192-0.716-0.367c-0.372-0.305-0.589-0.684-0.65-1.139
				c-0.065-0.453,0.06-0.873,0.374-1.254c0.205-0.252,0.457-0.436,0.757-0.549c0.3-0.117,0.603-0.144,0.91-0.082
				c0.309,0.062,0.6,0.201,0.872,0.424c0.463,0.379,0.718,0.84,0.763,1.381c0.046,0.541-0.213,1.156-0.779,1.849
				c-0.633,0.772-1.255,1.204-1.868,1.291c-0.531,0.073-1.037-0.083-1.515-0.476c-0.356-0.293-0.577-0.619-0.66-0.981
				C94.136,127.348,94.198,126.988,94.408,126.643z M98.092,126.775c0.138-0.17,0.229-0.364,0.275-0.586
				c0.046-0.221,0.027-0.433-0.053-0.633c-0.079-0.201-0.199-0.367-0.36-0.498c-0.236-0.193-0.506-0.273-0.811-0.246
				c-0.307,0.029-0.579,0.188-0.813,0.477c-0.226,0.275-0.321,0.563-0.284,0.857c0.036,0.297,0.182,0.549,0.434,0.756
				c0.252,0.205,0.531,0.301,0.836,0.283C97.622,127.171,97.881,127.033,98.092,126.775z"/>
			<path fill="#044FAA" d="M95.029,125.393c-0.405,0.459-0.785,0.778-1.137,0.965c-0.354,0.185-0.704,0.26-1.048,0.226
				c-0.344-0.035-0.675-0.194-0.995-0.478c-0.234-0.207-0.404-0.432-0.508-0.672s-0.143-0.49-0.12-0.75
				c0.024-0.26,0.102-0.533,0.238-0.816c0.132-0.284,0.371-0.619,0.709-1.002c0.402-0.455,0.78-0.774,1.132-0.961
				c0.353-0.186,0.702-0.262,1.047-0.229c0.344,0.033,0.677,0.192,0.999,0.477c0.423,0.373,0.636,0.803,0.64,1.281
				C95.99,124.014,95.673,124.665,95.029,125.393z M94.475,124.902c0.563-0.635,0.852-1.133,0.87-1.491
				c0.018-0.358-0.097-0.649-0.344-0.867c-0.247-0.219-0.549-0.297-0.905-0.235c-0.354,0.063-0.813,0.41-1.374,1.045
				c-0.564,0.638-0.854,1.135-0.871,1.494c-0.016,0.357,0.101,0.648,0.353,0.871c0.247,0.219,0.526,0.301,0.838,0.246
				C93.435,125.893,93.913,125.539,94.475,124.902z"/>
			<path fill="#044FAA" d="M85.269,118.794l-0.45,0.411l-2.554-2.801l0.367-0.332c0.509,0.039,1.102-0.002,1.777-0.123
				c0.677-0.119,1.309-0.313,1.896-0.58c0.418-0.186,0.831-0.438,1.238-0.754l0.498,0.546c-0.307,0.269-0.73,0.532-1.273,0.793
				c-0.543,0.26-1.12,0.45-1.733,0.571c-0.614,0.123-1.178,0.172-1.697,0.148L85.269,118.794z"/>
			<path fill="#044FAA" d="M85.165,114.021l-0.533-0.539c0.212-0.252,0.314-0.51,0.305-0.771c-0.007-0.261-0.102-0.501-0.289-0.721
				c-0.224-0.264-0.501-0.412-0.833-0.443c-0.33-0.033-0.642,0.073-0.931,0.318c-0.277,0.234-0.419,0.509-0.43,0.82
				c-0.011,0.311,0.106,0.606,0.347,0.891c0.15,0.177,0.319,0.307,0.512,0.389c0.192,0.081,0.377,0.114,0.561,0.102l0.377,0.563
				l-2.391,1.288l-1.885-2.218l0.462-0.394l1.513,1.778l1.263-0.659c-0.392-0.127-0.712-0.339-0.963-0.633
				c-0.332-0.389-0.492-0.818-0.48-1.289c0.011-0.47,0.203-0.863,0.579-1.182c0.356-0.305,0.764-0.448,1.224-0.436
				c0.561,0.016,1.053,0.271,1.474,0.764c0.344,0.406,0.525,0.822,0.543,1.25C85.607,113.33,85.464,113.703,85.165,114.021z"/>
			<path fill="#044FAA" d="M76.892,103.061l-0.425-0.547c0.21-0.207,0.323-0.414,0.342-0.623c0.018-0.209-0.044-0.422-0.186-0.639
				c-0.12-0.186-0.263-0.322-0.428-0.413c-0.166-0.091-0.34-0.142-0.523-0.147c-0.184-0.008-0.4,0.027-0.652,0.105
				s-0.489,0.189-0.711,0.333c-0.023,0.015-0.057,0.039-0.102,0.073c0.247,0.01,0.492,0.084,0.733,0.225
				c0.24,0.141,0.441,0.331,0.598,0.574c0.264,0.406,0.358,0.834,0.282,1.285c-0.077,0.451-0.329,0.814-0.754,1.092
				c-0.439,0.286-0.889,0.369-1.348,0.25c-0.46-0.117-0.834-0.398-1.12-0.841c-0.208-0.319-0.323-0.659-0.342-1.022
				c-0.021-0.363,0.065-0.705,0.256-1.025c0.192-0.319,0.554-0.652,1.086-0.998c0.554-0.361,1.039-0.581,1.457-0.658
				c0.416-0.077,0.796-0.037,1.142,0.12c0.348,0.156,0.639,0.416,0.873,0.776c0.25,0.385,0.362,0.76,0.33,1.125
				C77.37,102.471,77.2,102.789,76.892,103.061z M73.374,101.84c-0.305,0.199-0.489,0.447-0.548,0.749
				c-0.059,0.302-0.004,0.58,0.164,0.841c0.175,0.268,0.423,0.438,0.745,0.51c0.323,0.072,0.638,0.01,0.945-0.19
				c0.277-0.181,0.439-0.42,0.49-0.722c0.049-0.301-0.016-0.59-0.196-0.866c-0.182-0.278-0.418-0.451-0.708-0.519
				C73.977,101.575,73.679,101.641,73.374,101.84z"/>
			<path fill="#044FAA" d="M73.587,100.46c-0.524,0.313-0.982,0.507-1.375,0.575c-0.394,0.068-0.748,0.035-1.067-0.102
				c-0.318-0.138-0.585-0.388-0.804-0.753c-0.163-0.269-0.256-0.534-0.282-0.794c-0.025-0.262,0.012-0.512,0.115-0.754
				c0.1-0.239,0.257-0.476,0.472-0.706c0.214-0.229,0.54-0.479,0.981-0.741c0.52-0.313,0.975-0.503,1.368-0.573
				c0.392-0.07,0.748-0.038,1.067,0.099c0.319,0.136,0.589,0.388,0.808,0.756c0.291,0.484,0.365,0.957,0.224,1.417
				C74.922,99.436,74.421,99.961,73.587,100.46z M73.208,99.827c0.729-0.438,1.155-0.823,1.28-1.161s0.104-0.648-0.065-0.932
				c-0.171-0.282-0.434-0.448-0.792-0.496c-0.358-0.048-0.899,0.146-1.626,0.58c-0.73,0.438-1.157,0.825-1.282,1.162
				c-0.123,0.337-0.1,0.649,0.072,0.938c0.169,0.283,0.411,0.445,0.723,0.487C71.917,100.456,72.48,100.263,73.208,99.827z"/>
			<path fill="#044FAA" d="M68.748,85.9l0.298,0.653l-3.684,1.678c0.205,0.098,0.432,0.244,0.681,0.438
				c0.249,0.196,0.451,0.38,0.612,0.553l-0.559,0.255c-0.319-0.297-0.649-0.532-0.989-0.707s-0.638-0.273-0.894-0.294l-0.192-0.422
				L68.748,85.9z"/>
			<path fill="#044FAA" d="M66.106,86.264c-0.563,0.236-1.044,0.361-1.443,0.374c-0.398,0.013-0.746-0.07-1.041-0.252
				c-0.294-0.181-0.525-0.469-0.689-0.861c-0.122-0.289-0.176-0.565-0.166-0.827c0.01-0.262,0.084-0.504,0.217-0.728
				c0.136-0.225,0.325-0.435,0.57-0.633c0.245-0.197,0.601-0.396,1.076-0.594c0.559-0.234,1.037-0.359,1.436-0.373
				c0.399-0.014,0.744,0.069,1.041,0.25c0.296,0.18,0.527,0.469,0.693,0.864c0.219,0.521,0.226,0.998,0.021,1.433
				C67.574,85.44,67.002,85.888,66.106,86.264z M65.821,85.583c0.783-0.328,1.259-0.65,1.432-0.967
				c0.171-0.314,0.194-0.627,0.065-0.931c-0.127-0.305-0.365-0.506-0.71-0.605c-0.348-0.098-0.912,0.017-1.691,0.345
				c-0.785,0.328-1.263,0.65-1.434,0.966c-0.169,0.316-0.192,0.629-0.062,0.938c0.127,0.305,0.344,0.5,0.647,0.586
				C64.454,86.022,65.038,85.911,65.821,85.583z"/>
			<path fill="#044FAA" d="M64.591,82.648c-0.571,0.217-1.056,0.325-1.455,0.324c-0.399-0.001-0.743-0.096-1.032-0.287
				c-0.29-0.19-0.51-0.485-0.662-0.884c-0.111-0.294-0.157-0.571-0.137-0.832c0.021-0.261,0.102-0.502,0.243-0.722
				c0.141-0.219,0.339-0.423,0.589-0.612c0.252-0.189,0.616-0.376,1.095-0.559c0.566-0.215,1.049-0.322,1.448-0.323
				c0.398-0.001,0.742,0.095,1.031,0.284c0.291,0.19,0.513,0.486,0.665,0.888c0.201,0.528,0.192,1.006-0.028,1.434
				C66.085,81.874,65.498,82.303,64.591,82.648z M64.329,81.957c0.793-0.302,1.28-0.607,1.464-0.917
				c0.182-0.311,0.215-0.621,0.097-0.93c-0.117-0.309-0.348-0.518-0.691-0.627c-0.343-0.109-0.91-0.016-1.702,0.285
				c-0.795,0.304-1.284,0.608-1.465,0.919c-0.182,0.31-0.211,0.622-0.093,0.935c0.118,0.309,0.326,0.512,0.627,0.608
				C62.948,82.351,63.535,82.259,64.329,81.957z"/>
			<path fill="#044FAA" d="M62.752,69.081l0.192,0.691l-3.896,1.089c0.187,0.128,0.388,0.307,0.604,0.537
				c0.215,0.232,0.388,0.446,0.519,0.643l-0.591,0.165c-0.27-0.344-0.557-0.627-0.868-0.854c-0.31-0.227-0.589-0.369-0.839-0.43
				l-0.124-0.446L62.752,69.081z"/>
			<path fill="#044FAA" d="M61.979,66.084l0.177,0.696l-3.926,0.988c0.183,0.132,0.381,0.316,0.591,0.553
				c0.21,0.238,0.377,0.455,0.502,0.654l-0.596,0.15c-0.259-0.35-0.541-0.641-0.845-0.875c-0.305-0.232-0.58-0.384-0.827-0.45
				l-0.113-0.449L61.979,66.084z"/>
			<path fill="#044FAA" d="M60.502,65.785l-0.219-0.725c0.303-0.125,0.513-0.305,0.628-0.539c0.114-0.235,0.141-0.492,0.079-0.772
				c-0.076-0.338-0.252-0.599-0.529-0.782c-0.277-0.183-0.602-0.234-0.972-0.151c-0.354,0.079-0.608,0.253-0.762,0.523
				c-0.153,0.271-0.19,0.588-0.109,0.951c0.051,0.227,0.141,0.421,0.273,0.582c0.13,0.162,0.28,0.278,0.448,0.35l0.07,0.676
				l-2.714,0.024l-0.633-2.842l0.592-0.132l0.508,2.28l1.425,0.006c-0.288-0.296-0.475-0.632-0.559-1.01
				c-0.111-0.499-0.051-0.954,0.176-1.365c0.229-0.41,0.584-0.67,1.062-0.776c0.457-0.102,0.885-0.039,1.285,0.188
				c0.489,0.275,0.804,0.73,0.947,1.365c0.115,0.519,0.081,0.973-0.103,1.357C61.214,65.38,60.916,65.645,60.502,65.785z"/>
			<path fill="#044FAA" d="M59.461,52.663l0.099,0.712l-4.007,0.558c0.167,0.151,0.344,0.356,0.527,0.613
				c0.182,0.26,0.326,0.494,0.429,0.706l-0.608,0.084c-0.221-0.375-0.469-0.695-0.746-0.961c-0.277-0.265-0.534-0.444-0.772-0.537
				l-0.063-0.461L59.461,52.663z"/>
			<path fill="#044FAA" d="M58.021,52.261l-0.166-0.705c0.35-0.122,0.591-0.291,0.727-0.507c0.136-0.215,0.187-0.463,0.153-0.747
				c-0.037-0.336-0.173-0.608-0.404-0.816c-0.233-0.208-0.501-0.295-0.804-0.26c-0.291,0.033-0.517,0.168-0.681,0.402
				c-0.164,0.236-0.228,0.52-0.189,0.85c0.016,0.135,0.058,0.3,0.127,0.497l-0.563-0.017c-0.002-0.048-0.003-0.087-0.007-0.116
				c-0.034-0.304-0.136-0.57-0.304-0.798s-0.396-0.324-0.691-0.291c-0.229,0.026-0.411,0.137-0.543,0.332
				c-0.132,0.193-0.182,0.432-0.15,0.712c0.032,0.278,0.136,0.501,0.311,0.669c0.176,0.167,0.419,0.26,0.735,0.277l-0.032,0.728
				c-0.432-0.04-0.783-0.201-1.051-0.483c-0.268-0.283-0.428-0.654-0.479-1.115c-0.037-0.317-0.009-0.616,0.081-0.898
				c0.09-0.28,0.229-0.504,0.421-0.669c0.192-0.165,0.406-0.261,0.639-0.287c0.222-0.025,0.432,0.019,0.629,0.133
				c0.198,0.114,0.365,0.298,0.504,0.55c0.03-0.352,0.145-0.635,0.344-0.852c0.199-0.216,0.466-0.343,0.797-0.38
				c0.448-0.051,0.85,0.091,1.205,0.426s0.563,0.785,0.627,1.353c0.059,0.51-0.028,0.949-0.259,1.317
				C58.77,51.932,58.444,52.164,58.021,52.261z"/>
			<path fill="#044FAA" d="M56.409,48.606c-0.608,0.053-1.106,0.023-1.488-0.087c-0.385-0.11-0.69-0.296-0.916-0.559
				s-0.356-0.606-0.393-1.031c-0.027-0.313,0.005-0.592,0.097-0.838c0.092-0.245,0.235-0.454,0.432-0.626
				c0.196-0.171,0.441-0.313,0.735-0.428c0.293-0.113,0.697-0.192,1.207-0.236c0.605-0.052,1.1-0.023,1.483,0.086
				c0.385,0.108,0.689,0.294,0.917,0.556c0.226,0.263,0.358,0.608,0.394,1.035c0.049,0.563-0.092,1.019-0.42,1.371
				C58.059,48.271,57.378,48.523,56.409,48.606z M56.345,47.869c0.848-0.072,1.402-0.231,1.663-0.481
				c0.259-0.246,0.377-0.536,0.347-0.864c-0.028-0.329-0.192-0.594-0.492-0.795c-0.302-0.199-0.873-0.263-1.718-0.19
				c-0.849,0.073-1.402,0.233-1.663,0.481c-0.259,0.249-0.375,0.54-0.346,0.873c0.028,0.33,0.173,0.582,0.438,0.757
				C54.91,47.869,55.5,47.942,56.345,47.869z"/>
		</g>
	</g>
	
		<linearGradient id="SVGID_3_" gradientUnits="userSpaceOnUse" x1="-422.729" y1="-117.4624" x2="-433.3018" y2="0.7699" gradientTransform="matrix(-1 0 0 -1 -320.6436 34.916)">
		<stop  offset="0.0056" style="stop-color:#90DC85"/>
		<stop  offset="0.2865" style="stop-color:#5BC763"/>
		<stop  offset="1" style="stop-color:#26C017"/>
	</linearGradient>
	<path display="none" fill="url(#SVGID_3_)" stroke="#0A6B00" stroke-width="0.2709" d="M162.409,157.314v-0.027
		c0.095,0.003,0.187,0.014,0.28,0.014c4.875,0,8.828-4.017,8.828-8.971s-3.951-8.971-8.828-8.971c-0.094,0-0.187,0.011-0.28,0.014
		v-0.117c-55.457-0.16-100.436-44.825-101.113-100.159c0.057-0.409,0.097-0.823,0.097-1.248c0-5.004-4.056-9.061-9.062-9.061
		c-5.003,0-9.059,4.057-9.059,9.061h-0.051C43.229,103.73,96.562,157.152,162.409,157.314z"/>
	
		<linearGradient id="SVGID_4_" gradientUnits="userSpaceOnUse" x1="-520.6436" y1="34.916" x2="-361.8036" y2="-123.9239" gradientTransform="matrix(-1 0 0 -1 -320.6436 34.916)">
		<stop  offset="0" style="stop-color:#EAFFBF"/>
		<stop  offset="0.5112" style="stop-color:#5BC763"/>
		<stop  offset="1" style="stop-color:#26C017"/>
	</linearGradient>
	<rect fill="url(#SVGID_4_)" fill-opacity="0" width="200" height="200"/>
	<g id="Layer_3_2_">
		
			<linearGradient id="SVGID_5_" gradientUnits="userSpaceOnUse" x1="-522.9971" y1="219.1299" x2="-532.2761" y2="115.3643" gradientTransform="matrix(-0.9999 -0.0149 -0.0149 0.9999 -248.2951 52.3784)">
			<stop  offset="0.0056" style="stop-color:#90DC85"/>
			<stop  offset="0.2865" style="stop-color:#5BC763"/>
			<stop  offset="1" style="stop-color:#26C017"/>
		</linearGradient>
		<path display="none" fill="url(#SVGID_5_)" stroke="#0A6B00" stroke-width="0.2709" d="M220.943,171.199
			c2.426,60.929,50.611,110.396,111.516,114.367l-0.072-18.107c-50.873-3.951-90.988-45.324-93.361-96.309L220.943,171.199z"/>
		<g id="Layer_3_3_" display="none">
			<g display="inline">
				<line fill="none" stroke="#000000" x1="337.672" y1="158.57" x2="106.076" y2="172.234"/>
				<line fill="none" stroke="#000000" x1="337.672" y1="158.57" x2="339.199" y2="390.563"/>
			</g>
			<g display="inline">
				<line fill="none" stroke="#000000" x1="337.672" y1="158.57" x2="106.076" y2="172.234"/>
				<line fill="none" stroke="#000000" x1="337.672" y1="158.57" x2="339.199" y2="390.563"/>
			</g>
		</g>
		<g>
			
				<linearGradient id="SVGID_6_" gradientUnits="userSpaceOnUse" x1="-522.9961" y1="219.1299" x2="-532.2694" y2="115.4285" gradientTransform="matrix(-0.9999 -0.0149 -0.0149 0.9999 -248.2951 52.3784)">
				<stop  offset="0.0056" style="stop-color:#90DC85"/>
				<stop  offset="0.2865" style="stop-color:#5BC763"/>
				<stop  offset="1" style="stop-color:#26C017"/>
			</linearGradient>
			<path display="none" fill="url(#SVGID_6_)" stroke="#0A6B00" stroke-width="0.2709" d="M238.398,171.15l-17.455,0.049
				c2.426,60.929,50.611,110.396,111.516,114.367l-0.067-17.088C281.498,264.952,239.189,222.074,238.398,171.15z"/>
		</g>
		
			<linearGradient id="SVGID_7_" gradientUnits="userSpaceOnUse" x1="-394.2466" y1="39.7163" x2="-395.7831" y2="22.5339" gradientTransform="matrix(-0.9999 -0.0149 0.0149 -0.9999 -165.8373 196.1151)">
			<stop  offset="0.0056" style="stop-color:#90DC85"/>
			<stop  offset="0.2865" style="stop-color:#5BC763"/>
			<stop  offset="1" style="stop-color:#26C017"/>
		</linearGradient>
		<circle display="none" fill="url(#SVGID_7_)" stroke="#0A6B00" stroke-width="0.2709" cx="229.602" cy="170.878" r="8.625"/>
		
			<linearGradient id="SVGID_8_" gradientUnits="userSpaceOnUse" x1="-499.0669" y1="-64.9863" x2="-500.5924" y2="-82.0462" gradientTransform="matrix(-0.9999 -0.0149 0.0149 -0.9999 -165.8373 196.1151)">
			<stop  offset="0.0056" style="stop-color:#90DC85"/>
			<stop  offset="0.2865" style="stop-color:#5BC763"/>
			<stop  offset="1" style="stop-color:#26C017"/>
		</linearGradient>
		<circle display="none" fill="url(#SVGID_8_)" stroke="#0A6B00" stroke-width="0.2709" cx="332.846" cy="277.071" r="8.563"/>
	</g>
	
		<linearGradient id="SVGID_9_" gradientUnits="userSpaceOnUse" x1="-631.1826" y1="-177.2085" x2="-641.0922" y2="-66.3934" gradientTransform="matrix(-1 8.695173e-004 -8.695173e-004 -1 -531.7711 -24.728)">
		<stop  offset="0.0056" style="stop-color:#90DC85"/>
		<stop  offset="0.2865" style="stop-color:#5BC763"/>
		<stop  offset="1" style="stop-color:#26C017"/>
	</linearGradient>
	<path fill="url(#SVGID_9_)" stroke="#0A6B00" stroke-width="0.2709" d="M43.424,44.314c3.362,60.467,51.683,108.913,112.063,112.52
		c0.488,0.087,0.988,0.139,1.5,0.139c4.729-0.004,8.561-3.841,8.556-8.57c-0.003-4.729-3.84-8.559-8.569-8.555
		c-0.195,0-0.39,0.016-0.582,0.028l-0.002-0.051C105.445,137.1,62.281,94.904,60.688,44v-0.188c0-0.049,0.111-0.232-0.063-0.375
		c-0.25-2.75-3.799-7.379-8.563-7.375c-4.765,0.004-8.5,3.563-8.612,7.799c0,0.151,0.013,0.301,0.022,0.449L43.424,44.314z"/>
</g>
</svg>
