<?xml version="1.0" encoding="utf-8"?>
<!--
  - This file is part of StyleBI.
  -
  - Copyright (c) 2024, InetSoft Technology Corp, All Rights Reserved.
  -
  - The software and information contained herein are copyrighted and
  - proprietary to InetSoft Technology Corp. This software is furnished
  - pursuant to a written license agreement and may be used, copied,
  - transmitted, and stored only in accordance with the terms of such
  - license and with the inclusion of the above copyright notice. Please
  - refer to the file "COPYRIGHT" for further copyright and licensing
  - information. This software and information or any other copies
  - thereof may not be provided or otherwise made available to any other
  - person.
  -->

<!-- Generator: Adobe Illustrator 15.1.0, SVG Export Plug-In . SVG Version: 6.00 Build 0)  -->
<!DOCTYPE svg PUBLIC "-//W3C//DTD SVG 1.1//EN" "http://www.w3.org/Graphics/SVG/1.1/DTD/svg11.dtd">
<svg version="1.1" id="Layer_1" xmlns:sketch="http://www.bohemiancoding.com/sketch/ns"
	 xmlns="http://www.w3.org/2000/svg" xmlns:xlink="http://www.w3.org/1999/xlink" x="0px" y="0px" width="30px" height="30px"
	 viewBox="5.44 2 30 30" enable-background="new 5.44 2 30 30" xml:space="preserve">
<title>logo</title>
<desc>Created with Sketch.</desc>
<g>
	<path d="M27.375,15.416c-0.311,0.215-0.691,0.446-1.146,0.706c-0.453,0.252-0.972,0.547-1.548,0.885
		c-0.677,0.403-1.231,0.807-1.663,1.225c-0.432,0.417-0.777,0.864-1.036,1.34c-0.26,0.475-0.353,1.137-0.382,1.705
		c-0.029,0.584,0,0.865,0,1.556h7.905l-10.145,5.854c-1.354,0.778-3.074,0.316-3.852-1.028l-2.787-4.825h4.205v3.11h2.333v-3.11
		h1.555V20.5h-1.548v-9.339h-2.333l-6.228,8.172l-1.966-3.406c-0.777-1.346-0.317-3.074,1.03-3.852L21.5,5.314
		c1.354-0.778,3.075-0.317,3.853,1.029l1.894,3.276c-0.138-0.007-0.273-0.014-0.418-0.014c-0.647,0-1.26,0.072-1.829,0.216
		c-0.568,0.144-1.087,0.331-1.555,0.554c-0.468,0.224-0.879,0.461-1.224,0.713c-0.346,0.252-0.612,0.49-0.8,0.706l1.858,2.282
		c0.172-0.23,0.366-0.454,0.576-0.655c0.208-0.209,0.438-0.396,0.69-0.562c0.252-0.165,0.525-0.302,0.813-0.403
		c0.289-0.101,0.605-0.151,0.95-0.151c0.648,0,1.146,0.166,1.491,0.497c0.345,0.331,0.519,0.727,0.519,1.188
		c0,0.295-0.079,0.547-0.237,0.771C27.923,14.984,27.685,15.207,27.375,15.416L27.375,15.416z"/>
	<polygon points="16.928,20.5 13.04,20.5 16.928,15.387 	"/>
	<path d="M31.723,20.5h-6.228c0.058-0.411,0.152-0.656,0.563-1.109c0.237-0.267,0.504-0.505,0.792-0.727
		c0.288-0.225,0.583-0.425,0.878-0.613c0.295-0.187,0.575-0.352,0.835-0.511c0.317-0.188,0.647-0.396,0.987-0.634
		c0.338-0.237,0.654-0.518,0.942-0.842c0.101-0.115,0.194-0.244,0.28-0.367l1.369,2.37c0.641,1.108,0.432,2.462-0.412,3.341V20.5
		H31.723z"/>
</g>
</svg>
