<?xml version="1.0" encoding="utf-8"?>
<!--
  - This file is part of StyleBI.
  - Copyright (C) 2024  InetSoft Technology
  -
  - This program is free software: you can redistribute it and/or modify
  - it under the terms of the GNU Affero General Public License as published by
  - the Free Software Foundation, either version 3 of the License, or
  - (at your option) any later version.
  -
  - This program is distributed in the hope that it will be useful,
  - but WITHOUT ANY WARRANTY; without even the implied warranty of
  - MERCHANTABILITY or FITNESS FOR A PARTICULAR PURPOSE.  See the
  - GNU Affero General Public License for more details.
  -
  - You should have received a copy of the GNU Affero General Public License
  - along with this program.  If not, see <https://www.gnu.org/licenses/>.
  -->

<!-- Generator: Adobe Illustrator 15.1.0, SVG Export Plug-In . SVG Version: 6.00 Build 0)  -->
<!DOCTYPE svg PUBLIC "-//W3C//DTD SVG 1.1//EN" "http://www.w3.org/Graphics/SVG/1.1/DTD/svg11.dtd">
<svg version="1.1" id="Layer_1" xmlns="http://www.w3.org/2000/svg" xmlns:xlink="http://www.w3.org/1999/xlink" x="0px" y="0px"
	 width="30px" height="30px" viewBox="35 35 30 30" enable-background="new 35 35 30 30" xml:space="preserve">
<title>logotype-05b-qblogo</title>
<desc>Created with Sketch.</desc>
<path id="Fill-5" fill="#2CA01C" d="M37.46,50c0-6.896,5.615-12.486,12.54-12.486c6.926,0,12.539,5.59,12.539,12.486
	c0,6.897-5.613,12.487-12.539,12.487C43.075,62.486,37.46,56.896,37.46,50"/>
<path id="Fill-7" fill="#FFFFFF" d="M54.181,45.145h-0.696v1.803h0.696c1.689,0,3.064,1.37,3.064,3.052
	c0,1.684-1.375,3.053-3.064,3.053h-1.675v-9.435c0-0.997-0.81-1.804-1.81-1.804v13.042h3.484c2.694,0,4.877-2.174,4.877-4.856
	C59.057,47.318,56.874,45.145,54.181,45.145 M40.942,50c0,2.682,2.183,4.856,4.876,4.856h0.697v-1.804h-0.697
	c-1.689,0-3.065-1.369-3.065-3.052c0-1.684,1.375-3.053,3.065-3.053h1.674v9.436c0,0.996,0.811,1.804,1.811,1.804V45.144h-3.486
	C43.125,45.144,40.942,47.318,40.942,50"/>
</svg>
