<?xml version="1.0" encoding="utf-8"?>
<!--
  - This file is part of StyleBI.
  -
  - Copyright (c) 2024, InetSoft Technology Corp, All Rights Reserved.
  -
  - The software and information contained herein are copyrighted and
  - proprietary to InetSoft Technology Corp. This software is furnished
  - pursuant to a written license agreement and may be used, copied,
  - transmitted, and stored only in accordance with the terms of such
  - license and with the inclusion of the above copyright notice. Please
  - refer to the file "COPYRIGHT" for further copyright and licensing
  - information. This software and information or any other copies
  - thereof may not be provided or otherwise made available to any other
  - person.
  -->

<!-- Generator: Adobe Illustrator 15.1.0, SVG Export Plug-In . SVG Version: 6.00 Build 0)  -->
<!DOCTYPE svg PUBLIC "-//W3C//DTD SVG 1.1//EN" "http://www.w3.org/Graphics/SVG/1.1/DTD/svg11.dtd">
<svg version="1.1" id="Layer_1" xmlns="http://www.w3.org/2000/svg" xmlns:xlink="http://www.w3.org/1999/xlink" x="0px" y="0px"
	 width="23.182px" height="30px" viewBox="294.409 381 23.182 30" enable-background="new 294.409 381 23.182 30"
	 xml:space="preserve">
<path fill="#6E6F72" d="M308.546,396.931h-4.039v11.31h-4.137c0-0.098,0.024-0.221,0.024-0.318v-10.6
	c-0.008-0.148-0.025-0.295-0.049-0.441h-2.619c0-0.514,0-1.003-0.024-1.518s-0.073-0.808-0.098-1.224v-0.221h2.791v-1.297
	c0-2.448,1.396-3.892,3.868-3.917h4.088v3.011h-1.64l-0.906,0.049c-1.102,0.147-1.322,0.392-1.322,1.494v0.685h4.064V396.931"/>
<path fill="#F78808" d="M314.396,387.53c-2.718,1.787-2.619,3.378-1.738,4.945c-1.297-0.783-2.57-0.71-3.867-0.024
	c0.611-0.808,1.224-1.566,2.35-1.542c-0.171-1.151,0.244-2.032,1.175-2.767c-1.028-0.293-1.934-0.661-2.056-1.982
	c-0.539,0.881-1.102,1.566-2.081,1.713s-1.738-0.171-2.595-0.637c2.766,0.441,4.015-1.175,4.774-3.476
	c0.22,1.028,0.465,2.007,1.175,2.791C312.242,387.334,313.246,387.628,314.396,387.53z"/>
</svg>
