<?xml version="1.0" encoding="utf-8"?>
<!--
  - This file is part of StyleBI.
  - Copyright (C) 2024  InetSoft Technology
  -
  - This program is free software: you can redistribute it and/or modify
  - it under the terms of the GNU Affero General Public License as published by
  - the Free Software Foundation, either version 3 of the License, or
  - (at your option) any later version.
  -
  - This program is distributed in the hope that it will be useful,
  - but WITHOUT ANY WARRANTY; without even the implied warranty of
  - MERCHANTABILITY or FITNESS FOR A PARTICULAR PURPOSE.  See the
  - GNU Affero General Public License for more details.
  -
  - You should have received a copy of the GNU Affero General Public License
  - along with this program.  If not, see <https://www.gnu.org/licenses/>.
  -->

<!-- Generator: Adobe Illustrator 15.1.0, SVG Export Plug-In . SVG Version: 6.00 Build 0)  -->
<!DOCTYPE svg PUBLIC "-//W3C//DTD SVG 1.1//EN" "http://www.w3.org/Graphics/SVG/1.1/DTD/svg11.dtd">
<svg version="1.1" id="Layer_1" xmlns="http://www.w3.org/2000/svg" xmlns:xlink="http://www.w3.org/1999/xlink" x="0px" y="0px"
	 width="30px" height="30px" viewBox="204.1 199.605 30 30" enable-background="new 204.1 199.605 30 30" xml:space="preserve">
<rect x="207.25" y="202.755" fill="#002F5A" width="23.7" height="23.7"/>
<g>
	<path fill="#FFFFFF" d="M215.91,213.443c0,0,0.534-0.76,1.25-0.775c1.103-0.023,2.003,1.965,2.14,2.252
		c1.219-2.729,3.238-5.04,4.88-6.584h-10.07c0.001,0.947,0.01,10.5,0.01,11.282c0,0.621-0.083,1.061-0.13,1.258
		c0.445-0.069,2.14-0.358,3.861-0.978c3.059-1.099,4.256-2.271,4.268-2.281l0.077-0.077l0.045,0.1
		c0.004,0.008,0.383,0.848,0.764,1.296c0.422,0.497,0.66,0.556,0.785,0.516c0.172-0.053,0.286-0.331,0.334-0.804
		c0.045-0.451,0.087-1.48,0.086-2.727c-0.001-2.251,0-5.222,0-6.716c-2.969,3.642-5.153,9.098-5.153,9.098
		S217.624,213.409,215.91,213.443L215.91,213.443z"/>
</g>
</svg>
