<?xml version="1.0" encoding="utf-8"?>
<!--
  - This file is part of StyleBI.
  -
  - Copyright (c) 2024, InetSoft Technology Corp, All Rights Reserved.
  -
  - The software and information contained herein are copyrighted and
  - proprietary to InetSoft Technology Corp. This software is furnished
  - pursuant to a written license agreement and may be used, copied,
  - transmitted, and stored only in accordance with the terms of such
  - license and with the inclusion of the above copyright notice. Please
  - refer to the file "COPYRIGHT" for further copyright and licensing
  - information. This software and information or any other copies
  - thereof may not be provided or otherwise made available to any other
  - person.
  -->

<!-- Generator: Adobe Illustrator 15.1.0, SVG Export Plug-In . SVG Version: 6.00 Build 0)  -->
<!DOCTYPE svg PUBLIC "-//W3C//DTD SVG 1.1//EN" "http://www.w3.org/Graphics/SVG/1.1/DTD/svg11.dtd">
<svg version="1.1" id="Layer_1" xmlns="http://www.w3.org/2000/svg" xmlns:xlink="http://www.w3.org/1999/xlink" x="0px" y="0px"
	 width="30px" height="30px" viewBox="291 381 30 30" enable-background="new 291 381 30 30" xml:space="preserve">
<g>
	<path fill="#E10098" d="M296.732,402.676l-0.935-0.54l10.414-18.037l0.935,0.54L296.732,402.676z"/>
	<path fill="#E10098" d="M295.583,400.695h20.827v1.079h-20.827V400.695z"/>
	<path fill="#E10098" d="M306.413,407.315l-10.417-6.015l0.54-0.935l10.417,6.015L306.413,407.315z M315.462,391.64l-10.417-6.015
		l0.54-0.935l10.418,6.015L315.462,391.64z"/>
	<path fill="#E10098" d="M296.538,391.635l-0.54-0.935l10.417-6.015l0.54,0.935L296.538,391.635z"/>
	<path fill="#E10098" d="M315.271,402.676l-10.414-18.037l0.935-0.54l10.414,18.037L315.271,402.676z M296.409,389.985h1.079v12.029
		h-1.079V389.985z M314.512,389.985h1.079v12.029h-1.079V389.985z"/>
	<path fill="#E10098" d="M306.229,406.859l-0.471-0.817l9.061-5.23l0.471,0.816L306.229,406.859z"/>
	<path fill="#E10098" d="M317.021,402.366c-0.624,1.086-2.016,1.456-3.102,0.832s-1.457-2.016-0.833-3.102
		c0.625-1.086,2.017-1.457,3.103-0.833C317.281,399.895,317.652,401.28,317.021,402.366 M298.906,391.904
		c-0.624,1.085-2.016,1.457-3.102,0.833c-1.085-0.625-1.457-2.017-0.832-3.102c0.624-1.086,2.016-1.457,3.102-0.833
		C299.159,389.433,299.53,390.818,298.906,391.904 M294.978,402.366c-0.624-1.086-0.253-2.472,0.833-3.103
		c1.086-0.624,2.471-0.253,3.102,0.833c0.624,1.086,0.253,2.471-0.832,3.102C296.987,403.822,295.603,403.452,294.978,402.366
		 M313.094,391.904c-0.624-1.086-0.253-2.471,0.833-3.102c1.086-0.625,2.471-0.253,3.102,0.833c0.624,1.085,0.253,2.471-0.832,3.102
		C315.11,393.36,313.718,392.989,313.094,391.904 M306,408.731c-1.255,0-2.27-1.014-2.27-2.27c0-1.255,1.015-2.269,2.27-2.269
		s2.27,1.014,2.27,2.269C308.27,407.711,307.255,408.731,306,408.731 M306,387.807c-1.255,0-2.27-1.014-2.27-2.27
		c0-1.255,1.015-2.27,2.27-2.27s2.27,1.015,2.27,2.27C308.27,386.793,307.255,387.807,306,387.807"/>
</g>
</svg>
