<?xml version="1.0" encoding="utf-8"?>
<!--
  - This file is part of StyleBI.
  -
  - Copyright (c) 2024, InetSoft Technology Corp, All Rights Reserved.
  -
  - The software and information contained herein are copyrighted and
  - proprietary to InetSoft Technology Corp. This software is furnished
  - pursuant to a written license agreement and may be used, copied,
  - transmitted, and stored only in accordance with the terms of such
  - license and with the inclusion of the above copyright notice. Please
  - refer to the file "COPYRIGHT" for further copyright and licensing
  - information. This software and information or any other copies
  - thereof may not be provided or otherwise made available to any other
  - person.
  -->

<!-- Generator: Adobe Illustrator 15.1.0, SVG Export Plug-In . SVG Version: 6.00 Build 0)  -->
<!DOCTYPE svg PUBLIC "-//W3C//DTD SVG 1.1//EN" "http://www.w3.org/Graphics/SVG/1.1/DTD/svg11.dtd">
<svg version="1.1" id="Layer_1" xmlns="http://www.w3.org/2000/svg" xmlns:xlink="http://www.w3.org/1999/xlink" x="0px" y="0px"
	 width="30px" height="30px" viewBox="113 113 30 30" enable-background="new 113 113 30 30" xml:space="preserve">
<g>
	<rect x="116.253" y="114.752" fill-opacity="0" width="23.494" height="26.496"/>
	<path fill="#222222" d="M131.895,123.859l6.083-6.087l1.741,1.741l-6.084,6.088L131.895,123.859z M129.429,130.08
		c-1.189,0-2.154-0.969-2.154-2.165c0-1.195,0.964-2.165,2.154-2.165c1.191,0,2.155,0.97,2.155,2.165
		C131.584,129.111,130.62,130.08,129.429,130.08z M139.747,136.368l-1.74,1.742l-6.084-6.088l1.742-1.742L139.747,136.368z"/>
	<path fill="#03A9F4" d="M129.491,137.277c1.227,0,2.396-0.245,3.466-0.679l2.972,2.974c-1.905,1.063-4.1,1.676-6.438,1.676
		c-7.31,0-13.238-5.931-13.238-13.248s5.928-13.248,13.238-13.248c2.315,0,4.488,0.597,6.38,1.641l-2.922,2.925
		c-1.068-0.433-2.233-0.677-3.458-0.677c-5.119,0-9.27,4.171-9.27,9.319C120.222,133.105,124.372,137.277,129.491,137.277z"/>
</g>
</svg>
