<?xml version="1.0" encoding="utf-8"?>
<!--
  - This file is part of StyleBI.
  -
  - Copyright (c) 2024, InetSoft Technology Corp, All Rights Reserved.
  -
  - The software and information contained herein are copyrighted and
  - proprietary to InetSoft Technology Corp. This software is furnished
  - pursuant to a written license agreement and may be used, copied,
  - transmitted, and stored only in accordance with the terms of such
  - license and with the inclusion of the above copyright notice. Please
  - refer to the file "COPYRIGHT" for further copyright and licensing
  - information. This software and information or any other copies
  - thereof may not be provided or otherwise made available to any other
  - person.
  -->

<!-- Generator: Adobe Illustrator 15.1.0, SVG Export Plug-In . SVG Version: 6.00 Build 0)  -->
<!DOCTYPE svg PUBLIC "-//W3C//DTD SVG 1.1//EN" "http://www.w3.org/Graphics/SVG/1.1/DTD/svg11.dtd">
<svg version="1.1" id="Layer_1" xmlns="http://www.w3.org/2000/svg" xmlns:xlink="http://www.w3.org/1999/xlink" x="0px" y="0px"
	 width="40px" height="30px" viewBox="76.5 -0.5 40 30" enable-background="new 76.5 -0.5 40 30" xml:space="preserve">
<g>
	<path fill="#FCD98D" d="M95.793,14.756c1.822-0.47,3.676-0.802,5.549-0.992c0.359-1.405,0.796-2.79,1.307-4.147l-0.173,0.03
		c-1.777,0.339-3.528,0.802-5.242,1.385C96.689,12.247,96.209,13.49,95.793,14.756 M91.221,12.892
		c0.562-1.154,1.179-2.281,1.847-3.376c-1.028,0.594-2.033,1.225-3.015,1.892c-0.753,1.099-1.45,2.236-2.091,3.405
		C89.019,14.122,90.105,13.481,91.221,12.892"/>
	<path fill="#809EBA" d="M95.033,14.961c0.389-1.231,0.838-2.442,1.345-3.629c-1.597,0.583-3.155,1.27-4.664,2.054
		c-0.51,1.065-0.972,2.153-1.383,3.259C91.855,15.974,93.428,15.411,95.033,14.961"/>
	<path fill="#2B5E8C" d="M102.373,8.986c0.188-0.035,0.375-0.069,0.559-0.1c0.565-1.416,1.208-2.799,1.928-4.144
		c-1.749,0.425-3.469,0.959-5.149,1.603c-0.767,1.246-1.466,2.533-2.095,3.855C99.174,9.697,100.764,9.292,102.373,8.986
		 M85.064,19.554c0.333-0.892,0.708-1.793,1.119-2.681c-0.698,0.523-1.379,1.068-2.042,1.635c-0.592,0.965-1.142,1.957-1.646,2.973
		C83.32,20.796,84.177,20.152,85.064,19.554"/>
	<path fill="#F9B31B" d="M89.49,17.028c0.373-1.056,0.791-2.098,1.252-3.119c-1.18,0.657-2.326,1.374-3.434,2.147
		c-0.472,0.942-0.905,1.902-1.298,2.879C87.133,18.232,88.295,17.596,89.49,17.028"/>
	<path fill="#809EBA" d="M102.041,13.698c2.095-0.179,4.201-0.191,6.152-0.035c0.466-1.652,0.959-3.214,1.503-4.681
		c-0.09-0.001-0.181-0.001-0.272-0.001c-1.962,0-3.986,0.169-6.016,0.502C102.873,10.86,102.416,12.268,102.041,13.698"/>
	<path fill="#F9B31B" d="M109.421,8.312c0.183,0,0.358,0.002,0.528,0.005c0.613-1.588,1.342-3.128,2.179-4.61
		c-1.465,0.057-3.713,0.25-6.405,0.838c-0.755,1.365-1.432,2.772-2.025,4.215C105.591,8.465,107.505,8.315,109.421,8.312
		 M94.623,19.287c0.76-0.131,1.524-0.238,2.292-0.322c1.171-0.123,2.347-0.196,3.525-0.217c0.143-1.386,0.392-2.828,0.734-4.294
		c-1.897,0.207-3.776,0.56-5.619,1.057C95.174,16.752,94.863,18.013,94.623,19.287"/>
	<path fill="#FCD98D" d="M83.938,23.151c0.206-0.821,0.457-1.667,0.742-2.519c-1.006,0.726-1.97,1.508-2.887,2.342
		c-0.337,0.762-0.645,1.535-0.922,2.32C81.842,24.508,82.867,23.793,83.938,23.151"/>
	<path fill="#2B5E8C" d="M93.927,19.414c0.226-1.244,0.518-2.477,0.875-3.691c-1.637,0.482-3.234,1.083-4.783,1.798
		c-0.363,1.055-0.675,2.126-0.936,3.211c1.58-0.562,3.199-1.001,4.846-1.317"/>
</g>
</svg>
