<?xml version="1.0" encoding="utf-8"?>
<!--
  - This file is part of StyleBI.
  - Copyright (C) 2024  InetSoft Technology
  -
  - This program is free software: you can redistribute it and/or modify
  - it under the terms of the GNU Affero General Public License as published by
  - the Free Software Foundation, either version 3 of the License, or
  - (at your option) any later version.
  -
  - This program is distributed in the hope that it will be useful,
  - but WITHOUT ANY WARRANTY; without even the implied warranty of
  - MERCHANTABILITY or FITNESS FOR A PARTICULAR PURPOSE.  See the
  - GNU Affero General Public License for more details.
  -
  - You should have received a copy of the GNU Affero General Public License
  - along with this program.  If not, see <https://www.gnu.org/licenses/>.
  -->

<!-- Generator: Adobe Illustrator 15.1.0, SVG Export Plug-In . SVG Version: 6.00 Build 0)  -->
<!DOCTYPE svg PUBLIC "-//W3C//DTD SVG 1.1//EN" "http://www.w3.org/Graphics/SVG/1.1/DTD/svg11.dtd">
<svg version="1.1" id="Layer_1" xmlns="http://www.w3.org/2000/svg" xmlns:xlink="http://www.w3.org/1999/xlink" x="0px" y="0px"
	 width="30px" height="30px" viewBox="0 0 30 30" enable-background="new 0 0 30 30" xml:space="preserve">
<g>
	<path fill="#FF3465" d="M14.285,2.69c-2.66,0.349-5.167,1.055-7.261,2.845C5.781,6.601,4.758,7.892,4.026,9.353
		c-2.563,5.113-1.379,11.558,3.109,15.238c1.365,1.121,3.031,1.919,4.729,2.39c1.562,0.435,3.244,0.467,4.841,0.271
		c1.698-0.208,3.389-0.835,4.84-1.735c1.139-0.708,2.177-1.595,3.028-2.633c4.232-5.16,3.44-13.034-1.599-17.348
		c-1.17-1.003-2.612-1.751-4.07-2.233C17.49,2.836,15.774,2.494,14.285,2.69z"/>
	<path fill="#FFFFFF" d="M21.931,16.943c-0.758,0.116-1.309,0.816-1.979,1.173c-1.445,0.769-3.337,0.829-4.73-0.086
		c-2.361-1.552-2.806-4.864-1.863-7.358c0.372-0.979,0.997-2.131,2.084-2.438c0.904-0.257,1.945,0.537,2.043,1.449
		c0.095,0.879-0.465,1.763-0.489,2.639c-0.045,1.654,1.515,2.797,3.065,2.243c2.166-0.773,1.547-3.697,0.312-4.982
		c-2.877-2.993-8.302-1.818-10.725,1.089c-2.083,2.502-2.093,6.476-0.088,9.021c1.912,2.43,5.759,3.126,8.522,1.835
		c1.052-0.494,1.955-1.357,2.651-2.275C21.239,18.582,21.781,17.776,21.931,16.943z"/>
</g>
</svg>
