<?xml version="1.0" encoding="utf-8"?>
<!--
  - This file is part of StyleBI.
  - Copyright (C) 2024  InetSoft Technology
  -
  - This program is free software: you can redistribute it and/or modify
  - it under the terms of the GNU Affero General Public License as published by
  - the Free Software Foundation, either version 3 of the License, or
  - (at your option) any later version.
  -
  - This program is distributed in the hope that it will be useful,
  - but WITHOUT ANY WARRANTY; without even the implied warranty of
  - MERCHANTABILITY or FITNESS FOR A PARTICULAR PURPOSE.  See the
  - GNU Affero General Public License for more details.
  -
  - You should have received a copy of the GNU Affero General Public License
  - along with this program.  If not, see <https://www.gnu.org/licenses/>.
  -->

<!-- Generator: Adobe Illustrator 15.0.0, SVG Export Plug-In . SVG Version: 6.00 Build 0)  -->
<!DOCTYPE svg PUBLIC "-//W3C//DTD SVG 1.1//EN" "http://www.w3.org/Graphics/SVG/1.1/DTD/svg11.dtd">
<svg version="1.1" id="图层_1" xmlns="http://www.w3.org/2000/svg" xmlns:xlink="http://www.w3.org/1999/xlink" x="0px" y="0px"
	 width="200px" height="200px" viewBox="0 0 200 200" enable-background="new 0 0 200 200" xml:space="preserve">
<path fill="#42BCF4" d="M175,195c6.768,0,13.439-0.408,20-1.176V25c0-11.045-8.955-20-20-20H6.177C5.408,11.561,5,18.232,5,25
	C5,118.889,81.111,195,175,195z"/>
<path fill="#FFFFFF" d="M175,190c5.058,0,10.058-0.24,14.999-0.686L190,25.001c0,0.205-0.022,0.406-0.031,0.609
	C189.978,25.407,190,25.207,190,25c0-8.283-6.717-15-15-15h-37.667L10.686,10.001C10.24,14.943,10,19.943,10,25
	C10,116.127,83.872,190,175,190z"/>
<path fill="#8DD0FC" d="M175,115v-6c-46.317,0-84-37.682-84-84h-6C85,74.707,125.293,115,175,115z"/>
</svg>
