<?xml version="1.0" encoding="utf-8"?>
<!--
  - This file is part of StyleBI.
  - Copyright (C) 2024  InetSoft Technology
  -
  - This program is free software: you can redistribute it and/or modify
  - it under the terms of the GNU Affero General Public License as published by
  - the Free Software Foundation, either version 3 of the License, or
  - (at your option) any later version.
  -
  - This program is distributed in the hope that it will be useful,
  - but WITHOUT ANY WARRANTY; without even the implied warranty of
  - MERCHANTABILITY or FITNESS FOR A PARTICULAR PURPOSE.  See the
  - GNU Affero General Public License for more details.
  -
  - You should have received a copy of the GNU Affero General Public License
  - along with this program.  If not, see <https://www.gnu.org/licenses/>.
  -->

<!-- Generator: Adobe Illustrator 15.0.0, SVG Export Plug-In . SVG Version: 6.00 Build 0)  -->
<!DOCTYPE svg PUBLIC "-//W3C//DTD SVG 1.1//EN" "http://www.w3.org/Graphics/SVG/1.1/DTD/svg11.dtd">
<svg version="1.1" id="图层_1" xmlns="http://www.w3.org/2000/svg" xmlns:xlink="http://www.w3.org/1999/xlink" x="0px" y="0px"
	 width="200px" height="200px" viewBox="0 0 200 200" enable-background="new 0 0 200 200" xml:space="preserve">
<path fill="#42BCF4" d="M175,195c6.768,0,13.439-0.408,20-1.176V25c0-11.045-8.955-20-20-20H6.177C5.408,11.561,5,18.232,5,25
	C5,118.889,81.111,195,175,195z"/>
<path fill="#FFFFFF" d="M175,190c5.058,0,10.058-0.24,14.999-0.686L190,25.001c0,0.205-0.022,0.406-0.031,0.609
	C189.978,25.407,190,25.207,190,25c0-8.283-6.717-15-15-15h-37.667L10.686,10.001C10.24,14.943,10,19.943,10,25
	C10,116.127,83.872,190,175,190z"/>
<path fill="#8DD0FC" d="M175,115v-6c-46.317,0-84-37.682-84-84h-6C85,74.707,125.293,115,175,115z"/>
<polygon fill="#42BCF4" points="175,15.033 175,35.033 65,25.033 "/>
<g>
	<path fill="#AFAFAF" d="M85.132,93.061l-6.194,4.509c0.154,0.205,0.306,0.406,0.459,0.615l6.197-4.496
		C85.439,93.478,85.279,93.269,85.132,93.061z"/>
	<path fill="#AFAFAF" d="M74.827,75.818l-6.889,3.36c0.117,0.228,0.229,0.464,0.342,0.688l6.878-3.359
		C75.048,76.283,74.934,76.042,74.827,75.818z"/>
	<path fill="#AFAFAF" d="M76.927,79.98l-6.756,3.594c0.118,0.232,0.241,0.454,0.362,0.684l6.767-3.596
		C77.174,80.431,77.051,80.22,76.927,79.98z"/>
	<path fill="#AFAFAF" d="M71.731,68.767l-7.097,2.867c0.096,0.236,0.19,0.482,0.281,0.714l7.104-2.866
		C71.921,69.251,71.829,68.998,71.731,68.767z"/>
	<path fill="#AFAFAF" d="M73.208,72.312l-6.99,3.123c0.098,0.235,0.206,0.473,0.313,0.703l6.992-3.113
		C73.426,72.781,73.318,72.556,73.208,72.312z"/>
	<path fill="#AFAFAF" d="M70.37,65.164l-7.199,2.619c0.091,0.247,0.181,0.484,0.271,0.728l7.196-2.62
		C70.551,65.64,70.46,65.403,70.37,65.164z"/>
	<path fill="#AFAFAF" d="M78.813,83.359l-6.634,3.814c0.132,0.234,0.26,0.463,0.383,0.681l6.635-3.825
		C79.063,83.802,78.941,83.574,78.813,83.359z"/>
	<path fill="#AFAFAF" d="M87.467,96.139l-6.034,4.716c0.16,0.206,0.311,0.409,0.476,0.612l6.031-4.718
		C87.786,96.546,87.624,96.343,87.467,96.139z"/>
	<path fill="#AFAFAF" d="M89.895,99.14l-5.858,4.924c0.159,0.201,0.323,0.391,0.496,0.586l5.86-4.926
		C90.227,99.542,90.06,99.339,89.895,99.14z"/>
	<path fill="#AFAFAF" d="M92.428,102.051l-5.687,5.121c0.176,0.191,0.35,0.381,0.518,0.572l5.694-5.131
		C92.779,102.42,92.597,102.24,92.428,102.051z"/>
	<path fill="#AFAFAF" d="M82.92,89.898l-6.349,4.285c0.144,0.212,0.288,0.435,0.435,0.639l6.346-4.287
		C83.203,90.33,83.056,90.11,82.92,89.898z"/>
	<path fill="#AFAFAF" d="M80.804,86.665l-6.499,4.063c0.142,0.221,0.28,0.435,0.42,0.646l6.49-4.056
		C81.083,87.095,80.938,86.889,80.804,86.665z"/>
	<path fill="#AFAFAF" d="M64.195,35.074l-7.636,0.533c0.012,0.25,0.03,0.51,0.047,0.764l7.64-0.536
		C64.229,35.578,64.211,35.326,64.195,35.074z"/>
	<path fill="#AFAFAF" d="M64.946,42.734l-7.576,1.068c0.031,0.257,0.061,0.514,0.098,0.766l7.58-1.061
		C65.015,43.249,64.989,42.992,64.946,42.734z"/>
	<path fill="#AFAFAF" d="M69.146,61.514l-7.284,2.363c0.078,0.25,0.157,0.493,0.232,0.737l7.285-2.366
		C69.296,62.011,69.223,61.754,69.146,61.514z"/>
	<path fill="#AFAFAF" d="M64.027,31.214l-7.648,0.273c0,0.249,0.008,0.516,0.017,0.769l7.656-0.269
		C64.038,31.724,64.034,31.47,64.027,31.214z"/>
	<path fill="#AFAFAF" d="M63.977,27.363h-7.65c-0.003,0.257,0,0.514,0,0.771l7.658-0.004C63.984,27.876,63.977,27.62,63.977,27.363z
		"/>
	<path fill="#AFAFAF" d="M64.509,38.906l-7.615,0.812c0.026,0.252,0.045,0.507,0.076,0.761l7.616-0.803
		C64.561,39.423,64.532,39.164,64.509,38.906z"/>
	<path fill="#AFAFAF" d="M65.516,46.546l-7.542,1.334c0.046,0.258,0.092,0.508,0.141,0.758l7.539-1.328
		C65.609,47.057,65.563,46.8,65.516,46.546z"/>
	<path fill="#AFAFAF" d="M67.064,54.098l-7.426,1.853c0.062,0.248,0.119,0.498,0.18,0.754l7.432-1.856
		C67.187,54.595,67.13,54.345,67.064,54.098z"/>
	<path fill="#AFAFAF" d="M68.042,57.822l-7.362,2.115c0.072,0.243,0.146,0.492,0.216,0.744l7.359-2.115
		C68.184,58.317,68.109,58.071,68.042,57.822z"/>
	<path fill="#AFAFAF" d="M66.227,50.332l-7.484,1.596c0.05,0.25,0.099,0.506,0.154,0.758l7.491-1.595
		C66.334,50.841,66.288,50.587,66.227,50.332z"/>
	<path fill="#AFAFAF" d="M119.276,123.783l-3.823,6.635c0.219,0.129,0.443,0.258,0.666,0.383l3.828-6.633
		C119.726,124.035,119.501,123.904,119.276,123.783z"/>
	<path fill="#AFAFAF" d="M95.065,104.865l-5.509,5.324c0.18,0.184,0.362,0.373,0.539,0.557l5.503-5.324
		C95.418,105.238,95.241,105.051,95.065,104.865z"/>
	<path fill="#AFAFAF" d="M130.241,137.641c0.235,0.096,0.481,0.184,0.719,0.277l2.87-7.104c-0.241-0.094-0.479-0.186-0.721-0.279
		L130.241,137.641z"/>
	<path fill="#AFAFAF" d="M103.523,112.746l-4.923,5.871c0.194,0.166,0.396,0.324,0.599,0.492l4.92-5.873
		C103.925,113.08,103.717,112.912,103.523,112.746z"/>
	<path fill="#AFAFAF" d="M109.594,117.494l-4.502,6.201c0.21,0.148,0.423,0.297,0.627,0.443l4.505-6.195
		C110.01,117.791,109.792,117.646,109.594,117.494z"/>
	<path fill="#AFAFAF" d="M106.521,115.168l-4.716,6.035c0.198,0.16,0.399,0.322,0.605,0.479l4.71-6.033
		C106.919,115.49,106.725,115.324,106.521,115.168z"/>
	<path fill="#AFAFAF" d="M100.614,110.213l-5.125,5.697c0.193,0.174,0.38,0.346,0.573,0.518l5.127-5.691
		C100.989,110.566,100.803,110.393,100.614,110.213z"/>
	<path fill="#AFAFAF" d="M97.793,107.594l-5.318,5.506c0.186,0.186,0.372,0.357,0.56,0.535l5.317-5.51
		C98.166,107.945,97.979,107.77,97.793,107.594z"/>
	<path fill="#AFAFAF" d="M115.98,121.803l-4.063,6.498c0.221,0.135,0.441,0.268,0.656,0.402l4.057-6.498
		C116.416,122.074,116.194,121.941,115.98,121.803z"/>
	<path fill="#AFAFAF" d="M112.747,119.701l-4.278,6.35c0.211,0.143,0.43,0.287,0.641,0.434l4.283-6.354
		C113.177,119.99,112.967,119.844,112.747,119.701z"/>
	<path fill="#AFAFAF" d="M122.646,125.65l-3.593,6.764c0.223,0.123,0.447,0.246,0.672,0.365l3.6-6.766
		C123.097,125.893,122.871,125.77,122.646,125.65z"/>
	<path fill="#AFAFAF" d="M126.072,127.4l-3.355,6.887c0.234,0.107,0.465,0.219,0.7,0.334l3.361-6.889
		C126.541,127.621,126.309,127.514,126.072,127.4z"/>
	<path fill="#AFAFAF" d="M126.448,136.025c0.242,0.105,0.471,0.211,0.712,0.32l3.107-7.004c-0.232-0.102-0.465-0.213-0.702-0.314
		L126.448,136.025z"/>
	<path fill="#AFAFAF" d="M141.922,141.65c0.249,0.068,0.494,0.135,0.744,0.205l2.105-7.367c-0.248-0.068-0.495-0.137-0.741-0.207
		L141.922,141.65z"/>
	<path fill="#AFAFAF" d="M145.903,142.709c0.251,0.064,0.494,0.131,0.748,0.191l1.854-7.434c-0.264-0.059-0.506-0.127-0.747-0.189
		L145.903,142.709z"/>
	<path fill="#AFAFAF" d="M137.979,140.451c0.242,0.078,0.493,0.156,0.735,0.232l2.37-7.287c-0.253-0.076-0.495-0.15-0.737-0.232
		L137.979,140.451z"/>
	<path fill="#AFAFAF" d="M134.093,139.107c0.231,0.086,0.479,0.176,0.719,0.262l2.622-7.199c-0.244-0.088-0.487-0.174-0.725-0.26
		L134.093,139.107z"/>
	<path fill="#AFAFAF" d="M149.922,143.633c0.25,0.055,0.501,0.104,0.744,0.154l1.597-7.492c-0.25-0.051-0.499-0.1-0.759-0.152
		L149.922,143.633z"/>
	<path fill="#AFAFAF" d="M162.122,145.551c0.257,0.029,0.526,0.051,0.773,0.078l0.795-7.617c-0.252-0.027-0.513-0.049-0.763-0.078
		L162.122,145.551z"/>
	<path fill="#AFAFAF" d="M170.453,146.135l0.278-7.656c-0.03,0-0.045,0-0.062,0c-0.239-0.008-0.484-0.023-0.722-0.033l-0.264,7.652
		c0.239,0.012,0.489,0.027,0.72,0.035C170.424,146.135,170.439,146.135,170.453,146.135z"/>
	<path fill="#AFAFAF" d="M166.236,145.908c0.248,0.016,0.506,0.041,0.766,0.055l0.533-7.641c-0.258-0.016-0.52-0.037-0.772-0.057
		L166.236,145.908z"/>
	<path fill="#AFAFAF" d="M153.963,144.414c0.251,0.047,0.513,0.092,0.762,0.133l1.329-7.545c-0.257-0.041-0.504-0.086-0.762-0.133
		L153.963,144.414z"/>
	<path fill="#AFAFAF" d="M158.034,145.059c0.25,0.033,0.508,0.068,0.764,0.104l1.063-7.59c-0.256-0.031-0.511-0.068-0.766-0.102
		L158.034,145.059z"/>
	<path fill="#AFAFAF" d="M65.516,46.546L39.66,51.118c0.038,0.251,0.094,0.505,0.136,0.759l25.857-4.566
		C65.609,47.057,65.563,46.8,65.516,46.546z"/>
	<path fill="#AFAFAF" d="M56.46,97.161l22.739-13.132c-0.136-0.225-0.258-0.451-0.383-0.666L56.077,96.492
		C56.202,96.713,56.333,96.935,56.46,97.161z"/>
	<path fill="#AFAFAF" d="M87.246,133.363l16.871-20.125c-0.192-0.158-0.4-0.324-0.594-0.49l-16.872,20.123
		C86.848,133.037,87.047,133.197,87.246,133.363z"/>
	<path fill="#AFAFAF" d="M128.455,156.857l8.979-24.688c-0.244-0.088-0.487-0.174-0.725-0.26l-8.976,24.686
		C127.974,156.68,128.208,156.77,128.455,156.857z"/>
	<path fill="#AFAFAF" d="M174.581,164.799l-0.013-26.264c-0.252,0.004-0.51,0.006-0.772,0.006l0.018,26.26
		C174.064,164.803,174.327,164.799,174.581,164.799z"/>
	<path fill="#AFAFAF" d="M63.977,27.363l-13.119,0.004c-0.005,0.253,0,0.514,0.003,0.77l13.116-0.006
		C63.984,27.876,63.974,27.62,63.977,27.363z"/>
	<path fill="#AFAFAF" d="M58.298,70.379l12.34-4.489c-0.087-0.246-0.178-0.487-0.268-0.727l-12.334,4.494
		C58.12,69.896,58.213,70.14,58.298,70.379z"/>
	<path fill="#AFAFAF" d="M80.338,108.178l10.055-8.454c-0.169-0.181-0.333-0.384-0.498-0.58l-10.054,8.436
		C80.005,107.781,80.166,107.979,80.338,108.178z"/>
	<path fill="#AFAFAF" d="M156.052,137c-0.257-0.041-0.511-0.09-0.76-0.133l-2.278,12.934c0.252,0.045,0.51,0.09,0.763,0.135
		L156.052,137z"/>
	<path fill="#AFAFAF" d="M119.947,124.168c-0.222-0.133-0.446-0.262-0.671-0.385l-6.56,11.375c0.224,0.129,0.444,0.256,0.67,0.383
		L119.947,124.168z"/>
</g>
<path fill="#055B75" d="M144.211,169.234l0.313,1.246l2.104-1.135h0.037v10.576h1.584V167.82h-1.398L144.211,169.234z
	 M154.966,178.525l0.954-0.893c2.55-2.461,4.168-4.266,4.168-6.498c0-1.732-1.098-3.518-3.701-3.518
	c-1.385,0-2.593,0.539-3.41,1.227l0.519,1.154c0.565-0.463,1.471-1.023,2.571-1.023c1.806,0,2.383,1.133,2.383,2.365
	c0,1.822-1.418,3.387-4.503,6.328l-1.284,1.25v1.004h7.722v-1.361h-5.42v-0.035H154.966z M166.266,167.615
	c-2.458,0-4.222,2.215-4.222,6.291c0.035,4.004,1.654,6.219,4.016,6.219c2.664,0,4.209-2.27,4.209-6.385
	C170.269,169.885,168.803,167.615,166.266,167.615z M166.154,178.859c-1.488,0-2.456-1.783-2.456-4.934
	c0-3.295,1.044-5.045,2.456-5.045c1.712,0,2.459,1.955,2.459,4.936C168.613,176.906,167.812,178.859,166.154,178.859z
	 M112.492,147.625c-2.456,0-4.225,2.215-4.225,6.293c0.038,4.004,1.658,6.219,4.022,6.219c2.663,0,4.208-2.273,4.208-6.385
	C116.498,149.896,115.024,147.625,112.492,147.625z M112.38,158.869c-1.49,0-2.455-1.783-2.455-4.932
	c0-3.297,1.04-5.045,2.455-5.045c1.716,0,2.459,1.953,2.459,4.932C114.839,156.918,114.04,158.869,112.38,158.869z M105.494,147.832
	h-1.764l-5.403,7.727v1.061h5.624v3.313h1.543v-3.313h1.695v-1.266h-1.695V147.832z M103.951,151.311v4.043H99.98v-0.039
	l2.967-4.111c0.334-0.561,0.63-1.08,1.004-1.789h0.055C103.971,150.047,103.951,150.678,103.951,151.311z M90.438,149.244
	l0.314,1.25l2.102-1.135h0.034v10.572h1.583v-12.1h-1.397L90.438,149.244z M77.343,113.154c-2.459,0-4.223,2.215-4.223,6.293
	c0.032,4.002,1.655,6.221,4.017,6.221c2.658,0,4.206-2.273,4.206-6.387C81.342,115.426,79.871,113.154,77.343,113.154z
	 M77.228,124.398c-1.488,0-2.455-1.787-2.455-4.932c0-3.297,1.042-5.047,2.455-5.047c1.717,0,2.459,1.955,2.459,4.932
	C79.687,122.445,78.885,124.398,77.228,124.398z M55.283,114.773l0.314,1.248l2.105-1.133h0.035v10.572h1.582v-12.1h-1.396
	L55.283,114.773z M68.183,117.475c-1.34,0-2.362,0.635-2.944,1.416h-0.035c0.282-2.012,1.622-3.875,4.21-4.283
	c0.466-0.074,0.892-0.109,1.229-0.092v-1.344c-0.298,0-0.711,0.02-1.193,0.096c-1.529,0.184-2.869,0.799-3.873,1.787
	c-1.209,1.191-2.049,3.072-2.049,5.455c0,3.146,1.695,5.158,4.264,5.158c2.538,0,4.046-2.051,4.046-4.287
	C71.834,119.039,70.326,117.475,68.183,117.475z M67.825,124.398c-1.729,0-2.658-1.49-2.678-3.48c0-0.301,0.074-0.523,0.169-0.709
	c0.442-0.895,1.374-1.488,2.361-1.488c1.509,0,2.496,1.039,2.496,2.775C70.174,123.229,69.224,124.398,67.825,124.398z"/>
<path fill="#055B75" d="M48.972,69.728c-2.452,0-4.224,2.212-4.224,6.293c0.036,4.003,1.659,6.218,4.021,6.218
	c2.667,0,4.208-2.271,4.208-6.388C52.977,71.998,51.508,69.728,48.972,69.728z M48.861,80.972c-1.489,0-2.454-1.785-2.454-4.934
	c0-3.299,1.042-5.048,2.454-5.048c1.714,0,2.46,1.956,2.46,4.935C51.321,79.019,50.521,80.972,48.861,80.972z M43.226,69.929h-7.633
	v1.363h5.918v0.035l-5.25,10.705h1.694l5.271-11.024V69.929z M26.915,71.347l0.322,1.248l2.1-1.137h0.041v10.576h1.579V69.929
	h-1.396L26.915,71.347z M20.02,29.132l0.315,1.245l2.104-1.136h0.041v10.574h1.58V27.719h-1.396L20.02,29.132z M42.08,27.513
	c-2.459,0-4.229,2.217-4.229,6.291c0.037,4.005,1.66,6.218,4.021,6.218c2.668,0,4.209-2.271,4.209-6.384
	C46.081,29.785,44.61,27.513,42.08,27.513z M41.966,38.755c-1.489,0-2.455-1.786-2.455-4.932c0-3.299,1.038-5.043,2.455-5.043
	c1.714,0,2.459,1.949,2.459,4.931C44.425,36.8,43.625,38.755,41.966,38.755z M34.057,33.375V33.32
	c1.49-0.688,2.011-1.807,2.011-2.83c0-1.527-1.194-2.977-3.536-2.977c-2.142,0-3.756,1.303-3.756,3.217
	c0,1.045,0.572,2.088,1.932,2.719l0.02,0.058c-1.49,0.632-2.405,1.731-2.405,3.258c0,1.77,1.533,3.256,4.061,3.256
	c2.308,0,4.116-1.399,4.116-3.522C36.496,35.052,35.563,33.972,34.057,33.375z M30.33,30.621c0-1.045,0.742-1.937,2.105-1.937
	c1.47,0,2.049,1.005,2.049,1.972c0,1.104-0.802,1.842-1.844,2.196C31.244,32.48,30.313,31.83,30.33,30.621z M32.416,38.83
	c-1.539,0-2.475-1.078-2.418-2.29c0-1.153,0.764-2.101,2.178-2.511c1.639,0.465,2.662,1.189,2.662,2.641
	C34.838,37.918,33.888,38.83,32.416,38.83z"/>
<circle fill="#42BCF4" cx="175" cy="25" r="10"/>
<circle fill="#FFFFFF" cx="175" cy="25" r="6"/>
</svg>
