<?xml version="1.0" encoding="utf-8"?>
<!--
  - This file is part of StyleBI.
  - Copyright (C) 2024  InetSoft Technology
  -
  - This program is free software: you can redistribute it and/or modify
  - it under the terms of the GNU Affero General Public License as published by
  - the Free Software Foundation, either version 3 of the License, or
  - (at your option) any later version.
  -
  - This program is distributed in the hope that it will be useful,
  - but WITHOUT ANY WARRANTY; without even the implied warranty of
  - MERCHANTABILITY or FITNESS FOR A PARTICULAR PURPOSE.  See the
  - GNU Affero General Public License for more details.
  -
  - You should have received a copy of the GNU Affero General Public License
  - along with this program.  If not, see <https://www.gnu.org/licenses/>.
  -->

<!-- Generator: Adobe Illustrator 15.1.0, SVG Export Plug-In . SVG Version: 6.00 Build 0)  -->
<!DOCTYPE svg PUBLIC "-//W3C//DTD SVG 1.1//EN" "http://www.w3.org/Graphics/SVG/1.1/DTD/svg11.dtd">
<svg version="1.1" id="Layer_1" xmlns="http://www.w3.org/2000/svg" xmlns:xlink="http://www.w3.org/1999/xlink" x="0px" y="0px"
	 width="55.909px" height="30px" viewBox="-7.455 -4 55.909 30" enable-background="new -7.455 -4 55.909 30" xml:space="preserve">
<path fill="#0071F7" d="M39.7,19.2c0.5,0.7,0.399,1.6-0.2,2.1c-0.7,0.5-1.7,0.4-2.2-0.2l-3.5-4.5L30.4,21c-0.5,0.7-1.5,0.7-2.2,0.2
	s-0.8-1.4-0.3-2.101l4-5.199l-4-5.2C27.4,8,27.6,7,28.2,6.5c0.7-0.5,1.7-0.3,2.2,0.3l3.399,4.5L37.3,7c0.5-0.7,1.4-0.8,2.2-0.3
	c0.7,0.5,0.7,1.5,0.2,2.2L35.8,14L39.7,19.2z M21.5,18.6c-2.6,0-4.7-2-4.7-4.6c0-2.5,2.1-4.6,4.7-4.6c2.6,0,4.7,2.1,4.7,4.6
	C26.1,16.6,24,18.6,21.5,18.6z M7.7,18.6c-2.6,0-4.7-2-4.7-4.6c0-2.5,2.1-4.6,4.7-4.6c2.6,0,4.7,2.1,4.7,4.6
	C12.4,16.6,10.3,18.6,7.7,18.6z M21.5,6.4c-2.9,0-5.5,1.6-6.8,4c-1.3-2.4-3.9-4-6.9-4C6,6.4,4.4,7,3.1,7.9V1.5C3.1,0.7,2.4,0,1.6,0
	C0.7,0,0,0.7,0,1.5v12.6c0.1,4.2,3.5,7.5,7.7,7.5c3,0,5.6-1.699,6.9-4.1c1.3,2.4,3.9,4.1,6.8,4.1c4.3,0,7.8-3.399,7.8-7.699
	C29.3,9.8,25.8,6.4,21.5,6.4z"/>
</svg>
