<?xml version="1.0" encoding="utf-8"?>
<!--
  - This file is part of StyleBI.
  -
  - Copyright (c) 2024, InetSoft Technology Corp, All Rights Reserved.
  -
  - The software and information contained herein are copyrighted and
  - proprietary to InetSoft Technology Corp. This software is furnished
  - pursuant to a written license agreement and may be used, copied,
  - transmitted, and stored only in accordance with the terms of such
  - license and with the inclusion of the above copyright notice. Please
  - refer to the file "COPYRIGHT" for further copyright and licensing
  - information. This software and information or any other copies
  - thereof may not be provided or otherwise made available to any other
  - person.
  -->

<!-- Generator: Adobe Illustrator 15.1.0, SVG Export Plug-In . SVG Version: 6.00 Build 0)  -->
<!DOCTYPE svg PUBLIC "-//W3C//DTD SVG 1.1//EN" "http://www.w3.org/Graphics/SVG/1.1/DTD/svg11.dtd">
<svg version="1.1" id="Layer_1" xmlns="http://www.w3.org/2000/svg" xmlns:xlink="http://www.w3.org/1999/xlink" x="0px" y="0px"
	 width="30px" height="30px" viewBox="0 0 30 30" enable-background="new 0 0 30 30" xml:space="preserve">
<g>
	<path fill="#FFFFFF" d="M9.563,4.277c0.175-0.028,0.364-0.031,0.528,0.047c0.242,0.097,0.414,0.33,0.473,0.58
		c0.02,0.178,0.015,0.367-0.07,0.529c-0.153,0.336-0.56,0.53-0.917,0.437C9.21,5.788,8.938,5.436,8.942,5.061
		C8.935,4.696,9.213,4.363,9.563,4.277"/>
	<path fill="#FFFFFF" d="M20.044,4.276c0.178-0.027,0.369-0.028,0.533,0.053c0.272,0.12,0.457,0.404,0.477,0.699
		c-0.001,0.227-0.076,0.463-0.244,0.623c-0.144,0.151-0.35,0.234-0.555,0.243c-0.317,0.004-0.639-0.186-0.764-0.482
		c-0.08-0.158-0.07-0.341-0.06-0.512C19.491,4.596,19.745,4.346,20.044,4.276"/>
	<path fill="#FFFFFF" d="M18.993,16.667c0.414-0.003,0.829-0.003,1.243,0c-0.005,1.647-0.001,3.295-0.002,4.943
		c-0.413,0-0.826,0-1.239,0C18.993,19.962,18.998,18.314,18.993,16.667"/>
	<path fill="#C7C7C7" d="M5.553,3.557c0.261-0.115,0.55-0.132,0.832-0.125c5.808,0,11.615,0,17.423,0
		c0.634-0.011,1.251,0.381,1.507,0.961c0.108,0.229,0.154,0.482,0.149,0.735c-0.002,0.565,0.006,1.129-0.003,1.694
		c-0.188-0.071-0.39-0.091-0.588-0.092c-6.572,0.001-13.143,0-19.714,0.001C4.95,6.736,4.737,6.745,4.541,6.822
		C4.533,6.235,4.537,5.649,4.535,5.063C4.531,4.416,4.952,3.795,5.553,3.557 M9.563,4.277c-0.35,0.086-0.628,0.419-0.621,0.784
		C8.938,5.436,9.21,5.788,9.577,5.87c0.357,0.093,0.764-0.101,0.917-0.437c0.084-0.163,0.09-0.351,0.07-0.529
		c-0.059-0.25-0.23-0.483-0.473-0.58C9.927,4.246,9.738,4.249,9.563,4.277 M20.044,4.276c-0.299,0.07-0.553,0.32-0.612,0.623
		c-0.011,0.171-0.021,0.354,0.06,0.512c0.125,0.297,0.446,0.487,0.764,0.482c0.205-0.009,0.411-0.092,0.555-0.243
		c0.168-0.159,0.243-0.396,0.244-0.623c-0.02-0.294-0.204-0.579-0.477-0.699C20.413,4.248,20.222,4.249,20.044,4.276"/>
	<path fill="#C7C7C7" d="M19.947,11.721c0.093-0.039,0.194-0.037,0.292-0.029c-0.006,1.653,0.001,3.307-0.003,4.96v0.015
		c-0.414-0.003-0.829-0.003-1.243,0v-0.015c-0.001-1.144-0.001-2.286,0-3.429c-0.826,0.275-1.651,0.554-2.479,0.828
		c-0.003-0.374,0.002-0.747-0.002-1.12C17.655,12.523,18.803,12.126,19.947,11.721"/>
	<path fill="#C7C7C7" d="M9.833,12.314c0.518-0.395,1.166-0.598,1.813-0.623c0.642-0.022,1.307,0.081,1.869,0.407
		c0.444,0.255,0.795,0.662,0.987,1.137c0.191,0.473,0.251,0.997,0.193,1.503c-0.124,0.812-0.75,1.466-1.482,1.79
		c0.104,0.031,0.207,0.071,0.304,0.12c-0.064,0.013-0.129,0.02-0.194,0.018c-0.864-0.006-1.727,0.006-2.589-0.006
		c-0.003-0.188-0.008-0.375,0.004-0.563c0.623-0.015,1.279,0.062,1.861-0.211c0.479-0.203,0.834-0.66,0.902-1.177
		c0.058-0.492,0.008-1.03-0.284-1.447c-0.229-0.33-0.618-0.512-1.007-0.57c-0.524-0.073-1.1-0.021-1.54,0.297
		c-0.434,0.305-0.663,0.843-0.652,1.365c-0.399,0.011-0.799,0.003-1.199,0.004c0.007-0.22,0.024-0.44,0.081-0.653
		C9.038,13.154,9.377,12.657,9.833,12.314"/>
	<path fill="#4483EF" d="M4.541,6.822C4.737,6.745,4.95,6.736,5.159,6.731c6.571,0,13.142,0,19.714-0.001
		c0.198,0.001,0.4,0.021,0.588,0.092c0.568,0.205,1.028,0.73,1.087,1.34c-0.115-0.418-0.365-0.806-0.737-1.036
		c-0.271-0.169-0.587-0.266-0.906-0.264C18.313,6.867,11.72,6.867,5.127,6.867C4.63,6.858,4.13,7.072,3.813,7.458
		C3.66,7.623,3.58,7.835,3.472,8.028C3.579,7.473,4.013,7.009,4.541,6.822"/>
	<path fill="#4483EF" d="M18.97,16.654l0.023-0.002v0.015c0.005,1.647,0,3.295,0.002,4.943c0.413,0,0.826,0,1.239,0
		c0.001-1.648-0.003-3.296,0.002-4.943v-0.015l0.02,0.001c0.183,0.021,0.367,0.009,0.55,0.011c1.553-0.001,3.106-0.003,4.659,0
		c0.18,2.597,0.348,5.194,0.525,7.791c0.018,0.297,0.055,0.603-0.027,0.893l-0.008,0.01c-0.075,0.086-0.119,0.192-0.174,0.292
		c-0.292,0.475-0.833,0.795-1.394,0.789c-6.195-0.003-12.39,0.003-18.584,0.001c-0.194,0-0.392,0.01-0.582-0.041
		c-0.428-0.117-0.816-0.397-1.032-0.789c-0.045-0.086-0.087-0.174-0.147-0.25l-0.007-0.011c-0.104-0.39-0.02-0.793-0.007-1.187
		c0.17-2.498,0.333-4.997,0.505-7.494c2.064-0.005,4.129-0.004,6.194-0.002c0.002,0.119,0.003,0.237,0.001,0.356
		c0.654,0.013,1.339-0.066,1.958,0.193c0.419,0.163,0.762,0.513,0.895,0.945c0.146,0.478,0.129,1.007-0.042,1.477
		c-0.16,0.439-0.542,0.779-0.989,0.911c-0.542,0.16-1.147,0.147-1.669-0.078c-0.407-0.173-0.739-0.523-0.865-0.951
		c-0.059-0.188-0.083-0.386-0.086-0.582c-0.396,0.003-0.792,0.002-1.187,0c0.008,0.501,0.129,1.009,0.408,1.429
		c0.298,0.46,0.76,0.796,1.266,0.992c0.642,0.251,1.351,0.307,2.029,0.202c0.66-0.104,1.306-0.399,1.754-0.905
		c0.412-0.457,0.625-1.068,0.652-1.678c0.038-0.582-0.096-1.192-0.465-1.655c-0.208-0.272-0.493-0.471-0.785-0.644
		c0.142-0.019,0.286-0.015,0.428-0.014c1.463-0.002,2.925,0,4.388-0.001C18.603,16.66,18.787,16.676,18.97,16.654"/>
	<path fill="#3664D0" d="M3.813,7.458C4.13,7.072,4.63,6.858,5.127,6.867c6.593,0,13.186,0,19.777-0.004
		c0.319-0.003,0.635,0.094,0.906,0.263c0.372,0.23,0.622,0.618,0.737,1.036c0.032,0.147,0.023,0.3,0.007,0.449
		c-0.357,2.683-0.729,5.364-1.082,8.046c-1.491-0.002-2.981,0.002-4.471,0c-0.249-0.001-0.498,0.01-0.746-0.004l-0.02-0.001
		c0.004-1.654-0.003-3.307,0.003-4.96c-0.098-0.008-0.199-0.01-0.292,0.029c-1.145,0.405-2.292,0.803-3.435,1.21
		c0.004,0.373-0.001,0.746,0.002,1.12c0.827-0.273,1.652-0.553,2.479-0.828c-0.001,1.143-0.001,2.286,0,3.429l-0.023,0.002
		c-1.731,0.013-3.464,0-5.196,0.007c-0.085-0.003-0.175,0.024-0.257-0.012c-0.098-0.049-0.2-0.089-0.304-0.12
		c0.731-0.324,1.358-0.979,1.482-1.79c0.058-0.506-0.002-1.03-0.193-1.503c-0.192-0.475-0.543-0.882-0.987-1.137
		c-0.562-0.326-1.227-0.43-1.869-0.407c-0.647,0.024-1.295,0.228-1.813,0.623c-0.456,0.342-0.794,0.84-0.932,1.394
		c-0.057,0.212-0.074,0.433-0.081,0.653c0.399-0.002,0.799,0.006,1.199-0.004c-0.011-0.522,0.218-1.06,0.652-1.365
		c0.44-0.318,1.016-0.371,1.54-0.297c0.389,0.058,0.778,0.24,1.007,0.57c0.292,0.417,0.342,0.955,0.284,1.447
		c-0.067,0.517-0.423,0.974-0.902,1.177c-0.583,0.272-1.239,0.196-1.861,0.211h-0.015c0.006,0.188-0.001,0.376,0.004,0.563
		c-2.066-0.004-4.132-0.004-6.198,0.001c-0.352-2.629-0.71-5.257-1.064-7.885C3.424,8.53,3.41,8.273,3.472,8.028
		C3.58,7.835,3.66,7.623,3.813,7.458"/>
	<path fill="#3664D0" d="M4.042,25.359c0.061,0.076,0.102,0.164,0.147,0.25c0.216,0.392,0.604,0.672,1.032,0.789
		c0.19,0.051,0.388,0.041,0.582,0.041c6.194,0.002,12.389-0.004,18.584-0.001c0.561,0.006,1.102-0.314,1.394-0.789
		c0.055-0.1,0.099-0.206,0.174-0.292c-0.136,0.529-0.562,0.969-1.083,1.132c-0.29,0.102-0.602,0.076-0.903,0.079
		c-6.033,0-12.067,0-18.101,0c-0.241,0.002-0.487,0.004-0.718-0.071C4.619,26.34,4.182,25.896,4.042,25.359"/>
</g>
<rect x="-10.6" y="-10.6" fill="none" width="51.2" height="51.2"/>
</svg>
