<?xml version="1.0" encoding="utf-8"?>
<!--
  - This file is part of StyleBI.
  - Copyright (C) 2024  InetSoft Technology
  -
  - This program is free software: you can redistribute it and/or modify
  - it under the terms of the GNU Affero General Public License as published by
  - the Free Software Foundation, either version 3 of the License, or
  - (at your option) any later version.
  -
  - This program is distributed in the hope that it will be useful,
  - but WITHOUT ANY WARRANTY; without even the implied warranty of
  - MERCHANTABILITY or FITNESS FOR A PARTICULAR PURPOSE.  See the
  - GNU Affero General Public License for more details.
  -
  - You should have received a copy of the GNU Affero General Public License
  - along with this program.  If not, see <https://www.gnu.org/licenses/>.
  -->

<!-- Generator: Adobe Illustrator 15.1.0, SVG Export Plug-In . SVG Version: 6.00 Build 0)  -->
<!DOCTYPE svg PUBLIC "-//W3C//DTD SVG 1.1//EN" "http://www.w3.org/Graphics/SVG/1.1/DTD/svg11.dtd">
<svg version="1.1"
	 id="svg8" xmlns:dc="http://purl.org/dc/elements/1.1/" xmlns:svg="http://www.w3.org/2000/svg" xmlns:rdf="http://www.w3.org/1999/02/22-rdf-syntax-ns#" xmlns:cc="http://creativecommons.org/ns#"
	 xmlns="http://www.w3.org/2000/svg" xmlns:xlink="http://www.w3.org/1999/xlink" x="0px" y="0px" width="30px" height="30px"
	 viewBox="198.333 198.333 30 30" enable-background="new 198.333 198.333 30 30" xml:space="preserve">
<g id="layer2" transform="translate(0,28.22222)">
	<path id="rect900" fill="#D4AE5E" d="M201.072,172.85v24.522h16.913l0.045-0.708c0.221-3.528,3.328-6.635,6.855-6.856l0.708-0.044
		V172.85H201.072z"/>
	<path id="path880" fill="#03363D" d="M218.03,196.664c0.221-3.528,3.328-6.635,6.855-6.856l0.709-0.044v3.805v3.804h-3.805h-3.805
		L218.03,196.664z M222.3,194.538c0-0.506-0.015-0.92-0.031-0.92c-0.034,0-1.359,1.59-1.452,1.743
		c-0.047,0.075,0.115,0.096,0.711,0.096h0.772V194.538z M224.026,195.247c-0.107-0.428-0.597-0.709-0.979-0.563
		c-0.272,0.104-0.518,0.386-0.518,0.597c0,0.173,0.017,0.177,0.775,0.177h0.774L224.026,195.247z M223.257,193.925
		c0.332-0.401,0.652-0.789,0.717-0.863c0.105-0.126,0.066-0.133-0.668-0.133h-0.777v0.935c0,0.514,0.029,0.902,0.063,0.861
		C222.627,194.685,222.927,194.325,223.257,193.925L223.257,193.925z M222.076,193.471c0.123-0.123,0.225-0.297,0.225-0.385
		c0-0.149-0.043-0.157-0.769-0.157c-0.724,0-0.766,0.008-0.766,0.157c0,0.088,0.102,0.262,0.224,0.385
		c0.178,0.175,0.294,0.224,0.542,0.224C221.784,193.694,221.899,193.645,222.076,193.471z M209.501,188.599l-2.643-2.644h2.663
		h2.663v2.644c0,1.454-0.009,2.645-0.02,2.645S210.955,190.053,209.501,188.599L209.501,188.599z"/>
	<path id="path898" fill="#FFFFFF" d="M207.597,178.963h12.161v12.191L207.597,178.963z"/>
</g>
</svg>
