<?xml version="1.0" encoding="utf-8"?>
<!--
  - This file is part of StyleBI.
  - Copyright (C) 2024  InetSoft Technology
  -
  - This program is free software: you can redistribute it and/or modify
  - it under the terms of the GNU Affero General Public License as published by
  - the Free Software Foundation, either version 3 of the License, or
  - (at your option) any later version.
  -
  - This program is distributed in the hope that it will be useful,
  - but WITHOUT ANY WARRANTY; without even the implied warranty of
  - MERCHANTABILITY or FITNESS FOR A PARTICULAR PURPOSE.  See the
  - GNU Affero General Public License for more details.
  -
  - You should have received a copy of the GNU Affero General Public License
  - along with this program.  If not, see <https://www.gnu.org/licenses/>.
  -->

<!-- Generator: Adobe Illustrator 13.0.0, SVG Export Plug-In . SVG Version: 6.00 Build 14948)  -->
<!DOCTYPE svg PUBLIC "-//W3C//DTD SVG 1.1//EN" "http://www.w3.org/Graphics/SVG/1.1/DTD/svg11.dtd">
<svg version="1.1" id="图层_1" xmlns="http://www.w3.org/2000/svg" xmlns:xlink="http://www.w3.org/1999/xlink" x="0px" y="0px"
	 width="200px" height="200px" viewBox="0 0 200 200" enable-background="new 0 0 200 200" xml:space="preserve">
<g>
	<linearGradient id="SVGID_1_" gradientUnits="userSpaceOnUse" x1="101.4521" y1="162.5742" x2="101.4521" y2="143.7705">
		<stop  offset="0" style="stop-color:#B8E5F4"/>
		<stop  offset="1" style="stop-color:#FFFFFF"/>
	</linearGradient>
	<path fill="url(#SVGID_1_)" d="M131.616,161.254c0,0.729-0.591,1.32-1.32,1.32H72.608c-0.729,0-1.32-0.592-1.32-1.32V145.09
		c0-0.729,0.591-1.319,1.32-1.319h57.688c0.729,0,1.32,0.591,1.32,1.319V161.254z"/>
	<path fill="#87B9CC" d="M130.58,160.322c0,0.658-0.571,1.193-1.275,1.193H73.6c-0.704,0-1.275-0.535-1.275-1.193V145.72
		c0-0.659,0.571-1.192,1.275-1.192h55.705c0.704,0,1.275,0.533,1.275,1.192V160.322z"/>
</g>
</svg>
