<?xml version="1.0" encoding="utf-8"?>
<!--
  - This file is part of StyleBI.
  - Copyright (C) 2024  InetSoft Technology
  -
  - This program is free software: you can redistribute it and/or modify
  - it under the terms of the GNU Affero General Public License as published by
  - the Free Software Foundation, either version 3 of the License, or
  - (at your option) any later version.
  -
  - This program is distributed in the hope that it will be useful,
  - but WITHOUT ANY WARRANTY; without even the implied warranty of
  - MERCHANTABILITY or FITNESS FOR A PARTICULAR PURPOSE.  See the
  - GNU Affero General Public License for more details.
  -
  - You should have received a copy of the GNU Affero General Public License
  - along with this program.  If not, see <https://www.gnu.org/licenses/>.
  -->

<!-- Generator: Adobe Illustrator 15.1.0, SVG Export Plug-In . SVG Version: 6.00 Build 0)  -->
<!DOCTYPE svg PUBLIC "-//W3C//DTD SVG 1.1//EN" "http://www.w3.org/Graphics/SVG/1.1/DTD/svg11.dtd">
<svg version="1.1" id="Layer_1" xmlns="http://www.w3.org/2000/svg" xmlns:xlink="http://www.w3.org/1999/xlink" x="0px" y="0px"
	 width="30px" height="30px" viewBox="0 0 30 30" enable-background="new 0 0 30 30" xml:space="preserve">
<g>
	<g>
		<path fill="#2990CF" d="M14.646,3.673c3.426-0.009,6.54,0.197,8.632,1.518c0.979,0.616,1.679,1.575,2.133,2.715
			c0.246,0.615,0.396,1.29,0.553,2.003c0.043,0.285,0.088,0.57,0.132,0.855c0.094,0.514,0.062,1.06,0.148,1.595l0.056,1.264
			l0.01,0.519v1.214l-0.006,0.508v0.292l-0.043,1.092l-0.023,0.48c-0.038,0.444-0.08,0.891-0.12,1.335
			c-0.058,0.374-0.114,0.747-0.171,1.122c-0.266,1.203-0.576,2.295-1.18,3.155c-0.784,1.119-1.859,1.85-3.307,2.308
			c-0.669,0.211-1.391,0.312-2.146,0.452l-1.008,0.11l-1.18,0.078l-0.397,0.015l-1.377,0.023h-0.706l-0.507-0.006l-1.014-0.027
			l-0.479-0.017l-1.411-0.109l-1.102-0.149l-0.882-0.178c-0.794-0.202-1.547-0.44-2.178-0.81c-1.41-0.831-2.212-1.977-2.745-3.687
			c-0.195-0.632-0.282-1.313-0.414-2.021c-0.085-0.462-0.066-0.95-0.143-1.43l-0.034-0.534L3.711,16.57l-0.022-1.137v-1.232
			c0.013-0.401,0.025-0.805,0.039-1.208l0.017-0.447l0.104-1.313l0.149-1.104c0.236-1.09,0.44-2.118,0.926-2.953
			c0.978-1.68,2.214-2.475,4.327-3.012c0.458-0.117,0.943-0.169,1.433-0.26l0.655-0.077l1.207-0.094l0.447-0.022l0.628-0.022
			L14.646,3.673z"/>
	</g>
	<path fill="#FFFFFF" d="M21.976,20.135c0,0-1.422-4.285-6.002-3.983c-0.392,0.037,0.467,2.449-1.287,1.947
		c-0.87-0.476-5.917-3.218-5.917-3.218s-1.181-0.652,0-1.326c1.18-0.673,5.964-3.267,5.964-3.267s0.879-0.435,1.136,0.615
		c0,0.287,0,1.278,0,1.278s3.262,0.728,4.641,2.462C22.423,17.054,21.976,20.135,21.976,20.135z"/>
</g>
</svg>
