<?xml version="1.0" encoding="utf-8"?>
<!--
  - This file is part of StyleBI.
  -
  - Copyright (c) 2024, InetSoft Technology Corp, All Rights Reserved.
  -
  - The software and information contained herein are copyrighted and
  - proprietary to InetSoft Technology Corp. This software is furnished
  - pursuant to a written license agreement and may be used, copied,
  - transmitted, and stored only in accordance with the terms of such
  - license and with the inclusion of the above copyright notice. Please
  - refer to the file "COPYRIGHT" for further copyright and licensing
  - information. This software and information or any other copies
  - thereof may not be provided or otherwise made available to any other
  - person.
  -->

<!-- Generator: Adobe Illustrator 13.0.1, SVG Export Plug-In . SVG Version: 6.00 Build 14948)  -->
<!DOCTYPE svg PUBLIC "-//W3C//DTD SVG 1.0//EN" "http://www.w3.org/TR/2001/REC-SVG-20010904/DTD/svg10.dtd">
<svg version="1.0" xmlns="http://www.w3.org/2000/svg" xmlns:xlink="http://www.w3.org/1999/xlink" x="0px" y="0px" width="200px"
	 height="131.453px" viewBox="0 0 200 131.453" enable-background="new 0 0 200 131.453" xml:space="preserve">
<g id="图层_1">
	<g id="Layer_2">
	</g>
	<g id="Layer_6">
	</g>
	<g id="Layer_1">
	</g>
	<g id="Layer_5">
	</g>
	<g id="Layer_4">
	</g>
	<g id="Layer_3">
		<rect fill="#FFFFFF" fill-opacity="0" width="200" height="131.453"/>
		<g>
			<path fill="#FFFFFF" d="M169.689,31.451C146.361,9.288,120.286,3.832,100,3.832c-20.473,0-46.361,5.456-69.689,27.619
				C11.558,49.268,3.928,74.084,3.833,90.408c-0.015,2.611,0.162,5.007,0.518,7.119c0.267,1.586,0.633,3.014,1.095,4.258
				c4.246,11.447,16.169,10.908,24.785,9.068c0.892-0.188,1.748-0.393,2.556-0.599h45.149c1.96,9.886,11.09,17.365,22.064,17.365
				c10.975,0,20.104-7.479,22.064-17.365h45.148c0.807,0.206,1.664,0.409,2.555,0.599c8.617,1.84,20.541,2.379,24.785-9.068
				c0.461-1.244,0.83-2.672,1.096-4.258c0.355-2.112,0.533-4.508,0.519-7.119C196.07,74.084,188.441,49.268,169.689,31.451z"/>
			<path d="M170.262,30.848C150.813,12.37,127.174,3,100,3s-50.813,9.37-70.263,27.848C10.152,49.457,3.094,74.561,3.001,90.402
				c-0.016,2.644,0.163,5.086,0.529,7.265c0.275,1.636,0.658,3.117,1.136,4.407c3.441,9.277,12.101,12.506,25.738,9.594
				c0.838-0.178,1.709-0.383,2.589-0.605l-0.206,0.024h45.149l-0.815-0.67c2.071,10.451,11.694,18.035,22.88,18.035
				c11.187,0,20.81-7.584,22.88-18.035l-0.814,0.67h45.148l-0.207-0.026c0.879,0.226,1.748,0.43,2.59,0.607
				c13.637,2.912,22.297-0.316,25.738-9.594c0.479-1.297,0.861-2.777,1.135-4.408c0.365-2.178,0.545-4.62,0.529-7.264
				C196.907,74.561,189.848,49.458,170.262,30.848z M195.334,90.413c0.014,2.547-0.156,4.896-0.506,6.979
				c-0.256,1.525-0.611,2.906-1.055,4.104c-3.109,8.383-11.127,11.257-23.832,8.545c-0.818-0.174-1.668-0.373-2.521-0.591
				l-0.102-0.026h-0.105h-45.148h-0.685l-0.133,0.67c-1.918,9.674-10.854,16.695-21.248,16.695c-10.394,0-19.33-7.021-21.248-16.695
				l-0.133-0.67h-0.684H32.786h-0.104l-0.101,0.026c-0.858,0.219-1.708,0.417-2.523,0.591c-12.705,2.712-20.723-0.162-23.833-8.546
				c-0.442-1.19-0.796-2.572-1.055-4.104c-0.351-2.082-0.521-4.431-0.506-6.978c0.098-16.741,8.244-41.28,26.22-58.358
				C50.014,13.879,73.268,4.664,100,4.664c26.732,0,49.986,9.215,69.116,27.39C187.092,49.133,195.236,73.671,195.334,90.413z"/>
		</g>
		<g display="none">
			<path display="inline" fill="#B2B2B2" d="M34.625,93.945c3.651-32.918,31.56-58.521,65.451-58.521
				c33.895,0,61.802,25.603,65.453,58.521h8.496c-3.686-37.594-35.385-66.969-73.949-66.969c-38.563,0-70.262,29.375-73.948,66.969
				H34.625z"/>
			<path display="inline" fill="#B2B2B2" d="M36.613,94.167c3.588-32.349,30.872-56.742,63.463-56.742
				c32.593,0,59.877,24.394,63.466,56.742l0.197,1.778h1.79h8.496h2.207l-0.217-2.194c-3.844-39.208-36.49-68.775-75.939-68.775
				c-39.447,0-72.094,29.567-75.938,68.775l-0.215,2.194h2.206h8.497h1.791L36.613,94.167z M28.118,94.141
				c3.643-37.15,34.578-65.166,71.958-65.166c37.381,0,68.316,28.015,71.959,65.166l1.99-2.195h-8.496l1.988,1.779
				c-3.814-34.376-32.809-60.301-67.442-60.301c-34.633,0-63.626,25.924-67.439,60.301l1.988-1.779h-8.497L28.118,94.141z"/>
		</g>
		<g display="none">
			<path display="inline" fill="#B2B2B2" stroke="#B2B2B2" stroke-width="4" d="M34.339,94.012
				C37.99,61.092,65.898,35.49,99.791,35.49c33.893,0,61.801,25.604,65.452,58.522h8.498c-3.688-37.596-35.388-66.971-73.95-66.971
				c-38.563,0-70.263,29.375-73.949,66.971H34.339z"/>
			<circle display="inline" fill="#B2B2B2" cx="29.894" cy="96.062" r="6.243"/>
			<circle display="inline" fill="#B2B2B2" cx="169.895" cy="96.062" r="6.243"/>
		</g>
	</g>
	<path fill="#B2B2B2" d="M175.272,89.436c-5.632-36.507-37.186-64.459-75.271-64.459c-38.165,0-69.771,28.07-75.306,64.688
		l0.022,0.002c-0.03,0.239-0.052,0.481-0.052,0.729c0,3.13,2.537,5.667,5.666,5.667c3.026,0,5.491-2.373,5.651-5.359l0.075,0.007
		C41.156,59.989,67.835,36.56,100,36.56c32.112,0,58.755,23.353,63.914,53.998l0.021-0.002c0.171,2.976,2.632,5.338,5.649,5.338
		c3.13,0,5.667-2.537,5.667-5.667c0-0.267-0.024-0.526-0.061-0.783L175.272,89.436z"/>
</g>
<g id="图层_2" display="none">
	<g display="inline">
		<line fill="none" stroke="#000000" x1="100.179" y1="100.291" x2="279.476" y2="84.389"/>
		<line fill="none" stroke="#000000" x1="100.179" y1="100.291" x2="-79.155" y2="84.816"/>
	</g>
</g>
</svg>
