<?xml version="1.0" encoding="utf-8"?>
<!--
  - This file is part of StyleBI.
  -
  - Copyright (c) 2024, InetSoft Technology Corp, All Rights Reserved.
  -
  - The software and information contained herein are copyrighted and
  - proprietary to InetSoft Technology Corp. This software is furnished
  - pursuant to a written license agreement and may be used, copied,
  - transmitted, and stored only in accordance with the terms of such
  - license and with the inclusion of the above copyright notice. Please
  - refer to the file "COPYRIGHT" for further copyright and licensing
  - information. This software and information or any other copies
  - thereof may not be provided or otherwise made available to any other
  - person.
  -->

<!-- Generator: Adobe Illustrator 15.1.0, SVG Export Plug-In . SVG Version: 6.00 Build 0)  -->
<!DOCTYPE svg PUBLIC "-//W3C//DTD SVG 1.1//EN" "http://www.w3.org/Graphics/SVG/1.1/DTD/svg11.dtd">
<svg version="1.1" id="Layer_1" xmlns="http://www.w3.org/2000/svg" xmlns:xlink="http://www.w3.org/1999/xlink" x="0px" y="0px"
	 width="40px" height="30px" viewBox="286 381 40 30" enable-background="new 286 381 40 30" xml:space="preserve">
<g>
	<path d="M299.822,387.938h-3.474v2.551c1.158,0.073,2.331,0.132,3.474,0.191V387.938z"/>
	<path d="M323.303,393.098c0-0.719-0.103-1.496-0.351-2.229c-0.206-0.63-0.529-1.246-0.999-1.744
		c-0.395-0.455-0.907-0.85-1.523-1.084c-0.571-0.234-1.246-0.366-2.007-0.366c-1.643,0-2.932,0.63-3.856,1.598
		c-0.365,0.381-0.658,0.821-0.909,1.29c1.451-0.102,2.902-0.22,4.368-0.38c1.202,0.014,2.303,0.336,2.346,1.729
		c-2.316,0.235-4.764,0.396-7.327,0.469c-0.06,0.353-0.104,0.719-0.104,1.085c-0.015,1.538,0.514,3.063,1.612,4.162
		c0.939,0.967,2.331,1.613,4.164,1.655c0.775,0.03,1.553-0.042,2.271-0.161c0.778-0.132,1.481-0.351,2.008-0.571v-0.043
		l-1.759-2.287c-0.336,0.102-0.688,0.175-1.054,0.205c-0.367,0.043-0.763,0.058-1.115,0.058c-0.41,0-0.806-0.043-1.158-0.161
		c-0.337-0.102-0.644-0.264-0.894-0.469c-0.177-0.146-0.321-0.323-0.44-0.513c-0.132-0.191-0.204-0.411-0.264-0.66l-0.015-0.073
		l6.935-0.47C323.287,393.89,323.303,393.376,323.303,393.098L323.303,393.098z"/>
	<path d="M290.353,399.649c0,0.498-0.175,0.909-0.468,1.216c-0.293,0.308-0.704,0.528-1.188,0.602l1.261,2.858
		c1.246-0.278,2.228-0.762,2.872-1.45c0.674-0.69,1.012-1.57,1.012-2.624v-8.883c-1.217-0.161-2.39-0.337-3.489-0.542V399.649z"/>
	<path d="M306.051,390.796l-0.308-0.967l-0.615-1.919h-3.767l1.07,2.843c0.835,0.015,1.671,0.043,2.506,0.043H306.051z"/>
	<path d="M293.842,387.938h-3.489v2.082c1.173,0.102,2.331,0.205,3.489,0.293V387.938z"/>
	<path d="M296.348,399.195h3.474v-7.183c-1.188-0.087-2.345-0.205-3.474-0.322V399.195L296.348,399.195z"/>
	<path d="M313.057,387.924h-3.707c-0.309,0.981-0.602,1.934-0.895,2.857c-0.177,0.542-0.338,1.071-0.513,1.598
		c-0.221,0.704-0.454,1.393-0.689,2.097h-0.03c-0.042-0.162-0.102-0.338-0.146-0.499c-0.043-0.176-0.102-0.352-0.16-0.512
		l-0.352-1.114c-0.513-0.015-1.041-0.03-1.554-0.059c-0.688-0.03-1.363-0.059-2.052-0.103l2.61,7.006h3.166l2.608-6.786l0.661-1.729
		L313.057,387.924z"/>
</g>
</svg>
