<?xml version="1.0" encoding="utf-8"?>
<!--
  - This file is part of StyleBI.
  -
  - Copyright (c) 2024, InetSoft Technology Corp, All Rights Reserved.
  -
  - The software and information contained herein are copyrighted and
  - proprietary to InetSoft Technology Corp. This software is furnished
  - pursuant to a written license agreement and may be used, copied,
  - transmitted, and stored only in accordance with the terms of such
  - license and with the inclusion of the above copyright notice. Please
  - refer to the file "COPYRIGHT" for further copyright and licensing
  - information. This software and information or any other copies
  - thereof may not be provided or otherwise made available to any other
  - person.
  -->

<!-- Generator: Adobe Illustrator 13.0.0, SVG Export Plug-In . SVG Version: 6.00 Build 14948)  -->
<!DOCTYPE svg PUBLIC "-//W3C//DTD SVG 1.1//EN" "http://www.w3.org/Graphics/SVG/1.1/DTD/svg11.dtd">
<svg version="1.1" id="图层_1" xmlns="http://www.w3.org/2000/svg" xmlns:xlink="http://www.w3.org/1999/xlink" x="0px" y="0px"
	 width="201px" height="201px" viewBox="0 0 201 201" enable-background="new 0 0 201 201" xml:space="preserve">
<linearGradient id="SVGID_1_" gradientUnits="userSpaceOnUse" x1="98.4497" y1="162.7637" x2="98.4497" y2="138.9238">
	<stop  offset="0" style="stop-color:#FFFFFF"/>
	<stop  offset="0.1672" style="stop-color:#D2D2D4"/>
	<stop  offset="0.3604" style="stop-color:#A4A5A9"/>
	<stop  offset="0.5459" style="stop-color:#808287"/>
	<stop  offset="0.7192" style="stop-color:#67696F"/>
	<stop  offset="0.8755" style="stop-color:#575960"/>
	<stop  offset="1" style="stop-color:#52545B"/>
</linearGradient>
<path fill="url(#SVGID_1_)" d="M126.953,161.425c0,0.738-0.6,1.339-1.339,1.339H71.286c-0.74,0-1.339-0.601-1.339-1.339v-21.162
	c0-0.739,0.6-1.339,1.339-1.339h54.329c0.739,0,1.339,0.6,1.339,1.339V161.425z"/>
<linearGradient id="SVGID_2_" gradientUnits="userSpaceOnUse" x1="98.6069" y1="140.4814" x2="98.6069" y2="161.2061">
	<stop  offset="0" style="stop-color:#FFFFFF"/>
	<stop  offset="0.3118" style="stop-color:#F2F2F2"/>
	<stop  offset="0.884" style="stop-color:#D1D1D1"/>
	<stop  offset="1" style="stop-color:#C9C9C9"/>
</linearGradient>
<path fill="url(#SVGID_2_)" d="M126.058,160.042c0,0.644-0.577,1.164-1.29,1.164H72.446c-0.712,0-1.29-0.521-1.29-1.164v-18.396
	c0-0.644,0.578-1.164,1.29-1.164h52.321c0.713,0,1.29,0.521,1.29,1.164V160.042z"/>
</svg>
