<?xml version="1.0" encoding="utf-8"?>
<!--
  - This file is part of StyleBI.
  - Copyright (C) 2024  InetSoft Technology
  -
  - This program is free software: you can redistribute it and/or modify
  - it under the terms of the GNU Affero General Public License as published by
  - the Free Software Foundation, either version 3 of the License, or
  - (at your option) any later version.
  -
  - This program is distributed in the hope that it will be useful,
  - but WITHOUT ANY WARRANTY; without even the implied warranty of
  - MERCHANTABILITY or FITNESS FOR A PARTICULAR PURPOSE.  See the
  - GNU Affero General Public License for more details.
  -
  - You should have received a copy of the GNU Affero General Public License
  - along with this program.  If not, see <https://www.gnu.org/licenses/>.
  -->

<!-- Generator: Adobe Illustrator 13.0.0, SVG Export Plug-In . SVG Version: 6.00 Build 14948)  -->
<!DOCTYPE svg PUBLIC "-//W3C//DTD SVG 1.1//EN" "http://www.w3.org/Graphics/SVG/1.1/DTD/svg11.dtd">
<svg version="1.1" id="图层_1" xmlns="http://www.w3.org/2000/svg" xmlns:xlink="http://www.w3.org/1999/xlink" x="0px" y="0px"
	 width="200px" height="123.566px" viewBox="0 39.211 200 123.566" enable-background="new 0 39.211 200 123.566"
	 xml:space="preserve">
<linearGradient id="SVGID_1_" gradientUnits="userSpaceOnUse" x1="-214.3999" y1="61.0459" x2="-14.3999" y2="61.0459" gradientTransform="matrix(1 0 0 -1 214.3999 162.04)">
	<stop  offset="0" style="stop-color:#FFFFFF"/>
	<stop  offset="0.0836" style="stop-color:#D2D2D4"/>
	<stop  offset="0.1802" style="stop-color:#A4A5A9"/>
	<stop  offset="0.273" style="stop-color:#808287"/>
	<stop  offset="0.3596" style="stop-color:#67696F"/>
	<stop  offset="0.4377" style="stop-color:#575960"/>
	<stop  offset="0.5" style="stop-color:#52545B"/>
	<stop  offset="0.5573" style="stop-color:#595B62"/>
	<stop  offset="0.6405" style="stop-color:#6C6E74"/>
	<stop  offset="0.7397" style="stop-color:#8C8E92"/>
	<stop  offset="0.8511" style="stop-color:#B8B9BC"/>
	<stop  offset="0.9713" style="stop-color:#F1F1F1"/>
	<stop  offset="1" style="stop-color:#FFFFFF"/>
</linearGradient>
<path fill="url(#SVGID_1_)" d="M200,139.211c0,14.389-44.771,23.566-100,23.566c-55.229,0-100-5.778-100-23.566
	c0-55.229,44.772-100,100-100C155.229,39.211,200,83.982,200,139.211z"/>
<linearGradient id="SVGID_2_" gradientUnits="userSpaceOnUse" x1="-115.1118" y1="0.9941" x2="-115.1118" y2="115.3755" gradientTransform="matrix(1 0 0 -1 214.3999 162.04)">
	<stop  offset="0" style="stop-color:#FFFFFF"/>
	<stop  offset="0.0836" style="stop-color:#D2D2D4"/>
	<stop  offset="0.1802" style="stop-color:#A4A5A9"/>
	<stop  offset="0.273" style="stop-color:#808287"/>
	<stop  offset="0.3596" style="stop-color:#67696F"/>
	<stop  offset="0.4377" style="stop-color:#575960"/>
	<stop  offset="0.5" style="stop-color:#52545B"/>
	<stop  offset="0.5573" style="stop-color:#595B62"/>
	<stop  offset="0.6405" style="stop-color:#6C6E74"/>
	<stop  offset="0.7397" style="stop-color:#8C8E92"/>
	<stop  offset="0.8511" style="stop-color:#B8B9BC"/>
	<stop  offset="0.9713" style="stop-color:#F1F1F1"/>
	<stop  offset="1" style="stop-color:#FFFFFF"/>
</linearGradient>
<path fill="url(#SVGID_2_)" d="M191.855,139.232c0,10.936-16.715,4.763-55.004,7.162c-8.351,0.523-18.822,14.651-37.563,14.651
	c-19.691,0-25.03-13.999-32.729-14.31c-39.412-1.592-59.839,6.27-59.839-7.504c0-51.125,41.445-92.567,92.568-92.567
	C150.412,46.666,191.855,88.109,191.855,139.232z"/>
<linearGradient id="SVGID_3_" gradientUnits="userSpaceOnUse" x1="-115.1123" y1="2.9717" x2="-115.1123" y2="113.394" gradientTransform="matrix(1 0 0 -1 214.3999 162.04)">
	<stop  offset="0" style="stop-color:#FFFFFF"/>
	<stop  offset="0.1559" style="stop-color:#F2F2F2"/>
	<stop  offset="0.442" style="stop-color:#D1D1D1"/>
	<stop  offset="0.5" style="stop-color:#C9C9C9"/>
	<stop  offset="0.6028" style="stop-color:#D7D7D7"/>
	<stop  offset="0.8557" style="stop-color:#F4F4F4"/>
	<stop  offset="1" style="stop-color:#FFFFFF"/>
</linearGradient>
<path fill="url(#SVGID_3_)" d="M188.652,138.009c0,10.556-16.137,4.597-53.102,6.914c-8.063,0.507-18.17,14.146-36.263,14.146
	c-19.01,0-24.164-13.514-31.597-13.814c-38.047-1.537-57.768,6.053-57.768-7.244c0-49.354,40.011-89.364,89.365-89.364
	C148.645,48.645,188.652,88.654,188.652,138.009z"/>
<g opacity="0.7">
	<g>
		
			<linearGradient id="SVGID_4_" gradientUnits="userSpaceOnUse" x1="-114.4287" y1="-31.8755" x2="-114.4287" y2="97.9438" gradientTransform="matrix(1 0 0 -1 214.3999 162.04)">
			<stop  offset="0" style="stop-color:#FFFFFF"/>
			<stop  offset="0.0392" style="stop-color:#F1F1F1"/>
			<stop  offset="0.2623" style="stop-color:#A3A3A3"/>
			<stop  offset="0.4214" style="stop-color:#737373"/>
			<stop  offset="0.5" style="stop-color:#606060"/>
			<stop  offset="1" style="stop-color:#FFFFFF"/>
		</linearGradient>
		<path fill="url(#SVGID_4_)" d="M164.654,123.592c-0.002-0.029-0.006-0.059-0.008-0.088c0-0.044,0.006-0.086,0.006-0.129
			c0-0.473-0.053-0.934-0.149-1.377c-3.135-32.484-30.801-57.901-64.509-57.901c-33.658,0-61.289,25.337-64.496,57.749
			c-0.132,0.52-0.21,1.06-0.21,1.618c0,3.604,2.923,6.526,6.526,6.526c3.605,0,6.527-2.922,6.527-6.526
			c0-0.069-0.008-0.137-0.01-0.206c2.493-26.026,24.661-46.393,51.663-46.393c27.117,0,49.365,20.54,51.699,46.727h0.052
			c0.114,3.467,2.954,6.244,6.448,6.244s6.334-2.777,6.449-6.244H164.654L164.654,123.592z"/>
	</g>
</g>
<linearGradient id="SVGID_5_" gradientUnits="userSpaceOnUse" x1="20.6279" y1="616.8574" x2="31.6094" y2="616.8574" gradientTransform="matrix(1.354584e-004 1 1 -1.354584e-004 -481.4928 94.0162)">
	<stop  offset="0" style="stop-color:#FFFFFF"/>
	<stop  offset="0.0964" style="stop-color:#FFDBDB"/>
	<stop  offset="0.2863" style="stop-color:#FF9999"/>
	<stop  offset="0.4672" style="stop-color:#FF6363"/>
	<stop  offset="0.6339" style="stop-color:#FF3838"/>
	<stop  offset="0.7835" style="stop-color:#FF1919"/>
	<stop  offset="0.9105" style="stop-color:#FF0707"/>
	<stop  offset="1" style="stop-color:#FF0000"/>
</linearGradient>
<polygon fill="url(#SVGID_5_)" stroke="#8E8E8E" points="94.46,125.548 94.459,114.566 176.277,120.225 "/>
<circle fill="#636363" cx="101.118" cy="120.329" r="17.16"/>
<linearGradient id="SVGID_6_" gradientUnits="userSpaceOnUse" x1="-126.7544" y1="55.1851" x2="-102.4865" y2="30.9172" gradientTransform="matrix(1 0 0 -1 214.3999 162.04)">
	<stop  offset="0" style="stop-color:#FFFFFF"/>
	<stop  offset="0.0836" style="stop-color:#D2D2D4"/>
	<stop  offset="0.1802" style="stop-color:#A4A5A9"/>
	<stop  offset="0.273" style="stop-color:#808287"/>
	<stop  offset="0.3596" style="stop-color:#67696F"/>
	<stop  offset="0.4377" style="stop-color:#575960"/>
	<stop  offset="0.5" style="stop-color:#52545B"/>
	<stop  offset="0.5573" style="stop-color:#595B62"/>
	<stop  offset="0.6405" style="stop-color:#6C6E74"/>
	<stop  offset="0.7397" style="stop-color:#8C8E92"/>
	<stop  offset="0.8511" style="stop-color:#B8B9BC"/>
	<stop  offset="0.9713" style="stop-color:#F1F1F1"/>
	<stop  offset="1" style="stop-color:#FFFFFF"/>
</linearGradient>
<circle fill="url(#SVGID_6_)" cx="99.779" cy="118.989" r="17.16"/>
</svg>
