<?xml version="1.0" encoding="utf-8"?>
<!--
  - This file is part of StyleBI.
  -
  - Copyright (c) 2024, InetSoft Technology Corp, All Rights Reserved.
  -
  - The software and information contained herein are copyrighted and
  - proprietary to InetSoft Technology Corp. This software is furnished
  - pursuant to a written license agreement and may be used, copied,
  - transmitted, and stored only in accordance with the terms of such
  - license and with the inclusion of the above copyright notice. Please
  - refer to the file "COPYRIGHT" for further copyright and licensing
  - information. This software and information or any other copies
  - thereof may not be provided or otherwise made available to any other
  - person.
  -->

<!-- Generator: Adobe Illustrator 15.1.0, SVG Export Plug-In . SVG Version: 6.00 Build 0)  -->
<!DOCTYPE svg PUBLIC "-//W3C//DTD SVG 1.1//EN" "http://www.w3.org/Graphics/SVG/1.1/DTD/svg11.dtd">
<svg version="1.1"
	 id="svg855" xmlns:dc="http://purl.org/dc/elements/1.1/" xmlns:inkscape="http://www.inkscape.org/namespaces/inkscape" xmlns:svg="http://www.w3.org/2000/svg" xmlns:sodipodi="http://sodipodi.sourceforge.net/DTD/sodipodi-0.dtd" xmlns:cc="http://creativecommons.org/ns#" xmlns:rdf="http://www.w3.org/1999/02/22-rdf-syntax-ns#" sodipodi:docname="mondaycom logo.svg" inkscape:version="0.92.4 (5da689c313, 2019-01-14)"
	 xmlns="http://www.w3.org/2000/svg" xmlns:xlink="http://www.w3.org/1999/xlink" x="0px" y="0px" width="40px" height="30px"
	 viewBox="213.504 27.5 40 30" enable-background="new 213.504 27.5 40 30" xml:space="preserve">
<sodipodi:namedview  id="namedview857" inkscape:window-maximized="1" objecttolerance="10" showguides="true" pagecolor="#ffffff" borderopacity="1" showgrid="false" bordercolor="#666666" gridtolerance="10" inkscape:cy="49.124021" guidetolerance="10" inkscape:cx="152.96218" inkscape:zoom="2.742126" inkscape:current-layer="svg855" inkscape:window-y="176" inkscape:window-x="-8" inkscape:guide-bbox="true" inkscape:window-height="1017" inkscape:window-width="1920" inkscape:pageshadow="2" inkscape:pageopacity="0">
	</sodipodi:namedview>
<title  id="title839">Logo / monday.com</title>
<g id="g847" transform="translate(0,5.552)">
	<path id="path841" inkscape:connector-curvature="0" fill="#F62B54" d="M221.81,46.235c-1.401,0.004-2.696-0.748-3.388-1.966
		c-0.683-1.21-0.642-2.699,0.106-3.87l6.977-10.957c0.727-1.199,2.043-1.914,3.444-1.872c1.4,0.034,2.674,0.819,3.333,2.055
		c0.651,1.23,0.569,2.71-0.209,3.864l-6.973,10.957C224.382,45.567,223.141,46.241,221.81,46.235z"/>
	<path id="path843" inkscape:connector-curvature="0" fill="#FFCC00" d="M233.778,46.235c-1.408,0-2.703-0.752-3.383-1.961
		c-0.681-1.208-0.64-2.692,0.106-3.86l6.965-10.932c0.716-1.216,2.035-1.948,3.446-1.912c1.42,0.031,2.706,0.825,3.356,2.067
		c0.646,1.242,0.551,2.73-0.252,3.882l-6.962,10.932C236.339,45.566,235.104,46.239,233.778,46.235z"/>
	<ellipse id="ellipse845" fill="#00CA72" cx="245.479" cy="42.81" rx="3.592" ry="3.517"/>
</g>
</svg>
