<?xml version="1.0" encoding="utf-8"?>
<!--
  - This file is part of StyleBI.
  - Copyright (C) 2024  InetSoft Technology
  -
  - This program is free software: you can redistribute it and/or modify
  - it under the terms of the GNU Affero General Public License as published by
  - the Free Software Foundation, either version 3 of the License, or
  - (at your option) any later version.
  -
  - This program is distributed in the hope that it will be useful,
  - but WITHOUT ANY WARRANTY; without even the implied warranty of
  - MERCHANTABILITY or FITNESS FOR A PARTICULAR PURPOSE.  See the
  - GNU Affero General Public License for more details.
  -
  - You should have received a copy of the GNU Affero General Public License
  - along with this program.  If not, see <https://www.gnu.org/licenses/>.
  -->

<!-- Generator: Adobe Illustrator 13.0.0, SVG Export Plug-In . SVG Version: 6.00 Build 14948)  -->
<!DOCTYPE svg PUBLIC "-//W3C//DTD SVG 1.1//EN" "http://www.w3.org/Graphics/SVG/1.1/DTD/svg11.dtd">
<svg version="1.1" id="图层_1" xmlns="http://www.w3.org/2000/svg" xmlns:xlink="http://www.w3.org/1999/xlink" x="0px" y="0px"
	 width="200px" height="200px" viewBox="0 0 200 200" enable-background="new 0 0 200 200" xml:space="preserve">
<linearGradient id="SVGID_1_" gradientUnits="userSpaceOnUse" x1="100.3887" y1="138.1563" x2="100.3887" y2="161.9971">
	<stop  offset="0" style="stop-color:#212121"/>
	<stop  offset="0.4746" style="stop-color:#2F2F2F"/>
	<stop  offset="1" style="stop-color:#3A3A3A"/>
</linearGradient>
<path fill="url(#SVGID_1_)" d="M128.893,160.657c0,0.739-0.601,1.34-1.34,1.34H73.225c-0.74,0-1.339-0.601-1.339-1.34v-21.161
	c0-0.739,0.6-1.34,1.339-1.34h54.328c0.739,0,1.34,0.601,1.34,1.34V160.657z"/>
<linearGradient id="SVGID_2_" gradientUnits="userSpaceOnUse" x1="100.5454" y1="160.4395" x2="100.5454" y2="139.7139">
	<stop  offset="0" style="stop-color:#212121"/>
	<stop  offset="0.4746" style="stop-color:#2F2F2F"/>
	<stop  offset="1" style="stop-color:#3A3A3A"/>
</linearGradient>
<path fill="url(#SVGID_2_)" d="M127.996,159.275c0,0.644-0.577,1.164-1.289,1.164H74.385c-0.712,0-1.29-0.521-1.29-1.164v-18.397
	c0-0.644,0.578-1.164,1.29-1.164h52.322c0.712,0,1.289,0.521,1.289,1.164V159.275z"/>
</svg>
