<?xml version="1.0" encoding="utf-8"?>
<!--
  - This file is part of StyleBI.
  - Copyright (C) 2024  InetSoft Technology
  -
  - This program is free software: you can redistribute it and/or modify
  - it under the terms of the GNU Affero General Public License as published by
  - the Free Software Foundation, either version 3 of the License, or
  - (at your option) any later version.
  -
  - This program is distributed in the hope that it will be useful,
  - but WITHOUT ANY WARRANTY; without even the implied warranty of
  - MERCHANTABILITY or FITNESS FOR A PARTICULAR PURPOSE.  See the
  - GNU Affero General Public License for more details.
  -
  - You should have received a copy of the GNU Affero General Public License
  - along with this program.  If not, see <https://www.gnu.org/licenses/>.
  -->

<!-- Generator: Adobe Illustrator 13.0.0, SVG Export Plug-In . SVG Version: 6.00 Build 14948)  -->
<!DOCTYPE svg PUBLIC "-//W3C//DTD SVG 1.1//EN" "http://www.w3.org/Graphics/SVG/1.1/DTD/svg11.dtd">
<svg version="1.1" id="图层_1" xmlns="http://www.w3.org/2000/svg" xmlns:xlink="http://www.w3.org/1999/xlink" x="0px" y="0px"
	 width="200px" height="200px" viewBox="0 0 200 200" enable-background="new 0 0 200 200" xml:space="preserve">
<g>
	<linearGradient id="SVGID_1_" gradientUnits="userSpaceOnUse" x1="29.29" y1="29.29" x2="170.7121" y2="170.7121">
		<stop  offset="0" style="stop-color:#BCBCBC"/>
		<stop  offset="0.0663" style="stop-color:#ADADAD"/>
		<stop  offset="0.283" style="stop-color:#7F7F7F"/>
		<stop  offset="0.4909" style="stop-color:#5B5B5B"/>
		<stop  offset="0.6851" style="stop-color:#424242"/>
		<stop  offset="0.8603" style="stop-color:#323232"/>
		<stop  offset="1" style="stop-color:#2D2D2D"/>
	</linearGradient>
	<circle fill="url(#SVGID_1_)" cx="100" cy="100" r="100"/>
	<linearGradient id="SVGID_2_" gradientUnits="userSpaceOnUse" x1="166.292" y1="166.2925" x2="33.7081" y2="33.7086">
		<stop  offset="0" style="stop-color:#BCBCBC"/>
		<stop  offset="0.008" style="stop-color:#BABABA"/>
		<stop  offset="0.2003" style="stop-color:#828282"/>
		<stop  offset="0.3874" style="stop-color:#545454"/>
		<stop  offset="0.5652" style="stop-color:#313131"/>
		<stop  offset="0.7311" style="stop-color:#171717"/>
		<stop  offset="0.8808" style="stop-color:#070707"/>
		<stop  offset="1" style="stop-color:#020202"/>
	</linearGradient>
	<circle fill="url(#SVGID_2_)" cx="100" cy="100" r="93.75"/>
	<linearGradient id="SVGID_3_" gradientUnits="userSpaceOnUse" x1="8.8169" y1="100.0005" x2="191.1836" y2="100.0005">
		<stop  offset="0" style="stop-color:#3A3A3A"/>
		<stop  offset="0.2725" style="stop-color:#363636"/>
		<stop  offset="0.5356" style="stop-color:#2B2B2B"/>
		<stop  offset="0.7941" style="stop-color:#171717"/>
		<stop  offset="1" style="stop-color:#020202"/>
	</linearGradient>
	<circle fill="url(#SVGID_3_)" cx="100" cy="100" r="91.183"/>
	<linearGradient id="SVGID_4_" gradientUnits="userSpaceOnUse" x1="103.0479" y1="9.9219" x2="103.0478" y2="102.7803">
		<stop  offset="0" style="stop-color:#FFFFFF"/>
		<stop  offset="1" style="stop-color:#1E1E1E"/>
	</linearGradient>
	<ellipse opacity="0.3" fill="url(#SVGID_4_)" cx="103.048" cy="56.351" rx="58.929" ry="46.429"/>
	<linearGradient id="SVGID_5_" gradientUnits="userSpaceOnUse" x1="99.9995" y1="14.5166" x2="99.9995" y2="185.4844">
		<stop  offset="0" style="stop-color:#050505"/>
		<stop  offset="0.1318" style="stop-color:#090909"/>
		<stop  offset="0.2592" style="stop-color:#141414"/>
		<stop  offset="0.385" style="stop-color:#282828"/>
		<stop  offset="0.5096" style="stop-color:#434343"/>
		<stop  offset="0.6335" style="stop-color:#676767"/>
		<stop  offset="0.7569" style="stop-color:#929292"/>
		<stop  offset="0.8785" style="stop-color:#C4C4C4"/>
		<stop  offset="0.9983" style="stop-color:#FEFEFE"/>
		<stop  offset="1" style="stop-color:#FFFFFF"/>
	</linearGradient>
	<circle opacity="0.5" fill="url(#SVGID_5_)" cx="100" cy="100" r="85.484"/>
	<g opacity="0.5">
		<g>
			<path fill="none" stroke="#06FF00" stroke-linecap="round" d="M54.833,134.36c-7.326-9.979-11.667-22.388-11.667-35.835"/>
			<path fill="none" stroke="#06FF00" stroke-linecap="round" d="M43.167,98.525c0-32.966,26.092-59.691,58.278-59.691
				c32.188,0,58.279,26.725,58.279,59.691c0,13.33-4.266,25.639-11.476,35.571"/>
			<path fill="none" stroke="#06FF00" stroke-linecap="round" d="M159.724,98.525c0,13.33-4.266,25.639-11.476,35.571"/>
		</g>
		<g>
			<path fill="none" stroke="#07FA01" d="M54.441,134.664c-7.388-10.063-11.765-22.576-11.765-36.137"/>
			<path fill="none" stroke="#07FA01" d="M42.676,98.527c0-33.242,26.312-60.192,58.768-60.192c32.458,0,58.77,26.95,58.77,60.192
				c0,13.442-4.302,25.854-11.572,35.871"/>
			<path fill="none" stroke="#07FA01" d="M160.214,98.527c0,13.442-4.302,25.854-11.572,35.871"/>
		</g>
		<g>
			<path fill="none" stroke="#09F503" d="M54.05,134.967c-7.45-10.146-11.863-22.765-11.863-36.438"/>
			<path fill="none" stroke="#09F503" d="M42.187,98.53c0-33.521,26.531-60.695,59.258-60.695c32.729,0,59.259,27.174,59.259,60.695
				c0,13.554-4.337,26.069-11.668,36.169"/>
			<path fill="none" stroke="#09F503" d="M160.703,98.53c0,13.554-4.337,26.069-11.668,36.169"/>
		</g>
		<g>
			<path fill="none" stroke="#0AF104" d="M53.658,135.271c-7.511-10.23-11.961-22.953-11.961-36.739"/>
			<path fill="none" stroke="#0AF104" d="M41.697,98.532c0-33.797,26.75-61.196,59.748-61.196c32.999,0,59.749,27.399,59.749,61.196
				c0,13.666-4.373,26.285-11.765,36.469"/>
			<path fill="none" stroke="#0AF104" d="M161.193,98.532c0,13.666-4.373,26.285-11.765,36.469"/>
		</g>
		<g>
			<path fill="none" stroke="#0BEC06" d="M53.266,135.574c-7.573-10.313-12.06-23.141-12.06-37.04"/>
			<path fill="none" stroke="#0BEC06" d="M41.207,98.534c0-34.074,26.969-61.698,60.238-61.698
				c33.271,0,60.239,27.624,60.239,61.698c0,13.778-4.409,26.501-11.861,36.768"/>
			<path fill="none" stroke="#0BEC06" d="M161.684,98.534c0,13.778-4.409,26.501-11.861,36.768"/>
		</g>
		<g>
			<path fill="none" stroke="#0CE707" d="M52.874,135.877c-7.634-10.397-12.157-23.329-12.157-37.341"/>
			<path fill="none" stroke="#0CE707" d="M40.717,98.537c0-34.352,27.188-62.201,60.728-62.201
				c33.541,0,60.729,27.849,60.729,62.201c0,13.89-4.445,26.716-11.958,37.066"/>
			<path fill="none" stroke="#0CE707" d="M162.174,98.537c0,13.89-4.445,26.716-11.958,37.066"/>
		</g>
		<g>
			<path fill="none" stroke="#0EE208" d="M52.482,136.181c-7.696-10.481-12.255-23.517-12.255-37.643"/>
			<path fill="none" stroke="#0EE208" d="M40.227,98.539c0-34.629,27.408-62.702,61.218-62.702
				c33.812,0,61.219,28.073,61.219,62.702c0,14.003-4.48,26.933-12.054,37.366"/>
			<path fill="none" stroke="#0EE208" d="M162.663,98.539c0,14.003-4.48,26.933-12.054,37.366"/>
		</g>
		<g>
			<path fill="none" stroke="#0FDD0A" d="M52.09,136.485c-7.757-10.565-12.354-23.705-12.354-37.944"/>
			<path fill="none" stroke="#0FDD0A" d="M39.737,98.541c0-34.905,27.627-63.204,61.708-63.204
				c34.082,0,61.709,28.298,61.709,63.204c0,14.115-4.517,27.148-12.15,37.665"/>
			<path fill="none" stroke="#0FDD0A" d="M163.153,98.541c0,14.115-4.517,27.148-12.15,37.665"/>
		</g>
		<g>
			<path fill="none" stroke="#10D90B" d="M51.698,136.789c-7.819-10.649-12.452-23.894-12.452-38.245"/>
			<path fill="none" stroke="#10D90B" d="M39.247,98.543c0-35.184,27.847-63.706,62.198-63.706
				c34.353,0,62.199,28.522,62.199,63.706c0,14.227-4.553,27.363-12.247,37.964"/>
			<path fill="none" stroke="#10D90B" d="M163.644,98.543c0,14.227-4.553,27.363-12.247,37.964"/>
		</g>
		<g>
			<path fill="none" stroke="#11D40D" d="M51.306,137.092c-7.88-10.733-12.549-24.082-12.549-38.547"/>
			<path fill="none" stroke="#11D40D" d="M38.757,98.545c0-35.46,28.066-64.208,62.688-64.208c34.623,0,62.689,28.748,62.689,64.208
				c0,14.339-4.589,27.579-12.344,38.263"/>
			<path fill="none" stroke="#11D40D" d="M164.134,98.545c0,14.339-4.589,27.579-12.344,38.263"/>
		</g>
		<g>
			<path fill="none" stroke="#13CF0E" d="M50.915,137.396c-7.942-10.817-12.648-24.271-12.648-38.849"/>
			<path fill="none" stroke="#13CF0E" d="M38.267,98.547c0-35.737,28.286-64.709,63.178-64.709
				c34.894,0,63.179,28.972,63.179,64.709c0,14.451-4.624,27.795-12.439,38.563"/>
			<path fill="none" stroke="#13CF0E" d="M164.623,98.547c0,14.451-4.624,27.795-12.439,38.563"/>
		</g>
		<g>
			<path fill="none" stroke="#14CA10" d="M50.522,137.699c-8.003-10.901-12.746-24.458-12.746-39.148"/>
			<path fill="none" stroke="#14CA10" d="M37.777,98.55c0-36.015,28.505-65.211,63.667-65.211c35.165,0,63.669,29.197,63.669,65.211
				c0,14.563-4.66,28.01-12.537,38.861"/>
			<path fill="none" stroke="#14CA10" d="M165.113,98.55c0,14.563-4.66,28.01-12.537,38.861"/>
		</g>
		<g>
			<path fill="none" stroke="#15C511" d="M50.131,138.002c-8.065-10.985-12.844-24.646-12.844-39.45"/>
			<path fill="none" stroke="#15C511" d="M37.287,98.552c0-36.292,28.725-65.713,64.158-65.713
				c35.436,0,64.159,29.421,64.159,65.713c0,14.675-4.696,28.226-12.634,39.16"/>
			<path fill="none" stroke="#15C511" d="M165.604,98.552c0,14.675-4.696,28.226-12.634,39.16"/>
		</g>
		<g>
			<path fill="none" stroke="#16C112" d="M49.739,138.306c-8.127-11.069-12.942-24.835-12.942-39.752"/>
			<path fill="none" stroke="#16C112" d="M36.797,98.554c0-36.568,28.943-66.215,64.647-66.215
				c35.706,0,64.649,29.646,64.649,66.215c0,14.787-4.732,28.441-12.73,39.46"/>
			<path fill="none" stroke="#16C112" d="M166.094,98.554c0,14.787-4.732,28.441-12.73,39.46"/>
		</g>
		<g>
			<path fill="none" stroke="#18BC14" d="M49.347,138.61c-8.188-11.153-13.04-25.023-13.04-40.053"/>
			<path fill="none" stroke="#18BC14" d="M36.307,98.557c0-36.847,29.163-66.717,65.138-66.717
				c35.977,0,65.139,29.871,65.139,66.717c0,14.898-4.768,28.656-12.826,39.759"/>
			<path fill="none" stroke="#18BC14" d="M166.583,98.557c0,14.898-4.768,28.656-12.826,39.759"/>
		</g>
		<g>
			<path fill="none" stroke="#19B715" d="M48.955,138.914c-8.25-11.237-13.138-25.212-13.138-40.354"/>
			<path fill="none" stroke="#19B715" d="M35.817,98.559c0-37.123,29.382-67.219,65.627-67.219
				c36.247,0,65.629,30.096,65.629,67.219c0,15.011-4.804,28.872-12.923,40.058"/>
			<path fill="none" stroke="#19B715" d="M167.073,98.559c0,15.011-4.804,28.872-12.923,40.058"/>
		</g>
		<g>
			<path fill="none" stroke="#1AB217" d="M48.563,139.217c-8.312-11.321-13.236-25.399-13.236-40.656"/>
			<path fill="none" stroke="#1AB217" d="M35.327,98.561c0-37.4,29.602-67.72,66.118-67.72c36.518,0,66.119,30.32,66.119,67.72
				c0,15.124-4.84,29.089-13.02,40.357"/>
			<path fill="none" stroke="#1AB217" d="M167.563,98.561c0,15.124-4.84,29.089-13.02,40.357"/>
		</g>
		<g>
			<path fill="none" stroke="#1CAD18" d="M48.171,139.521c-8.374-11.405-13.334-25.588-13.334-40.957"/>
			<path fill="none" stroke="#1CAD18" d="M34.837,98.564c0-37.678,29.821-68.223,66.607-68.223
				c36.788,0,66.608,30.545,66.608,68.223c0,15.235-4.875,29.304-13.115,40.655"/>
			<path fill="none" stroke="#1CAD18" d="M168.053,98.564c0,15.235-4.875,29.304-13.115,40.655"/>
		</g>
		<g>
			<path fill="none" stroke="#1DA919" d="M47.779,139.824c-8.435-11.488-13.433-25.775-13.433-41.258"/>
			<path fill="none" stroke="#1DA919" d="M34.347,98.566c0-37.955,30.041-68.724,67.098-68.724c37.06,0,67.099,30.769,67.099,68.724
				c0,15.348-4.911,29.52-13.212,40.955"/>
			<path fill="none" stroke="#1DA919" d="M168.543,98.566c0,15.348-4.911,29.52-13.212,40.955"/>
		</g>
		<g>
			<path fill="none" stroke="#1EA41B" d="M47.387,140.127c-8.496-11.572-13.53-25.964-13.53-41.56"/>
			<path fill="none" stroke="#1EA41B" d="M33.857,98.568c0-38.231,30.26-69.226,67.587-69.226c37.33,0,67.589,30.994,67.589,69.226
				c0,15.46-4.947,29.735-13.309,41.255"/>
			<path fill="none" stroke="#1EA41B" d="M169.033,98.568c0,15.46-4.947,29.735-13.309,41.255"/>
		</g>
		<g>
			<path fill="none" stroke="#1F9F1C" d="M46.996,140.431c-8.558-11.656-13.629-26.152-13.629-41.86"/>
			<path fill="none" stroke="#1F9F1C" d="M33.367,98.571c0-38.51,30.479-69.728,68.078-69.728c37.601,0,68.079,31.218,68.079,69.728
				c0,15.571-4.983,29.95-13.405,41.553"/>
			<path fill="none" stroke="#1F9F1C" d="M169.523,98.571c0,15.571-4.983,29.95-13.405,41.553"/>
		</g>
		<g>
			<path fill="none" stroke="#219A1E" d="M46.604,140.735c-8.62-11.74-13.727-26.341-13.727-42.162"/>
			<path fill="none" stroke="#219A1E" d="M32.877,98.573c0-38.786,30.699-70.23,68.567-70.23c37.871,0,68.568,31.444,68.568,70.23
				c0,15.684-5.018,30.166-13.501,41.853"/>
			<path fill="none" stroke="#219A1E" d="M170.013,98.573c0,15.684-5.018,30.166-13.501,41.853"/>
		</g>
		<g>
			<path fill="none" stroke="#22951F" d="M46.212,141.039c-8.682-11.824-13.825-26.529-13.825-42.463"/>
			<path fill="none" stroke="#22951F" d="M32.387,98.576c0-39.064,30.918-70.732,69.058-70.732
				c38.142,0,69.059,31.668,69.059,70.732c0,15.795-5.054,30.381-13.598,42.15"/>
			<path fill="none" stroke="#22951F" d="M170.503,98.576c0,15.795-5.054,30.381-13.598,42.15"/>
		</g>
		<g>
			<path fill="none" stroke="#239021" d="M45.82,141.342c-8.743-11.908-13.923-26.718-13.923-42.765"/>
			<path fill="none" stroke="#239021" d="M31.897,98.578c0-39.341,31.138-71.234,69.547-71.234
				c38.412,0,69.549,31.893,69.549,71.234c0,15.907-5.09,30.597-13.694,42.45"/>
			<path fill="none" stroke="#239021" d="M170.993,98.578c0,15.907-5.09,30.597-13.694,42.45"/>
		</g>
		<g>
			<path fill="none" stroke="#248C22" d="M45.428,141.645c-8.804-11.991-14.021-26.905-14.021-43.065"/>
			<path fill="none" stroke="#248C22" d="M31.407,98.58c0-39.618,31.357-71.735,70.038-71.735c38.684,0,70.039,32.117,70.039,71.735
				c0,16.02-5.126,30.813-13.791,42.75"/>
			<path fill="none" stroke="#248C22" d="M171.483,98.58c0,16.02-5.126,30.813-13.791,42.75"/>
		</g>
		<g>
			<path fill="none" stroke="#268723" d="M45.036,141.949c-8.866-12.075-14.119-27.094-14.119-43.366"/>
			<path fill="none" stroke="#268723" d="M30.917,98.583c0-39.896,31.576-72.238,70.527-72.238
				c38.954,0,70.528,32.342,70.528,72.238c0,16.131-5.161,31.027-13.887,43.048"/>
			<path fill="none" stroke="#268723" d="M171.973,98.583c0,16.131-5.161,31.027-13.887,43.048"/>
		</g>
		<g>
			<path fill="none" stroke="#278225" d="M44.644,142.252c-8.928-12.159-14.217-27.281-14.217-43.668"/>
			<path fill="none" stroke="#278225" d="M30.427,98.584c0-40.173,31.796-72.739,71.018-72.739
				c39.225,0,71.019,32.566,71.019,72.739c0,16.244-5.197,31.244-13.983,43.348"/>
			<path fill="none" stroke="#278225" d="M172.463,98.584c0,16.244-5.197,31.244-13.983,43.348"/>
		</g>
		<g>
			<path fill="none" stroke="#287D26" d="M44.252,142.556c-8.989-12.243-14.315-27.47-14.315-43.97"/>
			<path fill="none" stroke="#287D26" d="M29.937,98.586c0-40.449,32.015-73.241,71.507-73.241
				c39.495,0,71.509,32.792,71.509,73.241c0,16.356-5.233,31.46-14.08,43.646"/>
			<path fill="none" stroke="#287D26" d="M172.953,98.586c0,16.356-5.233,31.46-14.08,43.646"/>
		</g>
		<g>
			<path fill="none" stroke="#2A7828" d="M43.86,142.86c-9.051-12.327-14.414-27.658-14.414-44.271"/>
			<path fill="none" stroke="#2A7828" d="M29.447,98.589c0-40.728,32.235-73.743,71.998-73.743
				c39.766,0,71.998,33.016,71.998,73.743c0,16.468-5.269,31.675-14.176,43.945"/>
			<path fill="none" stroke="#2A7828" d="M173.442,98.589c0,16.468-5.269,31.675-14.176,43.945"/>
		</g>
		<g>
			<path fill="none" stroke="#2B7429" d="M43.468,143.164c-9.112-12.411-14.511-27.847-14.511-44.572"/>
			<path fill="none" stroke="#2B7429" d="M28.957,98.591c0-41.004,32.454-74.245,72.487-74.245
				c40.036,0,72.488,33.241,72.488,74.245c0,16.58-5.305,31.891-14.272,44.245"/>
			<path fill="none" stroke="#2B7429" d="M173.933,98.591c0,16.58-5.305,31.891-14.272,44.245"/>
		</g>
		<g>
			<path fill="none" stroke="#2C6F2A" d="M43.077,143.467c-9.174-12.495-14.61-28.035-14.61-44.874"/>
			<path fill="none" stroke="#2C6F2A" d="M28.467,98.593c0-41.281,32.673-74.747,72.978-74.747
				c40.307,0,72.979,33.465,72.979,74.747c0,16.692-5.341,32.106-14.369,44.544"/>
			<path fill="none" stroke="#2C6F2A" d="M174.423,98.593c0,16.692-5.341,32.106-14.369,44.544"/>
		</g>
		<g>
			<path fill="none" stroke="#2D6A2C" d="M42.685,143.77c-9.235-12.579-14.708-28.223-14.708-45.174"/>
			<path fill="none" stroke="#2D6A2C" d="M27.977,98.596c0-41.559,32.893-75.249,73.467-75.249c40.578,0,73.469,33.69,73.469,75.249
				c0,16.804-5.377,32.321-14.467,44.843"/>
			<path fill="none" stroke="#2D6A2C" d="M174.913,98.596c0,16.804-5.377,32.321-14.467,44.843"/>
		</g>
		<g>
			<path fill="none" stroke="#2F652D" d="M42.292,144.074c-9.297-12.663-14.806-28.411-14.806-45.476"/>
			<path fill="none" stroke="#2F652D" d="M27.487,98.598c0-41.836,33.112-75.75,73.958-75.75c40.849,0,73.958,33.915,73.958,75.75
				c0,16.916-5.412,32.537-14.563,45.143"/>
			<path fill="none" stroke="#2F652D" d="M175.402,98.598c0,16.916-5.412,32.537-14.563,45.143"/>
		</g>
		<g>
			<path fill="none" stroke="#30602F" d="M41.901,144.377c-9.359-12.747-14.904-28.6-14.904-45.777"/>
			<path fill="none" stroke="#30602F" d="M26.997,98.6c0-42.112,33.332-76.252,74.447-76.252c41.119,0,74.448,34.14,74.448,76.252
				c0,17.028-5.448,32.753-14.659,45.441"/>
			<path fill="none" stroke="#30602F" d="M175.893,98.6c0,17.028-5.448,32.753-14.659,45.441"/>
		</g>
		<g>
			<path fill="none" stroke="#315C30" d="M41.509,144.681c-9.42-12.831-15.002-28.788-15.002-46.078"/>
			<path fill="none" stroke="#315C30" d="M26.507,98.603c0-42.391,33.551-76.754,74.938-76.754c41.39,0,74.938,34.364,74.938,76.754
				c0,17.14-5.484,32.968-14.756,45.74"/>
			<path fill="none" stroke="#315C30" d="M176.383,98.603c0,17.14-5.484,32.968-14.756,45.74"/>
		</g>
		<g>
			<path fill="none" stroke="#325732" d="M41.117,144.985c-9.482-12.915-15.1-28.977-15.1-46.38"/>
			<path fill="none" stroke="#325732" d="M26.017,98.605c0-42.667,33.77-77.256,75.427-77.256c41.66,0,75.429,34.589,75.429,77.256
				c0,17.252-5.521,33.184-14.853,46.039"/>
			<path fill="none" stroke="#325732" d="M176.873,98.605c0,17.252-5.521,33.184-14.853,46.039"/>
		</g>
		<g>
			<path fill="none" stroke="#345233" d="M40.725,145.289c-9.543-12.999-15.198-29.164-15.198-46.682"/>
			<path fill="none" stroke="#345233" d="M25.527,98.607c0-42.944,33.99-77.757,75.917-77.757c41.931,0,75.918,34.813,75.918,77.757
				c0,17.365-5.556,33.4-14.948,46.339"/>
			<path fill="none" stroke="#345233" d="M177.362,98.607c0,17.365-5.556,33.4-14.948,46.339"/>
		</g>
		<g>
			<path fill="none" stroke="#354D34" d="M40.333,145.592c-9.605-13.083-15.296-29.353-15.296-46.982"/>
			<path fill="none" stroke="#354D34" d="M25.037,98.61c0-43.222,34.209-78.26,76.407-78.26c42.201,0,76.408,35.039,76.408,78.26
				c0,17.477-5.592,33.615-15.045,46.638"/>
			<path fill="none" stroke="#354D34" d="M177.853,98.61c0,17.477-5.592,33.615-15.045,46.638"/>
		</g>
		<g>
			<path fill="none" stroke="#364836" d="M39.941,145.895c-9.667-13.166-15.395-29.54-15.395-47.283"/>
			<path fill="none" stroke="#364836" d="M24.547,98.612c0-43.499,34.429-78.762,76.897-78.762
				c42.473,0,76.898,35.263,76.898,78.762c0,17.589-5.628,33.831-15.142,46.937"/>
			<path fill="none" stroke="#364836" d="M178.343,98.612c0,17.589-5.628,33.831-15.142,46.937"/>
		</g>
		<g>
			<path fill="none" stroke="#374437" d="M39.549,146.199c-9.728-13.25-15.492-29.729-15.492-47.585"/>
			<path fill="none" stroke="#374437" d="M24.057,98.614c0-43.775,34.647-79.263,77.387-79.263
				c42.743,0,77.389,35.488,77.389,79.263c0,17.701-5.664,34.047-15.238,47.236"/>
			<path fill="none" stroke="#374437" d="M178.833,98.614c0,17.701-5.664,34.047-15.238,47.236"/>
		</g>
		<g>
			<path fill="none" stroke="#393F39" d="M39.158,146.502c-9.79-13.334-15.591-29.917-15.591-47.886"/>
			<path fill="none" stroke="#393F39" d="M23.567,98.617c0-44.054,34.867-79.766,77.877-79.766
				c43.014,0,77.878,35.712,77.878,79.766c0,17.813-5.699,34.262-15.334,47.534"/>
			<path fill="none" stroke="#393F39" d="M179.322,98.617c0,17.813-5.699,34.262-15.334,47.534"/>
		</g>
		<g>
			<path fill="none" stroke="#3A3A3A" d="M38.766,146.806c-9.852-13.418-15.688-30.105-15.688-48.188"/>
			<path fill="none" stroke="#3A3A3A" d="M23.077,98.619c0-44.33,35.086-80.267,78.367-80.267c43.284,0,78.368,35.937,78.368,80.267
				c0,17.925-5.735,34.478-15.431,47.834"/>
			<path fill="none" stroke="#3A3A3A" d="M179.813,98.619c0,17.925-5.735,34.478-15.431,47.834"/>
		</g>
	</g>
</g>
</svg>
