<?xml version="1.0" encoding="utf-8"?>
<!--
  - This file is part of StyleBI.
  -
  - Copyright (c) 2024, InetSoft Technology Corp, All Rights Reserved.
  -
  - The software and information contained herein are copyrighted and
  - proprietary to InetSoft Technology Corp. This software is furnished
  - pursuant to a written license agreement and may be used, copied,
  - transmitted, and stored only in accordance with the terms of such
  - license and with the inclusion of the above copyright notice. Please
  - refer to the file "COPYRIGHT" for further copyright and licensing
  - information. This software and information or any other copies
  - thereof may not be provided or otherwise made available to any other
  - person.
  -->

<!-- Generator: Adobe Illustrator 15.1.0, SVG Export Plug-In . SVG Version: 6.00 Build 0)  -->
<!DOCTYPE svg PUBLIC "-//W3C//DTD SVG 1.1//EN" "http://www.w3.org/Graphics/SVG/1.1/DTD/svg11.dtd">
<svg version="1.1" id="Ebene_1" xmlns="http://www.w3.org/2000/svg" xmlns:xlink="http://www.w3.org/1999/xlink" x="0px" y="0px"
	 width="30px" height="30px" viewBox="35 35 30 30" enable-background="new 35 35 30 30" xml:space="preserve">
<g>
	<path fill="#1A70B7" d="M60.474,47.604c-0.213,0-0.266-0.053-0.346-0.212c-0.637-1.433-1.645-2.521-3.104-3.21
		c-0.238-0.106-0.265-0.239-0.265-0.478c0.026-1.008-0.398-1.804-1.3-2.282c-0.771-0.424-1.805-0.292-2.521,0.265
		c-0.16,0.132-0.239,0.265-0.239,0.478c0.026,0.451,0,0.929,0,1.38c0,0,0,0-0.026,0c0,0.451,0,0.875,0,1.327
		c0,0.318,0.105,0.531,0.345,0.689c0.929,0.637,2.043,0.584,2.892-0.186c0.133-0.132,0.239-0.159,0.425-0.08
		c1.194,0.557,2.017,1.459,2.573,2.626c0.08,0.186,0.054,0.319-0.079,0.504c-0.77,0.982-0.77,2.176,0,3.157
		c0.105,0.159,0.159,0.266,0.079,0.425c-0.504,1.141-1.3,2.016-2.414,2.6c-0.266,0.133-0.425,0.133-0.663-0.08
		c-0.849-0.742-2.097-0.716-2.945,0c-0.133,0.133-0.212,0.239-0.212,0.451c0,0.876,0.026,1.778,0,2.653
		c-0.026,0.451,0.186,0.69,0.53,0.876c0.796,0.451,1.619,0.451,2.414-0.027c0.823-0.504,1.169-1.299,1.115-2.255
		c0-0.186,0-0.292,0.186-0.371c1.459-0.69,2.521-1.777,3.157-3.264c0.079-0.159,0.133-0.212,0.292-0.186
		c1.406,0.106,2.573-0.955,2.573-2.335C63.047,48.612,61.906,47.498,60.474,47.604z"/>
	<path fill="#1A70B7" d="M51.372,37.893c0-0.079-0.053-0.079-0.132-0.079c-0.054,0-0.106,0-0.186,0
		c-1.353,0.239-2.707,0.478-4.06,0.743c-2.414,0.425-4.802,0.849-7.216,1.273c-0.876,0.159-1.751,0.318-2.627,0.504
		c-0.132,0.053-0.08,0.186-0.08,0.265c0,6.235,0,12.471,0,18.705c0,0.106-0.08,0.266,0.08,0.345
		c1.193,0.213,2.415,0.451,3.608,0.663c2.574,0.451,5.147,0.929,7.721,1.38c0.849,0.159,1.671,0.292,2.52,0.425
		c0.346,0.186,0.346-0.026,0.346-0.292c0-7.88,0-15.76,0-23.667C51.372,38.079,51.372,37.999,51.372,37.893z M46.12,52.963
		c-0.266,1.433-1.3,2.229-2.759,2.149c-0.663-0.027-1.3-0.133-1.884-0.505c-0.186-0.106-0.265-0.212-0.239-0.45
		c0.026-0.584,0-1.142,0-1.805c0.478,0.478,0.929,0.822,1.512,0.955c0.398,0.08,0.796,0.133,1.141-0.08
		c0.504-0.318,0.583-1.061,0.159-1.592c-0.292-0.371-0.716-0.61-1.114-0.875c-0.583-0.345-1.061-0.77-1.38-1.354
		c-0.901-1.645-0.265-4.51,2.601-4.537c0.478,0,0.981,0.027,1.433,0.186c0.133,0.053,0.212,0.08,0.212,0.239c0,0.61,0,1.22,0,1.91
		c-0.478-0.372-0.955-0.557-1.485-0.61c-0.61-0.054-1.115,0.159-1.327,0.61c-0.212,0.478-0.053,1.062,0.398,1.459
		c0.372,0.319,0.823,0.558,1.247,0.823C45.881,50.363,46.385,51.504,46.12,52.963z"/>
</g>
</svg>
