<!--
  - This file is part of StyleBI.
  -
  - Copyright (c) 2024, InetSoft Technology Corp, All Rights Reserved.
  -
  - The software and information contained herein are copyrighted and
  - proprietary to InetSoft Technology Corp. This software is furnished
  - pursuant to a written license agreement and may be used, copied,
  - transmitted, and stored only in accordance with the terms of such
  - license and with the inclusion of the above copyright notice. Please
  - refer to the file "COPYRIGHT" for further copyright and licensing
  - information. This software and information or any other copies
  - thereof may not be provided or otherwise made available to any other
  - person.
  -->

<svg xmlns="http://www.w3.org/2000/svg" width="30" height="30" viewBox="291 381 30 30"><circle fill="#aed5e7" cx="306" cy="396" r="11.781"/><path fill="#f3d2aa" d="M305.942 403.896a.71.71 0 0 0-.257-.158v-2.23h-.317v2.08c-.287-.158-.664-.1-.92.168-.307.308-.05 1.218-.04 1.07 0-.09.138-.208.317-.326.01.316.108.614.108.514.01-.276 1.396-.83 1.11-1.118z"/><path fill="#628fc2" d="M306 403.857c-.07-.06-.218-.12-.237-.148-.02-.05 0-.16 0-.218v-1.98c0-.04-.03-.05-.07-.05h-.317c-.03 0-.08.03-.08.06v2.078c.04-.02.07-.04.11-.05-.396-.188-1-.05-1.138.407-.06.197-.05.424-.02.623.01.068.02.287.11.316.04.01.09 0 .108-.04.08-.14.168-.23.297-.317l-.12-.03c.01.108 0 .534.14.573.04.01.1 0 .108-.05.06-.307 1.426-.802 1.11-1.168-.04-.05-.178.01-.128.06.16.18-.495.535-.614.614-.178.118-.465.268-.515.495.04-.02.07-.04.11-.05-.05-.01-.07-.475-.07-.484 0-.06-.08-.06-.12-.03-.158.12-.247.21-.336.366.04-.01.07-.03.11-.04.01 0-.03-.17-.04-.208a1.64 1.64 0 0 1-.029-.436c.04-.475.534-.713.96-.506.04.02.11-.01.11-.05v-2.078l-.08.06h.317c-.02-.02-.04-.03-.07-.05v2.227c0 .02.01.04.03.05a1.21 1.21 0 0 1 .248.149c.06.03.18-.04.12-.1z"/><path fill="#f3d2aa" d="M306.1 403.947a.68.68 0 0 1 .257-.159v-2.228h.317v2.078c.287-.158.663-.1.92.17.307.307.05 1.218.04 1.07 0-.09-.14-.207-.316-.327-.01.317-.108.614-.108.515 0-.276-1.397-.83-1.1-1.117z"/><path fill="#628fc2" d="M306.17 403.957c.06-.06.138-.1.228-.14.02-.01.04-.02.04-.04v-2.228a.48.48 0 0 1-.099.049c.07 0 .257-.04.307 0-.06-.04-.03.07-.03.11v1.96c0 .04.1 0 .108 0 .446-.217.92.1.96.565a1.68 1.68 0 0 1-.03.446c-.01.05-.068.217-.03.207h.1c-.09-.148-.17-.238-.326-.356-.03-.02-.13-.01-.14.04l-.04.346c-.02.07-.08.168 0 .148.03 0 .05.01.078.01-.06-.295-1.348-.87-1.13-1.116.05-.05-.09-.04-.12-.01-.287.335 1.05.84 1.11 1.156.01.03.07.012.08.012.178-.05.158-.436.168-.575-.05.01-.09.02-.14.04.148.11.228.188.317.336.02.03.068.01.1 0 .09-.03.1-.188.118-.277.04-.207.06-.455-.01-.662-.148-.466-.762-.545-1.148-.357h.108v-2.078c0-.02-.03-.02-.04-.02h-.316c-.03 0-.1.02-.1.05v2.228l.04-.04c-.11.04-.198.1-.287.178-.05.06.09.05.12.02z"/><path fill="#78a5d0" d="M313.297 394.8c-.227-.455-.703-.713-1.158-.634-.118.02-.227.06-.336.12l-.12-3.93c0-.495-.197-.95-.535-1.277-.06-.06-.118-.108-.178-.158-.01-.03-.02-.07-.04-.1-.197-.535-.02-1-.207-1.228-.258 0-1.13.14-1.575.356-.277.138-.494.297-.644.445l-1.534-.1a7.23 7.23 0 0 1-1.01-.336c-.713-.297-1.257-.664-1.633-.95l1.337 1.168-.684-.247c-.712-.297-1.257-.664-1.633-.95l1.515 1.327-1.09.07a2.77 2.77 0 0 0-.713-.515c-.445-.217-1.317-.346-1.574-.356-.188.23-.01.693-.208 1.228-.01.02-.02.05-.03.07-.128.08-.247.17-.356.277-.515.515-.525 1.148-.535 1.277l-.188 3.93c-.1-.06-.208-.1-.327-.12-.455-.08-.94.18-1.158.634a6.02 6.02 0 0 0-.307 2.684c.14 1.247.634 2.148.93 2.594.317-.604.654-1.357.93-2.26l.13 1.813a1.77 1.77 0 0 0 .535 1.276c.515.514 1.148.524 1.277.534 1.238.13 2.614.208 4.1.198l3.604-.198c.495 0 .95-.197 1.276-.534.516-.515.525-1.148.535-1.276l.08-1.783c.277.882.604 1.634.92 2.23a6.16 6.16 0 0 0 .932-2.594c.116-1.208-.15-2.178-.33-2.683z"/><path fill="#628fc2" d="M313.446 394.907c-.317-.604-1.14-1.07-1.792-.723l.297.208-.1-3.317c-.02-.485 0-.98-.217-1.416-.09-.188-.22-.355-.366-.505-.198-.188-.258-.386-.277-.653-.03-.317.06-.673-.218-.88-.07-.05-.14-.12-.218-.13-.14-.02-.327.03-.465.06-.378.06-.772.138-1.12.317-.188.09-.355.207-.515.346-.108.09-.157.07-.307.06l-.445-.03c-.297-.02-.624 0-.91-.05-.257-.05-.524-.148-.77-.248-.544-.208-1.09-.475-1.555-.832-.09-.07-.198-.13-.287-.208l1.1.96c.06.05.17.118.208.178 0 .01.03.02.03.03 0-.01-.396-.128-.416-.138-.564-.208-1.13-.485-1.604-.852l-.288-.208.97.852c.148.128.376.267.495.435.01.01.05.03.05.04 0 .02-.14.01-.18.01l-.9.06.297.208c-.297-.287-.673-.574-1.06-.742-.237-.11-.485-.168-.743-.218-.208-.04-.505-.14-.723-.11-.1.02-.12.07-.148.178-.03.128-.02.257-.02.386a1.77 1.77 0 0 1-.04.396c-.02.08-.03.188-.07.258-.05.1-.12.128-.208.198-.416.326-.653.812-.693 1.336l-.128 1.9-.04 1-.03.832v.188c.03.108 0 .13-.08.06-.07 0-.168-.06-.247-.08-.07-.01-.13-.02-.2-.01-.128 0-.257.03-.386.09-.267.11-.495.337-.594.594-.178.445-.267.96-.306 1.446-.12 1.327.217 2.672.94 3.8.02.03.297.198.297.208a13.46 13.46 0 0 0 .931-2.276l-.297-.21.138 2.07c.07.495.337.93.743 1.237.307.23.624.436 1.01.516.436.09.9.09 1.347.128 1.336.1 2.683.13 4.02.09l1.932-.108c.583-.05 1.217-.03 1.73-.366.456-.297.742-.792.802-1.327.07-.644.07-1.317.1-1.96l-.297-.208c.236.772.545 1.515.92 2.228.02.03.297.208.297.208.984-1.595 1.223-3.554.608-5.307-.03-.1-.268-.12-.297-.207.613 1.75.376 3.712-.624 5.275l.297.21a14.5 14.5 0 0 1-.92-2.228c-.02-.07-.298-.15-.298-.208l-.08 1.82c-.02.376-.14.752-.367 1.06a1.84 1.84 0 0 1-1.315.713l-1.713.138a35.07 35.07 0 0 1-3.851.029l-1.703-.108c-.366-.03-.753-.03-1.11-.138-.277-.09-.455-.22-.624-.455-.158-.22-.268-.477-.317-.744-.06-.335-.06-.682-.08-1.028l-.07-1.118c0-.05-.307-.17-.297-.21-.238.782-.555 1.544-.93 2.277l.297.208c-.812-1.267-1.138-2.822-.87-4.307.11-.634.258-1.366.96-1.574.16-.05.337-.06.495-.02.02 0 .268.11.278.11.03-.02.01-.366.01-.426l.05-1.465.158-2.277a1.81 1.81 0 0 1 .406-.91c.13-.16.297-.238.436-.376s.148-.446.16-.634c.01-.168-.01-.337.03-.496.04-.178.09-.188.248-.168.317.03.634.09.94.178.158.04.317.09.456.158.05.02.376.228.237.13-.128-.1.03.03.08.07.04.03.07.07.108.1.06.05.14.1.208.148.14.1.277.05.446.04.07 0 .732-.05.732-.04 0-.02-.08-.07-.09-.08l-.504-.445-.92-.802-.287-.208c.347.268.703.525 1.08.743a9.03 9.03 0 0 0 .98.475c.06.02.545.148.555.188 0-.01-.04-.03-.04-.04-.08-.09-.198-.168-.287-.248l-.446-.396-.564-.495-.287-.208c.93.723 2.07 1.456 3.267 1.515l.595.03c.178.01.405.08.574.05.12-.02.247-.168.346-.248.13-.09.268-.168.417-.228.455-.198 1-.306 1.494-.317l-.297-.207c.13.178.1.435.1.643.01.208.03.505.15.693.08.12.247.218.337.347.08.11.147.228.207.347a2.08 2.08 0 0 1 .159.782l.118 3.89c0 .02.287.218.297.208.23-.12.476-.168.723-.11.258.06.337.148.476.406.038.07.236.09.286.19z"/><path fill="#fff" d="M305.654 391.374c.456 1.228.733 3.742-1.158 4.9a3.56 3.56 0 0 1-4.911-1.158c-1.148-1.86.11-3.98 1.158-4.91.238-.218 1.564-1.386 3.02-.95 1.248.385 1.734 1.692 1.89 2.11z"/><path fill="#628fc2" d="M305.506 391.374c.416 1.118.504 2.485.01 3.583-.673 1.505-2.504 2.197-4.03 1.623a3.58 3.58 0 0 1-1.752-1.445c-.466-.752-.565-1.643-.347-2.495.327-1.277 1.248-2.436 2.406-3.07.485-.257 1.06-.456 1.613-.346.445.09.852.317 1.18.633.435.416.712.96.92 1.516.02.05.288-.01.288 0-.208-.555-.485-1.1-.92-1.525-.564-.544-1.316-.752-2.088-.684-1.446.13-2.683 1.288-3.317 2.525-.436.852-.633 1.84-.327 2.77.277.842.92 1.545 1.693 1.95 1.346.703 3.218.544 4.326-.535 1.178-1.14 1.178-3.07.644-4.515-.02-.04-.288.02-.298.012z"/><path fill="#fff" d="M306.506 391.522c-.455 1.227-.732 3.742 1.16 4.9 1.673 1.04 3.87.525 4.91-1.16 1.15-1.86-.108-3.98-1.158-4.9-.236-.218-1.563-1.386-3.02-.95-1.237.386-1.733 1.693-1.89 2.11z"/><path fill="#628fc2" d="M306.367 391.522c-.465 1.257-.524 2.85.228 4.01.88 1.356 2.763 1.772 4.238 1.268.78-.268 1.455-.803 1.89-1.505.524-.842.573-1.852.268-2.782-.456-1.356-1.556-2.604-2.93-3.06-.872-.288-1.852-.198-2.574.386-.545.426-.882 1.05-1.12 1.683-.01.03.258.08.287 0 .188-.495.426-.97.772-1.356.604-.673 1.475-.96 2.356-.684 1.267.396 2.297 1.525 2.79 2.723.328.792.427 1.673.14 2.484-.277.772-.872 1.436-1.595 1.822-1.406.762-3.275.416-4.207-.93-.802-1.158-.732-2.792-.268-4.06.02-.03-.246-.08-.276.001z"/><path fill="#fff" d="M306.01 396.84c-2.03 0-3.82 3.404-3.385 4.65 0 .01.01.03.02.04l3.476.138h.03l3.218-.17c.01-.02.02-.04.02-.06.443-1.247-1.35-4.613-3.38-4.602z"/><path fill="#628fc2" d="M306.06 396.81c-.85.01-1.584.515-2.138 1.13-.624.682-1.12 1.554-1.336 2.465-.09.365-.148.782 0 1.14l.01.01a38.55 38.55 0 0 0 6.752-.029c.02 0 .09-.012.1-.04.158-.404.09-.87-.03-1.286-.16-.554-.417-1.09-.732-1.575-.587-.882-1.488-1.803-2.626-1.812-.03 0-.158.05-.09.05 1.148.02 2.07 1 2.644 1.9.286.455.524.95.662 1.475.1.406.19.872.03 1.267l.1-.04-3.247.16c-.555.01-1.12 0-1.674-.02l-.742-.04c-.287-.02-.594-.01-.87-.06-.188-.04-.198-.1-.218-.276-.02-.128-.02-.258-.01-.396.02-.297.1-.595.198-.882.228-.663.584-1.286 1.02-1.83.515-.633 1.247-1.267 2.108-1.276.02.02.158-.03.09-.03z"/><g opacity=".3"><ellipse fill="#edf3fb" cx="302.804" cy="393.126" rx=".94" ry="1.584"/><g opacity=".8"><path fill="#f0f3fa" d="M303.585 393.85l.02-.04c-.01 0-.02-.01-.03-.02 0-.05-.04.1-.12.258.01.01.06-.03.13-.198z"/><path fill="#edeff5" d="M303.932 393.195c0-.02-.01-.05-.01-.07 0 .03 0 .05.01.07z"/><path d="M303.744 393.363l-.02.14c-.01.04-.01.08-.01.12.02-.04.04-.08.06-.1.02-.03.04-.07.06-.12v-.138c-.01.02-.01.02-.01.06v-.1c-.01.01-.01.05-.02.1s-.01.108-.02.148c0-.06 0-.138-.01-.197-.01.02-.01.03-.02.05 0 .02-.01.05-.01.07v-.02zm-.604.9c.01 0 .01-.01.02-.01.01-.03.03-.05.04-.08l-.03.03-.03.02c-.01.01-.02.03-.02.05h-.01s0-.01.01-.02h0c-.01.01-.02.01-.03.02h.02l-.04.04c-.01.01-.02.02-.02.03-.01-.02.04-.05.1-.08z" fill="#f0f3fa"/><path fill="#eef0f9" d="M302.665 394.383c0 .01-.01.03-.02.04.02 0 .04.02.06.03s.04.02.06.02c-.03.03.03.08.13.08s.218-.05.268-.07c.06-.02.14-.08.208-.15s.128-.158.178-.228c.01-.03-.01-.03.02-.1a.39.39 0 0 0-.059.128c0 .01-.01.02-.01.03 0-.01.01-.02.01-.03.01-.04.03-.07.05-.108-.01.01-.01.02-.02.02 0-.01 0-.02.01-.03l-.13.158c-.04.04-.08.05-.1.04l-.03.03c-.11.12-.16.13-.17.11-.06.06-.138.1-.188.108-.08.01-.148-.01-.188-.05h-.06c-.01-.03-.02-.03-.02-.03z"/><path fill="#c3cee4" d="M303.784 393.126c.02-.01.04-.04.06-.1.01-.03.02-.06.02-.09.01-.03.01-.07.02-.11.01-.168 0-.386-.08-.594-.08-.218-.178-.436-.366-.634-.09-.09-.198-.178-.347-.238-.138-.06-.296-.08-.455-.05.02 0 .04.01.04.02s0 .02-.02.03-.04.03-.08.05l-.06.03c-.02.01-.05.03-.07.04-.02.02-.05.04-.09.06-.03.02-.06.04-.09.07-.03.02-.05.05-.07.06-.02.02-.04.04-.04.05-.07.11-.1.188-.13.267l-.1.307c.03-.04.05-.04.08-.09a2.71 2.71 0 0 1 .337-.485c.02-.02.07-.05.09-.06.03 0 .03.01-.03.06.08-.06.15-.09.218-.13l.1-.03.05-.01h.06c.03 0 .05 0 .07.01s.04.01.05.01c.02 0 .03.01.04.01.01.01.02.01.03.02.03.02.03.03.03.04-.01.02-.05.03-.01.08.01.02.03.04.05.06.11.06.208.14.288.247a1.75 1.75 0 0 1 .218.347c.03.06.03.158.05.218l.09.366c.017.11.027.19.047.17z"/><g fill="#cad5e9"><path d="M301.645 392.967c0-.08-.01-.168.01-.268-.04.14-.06.277-.08.416l.03.11a.5.5 0 0 1 .04-.257z"/><path d="M302.823 391.7c.01-.02 0-.03-.03-.04-.02 0-.03-.01-.05-.01-.01 0-.02 0-.03-.01h-.03c-.158.07-.247.14-.346.198a.43.43 0 0 1-.069.089c0-.01-.06.03-.03-.02l-.05.08c-.01.01-.02.02-.02.04-.01.01-.01.02-.01.03-.06.09.02-.09-.03-.03l-.168.426a.55.55 0 0 1-.059.089c-.02.01-.03 0-.03-.03-.01-.03 0-.07 0-.108v-.12c-.01-.07.08-.258.168-.376-.04.02-.148.217-.108.1.02-.06.05-.11.07-.168a.3.3 0 0 1 .04-.08c.01-.02.03-.05.03-.07a1.71 1.71 0 0 0-.248.455l-.108.366-.06.178c-.01.1-.01.188-.01.268a1.25 1.25 0 0 0-.049.257l.03.1c.02.05.02-.02.03-.12v-.07c0-.03.01-.05.01-.07.01-.05.01-.09.02-.108 0 .198.03.307.06.356s.06.03.08-.04c.01-.05.03-.09.04-.148l.04-.188c.01-.04.01-.09.02-.14s.01-.1.02-.148v.108c.05-.178.1-.237.168-.465.01.01.02-.01 0 .05.01-.06.03-.07.04-.08s.03-.02.04-.08c.02-.02.05-.02.07-.03s.05-.04.09-.1c.01-.01.01-.02.02-.03l.02-.02c.01-.01.02-.02.03-.04.06-.09.13-.178.238-.218.08-.03.158-.04.237-.03-.01 0-.02-.01-.03-.01l-.04.003z"/></g><path fill="#c6d2e6" d="M303.03 391.73c-.04-.04 0-.06.01-.08.01-.01 0-.02-.03-.04-.01 0-.02-.01-.03-.02s-.02-.01-.04-.01-.03-.01-.05-.01-.04 0-.07-.01h-.06l-.05.01-.1.03a1 1 0 0 0-.218.128c.06-.05.06-.06.03-.06-.02 0-.07.03-.09.06-.15.188-.248.347-.337.485-.03.05-.05.05-.08.09l.1-.307c.03-.08.06-.158.128-.267 0-.01.02-.03.04-.05s.04-.04.07-.06.06-.05.09-.07l.09-.06c.02-.01.05-.03.07-.04s.04-.03.06-.03c.04-.02.06-.03.08-.05.02-.01.02-.02.02-.03s-.02-.02-.04-.02a1.07 1.07 0 0 0-.158.05l-.08.03-.07.04a.7.7 0 0 0-.129.099c-.04.03-.07.07-.108.11-.01.01-.02.03-.04.04-.01.02-.02.04-.03.07-.01.02-.02.05-.04.08a.77.77 0 0 0-.069.168c-.04.12.07-.07.108-.1-.09.12-.188.307-.167.376v.118c0 .04-.01.08 0 .11 0 .04.02.05.03.03.02-.01.04-.05.06-.09.05-.1.108-.248.168-.426.05-.05-.03.12.03.03 0-.01.01-.02.01-.03.01-.01.02-.02.02-.04.02-.02.04-.05.05-.08-.03.06.02.01.03.02.02-.03.07-.08.07-.09.1-.05.188-.13.347-.2h.03c.01 0 .02 0 .03.01.02 0 .04.01.05.01.03.01.04.02.03.04 0 0 .01.01.03.01.03 0 .04.01.05.01.06.01.128.03.188.06-.001-.008-.02-.027-.03-.048z"/><path fill="#cdd7e9" d="M302.368 392.066c-.04.06-.07.09-.09.1s-.05.01-.07.03c-.02.06-.03.07-.04.08s-.03.02-.04.08c.01-.06 0-.04 0-.05l-.168.466c-.01.02-.01-.08 0-.11 0 .05-.01.1-.02.148s-.01.1-.02.14l-.04.188c-.01.05-.02.1-.04.148-.02.07-.05.09-.08.04s-.06-.16-.06-.356c-.01.02-.02.06-.02.108 0 .02-.01.05-.01.07v.07c-.01.09-.01.168-.03.12a.53.53 0 0 1-.029-.099c-.01.13.01.287.05.436.03.158.09.306.148.445.02 0 .02-.01.01-.05a.55.55 0 0 1-.02-.099v-.07c0-.04.01-.05.02-.07.02-.03.04-.06.04-.178 0-.03 0-.07-.01-.12v-.1c.03-.118.08.01.1-.108.01.01-.01-.178 0-.188.03-.06.06-.03.08-.16.01-.04.02-.08.02-.12l.03-.1c.02-.06.04-.108.06-.148s.05-.07.07-.1l.03-.04.04-.04a1.39 1.39 0 0 1 .149-.446.11.11 0 0 0-.03.04l-.02.02c.002.002-.008.012-.008.02z"/><path fill="#dae1ef" d="M303.764 394.52c.01-.02.03-.04.04-.07l.03-.06.06-.12a1.25 1.25 0 0 1-.307.376c-.05.04-.1.07-.14.09-.05.02-.09.04-.128.05-.01 0-.06.03-.12.07-.03.02-.08.03-.12.05s-.1.03-.148.04c-.05 0-.1.01-.148.01-.05-.01-.1-.01-.14-.02s-.07-.02-.1-.04c-.03-.01-.04-.03-.05-.04h.04c.02 0 .05.01.07.01a1.31 1.31 0 0 0 .208.01c-.04 0-.07-.01-.11-.02l-.09-.03c-.03-.01-.05-.02-.07-.04-.02-.01-.04-.03-.06-.04-.04-.02-.06-.05-.08-.08-.01-.01-.02-.02-.03-.04-.01-.01-.02-.03-.02-.04-.01-.03-.03-.05-.04-.07a.28.28 0 0 0-.04-.079c-.01-.03-.02-.06-.04-.09s-.03-.07-.05-.11a1.12 1.12 0 0 1-.089-.446c0-.06.01-.108.02-.148s.03-.07.05-.08c.03-.02.02-.228.04-.396l-.03-.208a.48.48 0 0 1-.04.128c-.01.04-.02.06-.03.07-.04.03-.08.08-.1.178a1.15 1.15 0 0 0 0 .416c.02.128-.08.06-.07.128 0 .04.01.07.01.11 0 .03.01.06.01.09l.03.168.04.158a.65.65 0 0 0 .06.159l.05.1c.02.04.07.09.11.14.1.07.208.13.336.158.06.02.128.02.198.03h.1c.03 0 .07 0 .1-.01a.48.48 0 0 0 .128-.04c.04-.01.07-.03.1-.04l.14-.07.09-.05c.03-.01.05-.03.07-.04.04-.02.07-.04.118-.07l.07-.07c.01-.01.03-.03.04-.05.008.017.018-.003.028-.033z"/><path fill="#d5ddec" d="M302.02 392.967c-.01.128-.05.1-.08.16-.01.01 0 .198 0 .188-.03.108-.08-.01-.1.108v.1a.44.44 0 0 0 .01.119c0 .128-.02.148-.04.178-.01.02-.02.03-.02.07v.07c0 .03.01.06.02.1s.01.06-.01.05h0c-.04-.03.03.14.06.178.03.05.05.1.08.14s.04.08.07.11l.07.1.1.11a.67.67 0 0 0 .099.079c-.04-.05-.09-.1-.11-.14-.03-.04-.04-.08-.05-.1l-.06-.16-.04-.158-.03-.168c0-.03-.01-.06-.01-.09s-.01-.07-.01-.11c-.01-.07.09 0 .07-.13-.03-.188-.02-.327 0-.416s.06-.14.1-.178c.01-.01.02-.04.03-.07.01-.04.03-.08.04-.128 0-.06-.01-.12 0-.168 0-.03.01-.06.02-.09 0-.01.01-.03.01-.03.02-.06.02-.11.03-.148s.01-.09.02-.13l-.04.04-.03.04c-.02.03-.05.06-.07.1s-.05.09-.06.148l-.03.1c-.02.05-.03.1-.04.13z"/><path fill="#dfe4f1" d="M304.012 394.007c.01-.05.02-.11.04-.158.03-.14.04-.12.05-.178-.01.02-.02.02-.02.02 0-.01.01-.03.01-.04-.03.06-.06.1-.09.09-.02.08-.04.148-.06.178-.02.02-.03.05-.05.07l-.05.06-.12.128a.49.49 0 0 1-.069.08c-.03.03-.05.07-.09.1-.03.04-.07.08-.11.118-.04.05-.09.09-.148.14-.1.07-.11.04-.13.02-.01-.01-.02-.02-.05-.02-.01 0-.03 0-.05.01s-.05.01-.09.02c-.05.01-.12.03-.188.02-.06-.01-.12-.02-.13-.04 0-.02.03-.03.04-.05.01-.01.01-.02 0-.03s-.03-.02-.06-.04c-.09-.04-.15-.12-.198-.198l-.03-.06-.03-.06c-.01-.02-.01-.04-.02-.06l-.02-.06c-.02-.07-.02-.14-.02-.188s.02-.09.03-.11a5.19 5.19 0 0 1-.148-.584c-.02.168-.01.386-.04.396-.02.01-.04.04-.05.08s-.02.09-.02.148a1.19 1.19 0 0 0 .089.446c.02.04.03.08.05.11s.03.06.04.09.03.05.04.08.03.05.04.07c.01.01.02.03.02.04.01.01.02.02.03.04.02.02.05.06.08.08.02.01.04.03.06.04s.05.02.07.04l.09.03c.03.01.07.02.11.02-.08 0-.158 0-.208-.01-.03 0-.05-.01-.07-.01h-.04c.01.01.03.03.05.04a.89.89 0 0 1 .099.04c.04.01.09.01.14.02.05 0 .1 0 .148-.01s.1-.02.148-.04c.04-.02.08-.03.12-.05.06-.04.11-.06.12-.07.04-.01.08-.03.128-.05.04-.02.09-.05.14-.09.1-.08.198-.198.307-.376l.06-.14c.01-.06.03-.1.05-.14z"/><path fill="#e7eaf5" d="M302.665 394.51l.06.04c.01.01.01.02 0 .03-.01.02-.04.03-.04.05.01.02.06.03.13.04.06 0 .14-.01.188-.02.04-.01.07-.02.09-.02.02-.01.04-.01.05-.01.03 0 .04.01.05.02.02.02.02.05.128-.02.06-.05.11-.09.148-.14.05-.04.08-.09.11-.12.03-.04.06-.07.09-.1s.05-.06.07-.08a1.67 1.67 0 0 1 .118-.128l.05-.06c.02-.02.03-.04.05-.07s.04-.1.06-.178c-.01 0-.02-.01-.02-.03-.01-.01-.03.04-.06.108s-.06.148-.09.188c-.03.02-.04 0-.04-.04 0-.05.01-.108.01-.178v-.118c-.02.04-.04.08-.05.118 0 .01-.01.03-.02.05v-.02c-.03.05-.05.09-.08.11a.34.34 0 0 0-.069.089c-.01.02-.01.04-.02.06.01-.02.01-.03.01-.04-.02.04-.05.08-.08.12l-.09.12a.44.44 0 0 1-.099.099c-.02.01-.03.03-.05.04s-.03.02-.05.03c-.05.02-.158.1-.257.108-.01 0-.02.01-.04.01h-.03c-.02 0-.04 0-.05-.01-.03-.01-.04-.03-.03-.05-.02.01-.04 0-.07 0-.01 0-.02-.01-.03-.01s-.02-.01-.03-.01c.01-.01.02-.03.02-.04-.02-.01-.03-.03-.04-.04-.01-.02-.02-.03-.02-.04.01 0 .02 0 .03.01s.02.01.03.02v-.01l-.01-.01c-.02 0-.03-.01-.05-.02-.02 0-.05-.01-.07-.01h.03c.01 0 .01 0 .02.01h.05a.54.54 0 0 1-.079-.109c-.01-.01-.02-.01-.03-.02.01 0 .02.01.02.02l-.01-.02-.01-.01c-.01 0-.01-.01-.02-.02s-.03-.02-.04-.04a1.19 1.19 0 0 1-.089-.109v-.06c0-.02 0-.04-.01-.06l-.03-.13c-.02.02-.03.06-.03.11a.67.67 0 0 0 .02.188l.02.06c.01.02.01.04.02.06l.03.06.03.06c.05.054.11.123.198.172z"/></g></g><path fill="#4e5158" d="M303.2 393.096c-.188 0-.337-.248-.337-.554a.93.93 0 0 1 .07-.347.38.38 0 0 0-.149-.03c-.336 0-.613.456-.613 1s.277 1.01.613 1.01.614-.455.614-1.01c0-.06 0-.12-.01-.178-.05.07-.12.1-.188.1z"/><path fill="#505158" d="M303.22 393.056c-.366-.04-.317-.643-.218-.86.01-.02-.02-.03-.03-.03-.356-.108-.634.13-.762.446-.18.406-.16.96.09 1.336.178.258.485.366.752.188.366-.237.435-.762.406-1.148 0-.05-.11-.01-.128.01-.04.02-.08.05-.13.07-.07.01-.12.1-.02.08.11-.02.178-.05.257-.13-.04 0-.09 0-.128.01.03.317-.09 1.297-.624 1.1-.406-.15-.484-.782-.445-1.148.02-.198.08-.396.198-.554.07-.09.218-.248.336-.178.08.05.04.08.02.158-.01.05-.01.1-.01.15 0 .247.1.554.376.584.058.01.148-.07.058-.08z"/><g opacity=".3"><ellipse fill="#edf3fb" cx="309.258" cy="393.234" rx=".941" ry="1.584"/><g opacity=".8"><path fill="#f0f3fa" d="M310.04 393.947l.02-.04c-.01 0-.02-.01-.03-.02 0-.05-.04.1-.12.257.01.01.058-.028.128-.197z"/><path fill="#edeff5" d="M310.387 393.294c0-.02-.01-.05-.01-.07 0 .03 0 .05.01.07z"/><path d="M310.2 393.462v.14c-.01.04-.01.08-.01.12.02-.04.04-.08.06-.1.02-.03.04-.07.06-.12v-.14c-.01.02-.01.02-.01.06v-.1c-.01.01-.01.05-.02.1s-.01.1-.02.148c0-.06 0-.14-.01-.198-.01.02-.01.03-.02.05 0 .02-.01.05-.01.07v-.018zm-.615.9c.01 0 .01-.01.02-.01.01-.03.03-.05.04-.08l-.03.03-.03.02c-.01.01-.02.03-.02.05h-.01s0-.01.01-.02h0c-.01.01-.02.01-.03.02h.02l-.04.04c-.01.01-.02.02-.02.03-.001-.02.05-.05.088-.08z" fill="#f0f3fa"/><path fill="#eef0f9" d="M309.12 394.482c0 .01-.01.03-.02.04.02 0 .04.02.06.03s.04.02.06.02c-.03.03.03.08.13.08s.218-.05.267-.07a.66.66 0 0 0 .209-.148c.068-.07.128-.16.18-.228.01-.03-.012-.03.02-.1-.02.03-.05.08-.06.13 0 .01-.01.02-.01.03 0-.01.01-.02.01-.03.01-.04.03-.07.05-.11-.01.01-.01.02-.02.02 0-.01 0-.02.012-.03l-.13.158c-.04.04-.08.05-.1.04l-.03.03c-.1.118-.16.128-.17.108-.06.06-.14.1-.188.108-.08.01-.15-.01-.188-.05h-.06c-.012-.02-.012-.03-.022-.03z"/><path fill="#c3cee4" d="M310.238 393.234c.02-.01.04-.04.06-.1.01-.03.02-.06.02-.09.01-.03.01-.07.02-.11.01-.168 0-.386-.08-.594-.078-.218-.178-.436-.366-.633-.09-.09-.198-.178-.347-.237a.78.78 0 0 0-.455-.05c.02 0 .04.01.04.02s0 .02-.02.03-.04.03-.08.05l-.06.03c-.02.01-.05.03-.07.04a.34.34 0 0 1-.089.06c-.03.02-.06.04-.09.07-.03.02-.05.05-.068.06-.02.02-.04.04-.04.05-.07.108-.1.188-.13.267s-.06.168-.1.306c.03-.04.05-.04.078-.09.08-.14.18-.307.337-.484.02-.02.07-.05.09-.06.03 0 .03.01-.03.06.08-.06.15-.09.218-.13l.1-.03.05-.01h.06c.03 0 .05 0 .068.01s.04.01.05.01c.02 0 .03.01.04.01.01.01.02.01.03.02.03.02.03.03.03.04-.01.02-.05.03-.01.08.01.02.03.04.05.06.11.06.21.138.288.247a1.83 1.83 0 0 1 .218.347c.03.06.03.16.05.218l.09.366c.02.096.04.175.048.165z"/><g fill="#cad5e9"><path d="M308.1 393.066c0-.08-.01-.168.01-.267a2.9 2.9 0 0 0-.079.416l.03.11a.88.88 0 0 1 .039-.258z"/><path d="M309.277 391.81c.012-.02 0-.03-.03-.04-.02 0-.03-.01-.05-.01-.01 0-.02 0-.03-.01h-.03c-.16.07-.248.14-.347.198a.43.43 0 0 1-.069.089c0-.01-.06.03-.03-.02l-.05.08c-.01.01-.02.02-.02.04-.01.01-.01.02-.01.03-.06.09.02-.09-.03-.03l-.17.426a.58.58 0 0 1-.06.089c-.02.01-.03 0-.03-.03-.01-.03 0-.07 0-.11v-.12c-.01-.07.08-.257.168-.376-.04.02-.148.218-.108.1.02-.06.05-.11.068-.168.01-.03.02-.05.04-.08.01-.02.03-.05.03-.07-.108.14-.188.297-.248.456l-.108.366-.03.09-.03.09c-.01.1-.01.188-.01.267-.02.06-.04.16-.05.258l.03.1c.02.05.02-.02.03-.12v-.07c0-.03.01-.05.01-.07.01-.05.01-.09.02-.11 0 .198.03.307.06.356s.06.03.08-.04c.01-.05.03-.09.04-.148l.04-.188c.01-.04.01-.09.02-.14s.01-.1.02-.148v.11c.05-.178.1-.238.17-.466.01.01.02-.01 0 .05.01-.06.03-.07.04-.08s.03-.02.04-.08c.02-.02.05-.02.07-.03s.05-.04.09-.1c.01-.01.01-.02.02-.03l.02-.02c.01-.01.02-.02.03-.04.06-.09.128-.178.238-.218.078-.03.157-.04.237-.03-.01 0-.02-.01-.03-.01-.03.01-.043.002-.043.002z"/></g><path fill="#c6d2e6" d="M309.496 391.83c-.04-.04 0-.06.01-.08.01-.01 0-.02-.03-.04-.01 0-.02-.01-.03-.02s-.02-.01-.04-.01-.03-.01-.05-.01-.04 0-.068-.01h-.06l-.05.01-.1.03c-.068.03-.14.07-.218.13.06-.05.06-.06.03-.06-.02 0-.07.03-.09.06-.147.188-.248.346-.337.484-.03.05-.05.05-.078.09l.1-.306c.03-.08.06-.16.13-.267 0-.01.02-.03.04-.05s.04-.04.068-.06.06-.05.09-.07l.09-.06c.02-.01.05-.03.07-.04s.04-.03.06-.03c.04-.02.06-.03.08-.05.02-.01.02-.02.02-.03s-.02-.02-.04-.02c-.05.01-.11.03-.158.05l-.08.03-.07.04c-.05.03-.09.06-.128.1-.04.03-.07.07-.1.11-.01.01-.02.03-.04.04-.01.02-.02.04-.03.07-.01.02-.02.05-.04.08-.03.05-.05.11-.07.168-.04.12.07-.07.11-.1-.09.12-.19.307-.168.376v.12c0 .04-.01.08 0 .11 0 .04.02.05.03.03.02-.01.04-.05.06-.09.05-.1.108-.248.17-.426.05-.05-.03.12.03.03 0-.01.01-.02.01-.03.01-.01.02-.02.02-.04.02-.02.04-.05.05-.08-.03.06.02.01.03.02.02-.03.07-.08.07-.09.1-.05.188-.13.347-.198h.03c.01 0 .02 0 .03.01.02 0 .04.01.05.01.03.01.04.02.03.04 0 0 .01.01.03.01.03 0 .04.01.05.01a.71.71 0 0 1 .188.06c-.003-.008-.022-.028-.032-.048z"/><path fill="#cdd7e9" d="M308.822 392.165c-.04.06-.068.09-.09.1s-.05.01-.068.03c-.02.06-.03.07-.04.08s-.03.02-.04.08c.01-.06 0-.04 0-.05l-.17.466c-.01.02-.01-.08 0-.11a.75.75 0 0 1-.02.149c-.01.05-.01.1-.02.138l-.04.188c-.01.05-.02.1-.04.148-.02.07-.05.09-.08.04s-.06-.158-.06-.356c-.01.02-.02.06-.02.11 0 .02-.01.05-.01.07v.07c-.01.09-.01.167-.03.118a.53.53 0 0 1-.029-.099 1.36 1.36 0 0 0 .05.436 2.2 2.2 0 0 0 .147.446c.02 0 .02-.01.01-.05l-.02-.1v-.07c0-.04.01-.05.02-.07.02-.03.04-.06.04-.178 0-.03 0-.07-.01-.118v-.1c.03-.12.08.01.1-.11.01.01-.01-.178 0-.188.03-.06.06-.03.08-.16.01-.04.02-.08.02-.118l.03-.1c.02-.06.04-.11.06-.15s.05-.07.07-.1l.03-.04.04-.04c.03-.158.07-.307.148-.445-.01.01-.02.02-.03.04l-.02.02c.002-.001-.01.008-.01.018z"/><path fill="#dae1ef" d="M310.23 394.62c.01-.02.03-.04.04-.07l.03-.06.06-.12c-.1.178-.207.297-.306.376a.85.85 0 0 1-.139.089l-.13.05c-.01 0-.06.03-.12.07-.03.02-.08.03-.12.05s-.1.03-.147.04c-.05 0-.1.01-.15.01-.05-.01-.1-.01-.138-.02s-.07-.02-.1-.04c-.03-.01-.04-.03-.05-.04h.04c.02 0 .05.01.07.01.06.01.13.01.207.01-.04 0-.068-.01-.108-.02l-.09-.03c-.03-.01-.05-.02-.068-.04-.02-.01-.04-.03-.06-.04-.04-.02-.06-.05-.08-.08-.01-.01-.02-.02-.03-.04-.01-.01-.02-.03-.02-.04-.01-.03-.03-.05-.04-.07-.01-.03-.02-.05-.04-.08-.01-.03-.02-.06-.04-.09s-.03-.07-.05-.108a1.12 1.12 0 0 1-.089-.446c0-.06.01-.11.02-.15s.03-.07.05-.08c.03-.02.02-.228.04-.396l-.03-.208a.54.54 0 0 1-.039.129c-.01.04-.02.06-.03.07-.04.03-.08.08-.1.178-.02.09-.03.228 0 .416.02.13-.08.06-.07.13 0 .04.01.07.01.108 0 .03.01.06.01.09l.03.17.04.158c.01.05.03.1.06.16.012.02.03.06.05.1s.07.09.108.138c.1.07.208.13.337.16.06.02.128.02.197.03h.1c.03 0 .07 0 .1-.01.05-.01.09-.02.13-.04.04-.01.07-.03.1-.04l.14-.07.09-.05c.03-.01.05-.03.07-.04.04-.02.07-.04.12-.07l.068-.07c.01-.01.03-.03.04-.05-.002.014.008-.006.028-.035z"/><path fill="#d5ddec" d="M308.486 393.076c-.01.13-.05.1-.08.16-.01.01 0 .198 0 .188-.03.11-.08-.01-.1.11v.1a.43.43 0 0 0 .01.118c0 .13-.02.15-.04.178-.01.02-.02.03-.02.07v.07c0 .03.01.06.02.1s.01.06-.01.05h0c-.04-.03.03.14.06.178.03.05.05.1.08.138s.04.08.07.11l.068.1c.03.03.06.07.1.11.03.03.07.06.1.08-.04-.05-.09-.1-.11-.14-.03-.04-.04-.08-.05-.1l-.06-.158-.04-.158-.03-.168c0-.03-.01-.06-.01-.09s-.01-.07-.01-.11c-.01-.07.09 0 .07-.13a1.15 1.15 0 0 1 0-.416c.02-.09.06-.138.1-.178.01-.01.02-.04.03-.07.01-.04.03-.08.04-.128 0-.06-.01-.12 0-.168a.28.28 0 0 1 .02-.089c0-.01.01-.03.01-.03.02-.06.02-.11.03-.15s.01-.09.02-.13l-.04.04-.03.04c-.02.03-.05.06-.07.1s-.05.09-.06.148l-.03.1c-.03.038-.04.077-.04.127z"/><path fill="#dfe4f1" d="M310.467 394.105c.01-.05.02-.108.04-.158.03-.14.04-.12.05-.178-.01.02-.02.02-.02.02 0-.01.01-.03.01-.04-.03.06-.06.1-.09.09a.76.76 0 0 1-.061.179c-.02.02-.03.05-.05.07l-.05.06-.118.13c-.02.03-.04.05-.07.08s-.05.07-.09.1c-.03.04-.07.08-.11.12-.04.05-.09.09-.148.14-.1.07-.11.04-.13.02-.01-.01-.02-.02-.05-.02-.01 0-.03 0-.05.01s-.05.01-.09.02c-.05.01-.118.03-.188.02-.06-.01-.118-.02-.128-.04 0-.02.03-.03.04-.05.01-.01.01-.02 0-.03s-.03-.02-.06-.04c-.09-.04-.15-.12-.2-.198l-.03-.06-.03-.06c-.01-.02-.01-.04-.02-.06l-.01-.03-.01-.03c-.02-.07-.02-.138-.02-.188s.02-.09.03-.108c-.05-.16-.108-.366-.147-.584-.02.168-.01.386-.04.396-.02.01-.04.04-.05.08a.59.59 0 0 0-.02.148 1.19 1.19 0 0 0 .089.446c.02.04.03.08.05.108s.03.06.04.09.02.05.04.08c.01.03.03.05.04.07.01.01.02.03.02.04.01.01.02.02.03.04.02.02.05.06.08.08.02.01.04.03.06.04s.05.02.068.04l.09.03c.03.01.07.02.108.02-.078 0-.157 0-.207-.01-.03 0-.05-.01-.07-.01h-.04c.01.01.03.03.05.04.03.01.06.02.1.04.04.01.09.01.138.02.05 0 .1 0 .15-.01s.1-.02.147-.04c.04-.02.08-.03.12-.05.06-.04.11-.06.12-.07.04-.01.08-.03.13-.05a.79.79 0 0 0 .139-.089c.1-.08.197-.2.306-.376l.06-.14c.02-.054.03-.103.05-.143z"/><path fill="#e7eaf5" d="M309.12 394.61l.06.04c.01.01.01.02 0 .03-.01.02-.04.03-.04.05.01.02.06.03.128.04.06 0 .14-.01.188-.02.04-.01.07-.02.09-.02.02-.01.04-.01.05-.01.03 0 .04.01.05.02.02.02.02.05.13-.02.06-.05.108-.09.148-.14.05-.04.08-.09.11-.12.03-.04.06-.07.09-.1s.05-.06.07-.08c.04-.05.078-.09.118-.13l.05-.06c.02-.02.03-.04.05-.07s.04-.1.06-.178c-.01 0-.02-.01-.02-.03-.01-.01-.03.04-.06.11s-.06.15-.09.188c-.03.02-.04 0-.04-.04 0-.05.01-.11.01-.178v-.12c-.02.04-.04.08-.05.12 0 .01-.01.03-.02.05v-.02c-.03.05-.05.09-.08.11-.02.02-.05.05-.07.09-.01.02-.01.04-.02.06.01-.02.01-.03.01-.04-.02.04-.05.08-.08.12l-.09.12a.44.44 0 0 1-.099.099c-.02.01-.03.03-.05.04s-.03.02-.05.03c-.05.02-.158.1-.257.11-.01 0-.02.01-.04.01h-.03c-.02 0-.04 0-.05-.01-.03-.01-.04-.03-.03-.05-.02.01-.04 0-.068 0-.01 0-.02-.01-.03-.01s-.02-.01-.03-.01c.01-.01.02-.03.02-.04-.02-.01-.03-.03-.04-.04-.01-.02-.02-.03-.02-.04.01 0 .02 0 .03.01s.02.01.03.02v-.01l-.01-.01c-.02 0-.03-.01-.05-.02-.02 0-.05-.01-.07-.01h.03c.01 0 .01 0 .02.01h.05c-.03-.03-.05-.06-.08-.108-.01-.01-.02-.01-.03-.02.01 0 .02.01.02.02l-.01-.02-.01-.01c-.01 0-.01-.01-.02-.02s-.03-.02-.04-.04a1.16 1.16 0 0 1-.089-.109v-.06c0-.02 0-.04-.01-.06l-.03-.13c-.02.02-.03.06-.03.11a.67.67 0 0 0 .02.188l.01.03.01.03c.01.02.01.04.02.06l.03.06.03.06a.97.97 0 0 0 .196.172z"/></g></g><path fill="#4e5158" d="M309.634 393.146c-.188 0-.335-.248-.335-.554 0-.13.03-.248.068-.347-.05-.02-.1-.03-.148-.03-.337 0-.613.455-.613 1s.276 1 .613 1 .614-.456.614-1c0-.06 0-.12-.01-.178-.05.058-.1.1-.19.1z"/><path fill="#505158" d="M309.664 393.086c-.355-.04-.316-.614-.218-.832.01-.02 0-.05-.03-.06-.93-.288-1 1.286-.673 1.802.167.257.484.386.762.197.366-.247.436-.762.396-1.168 0-.05-.09-.04-.118-.02-.05.03-.11.05-.16.08-.09.02-.06.12.03.1.1-.02.148-.05.228-.11-.04-.01-.08-.01-.118-.02.03.317-.01.693-.23.94-.236.277-.535.148-.692-.13a1.4 1.4 0 0 1-.139-.891c.04-.307.237-.822.644-.693l-.03-.06c-.13.297-.12.91.306.96.058.022.128-.087.038-.097z"/><path fill="#f3d2aa" d="M307.596 396.303l-1.545 2.04-1.554-2.04 1.554-1.544z"/><path fill="#628fc2" d="M307.535 396.284l-1.544 2.04c.04 0 .08-.01.12-.01l-1.238-1.634-.257-.347c-.01-.02-.04-.04-.05-.06.02.05-.02.04.04 0 .11-.08.208-.208.307-.307l1.198-1.198c-.04 0-.08.01-.12.01l1.544 1.544c.04.04.18-.01.13-.06l-1.545-1.544c-.03-.03-.09-.02-.12.01l-1.544 1.544c-.01.01-.02.03-.01.05l1.544 2.04c.03.03.1.02.12-.01l1.544-2.04c.05-.057-.078-.077-.12-.027z"/><path fill="#d9bc9d" d="M307.525 396.313l-1.454 1.92-.03-3.406z"/><path d="M303.625 387.72c-.396-.188-.515-.01-.14.17a5.19 5.19 0 0 1 1.644 1.653 8.59 8.59 0 0 1 .901 2.079c-.05-.455-.188-1.336-.763-2.247a5.07 5.07 0 0 0-1.643-1.654zm4.97-.218c.395-.188.515-.01.138.168-.386.248-1.1.752-1.644 1.654a8.62 8.62 0 0 0-.9 2.08c.05-.456.188-1.336.763-2.248a5.18 5.18 0 0 1 1.643-1.653z" fill="#346490"/><path d="M304.298 399.036a1.38 1.38 0 0 0 1.119 0c.03-.01-.1-.218-.148-.188-.347.15-.723.16-1.07 0-.06-.02.05.17.098.188h0zm2.248 0a1.24 1.24 0 0 0 1.119 0c.03-.02-.1-.218-.15-.188a1.19 1.19 0 0 1-1.069 0c-.06-.02.05.17.1.188h0zm-1.06.96a1.18 1.18 0 0 0 1.119 0c.03-.02-.1-.218-.15-.188a1.11 1.11 0 0 1-1.069 0c-.05-.03.05.158.1.188h0zm-1.604.86a1.47 1.47 0 0 0 1.12 0c.03-.01-.1-.218-.148-.188a1.33 1.33 0 0 1-1.07 0c-.07-.02.048.17.098.188h0zm3.04-.03c.356.168.763.168 1.12 0 .03-.02-.1-.22-.148-.188a1.26 1.26 0 0 1-1.07 0c-.06-.02.05.17.1.188h0z" fill="#628fc2"/></svg>