<?xml version="1.0" encoding="utf-8"?>
<!--
  - This file is part of StyleBI.
  - Copyright (C) 2024  InetSoft Technology
  -
  - This program is free software: you can redistribute it and/or modify
  - it under the terms of the GNU Affero General Public License as published by
  - the Free Software Foundation, either version 3 of the License, or
  - (at your option) any later version.
  -
  - This program is distributed in the hope that it will be useful,
  - but WITHOUT ANY WARRANTY; without even the implied warranty of
  - MERCHANTABILITY or FITNESS FOR A PARTICULAR PURPOSE.  See the
  - GNU Affero General Public License for more details.
  -
  - You should have received a copy of the GNU Affero General Public License
  - along with this program.  If not, see <https://www.gnu.org/licenses/>.
  -->

<!-- Generator: Adobe Illustrator 15.1.0, SVG Export Plug-In . SVG Version: 6.00 Build 0)  -->
<!DOCTYPE svg PUBLIC "-//W3C//DTD SVG 1.1//EN" "http://www.w3.org/Graphics/SVG/1.1/DTD/svg11.dtd">
<svg version="1.1" id="layer" xmlns="http://www.w3.org/2000/svg" xmlns:xlink="http://www.w3.org/1999/xlink" x="0px" y="0px"
	 width="70px" height="30px" viewBox="271 381 70 30" enable-background="new 271 381 70 30" xml:space="preserve">
<g id="outlined">
	<g>
		<circle fill="#33547D" cx="277.864" cy="403.45" r="2.695"/>
		<circle fill="#33547D" cx="287.581" cy="403.471" r="1.899"/>
		<circle fill="#33547D" cx="295.592" cy="403.47" r="0.867"/>
	</g>
	<g>
		<path fill="#33547D" d="M287.074,397.813c-0.475,0-0.826-0.372-0.826-0.826v-3.501c0-1.208-0.578-2.137-1.88-2.137
			c-1.301,0-2.085,1.001-2.085,2.157v3.49c0,0.454-0.32,0.826-0.826,0.826c-0.496,0-0.826-0.372-0.826-0.826v-3.5
			c0-1.208-0.629-2.138-1.931-2.138c-1.332,0-2.034,1.002-2.034,2.158v3.49c0,0.454-0.331,0.826-0.826,0.826
			c-0.475,0-0.826-0.372-0.826-0.826v-6.227c0-0.495,0.32-0.837,0.826-0.837c0.558,0,0.826,0.383,0.826,0.837v0.558
			c0.475-0.929,1.435-1.476,2.467-1.476c1.26,0,2.209,0.629,2.685,1.559c0.682-1.054,1.683-1.559,2.922-1.559
			c2.117,0,3.139,1.456,3.139,3.5v3.625C287.89,397.44,287.559,397.813,287.074,397.813z"/>
		<path fill="#33547D" d="M290.203,386.805c0.526,0,0.96,0.434,0.96,0.96c0,0.527-0.434,0.96-0.96,0.96s-0.96-0.433-0.96-0.96
			C289.242,387.239,289.676,386.805,290.203,386.805z M290.203,397.813c-0.495,0-0.826-0.372-0.826-0.826v-6.237
			c0-0.454,0.351-0.826,0.826-0.826c0.475,0,0.826,0.372,0.826,0.826v6.237C291.029,397.44,290.698,397.813,290.203,397.813z"/>
		<path fill="#33547D" d="M295.675,392.762l2.086-2.591c0.144-0.155,0.32-0.248,0.547-0.248c0.454,0,0.754,0.299,0.754,0.723
			c0,0.155-0.051,0.32-0.196,0.475l-2.302,2.726l2.333,2.746c0.125,0.146,0.197,0.279,0.197,0.496c0,0.403-0.351,0.724-0.734,0.724
			c-0.247,0-0.433-0.083-0.578-0.259l-2.106-2.612l-2.105,2.602c-0.145,0.175-0.331,0.258-0.579,0.258
			c-0.381,0-0.733-0.32-0.733-0.724c0-0.206,0.072-0.351,0.196-0.495l2.334-2.747l-2.292-2.736c-0.145-0.155-0.197-0.32-0.197-0.475
			c0-0.423,0.3-0.723,0.754-0.723c0.227,0,0.403,0.083,0.547,0.248L295.675,392.762z"/>
		<path fill="#33547D" d="M304.668,397.873c-1.177,0-2.137-0.608-2.694-1.507v3.893c0,0.455-0.331,0.826-0.826,0.826
			c-0.497,0-0.826-0.371-0.826-0.826v-9.519c0-0.455,0.278-0.826,0.784-0.826s0.806,0.381,0.806,0.835v0.6
			c0.526-0.909,1.579-1.508,2.747-1.508c2.013,0,3.665,1.684,3.665,4.017C308.323,396.284,306.681,397.873,304.668,397.873z
			 M304.328,391.214c-1.415,0-2.365,1.239-2.365,2.643s0.95,2.644,2.365,2.644c1.415,0,2.343-1.075,2.343-2.644
			C306.681,392.288,305.752,391.214,304.328,391.214z"/>
		<path fill="#33547D" d="M317.018,396.986c0,0.454-0.32,0.826-0.826,0.826c-0.495,0-0.806-0.372-0.806-0.826v-0.383
			c-0.495,0.732-1.414,1.28-2.561,1.28c-2.457,0-3.872-1.786-3.872-4.016c0-2.189,1.58-4.017,4.048-4.017
			c2.519,0,4.017,1.652,4.017,4.017V396.986L317.018,396.986z M312.991,391.255c-1.405,0-2.386,1.177-2.386,2.612
			c0,1.507,0.826,2.612,2.386,2.612c1.455,0,2.385-1.249,2.385-2.612C315.376,392.247,314.395,391.255,312.991,391.255z"/>
		<path fill="#33547D" d="M321.983,389.851c2.117,0,3.676,1.61,3.676,3.666v3.47c0,0.454-0.372,0.826-0.826,0.826
			s-0.826-0.372-0.826-0.826v-3.667c0-1.104-0.877-1.961-2.033-1.961c-1.157,0-2.013,0.857-2.013,1.961v3.667
			c0,0.454-0.373,0.826-0.826,0.826c-0.455,0-0.826-0.372-0.826-0.826v-3.47C318.318,391.461,319.856,389.851,321.983,389.851z"/>
		<path fill="#33547D" d="M334.229,393.877c0,0.279-0.155,0.559-0.63,0.559h-5.234c0.082,1.208,0.907,2.116,2.364,2.116
			c0.908,0,1.456-0.32,2.033-0.857c0.146-0.144,0.331-0.258,0.548-0.258c0.372,0,0.682,0.258,0.682,0.681
			c0,0.176-0.083,0.331-0.206,0.475c-0.661,0.774-1.858,1.28-3.119,1.28c-2.612,0-3.996-1.827-3.996-4.016
			c0-2.292,1.663-4.017,3.925-4.017C332.794,389.851,334.229,391.638,334.229,393.877z M330.585,391.163
			c-1.209,0-2.034,0.856-2.189,1.941h4.306C332.566,392.061,331.771,391.163,330.585,391.163z"/>
		<path fill="#33547D" d="M336.16,397.813c-0.496,0-0.826-0.372-0.826-0.826v-10.305c0-0.455,0.33-0.826,0.826-0.826
			s0.825,0.372,0.825,0.826v10.305C336.977,397.44,336.646,397.813,336.16,397.813z"/>
	</g>
</g>
</svg>
