<?xml version="1.0" encoding="utf-8"?>
<!--
  - This file is part of StyleBI.
  -
  - Copyright (c) 2024, InetSoft Technology Corp, All Rights Reserved.
  -
  - The software and information contained herein are copyrighted and
  - proprietary to InetSoft Technology Corp. This software is furnished
  - pursuant to a written license agreement and may be used, copied,
  - transmitted, and stored only in accordance with the terms of such
  - license and with the inclusion of the above copyright notice. Please
  - refer to the file "COPYRIGHT" for further copyright and licensing
  - information. This software and information or any other copies
  - thereof may not be provided or otherwise made available to any other
  - person.
  -->

<!-- Generator: Adobe Illustrator 13.0.0, SVG Export Plug-In . SVG Version: 6.00 Build 14948)  -->
<!DOCTYPE svg PUBLIC "-//W3C//DTD SVG 1.1//EN" "http://www.w3.org/Graphics/SVG/1.1/DTD/svg11.dtd">
<svg version="1.1" id="图层_1" xmlns="http://www.w3.org/2000/svg" xmlns:xlink="http://www.w3.org/1999/xlink" x="0px" y="0px"
	 width="80.553px" height="200px" viewBox="-0.964 -0.001 80.553 200" enable-background="new -0.964 -0.001 80.553 200"
	 xml:space="preserve">
<g>
	<ellipse fill="#FFFFFF" cx="39.313" cy="188.724" rx="40.277" ry="11.276"/>
	<ellipse fill="#FFFFFF" cx="39.313" cy="187.87" rx="40.083" ry="11.222"/>
	<ellipse fill="#FFFFFF" cx="39.313" cy="187.016" rx="39.889" ry="11.168"/>
	<ellipse fill="#FFFFFF" cx="39.313" cy="186.162" rx="39.695" ry="11.113"/>
	<ellipse fill="#FFFFFF" cx="39.313" cy="185.309" rx="39.5" ry="11.059"/>
	<ellipse fill="#FFFFFF" cx="39.313" cy="184.455" rx="39.307" ry="11.005"/>
	<ellipse fill="#FFFFFF" cx="39.313" cy="183.601" rx="39.113" ry="10.95"/>
</g>
<ellipse fill="#FFFFFF" cx="39.313" cy="182.523" rx="36.589" ry="10.244"/>
<ellipse fill="#FFFFFF" cx="39.313" cy="182.041" rx="35.412" ry="9.915"/>
<path fill="#FFFFFF" d="M40.848,171.881c-21.624,0-31.494,3.332-31.494,3.332c0,4.676,13.414,8.467,29.958,8.467
	c16.546,0,29.958-3.791,29.958-8.467C69.271,175.213,59.561,171.881,40.848,171.881z"/>
<g opacity="0.3">
	<g>
		<path fill="#FFFFFF" d="M39.312,17.807c-16.277,0-29.587-3.585-30.596-8.112H8.648v166.278c0,4.785,13.729,8.666,30.664,8.666
			c16.936,0,30.665-3.881,30.665-8.666V9.694h-0.067C68.9,14.222,55.592,17.807,39.312,17.807z"/>
	</g>
</g>
<ellipse fill="#FFFFFF" enable-background="new    " cx="39.313" cy="9.222" rx="33.085" ry="9.223"/>
<ellipse opacity="0.5" fill="#FFFFFF" enable-background="new    " cx="39.313" cy="9.222" rx="30.611" ry="8.57"/>
<g>
	<g>
		<path fill="#FFFFFF" d="M39.313,18.148c-17.852,0-32.394-3.774-33.064-8.497H6.215v169.838c0,4.881,14.817,8.838,33.098,8.838
			c18.278,0,33.1-3.957,33.1-8.838V9.651H72.38C71.708,14.374,57.164,18.148,39.313,18.148z"/>
	</g>
</g>
</svg>
