<?xml version="1.0" encoding="utf-8"?>
<!--
  - This file is part of StyleBI.
  -
  - Copyright (c) 2024, InetSoft Technology Corp, All Rights Reserved.
  -
  - The software and information contained herein are copyrighted and
  - proprietary to InetSoft Technology Corp. This software is furnished
  - pursuant to a written license agreement and may be used, copied,
  - transmitted, and stored only in accordance with the terms of such
  - license and with the inclusion of the above copyright notice. Please
  - refer to the file "COPYRIGHT" for further copyright and licensing
  - information. This software and information or any other copies
  - thereof may not be provided or otherwise made available to any other
  - person.
  -->

<!-- Generator: Adobe Illustrator 13.0.0, SVG Export Plug-In . SVG Version: 6.00 Build 14948)  -->
<!DOCTYPE svg PUBLIC "-//W3C//DTD SVG 1.1//EN" "http://www.w3.org/Graphics/SVG/1.1/DTD/svg11.dtd">
<svg version="1.1" id="图层_1" xmlns="http://www.w3.org/2000/svg" xmlns:xlink="http://www.w3.org/1999/xlink" x="0px" y="0px"
	 width="68.043px" height="200px" viewBox="9.994 -0.001 68.043 200" enable-background="new 9.994 -0.001 68.043 200"
	 xml:space="preserve">
<path fill="#FFFFFF" d="M13.234,180.023c0,4.804,13.781,8.696,30.781,8.696s30.78-3.895,30.78-8.696"/>
<g opacity="0.4">
	<g>
		<path fill="#FFFFFF" d="M44.015,18.295c-16.724,0-30.398-3.683-31.436-8.334h-0.07v170.842c0,4.916,14.106,8.902,31.505,8.902
			c17.4,0,31.506-3.986,31.506-8.902V9.961h-0.07C74.415,14.612,60.74,18.295,44.015,18.295z"/>
	</g>
</g>
<g>
	<g>
		<path fill="#FFFFFF" d="M44.016,192.605c-18.791,0-34.022-4.304-34.022-9.612v7.395c0,5.309,15.232,9.613,34.022,9.613
			s34.021-4.306,34.021-9.613v-7.395C78.038,188.303,62.806,192.605,44.016,192.605z"/>
	</g>
</g>
<g>
	<g>
		<path fill="#FFFFFF" d="M44.016,190.624c-18.791,0-34.022-4.306-34.022-9.613v7.396c0,5.309,15.232,9.611,34.022,9.611
			s34.021-4.305,34.021-9.611v-7.396C78.038,186.318,62.806,190.624,44.016,190.624z"/>
	</g>
</g>
<g>
	<g>
		<path fill="#FFFFFF" d="M44.015,18.544c-18.39,0-33.365-4.124-33.992-9.277H9.994v181.428h68.042V9.267h-0.029
			C77.379,14.42,62.406,18.544,44.015,18.544z"/>
	</g>
</g>
<ellipse fill="#FFFFFF" enable-background="new    " cx="44.015" cy="9.475" rx="33.993" ry="9.476"/>
</svg>
