<?xml version="1.0" encoding="utf-8"?>
<!--
  - This file is part of StyleBI.
  - Copyright (C) 2024  InetSoft Technology
  -
  - This program is free software: you can redistribute it and/or modify
  - it under the terms of the GNU Affero General Public License as published by
  - the Free Software Foundation, either version 3 of the License, or
  - (at your option) any later version.
  -
  - This program is distributed in the hope that it will be useful,
  - but WITHOUT ANY WARRANTY; without even the implied warranty of
  - MERCHANTABILITY or FITNESS FOR A PARTICULAR PURPOSE.  See the
  - GNU Affero General Public License for more details.
  -
  - You should have received a copy of the GNU Affero General Public License
  - along with this program.  If not, see <https://www.gnu.org/licenses/>.
  -->

<!-- Generator: Adobe Illustrator 11.0, SVG Export Plug-In . SVG Version: 6.0.0 Build 78)  -->
<!DOCTYPE svg PUBLIC "-//W3C//DTD SVG 1.0//EN"    "http://www.w3.org/TR/2001/REC-SVG-20010904/DTD/svg10.dtd" [
	<!ENTITY ns_flows "http://ns.adobe.com/Flows/1.0/">
	<!ENTITY ns_svg "http://www.w3.org/2000/svg">
	<!ENTITY ns_xlink "http://www.w3.org/1999/xlink">
]>
<svg  xmlns="&ns_svg;" xmlns:xlink="&ns_xlink;" xmlns:a="http://ns.adobe.com/AdobeSVGViewerExtensions/3.0/"
	 width="99.648" height="165.001" viewBox="0 0 99.648 165.001" overflow="visible" enable-background="new 0 0 99.648 165.001"
	 xml:space="preserve">
		<g id="Layer_2">
		</g>
		<g id="Layer_1">
		</g>
		<g id="_x3F__x3F__x3F__x5F_1_x5F__x3F__x3F__x3F__x3F__x5F_2">
		</g>
		<g id="Layer_5">
		</g>
		<g id="_x3F__x3F__x3F__x5F_1_x5F__x3F__x3F__x3F__x3F__x5F_3">
			<path fill="#FFFFFF" d="M99.6,147.71l0.011-2.912l0.022-1.151c0.001-0.032,0.005-0.066,0.002-0.095l0.003-0.165
				c-0.007,0.009-0.016,0.018-0.022,0.026l0.001-0.237c0,0-0.018,0.064-0.063,0.183c-0.246-0.342-0.979-0.849-1.259-1.161h-0.128
				c0.152-0.49,0.234-0.986,0.234-1.488c0-0.325-0.045-0.648-0.107-0.971h0.107V8.433c0-0.005,0.002-0.009,0.002-0.014
				s-0.002-0.009-0.002-0.014v-0.48h-0.088C96.841,3.506,75.757,0,49.955,0S3.069,3.506,1.597,7.925h-0.09v131.813h0.107
				c-0.063,0.321-0.107,0.646-0.107,0.971c0,0.432,0.071,0.858,0.184,1.281H1.682c-0.381,0.358-0.991,0.668-1.257,1.038
				c-0.023,0.032-0.027,0.089-0.045,0.129c-0.038-0.081-0.06-0.133-0.06-0.133v0.072c-0.106-0.128-0.219-0.255-0.32-0.384
				l0.315,1.729l-0.023,7.378c3.968,5.598,25.525,13.181,50.313,13.181c24.587,0,45.77-7.824,48.98-13.377l0.015-3.866
				C99.661,147.64,99.668,147.623,99.6,147.71z"/>
		</g>
		<g id="Layer_2_2_">
		</g>
		<g id="_x3F__x3F__x3F__x5F_1">
		</g>
	</svg>
