<?xml version="1.0" encoding="utf-8"?>
<!--
  - This file is part of StyleBI.
  -
  - Copyright (c) 2024, InetSoft Technology Corp, All Rights Reserved.
  -
  - The software and information contained herein are copyrighted and
  - proprietary to InetSoft Technology Corp. This software is furnished
  - pursuant to a written license agreement and may be used, copied,
  - transmitted, and stored only in accordance with the terms of such
  - license and with the inclusion of the above copyright notice. Please
  - refer to the file "COPYRIGHT" for further copyright and licensing
  - information. This software and information or any other copies
  - thereof may not be provided or otherwise made available to any other
  - person.
  -->

<!-- Generator: Adobe Illustrator 15.0.0, SVG Export Plug-In . SVG Version: 6.00 Build 0)  -->
<!DOCTYPE svg PUBLIC "-//W3C//DTD SVG 1.1//EN" "http://www.w3.org/Graphics/SVG/1.1/DTD/svg11.dtd">
<svg version="1.1" id="图层_1" xmlns="http://www.w3.org/2000/svg" xmlns:xlink="http://www.w3.org/1999/xlink" x="0px" y="0px"
	 width="200px" height="200px" viewBox="0 0 200 200" enable-background="new 0 0 200 200" xml:space="preserve">
<g>
	<path fill="#FFFFFF" d="M100,199.502c-54.864,0-99.5-44.637-99.5-99.5c0-54.864,44.636-99.5,99.5-99.5s99.5,44.635,99.5,99.5
		C199.5,154.865,154.864,199.502,100,199.502z"/>
	<path fill="#00B7FF" d="M100,1.002c54.589,0,99,44.411,99,99c0,54.588-44.411,99-99,99s-99-44.412-99-99
		C1,45.413,45.411,1.002,100,1.002 M100,0.002c-55.229,0-100,44.773-100,100c0,55.229,44.771,100,100,100
		c55.229,0,100-44.771,100-100C200,44.775,155.229,0.002,100,0.002L100,0.002z"/>
</g>
<path fill="#009CD3" d="M157.5,170.845c0,1.615-1.312,2.924-2.924,2.924H45.422c-1.613,0-2.922-1.309-2.922-2.924v-15.592
	c0-1.617,1.309-2.926,2.922-2.926h109.154c1.612,0,2.924,1.309,2.924,2.926V170.845z"/>
<g>
	<g>
		<g>
			<text transform="matrix(0.9998 -0.0176 0.0176 0.9998 88.9414 17.7729)" font-family="'ArialMT'" font-size="10.9995">100</text>
		</g>
		<g>
			<text transform="matrix(0.8571 -0.5152 0.5152 0.8571 50.0005 34.2451)" font-family="'ArialMT'" font-size="11">100</text>
		</g>
		<g>
			<text transform="matrix(0.4847 -0.8747 0.8747 0.4847 24.5874 68.0405)" font-family="'ArialMT'" font-size="11">100</text>
		</g>
		<g>
			<text transform="matrix(-0.4847 0.8747 -0.8747 -0.4847 176.0977 129.4023)" font-family="'ArialMT'" font-size="11">100</text>
		</g>
		<g>
			<text transform="matrix(-0.0176 -0.9998 0.9998 -0.0176 19.3008 110.0264)" font-family="'ArialMT'" font-size="10.9995">100</text>
		</g>
		<g>
			<text transform="matrix(0.0176 0.9998 -0.9998 0.0176 181.1895 87.4141)" font-family="'ArialMT'" font-size="10.9995">100</text>
		</g>
		<g>
			<text transform="matrix(-0.5152 -0.8571 0.8571 -0.5152 35.8145 148.957)" font-family="'ArialMT'" font-size="11">100</text>
		</g>
		<g>
			<text transform="matrix(0.5152 0.8571 -0.8571 0.5152 164.71 48.4302)" font-family="'ArialMT'" font-size="11">100</text>
		</g>
		<g>
			<text transform="matrix(0.8747 0.4847 -0.4847 0.8747 131.0225 22.9692)" font-family="'ArialMT'" font-size="11">100</text>
		</g>
	</g>
</g>
<g>
	<polygon opacity="0.5" fill="#70797D" enable-background="new    " points="49.452,39.392 51.472,41.807 51.718,41.602 
		49.708,39.179 	"/>
	<polygon opacity="0.5" fill="#70797D" enable-background="new    " points="67.481,28.07 68.784,30.935 69.073,30.804 
		67.79,27.931 	"/>
	<polygon opacity="0.5" fill="#70797D" enable-background="new    " points="62.696,30.437 64.187,33.208 64.47,33.058 
		62.991,30.279 	"/>
	<polygon opacity="0.5" fill="#70797D" enable-background="new    " points="53.661,36.113 55.511,38.658 55.771,38.472 
		53.935,35.915 	"/>
	<polygon opacity="0.5" fill="#70797D" enable-background="new    " points="58.083,33.122 59.757,35.788 60.03,35.615 
		58.364,32.947 	"/>
	<polygon opacity="0.5" fill="#70797D" enable-background="new    " points="82.642,22.99 83.331,26.061 83.646,25.991 
		82.966,22.917 	"/>
	
		<rect x="91.903" y="22.752" transform="matrix(0.0825 0.9966 -0.9966 0.0825 108.5979 -72.1341)" opacity="0.5" fill="#70797D" enable-background="new    " width="3.147" height="0.327"/>
	<rect x="98.532" y="18.207" opacity="0.5" fill="#70797D" enable-background="new    " width="0.324" height="6.021"/>
	
		<rect x="86.71" y="23.36" transform="matrix(0.1489 0.9889 -0.9889 0.1489 98.3993 -67.2791)" opacity="0.5" fill="#70797D" enable-background="new    " width="3.148" height="0.328"/>
	<polygon opacity="0.5" fill="#70797D" enable-background="new    " points="77.479,24.337 78.38,27.353 78.685,27.262 
		77.802,24.242 	"/>
	<polygon opacity="0.5" fill="#70797D" enable-background="new    " points="45.476,42.947 47.651,45.22 47.882,45.001 
		45.718,42.714 	"/>
	<polygon opacity="0.5" fill="#70797D" enable-background="new    " points="72.423,26.031 73.521,28.98 73.825,28.867 
		72.735,25.915 	"/>
	<polygon opacity="0.5" fill="#70797D" enable-background="new    " points="21.755,89.56 24.874,89.973 24.917,89.657 21.8,89.227 
			"/>
	<polygon opacity="0.5" fill="#70797D" enable-background="new    " points="22.634,84.299 25.718,84.923 25.782,84.612 22.7,83.97 
			"/>
	<rect x="17.017" y="100.034" opacity="0.5" fill="#70797D" enable-background="new    " width="7.168" height="0.331"/>
	<polygon opacity="0.5" fill="#70797D" enable-background="new    " points="21.231,94.867 24.372,95.07 24.394,94.751 
		21.253,94.532 	"/>
	<polygon opacity="0.5" fill="#70797D" enable-background="new    " points="25.454,74.017 28.425,75.054 28.53,74.753 
		25.565,73.701 	"/>
	
		<rect x="29.534" y="64.635" transform="matrix(0.8898 0.4564 -0.4564 0.8898 33.005 -7.0548)" opacity="0.5" fill="#70797D" enable-background="new    " width="3.146" height="0.323"/>
	<polygon opacity="0.5" fill="#70797D" enable-background="new    " points="38.282,50.81 40.741,52.775 40.944,52.525 
		38.491,50.551 	"/>
	<polygon opacity="0.5" fill="#70797D" enable-background="new    " points="27.376,69.052 30.271,70.287 30.397,69.994 
		27.507,68.749 	"/>
	<polygon opacity="0.5" fill="#70797D" enable-background="new    " points="35.101,55.085 37.685,56.88 37.87,56.617 35.29,54.814 
			"/>
	<polygon opacity="0.5" fill="#70797D" enable-background="new    " points="32.212,59.563 34.911,61.181 35.077,60.906 
		32.382,59.281 	"/>
	<polygon opacity="0.5" fill="#70797D" enable-background="new    " points="41.745,46.759 44.071,48.88 44.284,48.646 
		41.972,46.512 	"/>
	<polygon opacity="0.5" fill="#70797D" enable-background="new    " points="23.868,79.11 26.903,79.943 26.989,79.634 
		23.958,78.791 	"/>
	
		<rect x="168.509" y="66.891" transform="matrix(-0.9045 0.4265 -0.4265 -0.9045 352.5177 55.1661)" opacity="0.5" fill="#70797D" enable-background="new    " width="3.146" height="0.326"/>
	
		<rect x="170.575" y="71.701" transform="matrix(-0.9313 0.3642 -0.3642 -0.9313 358.6469 76.094)" opacity="0.5" fill="#70797D" enable-background="new    " width="3.148" height="0.326"/>
	<polygon opacity="0.5" fill="#70797D" enable-background="new    " points="168.982,61.492 166.236,63.027 166.391,63.306 
		169.145,61.783 	"/>
	<polygon opacity="0.5" fill="#70797D" enable-background="new    " points="160.637,54.453 160.828,54.705 163.352,52.828 
		163.15,52.556 	"/>
	
		<rect x="163.405" y="57.762" transform="matrix(-0.8384 0.545 -0.545 -0.8384 334.87 16.5717)" opacity="0.5" fill="#70797D" enable-background="new    " width="3.147" height="0.326"/>
	
		<rect x="172.328" y="76.635" transform="matrix(-0.9547 0.2975 -0.2975 -0.9547 362.7754 98.3849)" opacity="0.5" fill="#70797D" enable-background="new    " width="3.146" height="0.327"/>
	<rect x="175.818" y="100.034" opacity="0.5" fill="#70797D" enable-background="new    " width="7.166" height="0.331"/>
	
		<rect x="173.706" y="81.682" transform="matrix(-0.9725 0.2327 -0.2327 -0.9725 364.7936 120.6461)" opacity="0.5" fill="#70797D" enable-background="new    " width="3.147" height="0.325"/>
	<polygon opacity="0.5" fill="#70797D" enable-background="new    " points="178.975,96.736 178.963,96.401 175.816,96.515 
		175.828,96.833 	"/>
	<polygon opacity="0.5" fill="#70797D" enable-background="new    " points="157.418,50.464 157.625,50.705 160.018,48.661 
		159.799,48.407 	"/>
	<polygon opacity="0.5" fill="#70797D" enable-background="new    " points="178.592,91.816 175.461,92.14 175.492,92.457 
		178.627,92.149 	"/>
	<polygon opacity="0.5" fill="#70797D" enable-background="new    " points="177.863,86.533 174.762,87.067 174.814,87.382 
		177.92,86.863 	"/>
	<polygon opacity="0.5" fill="#70797D" enable-background="new    " points="150.221,43.193 150.455,43.4 152.549,41.05 
		152.295,40.826 	"/>
	<polygon opacity="0.5" fill="#70797D" enable-background="new    " points="118.855,26.566 119.162,26.646 119.957,23.6 
		119.633,23.517 	"/>
	<polygon opacity="0.5" fill="#70797D" enable-background="new    " points="153.941,46.707 154.164,46.933 156.41,44.729 
		156.174,44.489 	"/>
	
		<rect x="108.969" y="21.591" transform="matrix(0.9931 0.1174 -0.1174 0.9931 3.473 -12.648)" opacity="0.5" fill="#70797D" enable-background="new    " width="0.325" height="3.149"/>
	<polygon opacity="0.5" fill="#70797D" enable-background="new    " points="113.85,25.469 114.166,25.529 114.75,22.435 
		114.426,22.375 	"/>
	<polygon opacity="0.5" fill="#70797D" enable-background="new    " points="128.576,29.767 128.871,29.886 130.068,26.976 
		129.758,26.849 	"/>
	<polygon opacity="0.5" fill="#70797D" enable-background="new    " points="123.77,28.001 124.072,28.101 125.068,25.116 
		124.75,25.011 	"/>
	<polygon opacity="0.5" fill="#70797D" enable-background="new    " points="103.684,24.3 104.004,24.318 104.166,21.173 
		103.836,21.157 	"/>
	<polygon opacity="0.5" fill="#70797D" enable-background="new    " points="146.268,39.93 146.52,40.125 148.451,37.64 
		148.188,37.436 	"/>
	<polygon opacity="0.5" fill="#70797D" enable-background="new    " points="137.762,34.248 138.037,34.407 139.619,31.685 
		139.328,31.518 	"/>
	<polygon opacity="0.5" fill="#70797D" enable-background="new    " points="142.107,36.945 142.373,37.123 144.135,34.513 
		143.855,34.328 	"/>
	<polygon opacity="0.5" fill="#70797D" enable-background="new    " points="133.244,31.851 133.533,31.992 134.92,29.167 
		134.623,29.023 	"/>
	<polygon opacity="0.5" fill="#70797D" enable-background="new    " points="178.246,110.809 175.127,110.396 175.084,110.713 
		178.201,111.143 	"/>
	<polygon opacity="0.5" fill="#70797D" enable-background="new    " points="177.367,116.07 174.283,115.445 174.219,115.758 
		177.301,116.398 	"/>
	<polygon opacity="0.5" fill="#70797D" enable-background="new    " points="178.77,105.502 175.629,105.299 175.607,105.617 
		178.748,105.838 	"/>
	<polygon opacity="0.5" fill="#70797D" enable-background="new    " points="174.547,126.352 171.576,125.314 171.471,125.615 
		174.436,126.668 	"/>
	
		<rect x="167.309" y="135.41" transform="matrix(-0.8895 -0.457 0.457 -0.8895 257.1411 333.3362)" opacity="0.5" fill="#70797D" enable-background="new    " width="3.146" height="0.323"/>
	<polygon opacity="0.5" fill="#70797D" enable-background="new    " points="172.625,131.316 169.73,130.082 169.604,130.375 
		172.494,131.621 	"/>
	<polygon opacity="0.5" fill="#70797D" enable-background="new    " points="167.789,140.807 165.09,139.188 164.924,139.463 
		167.619,141.088 	"/>
	<polygon opacity="0.5" fill="#70797D" enable-background="new    " points="176.133,121.26 173.098,120.426 173.012,120.734 
		176.043,121.578 	"/>
	
		<rect x="28.346" y="133.15" transform="matrix(0.9045 -0.4265 0.4265 0.9045 -53.9983 25.4922)" opacity="0.5" fill="#70797D" enable-background="new    " width="3.146" height="0.326"/>
	
		<rect x="26.277" y="128.345" transform="matrix(0.9313 -0.3642 0.3642 0.9313 -44.8912 18.9702)" opacity="0.5" fill="#70797D" enable-background="new    " width="3.148" height="0.325"/>
	<polygon opacity="0.5" fill="#70797D" enable-background="new    " points="31.02,138.877 33.766,137.342 33.611,137.063 
		30.857,138.586 	"/>
	
		<rect x="33.434" y="142.287" transform="matrix(0.8382 -0.5454 0.5454 0.8382 -72.0223 42.1399)" opacity="0.5" fill="#70797D" enable-background="new    " width="3.148" height="0.326"/>
	
		<rect x="24.53" y="123.399" transform="matrix(0.9548 -0.2974 0.2974 0.9548 -35.5611 13.3511)" opacity="0.5" fill="#70797D" enable-background="new    " width="3.146" height="0.326"/>
	
		<rect x="23.146" y="118.37" transform="matrix(0.9725 -0.2327 0.2327 0.9725 -26.9083 9.0081)" opacity="0.5" fill="#70797D" enable-background="new    " width="3.147" height="0.325"/>
	<polygon opacity="0.5" fill="#70797D" enable-background="new    " points="21.027,103.633 21.039,103.969 24.186,103.854 
		24.174,103.535 	"/>
	<polygon opacity="0.5" fill="#70797D" enable-background="new    " points="21.41,108.553 24.541,108.229 24.51,107.912 
		21.375,108.221 	"/>
	<polygon opacity="0.5" fill="#70797D" enable-background="new    " points="22.139,113.836 25.24,113.303 25.188,112.986 
		22.082,113.506 	"/>
</g>
<rect x="47" y="156.048" fill="#FFFFFF" width="106" height="14"/>
<g>
	<text transform="matrix(1 0 0 1 59.1245 168.4658)" font-family="'ArialMT'" font-size="14">00000000.00</text>
</g>
<path fill="#DFE2E5" d="M66.66,121.676c-4.063-6.236-6.432-13.677-6.432-21.677c0-21.965,17.807-39.771,39.771-39.771
	c21.967,0,39.771,17.807,39.771,39.771c0,7.506-2.088,14.522-5.703,20.512l30.19,18.175c6.818-11.299,10.761-24.527,10.761-38.689
	c0-41.43-33.586-75.019-75.02-75.019c-41.434,0-75.018,33.591-75.018,75.021c0,15.088,4.47,29.124,12.133,40.889L66.66,121.676z"/>
<g>
	<polygon fill="#EF5B5B" points="99.939,92.778 165.077,99.759 99.967,107.22 	"/>
	<path fill="#FFFFFF" d="M100.19,93.057l62.619,6.711l-62.592,7.172L100.19,93.057 M99.689,92.5l0.029,15l67.628-7.749L99.689,92.5
		L99.689,92.5z"/>
</g>
<circle fill="#EF5B5B" cx="100" cy="100.001" r="17.5"/>
<rect x="168.152" y="99" fill="#42BCF4" width="10" height="2"/>
</svg>
