<?xml version="1.0" encoding="utf-8"?>
<!--
  - This file is part of StyleBI.
  - Copyright (C) 2024  InetSoft Technology
  -
  - This program is free software: you can redistribute it and/or modify
  - it under the terms of the GNU Affero General Public License as published by
  - the Free Software Foundation, either version 3 of the License, or
  - (at your option) any later version.
  -
  - This program is distributed in the hope that it will be useful,
  - but WITHOUT ANY WARRANTY; without even the implied warranty of
  - MERCHANTABILITY or FITNESS FOR A PARTICULAR PURPOSE.  See the
  - GNU Affero General Public License for more details.
  -
  - You should have received a copy of the GNU Affero General Public License
  - along with this program.  If not, see <https://www.gnu.org/licenses/>.
  -->

<!-- Generator: Adobe Illustrator 15.0.0, SVG Export Plug-In . SVG Version: 6.00 Build 0)  -->
<!DOCTYPE svg PUBLIC "-//W3C//DTD SVG 1.1//EN" "http://www.w3.org/Graphics/SVG/1.1/DTD/svg11.dtd">
<svg version="1.1" id="图层_1" xmlns="http://www.w3.org/2000/svg" xmlns:xlink="http://www.w3.org/1999/xlink" x="0px" y="0px"
	 width="200px" height="200px" viewBox="0 0 200 200" enable-background="new 0 0 200 200" xml:space="preserve">
<g>
	<path fill="#FFFFFF" d="M100,199.502c-54.864,0-99.5-44.637-99.5-99.5c0-54.864,44.636-99.5,99.5-99.5s99.5,44.635,99.5,99.5
		C199.5,154.865,154.864,199.502,100,199.502z"/>
	<path fill="#00B7FF" d="M100,1.002c54.589,0,99,44.411,99,99c0,54.588-44.411,99-99,99s-99-44.412-99-99
		C1,45.413,45.411,1.002,100,1.002 M100,0.002c-55.229,0-100,44.773-100,100c0,55.229,44.771,100,100,100
		c55.229,0,100-44.771,100-100C200,44.775,155.229,0.002,100,0.002L100,0.002z"/>
</g>
<path fill="#DFE2E5" d="M66.081,120.472c-3.604-5.983-5.68-12.991-5.68-20.485c0-21.959,17.802-39.761,39.762-39.761
	s39.762,17.802,39.762,39.761c0,7.433-2.044,14.385-5.593,20.335l30.104,18.348c6.813-11.295,10.736-24.529,10.736-38.684
	c0-41.425-33.582-75.007-75.009-75.007S25.154,58.561,25.154,99.985c0,14.143,3.918,27.367,10.721,38.657L66.081,120.472z"/>
</svg>
