<?xml version="1.0" encoding="utf-8"?>
<!--
  - This file is part of StyleBI.
  - Copyright (C) 2024  InetSoft Technology
  -
  - This program is free software: you can redistribute it and/or modify
  - it under the terms of the GNU Affero General Public License as published by
  - the Free Software Foundation, either version 3 of the License, or
  - (at your option) any later version.
  -
  - This program is distributed in the hope that it will be useful,
  - but WITHOUT ANY WARRANTY; without even the implied warranty of
  - MERCHANTABILITY or FITNESS FOR A PARTICULAR PURPOSE.  See the
  - GNU Affero General Public License for more details.
  -
  - You should have received a copy of the GNU Affero General Public License
  - along with this program.  If not, see <https://www.gnu.org/licenses/>.
  -->

<!-- Generator: Adobe Illustrator 15.0.0, SVG Export Plug-In . SVG Version: 6.00 Build 0)  -->
<!DOCTYPE svg PUBLIC "-//W3C//DTD SVG 1.1//EN" "http://www.w3.org/Graphics/SVG/1.1/DTD/svg11.dtd">
<svg version="1.1" id="图层_1" xmlns="http://www.w3.org/2000/svg" xmlns:xlink="http://www.w3.org/1999/xlink" x="0px" y="0px"
	 width="200px" height="200px" viewBox="0 0 200 200" enable-background="new 0 0 200 200" xml:space="preserve">
<circle fill="#42BCF4" cx="100" cy="100.001" r="100.001"/>
<path fill="#FFFFFF" d="M3.644,99.362C3.998,46.147,47.419,3.293,100.638,3.646c53.215,0.351,96.071,43.774,95.718,96.991
	c-0.35,53.214-43.775,96.069-96.992,95.718C46.15,196.003,3.294,152.578,3.644,99.362z"/>
<g>
	<path fill="#AFAFAF" d="M41.759,67.867l-4.042-2.328c-0.08,0.132-0.155,0.271-0.234,0.404l4.044,2.334
		C41.602,68.133,41.682,68.006,41.759,67.867z"/>
	<path fill="#AFAFAF" d="M39.554,72.009l-4.193-2.045c-0.069,0.145-0.137,0.283-0.203,0.427l4.191,2.045
		C39.421,72.291,39.486,72.159,39.554,72.009z"/>
	<path fill="#AFAFAF" d="M38.564,74.136l-4.265-1.897c-0.063,0.146-0.125,0.287-0.193,0.424l4.267,1.902
		C38.435,74.421,38.5,74.278,38.564,74.136z"/>
	<path fill="#AFAFAF" d="M59.017,48.161l-2.875-3.675c-0.123,0.098-0.245,0.194-0.37,0.292l2.875,3.675
		C58.772,48.357,58.894,48.259,59.017,48.161z"/>
	<path fill="#AFAFAF" d="M40.622,69.92L36.5,67.731c-0.076,0.135-0.151,0.274-0.223,0.411l4.12,2.194
		C40.471,70.195,40.546,70.058,40.622,69.92z"/>
	<path fill="#AFAFAF" d="M34.754,85.215l-4.527-1.125c-0.04,0.15-0.08,0.301-0.117,0.454l4.529,1.128
		C34.677,85.516,34.716,85.367,34.754,85.215z"/>
	<path fill="#AFAFAF" d="M35.363,82.949l-4.487-1.29c-0.042,0.155-0.088,0.306-0.127,0.457l4.485,1.286
		C35.275,83.248,35.317,83.097,35.363,82.949z"/>
	<path fill="#AFAFAF" d="M36.808,78.487l-4.386-1.595c-0.053,0.145-0.107,0.294-0.161,0.439l4.388,1.597
		C36.699,78.777,36.754,78.632,36.808,78.487z"/>
	<path fill="#AFAFAF" d="M34.229,87.5l-4.567-0.97c-0.034,0.158-0.062,0.312-0.094,0.464l4.567,0.968
		C34.166,87.811,34.196,87.653,34.229,87.5z"/>
	<path fill="#AFAFAF" d="M36.043,80.703l-4.442-1.441c-0.045,0.148-0.093,0.3-0.141,0.448l4.44,1.438
		C35.949,81,35.993,80.854,36.043,80.703z"/>
	<path fill="#AFAFAF" d="M50.382,56.104l-3.469-3.122c-0.105,0.115-0.209,0.232-0.316,0.35l3.47,3.12
		C50.171,56.336,50.275,56.22,50.382,56.104z"/>
	<path fill="#AFAFAF" d="M53.67,52.746l-3.241-3.351c-0.114,0.107-0.229,0.214-0.34,0.323l3.241,3.357
		C53.444,52.967,53.557,52.858,53.67,52.746z"/>
	<path fill="#AFAFAF" d="M51.996,54.395l-3.358-3.233c-0.109,0.109-0.221,0.223-0.328,0.336l3.358,3.235
		C51.777,54.618,51.885,54.506,51.996,54.395z"/>
	<path fill="#AFAFAF" d="M33.786,89.805l-4.595-0.806c-0.026,0.154-0.056,0.306-0.083,0.464l4.595,0.809
		C33.729,90.116,33.756,89.963,33.786,89.805z"/>
	<path fill="#AFAFAF" d="M55.398,51.161l-3.124-3.471c-0.117,0.104-0.231,0.208-0.346,0.315l3.122,3.465
		C55.164,51.368,55.281,51.26,55.398,51.161z"/>
	<path fill="#AFAFAF" d="M57.184,49.636l-2.998-3.579c-0.124,0.102-0.243,0.199-0.362,0.301l3,3.571
		C56.943,49.828,57.064,49.732,57.184,49.636z"/>
	<path fill="#AFAFAF" d="M47.33,59.683l-3.679-2.87c-0.095,0.119-0.192,0.244-0.288,0.367l3.678,2.869
		C47.135,59.929,47.232,59.807,47.33,59.683z"/>
	<path fill="#AFAFAF" d="M45.901,61.551l-3.778-2.743c-0.092,0.127-0.187,0.252-0.281,0.378l3.778,2.739
		C45.711,61.801,45.807,61.678,45.901,61.551z"/>
	<path fill="#AFAFAF" d="M44.535,63.466l-3.869-2.607c-0.092,0.131-0.175,0.263-0.265,0.388l3.871,2.61
		C44.359,63.727,44.445,63.596,44.535,63.466z"/>
	<path fill="#AFAFAF" d="M48.825,57.867l-3.574-2.999c-0.102,0.12-0.205,0.238-0.307,0.358l3.577,2.999
		C48.621,58.104,48.724,57.985,48.825,57.867z"/>
	<path fill="#AFAFAF" d="M42.968,65.859l-3.96-2.472c-0.082,0.131-0.167,0.268-0.247,0.396l3.957,2.476
		C42.798,66.124,42.884,65.988,42.968,65.859z"/>
	<path fill="#AFAFAF" d="M37.645,76.292l-4.328-1.747c-0.06,0.148-0.113,0.293-0.173,0.441l4.328,1.747
		C37.532,76.584,37.585,76.439,37.645,76.292z"/>
	<path fill="#AFAFAF" d="M33.417,92.127L28.8,91.479c-0.024,0.152-0.046,0.308-0.064,0.466l4.621,0.647
		C33.378,92.436,33.396,92.281,33.417,92.127z"/>
	<path fill="#AFAFAF" d="M32.806,99.177c0-0.014,0-0.024,0.002-0.035l-4.665-0.161c0,0.011-0.002,0.022-0.002,0.037
		c-0.004,0.142-0.004,0.288-0.01,0.433l4.665,0.161C32.798,99.467,32.8,99.322,32.806,99.177z"/>
	<path fill="#AFAFAF" d="M32.771,101.491h-4.669c0,0.156,0.002,0.313,0.002,0.474l4.667-0.002
		C32.771,101.805,32.768,101.646,32.771,101.491z"/>
	<path fill="#AFAFAF" d="M32.933,96.797l-4.652-0.323c-0.012,0.155-0.026,0.313-0.036,0.469l4.657,0.323
		C32.909,97.106,32.923,96.951,32.933,96.797z"/>
	<path fill="#AFAFAF" d="M33.136,94.455l-4.641-0.485c-0.016,0.156-0.03,0.313-0.045,0.471l4.638,0.484
		C33.106,94.771,33.12,94.615,33.136,94.455z"/>
	<path fill="#AFAFAF" d="M154.513,61.896l3.773-2.746c-0.094-0.125-0.186-0.248-0.279-0.376l-3.775,2.74
		C154.325,61.642,154.423,61.769,154.513,61.896z"/>
	<path fill="#AFAFAF" d="M160.79,72.399l4.195-2.048c-0.07-0.138-0.139-0.282-0.207-0.42l-4.191,2.047
		C160.655,72.116,160.726,72.262,160.79,72.399z"/>
	<path fill="#AFAFAF" d="M159.511,69.864l4.115-2.19c-0.072-0.141-0.146-0.276-0.221-0.415l-4.121,2.189
		C159.358,69.589,159.435,69.719,159.511,69.864z"/>
	<path fill="#AFAFAF" d="M162.675,76.694l4.324-1.747c-0.059-0.145-0.117-0.293-0.172-0.436l-4.328,1.747
		C162.56,76.399,162.616,76.553,162.675,76.694z"/>
	<path fill="#AFAFAF" d="M161.774,74.535l4.26-1.904c-0.061-0.142-0.127-0.287-0.191-0.427l-4.26,1.896
		C161.644,74.248,161.708,74.387,161.774,74.535z"/>
	<path fill="#AFAFAF" d="M163.505,78.89l4.385-1.596c-0.055-0.15-0.109-0.296-0.164-0.443l-4.385,1.596
		C163.396,78.599,163.45,78.742,163.505,78.89z"/>
	<path fill="#AFAFAF" d="M158.36,67.807l4.043-2.324c-0.082-0.145-0.16-0.282-0.234-0.415l-4.043,2.33
		C158.208,67.536,158.284,67.674,158.36,67.807z"/>
	<path fill="#AFAFAF" d="M153.091,60.021l3.676-2.872c-0.098-0.125-0.191-0.249-0.291-0.373l-3.674,2.874
		C152.896,59.772,152.995,59.896,153.091,60.021z"/>
	<path fill="#AFAFAF" d="M151.61,58.192l3.57-2.999c-0.098-0.123-0.199-0.238-0.303-0.357l-3.57,3.001
		C151.409,57.948,151.511,58.071,151.61,58.192z"/>
	<path fill="#AFAFAF" d="M150.067,56.419l3.465-3.118c-0.107-0.117-0.215-0.232-0.316-0.349l-3.469,3.125
		C149.853,56.195,149.966,56.305,150.067,56.419z"/>
	<path fill="#AFAFAF" d="M155.858,63.822l3.869-2.61c-0.088-0.13-0.176-0.265-0.266-0.39l-3.865,2.612
		C155.687,63.56,155.776,63.693,155.858,63.822z"/>
	<path fill="#AFAFAF" d="M157.147,65.791l3.959-2.474c-0.086-0.136-0.17-0.265-0.254-0.395l-3.955,2.472
		C156.979,65.529,157.065,65.655,157.147,65.791z"/>
	<path fill="#AFAFAF" d="M167.267,97.218l4.65-0.323c-0.006-0.154-0.018-0.311-0.027-0.467l-4.656,0.326
		C167.245,96.91,167.257,97.065,167.267,97.218z"/>
	<path fill="#AFAFAF" d="M166.81,92.552l4.613-0.651c-0.018-0.155-0.037-0.313-0.059-0.466l-4.617,0.647
		C166.767,92.238,166.782,92.396,166.81,92.552z"/>
	<path fill="#AFAFAF" d="M164.249,81.112l4.439-1.44c-0.049-0.152-0.096-0.3-0.143-0.449l-4.438,1.442
		C164.159,80.81,164.204,80.966,164.249,81.112z"/>
	<path fill="#AFAFAF" d="M167.368,99.568l4.66-0.165c0-0.153-0.006-0.315-0.01-0.468l-4.664,0.163
		C167.362,99.258,167.364,99.413,167.368,99.568z"/>
	<path fill="#AFAFAF" d="M167.397,101.915h4.662c0.002-0.156,0-0.313,0-0.469l-4.666,0.002
		C167.394,101.603,167.397,101.759,167.397,101.915z"/>
	<path fill="#AFAFAF" d="M167.075,94.885l4.639-0.495c-0.016-0.153-0.027-0.309-0.047-0.463l-4.639,0.488
		C167.044,94.569,167.062,94.728,167.075,94.885z"/>
	<path fill="#AFAFAF" d="M166.462,90.229l4.594-0.812c-0.027-0.155-0.055-0.308-0.086-0.461l-4.592,0.809
		C166.405,89.919,166.433,90.075,166.462,90.229z"/>
	<path fill="#AFAFAF" d="M165.519,85.629l4.523-1.129c-0.039-0.149-0.072-0.302-0.109-0.458l-4.527,1.131
		C165.442,85.327,165.478,85.479,165.519,85.629z"/>
	<path fill="#AFAFAF" d="M164.923,83.361l4.484-1.288c-0.043-0.149-0.088-0.3-0.131-0.453l-4.484,1.288
		C164.837,83.061,164.882,83.21,164.923,83.361z"/>
	<path fill="#AFAFAF" d="M166.028,87.925l4.559-0.974c-0.031-0.152-0.061-0.309-0.094-0.461l-4.563,0.972
		C165.964,87.613,165.991,87.769,166.028,87.925z"/>
	<path fill="#AFAFAF" d="M133.714,43.182l2.328-4.041c-0.133-0.079-0.271-0.157-0.404-0.234l-2.332,4.041
		C133.44,43.028,133.577,43.106,133.714,43.182z"/>
	<path fill="#AFAFAF" d="M75.278,38.911l-1.749-4.327c-0.147,0.059-0.292,0.115-0.438,0.174l1.749,4.326
		C74.986,39.025,75.133,38.971,75.278,38.911z"/>
	<path fill="#AFAFAF" d="M148.462,54.705l3.355-3.243c-0.109-0.112-0.221-0.228-0.328-0.34l-3.352,3.244
		C148.247,54.479,148.354,54.593,148.462,54.705z"/>
	<path fill="#AFAFAF" d="M127.034,34.74c-0.143-0.058-0.293-0.112-0.438-0.169l-1.748,4.326c0.148,0.057,0.293,0.113,0.439,0.171
		L127.034,34.74z"/>
	<path fill="#AFAFAF" d="M79.696,37.335l-1.443-4.437c-0.151,0.047-0.3,0.089-0.447,0.14l1.441,4.437
		C79.394,37.427,79.547,37.384,79.696,37.335z"/>
	<path fill="#AFAFAF" d="M70.984,40.793L68.936,36.6c-0.141,0.066-0.282,0.136-0.423,0.204l2.046,4.193
		C70.7,40.93,70.841,40.859,70.984,40.793z"/>
	<path fill="#AFAFAF" d="M77.472,38.08l-1.595-4.384c-0.151,0.052-0.296,0.108-0.443,0.164l1.596,4.384
		C77.177,38.189,77.324,38.132,77.472,38.08z"/>
	<path fill="#AFAFAF" d="M62.832,45.431l-2.61-3.87c-0.131,0.089-0.258,0.178-0.386,0.264l2.609,3.869
		C62.574,45.605,62.701,45.516,62.832,45.431z"/>
	<path fill="#AFAFAF" d="M68.884,41.843l-2.193-4.12c-0.137,0.07-0.276,0.146-0.414,0.221l2.189,4.118
		C68.606,41.987,68.748,41.917,68.884,41.843z"/>
	<path fill="#AFAFAF" d="M64.809,44.163l-2.475-3.954c-0.132,0.082-0.267,0.16-0.402,0.243l2.478,3.958
		C64.54,44.326,64.675,44.246,64.809,44.163z"/>
	<path fill="#AFAFAF" d="M66.825,42.97l-2.333-4.042c-0.137,0.078-0.272,0.156-0.41,0.236l2.336,4.039
		C66.556,43.126,66.691,43.046,66.825,42.97z"/>
	<path fill="#AFAFAF" d="M73.109,39.813l-1.899-4.264c-0.143,0.063-0.284,0.126-0.427,0.191l1.899,4.262
		C72.825,39.939,72.966,39.874,73.109,39.813z"/>
	<path fill="#AFAFAF" d="M143.31,49.903l2.998-3.576c-0.119-0.101-0.242-0.197-0.363-0.3l-2.998,3.577
		C143.065,49.701,143.19,49.803,143.31,49.903z"/>
	<path fill="#AFAFAF" d="M139.612,47.013l2.742-3.777c-0.129-0.091-0.258-0.181-0.383-0.271l-2.744,3.775
		C139.356,46.831,139.491,46.92,139.612,47.013z"/>
	<path fill="#AFAFAF" d="M141.483,48.429l2.873-3.676c-0.123-0.098-0.244-0.196-0.371-0.291l-2.869,3.676
		C141.241,48.233,141.358,48.334,141.483,48.429z"/>
	<path fill="#AFAFAF" d="M145.081,51.447l3.123-3.471c-0.119-0.106-0.232-0.211-0.35-0.314l-3.123,3.466
		C144.853,51.231,144.966,51.338,145.081,51.447z"/>
	<path fill="#AFAFAF" d="M146.8,53.043l3.24-3.354c-0.113-0.112-0.227-0.218-0.342-0.325l-3.238,3.356
		C146.573,52.829,146.687,52.937,146.8,53.043z"/>
	<path fill="#AFAFAF" d="M135.722,44.388l2.473-3.957c-0.133-0.084-0.268-0.164-0.4-0.245l-2.471,3.957
		C135.456,44.223,135.591,44.304,135.722,44.388z"/>
	<path fill="#AFAFAF" d="M137.688,45.668l2.607-3.867c-0.127-0.087-0.26-0.176-0.389-0.264l-2.609,3.87
		C137.429,45.492,137.558,45.581,137.688,45.668z"/>
	<path fill="#AFAFAF" d="M60.903,46.764l-2.743-3.771c-0.13,0.091-0.257,0.178-0.384,0.271l2.744,3.774
		C60.647,46.944,60.772,46.854,60.903,46.764z"/>
	<path fill="#AFAFAF" d="M131.661,42.044l2.188-4.119c-0.135-0.075-0.273-0.15-0.408-0.223l-2.195,4.121
		C131.386,41.896,131.524,41.972,131.661,42.044z"/>
	<path fill="#AFAFAF" d="M129.573,40.979l2.045-4.195c-0.143-0.066-0.283-0.134-0.426-0.204l-2.049,4.197
		C129.288,40.844,129.431,40.909,129.573,40.979z"/>
	<path fill="#AFAFAF" d="M129.345,35.725c-0.148-0.064-0.287-0.13-0.434-0.195l-1.893,4.267c0.143,0.062,0.283,0.13,0.428,0.191
		L129.345,35.725z"/>
	<path fill="#AFAFAF" d="M119.919,32.298c-0.152-0.043-0.301-0.084-0.453-0.127l-1.283,4.489c0.152,0.04,0.303,0.082,0.451,0.126
		L119.919,32.298z"/>
	<path fill="#AFAFAF" d="M117.493,31.652c-0.152-0.039-0.301-0.079-0.455-0.116l-1.129,4.528c0.16,0.035,0.307,0.077,0.455,0.116
		L117.493,31.652z"/>
	<path fill="#AFAFAF" d="M122.319,33.028c-0.146-0.048-0.299-0.096-0.447-0.143l-1.443,4.439c0.154,0.046,0.301,0.092,0.449,0.142
		L122.319,33.028z"/>
	<path fill="#AFAFAF" d="M124.688,33.848c-0.141-0.053-0.293-0.108-0.438-0.16l-1.598,4.385c0.15,0.053,0.297,0.106,0.441,0.159
		L124.688,33.848z"/>
	<path fill="#AFAFAF" d="M80.204,32.307l1.288,4.487c0.149-0.044,0.3-0.089,0.449-0.133l-1.284-4.483
		C80.503,32.22,80.354,32.265,80.204,32.307z"/>
	<path fill="#AFAFAF" d="M85.075,31.092l0.97,4.566c0.154-0.034,0.305-0.066,0.459-0.098l-0.974-4.563
		C85.381,31.028,85.228,31.061,85.075,31.092z"/>
	<path fill="#AFAFAF" d="M115.046,31.089c-0.152-0.033-0.305-0.062-0.453-0.094l-0.973,4.564c0.152,0.03,0.303,0.06,0.461,0.093
		L115.046,31.089z"/>
	<path fill="#AFAFAF" d="M82.627,31.654l1.131,4.527c0.153-0.038,0.302-0.074,0.457-0.111l-1.131-4.528
		C82.929,31.579,82.78,31.616,82.627,31.654z"/>
	<path fill="#AFAFAF" d="M107.612,29.921c-0.156-0.018-0.32-0.03-0.469-0.047l-0.484,4.64c0.152,0.017,0.311,0.029,0.463,0.048
		L107.612,29.921z"/>
	<path fill="#AFAFAF" d="M102.54,29.565l-0.17,4.663c0.018,0,0.027,0,0.037,0c0.146,0.006,0.295,0.016,0.439,0.021l0.162-4.661
		c-0.146-0.007-0.299-0.016-0.439-0.021C102.558,29.565,102.548,29.565,102.54,29.565z"/>
	<path fill="#AFAFAF" d="M105.108,29.704c-0.152-0.01-0.309-0.025-0.467-0.034l-0.324,4.654c0.156,0.011,0.316,0.023,0.471,0.035
		L105.108,29.704z"/>
	<path fill="#AFAFAF" d="M112.583,30.614c-0.152-0.027-0.311-0.056-0.463-0.08l-0.809,4.596c0.156,0.024,0.307,0.053,0.463,0.081
		L112.583,30.614z"/>
	<path fill="#AFAFAF" d="M110.104,30.221c-0.152-0.02-0.311-0.04-0.465-0.063l-0.648,4.623c0.154,0.02,0.311,0.042,0.465,0.062
		L110.104,30.221z"/>
	<path fill="#AFAFAF" d="M92.506,29.921l0.489,4.639c0.157-0.017,0.313-0.032,0.469-0.05l-0.491-4.639
		C92.819,29.886,92.662,29.903,92.506,29.921z"/>
	<path fill="#AFAFAF" d="M87.536,30.612l0.813,4.599c0.151-0.028,0.306-0.059,0.461-0.084l-0.813-4.597
		C87.844,30.555,87.691,30.587,87.536,30.612z"/>
	<path fill="#AFAFAF" d="M90.017,30.221l0.648,4.622c0.155-0.022,0.312-0.042,0.465-0.061l-0.65-4.622
		C90.328,30.182,90.168,30.199,90.017,30.221z"/>
	<path fill="#AFAFAF" d="M100.028,29.528l0.004,4.664c0.152,0,0.311-0.001,0.469-0.001l-0.004-4.664
		C100.341,29.526,100.183,29.528,100.028,29.528z"/>
	<path fill="#AFAFAF" d="M97.521,29.571l0.162,4.662c0.155-0.007,0.312-0.008,0.467-0.013l-0.165-4.663
		C97.831,29.561,97.674,29.563,97.521,29.571z"/>
	<path fill="#AFAFAF" d="M95.008,29.699l0.328,4.654c0.155-0.012,0.312-0.02,0.467-0.031l-0.326-4.655
		C95.32,29.679,95.167,29.687,95.008,29.699z"/>
	<path fill="#AFAFAF" d="M57.184,49.636L46.898,37.379c-0.119,0.102-0.245,0.199-0.36,0.302l10.285,12.248
		C56.943,49.828,57.064,49.732,57.184,49.636z"/>
	<path fill="#AFAFAF" d="M77.472,38.08l-5.478-15.032c-0.147,0.052-0.294,0.109-0.442,0.161l5.478,15.035
		C77.177,38.189,77.324,38.132,77.472,38.08z"/>
	<path fill="#AFAFAF" d="M41.759,67.867l-13.86-7.992c-0.075,0.135-0.153,0.272-0.231,0.405l13.858,7.997
		C41.602,68.133,41.682,68.006,41.759,67.867z"/>
	<path fill="#AFAFAF" d="M166.462,90.229l15.75-2.783c-0.023-0.153-0.057-0.308-0.084-0.462l-15.75,2.781
		C166.405,89.919,166.433,90.075,166.462,90.229z"/>
	<path fill="#AFAFAF" d="M33.786,89.805L18.03,87.033c-0.03,0.155-0.058,0.309-0.082,0.462l15.755,2.776
		C33.729,90.116,33.756,89.963,33.786,89.805z"/>
	<path fill="#AFAFAF" d="M171.978,59.398l-13.852,7.999c0.082,0.137,0.158,0.276,0.234,0.407l13.85-7.998
		C172.136,59.671,172.056,59.536,171.978,59.398z"/>
	<path fill="#AFAFAF" d="M153.226,37.347l-10.277,12.258c0.117,0.097,0.242,0.198,0.361,0.299l10.277-12.258
		C153.468,37.544,153.347,37.446,153.226,37.347z"/>
	<path fill="#AFAFAF" d="M128.122,23.034l-5.469,15.038c0.15,0.053,0.297,0.106,0.441,0.159l5.469-15.037
		C128.415,23.142,128.271,23.087,128.122,23.034z"/>
	<path fill="#AFAFAF" d="M100.024,18.197l0.008,15.998c0.152-0.003,0.311-0.004,0.469-0.004l-0.01-15.996
		C100.339,18.194,100.179,18.197,100.024,18.197z"/>
	<path fill="#AFAFAF" d="M86.958,27.332l1.392,7.879c0.151-0.028,0.306-0.059,0.461-0.084l-1.392-7.879
		C87.266,27.273,87.108,27.305,86.958,27.332z"/>
	<path fill="#AFAFAF" d="M48.825,57.867l-6.129-5.14c-0.101,0.12-0.205,0.239-0.306,0.356l6.132,5.142
		C48.621,58.104,48.724,57.985,48.825,57.867z"/>
	<path fill="#AFAFAF" d="M66.825,42.97l-4-6.927c-0.135,0.078-0.27,0.157-0.406,0.235l4,6.925
		C66.556,43.126,66.691,43.046,66.825,42.97z"/>
	<path fill="#AFAFAF" d="M167.397,101.915l7.992-0.003c0.004-0.153,0-0.312-0.002-0.468l-7.99,0.004
		C167.394,101.603,167.399,101.759,167.397,101.915z"/>
	<path fill="#AFAFAF" d="M36.808,78.489l-7.52-2.737c-0.053,0.146-0.105,0.296-0.159,0.441l7.52,2.735
		C36.701,78.777,36.754,78.632,36.808,78.489z"/>
	<path fill="#AFAFAF" d="M32.771,101.491l-7.999,0.002c0,0.156,0,0.313,0.002,0.473l7.997-0.003
		C32.771,101.805,32.771,101.646,32.771,101.491z"/>
	<path fill="#AFAFAF" d="M170.856,75.712l-7.516,2.734c0.055,0.151,0.109,0.296,0.164,0.443l7.514-2.738
		C170.966,76.006,170.911,75.858,170.856,75.712z"/>
	<path fill="#AFAFAF" d="M157.433,52.688l-6.125,5.149c0.102,0.111,0.203,0.234,0.303,0.354l6.125-5.14
		C157.636,52.93,157.538,52.809,157.433,52.688z"/>
	<path fill="#AFAFAF" d="M111.312,35.13c0.156,0.024,0.311,0.055,0.463,0.081l1.389-7.879c-0.156-0.027-0.311-0.055-0.467-0.081
		L111.312,35.13z"/>
	<path fill="#AFAFAF" d="M133.306,42.947c0.135,0.081,0.271,0.159,0.408,0.234l3.996-6.929c-0.137-0.077-0.271-0.156-0.408-0.233
		L133.306,42.947z"/>
	<path fill="#AFAFAF" d="M41.526,135.188l-4.044,2.335c0.08,0.133,0.155,0.271,0.234,0.404l4.042-2.329
		C41.682,135.461,41.602,135.334,41.526,135.188z"/>
	<path fill="#AFAFAF" d="M39.349,131.031l-4.191,2.044c0.066,0.145,0.134,0.284,0.203,0.427l4.193-2.044
		C39.486,131.309,39.421,131.176,39.349,131.031z"/>
	<path fill="#AFAFAF" d="M38.373,128.901l-4.267,1.903c0.068,0.137,0.13,0.277,0.193,0.424l4.265-1.898
		C38.5,129.188,38.435,129.045,38.373,128.901z"/>
	<path fill="#AFAFAF" d="M40.397,133.13l-4.12,2.194c0.072,0.137,0.147,0.276,0.223,0.41l4.122-2.188
		C40.546,133.409,40.471,133.271,40.397,133.13z"/>
	<path fill="#AFAFAF" d="M34.639,117.795l-4.529,1.128c0.038,0.153,0.078,0.304,0.117,0.453l4.527-1.125
		C34.716,118.099,34.677,117.951,34.639,117.795z"/>
	<path fill="#AFAFAF" d="M35.233,120.064l-4.485,1.287c0.039,0.15,0.085,0.301,0.127,0.456l4.487-1.29
		C35.317,120.369,35.275,120.218,35.233,120.064z"/>
	<path fill="#AFAFAF" d="M36.649,124.538l-4.388,1.597c0.054,0.146,0.107,0.295,0.161,0.439l4.386-1.595
		C36.754,124.835,36.699,124.689,36.649,124.538z"/>
	<path fill="#AFAFAF" d="M34.136,115.505l-4.567,0.968c0.032,0.152,0.06,0.306,0.094,0.463l4.567-0.969
		C34.196,115.813,34.166,115.656,34.136,115.505z"/>
	<path fill="#AFAFAF" d="M35.9,122.317l-4.44,1.439c0.048,0.148,0.096,0.3,0.141,0.448l4.442-1.441
		C35.993,122.613,35.949,122.466,35.9,122.317z"/>
	<path fill="#AFAFAF" d="M33.703,113.194l-4.595,0.809c0.028,0.158,0.058,0.311,0.083,0.465l4.595-0.807
		C33.756,113.503,33.729,113.351,33.703,113.194z"/>
	<path fill="#AFAFAF" d="M37.472,126.733l-4.328,1.746c0.06,0.149,0.113,0.294,0.173,0.441l4.328-1.746
		C37.585,127.027,37.532,126.883,37.472,126.733z"/>
	<path fill="#AFAFAF" d="M33.357,110.875l-4.621,0.646c0.018,0.159,0.04,0.314,0.064,0.467l4.617-0.648
		C33.396,111.185,33.378,111.03,33.357,110.875z"/>
	<path fill="#AFAFAF" d="M32.796,103.855l-4.665,0.16c0.006,0.145,0.006,0.292,0.01,0.433c0,0.016,0.002,0.027,0.002,0.037
		l4.665-0.16c-0.002-0.01-0.002-0.021-0.002-0.035C32.8,104.144,32.798,103.999,32.796,103.855z"/>
	<path fill="#AFAFAF" d="M32.901,106.2l-4.657,0.324c0.01,0.156,0.024,0.313,0.036,0.468l4.652-0.322
		C32.923,106.516,32.909,106.36,32.901,106.2z"/>
	<path fill="#AFAFAF" d="M33.088,108.541l-4.638,0.484c0.016,0.158,0.03,0.315,0.045,0.472l4.641-0.485
		C33.12,108.852,33.106,108.695,33.088,108.541z"/>
	<path fill="#AFAFAF" d="M160.587,131.487l4.191,2.047c0.068-0.137,0.137-0.282,0.207-0.419l-4.195-2.048
		C160.726,131.204,160.655,131.351,160.587,131.487z"/>
	<path fill="#AFAFAF" d="M159.284,134.018l4.121,2.19c0.074-0.14,0.148-0.274,0.221-0.415l-4.115-2.19
		C159.435,133.748,159.358,133.878,159.284,134.018z"/>
	<path fill="#AFAFAF" d="M162.499,127.209l4.328,1.745c0.055-0.142,0.113-0.291,0.172-0.436l-4.324-1.746
		C162.616,126.914,162.56,127.067,162.499,127.209z"/>
	<path fill="#AFAFAF" d="M161.583,129.367l4.26,1.896c0.064-0.14,0.131-0.285,0.191-0.427l-4.26-1.904
		C161.708,129.08,161.644,129.219,161.583,129.367z"/>
	<path fill="#AFAFAF" d="M163.341,125.021l4.385,1.595c0.055-0.147,0.109-0.292,0.164-0.443l-4.385-1.595
		C163.45,124.725,163.396,124.868,163.341,125.021z"/>
	<path fill="#AFAFAF" d="M158.126,136.068l4.043,2.331c0.074-0.134,0.152-0.271,0.234-0.415l-4.043-2.324
		C158.284,135.793,158.208,135.931,158.126,136.068z"/>
	<path fill="#AFAFAF" d="M167.233,106.713l4.656,0.325c0.01-0.156,0.021-0.312,0.027-0.466l-4.65-0.324
		C167.257,106.401,167.245,106.556,167.233,106.713z"/>
	<path fill="#AFAFAF" d="M166.747,111.385l4.617,0.647c0.021-0.153,0.041-0.311,0.059-0.467l-4.613-0.65
		C166.782,111.071,166.767,111.228,166.747,111.385z"/>
	<path fill="#AFAFAF" d="M164.108,122.801l4.438,1.443c0.047-0.149,0.094-0.297,0.143-0.449l-4.439-1.441
		C164.204,122.501,164.159,122.657,164.108,122.801z"/>
	<path fill="#AFAFAF" d="M167.354,104.368l4.664,0.163c0.004-0.153,0.01-0.313,0.01-0.469l-4.66-0.164
		C167.364,104.053,167.362,104.209,167.354,104.368z"/>
	<path fill="#AFAFAF" d="M167.028,109.052l4.639,0.488c0.02-0.155,0.031-0.31,0.047-0.464l-4.639-0.494
		C167.062,108.738,167.044,108.897,167.028,109.052z"/>
	<path fill="#AFAFAF" d="M166.378,113.702l4.592,0.808c0.031-0.153,0.059-0.305,0.086-0.46l-4.594-0.813
		C166.433,113.392,166.405,113.548,166.378,113.702z"/>
	<path fill="#AFAFAF" d="M165.405,118.294l4.527,1.13c0.037-0.155,0.07-0.308,0.109-0.457l-4.523-1.129
		C165.478,117.987,165.442,118.14,165.405,118.294z"/>
	<path fill="#AFAFAF" d="M164.792,120.559l4.484,1.287c0.043-0.151,0.088-0.304,0.131-0.452l-4.484-1.288
		C164.882,120.256,164.837,120.406,164.792,120.559z"/>
	<path fill="#AFAFAF" d="M165.931,116.005l4.563,0.972c0.033-0.152,0.063-0.309,0.094-0.462l-4.559-0.972
		C165.991,115.698,165.964,115.854,165.931,116.005z"/>
	<path fill="#AFAFAF" d="M41.526,135.188l-13.858,7.998c0.078,0.133,0.156,0.27,0.231,0.404l13.86-7.992
		C41.682,135.461,41.602,135.334,41.526,135.188z"/>
	<path fill="#AFAFAF" d="M166.378,113.702l15.75,2.781c0.027-0.154,0.061-0.31,0.084-0.463l-15.75-2.783
		C166.433,113.392,166.405,113.548,166.378,113.702z"/>
	<path fill="#AFAFAF" d="M33.703,113.194l-15.755,2.777c0.024,0.153,0.052,0.307,0.082,0.461l15.756-2.771
		C33.756,113.503,33.729,113.351,33.703,113.194z"/>
	<path fill="#AFAFAF" d="M172.21,143.66l-13.85-7.998c-0.076,0.131-0.152,0.271-0.234,0.406l13.852,8
		C172.056,143.93,172.136,143.796,172.21,143.66z"/>
	<path fill="#AFAFAF" d="M36.649,124.538l-7.52,2.735c0.054,0.146,0.106,0.296,0.159,0.441l7.52-2.737
		C36.754,124.835,36.701,124.689,36.649,124.538z"/>
	<path fill="#AFAFAF" d="M171.019,127.315l-7.514-2.738c-0.055,0.147-0.109,0.292-0.164,0.443l7.516,2.734
		C170.911,127.608,170.966,127.461,171.019,127.315z"/>
</g>
<g>
	<path fill="#055B75" d="M15.475,100.531c-1.996,0-3.43,1.798-3.43,5.109c0.028,3.251,1.346,5.049,3.265,5.049
		c2.162,0,3.417-1.844,3.417-5.185C18.728,102.375,17.533,100.531,15.475,100.531z M15.386,109.663
		c-1.209,0-1.994-1.452-1.994-4.008c0-2.674,0.847-4.097,1.994-4.097c1.392,0,1.994,1.588,1.994,4.006
		C17.38,108.075,16.729,109.663,15.386,109.663z M15.314,79.996l0.771-0.726c2.072-1.996,3.388-3.463,3.388-5.276
		c0-1.406-0.893-2.858-3.011-2.858c-1.119,0-2.102,0.44-2.765,0.999l0.421,0.937c0.455-0.378,1.195-0.831,2.088-0.831
		c1.467,0,1.936,0.922,1.936,1.92c0,1.481-1.149,2.752-3.66,5.142l-1.044,1.012v0.817h6.275v-1.104h-4.4V79.996z M24.49,71.136
		c-1.996,0-3.43,1.8-3.43,5.11c0.03,3.252,1.346,5.05,3.264,5.05c2.162,0,3.416-1.844,3.416-5.186
		C27.74,72.98,26.548,71.136,24.49,71.136z M24.4,80.269c-1.209,0-1.994-1.451-1.994-4.006c0-2.677,0.845-4.098,1.994-4.098
		c1.39,0,1.996,1.586,1.996,4.007C26.396,78.681,25.747,80.269,24.4,80.269z M15.314,134.812l0.771-0.726
		c2.072-1.995,3.388-3.462,3.388-5.276c0-1.405-0.893-2.857-3.011-2.857c-1.119,0-2.102,0.439-2.765,0.998l0.421,0.937
		c0.455-0.377,1.195-0.831,2.088-0.831c1.467,0,1.936,0.922,1.936,1.92c0,1.482-1.149,2.753-3.66,5.142l-1.044,1.013v0.817h6.275
		v-1.105h-4.4V134.812z M24.49,125.952c-1.996,0-3.43,1.8-3.43,5.11c0.03,3.251,1.346,5.049,3.264,5.049
		c2.162,0,3.416-1.843,3.416-5.185C27.74,127.797,26.548,125.952,24.49,125.952z M24.4,135.085c-1.209,0-1.994-1.452-1.994-4.007
		c0-2.676,0.845-4.098,1.994-4.098c1.39,0,1.996,1.586,1.996,4.007C26.396,133.495,25.747,135.085,24.4,135.085z M39.189,42.162
		c-1.996,0-3.432,1.8-3.432,5.111c0.028,3.25,1.344,5.049,3.265,5.049c2.161,0,3.417-1.845,3.417-5.186
		C42.439,44.007,41.245,42.162,39.189,42.162z M39.098,51.295c-1.211,0-1.997-1.452-1.997-4.007c0-2.675,0.847-4.098,1.997-4.098
		c1.392,0,1.996,1.588,1.996,4.006C41.094,49.707,40.441,51.295,39.098,51.295z M33.506,42.329h-1.439l-4.384,6.272v0.863h4.567
		v2.69h1.257v-2.69h1.374v-1.027h-1.374V42.329z M32.25,45.155v3.282h-3.219v-0.03l2.404-3.343c0.272-0.451,0.513-0.876,0.815-1.45
		h0.046C32.264,44.128,32.25,44.642,32.25,45.155z"/>
	<path fill="#055B75" d="M61.445,22.006c-1.998,0-3.434,1.8-3.434,5.11c0.031,3.25,1.348,5.049,3.264,5.049
		c2.163,0,3.42-1.843,3.42-5.186C64.696,23.852,63.501,22.006,61.445,22.006z M61.352,31.139c-1.207,0-1.992-1.453-1.992-4.006
		c0-2.677,0.847-4.099,1.992-4.099c1.39,0,1.999,1.588,1.999,4.008C63.35,29.55,62.698,31.139,61.352,31.139z M54.007,25.515
		c-1.09,0-1.921,0.513-2.39,1.148h-0.03c0.229-1.632,1.316-3.145,3.418-3.478c0.377-0.061,0.723-0.091,0.996-0.075v-1.088
		c-0.241,0-0.574,0.015-0.966,0.075c-1.241,0.15-2.329,0.649-3.146,1.451c-0.984,0.968-1.662,2.495-1.662,4.43
		c0,2.556,1.375,4.187,3.459,4.187c2.058,0,3.283-1.662,3.283-3.476C56.97,26.783,55.745,25.515,54.007,25.515z M53.719,31.139
		c-1.404,0-2.163-1.209-2.175-2.828c0-0.241,0.059-0.424,0.133-0.575c0.366-0.725,1.12-1.209,1.923-1.209
		c1.225,0,2.024,0.848,2.024,2.253C55.624,30.187,54.852,31.139,53.719,31.139z M82.222,16.271v-0.046
		c1.21-0.56,1.632-1.465,1.632-2.297c0-1.24-0.966-2.42-2.869-2.42c-1.74,0-3.056,1.06-3.056,2.615c0,0.846,0.469,1.694,1.572,2.208
		l0.016,0.046c-1.211,0.513-1.951,1.405-1.951,2.646c0,1.436,1.239,2.645,3.295,2.645c1.877,0,3.342-1.134,3.342-2.856
		C84.204,17.631,83.449,16.753,82.222,16.271z M79.2,14.034c0-0.849,0.603-1.573,1.709-1.573c1.195,0,1.664,0.816,1.664,1.603
		c0,0.892-0.65,1.497-1.499,1.783C79.939,15.546,79.184,15.016,79.2,14.034z M80.892,20.701c-1.254,0-2.01-0.878-1.964-1.861
		c0-0.936,0.622-1.707,1.767-2.04c1.334,0.377,2.164,0.968,2.164,2.146C82.858,19.96,82.085,20.701,80.892,20.701z M88.738,11.508
		c-1.995,0-3.43,1.799-3.43,5.109c0.03,3.251,1.344,5.051,3.265,5.051c2.164,0,3.416-1.845,3.416-5.186
		C91.988,13.353,90.795,11.508,88.738,11.508z M88.648,20.64c-1.209,0-1.996-1.451-1.996-4.007c0-2.676,0.845-4.096,1.996-4.096
		c1.39,0,1.997,1.586,1.997,4.006C90.645,19.053,89.996,20.64,88.648,20.64z"/>
	<path fill="#055B75" d="M106.743,12.893l0.191,0.759l1.282-0.692h0.022v6.443h0.965V12.03h-0.851L106.743,12.893z M113.294,18.552
		l0.581-0.545c1.553-1.498,2.539-2.598,2.539-3.958c0-1.055-0.669-2.143-2.255-2.143c-0.842,0-1.579,0.328-2.076,0.747l0.316,0.703
		c0.343-0.282,0.895-0.624,1.565-0.624c1.101,0,1.452,0.69,1.452,1.441c0,1.11-0.864,2.063-2.743,3.855l-0.783,0.761v0.612h4.704
		v-0.829h-3.301V18.552z M120.178,11.906c-1.498,0-2.573,1.348-2.573,3.832c0.022,2.439,1.009,3.788,2.447,3.788
		c1.623,0,2.563-1.383,2.563-3.89C122.615,13.288,121.723,11.906,120.178,11.906z M120.11,18.755c-0.907,0-1.497-1.088-1.497-3.007
		c0-2.006,0.636-3.071,1.497-3.071c1.043,0,1.498,1.189,1.498,3.006C121.608,17.565,121.119,18.755,120.11,18.755z M152.932,24.083
		c-1.497,0-2.575,1.35-2.575,3.834c0.024,2.438,1.011,3.788,2.451,3.788c1.623,0,2.563-1.385,2.563-3.89
		C155.371,25.467,154.475,24.083,152.932,24.083z M152.864,30.933c-0.909,0-1.497-1.088-1.497-3.004
		c0-2.009,0.634-3.074,1.497-3.074c1.044,0,1.497,1.19,1.497,3.005C154.361,29.743,153.874,30.933,152.864,30.933z M148.669,24.209
		h-1.075l-3.291,4.706v0.646h3.426v2.019h0.94v-2.019h1.032v-0.77h-1.032V24.209z M147.729,26.328v2.463h-2.418v-0.024l1.806-2.505
		c0.204-0.342,0.384-0.658,0.612-1.09h0.033C147.74,25.559,147.729,25.942,147.729,26.328z M139.497,25.069l0.193,0.761l1.28-0.691
		h0.021v6.44h0.964v-7.37h-0.851L139.497,25.069z M174.35,45.079c-1.498,0-2.573,1.349-2.573,3.833
		c0.02,2.438,1.008,3.79,2.447,3.79c1.62,0,2.562-1.386,2.562-3.892C176.785,46.463,175.89,45.079,174.35,45.079z M174.279,51.929
		c-0.906,0-1.495-1.088-1.495-3.004c0-2.009,0.635-3.074,1.495-3.074c1.046,0,1.499,1.189,1.499,3.004
		C175.778,50.739,175.289,51.929,174.279,51.929z M160.912,46.064l0.192,0.762l1.283-0.691h0.021v6.44h0.963v-7.371h-0.85
		L160.912,46.064z M168.77,47.71c-0.816,0-1.439,0.387-1.793,0.863h-0.022c0.172-1.226,0.988-2.361,2.565-2.609
		c0.284-0.046,0.543-0.067,0.747-0.056V45.09c-0.181,0-0.432,0.012-0.726,0.057c-0.931,0.113-1.748,0.487-2.359,1.09
		c-0.736,0.726-1.249,1.871-1.249,3.323c0,1.916,1.033,3.143,2.599,3.143c1.545,0,2.463-1.249,2.463-2.612
		C170.994,48.663,170.076,47.71,168.77,47.71z M168.553,51.929c-1.054,0-1.62-0.908-1.632-2.12c0-0.183,0.045-0.318,0.102-0.432
		c0.271-0.545,0.839-0.907,1.439-0.907c0.92,0,1.521,0.635,1.521,1.691C169.982,51.215,169.405,51.929,168.553,51.929z"/>
	<path fill="#055B75" d="M187.363,71.534c-1.494,0-2.572,1.348-2.572,3.833c0.021,2.438,1.01,3.788,2.449,3.788
		c1.623,0,2.563-1.384,2.563-3.891C189.803,72.916,188.908,71.534,187.363,71.534z M187.296,78.384
		c-0.907,0-1.495-1.089-1.495-3.005c0-2.009,0.634-3.075,1.495-3.075c1.044,0,1.498,1.192,1.498,3.007
		C188.794,77.193,188.307,78.384,187.296,78.384z M183.863,71.657h-4.649v0.829h3.604v0.022l-3.198,6.521h1.033l3.21-6.715V71.657z
		 M173.928,72.521l0.196,0.761l1.278-0.693h0.026v6.442h0.962v-7.373h-0.851L173.928,72.521z M178.128,100.236l0.193,0.759
		l1.28-0.691h0.026v6.441h0.962v-7.37h-0.85L178.128,100.236z M191.566,99.25c-1.498,0-2.576,1.35-2.576,3.833
		c0.023,2.438,1.012,3.787,2.449,3.787c1.625,0,2.564-1.384,2.564-3.889C194.004,100.635,193.107,99.25,191.566,99.25z
		 M191.497,106.099c-0.907,0-1.495-1.089-1.495-3.005c0-2.009,0.632-3.071,1.495-3.071c1.044,0,1.498,1.188,1.498,3.003
		C192.995,104.907,192.508,106.099,191.497,106.099z M186.68,102.821v-0.034c0.907-0.42,1.225-1.101,1.225-1.725
		c0-0.929-0.728-1.813-2.155-1.813c-1.305,0-2.288,0.793-2.288,1.96c0,0.636,0.349,1.271,1.177,1.656l0.011,0.035
		c-0.907,0.385-1.464,1.055-1.464,1.983c0,1.078,0.933,1.985,2.473,1.985c1.406,0,2.508-0.852,2.508-2.145
		C188.165,103.842,187.597,103.184,186.68,102.821z M184.409,101.144c0-0.637,0.453-1.18,1.282-1.18c0.896,0,1.249,0.613,1.249,1.2
		c0,0.672-0.489,1.124-1.123,1.339C184.966,102.276,184.399,101.88,184.409,101.144z M185.68,106.144
		c-0.938,0-1.507-0.657-1.473-1.395c0-0.703,0.465-1.28,1.326-1.53c0.999,0.283,1.622,0.726,1.622,1.609
		C187.155,105.589,186.576,106.144,185.68,106.144z M170.414,127.272l0.193,0.759l1.279-0.691h0.026v6.442h0.963v-7.371h-0.85
		L170.414,127.272z M183.853,126.286c-1.499,0-2.576,1.35-2.576,3.834c0.023,2.438,1.011,3.787,2.449,3.787
		c1.624,0,2.564-1.385,2.564-3.889C186.29,127.67,185.394,126.286,183.853,126.286z M183.783,133.136
		c-0.907,0-1.496-1.089-1.496-3.006c0-2.008,0.633-3.072,1.496-3.072c1.043,0,1.497,1.189,1.497,3.005
		C185.28,131.944,184.793,133.136,183.783,133.136z M178.965,129.858v-0.034c0.907-0.42,1.225-1.101,1.225-1.725
		c0-0.93-0.728-1.813-2.154-1.813c-1.305,0-2.289,0.793-2.289,1.961c0,0.636,0.349,1.271,1.177,1.656l0.011,0.034
		c-0.907,0.386-1.463,1.055-1.463,1.984c0,1.078,0.932,1.985,2.473,1.985c1.405,0,2.508-0.852,2.508-2.145
		C180.451,130.879,179.882,130.221,178.965,129.858z M176.695,128.18c0-0.637,0.453-1.18,1.282-1.18
		c0.896,0,1.249,0.613,1.249,1.201c0,0.672-0.489,1.124-1.124,1.339C177.252,129.313,176.686,128.915,176.695,128.18z
		 M177.966,133.181c-0.938,0-1.508-0.658-1.474-1.395c0-0.703,0.465-1.28,1.326-1.53c1,0.283,1.622,0.726,1.622,1.609
		C179.44,132.626,178.862,133.181,177.966,133.181z"/>
</g>
<path fill="#009CD3" d="M157.579,166.416c0,1.613-1.313,2.924-2.924,2.924H45.501c-1.613,0-2.922-1.311-2.922-2.924v-15.594
	c0-1.615,1.309-2.926,2.922-2.926h109.154c1.611,0,2.924,1.311,2.924,2.926V166.416z"/>
<rect x="47.08" y="151.617" fill="#FFFFFF" width="106" height="14"/>
<g>
	<text transform="matrix(1 0 0 1 59.2041 164.0352)" font-family="'ArialMT'" font-size="14">00000000.00</text>
</g>
<path fill="#8DD0FC" d="M58.551,124.066c-4.505-7.729-6.765-16.58-6.446-25.742c0.899-25.938,21.915-46.256,47.843-46.256
	c0.564,0,1.127,0.01,1.696,0.029c26.412,0.911,47.16,23.133,46.251,49.536c-0.279,8.136-2.542,15.715-6.306,22.294l4.493,2.585
	c4.172-7.288,6.673-15.688,6.982-24.701c1.008-29.254-21.979-53.875-51.242-54.884c-29.586-1.049-53.871,21.854-54.888,51.216
	c-0.354,10.149,2.148,19.954,7.139,28.517L58.551,124.066z"/>
<polygon fill="#42BCF4" points="105.188,91.927 102.909,107.195 169.316,109.216 "/>
<g>
	<path fill="#055B75" d="M89.711,99.641c0.197-5.679,4.959-10.124,10.639-9.93c5.688,0.197,10.133,4.963,9.938,10.643
		c-0.195,5.684-4.963,10.132-10.649,9.935C93.96,110.093,89.515,105.325,89.711,99.641z"/>
	<path fill="#FFFFFF" d="M93.16,99.761c0.131-3.774,3.296-6.732,7.074-6.601c3.779,0.13,6.734,3.301,6.605,7.073
		c-0.131,3.78-3.299,6.738-7.079,6.606C95.984,106.709,93.028,103.54,93.16,99.761z"/>
</g>
</svg>
