<?xml version="1.0" encoding="utf-8"?>
<!--
  - This file is part of StyleBI.
  - Copyright (C) 2024  InetSoft Technology
  -
  - This program is free software: you can redistribute it and/or modify
  - it under the terms of the GNU Affero General Public License as published by
  - the Free Software Foundation, either version 3 of the License, or
  - (at your option) any later version.
  -
  - This program is distributed in the hope that it will be useful,
  - but WITHOUT ANY WARRANTY; without even the implied warranty of
  - MERCHANTABILITY or FITNESS FOR A PARTICULAR PURPOSE.  See the
  - GNU Affero General Public License for more details.
  -
  - You should have received a copy of the GNU Affero General Public License
  - along with this program.  If not, see <https://www.gnu.org/licenses/>.
  -->

<!-- Generator: Adobe Illustrator 15.0.0, SVG Export Plug-In . SVG Version: 6.00 Build 0)  -->
<!DOCTYPE svg PUBLIC "-//W3C//DTD SVG 1.1//EN" "http://www.w3.org/Graphics/SVG/1.1/DTD/svg11.dtd">
<svg version="1.1" id="图层_1" xmlns="http://www.w3.org/2000/svg" xmlns:xlink="http://www.w3.org/1999/xlink" x="0px" y="0px"
	 width="200px" height="200px" viewBox="0 0 200 200" enable-background="new 0 0 200 200" xml:space="preserve">
<circle fill="#42BCF4" cx="100" cy="100.001" r="100.001"/>
<path fill="#FFFFFF" d="M3.644,99.362C3.998,46.147,47.419,3.293,100.638,3.646c53.215,0.351,96.071,43.774,95.718,96.991
	c-0.35,53.214-43.775,96.069-96.992,95.718C46.15,196.003,3.294,152.578,3.644,99.362z"/>
<path fill="#8DD0FC" d="M58.551,124.066c-4.505-7.729-6.765-16.58-6.446-25.742c0.899-25.938,21.915-46.256,47.843-46.256
	c0.564,0,1.127,0.01,1.696,0.029c26.412,0.911,47.16,23.133,46.251,49.536c-0.279,8.136-2.542,15.715-6.306,22.294l4.493,2.585
	c4.172-7.288,6.673-15.688,6.982-24.701c1.008-29.254-21.979-53.875-51.242-54.884c-29.586-1.049-53.871,21.854-54.888,51.216
	c-0.354,10.149,2.148,19.954,7.139,28.517L58.551,124.066z"/>
</svg>
