<?xml version="1.0" encoding="UTF-8" standalone="no"?>
<!--
  - This file is part of StyleBI.
  - Copyright (C) 2024  InetSoft Technology
  -
  - This program is free software: you can redistribute it and/or modify
  - it under the terms of the GNU Affero General Public License as published by
  - the Free Software Foundation, either version 3 of the License, or
  - (at your option) any later version.
  -
  - This program is distributed in the hope that it will be useful,
  - but WITHOUT ANY WARRANTY; without even the implied warranty of
  - MERCHANTABILITY or FITNESS FOR A PARTICULAR PURPOSE.  See the
  - GNU Affero General Public License for more details.
  -
  - You should have received a copy of the GNU Affero General Public License
  - along with this program.  If not, see <https://www.gnu.org/licenses/>.
  -->

<svg
  xmlns:dc="http://purl.org/dc/elements/1.1/"
  xmlns:cc="http://creativecommons.org/ns#"
  xmlns:rdf="http://www.w3.org/1999/02/22-rdf-syntax-ns#"
  xmlns:svg="http://www.w3.org/2000/svg"
  xmlns="http://www.w3.org/2000/svg"
  xml:space="preserve"
  enable-background="new 0 0 200 200"
  viewBox="0 0 200 200"
  height="200px"
  width="200px"
  y="0px"
  x="0px"
  id="图层_1"
  version="1.1"><metadata
   id="metadata129"><rdf:RDF><cc:Work
       rdf:about=""><dc:format>image/svg+xml</dc:format><dc:type
  rdf:resource="http://purl.org/dc/dcmitype/StillImage"/><dc:title></dc:title></cc:Work></rdf:RDF></metadata>
  <g
    id="g20">
	<text
    transform="translate(32.5825,141.7188)"
    font-size="8.1421"
    id="text2"
    style="font-size:8.14210033px;font-family:ArialMT;fill:#383838">20</text>


    <text
      transform="translate(21.0474,102.9492)"
      font-size="8.1421"
      id="text4"
      style="font-size:8.14210033px;font-family:ArialMT;fill:#383838">40</text>


    <text
      transform="translate(30.5474,64.2734)"
      font-size="8.1421"
      id="text6"
      style="font-size:8.14210033px;font-family:ArialMT;fill:#383838">60</text>


    <text
      transform="translate(58.3657,36.7949)"
      font-size="8.1421"
      id="text8"
      style="font-size:8.14210033px;font-family:ArialMT;fill:#383838">80</text>


    <text
      transform="translate(92.6235,26.5449)"
      font-size="8.1421"
      id="text10"
      style="font-size:8.14210033px;font-family:ArialMT;fill:#383838">100</text>


    <text
      transform="translate(130.9609,36.7949)"
      font-size="8.1421"
      id="text12"
      style="font-size:8.14210033px;font-family:ArialMT;fill:#383838">120</text>


    <text
      transform="translate(157.083,64.2734)"
      font-size="8.1421"
      id="text14"
      style="font-size:8.14210033px;font-family:ArialMT;fill:#383838">140</text>


    <text
      transform="translate(165.5322,102.9492)"
      font-size="8.1421"
      id="text16"
      style="font-size:8.14210033px;font-family:ArialMT;fill:#383838">160</text>


    <text
      transform="translate(155.6934,141.7168)"
      font-size="8.1421"
      id="text18"
      style="font-size:8.14210033px;font-family:ArialMT;fill:#383838">180</text>


</g>
  <polygon
    fill="#FB8D00"
    points="100.514,106.598 100.514,94.06 161.408,100.328 "
    id="polygon22"/>
  <circle
    fill="#48B2F9"
    cx="100.251"
    cy="100.329"
    r="15.167"
    id="circle24"/>
  <g
    id="g32">
	<path
    d="m 165,179.913 c 0,1.661 -1.38,3.006 -3.076,3.006 H 38.076 c -1.698,0 -3.076,-1.346 -3.076,-3.006 v -16.988 c 0,-1.663 1.377,-3.006 3.076,-3.006 h 123.848 c 1.696,0 3.076,1.346 3.076,3.006 z"
    id="path26"
    style="fill:#48b2f9"/>
    <rect
      x="39.033001"
      y="165.13"
      width="121.933"
      height="12.579"
      id="rect28"
      style="fill:#f5f5f5"/>
    <text
      transform="matrix(1.0229,0,0,1,42.978,175.7266)"
      font-size="10.524"
      id="text30"
      style="font-size:10.52400017px;font-family:ArialMT">Value:147 125 556.02</text>


</g>
  <g
    id="g122">
	<path
    style="fill:#48b2f9;stroke:none"
    d="M 100,0 C 99.829632,0 99.660403,0.00500764 99.490234,0.00585938 V 12.140625 c 0.170243,-9.7e-4 0.339296,-0.0059 0.509766,-0.0059 0.16982,0 0.33822,0.0049 0.50781,0.0059 V 0.00585938 C 100.3383,0.00501415 100.16972,0 100,0 Z m -9.949219,0.4921875 c -0.338098,0.0334236 -0.674618,0.0725896 -1.011719,0.109375 l 1.265626,12.0703125 c 0.337079,-0.03703 0.673503,-0.07617 1.011718,-0.109375 z m 19.884769,0 -1.26758,12.0683595 c 0.3382,0.03314 0.67465,0.0724 1.01172,0.109375 l 1.26758,-12.07031262 c -0.33703,-0.0367305 -0.6737,-0.0740518 -1.01172,-0.10742188 z M 120.28516,2.0625 117.76367,13.933594 c 0.33203,0.06822 0.66154,0.144842 0.99219,0.216797 L 121.27734,2.2773438 C 120.94651,2.205591 120.6172,2.130967 120.28516,2.0625 Z M 79.689453,2.06836 C 79.357441,2.136911 79.028066,2.2113661 78.697266,2.2832031 L 81.21875,14.154297 c 0.33048,-0.07202 0.660331,-0.146559 0.992188,-0.214844 z M 69.59375,4.7167969 C 69.270067,4.8200818 68.947242,4.9247649 68.625,5.03125 l 3.748047,11.542969 c 0.321459,-0.106465 0.643704,-0.211614 0.966797,-0.314453 z m 60.83398,0.00781 -3.74804,11.5429681 c 0.32364,0.103104 0.64674,0.20771 0.96875,0.314453 L 131.39648,5.03906 c -0.3222,-0.1065564 -0.64509,-0.2110965 -0.96875,-0.3144531 z m 9.76954,3.6972656 -4.9336,11.0878915 c 0.31124,0.136631 0.62426,0.270029 0.9336,0.410156 L 141.13086,8.8300781 C 140.82175,8.6903096 140.50804,8.5585802 140.19727,8.421875 Z m -80.425786,0.013672 c -0.30993,0.1364629 -0.623366,0.2667397 -0.93164,0.40625 l 4.933594,11.0917975 c 0.308762,-0.14 0.620985,-0.273639 0.93164,-0.410156 z M 149.56445,13.142578 143.5,23.652344 c 0.2948,0.168422 0.58625,0.341944 0.87891,0.513672 l 6.06445,-10.511719 c -0.29253,-0.171377 -0.5845,-0.343241 -0.87891,-0.511719 z m -99.138669,0.0039 c -0.294673,0.16867 -0.586122,0.342097 -0.878906,0.513672 l 6.064453,10.509766 c 0.292357,-0.171594 0.584403,-0.343424 0.878906,-0.511719 z m 107.943359,5.669922 -7.125,9.816406 c 0.27499,0.197904 0.54771,0.398617 0.82031,0.59961 l 7.12891,-9.816406 c -0.27353,-0.20138 -0.54857,-0.40096 -0.82422,-0.59961 z m -116.742187,0.002 c -0.274783,0.198048 -0.547629,0.398849 -0.820312,0.59961 l 7.126953,9.816406 c 0.272602,-0.200998 0.545319,-0.4017 0.820312,-0.599609 z m 124.898437,6.546875 -8.11328,9.019532 c 0.25267,0.225188 0.50777,0.447729 0.75781,0.675781 l 8.11524,-9.019531 c -0.25062,-0.228248 -0.50684,-0.450058 -0.75977,-0.675782 z m -133.068359,0.01563 c -0.253207,0.226078 -0.508882,0.449127 -0.759765,0.677735 l 8.113281,9.017578 c 0.25067,-0.228736 0.506453,-0.451877 0.759765,-0.677734 z m 140.505859,7.34375 -9.01172,8.121094 c 0.22793,0.250188 0.45072,0.504994 0.67578,0.757813 l 9.01172,-8.119141 c -0.22548,-0.252941 -0.44778,-0.509142 -0.67578,-0.759766 z m -147.945312,0.01953 c -0.228258,0.251046 -0.45005,0.50835 -0.675781,0.761718 L 34.351562,41.625 c 0.225584,-0.253558 0.449275,-0.508851 0.677735,-0.759766 z m 154.582032,8.09375 -9.81055,7.132812 c 0.20061,0.272505 0.40013,0.545421 0.59766,0.820313 l 9.81055,-7.132813 c -0.19754,-0.274502 -0.39742,-0.547904 -0.59766,-0.820312 z m -161.199219,0.002 c -0.201087,0.273569 -0.401247,0.548537 -0.59961,0.824218 l 9.808594,7.13086 c 0.198009,-0.275588 0.398506,-0.549078 0.599609,-0.822266 z m 166.951169,8.748047 -10.5039,6.068359 c 0.17112,0.29202 0.34387,0.582794 0.51172,0.876953 l 10.5039,-6.068359 c -0.16801,-0.293983 -0.34082,-0.58485 -0.51172,-0.876953 z m -172.708982,0.0078 c -0.171153,0.292604 -0.34346,0.584417 -0.511719,0.878906 l 10.501953,6.06836 c 0.168256,-0.29497 0.342115,-0.586087 0.513672,-0.878907 z m 177.521482,9.291016 -11.08203,4.9375 c 0.13982,0.308839 0.27186,0.620909 0.4082,0.93164 l 11.08008,-4.9375 c -0.13635,-0.310166 -0.26685,-0.623132 -0.40625,-0.93164 z M 8.8242188,58.914062 c -0.1396632,0.309344 -0.271601,0.622585 -0.4082032,0.933594 l 11.0781254,4.935547 c 0.136128,-0.310541 0.268604,-0.622988 0.408203,-0.931641 z M 5.0351562,68.65625 C 4.9285693,68.979052 4.824086,69.302706 4.7207031,69.626953 l 11.5332029,3.75 c 0.103148,-0.3243 0.20766,-0.648048 0.314453,-0.970703 z m 189.9375038,0.02148 -11.53711,3.75 c 0.10651,0.322102 0.21157,0.645011 0.31445,0.96875 l 11.53516,-3.75 c -0.10307,-0.323489 -0.20625,-0.646698 -0.3125,-0.96875 z m 2.74609,10.080078 -11.86328,2.523438 c 0.072,0.330728 0.14661,0.660082 0.21484,0.992188 l 11.86328,-2.525391 c -0.0683,-0.33138 -0.14325,-0.660061 -0.21484,-0.990235 z m -195.4375,0.002 c -0.072021,0.332181 -0.1480814,0.662691 -0.2167969,0.996093 l 11.8613279,2.523438 c 0.06862,-0.334127 0.144399,-0.665315 0.216797,-0.998047 z m 197.11914,10.349609 -12.06055,1.269531 c 0.0369,0.336332 0.0743,0.672304 0.10743,1.009766 l 12.06054,-1.269531 c -0.0333,-0.337276 -0.0708,-0.673483 -0.10742,-1.009766 z M 0.59765625,89.121094 c -0.0367483,0.337676 -0.0740391,0.674995 -0.10742187,1.013672 L 12.550781,91.402344 c 0.03315,-0.338765 0.07044,-0.676046 0.107422,-1.013672 z M 0.00585938,99.568359 C 0.00500961,99.738528 0,99.907756 0,100.07812 c 0,0.17004 0.00891784,0.33799 0.00976563,0.50782 H 12.134766 c -9.72e-4,-0.17043 -0.0098,-0.33911 -0.0098,-0.50977 0,-0.169799 0.0049,-0.338236 0.0059,-0.507811 z m 187.86133062,0 c 9.6e-4,0.169571 0.006,0.338016 0.006,0.507811 0,0.17068 -0.009,0.33932 -0.01,0.50977 h 12.12695 c 8.6e-4,-0.17045 0.01,-0.33912 0.01,-0.50977 0,-0.16984 -0.005,-0.338168 -0.006,-0.507811 z M 12.5625,108.75977 0.50390625,110.0293 c 0.03326,0.33652 0.0552094,0.67618 0.0917969,1.01172 L 12.65625,109.77148 c -0.03683,-0.3357 -0.06071,-0.67488 -0.09375,-1.01171 z m 174.87109,0.0137 c -0.0331,0.33724 -0.0568,0.67756 -0.0937,1.01367 l 12.0625,1.26758 c 0.0366,-0.33548 0.0604,-0.67525 0.0937,-1.01172 z m -1.37109,9.07031 c -0.0683,0.33234 -0.13114,0.66709 -0.20312,0.99805 l 11.86328,2.52148 c 0.0718,-0.33123 0.13458,-0.6656 0.20312,-0.99805 z m -172.123047,0.0137 -11.861328,2.52344 c 0.068399,0.33162 0.1295,0.66568 0.2011719,0.99609 l 11.8652341,-2.52539 c -0.07185,-0.33028 -0.136946,-0.66248 -0.205078,-0.99414 z m 169.796877,8.90039 c -0.10305,0.32382 -0.20386,0.64853 -0.31055,0.97071 l 11.53516,3.75195 c 0.10661,-0.32259 0.20518,-0.64863 0.30859,-0.97266 z m -167.468752,0.0234 -11.5312499,3.74805 c 0.1031286,0.32301 0.2003313,0.64912 0.3066407,0.9707 l 11.5390622,-3.75 c -0.106699,-0.32204 -0.211386,-0.64507 -0.314453,-0.96875 z m 3.240234,8.59375 -11.0722651,4.93359 c 0.1364463,0.31033 0.2687108,0.62298 0.4082031,0.93164 l 11.082031,-4.9375 c -0.13978,-0.30878 -0.281661,-0.61705 -0.417969,-0.92773 z m 160.964848,0.0254 c -0.13631,0.31031 -0.27235,0.62127 -0.41211,0.92969 l 11.08007,4.9375 c 0.13964,-0.30864 0.27161,-0.62135 0.40821,-0.93164 z m -156.832035,8.19922 -10.494141,6.0625 c 0.167917,0.29385 0.331159,0.59084 0.501954,0.88281 l 10.505859,-6.07031 c -0.171011,-0.29189 -0.345937,-0.58098 -0.513672,-0.875 z m 152.705075,0.002 c -0.16833,0.29499 -0.33618,0.58997 -0.50781,0.88282 l 10.50195,6.06835 c 0.17129,-0.29264 0.33551,-0.59023 0.50391,-0.88476 z"
    id="path34"/>
    <path
      id="path102"
      d="m 100,0 c -0.509155,0 -1.016087,0.0119419 -1.523438,0.01953125 0,0 0,13.53710975 0,13.53710975 0.507801,-0.0088 1.015493,-0.01953 1.525388,-0.01953 0.5084,0 1.01323,0.01079 1.51953,0.01953 0,0 0,-13.53710975 0,-13.53710975 C 101.01478,0.01196131 100.5085,0 100,0 c 0,0 0,0 0,0 m 48.67969,12.646484 c 0,0 -6.76367,11.72461 -6.76367,11.72461 0.88762,0.493243 1.76666,1.000185 2.63476,1.523437 0,0 6.76367,-11.724609 6.76367,-11.724609 -0.86949,-0.521305 -1.74839,-1.028086 -2.63476,-1.523438 0,0 0,0 0,0 m -97.369143,0.0059 c -0.886317,0.495451 -1.765332,1.002035 -2.634766,1.523437 0,0 6.763672,11.726563 6.763672,11.726563 0.868105,-0.523438 1.747137,-1.030011 2.634766,-1.523438 0,0 -6.763672,-11.726562 -6.763672,-11.726562 M 185.83594,48.712931 c 0,0 -11.71485,6.769531 -11.71485,6.769531 0.52282,0.868437 1.02864,1.748756 1.52149,2.636719 0,0 11.71484,-6.769532 11.71484,-6.769532 -0.495,-0.886889 -1.00056,-1.76672 -1.52148,-2.636718 0,0 0,0 0,0 m -171.677737,0.01172 c -0.520975,0.870338 -1.028405,1.749482 -1.523437,2.636719 0,0 11.716796,6.769531 11.716796,6.769531 0.493119,-0.888782 1.000305,-1.767571 1.523438,-2.63676 0,0 -11.716797,-6.76949 -11.716797,-6.76949 M 0.01953125,98.554688 C 0.01195943,99.062042 0,99.568968 0,100.07812 c 0,0.50941 0.02170598,1.0139 0.02929688,1.52149 0,0 13.52343712,0 13.52343712,0 -0.0088,-0.50712 -0.02734,-1.01226 -0.02734,-1.52149 0,-0.509624 0.01076,-1.015897 0.01953,-1.523432 0,0 -13.52539275,0 -13.52539275,0 m 186.43554875,0 c 0.009,0.507545 0.0195,1.013798 0.0195,1.523432 0,0.50948 -0.0205,1.01412 -0.0293,1.52149 0,0 13.52539,0 13.52539,0 0.008,-0.50754 0.0293,-1.01214 0.0293,-1.52149 0,-0.509547 -0.012,-1.015687 -0.0195,-1.523432 0,0 -13.52539,0 -13.52539,0 m -10.82617,43.464842 c -0.49352,0.8884 -0.99994,1.76784 -1.52344,2.63672 0,0 11.71484,6.76953 11.71484,6.76953 0.5212,-0.87039 1.03206,-1.74749 1.52735,-2.63476 0,0 -11.71875,-6.77149 -11.71875,-6.77149 m -151.271488,0.002 c 0,0 -11.707031,6.76563 -11.707031,6.76563 0.495239,0.88721 1.0062,1.76442 1.527343,2.63477 0,0 11.703125,-6.76368 11.703125,-6.76368 -0.523052,-0.86867 -1.030356,-1.74851 -1.523437,-2.63672 0,0 0,0 0,0"
      style="fill:#fb8d00;stroke:none"/>
</g>
</svg>