<?xml version="1.0" encoding="UTF-8" standalone="no"?>
<!--
  - This file is part of StyleBI.
  -
  - Copyright (c) 2024, InetSoft Technology Corp, All Rights Reserved.
  -
  - The software and information contained herein are copyrighted and
  - proprietary to InetSoft Technology Corp. This software is furnished
  - pursuant to a written license agreement and may be used, copied,
  - transmitted, and stored only in accordance with the terms of such
  - license and with the inclusion of the above copyright notice. Please
  - refer to the file "COPYRIGHT" for further copyright and licensing
  - information. This software and information or any other copies
  - thereof may not be provided or otherwise made available to any other
  - person.
  -->

<svg
  xmlns:dc="http://purl.org/dc/elements/1.1/"
  xmlns:cc="http://creativecommons.org/ns#"
  xmlns:rdf="http://www.w3.org/1999/02/22-rdf-syntax-ns#"
  xmlns:svg="http://www.w3.org/2000/svg"
  xmlns="http://www.w3.org/2000/svg"
  xml:space="preserve"
  enable-background="new 0 0 200 200"
  viewBox="0 0 200 200"
  height="200px"
  width="200px"
  y="0px"
  x="0px"
  id="图层_1"
  version="1.1"><metadata
   id="metadata147"><rdf:RDF><cc:Work
       rdf:about=""><dc:format>image/svg+xml</dc:format><dc:type
  rdf:resource="http://purl.org/dc/dcmitype/StillImage"/><dc:title></dc:title></cc:Work></rdf:RDF></metadata>
  <path
    id="path2"
    d="M58.678,124.632c-4.314-7.211-6.802-15.635-6.802-24.632c0-26.536,21.588-48.124,48.124-48.124  c26.536,0,48.124,21.588,48.124,48.124c0,8.981-2.479,17.391-6.78,24.594l1.731,0.999c4.471-7.497,7.049-16.248,7.049-25.593  c0-27.639-22.485-50.124-50.124-50.124S49.876,72.361,49.876,100c0,9.36,2.586,18.126,7.071,25.631L58.678,124.632z"
    fill="#42BCF4"/>
  <path
    id="path4"
    d="M55.309,126.577C50.673,118.798,48,109.713,48,100  c0-28.719,23.281-52,52-52c28.719,0,52,23.281,52,52c0,9.697-2.664,18.769-7.286,26.539l41.574,24.003  C194.996,135.71,200,118.442,200,100C200,44.771,155.229,0,100,0C44.771,0,0,44.771,0,100c0,18.458,5.014,35.739,13.734,50.58  L55.309,126.577z"
    enable-background="new    "
    fill="#B8DFF4"
    opacity="0.75"/>
  <path
    id="path6"
    d="M157.375,172.287c0,1.615-1.311,2.924-2.924,2.924H45.297  c-1.613,0-2.922-1.309-2.922-2.924v-15.592c0-1.617,1.309-2.926,2.922-2.926h109.154c1.613,0,2.924,1.309,2.924,2.926V172.287z"
    enable-background="new    "
    fill="#B8DFF4"
    opacity="0.75"/>
  <g
    id="g10">
	<text
    id="text8"
    font-size="14"
    transform="translate(58.9985,170.1934)"
    style="font-size:14px;font-family:ArialMT;fill:#020202">00000000.00</text>



</g>
  <circle
    id="circle12"
    r="12.5"
    cy="100"
    cx="100"
    fill="#42BCF4"/>
  <path
    id="path14"
    d="m 100,1 c -0.167202,0 -0.332992,0.00503 -0.5,0.00586 0,0 0,6 0,6 C 99.666957,7.0049784 99.832836,7 100,7 c 0.16716,0 0.33305,0.00498 0.5,0.00586 0,0 0,-6 0,-6 C 100.33299,1.0050313 100.1672,1 100,1 c 0,0 0,0 0,0 m 8.11914,0.3339844 c 0,0 -0.52148,5.9765625 -0.52148,5.9765625 0.33206,0.026858 0.66307,0.057553 0.99414,0.087891 0,0 0.52343,-5.9765625 0.52343,-5.9765625 -0.33168,-0.030284 -0.66347,-0.060887 -0.99609,-0.087891 0,0 0,0 0,0 m -16.255859,0.00195 c -0.333249,0.027114 -0.66574,0.057484 -0.998047,0.087891 0,0 0.523438,5.9765625 0.523438,5.9765625 0.332616,-0.030547 0.664426,-0.060856 0.998047,-0.087891 0,0 -0.523438,-5.9765625 -0.523438,-5.9765625 M 116.69141,2.4082 c 0,0 -1.04102,5.9101563 -1.04102,5.9101563 0.32876,0.055721 0.65875,0.1088064 0.98633,0.1679687 0,0 1.04101,-5.9101562 1.04101,-5.9101562 -0.32757,-0.059047 -0.65764,-0.1121539 -0.98632,-0.1679688 0,0 0,0 0,0 M 83.289062,2.41211 c -0.3287,0.055886 -0.658739,0.1088511 -0.986328,0.1679687 0,0 1.042969,5.9101563 1.042969,5.9101563 0.327593,-0.059231 0.657551,-0.1121795 0.986328,-0.1679688 0,0 -1.042969,-5.9101562 -1.042969,-5.9101562 m -8.435546,1.8144531 c -0.32351,0.08471 -0.644588,0.1738259 -0.966797,0.2617187 0,0 1.554687,5.7949222 1.554687,5.7949222 0.321355,-0.08777 0.642112,-0.175367 0.964844,-0.259765 0,0 -1.552734,-5.7968759 -1.552734,-5.7968759 m 50.289064,0 c 0,0 -1.55274,5.7949219 -1.55274,5.7949219 0.32351,0.08459 0.64468,0.173746 0.9668,0.261719 0,0 1.55274,-5.7949222 1.55274,-5.7949222 -0.32222,-0.087881 -0.64329,-0.1770203 -0.9668,-0.2617187 0,0 0,0 0,0 M 66.607422,6.7792969 c -0.314142,0.1125458 -0.628742,0.2242216 -0.941406,0.3398437 0,0 2.052734,5.6386714 2.052734,5.6386714 0.312736,-0.115764 0.627096,-0.227356 0.941406,-0.339843 0,0 -2.052734,-5.6386721 -2.052734,-5.6386721 m 66.785158,0 c 0,0 -2.05078,5.6406251 -2.05078,5.6406251 0.31431,0.112499 0.62866,0.224067 0.9414,0.339844 0,0 2.05078,-5.6386722 2.05078,-5.6386722 -0.31288,-0.1157046 -0.62704,-0.229173 -0.9414,-0.3417969 0,0 0,0 0,0 M 58.611328,10.048828 c -0.303435,0.139852 -0.606434,0.279053 -0.908203,0.421875 0,0 2.535156,5.439453 2.535156,5.439453 0.302005,-0.143061 0.604422,-0.283936 0.908203,-0.423828 0,0 -2.535156,-5.4375 -2.535156,-5.4375 m 82.781252,0 c 0,0 -2.53711,5.439453 -2.53711,5.439453 0.30275,0.139433 0.60526,0.279295 0.90625,0.421875 0,0 2.53516,-5.439453 2.53516,-5.439453 -0.30071,-0.142317 -0.60195,-0.282507 -0.9043,-0.421875 0,0 0,0 0,0 m -90.466799,3.955078 c -0.289354,0.165479 -0.575767,0.3356 -0.863281,0.503906 0,0 3,5.197266 3,5.197266 0.287897,-0.168658 0.575372,-0.338267 0.865234,-0.503906 0,0 -3.001953,-5.197266 -3.001953,-5.197266 m 98.150389,0 c 0,0 -3.00195,5.197266 -3.00195,5.197266 0.28996,0.165704 0.57724,0.335181 0.86523,0.503906 0,0 3,-5.197266 3,-5.197266 -0.2875,-0.168307 -0.57393,-0.338425 -0.86328,-0.503906 0,0 0,0 0,0 m 7.29688,4.613282 c 0,0 -3.44141,4.914062 -3.44141,4.914062 0.27403,0.190046 0.55039,0.377408 0.82227,0.570312 0,0 3.4414,-4.916015 3.4414,-4.916015 -0.27162,-0.192581 -0.54863,-0.378458 -0.82226,-0.568359 0,0 0,0 0,0 m -112.755862,0.0059 c -0.273917,0.190143 -0.550371,0.377484 -0.822266,0.570312 0,0 3.441406,4.914063 3.441406,4.914063 0.272288,-0.193247 0.549772,-0.379934 0.824219,-0.570313 0,0 -3.443359,-4.914062 -3.443359,-4.914062 m -6.873047,5.222656 c -0.256623,0.213395 -0.509251,0.430554 -0.763672,0.646485 0,0 3.857422,4.595703 3.857422,4.595703 0.254218,-0.215897 0.507113,-0.433284 0.763671,-0.646485 0,0 -3.857421,-4.595703 -3.857421,-4.595703 m 126.513669,0.002 c 0,0 -3.85742,4.595703 -3.85742,4.595703 0.25694,0.213526 0.51104,0.430255 0.76563,0.646485 0,0 3.85546,-4.595703 3.85546,-4.595703 -0.25441,-0.215937 -0.50705,-0.433083 -0.76367,-0.646485 0,0 0,0 0,0 m -132.902341,5.79874 c -0.236989,0.234614 -0.472411,0.47005 -0.707031,0.707032 0,0 4.242187,4.242187 4.242187,4.242187 0.234373,-0.236883 0.470141,-0.472665 0.707031,-0.707031 0,0 -4.242187,-4.242188 -4.242187,-4.242188 m 139.291011,0 c 0,0 -4.24414,4.244141 -4.24414,4.244141 0.23696,0.234446 0.47259,0.470067 0.70704,0.707031 0,0 4.24414,-4.24414 4.24414,-4.24414 -0.23461,-0.236977 -0.47006,-0.472422 -0.70704,-0.707032 0,0 0,0 0,0 m 5.85938,6.332032 c 0,0 -4.5957,3.857422 -4.5957,3.857422 0.21578,0.25407 0.43339,0.507263 0.64648,0.763671 0,0 4.5957,-3.855468 4.5957,-3.855468 -0.21371,-0.257003 -0.43022,-0.51083 -0.64648,-0.765625 0,0 0,0 0,0 m -151.019532,0.0098 c -0.215905,0.254444 -0.433114,0.507028 -0.646484,0.763672 0,0 4.595703,3.855469 4.595703,3.855469 0.213178,-0.256578 0.43061,-0.509434 0.646484,-0.763672 0,0 -4.595703,-3.855469 -4.595703,-3.855469 m 156.322262,6.806641 c 0,0 -4.91601,3.443359 -4.91601,3.443359 0.19293,0.271856 0.38023,0.548258 0.57031,0.822266 0,0 4.91602,-3.441406 4.91602,-3.441406 -0.19044,-0.274362 -0.37718,-0.551885 -0.57032,-0.824219 0,0 0,0 0,0 m -161.623043,0.0098 c -0.192271,0.271182 -0.378759,0.54712 -0.568359,0.820312 0,0 4.914062,3.443359 4.914062,3.443359 0.190046,-0.274028 0.377408,-0.550389 0.570312,-0.822265 0,0 -4.916015,-3.441406 -4.916015,-3.441406 m -4.677735,7.253906 c -0.168434,0.287711 -0.336349,0.57568 -0.501953,0.865234 0,0 5.195313,3 5.195313,3 0.165364,-0.289356 0.335533,-0.575884 0.503906,-0.863281 0,0 -5.197266,-3.001953 -5.197266,-3.001953 m 170.984378,0.002 c 0,0 -5.19727,3 -5.19727,3 0.16866,0.287887 0.33826,0.575382 0.50391,0.865234 0,0 5.19726,-3 5.19726,-3 -0.16575,-0.289841 -0.33531,-0.57724 -0.5039,-0.865234 0,0 0,0 0,0 M 10.470703,57.701172 c -0.142827,0.301766 -0.282018,0.604771 -0.421875,0.908203 0,0 5.4375,2.535156 5.4375,2.535156 0.139651,-0.303242 0.28102,-0.604778 0.423828,-0.90625 0,0 -5.439453,-2.537109 -5.439453,-2.537109 m 179.058597,0.002 c 0,0 -5.43946,2.537109 -5.43946,2.537109 0.14275,0.301366 0.28424,0.603116 0.42383,0.90625 0,0 5.4375,-2.535156 5.4375,-2.535156 -0.13985,-0.303435 -0.27905,-0.606434 -0.42187,-0.908203 0,0 0,0 0,0 M 7.1191406,65.666016 c -0.1153345,0.311886 -0.2256171,0.626096 -0.3378906,0.939453 0,0 5.638672,2.052734 5.638672,2.052734 0.112294,-0.313744 0.224284,-0.627278 0.339844,-0.939453 0,0 -5.6406254,-2.052734 -5.6406254,-2.052734 m 185.7617194,0.002 c 0,0 -5.63867,2.050781 -5.63867,2.050781 0.11576,0.312736 0.22735,0.627096 0.33984,0.941406 0,0 5.63867,-2.052734 5.63867,-2.052734 -0.11234,-0.313568 -0.22444,-0.627357 -0.33984,-0.939453 0,0 0,0 0,0 M 4.4863281,73.890625 c -0.087669,0.321444 -0.1752638,0.642105 -0.2597656,0.964844 0,0 5.7949215,1.552734 5.7949215,1.552734 0.08443,-0.3229 0.173912,-0.643322 0.261719,-0.964844 0,0 -5.7968749,-1.552734 -5.7968749,-1.552734 m 191.0273419,0 c 0,0 -5.79687,1.552734 -5.79687,1.552734 0.088,0.322128 0.17713,0.643286 0.26172,0.966797 0,0 5.79687,-1.552734 5.79687,-1.552734 -0.0847,-0.323515 -0.17384,-0.644582 -0.26172,-0.966797 0,0 0,0 0,0 M 2.5761719,82.322266 c -0.059047,0.327573 -0.1121539,0.657642 -0.1679688,0.986328 0,0 5.9101563,1.041015 5.9101563,1.041015 0.055614,-0.32813 0.1089269,-0.657424 0.1679687,-0.984375 0,0 -5.9101562,-1.042968 -5.9101562,-1.042968 m 194.8476581,0.002 c 0,0 -5.91016,1.041015 -5.91016,1.041015 0.059,0.326951 0.11236,0.656245 0.16797,0.984375 0,0 5.91016,-1.041015 5.91016,-1.041015 -0.0557,-0.328053 -0.10905,-0.65743 -0.16797,-0.984375 0,0 0,0 0,0 m 1.15234,8.541015 c 0,0 -5.97656,0.523438 -5.97656,0.523438 0.0305,0.331971 0.0609,0.663122 0.0879,0.996094 0,0 5.97656,-0.523438 5.97656,-0.523438 -0.0271,-0.3326 -0.0575,-0.664432 -0.0879,-0.996094 0,0 0,0 0,0 M 1.421875,90.882812 c -0.03029,0.331679 -0.060881,0.663478 -0.087891,0.996094 0,0 5.9765625,0.521485 5.9765625,0.521485 0.026881,-0.332339 0.057524,-0.662798 0.087891,-0.994141 0,0 -5.9765625,-0.523438 -5.9765625,-0.523438 M 1.0058594,99.5 C 1.0050313,99.667008 1,99.832798 1,100 c 0,0.1672 0.00503,0.33299 0.00586,0.5 0,0 6,0 6,0 C 7.0049784,100.33305 7,100.16716 7,100 c 0,-0.167164 0.00498,-0.333043 0.00586,-0.5 0,0 -6.0000006,0 -6.0000006,0 m 191.9882806,0 c 8.8e-4,0.166957 0.006,0.332836 0.006,0.5 0,0.16716 -0.005,0.33305 -0.006,0.5 0,0 6,0 6,0 8.3e-4,-0.16701 0.006,-0.3328 0.006,-0.5 0,-0.167202 -0.005,-0.332992 -0.006,-0.5 0,0 -6,0 -6,0 m -0.30664,8.10547 c -0.0269,0.3327 -0.0575,0.66439 -0.0879,0.99609 0,0 5.97656,0.52149 5.97656,0.52149 0.0303,-0.33109 0.0629,-0.66212 0.0899,-0.99414 0,0 -5.97856,-0.52344 -5.97856,-0.52344 m -185.375,0.002 c 0,0 -5.9785156,0.52149 -5.9785156,0.52149 0.02704,0.33266 0.059522,0.66436 0.089844,0.99609 0,0 5.9765625,-0.52344 5.9765625,-0.52344 -0.030372,-0.33105 -0.060998,-0.66209 -0.087891,-0.99414 0,0 1e-7,0 1e-7,0 m 1.0078125,8.05078 c 0,0 -5.9101563,1.04297 -5.9101563,1.04297 0.055743,0.32806 0.1090067,0.65742 0.1679688,0.98438 0,0 5.9101562,-1.04297 5.9101562,-1.04297 -0.059073,-0.32696 -0.1123241,-0.65624 -0.1679687,-0.98438 0,0 0,0 0,0 m 183.3593775,0 c -0.0556,0.32814 -0.1089,0.65742 -0.16797,0.98438 0,0 5.91016,1.04101 5.91016,1.04101 0.059,-0.32695 0.11223,-0.65631 0.16796,-0.98437 0,0 -5.91015,-1.04102 -5.91015,-1.04102 m -1.70117,7.93164 c -0.0846,0.32351 -0.17375,0.64468 -0.26172,0.9668 0,0 5.79687,1.55274 5.79687,1.55274 0.0877,-0.32145 0.17527,-0.64211 0.25977,-0.96485 0,0 -5.79492,-1.55469 -5.79492,-1.55469 m -179.957036,0.002 c 0,0 -5.7949215,1.55273 -5.7949215,1.55273 0.084545,0.3229 0.1740032,0.64324 0.2617187,0.96485 0,0 5.7949218,-1.55274 5.7949218,-1.55274 -0.08781,-0.32152 -0.177285,-0.64195 -0.261719,-0.96484 0,0 0,0 0,0 m 2.398438,7.75195 c 0,0 -5.638672,2.05273 -5.638672,2.05273 0.1127673,0.31472 0.2239888,0.63013 0.3398438,0.94336 0,0 5.6386722,-2.05273 5.6386722,-2.05273 -0.115999,-0.3133 -0.227135,-0.62848 -0.339844,-0.94336 0,0 0,0 0,0 m 175.160158,0 c -0.1123,0.31374 -0.22428,0.62729 -0.33985,0.93945 0,0 5.63868,2.05274 5.63868,2.05274 0.11542,-0.3121 0.22748,-0.62589 0.33984,-0.93946 0,0 -5.63867,-2.05273 -5.63867,-2.05273 m -3.06836,7.51172 c -0.1395,0.30289 -0.28118,0.60513 -0.42383,0.90625 0,0 5.43945,2.53711 5.43945,2.53711 0.1427,-0.30148 0.2841,-0.60311 0.42383,-0.90625 0,0 -5.43945,-2.53711 -5.43945,-2.53711 m -169.023439,0.002 c 0,0 -5.439453,2.53516 -5.439453,2.53516 0.139977,0.30368 0.280875,0.60619 0.423828,0.9082 0,0 5.439453,-2.53711 5.439453,-2.53711 -0.142706,-0.30123 -0.284274,-0.60325 -0.423828,-0.90625 0,0 0,0 0,0 m 165.312499,7.21289 c -0.16569,0.28997 -0.33519,0.57723 -0.5039,0.86524 0,0 5.19726,3.00195 5.19726,3.00195 0.16858,-0.28799 0.33816,-0.57539 0.50391,-0.86523 0,0 -5.19727,-3.00196 -5.19727,-3.00196 m -161.601561,0.002 c 0,0 -5.197266,3 -5.197266,3 0.165911,0.29012 0.337106,0.57695 0.505859,0.86523 0,0 5.197266,-3 5.197266,-3 -0.168883,-0.28828 -0.340003,-0.57499 -0.505859,-0.86523 0,0 0,0 0,0 m 4.332031,6.85937 c 0,0 -4.914062,3.44336 -4.914062,3.44336 0.190116,0.27394 0.37751,0.55035 0.570312,0.82227 0,0 4.914062,-3.44141 4.914062,-3.44141 -0.193218,-0.27231 -0.379962,-0.54975 -0.570312,-0.82422 0,0 0,0 0,0 m 152.9375,0.002 c -0.18975,0.27359 -0.37772,0.54888 -0.57031,0.82032 0,0 4.91601,3.4414 4.91601,3.4414 0.19227,-0.27118 0.37876,-0.54712 0.56836,-0.82031 0,0 -4.91406,-3.44141 -4.91406,-3.44141 m -4.9043,6.45899 c -0.21332,0.25676 -0.43241,0.50926 -0.64843,0.76367 0,0 4.59765,3.85742 4.59765,3.85742 0.21623,-0.25482 0.4328,-0.5086 0.64649,-0.76562 0,0 -4.59571,-3.85547 -4.59571,-3.85547 m -143.12695,0.002 c 0,0 -4.595703,3.85547 -4.595703,3.85547 0.213695,0.25702 0.430246,0.51081 0.646484,0.76562 0,0 4.595703,-3.85742 4.595703,-3.85742 -0.215881,-0.25423 -0.433299,-0.5071 -0.646484,-0.76367 0,0 0,0 0,0 m 137.67188,6.00586 c -0.23484,0.23737 -0.46968,0.47415 -0.70704,0.70899 0,0 4.24414,4.24414 4.24414,4.24414 0.23731,-0.23494 0.4721,-0.47168 0.70704,-0.70899 0,0 -4.24414,-4.24414 -4.24414,-4.24414 m -132.218755,0.002 c 0,0 -4.244141,4.24414 -4.244141,4.24414 0.23461,0.23698 0.470055,0.47243 0.707032,0.70704 0,0 4.24414,-4.24414 4.24414,-4.24414 -0.236964,-0.23445 -0.472585,-0.47008 -0.707031,-0.70704 0,0 0,0 0,0 m 126.269535,5.51172 c -0.25409,0.21577 -0.50725,0.43341 -0.76368,0.64649 0,0 3.85547,4.5957 3.85547,4.5957 0.25702,-0.2137 0.51082,-0.43024 0.76563,-0.64648 0,0 -3.85742,-4.59571 -3.85742,-4.59571 m -120.31641,0.002 c 0,0 -3.857422,4.5957 -3.857422,4.5957 0.254437,0.21591 0.507034,0.43311 0.763672,0.64648 0,0 3.857422,-4.5957 3.857422,-4.5957 -0.256431,-0.21306 -0.509579,-0.43073 -0.763672,-0.64648 0,0 0,0 0,0 m 6.402344,4.98242 c 0,0 -3.441406,4.91601 -3.441406,4.91601 0.271182,0.19227 0.54712,0.37876 0.820312,0.56836 0,0 3.441406,-4.91406 3.441406,-4.91406 -0.273585,-0.18975 -0.548872,-0.37772 -0.820312,-0.57031 0,0 0,0 0,0 m 107.507816,0 c -0.27114,0.19238 -0.54704,0.37882 -0.82032,0.56836 0,0 3.44141,4.91601 3.44141,4.91601 0.27394,-0.19011 0.55035,-0.37751 0.82227,-0.57031 0,0 -3.44336,-4.91406 -3.44336,-4.91406 m -6.81641,4.39648 c -0.28751,0.16844 -0.57381,0.33848 -0.86328,0.50391 0,0 3,5.19726 3,5.19726 0.28984,-0.16575 0.57724,-0.33531 0.86523,-0.5039 0,0 -3.00195,-5.19727 -3.00195,-5.19727 m -93.875,0.002 c 0,0 -3,5.19726 -3,5.19726 0.287994,0.16858 0.575394,0.33816 0.865234,0.50391 0,0 3.001954,-5.19727 3.001954,-5.19727 -0.290349,-0.16591 -0.578811,-0.33497 -0.867188,-0.5039 0,0 0,0 0,0 m 7.175781,3.79101 c 0,0 -2.537109,5.43945 -2.537109,5.43945 0.301231,0.14258 0.603358,0.28226 0.90625,0.42188 0,0 2.535156,-5.4375 2.535156,-5.4375 -0.302591,-0.13936 -0.603469,-0.28132 -0.904297,-0.42383 0,0 0,0 0,0 m 79.525389,0 c -0.30112,0.14265 -0.60336,0.28432 -0.90625,0.42383 0,0 2.53516,5.43945 2.53516,5.43945 0.30368,-0.13998 0.60619,-0.28087 0.9082,-0.42383 0,0 -2.53711,-5.43945 -2.53711,-5.43945 m -72.048826,3.15234 c 0,0 -2.050782,5.63868 -2.050782,5.63868 0.312672,0.11563 0.627258,0.22728 0.941407,0.33984 0,0 2.050781,-5.63867 2.050781,-5.63867 -0.314311,-0.11251 -0.62867,-0.22406 -0.941406,-0.33985 0,0 0,0 0,0 m 64.570316,0 c -0.31274,0.11579 -0.6271,0.22734 -0.94141,0.33985 0,0 2.05273,5.63867 2.05273,5.63867 0.31415,-0.11256 0.62875,-0.22421 0.94141,-0.33984 0,0 -2.05273,-5.63868 -2.05273,-5.63868 m -56.841801,2.47657 c 0,0 -1.552734,5.79492 -1.552734,5.79492 0.322214,0.0879 0.643282,0.17702 0.966797,0.26172 0,0 1.552734,-5.79492 1.552734,-5.79492 -0.323511,-0.0846 -0.644669,-0.17375 -0.966797,-0.26172 0,0 0,0 0,0 m 49.115231,0 c -0.32212,0.088 -0.64329,0.17712 -0.96679,0.26172 0,0 1.55273,5.79492 1.55273,5.79492 0.32351,-0.0847 0.64459,-0.17383 0.9668,-0.26172 0,0 -1.55274,-5.79492 -1.55274,-5.79492 m -41.203121,1.79492 c 0,0 -1.041016,5.91016 -1.041016,5.91016 0.327583,0.0591 0.657634,0.11212 0.986328,0.16796 0,0 1.042969,-5.91015 1.042969,-5.91015 -0.329406,-0.0559 -0.660064,-0.10866 -0.988281,-0.16797 0,0 0,0 0,0 m 33.287111,0 c -0.32696,0.0591 -0.65624,0.11232 -0.98438,0.16797 0,0 1.04102,5.91015 1.04102,5.91015 0.32869,-0.0558 0.65874,-0.10889 0.98633,-0.16796 0,0 -1.04297,-5.91016 -1.04297,-5.91016 m -25.246096,1.08789 c 0,0 -0.521484,5.97656 -0.521484,5.97656 0.331083,0.0303 0.662123,0.0628 0.994141,0.0899 0,0 0.523437,-5.97852 0.523437,-5.97852 -0.332979,-0.027 -0.664115,-0.0574 -0.996094,-0.0879 0,0 0,-4e-5 0,-4e-5 m 17.207036,0 c -0.33106,0.0304 -0.6621,0.061 -0.99414,0.0879 0,0 0.52148,5.97852 0.52148,5.97852 0.33266,-0.0271 0.66437,-0.0595 0.99609,-0.0899 0,0 -0.52343,-5.97652 -0.52343,-5.97652 M 99.5,192.99414 c 0,0 0,6 0,6 0.167008,8.3e-4 0.332798,0.006 0.5,0.006 0.1672,0 0.33299,-0.005 0.5,-0.006 0,0 0,-6 0,-6 -0.16695,8.8e-4 -0.33284,0.006 -0.5,0.006 -0.167164,0 -0.333043,-0.005 -0.5,-0.006 0,0 0,0 0,0"
    style="fill:#ffffff;stroke:none"/>
  <path
    style="fill:#ffffff;stroke:none"
    d="m 100,1 c -0.167202,0 -0.332992,0.00503 -0.5,0.00586 0,0 0,8.999999 0,8.999999 C 99.667,10.004949 99.832786,10 100,10 c 0.16721,0 0.333,0.0049 0.5,0.0059 0,0 0,-9.0000406 0,-9.0000406 C 100.33299,1.0050313 100.1672,1 100,1 c 0,0 0,0 0,0 M 50.925781,14.003906 c -0.289354,0.165479 -0.575767,0.3356 -0.863281,0.503906 0,0 4.5,7.794922 4.5,7.794922 0.287854,-0.168703 0.57535,-0.338322 0.865234,-0.503906 0,0 -4.501953,-7.794922 -4.501953,-7.794922 m 98.150389,0 c 0,0 -4.50195,7.794922 -4.50195,7.794922 0.29016,0.16575 0.5771,0.336984 0.86523,0.50586 0,0 4.50196,-7.796876 4.50196,-7.796876 -0.28799,-0.168595 -0.57541,-0.338147 -0.86524,-0.503906 0,0 0,0 0,0 M 14.507812,50.060547 c -0.168307,0.287504 -0.338425,0.573936 -0.503906,0.863281 0,0 7.794922,4.5 7.794922,4.5 0.165426,-0.289588 0.335368,-0.57572 0.503906,-0.863281 0,0 -7.794922,-4.5 -7.794922,-4.5 m 170.984378,0 c 0,0 -7.79492,4.5 -7.79492,4.5 0.16882,0.288051 0.3382,0.57515 0.5039,0.865234 0,0 7.79492,-4.5 7.79492,-4.5 -0.16575,-0.289841 -0.33531,-0.57724 -0.5039,-0.865234 0,0 0,0 0,0 M 1.0058594,99.5 C 1.0050313,99.667008 1,99.832798 1,100 c 0,0.1672 0.00503,0.33299 0.00586,0.5 0,0 8.999999,0 8.999999,0 C 10.004948,100.33299 10,100.16722 10,100 c 0,-0.167221 0.0049,-0.332993 0.0059,-0.5 0,0 -9.0000406,0 -9.0000406,0 m 188.9882806,0 c 9.1e-4,0.167007 0.006,0.332779 0.006,0.5 0,0.16722 -0.005,0.33299 -0.006,0.5 0,0 9,0 9,0 8.3e-4,-0.16701 0.006,-0.3328 0.006,-0.5 0,-0.167202 -0.005,-0.332992 -0.006,-0.5 0,0 -9,0 -9,0 M 21.796875,144.57227 c 0,0 -7.794922,4.5 -7.794922,4.5 0.165911,0.29012 0.337106,0.57695 0.505859,0.86523 0,0 7.792969,-4.5 7.792969,-4.5 -0.168814,-0.28805 -0.338215,-0.57515 -0.503906,-0.86523 0,0 0,0 0,0 m 156.406245,0 c -0.16541,0.28959 -0.33538,0.57571 -0.5039,0.86328 0,0 7.79492,4.5 7.79492,4.5 0.1683,-0.28752 0.33844,-0.57393 0.50391,-0.86328 0,0 -7.79493,-4.5 -7.79493,-4.5 m -123.64062,33.125 c 0,0 -4.5,7.79687 -4.5,7.79687 0.287994,0.16858 0.575394,0.33816 0.865234,0.50391 0,0 4.5,-7.79493 4.5,-7.79493 -0.290162,-0.16573 -0.577106,-0.33699 -0.865234,-0.50585 0,0 0,0 0,0 m 90.875,0 c -0.28785,0.1687 -0.57535,0.33832 -0.86523,0.5039 0,0 4.50195,7.79492 4.50195,7.79492 0.28984,-0.16575 0.57724,-0.33531 0.86523,-0.5039 0,0 -4.50195,-7.79492 -4.50195,-7.79492 M 99.5,189.99414 c 0,0 0,9 0,9 0.167008,8.3e-4 0.332798,0.006 0.5,0.006 0.1672,0 0.33299,-0.005 0.5,-0.006 0,0 0,-9 0,-9 -0.167,9.1e-4 -0.33279,0.006 -0.5,0.006 -0.167214,0 -0.333,-0.005 -0.5,-0.006 0,0 0,0 0,0"
    id="path94"/>
  <polygon
    id="polygon114"
    points="186.125,98.932 100.044,94.625 100.044,105.049 186.125,100.743 "
    fill="#42BCF4"/>
  <polygon
    id="polygon116"
    points="130.375,98.095 130.375,101.579 183.584,99.837 "
    fill="#FFFFFF"/>
  <g
    id="g136">
	<text
    style="font-size:10px;font-family:ArialMT;fill:#383838"
    id="text118"
    font-size="10"
    transform="translate(26.9478,143.0596)">20</text>


    <text
      style="font-size:10px;font-family:ArialMT;fill:#383838"
      id="text120"
      font-size="10"
      transform="translate(14.2358,103.335)">40</text>


    <text
      style="font-size:10px;font-family:ArialMT;fill:#383838"
      id="text122"
      font-size="10"
      transform="translate(24.7065,61.7129)">60</text>


    <text
      style="font-size:10px;font-family:ArialMT;fill:#383838"
      id="text124"
      font-size="10"
      transform="translate(55.3618,30.4316)">80</text>


    <text
      style="font-size:10px;font-family:ArialMT;fill:#383838"
      id="text126"
      font-size="10"
      transform="translate(90.3345,19.1357)">100</text>


    <text
      style="font-size:10px;font-family:ArialMT;fill:#383838"
      id="text128"
      font-size="10"
      transform="translate(132.582,30.4316)">120</text>


    <text
      style="font-size:10px;font-family:ArialMT;fill:#383838"
      id="text130"
      font-size="10"
      transform="translate(161.3691,61.7129)">140</text>


    <text
      style="font-size:10px;font-family:ArialMT;fill:#383838"
      id="text132"
      font-size="10"
      transform="translate(170.6797,103.335)">160</text>


    <text
      style="font-size:10px;font-family:ArialMT;fill:#383838"
      id="text134"
      font-size="10"
      transform="translate(159.8379,143.0576)">180</text>



</g>
  <g
    id="g140">
	<path
    style="fill:#42bcf4"
    id="path138"
    d="m 100,1 c 54.589,0 99,44.411 99,99 0,54.589 -44.411,99 -99,99 C 45.411,199 1,154.589 1,100 1,45.411 45.411,1 100,1 m 0,-1 C 44.771,0 0,44.771 0,100 0,155.229 44.771,200 100,200 155.229,200 200,155.229 200,100 200,44.771 155.229,0 100,0 Z"/>
</g>
</svg>