<?xml version="1.0" encoding="utf-8"?>
<!--
  - This file is part of StyleBI.
  - Copyright (C) 2024  InetSoft Technology
  -
  - This program is free software: you can redistribute it and/or modify
  - it under the terms of the GNU Affero General Public License as published by
  - the Free Software Foundation, either version 3 of the License, or
  - (at your option) any later version.
  -
  - This program is distributed in the hope that it will be useful,
  - but WITHOUT ANY WARRANTY; without even the implied warranty of
  - MERCHANTABILITY or FITNESS FOR A PARTICULAR PURPOSE.  See the
  - GNU Affero General Public License for more details.
  -
  - You should have received a copy of the GNU Affero General Public License
  - along with this program.  If not, see <https://www.gnu.org/licenses/>.
  -->

<!-- Generator: Adobe Illustrator 15.0.0, SVG Export Plug-In . SVG Version: 6.00 Build 0)  -->
<!DOCTYPE svg PUBLIC "-//W3C//DTD SVG 1.1//EN" "http://www.w3.org/Graphics/SVG/1.1/DTD/svg11.dtd">
<svg version="1.1" id="图层_1" xmlns="http://www.w3.org/2000/svg" xmlns:xlink="http://www.w3.org/1999/xlink" x="0px" y="0px"
	 width="200px" height="200px" viewBox="0 0 200 200" enable-background="new 0 0 200 200" xml:space="preserve">
<path fill="#DFE2E5" d="M100.084,180c-44.112,0-80-35.888-80-80c0-44.112,35.888-80,80-80c44.112,0,80,35.888,80,80
	C180.084,144.112,144.196,180,100.084,180z M100.084,45.263c-30.182,0-54.737,24.555-54.737,54.737s24.555,54.737,54.737,54.737
	c30.183,0,54.737-24.556,54.737-54.737S130.267,45.263,100.084,45.263z"/>
<path fill="#FFFFFF" d="M98.75,20.017v25.28c0.445-0.011,0.887-0.034,1.334-0.034c0.4,0,0.794,0.022,1.192,0.03V20.015
	c-0.398-0.006-0.792-0.015-1.192-0.015C99.639,20,99.194,20.009,98.75,20.017z"/>
</svg>
