<?xml version="1.0" encoding="utf-8"?>
<!--
  - This file is part of StyleBI.
  -
  - Copyright (c) 2024, InetSoft Technology Corp, All Rights Reserved.
  -
  - The software and information contained herein are copyrighted and
  - proprietary to InetSoft Technology Corp. This software is furnished
  - pursuant to a written license agreement and may be used, copied,
  - transmitted, and stored only in accordance with the terms of such
  - license and with the inclusion of the above copyright notice. Please
  - refer to the file "COPYRIGHT" for further copyright and licensing
  - information. This software and information or any other copies
  - thereof may not be provided or otherwise made available to any other
  - person.
  -->

<!-- Generator: Adobe Illustrator 15.0.0, SVG Export Plug-In . SVG Version: 6.00 Build 0)  -->
<!DOCTYPE svg PUBLIC "-//W3C//DTD SVG 1.1//EN" "http://www.w3.org/Graphics/SVG/1.1/DTD/svg11.dtd">
<svg version="1.1" id="图层_1" xmlns="http://www.w3.org/2000/svg" xmlns:xlink="http://www.w3.org/1999/xlink" x="0px" y="0px"
	 width="200px" height="200px" viewBox="0 0 200 200" enable-background="new 0 0 200 200" xml:space="preserve">
  <path fill="#DFE2E5" d="M100.084,192.4c-50.949,0-92.4-41.452-92.4-92.4c0-50.949,41.451-92.4,92.4-92.4
                          c50.948,0,92.4,41.451,92.4,92.4C192.484,150.948,151.032,192.4,100.084,192.4z M100.084,36.779
                          c-34.86,0-63.221,28.361-63.221,63.221s28.361,63.221,63.221,63.221c34.862,0,63.221-28.36,63.221-63.221
                          C163.305,65.141,134.946,36.779,100.084,36.779z"/>
  <path fill="#FFFFFF" d="M98.75,8.019v27.999c0.445-0.012,0.887-0.038,1.334-0.038c0.4,0,0.794,0.024,1.191,0.033V8.017
                          C100.878,8.01,100.484,8,100.084,8C99.639,8,99.194,8.01,98.75,8.019z"/>

</svg>
