<?xml version="1.0" encoding="utf-8"?>
<!--
  - This file is part of StyleBI.
  - Copyright (C) 2024  InetSoft Technology
  -
  - This program is free software: you can redistribute it and/or modify
  - it under the terms of the GNU Affero General Public License as published by
  - the Free Software Foundation, either version 3 of the License, or
  - (at your option) any later version.
  -
  - This program is distributed in the hope that it will be useful,
  - but WITHOUT ANY WARRANTY; without even the implied warranty of
  - MERCHANTABILITY or FITNESS FOR A PARTICULAR PURPOSE.  See the
  - GNU Affero General Public License for more details.
  -
  - You should have received a copy of the GNU Affero General Public License
  - along with this program.  If not, see <https://www.gnu.org/licenses/>.
  -->

<!-- Generator: Adobe Illustrator 15.1.0, SVG Export Plug-In . SVG Version: 6.00 Build 0)  -->
<!DOCTYPE svg PUBLIC "-//W3C//DTD SVG 1.1//EN" "http://www.w3.org/Graphics/SVG/1.1/DTD/svg11.dtd">
<svg version="1.1"
	 id="svg2" xmlns:cc="http://creativecommons.org/ns#" xmlns:dc="http://purl.org/dc/elements/1.1/" xmlns:svg="http://www.w3.org/2000/svg" xmlns:rdf="http://www.w3.org/1999/02/22-rdf-syntax-ns#"
	 xmlns="http://www.w3.org/2000/svg" xmlns:xlink="http://www.w3.org/1999/xlink" x="0px" y="0px" width="70px" height="30px"
	 viewBox="0 0 70 30" enable-background="new 0 0 70 30" xml:space="preserve">
<g id="g10" transform="matrix(1.3333333,0,0,-1.3333333,0,329.66667)">
	<g id="g12" transform="scale(0.1)">
		<path id="path14" fill="#F14C30" d="M413.709,2314.832c0,1.926-0.132,4.204-0.491,6.724c-7.075-2.761-15-6.248-15-11.038
			c0-4.438,3.245-6.724,6.724-6.724C410.339,2303.794,413.709,2309.558,413.709,2314.832L413.709,2314.832z M248.994,2376.253
			c-4.559-2.992-7.793-9.961-7.793-17.64c0-15.472,5.273-15.341,7.317-15.106c2.157,0.234,4.794,1.56,6.482,4.321
			c1.553,2.512,2.274,5.039,2.637,8.756C258.113,2362.216,260.632,2384.053,248.994,2376.253L248.994,2376.253z M260.632,2314.832
			c0,1.926-0.125,4.204-0.483,6.724c-7.075-2.761-14.985-6.248-14.985-11.038c0-4.438,3.226-6.724,6.709-6.724
			C257.274,2303.794,260.632,2309.558,260.632,2314.832z M217.083,2393.527c-3.589,0-7.31,1.436-7.31,10.192
			c0,7.679,7.434,11.4,11.752,11.4c4.08,0,7.555-1.923,7.555-6.72C229.2,2398.445,222.129,2393.527,217.083,2393.527
			L217.083,2393.527z M163.231,2332.593c-2.402-2.161-5.636-3.721-9.957-3.721c-10.071,0-15.597,6.841-15.597,18.113
			c0,6.35,1.915,14.989,1.915,20.632c0,3.234-0.714,5.519-2.875,5.519c-5.039,0-9.474-15.48-9.474-35.394
			c0-3.347-2.281-8.752-14.033-8.752c-1.805,0-2.644,1.443-2.769,3.955c-2.637-2.278-5.991-3.464-9.474-3.464
			c-11.752,0-15.824,9.229-15.824,20.742c0,9.961,1.194,27.228,3.109,31.187c1.923,4.087,8.163,8.639,11.993,8.639
			c2.047,0,4.567-1.436,4.567-5.039c0-4.08-2.882-13.553-2.882-26.514c0-12.946,1.439-16.791,4.318-16.791
			c2.875,0,3.596,3.721,5.156,5.881c0.238,2.527,0.363,5.046,0.48,7.683c0.125,20.504,0.48,22.668,1.326,25.543
			c1.077,5.878,10.195,9.84,14.15,9.84c2.758,0,4.2-1.567,4.2-4.438c0-2.64-1.805-6.24-2.52-11.396
			c2.875,6.475,10.433,14.755,17.391,14.755c7.797,0,9.836-5.881,9.836-13.195c0-7.921-2.04-15.714-2.04-24.353
			c0-6.599,1.08-9.595,3.116-10.437c-0.117,0.601-0.238,1.201-0.238,1.919c0,7.317,7.676,13.312,11.038,13.312
			c2.399,0,3.116-2.15,3.358-5.629c0.359-5.405,2.761-13.447,9.111-13.447c3.479,0,5.526,2.051,5.526,5.281
			c0,4.197-3.845,8.167-8.639,12.239c-0.601,0.359-1.556,1.077-2.882,2.036c-6.954,5.039-14.388,10.437-14.271,19.794
			c0.117,11.396,9.115,16.912,22.072,16.794c12.953-0.117,22.43-8.639,22.313-16.08c-0.117-7.31-7.793-13.312-11.158-13.187
			c-2.402,0-3.116,2.161-3.358,5.643c-0.363,5.391-2.64,13.546-8.998,13.546c-3.475,0-5.519-1.912-5.519-5.156
			c0-4.677,4.318-10.195,10.441-14.033c0.117-0.125,0.355-0.242,0.472-0.359c7.559-4.193,14.637-10.192,14.637-19.559
			c0-11.389-8.877-16.912-21.826-16.912C172.83,2327.429,167.186,2329.48,163.231,2332.593L163.231,2332.593z M382.632,2343.99
			c-0.359,2.043-0.491,4.072-0.491,6.116c0,9.829,1.201,27.103,3.01,31.058c2.036,4.2,8.269,8.643,12.114,8.643
			c2.043,0,4.556-1.439,4.556-5.039c0-4.076-2.871-13.546-2.871-26.506c0-12.836,1.545-16.791,4.915-16.791
			c3.354,0,4.314,4.424,4.314,8.635c0,9.829,1.318,27.103,3.252,31.058c1.912,4.2,8.269,8.643,12.1,8.643
			c1.934,0,4.314-1.439,4.314-5.039c0-4.076-2.747-13.546-2.747-26.506c0-7.203,0.71-14.755,1.677-21.471
			c7.068,5.999,6.958,11.873,10.203,11.873c1.311,0,2.878-1.436,2.878-4.197c0-3.479-1.934-9.961-12.114-16.187
			c0.71-5.046,1.201-9.243,1.201-12.239c0-7.917-3.721-22.793-26.279-22.793c-13.557,0-19.556,7.559-19.556,14.517
			c0,12.349,14.399,16.069,28.916,21.46l-1.56,6.848c-2.402-3.596-6.357-6.724-12.363-6.724c-5.75,0-9.595,2.285-12.114,5.889
			c-2.512-3.127-6.233-5.889-11.755-5.889c-7.302,0-11.624,3.596-13.792,9.001c-2.644-4.321-7.566-9.001-14.868-9.001
			c-6.123,0-10.444,2.285-13.198,5.999c-2.512-3.237-6.357-5.999-11.997-5.999c-11.514,0-15.718,9.243-15.718,20.764
			c0,6.343,2.161,15.828,2.161,21.823c0,3.351-0.593,5.636-2.878,5.636c-7.668,0-8.635-18.234-8.635-30.227
			c0-2.278,0.125-4.556,0.125-9.229c0-3.362-2.292-8.767-14.048-8.767c-1.187,0-1.912,0.725-2.388,2.043
			c-1.333-1.084-2.769-2.168-4.321-3.003c0.718-5.039,1.201-9.229,1.201-12.231c0-7.91-3.713-22.793-26.272-22.793
			c-13.55,0-19.552,7.551-19.552,14.509c0,12.363,14.396,16.077,28.912,21.482c-0.242,1.802-0.721,3.589-1.08,5.281
			c-3.358-3.245-7.921-5.039-12.598-5.156c-5.878,0-9.954,2.996-12.715,7.31c-2.402-3.713-6.478-7.31-12.836-7.31
			c-11.755,0-15.835,9.229-15.835,20.742c0,9.961,1.198,27.228,3.12,31.194c1.915,4.08,8.156,8.635,11.869,8.635
			c2.047,0,4.567-1.439,4.567-5.039c0-4.083-2.886-13.557-2.886-26.517c0-12.946,1.443-16.791,4.321-16.791
			c2.043,0,3.116,1.919,4.076,3.845c-0.714,3.237-1.194,6.592-1.194,9.836c0,25.789,14.396,34.548,23.987,34.548
			c6.002,0,8.522-2.289,9.716-4.57c2.644,2.527,6.372,4.57,8.994,4.57c1.926,0,4.57-1.439,4.57-5.039
			c0-4.083-3.003-13.557-3.003-26.517c0-7.914,0.725-14.989,1.67-21.464c1.685,1.436,3.12,2.996,4.453,4.79
			c0,18.951,4.556,72.338,6.467,76.414c1.912,4.08,8.269,8.514,12.122,8.514c1.802,0,4.321-1.439,4.321-5.039
			c0-2.64-3.12-23.273-4.922-40.668c3.237,4.688,8.511,8.881,14.758,8.881c9.719,0,11.755-7.324,11.755-15.831
			c0-6.482-1.333-12.722-1.333-20.757c0-8.87,2.168-11.748,4.446-11.748c1.553,0,2.512,0.952,3.354,2.278
			c-0.366,2.036-0.601,4.08-0.601,6.24c0,4.922,0.842,18.468,2.278,31.538c-3.589,0.125-6.943,0.721-6.943,3.721
			c0,1.318,3.223,3.241,7.786,5.156c0.959,9.36,2.036,17.274,2.761,18.717c2.051,4.076,8.276,8.518,11.997,8.518
			c2.036,0,4.556-1.439,4.556-5.039c0-1.688-0.842-8.284-2.043-16.439c3.479,0.959,7.566,3.486,10.32,3.486
			c1.436,0,1.802-1.436,1.802-2.761c0-3.116-2.043-8.76-3.12-9.833c-2.153-2.161-5.391-3.127-10.547-3.966
			c-1.099-9.708-2.168-19.424-2.168-24.708c0-12.836,2.512-16.791,5.647-16.791c5.032,0,5.5,5.398,7.91,6.841
			c0,0.601,0,1.194,0,1.794c0,9.829,5.522,63.937,7.434,68.02c1.934,4.072,8.276,8.507,12.122,8.507
			c1.912,0,4.548-1.436,4.548-5.039c0-4.072-7.302-50.38-7.302-63.215c0-12.828,1.311-16.791,4.314-16.791
			C380.962,2341.587,381.907,2342.671,382.632,2343.99L382.632,2343.99z M98.449,2393.527c-3.596,0-7.313,1.436-7.313,10.192
			c0,7.804,7.438,11.4,11.755,11.4c4.08,0,7.551-1.923,7.551-6.72C110.449,2398.445,103.367,2393.527,98.449,2393.527"/>
	</g>
</g>
</svg>
